<?xml version="1.0" encoding="UTF-8" standalone="no"?>
<!-- Created with Inkscape (http://www.inkscape.org/) -->

<svg
   xmlns:dc="http://purl.org/dc/elements/1.1/"
   xmlns:cc="http://creativecommons.org/ns#"
   xmlns:rdf="http://www.w3.org/1999/02/22-rdf-syntax-ns#"
   xmlns:svg="http://www.w3.org/2000/svg"
   xmlns="http://www.w3.org/2000/svg"
   xmlns:sodipodi="http://sodipodi.sourceforge.net/DTD/sodipodi-0.dtd"
   xmlns:inkscape="http://www.inkscape.org/namespaces/inkscape"
   width="744.09448819"
   height="1052.3622047"
   id="svg2"
   version="1.1"
   inkscape:version="0.48.2 r9819"
   sodipodi:docname="New document 1">
  <defs
     id="defs4" />
  <sodipodi:namedview
     id="base"
     pagecolor="#ffffff"
     bordercolor="#666666"
     borderopacity="1.0"
     inkscape:pageopacity="0.0"
     inkscape:pageshadow="2"
     inkscape:zoom="0.35"
     inkscape:cx="375"
     inkscape:cy="520"
     inkscape:document-units="px"
     inkscape:current-layer="layer1"
     showgrid="false"
     inkscape:window-width="1920"
     inkscape:window-height="1028"
     inkscape:window-x="-8"
     inkscape:window-y="-8"
     inkscape:window-maximized="1" />
  <metadata
     id="metadata7">
    <rdf:RDF>
      <cc:Work
         rdf:about="">
        <dc:format>image/svg+xml</dc:format>
        <dc:type
           rdf:resource="http://purl.org/dc/dcmitype/StillImage" />
        <dc:title></dc:title>
      </cc:Work>
    </rdf:RDF>
  </metadata>
  <g
     inkscape:label="Layer 1"
     inkscape:groupmode="layer"
     id="layer1">
    <g
       id="g2989"
       transform="matrix(0.11545911,0,0,-0.11545911,-47.491319,1001.9993)"
       style="fill:#000000;stroke:none">
      <path
         id="path2991"
         d="m 3337,7343 c -75,-170 -137,-313 -137,-319 0,-12 170,-79 384,-153 157,-54 174,-49 231,76 22,48 40,73 55,78 29,9 102,-2 168,-27 29,-11 55,-18 56,-16 6,6 146,463 146,475 0,6 -8,14 -17,17 -60,17 -721,176 -734,176 -10,0 -57,-94 -152,-307 z"
         inkscape:connector-curvature="0" />
      <path
         id="path2993"
         d="m 4696,7282 c -15,-25 -138,-464 -140,-499 -1,-55 28,-86 109,-113 88,-29 99,-45 92,-122 -3,-35 -13,-82 -21,-105 -11,-31 -12,-44 -4,-50 7,-3 118,-32 247,-63 207,-50 237,-55 243,-41 4,9 25,124 47,256 23,132 52,299 65,370 13,72 21,133 18,136 -8,8 -630,239 -642,239 -5,0 -11,-3 -14,-8 z"
         inkscape:connector-curvature="0" />
      <path
         id="path2995"
         d="m 4206,7064 c -26,-64 -44,-120 -39,-125 9,-9 283,-129 294,-129 11,0 111,241 105,255 -3,9 -288,115 -308,115 -2,0 -25,-52 -52,-116 z"
         inkscape:connector-curvature="0" />
      <path
         id="path2997"
         d="m 3904,6856 c -34,-12 -85,-40 -113,-60 -56,-42 -149,-162 -135,-176 5,-4 41,-18 79,-29 39,-12 77,-24 86,-26 11,-4 26,9 44,36 38,54 89,79 162,79 l 58,0 38,90 c 21,49 36,94 32,100 -3,6 -45,10 -98,9 -70,0 -107,-5 -153,-23 z"
         inkscape:connector-curvature="0" />
      <path
         id="path2999"
         d="m 3327,6683 c -36,-93 -67,-174 -69,-182 -2,-8 34,-29 101,-57 57,-24 109,-44 116,-44 11,0 165,309 165,330 0,8 -185,101 -228,114 -16,5 -27,-17 -85,-161 z"
         inkscape:connector-curvature="0" />
      <path
         id="path3001"
         d="m 4245,6808 c -7,-20 -35,-157 -35,-173 0,-7 20,-25 44,-39 56,-33 86,-81 93,-150 l 6,-55 91,-31 c 50,-16 94,-30 99,-30 14,0 7,130 -12,189 -26,83 -60,137 -123,198 -63,59 -156,111 -163,91 z"
         inkscape:connector-curvature="0" />
      <path
         id="path3003"
         d="m 3000,6516 c 0,-6 -104,-388 -159,-588 -23,-81 -41,-153 -41,-160 0,-17 619,-314 629,-302 16,18 184,449 189,486 7,53 -18,85 -91,118 -87,39 -101,57 -92,117 3,26 17,74 30,106 l 23,59 -31,13 c -34,14 -446,155 -453,155 -2,0 -4,-2 -4,-4 z"
         inkscape:connector-curvature="0" />
      <path
         id="path3005"
         d="m 3635,6500 c -13,-21 -17,-139 -6,-192 17,-80 64,-170 119,-224 43,-43 120,-99 127,-92 2,2 17,43 34,92 l 31,88 -49,44 c -56,50 -74,92 -70,161 l 3,47 -84,43 c -94,46 -96,47 -105,33 z"
         inkscape:connector-curvature="0" />
      <path
         id="path3007"
         d="m 5440,6235 c -113,-101 -204,-189 -203,-194 2,-6 39,-67 83,-136 44,-69 80,-130 80,-136 0,-6 -43,-61 -95,-121 -110,-127 -102,-93 -80,-358 8,-96 15,-185 15,-198 l 0,-23 -178,2 -178,2 -134,-137 c -73,-75 -140,-145 -147,-156 -8,-11 -19,-20 -24,-20 -6,0 -87,66 -181,148 -94,81 -183,157 -199,170 l -28,23 -143,-85 -143,-84 -7,26 c -3,15 -9,71 -13,125 l -7,97 -236,-2 -237,-3 2,-33 c 3,-75 1,-74 145,-112 l 133,-35 3,-157 c 3,-181 -10,-162 121,-173 73,-5 74,-5 137,35 48,30 80,42 131,50 121,17 102,27 338,-176 119,-102 219,-184 224,-182 4,2 72,75 152,163 79,88 162,179 184,203 l 40,43 290,35 c 160,20 291,37 292,38 2,1 -19,68 -46,149 -43,129 -51,162 -62,291 -12,141 -12,147 7,173 12,16 67,92 124,171 l 103,143 -78,127 -77,127 53,170 c 28,94 54,176 56,183 3,6 1,12 -3,12 -5,-1 -101,-84 -214,-185 z"
         inkscape:connector-curvature="0" />
      <path
         id="path3009"
         d="m 4632,6163 c -23,-93 -42,-173 -42,-179 0,-15 189,-70 200,-58 16,17 121,307 113,314 -11,10 -206,90 -218,90 -6,0 -29,-75 -53,-167 z"
         inkscape:connector-curvature="0" />
      <path
         id="path3011"
         d="m 4286,6202 c -29,-56 -80,-86 -155,-90 l -67,-4 -37,-90 c -20,-50 -34,-94 -31,-99 3,-5 41,-9 84,-9 171,0 317,84 398,228 l 23,41 -69,20 c -124,37 -128,37 -146,3 z"
         inkscape:connector-curvature="0" />
      <path
         id="path3013"
         d="m 3677,5791 c -15,-50 -27,-96 -27,-103 0,-10 152,-81 290,-136 5,-2 31,42 59,97 l 51,99 -168,66 c -92,36 -170,66 -173,66 -3,0 -17,-40 -32,-89 z"
         inkscape:connector-curvature="0" />
      <path
         id="path3015"
         d="m 4465,5839 c -15,-12 -42,-55 -60,-94 -22,-49 -40,-75 -54,-80 -27,-8 -88,2 -160,26 -30,11 -58,16 -62,12 -11,-12 -151,-474 -146,-480 3,-3 144,-38 314,-79 408,-99 443,-107 448,-102 4,4 259,572 275,615 8,20 3,24 -73,53 -162,62 -418,150 -436,150 -10,0 -31,-10 -46,-21 z"
         inkscape:connector-curvature="0" />
      <path
         id="path3017"
         d="m 3274,4825 c -136,-29 -261,-104 -467,-277 -127,-106 -275,-221 -517,-400 l -125,-93 -12,-55 c -27,-133 -7,-261 47,-290 15,-8 73,-10 183,-8 138,3 170,7 218,26 110,44 196,102 454,307 252,200 258,204 274,195 32,-18 354,-275 358,-285 3,-9 -148,-197 -669,-830 l -156,-190 -347,-630 c -191,-346 -355,-638 -364,-648 -9,-11 -138,-117 -286,-237 -149,-120 -343,-286 -432,-369 l -161,-150 -26,-79 c -36,-107 -48,-187 -36,-233 12,-43 86,-109 159,-142 132,-59 306,33 791,418 161,128 435,333 508,380 l 61,40 293,527 c 317,570 308,557 385,545 108,-18 205,-102 591,-518 l 191,-207 -76,-563 -76,-562 17,-72 c 23,-96 72,-191 119,-229 60,-48 115,-44 245,19 193,92 199,107 247,650 31,346 93,978 100,1018 4,26 -26,59 -368,403 -204,206 -373,378 -375,383 -1,4 86,118 194,252 108,134 224,279 258,321 34,42 64,77 68,77 4,1 240,-233 525,-520 362,-364 532,-528 563,-544 123,-62 272,-83 340,-46 51,27 83,93 76,155 -14,122 -173,365 -421,644 -43,48 -162,175 -264,282 -180,188 -467,491 -527,557 -16,17 -348,248 -738,512 -507,344 -716,481 -735,480 -14,0 -54,-7 -87,-14 z"
         inkscape:connector-curvature="0" />
      <path
         id="path3019"
         d="m 5150,4681 -55,-6 -167,-214 c -93,-118 -168,-220 -168,-227 0,-44 102,-107 225,-139 128,-33 338,-45 437,-24 215,46 345,235 393,572 l 6,47 -308,-2 c -169,-1 -333,-4 -363,-7 z"
         inkscape:connector-curvature="0" />
    </g>
  </g>
</svg>
