999
DXF created by Inkscape
  0
SECTION
  2
HEADER
  9
$ACADVER
  1
AC1014
  9
$HANDSEED
  5
FFFF
  9
$MEASUREMENT
 70
     1
  0
ENDSEC
  0
SECTION
  2
TABLES
  0
TABLE
  2
VPORT
  5
8
330
0
100
AcDbSymbolTable
 70
     4
  0
VPORT
  5
2E
330
8
100
AcDbSymbolTableRecord
100
AcDbViewportTableRecord
  2
*ACTIVE
 70
     0
 10
0.0
 20
0.0
 11
1.0
 21
1.0
 12
210.0
 22
148.5
 13
0.0
 23
0.0
 14
10.0
 24
10.0
 15
10.0
 25
10.0
 16
0.0
 26
0.0
 36
1.0
 17
0.0
 27
0.0
 37
0.0
 40
341.0
 41
1.24
 42
50.0
 43
0.0
 44
0.0
 50
0.0
 51
0.0
 71
     0
 72
   100
 73
     1
 74
     3
 75
     0
 76
     0
 77
     0
 78
     0
  0
ENDTAB
  0
TABLE
  2
LTYPE
  5
5
330
0
100
AcDbSymbolTable
 70
     1
  0
LTYPE
  5
14
330
5
100
AcDbSymbolTableRecord
100
AcDbLinetypeTableRecord
  2
BYBLOCK
 70
     0
  3

 72
    65
 73
     0
 40
0.0
  0
LTYPE
  5
15
330
5
100
AcDbSymbolTableRecord
100
AcDbLinetypeTableRecord
  2
BYLAYER
 70
     0
  3

 72
    65
 73
     0
 40
0.0
  0
LTYPE
  5
16
330
5
100
AcDbSymbolTableRecord
100
AcDbLinetypeTableRecord
  2
CONTINUOUS
 70
     0
  3
Solid line
 72
    65
 73
     0
 40
0.0
  0
ENDTAB
  0
TABLE
  2
LAYER
  5
2
100
AcDbSymbolTable
 70
2
  0
LAYER
  5
50
100
AcDbSymbolTableRecord
100
AcDbLayerTableRecord
  2
0
 70
0
  6
CONTINUOUS
  0
LAYER
  5
51
100
AcDbSymbolTableRecord
100
AcDbLayerTableRecord
  2
Layer_1
 70
0
  6
CONTINUOUS
  0
ENDTAB
  0
TABLE
  2
STYLE
  5
3
330
0
100
AcDbSymbolTable
 70
     1
  0
STYLE
  5
11
330
3
100
AcDbSymbolTableRecord
100
AcDbTextStyleTableRecord
  2
STANDARD
 70
     0
 40
0.0
 41
1.0
 50
0.0
 71
     0
 42
2.5
  3
txt
  4

  0
ENDTAB
  0
TABLE
  2
VIEW
  5
6
330
0
100
AcDbSymbolTable
 70
     0
  0
ENDTAB
  0
TABLE
  2
UCS
  5
7
330
0
100
AcDbSymbolTable
 70
     0
  0
ENDTAB
  0
TABLE
  2
APPID
  5
9
330
0
100
AcDbSymbolTable
 70
     2
  0
APPID
  5
12
330
9
100
AcDbSymbolTableRecord
100
AcDbRegAppTableRecord
  2
ACAD
 70
     0
  0
ENDTAB
  0
TABLE
  2
DIMSTYLE
  5
A
330
0
100
AcDbSymbolTable
 70
     1
  0
DIMSTYLE
105
27
330
A
100
AcDbSymbolTableRecord
100
AcDbDimStyleTableRecord
  2
ISO-25
 70
     0
  3

  4

  5

  6

  7

 40
1.0
 41
2.5
 42
0.625
 43
3.75
 44
1.25
 45
0.0
 46
0.0
 47
0.0
 48
0.0
140
2.5
141
2.5
142
0.0
143
0.03937007874016
144
1.0
145
0.0
146
1.0
147
0.625
 71
     0
 72
     0
 73
     0
 74
     0
 75
     0
 76
     0
 77
     1
 78
     8
170
     0
171
     3
172
     1
173
     0
174
     0
175
     0
176
     0
177
     0
178
     0
270
     2
271
     2
272
     2
273
     2
274
     3
340
11
275
     0
280
     0
281
     0
282
     0
283
     0
284
     8
285
     0
286
     0
287
     3
288
     0
  0
ENDTAB
  0
TABLE
  2
BLOCK_RECORD
  5
1
330
0
100
AcDbSymbolTable
 70
     1
  0
BLOCK_RECORD
  5
1F
330
1
100
AcDbSymbolTableRecord
100
AcDbBlockTableRecord
  2
*MODEL_SPACE
  0
BLOCK_RECORD
  5
1B
330
1
100
AcDbSymbolTableRecord
100
AcDbBlockTableRecord
  2
*PAPER_SPACE
  0
ENDTAB
  0
ENDSEC
  0
SECTION
  2
BLOCKS
  0
BLOCK
  5
20
330
1F
100
AcDbEntity
  8
0
100
AcDbBlockBegin
  2
*MODEL_SPACE
 70
     0
 10
0.0
 20
0.0
 30
0.0
  3
*MODEL_SPACE
  1

  0
ENDBLK
  5
21
330
1F
100
AcDbEntity
  8
0
100
AcDbBlockEnd
  0
BLOCK
  5
1C
330
1B
100
AcDbEntity
 67
     1
  8
0
100
AcDbBlockBegin
  2
*PAPER_SPACE
  1

  0
ENDBLK
  5
1D
330
1B
100
AcDbEntity
 67
     1
  8
0
100
AcDbBlockEnd
  0
ENDSEC
  0
SECTION
  2
ENTITIES
  0
SPLINE
  5
100
100
AcDbEntity
  8
Layer_1
 62
7
100
AcDbSpline
 70
8
 71
3
 72
8
 73
4
 74
0
 40
0
 40
0
 40
0
 40
0
 40
1
 40
1
 40
1
 40
1
 10
95.333462
 20
253.486116
 30
0.0
 10
92.889577
 20
247.946644
 30
0.0
 10
90.869300
 20
243.286971
 30
0.0
 10
90.869300
 20
243.091460
 30
0.0
  0
SPLINE
  5
101
100
AcDbEntity
  8
Layer_1
 62
7
100
AcDbSpline
 70
8
 71
3
 72
8
 73
4
 74
0
 40
0
 40
0
 40
0
 40
0
 40
1
 40
1
 40
1
 40
1
 10
90.869300
 20
243.091460
 30
0.0
 10
90.869300
 20
242.700439
 30
0.0
 10
96.408771
 20
240.517235
 30
0.0
 10
103.381988
 20
238.105936
 30
0.0
  0
SPLINE
  5
102
100
AcDbEntity
  8
Layer_1
 62
7
100
AcDbSpline
 70
8
 71
3
 72
8
 73
4
 74
0
 40
0
 40
0
 40
0
 40
0
 40
1
 40
1
 40
1
 40
1
 10
103.381988
 20
238.105936
 30
0.0
 10
108.497853
 20
236.346339
 30
0.0
 10
109.051800
 20
236.509265
 30
0.0
 10
110.909152
 20
240.582405
 30
0.0
  0
SPLINE
  5
103
100
AcDbEntity
  8
Layer_1
 62
7
100
AcDbSpline
 70
8
 71
3
 72
8
 73
4
 74
0
 40
0
 40
0
 40
0
 40
0
 40
1
 40
1
 40
1
 40
1
 10
110.909152
 20
240.582405
 30
0.0
 10
111.626025
 20
242.146491
 30
0.0
 10
112.212557
 20
242.961120
 30
0.0
 10
112.701334
 20
243.124045
 30
0.0
  0
SPLINE
  5
104
100
AcDbEntity
  8
Layer_1
 62
7
100
AcDbSpline
 70
8
 71
3
 72
8
 73
4
 74
0
 40
0
 40
0
 40
0
 40
0
 40
1
 40
1
 40
1
 40
1
 10
112.701334
 20
243.124045
 30
0.0
 10
113.646303
 20
243.417311
 30
0.0
 10
116.025017
 20
243.058875
 30
0.0
 10
118.175636
 20
242.244247
 30
0.0
  0
SPLINE
  5
105
100
AcDbEntity
  8
Layer_1
 62
7
100
AcDbSpline
 70
8
 71
3
 72
8
 73
4
 74
0
 40
0
 40
0
 40
0
 40
0
 40
1
 40
1
 40
1
 40
1
 10
118.175636
 20
242.244247
 30
0.0
 10
119.120604
 20
241.885810
 30
0.0
 10
119.967818
 20
241.657715
 30
0.0
 10
120.000403
 20
241.722885
 30
0.0
  0
SPLINE
  5
106
100
AcDbEntity
  8
Layer_1
 62
7
100
AcDbSpline
 70
8
 71
3
 72
8
 73
4
 74
0
 40
0
 40
0
 40
0
 40
0
 40
1
 40
1
 40
1
 40
1
 10
120.000403
 20
241.722885
 30
0.0
 10
120.195913
 20
241.918396
 30
0.0
 10
124.757831
 20
256.809798
 30
0.0
 10
124.757831
 20
257.200820
 30
0.0
  0
SPLINE
  5
107
100
AcDbEntity
  8
Layer_1
 62
7
100
AcDbSpline
 70
8
 71
3
 72
8
 73
4
 74
0
 40
0
 40
0
 40
0
 40
0
 40
1
 40
1
 40
1
 40
1
 10
124.757831
 20
257.200820
 30
0.0
 10
124.757831
 20
257.396331
 30
0.0
 10
124.497150
 20
257.657012
 30
0.0
 10
124.203884
 20
257.754767
 30
0.0
  0
SPLINE
  5
108
100
AcDbEntity
  8
Layer_1
 62
7
100
AcDbSpline
 70
8
 71
3
 72
8
 73
4
 74
0
 40
0
 40
0
 40
0
 40
0
 40
1
 40
1
 40
1
 40
1
 10
124.203884
 20
257.754767
 30
0.0
 10
122.248776
 20
258.308714
 30
0.0
 10
100.710008
 20
263.489749
 30
0.0
 10
100.286401
 20
263.489749
 30
0.0
  0
SPLINE
  5
109
100
AcDbEntity
  8
Layer_1
 62
7
100
AcDbSpline
 70
8
 71
3
 72
8
 73
4
 74
0
 40
0
 40
0
 40
0
 40
0
 40
1
 40
1
 40
1
 40
1
 10
100.286401
 20
263.489749
 30
0.0
 10
99.960550
 20
263.489749
 30
0.0
 10
98.429049
 20
260.426747
 30
0.0
 10
95.333462
 20
253.486116
 30
0.0
  0
SPLINE
  5
10a
100
AcDbEntity
  8
Layer_1
 62
7
100
AcDbSpline
 70
8
 71
3
 72
8
 73
4
 74
0
 40
0
 40
0
 40
0
 40
0
 40
1
 40
1
 40
1
 40
1
 10
139.616649
 20
251.498423
 30
0.0
 10
139.127872
 20
250.683795
 30
0.0
 10
135.119901
 20
236.378924
 30
0.0
 10
135.054731
 20
235.238445
 30
0.0
  0
SPLINE
  5
10b
100
AcDbEntity
  8
Layer_1
 62
7
100
AcDbSpline
 70
8
 71
3
 72
8
 73
4
 74
0
 40
0
 40
0
 40
0
 40
0
 40
1
 40
1
 40
1
 40
1
 10
135.054731
 20
235.238445
 30
0.0
 10
135.022146
 20
233.446263
 30
0.0
 10
135.967115
 20
232.436124
 30
0.0
 10
138.606510
 20
231.556325
 30
0.0
  0
SPLINE
  5
10c
100
AcDbEntity
  8
Layer_1
 62
7
100
AcDbSpline
 70
8
 71
3
 72
8
 73
4
 74
0
 40
0
 40
0
 40
0
 40
0
 40
1
 40
1
 40
1
 40
1
 10
138.606510
 20
231.556325
 30
0.0
 10
141.474001
 20
230.611357
 30
0.0
 10
141.832438
 20
230.089995
 30
0.0
 10
141.604342
 20
227.580940
 30
0.0
  0
SPLINE
  5
10d
100
AcDbEntity
  8
Layer_1
 62
7
100
AcDbSpline
 70
8
 71
3
 72
8
 73
4
 74
0
 40
0
 40
0
 40
0
 40
0
 40
1
 40
1
 40
1
 40
1
 10
141.604342
 20
227.580940
 30
0.0
 10
141.506586
 20
226.440460
 30
0.0
 10
141.180735
 20
224.908959
 30
0.0
 10
140.920054
 20
224.159502
 30
0.0
  0
SPLINE
  5
10e
100
AcDbEntity
  8
Layer_1
 62
7
100
AcDbSpline
 70
8
 71
3
 72
8
 73
4
 74
0
 40
0
 40
0
 40
0
 40
0
 40
1
 40
1
 40
1
 40
1
 10
140.920054
 20
224.159502
 30
0.0
 10
140.561618
 20
223.149363
 30
0.0
 10
140.529032
 20
222.725756
 30
0.0
 10
140.789713
 20
222.530245
 30
0.0
  0
SPLINE
  5
10f
100
AcDbEntity
  8
Layer_1
 62
7
100
AcDbSpline
 70
8
 71
3
 72
8
 73
4
 74
0
 40
0
 40
0
 40
0
 40
0
 40
1
 40
1
 40
1
 40
1
 10
140.789713
 20
222.530245
 30
0.0
 10
141.017809
 20
222.432490
 30
0.0
 10
144.634758
 20
221.487521
 30
0.0
 10
148.838240
 20
220.477382
 30
0.0
  0
SPLINE
  5
110
100
AcDbEntity
  8
Layer_1
 62
7
100
AcDbSpline
 70
8
 71
3
 72
8
 73
4
 74
0
 40
0
 40
0
 40
0
 40
0
 40
1
 40
1
 40
1
 40
1
 10
148.838240
 20
220.477382
 30
0.0
 10
155.583361
 20
218.848126
 30
0.0
 10
156.560915
 20
218.685200
 30
0.0
 10
156.756426
 20
219.141392
 30
0.0
  0
SPLINE
  5
111
100
AcDbEntity
  8
Layer_1
 62
7
100
AcDbSpline
 70
8
 71
3
 72
8
 73
4
 74
0
 40
0
 40
0
 40
0
 40
0
 40
1
 40
1
 40
1
 40
1
 10
156.756426
 20
219.141392
 30
0.0
 10
156.886766
 20
219.434658
 30
0.0
 10
157.571054
 20
223.181948
 30
0.0
 10
158.287926
 20
227.483184
 30
0.0
  0
SPLINE
  5
112
100
AcDbEntity
  8
Layer_1
 62
7
100
AcDbSpline
 70
8
 71
3
 72
8
 73
4
 74
0
 40
0
 40
0
 40
0
 40
0
 40
1
 40
1
 40
1
 40
1
 10
158.287926
 20
227.483184
 30
0.0
 10
159.037384
 20
231.784421
 30
0.0
 10
159.982353
 20
237.226137
 30
0.0
 10
160.405960
 20
239.539681
 30
0.0
  0
SPLINE
  5
113
100
AcDbEntity
  8
Layer_1
 62
7
100
AcDbSpline
 70
8
 71
3
 72
8
 73
4
 74
0
 40
0
 40
0
 40
0
 40
0
 40
1
 40
1
 40
1
 40
1
 10
160.405960
 20
239.539681
 30
0.0
 10
160.829566
 20
241.885810
 30
0.0
 10
161.090247
 20
243.873503
 30
0.0
 10
160.992492
 20
243.971259
 30
0.0
  0
SPLINE
  5
114
100
AcDbEntity
  8
Layer_1
 62
7
100
AcDbSpline
 70
8
 71
3
 72
8
 73
4
 74
0
 40
0
 40
0
 40
0
 40
0
 40
1
 40
1
 40
1
 40
1
 10
160.992492
 20
243.971259
 30
0.0
 10
160.731811
 20
244.231940
 30
0.0
 10
140.463862
 20
251.759104
 30
0.0
 10
140.072841
 20
251.759104
 30
0.0
  0
SPLINE
  5
115
100
AcDbEntity
  8
Layer_1
 62
7
100
AcDbSpline
 70
8
 71
3
 72
8
 73
4
 74
0
 40
0
 40
0
 40
0
 40
0
 40
1
 40
1
 40
1
 40
1
 10
140.072841
 20
251.759104
 30
0.0
 10
139.909915
 20
251.759104
 30
0.0
 10
139.714404
 20
251.661348
 30
0.0
 10
139.616649
 20
251.498423
 30
0.0
  0
LWPOLYLINE
  5
116
100
AcDbEntity
  8
Layer_1
 62
7
100
AcDbPolyline
 90
2
 70
0
 10
95.333462
 20
253.486116
 30
0.0
 10
95.333462
 20
253.486116
 30
0.0
  0
SPLINE
  5
117
100
AcDbEntity
  8
Layer_1
 62
7
100
AcDbSpline
 70
8
 71
3
 72
8
 73
4
 74
0
 40
0
 40
0
 40
0
 40
0
 40
1
 40
1
 40
1
 40
1
 10
123.649937
 20
244.394865
 30
0.0
 10
122.802724
 20
242.309417
 30
0.0
 10
122.216191
 20
240.484650
 30
0.0
 10
122.379117
 20
240.321724
 30
0.0
  0
SPLINE
  5
118
100
AcDbEntity
  8
Layer_1
 62
7
100
AcDbSpline
 70
8
 71
3
 72
8
 73
4
 74
0
 40
0
 40
0
 40
0
 40
0
 40
1
 40
1
 40
1
 40
1
 10
122.379117
 20
240.321724
 30
0.0
 10
122.672383
 20
240.028458
 30
0.0
 10
131.600708
 20
236.118243
 30
0.0
 10
131.959144
 20
236.118243
 30
0.0
  0
SPLINE
  5
119
100
AcDbEntity
  8
Layer_1
 62
7
100
AcDbSpline
 70
8
 71
3
 72
8
 73
4
 74
0
 40
0
 40
0
 40
0
 40
0
 40
1
 40
1
 40
1
 40
1
 10
131.959144
 20
236.118243
 30
0.0
 10
132.317581
 20
236.118243
 30
0.0
 10
135.576093
 20
243.971259
 30
0.0
 10
135.380582
 20
244.427450
 30
0.0
  0
SPLINE
  5
11a
100
AcDbEntity
  8
Layer_1
 62
7
100
AcDbSpline
 70
8
 71
3
 72
8
 73
4
 74
0
 40
0
 40
0
 40
0
 40
0
 40
1
 40
1
 40
1
 40
1
 10
135.380582
 20
244.427450
 30
0.0
 10
135.282827
 20
244.720716
 30
0.0
 10
125.996066
 20
248.174740
 30
0.0
 10
125.344363
 20
248.174740
 30
0.0
  0
SPLINE
  5
11b
100
AcDbEntity
  8
Layer_1
 62
7
100
AcDbSpline
 70
8
 71
3
 72
8
 73
4
 74
0
 40
0
 40
0
 40
0
 40
0
 40
1
 40
1
 40
1
 40
1
 10
125.344363
 20
248.174740
 30
0.0
 10
125.279193
 20
248.174740
 30
0.0
 10
124.529735
 20
246.480313
 30
0.0
 10
123.649937
 20
244.394865
 30
0.0
  0
LWPOLYLINE
  5
11c
100
AcDbEntity
  8
Layer_1
 62
7
100
AcDbPolyline
 90
2
 70
0
 10
139.616649
 20
251.498423
 30
0.0
 10
139.616649
 20
251.498423
 30
0.0
  0
SPLINE
  5
11d
100
AcDbEntity
  8
Layer_1
 62
7
100
AcDbSpline
 70
8
 71
3
 72
8
 73
4
 74
0
 40
0
 40
0
 40
0
 40
0
 40
1
 40
1
 40
1
 40
1
 10
113.809229
 20
237.617159
 30
0.0
 10
112.701334
 20
237.226137
 30
0.0
 10
111.039493
 20
236.313754
 30
0.0
 10
110.127109
 20
235.662051
 30
0.0
  0
SPLINE
  5
11e
100
AcDbEntity
  8
Layer_1
 62
7
100
AcDbSpline
 70
8
 71
3
 72
8
 73
4
 74
0
 40
0
 40
0
 40
0
 40
0
 40
1
 40
1
 40
1
 40
1
 10
110.127109
 20
235.662051
 30
0.0
 10
108.302342
 20
234.293476
 30
0.0
 10
105.271925
 20
230.383261
 30
0.0
 10
105.728117
 20
229.927069
 30
0.0
  0
SPLINE
  5
11f
100
AcDbEntity
  8
Layer_1
 62
7
100
AcDbSpline
 70
8
 71
3
 72
8
 73
4
 74
0
 40
0
 40
0
 40
0
 40
0
 40
1
 40
1
 40
1
 40
1
 10
105.728117
 20
229.927069
 30
0.0
 10
105.891043
 20
229.796728
 30
0.0
 10
107.064107
 20
229.340537
 30
0.0
 10
108.302342
 20
228.982100
 30
0.0
  0
SPLINE
  5
120
100
AcDbEntity
  8
Layer_1
 62
7
100
AcDbSpline
 70
8
 71
3
 72
8
 73
4
 74
0
 40
0
 40
0
 40
0
 40
0
 40
1
 40
1
 40
1
 40
1
 10
108.302342
 20
228.982100
 30
0.0
 10
109.573162
 20
228.591079
 30
0.0
 10
110.811397
 20
228.200057
 30
0.0
 10
111.104663
 20
228.134887
 30
0.0
  0
SPLINE
  5
121
100
AcDbEntity
  8
Layer_1
 62
7
100
AcDbSpline
 70
8
 71
3
 72
8
 73
4
 74
0
 40
0
 40
0
 40
0
 40
0
 40
1
 40
1
 40
1
 40
1
 10
111.104663
 20
228.134887
 30
0.0
 10
111.463100
 20
228.004547
 30
0.0
 10
111.951876
 20
228.428153
 30
0.0
 10
112.538409
 20
229.307952
 30
0.0
  0
SPLINE
  5
122
100
AcDbEntity
  8
Layer_1
 62
7
100
AcDbSpline
 70
8
 71
3
 72
8
 73
4
 74
0
 40
0
 40
0
 40
0
 40
0
 40
1
 40
1
 40
1
 40
1
 10
112.538409
 20
229.307952
 30
0.0
 10
113.776644
 20
231.067548
 30
0.0
 10
115.438485
 20
231.882177
 30
0.0
 10
117.817199
 20
231.882177
 30
0.0
  0
LWPOLYLINE
  5
123
100
AcDbEntity
  8
Layer_1
 62
7
100
AcDbPolyline
 90
2
 70
0
 10
123.649937
 20
244.394865
 30
0.0
 10
123.649937
 20
244.394865
 30
0.0
  0
SPLINE
  5
124
100
AcDbEntity
  8
Layer_1
 62
7
100
AcDbSpline
 70
8
 71
3
 72
8
 73
4
 74
0
 40
0
 40
0
 40
0
 40
0
 40
1
 40
1
 40
1
 40
1
 10
120.945371
 20
234.814838
 30
0.0
 10
121.629659
 20
236.411509
 30
0.0
 10
122.118436
 20
237.877840
 30
0.0
 10
121.988095
 20
238.073351
 30
0.0
  0
SPLINE
  5
125
100
AcDbEntity
  8
Layer_1
 62
7
100
AcDbSpline
 70
8
 71
3
 72
8
 73
4
 74
0
 40
0
 40
0
 40
0
 40
0
 40
1
 40
1
 40
1
 40
1
 10
121.988095
 20
238.073351
 30
0.0
 10
121.890340
 20
238.268861
 30
0.0
 10
120.521765
 20
238.399202
 30
0.0
 10
118.794753
 20
238.366617
 30
0.0
  0
SPLINE
  5
126
100
AcDbEntity
  8
Layer_1
 62
7
100
AcDbSpline
 70
8
 71
3
 72
8
 73
4
 74
0
 40
0
 40
0
 40
0
 40
0
 40
1
 40
1
 40
1
 40
1
 10
118.794753
 20
238.366617
 30
0.0
 10
116.513794
 20
238.366617
 30
0.0
 10
115.308144
 20
238.203691
 30
0.0
 10
113.809229
 20
237.617159
 30
0.0
  0
LWPOLYLINE
  5
127
100
AcDbEntity
  8
Layer_1
 62
7
100
AcDbPolyline
 90
3
 70
0
 10
117.817199
 20
231.882177
 30
0.0
 10
119.707137
 20
231.882177
 30
0.0
 10
120.945371
 20
234.814838
 30
0.0
  0
SPLINE
  5
128
100
AcDbEntity
  8
Layer_1
 62
7
100
AcDbSpline
 70
8
 71
3
 72
8
 73
4
 74
0
 40
0
 40
0
 40
0
 40
0
 40
1
 40
1
 40
1
 40
1
 10
95.007611
 20
231.979932
 30
0.0
 10
93.834546
 20
228.949515
 30
0.0
 10
92.824407
 20
226.310120
 30
0.0
 10
92.759237
 20
226.049439
 30
0.0
  0
SPLINE
  5
129
100
AcDbEntity
  8
Layer_1
 62
7
100
AcDbSpline
 70
8
 71
3
 72
8
 73
4
 74
0
 40
0
 40
0
 40
0
 40
0
 40
1
 40
1
 40
1
 40
1
 10
92.759237
 20
226.049439
 30
0.0
 10
92.694067
 20
225.788758
 30
0.0
 10
93.867131
 20
225.104470
 30
0.0
 10
96.050335
 20
224.192087
 30
0.0
  0
SPLINE
  5
12a
100
AcDbEntity
  8
Layer_1
 62
7
100
AcDbSpline
 70
8
 71
3
 72
8
 73
4
 74
0
 40
0
 40
0
 40
0
 40
0
 40
1
 40
1
 40
1
 40
1
 10
96.050335
 20
224.192087
 30
0.0
 10
97.907687
 20
223.410044
 30
0.0
 10
99.602113
 20
222.758341
 30
0.0
 10
99.830209
 20
222.758341
 30
0.0
  0
SPLINE
  5
12b
100
AcDbEntity
  8
Layer_1
 62
7
100
AcDbSpline
 70
8
 71
3
 72
8
 73
4
 74
0
 40
0
 40
0
 40
0
 40
0
 40
1
 40
1
 40
1
 40
1
 10
99.830209
 20
222.758341
 30
0.0
 10
100.188646
 20
222.758341
 30
0.0
 10
105.206755
 20
232.827145
 30
0.0
 10
105.206755
 20
233.511433
 30
0.0
  0
SPLINE
  5
12c
100
AcDbEntity
  8
Layer_1
 62
7
100
AcDbSpline
 70
8
 71
3
 72
8
 73
4
 74
0
 40
0
 40
0
 40
0
 40
0
 40
1
 40
1
 40
1
 40
1
 10
105.206755
 20
233.511433
 30
0.0
 10
105.206755
 20
233.772114
 30
0.0
 10
99.178507
 20
236.802531
 30
0.0
 10
97.777346
 20
237.226137
 30
0.0
  0
SPLINE
  5
12d
100
AcDbEntity
  8
Layer_1
 62
7
100
AcDbSpline
 70
8
 71
3
 72
8
 73
4
 74
0
 40
0
 40
0
 40
0
 40
0
 40
1
 40
1
 40
1
 40
1
 10
97.777346
 20
237.226137
 30
0.0
 10
97.255984
 20
237.389063
 30
0.0
 10
96.897548
 20
236.672190
 30
0.0
 10
95.007611
 20
231.979932
 30
0.0
  0
LWPOLYLINE
  5
12e
100
AcDbEntity
  8
Layer_1
 62
7
100
AcDbPolyline
 90
2
 70
0
 10
113.809229
 20
237.617159
 30
0.0
 10
113.809229
 20
237.617159
 30
0.0
  0
SPLINE
  5
12f
100
AcDbEntity
  8
Layer_1
 62
7
100
AcDbSpline
 70
8
 71
3
 72
8
 73
4
 74
0
 40
0
 40
0
 40
0
 40
0
 40
1
 40
1
 40
1
 40
1
 10
124.920757
 20
236.053073
 30
0.0
 10
124.692661
 20
235.401370
 30
0.0
 10
123.780277
 20
230.937208
 30
0.0
 10
123.780277
 20
230.415846
 30
0.0
  0
SPLINE
  5
130
100
AcDbEntity
  8
Layer_1
 62
7
100
AcDbSpline
 70
8
 71
3
 72
8
 73
4
 74
0
 40
0
 40
0
 40
0
 40
0
 40
1
 40
1
 40
1
 40
1
 10
123.780277
 20
230.415846
 30
0.0
 10
123.780277
 20
230.187750
 30
0.0
 10
124.431980
 20
229.601218
 30
0.0
 10
125.214023
 20
229.145026
 30
0.0
  0
SPLINE
  5
131
100
AcDbEntity
  8
Layer_1
 62
7
100
AcDbSpline
 70
8
 71
3
 72
8
 73
4
 74
0
 40
0
 40
0
 40
0
 40
0
 40
1
 40
1
 40
1
 40
1
 10
125.214023
 20
229.145026
 30
0.0
 10
127.038790
 20
228.069717
 30
0.0
 10
128.016344
 20
226.505631
 30
0.0
 10
128.244440
 20
224.257257
 30
0.0
  0
LWPOLYLINE
  5
132
100
AcDbEntity
  8
Layer_1
 62
7
100
AcDbPolyline
 90
2
 70
0
 10
95.007611
 20
231.979932
 30
0.0
 10
95.007611
 20
231.979932
 30
0.0
  0
SPLINE
  5
133
100
AcDbEntity
  8
Layer_1
 62
7
100
AcDbSpline
 70
8
 71
3
 72
8
 73
4
 74
0
 40
0
 40
0
 40
0
 40
0
 40
1
 40
1
 40
1
 40
1
 10
131.405197
 20
221.454936
 30
0.0
 10
133.034453
 20
220.933574
 30
0.0
 10
134.468199
 20
220.477382
 30
0.0
 10
134.631125
 20
220.477382
 30
0.0
  0
SPLINE
  5
134
100
AcDbEntity
  8
Layer_1
 62
7
100
AcDbSpline
 70
8
 71
3
 72
8
 73
4
 74
0
 40
0
 40
0
 40
0
 40
0
 40
1
 40
1
 40
1
 40
1
 10
134.631125
 20
220.477382
 30
0.0
 10
135.087316
 20
220.477382
 30
0.0
 10
134.859220
 20
224.713449
 30
0.0
 10
134.240103
 20
226.635971
 30
0.0
  0
SPLINE
  5
135
100
AcDbEntity
  8
Layer_1
 62
7
100
AcDbSpline
 70
8
 71
3
 72
8
 73
4
 74
0
 40
0
 40
0
 40
0
 40
0
 40
1
 40
1
 40
1
 40
1
 10
134.240103
 20
226.635971
 30
0.0
 10
133.392890
 20
229.340537
 30
0.0
 10
132.284995
 20
231.100134
 30
0.0
 10
130.232132
 20
233.087826
 30
0.0
  0
SPLINE
  5
136
100
AcDbEntity
  8
Layer_1
 62
7
100
AcDbSpline
 70
8
 71
3
 72
8
 73
4
 74
0
 40
0
 40
0
 40
0
 40
0
 40
1
 40
1
 40
1
 40
1
 10
130.232132
 20
233.087826
 30
0.0
 10
128.179269
 20
235.010349
 30
0.0
 10
125.148853
 20
236.704775
 30
0.0
 10
124.920757
 20
236.053073
 30
0.0
  0
LWPOLYLINE
  5
137
100
AcDbEntity
  8
Layer_1
 62
7
100
AcDbPolyline
 90
3
 70
0
 10
128.244440
 20
224.257257
 30
0.0
 10
128.439951
 20
222.465075
 30
0.0
 10
131.405197
 20
221.454936
 30
0.0
  0
SPLINE
  5
138
100
AcDbEntity
  8
Layer_1
 62
7
100
AcDbSpline
 70
8
 71
3
 72
8
 73
4
 74
0
 40
0
 40
0
 40
0
 40
0
 40
1
 40
1
 40
1
 40
1
 10
84.352274
 20
226.538216
 30
0.0
 10
84.352274
 20
226.342705
 30
0.0
 10
80.963421
 20
213.895187
 30
0.0
 10
79.171239
 20
207.378161
 30
0.0
  0
SPLINE
  5
139
100
AcDbEntity
  8
Layer_1
 62
7
100
AcDbSpline
 70
8
 71
3
 72
8
 73
4
 74
0
 40
0
 40
0
 40
0
 40
0
 40
1
 40
1
 40
1
 40
1
 10
79.171239
 20
207.378161
 30
0.0
 10
78.421781
 20
204.738766
 30
0.0
 10
77.835249
 20
202.392637
 30
0.0
 10
77.835249
 20
202.164541
 30
0.0
  0
SPLINE
  5
13a
100
AcDbEntity
  8
Layer_1
 62
7
100
AcDbSpline
 70
8
 71
3
 72
8
 73
4
 74
0
 40
0
 40
0
 40
0
 40
0
 40
1
 40
1
 40
1
 40
1
 10
77.835249
 20
202.164541
 30
0.0
 10
77.835249
 20
201.610594
 30
0.0
 10
98.005442
 20
191.932811
 30
0.0
 10
98.331294
 20
192.323833
 30
0.0
  0
SPLINE
  5
13b
100
AcDbEntity
  8
Layer_1
 62
7
100
AcDbSpline
 70
8
 71
3
 72
8
 73
4
 74
0
 40
0
 40
0
 40
0
 40
0
 40
1
 40
1
 40
1
 40
1
 10
98.331294
 20
192.323833
 30
0.0
 10
98.852656
 20
192.910365
 30
0.0
 10
104.326957
 20
206.954555
 30
0.0
 10
104.489882
 20
208.160204
 30
0.0
  0
SPLINE
  5
13c
100
AcDbEntity
  8
Layer_1
 62
7
100
AcDbSpline
 70
8
 71
3
 72
8
 73
4
 74
0
 40
0
 40
0
 40
0
 40
0
 40
1
 40
1
 40
1
 40
1
 10
104.489882
 20
208.160204
 30
0.0
 10
104.717978
 20
209.887216
 30
0.0
 10
103.903350
 20
210.929940
 30
0.0
 10
101.524636
 20
212.005249
 30
0.0
  0
SPLINE
  5
13d
100
AcDbEntity
  8
Layer_1
 62
7
100
AcDbSpline
 70
8
 71
3
 72
8
 73
4
 74
0
 40
0
 40
0
 40
0
 40
0
 40
1
 40
1
 40
1
 40
1
 10
101.524636
 20
212.005249
 30
0.0
 10
98.689730
 20
213.276069
 30
0.0
 10
98.233538
 20
213.862602
 30
0.0
 10
98.526804
 20
215.817709
 30
0.0
  0
SPLINE
  5
13e
100
AcDbEntity
  8
Layer_1
 62
7
100
AcDbSpline
 70
8
 71
3
 72
8
 73
4
 74
0
 40
0
 40
0
 40
0
 40
0
 40
1
 40
1
 40
1
 40
1
 10
98.526804
 20
215.817709
 30
0.0
 10
98.624560
 20
216.664922
 30
0.0
 10
99.080751
 20
218.229009
 30
0.0
 10
99.504358
 20
219.271733
 30
0.0
  0
LWPOLYLINE
  5
13f
100
AcDbEntity
  8
Layer_1
 62
7
100
AcDbPolyline
 90
2
 70
0
 10
124.920757
 20
236.053073
 30
0.0
 10
124.920757
 20
236.053073
 30
0.0
  0
SPLINE
  5
140
100
AcDbEntity
  8
Layer_1
 62
7
100
AcDbSpline
 70
8
 71
3
 72
8
 73
4
 74
0
 40
0
 40
0
 40
0
 40
0
 40
1
 40
1
 40
1
 40
1
 10
99.243677
 20
221.617862
 30
0.0
 10
98.135783
 20
222.074053
 30
0.0
 10
84.710711
 20
226.668556
 30
0.0
 10
84.482615
 20
226.668556
 30
0.0
  0
SPLINE
  5
141
100
AcDbEntity
  8
Layer_1
 62
7
100
AcDbSpline
 70
8
 71
3
 72
8
 73
4
 74
0
 40
0
 40
0
 40
0
 40
0
 40
1
 40
1
 40
1
 40
1
 10
84.482615
 20
226.668556
 30
0.0
 10
84.417444
 20
226.668556
 30
0.0
 10
84.352274
 20
226.603386
 30
0.0
 10
84.352274
 20
226.538216
 30
0.0
  0
LWPOLYLINE
  5
142
100
AcDbEntity
  8
Layer_1
 62
7
100
AcDbPolyline
 90
3
 70
0
 10
99.504358
 20
219.271733
 30
0.0
 10
100.253816
 20
221.194255
 30
0.0
 10
99.243677
 20
221.617862
 30
0.0
  0
SPLINE
  5
143
100
AcDbEntity
  8
Layer_1
 62
7
100
AcDbSpline
 70
8
 71
3
 72
8
 73
4
 74
0
 40
0
 40
0
 40
0
 40
0
 40
1
 40
1
 40
1
 40
1
 10
105.043830
 20
226.016854
 30
0.0
 10
104.620223
 20
225.332566
 30
0.0
 10
104.489882
 20
221.487521
 30
0.0
 10
104.848319
 20
219.760509
 30
0.0
  0
SPLINE
  5
144
100
AcDbEntity
  8
Layer_1
 62
7
100
AcDbSpline
 70
8
 71
3
 72
8
 73
4
 74
0
 40
0
 40
0
 40
0
 40
0
 40
1
 40
1
 40
1
 40
1
 10
104.848319
 20
219.760509
 30
0.0
 10
105.402266
 20
217.153699
 30
0.0
 10
106.933767
 20
214.221038
 30
0.0
 10
108.725949
 20
212.461441
 30
0.0
  0
SPLINE
  5
145
100
AcDbEntity
  8
Layer_1
 62
7
100
AcDbSpline
 70
8
 71
3
 72
8
 73
4
 74
0
 40
0
 40
0
 40
0
 40
0
 40
1
 40
1
 40
1
 40
1
 10
108.725949
 20
212.461441
 30
0.0
 10
110.127109
 20
211.060281
 30
0.0
 10
112.636164
 20
209.235514
 30
0.0
 10
112.864260
 20
209.463609
 30
0.0
  0
SPLINE
  5
146
100
AcDbEntity
  8
Layer_1
 62
7
100
AcDbSpline
 70
8
 71
3
 72
8
 73
4
 74
0
 40
0
 40
0
 40
0
 40
0
 40
1
 40
1
 40
1
 40
1
 10
112.864260
 20
209.463609
 30
0.0
 10
112.929430
 20
209.528780
 30
0.0
 10
113.418207
 20
210.864770
 30
0.0
 10
113.972154
 20
212.461441
 30
0.0
  0
LWPOLYLINE
  5
147
100
AcDbEntity
  8
Layer_1
 62
7
100
AcDbPolyline
 90
2
 70
0
 10
84.352274
 20
226.538216
 30
0.0
 10
84.352274
 20
226.538216
 30
0.0
  0
SPLINE
  5
148
100
AcDbEntity
  8
Layer_1
 62
7
100
AcDbSpline
 70
8
 71
3
 72
8
 73
4
 74
0
 40
0
 40
0
 40
0
 40
0
 40
1
 40
1
 40
1
 40
1
 10
113.385622
 20
216.762678
 30
0.0
 10
111.560855
 20
218.391934
 30
0.0
 10
110.974323
 20
219.760509
 30
0.0
 10
111.104663
 20
222.008883
 30
0.0
  0
LWPOLYLINE
  5
149
100
AcDbEntity
  8
Layer_1
 62
7
100
AcDbPolyline
 90
3
 70
0
 10
113.972154
 20
212.461441
 30
0.0
 10
114.982293
 20
215.328932
 30
0.0
 10
113.385622
 20
216.762678
 30
0.0
  0
SPLINE
  5
14a
100
AcDbEntity
  8
Layer_1
 62
7
100
AcDbSpline
 70
8
 71
3
 72
8
 73
4
 74
0
 40
0
 40
0
 40
0
 40
0
 40
1
 40
1
 40
1
 40
1
 10
108.465268
 20
224.941545
 30
0.0
 10
105.402266
 20
226.440460
 30
0.0
 10
105.337096
 20
226.473046
 30
0.0
 10
105.043830
 20
226.016854
 30
0.0
  0
LWPOLYLINE
  5
14b
100
AcDbEntity
  8
Layer_1
 62
7
100
AcDbPolyline
 90
3
 70
0
 10
111.104663
 20
222.008883
 30
0.0
 10
111.202419
 20
223.540384
 30
0.0
 10
108.465268
 20
224.941545
 30
0.0
  0
SPLINE
  5
14c
100
AcDbEntity
  8
Layer_1
 62
7
100
AcDbSpline
 70
8
 71
3
 72
8
 73
4
 74
0
 40
0
 40
0
 40
0
 40
0
 40
1
 40
1
 40
1
 40
1
 10
163.859983
 20
217.381795
 30
0.0
 10
160.177864
 20
214.090697
 30
0.0
 10
157.212617
 20
211.223206
 30
0.0
 10
157.245202
 20
211.060281
 30
0.0
  0
SPLINE
  5
14d
100
AcDbEntity
  8
Layer_1
 62
7
100
AcDbSpline
 70
8
 71
3
 72
8
 73
4
 74
0
 40
0
 40
0
 40
0
 40
0
 40
1
 40
1
 40
1
 40
1
 10
157.245202
 20
211.060281
 30
0.0
 10
157.310373
 20
210.864770
 30
0.0
 10
158.516022
 20
208.877077
 30
0.0
 10
159.949768
 20
206.628703
 30
0.0
  0
SPLINE
  5
14e
100
AcDbEntity
  8
Layer_1
 62
7
100
AcDbSpline
 70
8
 71
3
 72
8
 73
4
 74
0
 40
0
 40
0
 40
0
 40
0
 40
1
 40
1
 40
1
 40
1
 10
159.949768
 20
206.628703
 30
0.0
 10
161.383513
 20
204.380330
 30
0.0
 10
162.556578
 20
202.392637
 30
0.0
 10
162.556578
 20
202.197126
 30
0.0
  0
SPLINE
  5
14f
100
AcDbEntity
  8
Layer_1
 62
7
100
AcDbSpline
 70
8
 71
3
 72
8
 73
4
 74
0
 40
0
 40
0
 40
0
 40
0
 40
1
 40
1
 40
1
 40
1
 10
162.556578
 20
202.197126
 30
0.0
 10
162.556578
 20
202.001615
 30
0.0
 10
161.155418
 20
200.209434
 30
0.0
 10
159.460991
 20
198.254326
 30
0.0
  0
SPLINE
  5
150
100
AcDbEntity
  8
Layer_1
 62
7
100
AcDbSpline
 70
8
 71
3
 72
8
 73
4
 74
0
 40
0
 40
0
 40
0
 40
0
 40
1
 40
1
 40
1
 40
1
 10
159.460991
 20
198.254326
 30
0.0
 10
155.876627
 20
194.116015
 30
0.0
 10
156.137308
 20
195.223909
 30
0.0
 10
156.854181
 20
186.588851
 30
0.0
  0
SPLINE
  5
151
100
AcDbEntity
  8
Layer_1
 62
7
100
AcDbSpline
 70
8
 71
3
 72
8
 73
4
 74
0
 40
0
 40
0
 40
0
 40
0
 40
1
 40
1
 40
1
 40
1
 10
156.854181
 20
186.588851
 30
0.0
 10
157.114862
 20
183.460678
 30
0.0
 10
157.342958
 20
180.560602
 30
0.0
 10
157.342958
 20
180.136996
 30
0.0
  0
LWPOLYLINE
  5
152
100
AcDbEntity
  8
Layer_1
 62
7
100
AcDbPolyline
 90
2
 70
0
 10
105.043830
 20
226.016854
 30
0.0
 10
105.043830
 20
226.016854
 30
0.0
  0
SPLINE
  5
153
100
AcDbEntity
  8
Layer_1
 62
7
100
AcDbSpline
 70
8
 71
3
 72
8
 73
4
 74
0
 40
0
 40
0
 40
0
 40
0
 40
1
 40
1
 40
1
 40
1
 10
141.376246
 20
175.053716
 30
0.0
 10
138.997532
 20
172.609831
 30
0.0
 10
136.814328
 20
170.328872
 30
0.0
 10
136.586232
 20
169.970436
 30
0.0
  0
SPLINE
  5
154
100
AcDbEntity
  8
Layer_1
 62
7
100
AcDbSpline
 70
8
 71
3
 72
8
 73
4
 74
0
 40
0
 40
0
 40
0
 40
0
 40
1
 40
1
 40
1
 40
1
 10
136.586232
 20
169.970436
 30
0.0
 10
136.325551
 20
169.612000
 30
0.0
 10
135.967115
 20
169.318733
 30
0.0
 10
135.804189
 20
169.318733
 30
0.0
  0
SPLINE
  5
155
100
AcDbEntity
  8
Layer_1
 62
7
100
AcDbSpline
 70
8
 71
3
 72
8
 73
4
 74
0
 40
0
 40
0
 40
0
 40
0
 40
1
 40
1
 40
1
 40
1
 10
135.804189
 20
169.318733
 30
0.0
 10
135.608678
 20
169.318733
 30
0.0
 10
132.969283
 20
171.469352
 30
0.0
 10
129.906281
 20
174.141332
 30
0.0
  0
SPLINE
  5
156
100
AcDbEntity
  8
Layer_1
 62
7
100
AcDbSpline
 70
8
 71
3
 72
8
 73
4
 74
0
 40
0
 40
0
 40
0
 40
0
 40
1
 40
1
 40
1
 40
1
 10
129.906281
 20
174.141332
 30
0.0
 10
126.843279
 20
176.780727
 30
0.0
 10
123.943203
 20
179.257197
 30
0.0
 10
123.421841
 20
179.680804
 30
0.0
  0
LWPOLYLINE
  5
157
100
AcDbEntity
  8
Layer_1
 62
7
100
AcDbPolyline
 90
5
 70
0
 10
157.342958
 20
180.136996
 30
0.0
 10
157.342958
 20
179.387538
 30
0.0
 10
151.542805
 20
179.452708
 30
0.0
 10
145.742653
 20
179.517878
 30
0.0
 10
141.376246
 20
175.053716
 30
0.0
  0
SPLINE
  5
158
100
AcDbEntity
  8
Layer_1
 62
7
100
AcDbSpline
 70
8
 71
3
 72
8
 73
4
 74
0
 40
0
 40
0
 40
0
 40
0
 40
1
 40
1
 40
1
 40
1
 10
112.962015
 20
175.770589
 30
0.0
 10
112.864260
 20
176.259365
 30
0.0
 10
112.668749
 20
178.084133
 30
0.0
 10
112.538409
 20
179.843729
 30
0.0
  0
LWPOLYLINE
  5
159
100
AcDbEntity
  8
Layer_1
 62
7
100
AcDbPolyline
 90
5
 70
0
 10
123.421841
 20
179.680804
 30
0.0
 10
122.509457
 20
180.430262
 30
0.0
 10
117.849784
 20
177.660526
 30
0.0
 10
113.190111
 20
174.923375
 30
0.0
 10
112.962015
 20
175.770589
 30
0.0
  0
SPLINE
  5
15a
100
AcDbEntity
  8
Layer_1
 62
7
100
AcDbSpline
 70
8
 71
3
 72
8
 73
4
 74
0
 40
0
 40
0
 40
0
 40
0
 40
1
 40
1
 40
1
 40
1
 10
96.962718
 20
181.766252
 30
0.0
 10
97.060474
 20
179.322367
 30
0.0
 10
96.995303
 20
179.354952
 30
0.0
 10
101.687562
 20
178.116718
 30
0.0
  0
LWPOLYLINE
  5
15b
100
AcDbEntity
  8
Layer_1
 62
7
100
AcDbPolyline
 90
5
 70
0
 10
112.538409
 20
179.843729
 30
0.0
 10
112.310313
 20
183.004487
 30
0.0
 10
104.620223
 20
182.939316
 30
0.0
 10
96.897548
 20
182.841561
 30
0.0
 10
96.962718
 20
181.766252
 30
0.0
  0
SPLINE
  5
15c
100
AcDbEntity
  8
Layer_1
 62
7
100
AcDbSpline
 70
8
 71
3
 72
8
 73
4
 74
0
 40
0
 40
0
 40
0
 40
0
 40
1
 40
1
 40
1
 40
1
 10
106.119139
 20
171.860373
 30
0.0
 10
106.216894
 20
165.962465
 30
0.0
 10
105.793288
 20
166.581583
 30
0.0
 10
110.061939
 20
166.223146
 30
0.0
  0
SPLINE
  5
15d
100
AcDbEntity
  8
Layer_1
 62
7
100
AcDbSpline
 70
8
 71
3
 72
8
 73
4
 74
0
 40
0
 40
0
 40
0
 40
0
 40
1
 40
1
 40
1
 40
1
 10
110.061939
 20
166.223146
 30
0.0
 10
112.440653
 20
166.060221
 30
0.0
 10
112.473238
 20
166.060221
 30
0.0
 10
114.526101
 20
167.363626
 30
0.0
  0
SPLINE
  5
15e
100
AcDbEntity
  8
Layer_1
 62
7
100
AcDbSpline
 70
8
 71
3
 72
8
 73
4
 74
0
 40
0
 40
0
 40
0
 40
0
 40
1
 40
1
 40
1
 40
1
 10
114.526101
 20
167.363626
 30
0.0
 10
116.090188
 20
168.341180
 30
0.0
 10
117.132912
 20
168.732201
 30
0.0
 10
118.794753
 20
168.992882
 30
0.0
  0
SPLINE
  5
15f
100
AcDbEntity
  8
Layer_1
 62
7
100
AcDbSpline
 70
8
 71
3
 72
8
 73
4
 74
0
 40
0
 40
0
 40
0
 40
0
 40
1
 40
1
 40
1
 40
1
 10
118.794753
 20
168.992882
 30
0.0
 10
122.737553
 20
169.546829
 30
0.0
 10
122.118436
 20
169.872681
 30
0.0
 10
129.808526
 20
163.257900
 30
0.0
  0
SPLINE
  5
160
100
AcDbEntity
  8
Layer_1
 62
7
100
AcDbSpline
 70
8
 71
3
 72
8
 73
4
 74
0
 40
0
 40
0
 40
0
 40
0
 40
1
 40
1
 40
1
 40
1
 10
129.808526
 20
163.257900
 30
0.0
 10
133.686156
 20
159.934217
 30
0.0
 10
136.944669
 20
157.262237
 30
0.0
 10
137.107594
 20
157.327407
 30
0.0
  0
SPLINE
  5
161
100
AcDbEntity
  8
Layer_1
 62
7
100
AcDbSpline
 70
8
 71
3
 72
8
 73
4
 74
0
 40
0
 40
0
 40
0
 40
0
 40
1
 40
1
 40
1
 40
1
 10
137.107594
 20
157.327407
 30
0.0
 10
137.237935
 20
157.392577
 30
0.0
 10
139.453723
 20
159.771291
 30
0.0
 10
142.060533
 20
162.638783
 30
0.0
  0
SPLINE
  5
162
100
AcDbEntity
  8
Layer_1
 62
7
100
AcDbSpline
 70
8
 71
3
 72
8
 73
4
 74
0
 40
0
 40
0
 40
0
 40
0
 40
1
 40
1
 40
1
 40
1
 10
142.060533
 20
162.638783
 30
0.0
 10
144.634758
 20
165.506274
 30
0.0
 10
147.339324
 20
168.471520
 30
0.0
 10
148.056197
 20
169.253563
 30
0.0
  0
LWPOLYLINE
  5
163
100
AcDbEntity
  8
Layer_1
 62
7
100
AcDbPolyline
 90
3
 70
0
 10
101.687562
 20
178.116718
 30
0.0
 10
106.021383
 20
176.976238
 30
0.0
 10
106.119139
 20
171.860373
 30
0.0
  0
SPLINE
  5
164
100
AcDbEntity
  8
Layer_1
 62
7
100
AcDbSpline
 70
8
 71
3
 72
8
 73
4
 74
0
 40
0
 40
0
 40
0
 40
0
 40
1
 40
1
 40
1
 40
1
 10
158.809288
 20
171.795203
 30
0.0
 10
164.022909
 20
172.446906
 30
0.0
 10
168.291560
 20
173.000853
 30
0.0
 10
168.324145
 20
173.033438
 30
0.0
  0
SPLINE
  5
165
100
AcDbEntity
  8
Layer_1
 62
7
100
AcDbSpline
 70
8
 71
3
 72
8
 73
4
 74
0
 40
0
 40
0
 40
0
 40
0
 40
1
 40
1
 40
1
 40
1
 10
168.324145
 20
173.033438
 30
0.0
 10
168.389316
 20
173.066023
 30
0.0
 10
167.705028
 20
175.249227
 30
0.0
 10
166.825230
 20
177.888622
 30
0.0
  0
SPLINE
  5
166
100
AcDbEntity
  8
Layer_1
 62
7
100
AcDbSpline
 70
8
 71
3
 72
8
 73
4
 74
0
 40
0
 40
0
 40
0
 40
0
 40
1
 40
1
 40
1
 40
1
 10
166.825230
 20
177.888622
 30
0.0
 10
165.424069
 20
182.092103
 30
0.0
 10
165.163388
 20
183.167412
 30
0.0
 10
164.804952
 20
187.370894
 30
0.0
  0
SPLINE
  5
167
100
AcDbEntity
  8
Layer_1
 62
7
100
AcDbSpline
 70
8
 71
3
 72
8
 73
4
 74
0
 40
0
 40
0
 40
0
 40
0
 40
1
 40
1
 40
1
 40
1
 10
164.804952
 20
187.370894
 30
0.0
 10
164.413930
 20
191.965396
 30
0.0
 10
164.413930
 20
192.160907
 30
0.0
 10
165.033048
 20
193.008121
 30
0.0
  0
SPLINE
  5
168
100
AcDbEntity
  8
Layer_1
 62
7
100
AcDbSpline
 70
8
 71
3
 72
8
 73
4
 74
0
 40
0
 40
0
 40
0
 40
0
 40
1
 40
1
 40
1
 40
1
 10
165.033048
 20
193.008121
 30
0.0
 10
165.424069
 20
193.529483
 30
0.0
 10
167.216251
 20
196.005952
 30
0.0
 10
169.073603
 20
198.580177
 30
0.0
  0
LWPOLYLINE
  5
169
100
AcDbEntity
  8
Layer_1
 62
7
100
AcDbPolyline
 90
3
 70
0
 10
148.056197
 20
169.253563
 30
0.0
 10
149.359602
 20
170.654724
 30
0.0
 10
158.809288
 20
171.795203
 30
0.0
  0
SPLINE
  5
16a
100
AcDbEntity
  8
Layer_1
 62
7
100
AcDbSpline
 70
8
 71
3
 72
8
 73
4
 74
0
 40
0
 40
0
 40
0
 40
0
 40
1
 40
1
 40
1
 40
1
 10
169.106189
 20
217.055944
 30
0.0
 10
170.018572
 20
220.118946
 30
0.0
 10
170.865785
 20
222.790926
 30
0.0
 10
170.930956
 20
223.019022
 30
0.0
  0
SPLINE
  5
16b
100
AcDbEntity
  8
Layer_1
 62
7
100
AcDbSpline
 70
8
 71
3
 72
8
 73
4
 74
0
 40
0
 40
0
 40
0
 40
0
 40
1
 40
1
 40
1
 40
1
 10
170.930956
 20
223.019022
 30
0.0
 10
171.028711
 20
223.214533
 30
0.0
 10
170.963541
 20
223.410044
 30
0.0
 10
170.833200
 20
223.410044
 30
0.0
  0
SPLINE
  5
16c
100
AcDbEntity
  8
Layer_1
 62
7
100
AcDbSpline
 70
8
 71
3
 72
8
 73
4
 74
0
 40
0
 40
0
 40
0
 40
0
 40
1
 40
1
 40
1
 40
1
 10
170.833200
 20
223.410044
 30
0.0
 10
170.670275
 20
223.377459
 30
0.0
 10
167.542102
 20
220.672893
 30
0.0
 10
163.859983
 20
217.381795
 30
0.0
  0
LWPOLYLINE
  5
16d
100
AcDbEntity
  8
Layer_1
 62
7
100
AcDbPolyline
 90
5
 70
0
 10
169.073603
 20
198.580177
 30
0.0
 10
172.429871
 20
203.239850
 30
0.0
 10
169.888232
 20
207.378161
 30
0.0
 10
167.379177
 20
211.516472
 30
0.0
 10
169.106189
 20
217.055944
 30
0.0
  0
SPLINE
  5
16e
100
AcDbEntity
  8
Layer_1
 62
7
100
AcDbSpline
 70
8
 71
3
 72
8
 73
4
 74
0
 40
0
 40
0
 40
0
 40
0
 40
1
 40
1
 40
1
 40
1
 10
137.531201
 20
215.035666
 30
0.0
 10
136.781743
 20
212.005249
 30
0.0
 10
136.162626
 20
209.398439
 30
0.0
 10
136.162626
 20
209.202928
 30
0.0
  0
SPLINE
  5
16f
100
AcDbEntity
  8
Layer_1
 62
7
100
AcDbSpline
 70
8
 71
3
 72
8
 73
4
 74
0
 40
0
 40
0
 40
0
 40
0
 40
1
 40
1
 40
1
 40
1
 10
136.162626
 20
209.202928
 30
0.0
 10
136.162626
 20
208.714152
 30
0.0
 10
142.321214
 20
206.921970
 30
0.0
 10
142.679651
 20
207.312991
 30
0.0
  0
SPLINE
  5
170
100
AcDbEntity
  8
Layer_1
 62
7
100
AcDbSpline
 70
8
 71
3
 72
8
 73
4
 74
0
 40
0
 40
0
 40
0
 40
0
 40
1
 40
1
 40
1
 40
1
 10
142.679651
 20
207.312991
 30
0.0
 10
143.201013
 20
207.866938
 30
0.0
 10
146.622451
 20
217.316625
 30
0.0
 10
146.361770
 20
217.544721
 30
0.0
  0
SPLINE
  5
171
100
AcDbEntity
  8
Layer_1
 62
7
100
AcDbSpline
 70
8
 71
3
 72
8
 73
4
 74
0
 40
0
 40
0
 40
0
 40
0
 40
1
 40
1
 40
1
 40
1
 10
146.361770
 20
217.544721
 30
0.0
 10
146.003334
 20
217.870572
 30
0.0
 10
139.649234
 20
220.477382
 30
0.0
 10
139.258213
 20
220.477382
 30
0.0
  0
SPLINE
  5
172
100
AcDbEntity
  8
Layer_1
 62
7
100
AcDbSpline
 70
8
 71
3
 72
8
 73
4
 74
0
 40
0
 40
0
 40
0
 40
0
 40
1
 40
1
 40
1
 40
1
 10
139.258213
 20
220.477382
 30
0.0
 10
139.062702
 20
220.477382
 30
0.0
 10
138.313244
 20
218.033498
 30
0.0
 10
137.531201
 20
215.035666
 30
0.0
  0
LWPOLYLINE
  5
173
100
AcDbEntity
  8
Layer_1
 62
7
100
AcDbPolyline
 90
2
 70
0
 10
163.859983
 20
217.381795
 30
0.0
 10
163.859983
 20
217.381795
 30
0.0
  0
SPLINE
  5
174
100
AcDbEntity
  8
Layer_1
 62
7
100
AcDbSpline
 70
8
 71
3
 72
8
 73
4
 74
0
 40
0
 40
0
 40
0
 40
0
 40
1
 40
1
 40
1
 40
1
 10
126.256747
 20
216.306486
 30
0.0
 10
125.311778
 20
214.481719
 30
0.0
 10
123.649937
 20
213.504165
 30
0.0
 10
121.206052
 20
213.373825
 30
0.0
  0
LWPOLYLINE
  5
175
100
AcDbEntity
  8
Layer_1
 62
7
100
AcDbPolyline
 90
2
 70
0
 10
137.531201
 20
215.035666
 30
0.0
 10
137.531201
 20
215.035666
 30
0.0
  0
SPLINE
  5
176
100
AcDbEntity
  8
Layer_1
 62
7
100
AcDbSpline
 70
8
 71
3
 72
8
 73
4
 74
0
 40
0
 40
0
 40
0
 40
0
 40
1
 40
1
 40
1
 40
1
 10
117.817199
 20
210.310823
 30
0.0
 10
117.165497
 20
208.681566
 30
0.0
 10
116.709305
 20
207.247821
 30
0.0
 10
116.807060
 20
207.084895
 30
0.0
  0
SPLINE
  5
177
100
AcDbEntity
  8
Layer_1
 62
7
100
AcDbSpline
 70
8
 71
3
 72
8
 73
4
 74
0
 40
0
 40
0
 40
0
 40
0
 40
1
 40
1
 40
1
 40
1
 10
116.807060
 20
207.084895
 30
0.0
 10
116.904816
 20
206.921970
 30
0.0
 10
118.143050
 20
206.791629
 30
0.0
 10
119.544211
 20
206.791629
 30
0.0
  0
SPLINE
  5
178
100
AcDbEntity
  8
Layer_1
 62
7
100
AcDbSpline
 70
8
 71
3
 72
8
 73
4
 74
0
 40
0
 40
0
 40
0
 40
0
 40
1
 40
1
 40
1
 40
1
 10
119.544211
 20
206.791629
 30
0.0
 10
125.116268
 20
206.791629
 30
0.0
 10
129.873696
 20
209.528780
 30
0.0
 10
132.513091
 20
214.221038
 30
0.0
  0
LWPOLYLINE
  5
179
100
AcDbEntity
  8
Layer_1
 62
7
100
AcDbPolyline
 90
3
 70
0
 10
121.206052
 20
213.373825
 30
0.0
 10
119.022849
 20
213.243484
 30
0.0
 10
117.817199
 20
210.310823
 30
0.0
  0
SPLINE
  5
17a
100
AcDbEntity
  8
Layer_1
 62
7
100
AcDbSpline
 70
8
 71
3
 72
8
 73
4
 74
0
 40
0
 40
0
 40
0
 40
0
 40
1
 40
1
 40
1
 40
1
 10
131.014176
 20
216.208731
 30
0.0
 10
126.973620
 20
217.414380
 30
0.0
 10
126.843279
 20
217.414380
 30
0.0
 10
126.256747
 20
216.306486
 30
0.0
  0
LWPOLYLINE
  5
17b
100
AcDbEntity
  8
Layer_1
 62
7
100
AcDbPolyline
 90
3
 70
0
 10
132.513091
 20
214.221038
 30
0.0
 10
133.262549
 20
215.557028
 30
0.0
 10
131.014176
 20
216.208731
 30
0.0
  0
SPLINE
  5
17c
100
AcDbEntity
  8
Layer_1
 62
7
100
AcDbSpline
 70
8
 71
3
 72
8
 73
4
 74
0
 40
0
 40
0
 40
0
 40
0
 40
1
 40
1
 40
1
 40
1
 10
106.412405
 20
202.913999
 30
0.0
 10
105.923628
 20
201.284743
 30
0.0
 10
105.532607
 20
199.785827
 30
0.0
 10
105.532607
 20
199.557731
 30
0.0
  0
SPLINE
  5
17d
100
AcDbEntity
  8
Layer_1
 62
7
100
AcDbSpline
 70
8
 71
3
 72
8
 73
4
 74
0
 40
0
 40
0
 40
0
 40
0
 40
1
 40
1
 40
1
 40
1
 10
105.532607
 20
199.557731
 30
0.0
 10
105.532607
 20
199.231880
 30
0.0
 10
110.485546
 20
196.918336
 30
0.0
 10
114.982293
 20
195.126154
 30
0.0
  0
SPLINE
  5
17e
100
AcDbEntity
  8
Layer_1
 62
7
100
AcDbSpline
 70
8
 71
3
 72
8
 73
4
 74
0
 40
0
 40
0
 40
0
 40
0
 40
1
 40
1
 40
1
 40
1
 10
114.982293
 20
195.126154
 30
0.0
 10
115.145219
 20
195.060984
 30
0.0
 10
115.992432
 20
196.494729
 30
0.0
 10
116.904816
 20
198.286911
 30
0.0
  0
LWPOLYLINE
  5
17f
100
AcDbEntity
  8
Layer_1
 62
7
100
AcDbPolyline
 90
2
 70
0
 10
126.256747
 20
216.306486
 30
0.0
 10
126.256747
 20
216.306486
 30
0.0
  0
SPLINE
  5
180
100
AcDbEntity
  8
Layer_1
 62
7
100
AcDbSpline
 70
8
 71
3
 72
8
 73
4
 74
0
 40
0
 40
0
 40
0
 40
0
 40
1
 40
1
 40
1
 40
1
 10
113.092356
 20
203.663457
 30
0.0
 10
110.094524
 20
204.836521
 30
0.0
 10
107.552884
 20
205.814075
 30
0.0
 10
107.455129
 20
205.814075
 30
0.0
  0
SPLINE
  5
181
100
AcDbEntity
  8
Layer_1
 62
7
100
AcDbSpline
 70
8
 71
3
 72
8
 73
4
 74
0
 40
0
 40
0
 40
0
 40
0
 40
1
 40
1
 40
1
 40
1
 10
107.455129
 20
205.814075
 30
0.0
 10
107.357374
 20
205.814075
 30
0.0
 10
106.901182
 20
204.510670
 30
0.0
 10
106.412405
 20
202.913999
 30
0.0
  0
LWPOLYLINE
  5
182
100
AcDbEntity
  8
Layer_1
 62
7
100
AcDbPolyline
 90
3
 70
0
 10
116.904816
 20
198.286911
 30
0.0
 10
118.566657
 20
201.512839
 30
0.0
 10
113.092356
 20
203.663457
 30
0.0
  0
SPLINE
  5
183
100
AcDbEntity
  8
Layer_1
 62
7
100
AcDbSpline
 70
8
 71
3
 72
8
 73
4
 74
0
 40
0
 40
0
 40
0
 40
0
 40
1
 40
1
 40
1
 40
1
 10
132.089485
 20
204.478085
 30
0.0
 10
131.600708
 20
204.087064
 30
0.0
 10
130.720909
 20
202.685903
 30
0.0
 10
130.134377
 20
201.415083
 30
0.0
  0
SPLINE
  5
184
100
AcDbEntity
  8
Layer_1
 62
7
100
AcDbSpline
 70
8
 71
3
 72
8
 73
4
 74
0
 40
0
 40
0
 40
0
 40
0
 40
1
 40
1
 40
1
 40
1
 10
130.134377
 20
201.415083
 30
0.0
 10
129.417504
 20
199.818412
 30
0.0
 10
128.830972
 20
198.971199
 30
0.0
 10
128.374780
 20
198.808273
 30
0.0
  0
SPLINE
  5
185
100
AcDbEntity
  8
Layer_1
 62
7
100
AcDbSpline
 70
8
 71
3
 72
8
 73
4
 74
0
 40
0
 40
0
 40
0
 40
0
 40
1
 40
1
 40
1
 40
1
 10
128.374780
 20
198.808273
 30
0.0
 10
127.494982
 20
198.547592
 30
0.0
 10
125.507289
 20
198.873443
 30
0.0
 10
123.161160
 20
199.655486
 30
0.0
  0
SPLINE
  5
186
100
AcDbEntity
  8
Layer_1
 62
7
100
AcDbSpline
 70
8
 71
3
 72
8
 73
4
 74
0
 40
0
 40
0
 40
0
 40
0
 40
1
 40
1
 40
1
 40
1
 10
123.161160
 20
199.655486
 30
0.0
 10
122.183606
 20
200.013923
 30
0.0
 10
121.271223
 20
200.176848
 30
0.0
 10
121.140882
 20
200.046508
 30
0.0
  0
SPLINE
  5
187
100
AcDbEntity
  8
Layer_1
 62
7
100
AcDbSpline
 70
8
 71
3
 72
8
 73
4
 74
0
 40
0
 40
0
 40
0
 40
0
 40
1
 40
1
 40
1
 40
1
 10
121.140882
 20
200.046508
 30
0.0
 10
120.782446
 20
199.655486
 30
0.0
 10
116.220528
 20
184.601158
 30
0.0
 10
116.383454
 20
184.405647
 30
0.0
  0
SPLINE
  5
188
100
AcDbEntity
  8
Layer_1
 62
7
100
AcDbSpline
 70
8
 71
3
 72
8
 73
4
 74
0
 40
0
 40
0
 40
0
 40
0
 40
1
 40
1
 40
1
 40
1
 10
116.383454
 20
184.405647
 30
0.0
 10
116.481209
 20
184.307892
 30
0.0
 10
121.075712
 20
183.167412
 30
0.0
 10
126.615183
 20
181.831422
 30
0.0
  0
SPLINE
  5
189
100
AcDbEntity
  8
Layer_1
 62
7
100
AcDbSpline
 70
8
 71
3
 72
8
 73
4
 74
0
 40
0
 40
0
 40
0
 40
0
 40
1
 40
1
 40
1
 40
1
 10
126.615183
 20
181.831422
 30
0.0
 10
139.909915
 20
178.605495
 30
0.0
 10
141.050394
 20
178.344814
 30
0.0
 10
141.213320
 20
178.507739
 30
0.0
  0
SPLINE
  5
18a
100
AcDbEntity
  8
Layer_1
 62
7
100
AcDbSpline
 70
8
 71
3
 72
8
 73
4
 74
0
 40
0
 40
0
 40
0
 40
0
 40
1
 40
1
 40
1
 40
1
 10
141.213320
 20
178.507739
 30
0.0
 10
141.343661
 20
178.638080
 30
0.0
 10
149.652868
 20
197.146432
 30
0.0
 10
150.174230
 20
198.547592
 30
0.0
  0
SPLINE
  5
18b
100
AcDbEntity
  8
Layer_1
 62
7
100
AcDbSpline
 70
8
 71
3
 72
8
 73
4
 74
0
 40
0
 40
0
 40
0
 40
0
 40
1
 40
1
 40
1
 40
1
 10
150.174230
 20
198.547592
 30
0.0
 10
150.434911
 20
199.199295
 30
0.0
 10
150.271985
 20
199.329635
 30
0.0
 10
147.795516
 20
200.274604
 30
0.0
  0
SPLINE
  5
18c
100
AcDbEntity
  8
Layer_1
 62
7
100
AcDbSpline
 70
8
 71
3
 72
8
 73
4
 74
0
 40
0
 40
0
 40
0
 40
0
 40
1
 40
1
 40
1
 40
1
 10
147.795516
 20
200.274604
 30
0.0
 10
142.516725
 20
202.294882
 30
0.0
 10
134.174933
 20
205.162373
 30
0.0
 10
133.588401
 20
205.162373
 30
0.0
  0
SPLINE
  5
18d
100
AcDbEntity
  8
Layer_1
 62
7
100
AcDbSpline
 70
8
 71
3
 72
8
 73
4
 74
0
 40
0
 40
0
 40
0
 40
0
 40
1
 40
1
 40
1
 40
1
 10
133.588401
 20
205.162373
 30
0.0
 10
133.262549
 20
205.162373
 30
0.0
 10
132.578262
 20
204.836521
 30
0.0
 10
132.089485
 20
204.478085
 30
0.0
  0
LWPOLYLINE
  5
18e
100
AcDbEntity
  8
Layer_1
 62
7
100
AcDbPolyline
 90
2
 70
0
 10
106.412405
 20
202.913999
 30
0.0
 10
106.412405
 20
202.913999
 30
0.0
  0
SPLINE
  5
18f
100
AcDbEntity
  8
Layer_1
 62
7
100
AcDbSpline
 70
8
 71
3
 72
8
 73
4
 74
0
 40
0
 40
0
 40
0
 40
0
 40
1
 40
1
 40
1
 40
1
 10
93.280599
 20
171.436767
 30
0.0
 10
88.849022
 20
170.491798
 30
0.0
 10
84.775881
 20
168.047914
 30
0.0
 10
78.063345
 20
162.410687
 30
0.0
  0
SPLINE
  5
190
100
AcDbEntity
  8
Layer_1
 62
7
100
AcDbSpline
 70
8
 71
3
 72
8
 73
4
 74
0
 40
0
 40
0
 40
0
 40
0
 40
1
 40
1
 40
1
 40
1
 10
78.063345
 20
162.410687
 30
0.0
 10
73.925034
 20
158.956663
 30
0.0
 10
69.102435
 20
155.209374
 30
0.0
 10
61.216834
 20
149.376636
 30
0.0
  0
LWPOLYLINE
  5
191
100
AcDbEntity
  8
Layer_1
 62
7
100
AcDbPolyline
 90
2
 70
0
 10
132.089485
 20
204.478085
 30
0.0
 10
132.089485
 20
204.478085
 30
0.0
  0
SPLINE
  5
192
100
AcDbEntity
  8
Layer_1
 62
7
100
AcDbSpline
 70
8
 71
3
 72
8
 73
4
 74
0
 40
0
 40
0
 40
0
 40
0
 40
1
 40
1
 40
1
 40
1
 10
56.752672
 20
144.554037
 30
0.0
 10
55.872874
 20
140.220215
 30
0.0
 10
56.524576
 20
136.049319
 30
0.0
 10
58.284173
 20
135.104351
 30
0.0
  0
SPLINE
  5
193
100
AcDbEntity
  8
Layer_1
 62
7
100
AcDbSpline
 70
8
 71
3
 72
8
 73
4
 74
0
 40
0
 40
0
 40
0
 40
0
 40
1
 40
1
 40
1
 40
1
 10
58.284173
 20
135.104351
 30
0.0
 10
58.772950
 20
134.843670
 30
0.0
 10
60.662887
 20
134.778499
 30
0.0
 10
64.247251
 20
134.843670
 30
0.0
  0
SPLINE
  5
194
100
AcDbEntity
  8
Layer_1
 62
7
100
AcDbSpline
 70
8
 71
3
 72
8
 73
4
 74
0
 40
0
 40
0
 40
0
 40
0
 40
1
 40
1
 40
1
 40
1
 10
64.247251
 20
134.843670
 30
0.0
 10
68.743999
 20
134.941425
 30
0.0
 10
69.786723
 20
135.071765
 30
0.0
 10
71.350809
 20
135.690883
 30
0.0
  0
SPLINE
  5
195
100
AcDbEntity
  8
Layer_1
 62
7
100
AcDbSpline
 70
8
 71
3
 72
8
 73
4
 74
0
 40
0
 40
0
 40
0
 40
0
 40
1
 40
1
 40
1
 40
1
 10
71.350809
 20
135.690883
 30
0.0
 10
74.935173
 20
137.124628
 30
0.0
 10
77.737494
 20
139.014566
 30
0.0
 10
86.144456
 20
145.694517
 30
0.0
  0
SPLINE
  5
196
100
AcDbEntity
  8
Layer_1
 62
7
100
AcDbSpline
 70
8
 71
3
 72
8
 73
4
 74
0
 40
0
 40
0
 40
0
 40
0
 40
1
 40
1
 40
1
 40
1
 10
86.144456
 20
145.694517
 30
0.0
 10
94.355908
 20
152.211542
 30
0.0
 10
94.551419
 20
152.341883
 30
0.0
 10
95.072781
 20
152.048616
 30
0.0
  0
SPLINE
  5
197
100
AcDbEntity
  8
Layer_1
 62
7
100
AcDbSpline
 70
8
 71
3
 72
8
 73
4
 74
0
 40
0
 40
0
 40
0
 40
0
 40
1
 40
1
 40
1
 40
1
 10
95.072781
 20
152.048616
 30
0.0
 10
96.115505
 20
151.462084
 30
0.0
 10
106.607916
 20
143.087707
 30
0.0
 10
106.738256
 20
142.761855
 30
0.0
  0
SPLINE
  5
198
100
AcDbEntity
  8
Layer_1
 62
7
100
AcDbSpline
 70
8
 71
3
 72
8
 73
4
 74
0
 40
0
 40
0
 40
0
 40
0
 40
1
 40
1
 40
1
 40
1
 10
106.738256
 20
142.761855
 30
0.0
 10
106.836012
 20
142.468589
 30
0.0
 10
101.915657
 20
136.342585
 30
0.0
 10
84.938806
 20
115.716200
 30
0.0
  0
LWPOLYLINE
  5
199
100
AcDbEntity
  8
Layer_1
 62
7
100
AcDbPolyline
 90
3
 70
0
 10
61.216834
 20
149.376636
 30
0.0
 10
57.143694
 20
146.346219
 30
0.0
 10
56.752672
 20
144.554037
 30
0.0
  0
SPLINE
  5
19a
100
AcDbEntity
  8
Layer_1
 62
7
100
AcDbSpline
 70
8
 71
3
 72
8
 73
4
 74
0
 40
0
 40
0
 40
0
 40
0
 40
1
 40
1
 40
1
 40
1
 10
68.548488
 20
88.996396
 30
0.0
 10
62.324729
 20
77.721943
 30
0.0
 10
56.980768
 20
68.207086
 30
0.0
 10
56.687502
 20
67.881234
 30
0.0
  0
SPLINE
  5
19b
100
AcDbEntity
  8
Layer_1
 62
7
100
AcDbSpline
 70
8
 71
3
 72
8
 73
4
 74
0
 40
0
 40
0
 40
0
 40
0
 40
1
 40
1
 40
1
 40
1
 10
56.687502
 20
67.881234
 30
0.0
 10
56.394236
 20
67.522798
 30
0.0
 10
52.190754
 20
64.068775
 30
0.0
 10
47.368156
 20
60.158559
 30
0.0
  0
SPLINE
  5
19c
100
AcDbEntity
  8
Layer_1
 62
7
100
AcDbSpline
 70
8
 71
3
 72
8
 73
4
 74
0
 40
0
 40
0
 40
0
 40
0
 40
1
 40
1
 40
1
 40
1
 10
47.368156
 20
60.158559
 30
0.0
 10
42.512972
 20
56.248344
 30
0.0
 10
36.191457
 20
50.839213
 30
0.0
 10
33.291381
 20
48.134648
 30
0.0
  0
LWPOLYLINE
  5
19d
100
AcDbEntity
  8
Layer_1
 62
7
100
AcDbPolyline
 90
3
 70
0
 10
84.938806
 20
115.716200
 30
0.0
 10
79.855527
 20
109.525026
 30
0.0
 10
68.548488
 20
88.996396
 30
0.0
  0
SPLINE
  5
19e
100
AcDbEntity
  8
Layer_1
 62
7
100
AcDbSpline
 70
8
 71
3
 72
8
 73
4
 74
0
 40
0
 40
0
 40
0
 40
0
 40
1
 40
1
 40
1
 40
1
 10
27.197962
 20
40.672654
 30
0.0
 10
26.024898
 20
37.186045
 30
0.0
 10
25.633876
 20
34.579235
 30
0.0
 10
26.024898
 20
33.080319
 30
0.0
  0
SPLINE
  5
19f
100
AcDbEntity
  8
Layer_1
 62
7
100
AcDbSpline
 70
8
 71
3
 72
8
 73
4
 74
0
 40
0
 40
0
 40
0
 40
0
 40
1
 40
1
 40
1
 40
1
 10
26.024898
 20
33.080319
 30
0.0
 10
26.415919
 20
31.679159
 30
0.0
 10
28.827218
 20
29.528540
 30
0.0
 10
31.205933
 20
28.453231
 30
0.0
  0
SPLINE
  5
1a0
100
AcDbEntity
  8
Layer_1
 62
7
100
AcDbSpline
 70
8
 71
3
 72
8
 73
4
 74
0
 40
0
 40
0
 40
0
 40
0
 40
1
 40
1
 40
1
 40
1
 10
31.205933
 20
28.453231
 30
0.0
 10
35.507169
 20
26.530709
 30
0.0
 10
41.176981
 20
29.528540
 30
0.0
 10
56.980768
 20
42.073814
 30
0.0
  0
SPLINE
  5
1a1
100
AcDbEntity
  8
Layer_1
 62
7
100
AcDbSpline
 70
8
 71
3
 72
8
 73
4
 74
0
 40
0
 40
0
 40
0
 40
0
 40
1
 40
1
 40
1
 40
1
 10
56.980768
 20
42.073814
 30
0.0
 10
62.226973
 20
46.244710
 30
0.0
 10
71.155298
 20
52.924661
 30
0.0
 10
73.534012
 20
54.456162
 30
0.0
  0
LWPOLYLINE
  5
1a2
100
AcDbEntity
  8
Layer_1
 62
7
100
AcDbPolyline
 90
3
 70
0
 10
33.291381
 20
48.134648
 30
0.0
 10
28.045175
 20
43.246879
 30
0.0
 10
27.197962
 20
40.672654
 30
0.0
  0
SPLINE
  5
1a3
100
AcDbEntity
  8
Layer_1
 62
7
100
AcDbSpline
 70
8
 71
3
 72
8
 73
4
 74
0
 40
0
 40
0
 40
0
 40
0
 40
1
 40
1
 40
1
 40
1
 10
85.069147
 20
72.931929
 30
0.0
 10
95.398632
 20
91.505451
 30
0.0
 10
95.105366
 20
91.081845
 30
0.0
 10
97.614421
 20
90.690823
 30
0.0
  0
SPLINE
  5
1a4
100
AcDbEntity
  8
Layer_1
 62
7
100
AcDbSpline
 70
8
 71
3
 72
8
 73
4
 74
0
 40
0
 40
0
 40
0
 40
0
 40
1
 40
1
 40
1
 40
1
 10
97.614421
 20
90.690823
 30
0.0
 10
101.133614
 20
90.104291
 30
0.0
 10
104.294372
 20
87.367140
 30
0.0
 10
116.872231
 20
73.811727
 30
0.0
  0
LWPOLYLINE
  5
1a5
100
AcDbEntity
  8
Layer_1
 62
7
100
AcDbPolyline
 90
3
 70
0
 10
73.534012
 20
54.456162
 30
0.0
 10
75.521705
 20
55.759567
 30
0.0
 10
85.069147
 20
72.931929
 30
0.0
  0
SPLINE
  5
1a6
100
AcDbEntity
  8
Layer_1
 62
7
100
AcDbSpline
 70
8
 71
3
 72
8
 73
4
 74
0
 40
0
 40
0
 40
0
 40
0
 40
1
 40
1
 40
1
 40
1
 10
118.696998
 20
28.062210
 30
0.0
 10
119.446456
 20
24.934038
 30
0.0
 10
121.043127
 20
21.838451
 30
0.0
 10
122.574628
 20
20.600216
 30
0.0
  0
SPLINE
  5
1a7
100
AcDbEntity
  8
Layer_1
 62
7
100
AcDbSpline
 70
8
 71
3
 72
8
 73
4
 74
0
 40
0
 40
0
 40
0
 40
0
 40
1
 40
1
 40
1
 40
1
 10
122.574628
 20
20.600216
 30
0.0
 10
124.529735
 20
19.036130
 30
0.0
 10
126.321917
 20
19.166470
 30
0.0
 10
130.557984
 20
21.219333
 30
0.0
  0
SPLINE
  5
1a8
100
AcDbEntity
  8
Layer_1
 62
7
100
AcDbSpline
 70
8
 71
3
 72
8
 73
4
 74
0
 40
0
 40
0
 40
0
 40
0
 40
1
 40
1
 40
1
 40
1
 10
130.557984
 20
21.219333
 30
0.0
 10
136.846913
 20
24.217165
 30
0.0
 10
137.042424
 20
24.705942
 30
0.0
 10
138.606510
 20
42.399665
 30
0.0
  0
SPLINE
  5
1a9
100
AcDbEntity
  8
Layer_1
 62
7
100
AcDbSpline
 70
8
 71
3
 72
8
 73
4
 74
0
 40
0
 40
0
 40
0
 40
0
 40
1
 40
1
 40
1
 40
1
 10
138.606510
 20
42.399665
 30
0.0
 10
139.616649
 20
53.674119
 30
0.0
 10
141.636927
 20
74.267919
 30
0.0
 10
141.865023
 20
75.571324
 30
0.0
  0
SPLINE
  5
1aa
100
AcDbEntity
  8
Layer_1
 62
7
100
AcDbSpline
 70
8
 71
3
 72
8
 73
4
 74
0
 40
0
 40
0
 40
0
 40
0
 40
1
 40
1
 40
1
 40
1
 10
141.865023
 20
75.571324
 30
0.0
 10
141.995363
 20
76.418538
 30
0.0
 10
141.017809
 20
77.493847
 30
0.0
 10
129.873696
 20
88.703130
 30
0.0
  0
SPLINE
  5
1ab
100
AcDbEntity
  8
Layer_1
 62
7
100
AcDbSpline
 70
8
 71
3
 72
8
 73
4
 74
0
 40
0
 40
0
 40
0
 40
0
 40
1
 40
1
 40
1
 40
1
 10
129.873696
 20
88.703130
 30
0.0
 10
123.226330
 20
95.415666
 30
0.0
 10
117.719444
 20
101.020308
 30
0.0
 10
117.654274
 20
101.183234
 30
0.0
  0
SPLINE
  5
1ac
100
AcDbEntity
  8
Layer_1
 62
7
100
AcDbSpline
 70
8
 71
3
 72
8
 73
4
 74
0
 40
0
 40
0
 40
0
 40
0
 40
1
 40
1
 40
1
 40
1
 10
117.654274
 20
101.183234
 30
0.0
 10
117.621688
 20
101.313574
 30
0.0
 10
120.456594
 20
105.028279
 30
0.0
 10
123.975788
 20
109.394686
 30
0.0
  0
SPLINE
  5
1ad
100
AcDbEntity
  8
Layer_1
 62
7
100
AcDbSpline
 70
8
 71
3
 72
8
 73
4
 74
0
 40
0
 40
0
 40
0
 40
0
 40
1
 40
1
 40
1
 40
1
 10
123.975788
 20
109.394686
 30
0.0
 10
127.494982
 20
113.761093
 30
0.0
 10
131.274857
 20
118.485936
 30
0.0
 10
132.382751
 20
119.854511
 30
0.0
  0
SPLINE
  5
1ae
100
AcDbEntity
  8
Layer_1
 62
7
100
AcDbSpline
 70
8
 71
3
 72
8
 73
4
 74
0
 40
0
 40
0
 40
0
 40
0
 40
1
 40
1
 40
1
 40
1
 10
132.382751
 20
119.854511
 30
0.0
 10
133.490645
 20
121.223087
 30
0.0
 10
134.468199
 20
122.363566
 30
0.0
 10
134.598539
 20
122.363566
 30
0.0
  0
SPLINE
  5
1af
100
AcDbEntity
  8
Layer_1
 62
7
100
AcDbSpline
 70
8
 71
3
 72
8
 73
4
 74
0
 40
0
 40
0
 40
0
 40
0
 40
1
 40
1
 40
1
 40
1
 10
134.598539
 20
122.363566
 30
0.0
 10
134.728880
 20
122.396151
 30
0.0
 10
142.418970
 20
114.771232
 30
0.0
 10
151.705731
 20
105.419300
 30
0.0
  0
SPLINE
  5
1b0
100
AcDbEntity
  8
Layer_1
 62
7
100
AcDbSpline
 70
8
 71
3
 72
8
 73
4
 74
0
 40
0
 40
0
 40
0
 40
0
 40
1
 40
1
 40
1
 40
1
 10
151.705731
 20
105.419300
 30
0.0
 10
163.501547
 20
93.558314
 30
0.0
 10
169.041018
 20
88.214353
 30
0.0
 10
170.051157
 20
87.692991
 30
0.0
  0
SPLINE
  5
1b1
100
AcDbEntity
  8
Layer_1
 62
7
100
AcDbSpline
 70
8
 71
3
 72
8
 73
4
 74
0
 40
0
 40
0
 40
0
 40
0
 40
1
 40
1
 40
1
 40
1
 10
170.051157
 20
87.692991
 30
0.0
 10
174.059128
 20
85.672714
 30
0.0
 10
178.914312
 20
84.988426
 30
0.0
 10
181.130100
 20
86.194076
 30
0.0
  0
SPLINE
  5
1b2
100
AcDbEntity
  8
Layer_1
 62
7
100
AcDbSpline
 70
8
 71
3
 72
8
 73
4
 74
0
 40
0
 40
0
 40
0
 40
0
 40
1
 40
1
 40
1
 40
1
 10
181.130100
 20
86.194076
 30
0.0
 10
182.791942
 20
87.073874
 30
0.0
 10
183.834666
 20
89.224492
 30
0.0
 10
183.606570
 20
91.244770
 30
0.0
  0
SPLINE
  5
1b3
100
AcDbEntity
  8
Layer_1
 62
7
100
AcDbSpline
 70
8
 71
3
 72
8
 73
4
 74
0
 40
0
 40
0
 40
0
 40
0
 40
1
 40
1
 40
1
 40
1
 10
183.606570
 20
91.244770
 30
0.0
 10
183.150378
 20
95.220156
 30
0.0
 10
177.969343
 20
103.138341
 30
0.0
 10
169.888232
 20
112.229592
 30
0.0
  0
SPLINE
  5
1b4
100
AcDbEntity
  8
Layer_1
 62
7
100
AcDbSpline
 70
8
 71
3
 72
8
 73
4
 74
0
 40
0
 40
0
 40
0
 40
0
 40
1
 40
1
 40
1
 40
1
 10
169.888232
 20
112.229592
 30
0.0
 10
168.487071
 20
113.793678
 30
0.0
 10
164.609441
 20
117.931989
 30
0.0
 10
161.285758
 20
121.418597
 30
0.0
  0
SPLINE
  5
1b5
100
AcDbEntity
  8
Layer_1
 62
7
100
AcDbSpline
 70
8
 71
3
 72
8
 73
4
 74
0
 40
0
 40
0
 40
0
 40
0
 40
1
 40
1
 40
1
 40
1
 10
161.285758
 20
121.418597
 30
0.0
 10
155.420435
 20
127.544601
 30
0.0
 10
146.068504
 20
137.417895
 30
0.0
 10
144.113396
 20
139.568513
 30
0.0
  0
SPLINE
  5
1b6
100
AcDbEntity
  8
Layer_1
 62
7
100
AcDbSpline
 70
8
 71
3
 72
8
 73
4
 74
0
 40
0
 40
0
 40
0
 40
0
 40
1
 40
1
 40
1
 40
1
 10
144.113396
 20
139.568513
 30
0.0
 10
143.592034
 20
140.122460
 30
0.0
 10
132.773772
 20
147.649624
 30
0.0
 10
120.065573
 20
156.252098
 30
0.0
  0
SPLINE
  5
1b7
100
AcDbEntity
  8
Layer_1
 62
7
100
AcDbSpline
 70
8
 71
3
 72
8
 73
4
 74
0
 40
0
 40
0
 40
0
 40
0
 40
1
 40
1
 40
1
 40
1
 10
120.065573
 20
156.252098
 30
0.0
 10
103.544914
 20
167.461381
 30
0.0
 10
96.734622
 20
171.925544
 30
0.0
 10
96.115505
 20
171.892958
 30
0.0
  0
SPLINE
  5
1b8
100
AcDbEntity
  8
Layer_1
 62
7
100
AcDbSpline
 70
8
 71
3
 72
8
 73
4
 74
0
 40
0
 40
0
 40
0
 40
0
 40
1
 40
1
 40
1
 40
1
 10
96.115505
 20
171.892958
 30
0.0
 10
95.659313
 20
171.892958
 30
0.0
 10
94.355908
 20
171.664863
 30
0.0
 10
93.280599
 20
171.436767
 30
0.0
  0
LWPOLYLINE
  5
1b9
100
AcDbEntity
  8
Layer_1
 62
7
100
AcDbPolyline
 90
5
 70
0
 10
116.872231
 20
73.811727
 30
0.0
 10
123.095990
 20
67.066606
 30
0.0
 10
120.619520
 20
48.721180
 30
0.0
 10
118.143050
 20
30.408339
 30
0.0
 10
118.696998
 20
28.062210
 30
0.0
  0
LWPOLYLINE
  5
1ba
100
AcDbEntity
  8
Layer_1
 62
7
100
AcDbPolyline
 90
2
 70
0
 10
93.280599
 20
171.436767
 30
0.0
 10
93.280599
 20
171.436767
 30
0.0
  0
SPLINE
  5
1bb
100
AcDbEntity
  8
Layer_1
 62
7
100
AcDbSpline
 70
8
 71
3
 72
8
 73
4
 74
0
 40
0
 40
0
 40
0
 40
0
 40
1
 40
1
 40
1
 40
1
 10
147.176398
 20
159.575781
 30
0.0
 10
144.145982
 20
155.730736
 30
0.0
 10
141.702097
 20
152.407053
 30
0.0
 10
141.702097
 20
152.178957
 30
0.0
  0
SPLINE
  5
1bc
100
AcDbEntity
  8
Layer_1
 62
7
100
AcDbSpline
 70
8
 71
3
 72
8
 73
4
 74
0
 40
0
 40
0
 40
0
 40
0
 40
1
 40
1
 40
1
 40
1
 10
141.702097
 20
152.178957
 30
0.0
 10
141.702097
 20
150.745211
 30
0.0
 10
145.025780
 20
148.692348
 30
0.0
 10
149.033751
 20
147.649624
 30
0.0
  0
SPLINE
  5
1bd
100
AcDbEntity
  8
Layer_1
 62
7
100
AcDbSpline
 70
8
 71
3
 72
8
 73
4
 74
0
 40
0
 40
0
 40
0
 40
0
 40
1
 40
1
 40
1
 40
1
 10
149.033751
 20
147.649624
 30
0.0
 10
153.204647
 20
146.574315
 30
0.0
 10
160.047523
 20
146.183294
 30
0.0
 10
163.273451
 20
146.867581
 30
0.0
  0
SPLINE
  5
1be
100
AcDbEntity
  8
Layer_1
 62
7
100
AcDbSpline
 70
8
 71
3
 72
8
 73
4
 74
0
 40
0
 40
0
 40
0
 40
0
 40
1
 40
1
 40
1
 40
1
 10
163.273451
 20
146.867581
 30
0.0
 10
170.279253
 20
148.366497
 30
0.0
 10
174.515320
 20
154.525086
 30
0.0
 10
176.079406
 20
165.506274
 30
0.0
  0
LWPOLYLINE
  5
1bf
100
AcDbEntity
  8
Layer_1
 62
7
100
AcDbPolyline
 90
3
 70
0
 10
154.410296
 20
166.744508
 30
0.0
 10
152.618114
 20
166.548998
 30
0.0
 10
147.176398
 20
159.575781
 30
0.0
  0
SPLINE
  5
1c0
100
AcDbEntity
  8
Layer_1
 62
7
100
AcDbSpline
 70
8
 71
3
 72
8
 73
4
 74
0
 40
0
 40
0
 40
0
 40
0
 40
1
 40
1
 40
1
 40
1
 10
166.238697
 20
166.972604
 30
0.0
 10
160.731811
 20
166.940019
 30
0.0
 10
155.387850
 20
166.842264
 30
0.0
 10
154.410296
 20
166.744508
 30
0.0
  0
LWPOLYLINE
  5
1c1
100
AcDbEntity
  8
Layer_1
 62
7
100
AcDbPolyline
 90
3
 70
0
 10
176.079406
 20
165.506274
 30
0.0
 10
176.274916
 20
167.037775
 30
0.0
 10
166.238697
 20
166.972604
 30
0.0
  0
LWPOLYLINE
  5
1c2
100
AcDbEntity
  8
Layer_1
 62
7
100
AcDbPolyline
 90
2
 70
0
 10
154.410296
 20
166.744508
 30
0.0
 10
154.410296
 20
166.744508
 30
0.0
  0
ENDSEC
  0
SECTION
  2
OBJECTS
  0
DICTIONARY
  5
C
330
0
100
AcDbDictionary
  3
ACAD_GROUP
350
D
  3
ACAD_MLINESTYLE
350
17
  0
DICTIONARY
  5
D
330
C
100
AcDbDictionary
  0
DICTIONARY
  5
1A
330
C
100
AcDbDictionary
  0
DICTIONARY
  5
17
330
C
100
AcDbDictionary
  3
STANDARD
350
18
  0
DICTIONARY
  5
19
330
C
100
AcDbDictionary
  0
ENDSEC
  0
EOF
