<?xml version="1.0" encoding="UTF-8" standalone="no"?>
<svg
   xmlns:dc="http://purl.org/dc/elements/1.1/"
   xmlns:cc="http://creativecommons.org/ns#"
   xmlns:rdf="http://www.w3.org/1999/02/22-rdf-syntax-ns#"
   xmlns:svg="http://www.w3.org/2000/svg"
   xmlns="http://www.w3.org/2000/svg"
   version="1.1"
   id="svg2"
   viewBox="0 0 744.09448819 1052.3622047"
   height="297mm"
   width="210mm">
  <defs
     id="defs4" />
  <metadata
     id="metadata7">
    <rdf:RDF>
      <cc:Work
         rdf:about="">
        <dc:format>image/svg+xml</dc:format>
        <dc:type
           rdf:resource="http://purl.org/dc/dcmitype/StillImage" />
        <dc:title></dc:title>
      </cc:Work>
    </rdf:RDF>
  </metadata>
  <g
     id="layer1">
    <g
       style="fill:#800000"
       transform="translate(-42.857143,-12.857143)"
       id="g3376">
      <path
         style="fill:#800000;stroke:#808000"
         d="m 171.42224,314.71296 c 9.0348,-32.25344 14.40325,-47.95336 18.73032,-54.77645 5.0298,-7.93118 8.35203,-6.15771 15.0218,8.0189 2.73267,5.8083 4.96849,10.91074 4.96849,11.33875 0,0.42801 0.92086,2.73984 2.04636,5.13741 l 2.04636,4.3592 -0.57501,-12.5 c -0.31626,-6.875 -0.82671,-15.04791 -1.13434,-18.16202 -0.47942,-4.85315 -0.26103,-5.96032 1.52865,-7.75 3.47208,-3.47208 11.27252,-2.18577 15.16081,2.50003 1.52983,1.84361 44.9848,40.08931 57.3396,50.46589 1.60184,1.34536 5.47494,4.6961 8.60689,7.4461 3.13195,2.75 8.51375,7.21048 11.95955,9.91219 8.67096,6.79851 6.44225,3.13943 -6.90833,-11.34208 -15.23312,-16.52351 -42.71432,-47.46463 -55.57054,-62.56693 -14.31794,-16.8194 -16.64264,-19.1361 -18.24405,-18.75318 -2.59684,0.62094 0,0 -5.00976,0.93625 -2.0219,-3.53779 -4.2533,-7.34859 -6.19242,-14.73455 -1.00431,-3.82534 -2.58389,-8.11182 -3.51017,-9.5255 -1.61691,-2.46772 -1.95083,-2.54318 -8.36387,-1.89021 -11.99441,1.22127 -12.89931,2.32439 -13.09536,15.96401 -0.0633,4.4 -0.3446,12.43236 -0.3446,12.43236 -13.43562,1.88951 -27.70535,3.06234 -39.82826,3.7608 l 1.72727,-13.11928 c 1.47408,-11.19626 0.3295,-11.99612 -12.62047,-4.77939 -5.40791,3.01371 -11.20614,5.84287 -12.25455,5.17121 -8.43411,-5.40324 -10.66109,2.21295 -27.26377,18.67269 -22.64912,22.45411 -38.07052,39.39337 -35.81809,39.34349 0.8234,-0.0182 12.71574,-7.90628 30.33207,-20.1189 19.05047,-13.20685 30.18781,-19.39189 36.83186,-20.45432 3.23534,-0.51735 4.32584,-0.23698 6.14194,1.57912 2.46063,2.46063 2.48633,1.89757 -0.88702,19.43164 -2.43311,12.64692 -2.6928,17.93991 -0.85076,17.34047 1.21649,-0.39586 7.65555,-11.26457 13.70191,-23.1279 1.6449,-3.2274 4.15154,-7.3899 5.5703,-9.25 4.31867,-5.66207 6.50097,-4.35644 8.99585,5.38205 1.29137,5.0407 1.39787,8.09334 0.6045,17.32616 -0.86543,10.07135 -0.23659,33.2406 1.34104,49.4098 0.26832,2.75 0.49878,5.6 0.51213,6.33333 0.0134,0.73334 0.58677,1.14832 1.27427,0.9222 0.6875,-0.22613 2.50073,-4.87613 4.0294,-10.33334 z"
         id="path3372" />
      <path
         style="fill:#800000;stroke:#808000"
         d="m 284.64285,224.80448 c -3.85,-1.83529 -10.13624,-4.83918 -13.96943,-6.67531 -7.88786,-3.77833 -15.88981,-10.75295 -15.37034,-13.39702 0.49483,-2.51866 4.6845,-5.22923 9.83977,-6.36598 2.475,-0.54574 14.625,-1.72148 27,-2.61276 22.22847,-1.60094 43.86141,-3.99072 44.82217,-4.95147 0.43447,-0.43448 -3.64463,-2.43105 -19.32217,-9.45752 -2.2,-0.98601 -5.125,-2.10252 -6.5,-2.48113 -5.89839,-1.95711 -24.2433,-12.52757 -27.53615,-7.32252 -0.47492,1.25407 -0.20801,8.05127 -1.36437,12.92857 -1.16914,4.93119 0.0893,-0.98214 -1.16914,4.93119 -7.76713,-2.1766 -9.35734,-1.27889 -13.84419,-3.31011 -0.6051,-3.64435 0.85595,-15.96036 -0.94849,-17.92465 -5.51938,4.39117 -8.17699,9.74998 -14.72308,16.125 -4.2829,-8.63355 -6.2085,-14.6238 -11.49311,-20.68416 -4.72665,8.55645 -4.34962,7.92927 -7.97919,15.08119 l 3.88158,10.05149 c 2.13486,5.52831 5.13194,13.42648 6.66016,17.55148 1.52822,4.125 3.282,8.01516 3.89728,8.6448 1.15651,1.1835 40.95543,13.2461 43.6187,13.22033 0.825,-0.008 -1.65,-1.51612 -5.5,-3.35142 z"
         id="path3370" />
      <path
         style="fill:#800000;stroke:#808000"
         d="m 139.50799,196.21819 c 3.88997,-3.05985 3.41896,-4.92742 -1.2427,-4.92742 -4.40483,0 -6.59796,1.9264 -5.63767,4.95201 0.83166,2.62032 3.53018,2.61067 6.88037,-0.0246 z"
         id="path3368" />
      <path
         style="fill:#800000;stroke:#808000"
         d="m 193.14285,190.79077 c 1.18968,-3.575 2.41426,-6.5 2.72129,-6.5 0.30702,0 1.63778,3.06518 2.30247,3.97421 1.37063,1.87444 3.16536,-1.31779 2.36439,-3.40508 -1.1877,-3.09512 1.70549,-2.29493 6.25885,1.73105 6.31212,5.58102 10.41811,8.69982 11.45357,8.69982 0.45696,0 -1.40366,-3.4875 -4.13473,-7.75 -4.83865,-7.55191 -6.10666,-11.25 -3.85743,-11.25 0.67225,0 0.87013,-0.94936 0.50288,-2.41259 -0.54715,-2.18005 -0.22026,-2.47768 3.3916,-3.0879 2.19841,-0.37142 3.99711,-0.86326 3.99711,-1.09299 0,-1.18417 -11.35653,-8.58531 -13.77284,-9.6306 -1.84633,-0.79872 -4.053,-6.38863 -5.41298,-9.46309 l -2.06873,-4.6767 -2.84582,3.43194 c -1.56521,1.88756 -2.85793,3.73911 -2.87273,4.11454 -0.0692,1.75622 -3.22473,0.12684 -6.90045,-1.64904 l -5.12645,-0.35207 2.5,7.26586 c 1.64461,4.7798 -1.55236,4.08264 -4.11829,5.09283 -2.22025,0.8741 -4.77176,2.04398 -3.76372,3.2586 1.25995,1.51814 6.77767,5.15002 4.10846,8.05738 -4.77248,5.19831 -1.60809,6.21225 1.63952,5.603 2.72985,-0.51213 3.63784,-0.34305 3.64934,0.67954 0.008,0.74871 -2.79016,4.32878 -2.2905,5.11842 0.7119,1.12504 4.4329,-1.14313 5.55611,-2.07531 1.20901,-1.00339 1.53297,-0.23654 2.06978,4.89937 0.58608,5.60737 1.20688,7.91881 2.12679,7.91881 0.1977,0 1.33283,-2.925 2.52251,-6.5 z"
         id="path3366" />
      <path
         style="fill:#800000;stroke:#808000"
         d="m 131.21977,178.36769 c 1.6077,-1.60769 2.92308,-3.85769 2.92308,-5 0,-1.69946 -0.62426,-2.07692 -3.4349,-2.07692 -1.8892,0 -4.56375,0.42919 -5.94346,0.95375 -2.22541,0.8461 -2.411,1.29391 -1.64424,3.96743 1.75684,6.12575 3.63076,6.62451 8.09952,2.15574 z"
         id="path3364" />
      <path
         style="fill:#800000;stroke:#808000"
         d="m 161.06002,172.54077 c 0.54683,-2.0625 1.47097,-6.9 2.05364,-10.75 2.19894,-14.52964 7.86781,-41.5 8.72283,-41.5 0.30233,0 5.10744,0.64463 10.67802,1.4325 5.57059,0.78788 14.08798,1.9625 18.92754,2.61027 10.47825,1.40251 9.91382,0.7685 15.54135,17.45723 5.76297,17.09038 6.39201,18.5 8.25554,18.5 1.83012,0 4.74285,-6.03024 7.98868,-16.53904 1.09758,-3.55353 2.31501,-6.45609 2.70541,-6.45014 1.29836,0.0198 10.70376,1.62088 12.37678,2.55715 0.90613,0.50709 2.53532,5.91577 4.23773,10.47601 1.70242,4.56023 3.58192,8.45309 4.17667,8.65079 1.40332,0.4665 8.41864,-6.14285 8.41864,-7.93145 0,-0.75404 -1.5794,-2.9018 -3.50978,-4.7728 -8.1235,-7.87361 -6.72023,-13.98157 7.26294,-31.61298 15.66551,-19.75265 15.50761,-20.60408 -1.44919,-7.81457 -9.05244,4.98508 -26.40316,21.92649 -34.0148,22.43703 -2.1776,0 -3.62549,-0.99447 -6.06034,-4.16249 -4.17078,-5.42667 -4.69118,-8.74889 -2.79455,-17.84023 0.86025,-4.1235 1.56445,-7.93028 1.5649,-8.45951 0.001,-1.62313 -5.75813,5.73494 -7.55612,9.65333 -2.83209,6.17204 -6.70212,6.21611 -9.96255,0.11344 -1.77469,-3.32176 -1.95358,-5.37486 -1.72141,-19.75577 0.34775,-21.53973 -2.64174,-49.83141 -5.57552,-52.76519 -2.9075,-2.9075 -4.70836,2.99287 -14.25837,46.71642 -2.43426,9.82093 -2.9977,14.78877 -8.26971,21.80717 -4.55897,6.10188 -6.21139,5.08223 -12.65205,-7.80717 l -5.49654,-11 -0.73145,12 c -0.40229,6.6 -0.97007,12.99317 -1.26172,14.20704 -0.69878,2.90836 -6.49721,8.28247 -8.94274,8.28833 -3.2301,0.008 -8.571,-2.31508 -8.571,-3.72764 -6.70223,-7.15477 -12.94462,-11.78235 -19.75,-19.27365 -3.1625,-3.46691 -7.64625,-8.74207 -9.9639,-11.7226 C 109.11131,82.58173 101.86411,74.43884 95.32407,67.46695 88.78403,60.49505 78.77007,49.61577 73.07082,43.29077 62.99894,32.11304 58.14285,27.413834 58.14285,28.845085 c 0,0.835472 6.24419,11.851725 13.006,22.945685 15.40663,25.27739 32.92702,56.32611 36.9608,65.5 5.41192,12.30816 8.32621,21.69642 7.61482,24.53081 -0.82641,3.29271 -4.50297,4.08336 -8.72392,1.8761 -2.74928,-1.43768 -25.87359,-6.72435 -26.53217,-6.06577 -0.10585,0.10585 3.0401,2.18173 6.991,4.61306 11.70116,7.20073 17.29189,11.68623 18.64881,14.96211 1.64648,3.97497 3.27793,3.91012 12.0212,-0.47782 7.96349,-3.9966 16.2726,-6.09223 20.22363,-5.10059 14.38301,2.12022 5.35547,22.64661 8.92049,23.54615 6.80255,-0.93116 12.40447,2.4246 13.78651,-2.63405 z"
         id="path3360" />
    </g>
  </g>
</svg>
