999
DXF created by Inkscape
  0
SECTION
  2
HEADER
  9
$ACADVER
  1
AC1014
  9
$HANDSEED
  5
FFFF
  9
$MEASUREMENT
 70
     1
  0
ENDSEC
  0
SECTION
  2
TABLES
  0
TABLE
  2
VPORT
  5
8
330
0
100
AcDbSymbolTable
 70
     4
  0
VPORT
  5
2E
330
8
100
AcDbSymbolTableRecord
100
AcDbViewportTableRecord
  2
*ACTIVE
 70
     0
 10
0.0
 20
0.0
 11
1.0
 21
1.0
 12
210.0
 22
148.5
 13
0.0
 23
0.0
 14
10.0
 24
10.0
 15
10.0
 25
10.0
 16
0.0
 26
0.0
 36
1.0
 17
0.0
 27
0.0
 37
0.0
 40
341.0
 41
1.24
 42
50.0
 43
0.0
 44
0.0
 50
0.0
 51
0.0
 71
     0
 72
   100
 73
     1
 74
     3
 75
     0
 76
     0
 77
     0
 78
     0
  0
ENDTAB
  0
TABLE
  2
LTYPE
  5
5
330
0
100
AcDbSymbolTable
 70
     1
  0
LTYPE
  5
14
330
5
100
AcDbSymbolTableRecord
100
AcDbLinetypeTableRecord
  2
BYBLOCK
 70
     0
  3

 72
    65
 73
     0
 40
0.0
  0
LTYPE
  5
15
330
5
100
AcDbSymbolTableRecord
100
AcDbLinetypeTableRecord
  2
BYLAYER
 70
     0
  3

 72
    65
 73
     0
 40
0.0
  0
LTYPE
  5
16
330
5
100
AcDbSymbolTableRecord
100
AcDbLinetypeTableRecord
  2
CONTINUOUS
 70
     0
  3
Solid line
 72
    65
 73
     0
 40
0.0
  0
ENDTAB
  0
TABLE
  2
LAYER
  5
2
100
AcDbSymbolTable
 70
2
  0
LAYER
  5
50
100
AcDbSymbolTableRecord
100
AcDbLayerTableRecord
  2
0
 70
0
  6
CONTINUOUS
  0
LAYER
  5
51
100
AcDbSymbolTableRecord
100
AcDbLayerTableRecord
  2
Layer_1
 70
0
  6
CONTINUOUS
  0
ENDTAB
  0
TABLE
  2
STYLE
  5
3
330
0
100
AcDbSymbolTable
 70
     1
  0
STYLE
  5
11
330
3
100
AcDbSymbolTableRecord
100
AcDbTextStyleTableRecord
  2
STANDARD
 70
     0
 40
0.0
 41
1.0
 50
0.0
 71
     0
 42
2.5
  3
txt
  4

  0
ENDTAB
  0
TABLE
  2
VIEW
  5
6
330
0
100
AcDbSymbolTable
 70
     0
  0
ENDTAB
  0
TABLE
  2
UCS
  5
7
330
0
100
AcDbSymbolTable
 70
     0
  0
ENDTAB
  0
TABLE
  2
APPID
  5
9
330
0
100
AcDbSymbolTable
 70
     2
  0
APPID
  5
12
330
9
100
AcDbSymbolTableRecord
100
AcDbRegAppTableRecord
  2
ACAD
 70
     0
  0
ENDTAB
  0
TABLE
  2
DIMSTYLE
  5
A
330
0
100
AcDbSymbolTable
 70
     1
  0
DIMSTYLE
105
27
330
A
100
AcDbSymbolTableRecord
100
AcDbDimStyleTableRecord
  2
ISO-25
 70
     0
  3

  4

  5

  6

  7

 40
1.0
 41
2.5
 42
0.625
 43
3.75
 44
1.25
 45
0.0
 46
0.0
 47
0.0
 48
0.0
140
2.5
141
2.5
142
0.0
143
0.03937007874016
144
1.0
145
0.0
146
1.0
147
0.625
 71
     0
 72
     0
 73
     0
 74
     0
 75
     0
 76
     0
 77
     1
 78
     8
170
     0
171
     3
172
     1
173
     0
174
     0
175
     0
176
     0
177
     0
178
     0
270
     2
271
     2
272
     2
273
     2
274
     3
340
11
275
     0
280
     0
281
     0
282
     0
283
     0
284
     8
285
     0
286
     0
287
     3
288
     0
  0
ENDTAB
  0
TABLE
  2
BLOCK_RECORD
  5
1
330
0
100
AcDbSymbolTable
 70
     1
  0
BLOCK_RECORD
  5
1F
330
1
100
AcDbSymbolTableRecord
100
AcDbBlockTableRecord
  2
*MODEL_SPACE
  0
BLOCK_RECORD
  5
1B
330
1
100
AcDbSymbolTableRecord
100
AcDbBlockTableRecord
  2
*PAPER_SPACE
  0
ENDTAB
  0
ENDSEC
  0
SECTION
  2
BLOCKS
  0
BLOCK
  5
20
330
1F
100
AcDbEntity
  8
0
100
AcDbBlockBegin
  2
*MODEL_SPACE
 70
     0
 10
0.0
 20
0.0
 30
0.0
  3
*MODEL_SPACE
  1

  0
ENDBLK
  5
21
330
1F
100
AcDbEntity
  8
0
100
AcDbBlockEnd
  0
BLOCK
  5
1C
330
1B
100
AcDbEntity
 67
     1
  8
0
100
AcDbBlockBegin
  2
*PAPER_SPACE
  1

  0
ENDBLK
  5
1D
330
1B
100
AcDbEntity
 67
     1
  8
0
100
AcDbBlockEnd
  0
ENDSEC
  0
SECTION
  2
ENTITIES
  0
SPLINE
  5
100
100
AcDbEntity
  8
Layer_1
 62
7
100
AcDbSpline
 70
8
 71
3
 72
8
 73
4
 74
0
 40
0
 40
0
 40
0
 40
0
 40
1
 40
1
 40
1
 40
1
 10
171.691904
 20
215.988196
 30
0.0
 10
177.794960
 20
214.824029
 30
0.0
 10
182.486904
 20
212.389862
 30
0.0
 10
186.967182
 20
208.121251
 30
0.0
  0
SPLINE
  5
101
100
AcDbEntity
  8
Layer_1
 62
7
100
AcDbSpline
 70
8
 71
3
 72
8
 73
4
 74
0
 40
0
 40
0
 40
0
 40
0
 40
1
 40
1
 40
1
 40
1
 10
186.967182
 20
208.121251
 30
0.0
 10
195.751348
 20
199.725140
 30
0.0
 10
198.608848
 20
187.871807
 30
0.0
 10
194.693015
 20
176.406529
 30
0.0
  0
SPLINE
  5
102
100
AcDbEntity
  8
Layer_1
 62
7
100
AcDbSpline
 70
8
 71
3
 72
8
 73
4
 74
0
 40
0
 40
0
 40
0
 40
0
 40
1
 40
1
 40
1
 40
1
 10
194.693015
 20
176.406529
 30
0.0
 10
191.976626
 20
168.469029
 30
0.0
 10
185.097460
 20
161.307640
 30
0.0
 10
177.301071
 20
158.309029
 30
0.0
  0
SPLINE
  5
103
100
AcDbEntity
  8
Layer_1
 62
7
100
AcDbSpline
 70
8
 71
3
 72
8
 73
4
 74
0
 40
0
 40
0
 40
0
 40
0
 40
1
 40
1
 40
1
 40
1
 10
177.301071
 20
158.309029
 30
0.0
 10
162.308015
 20
152.523474
 30
0.0
 10
145.621626
 20
159.332085
 30
0.0
 10
138.777737
 20
174.007640
 30
0.0
  0
SPLINE
  5
104
100
AcDbEntity
  8
Layer_1
 62
7
100
AcDbSpline
 70
8
 71
3
 72
8
 73
4
 74
0
 40
0
 40
0
 40
0
 40
0
 40
1
 40
1
 40
1
 40
1
 10
138.777737
 20
174.007640
 30
0.0
 10
136.414126
 20
179.087640
 30
0.0
 10
135.567460
 20
186.037362
 30
0.0
 10
136.590515
 20
191.646529
 30
0.0
  0
SPLINE
  5
105
100
AcDbEntity
  8
Layer_1
 62
7
100
AcDbSpline
 70
8
 71
3
 72
8
 73
4
 74
0
 40
0
 40
0
 40
0
 40
0
 40
1
 40
1
 40
1
 40
1
 10
136.590515
 20
191.646529
 30
0.0
 10
139.694960
 20
208.085974
 30
0.0
 10
155.499404
 20
219.057362
 30
0.0
 10
171.691904
 20
215.988196
 30
0.0
  0
SPLINE
  5
106
100
AcDbEntity
  8
Layer_1
 62
7
100
AcDbSpline
 70
8
 71
3
 72
8
 73
4
 74
0
 40
0
 40
0
 40
0
 40
0
 40
1
 40
1
 40
1
 40
1
 10
42.963293
 20
210.132085
 30
0.0
 10
51.147737
 20
208.509307
 30
0.0
 10
58.450237
 20
201.841807
 30
0.0
 10
61.201904
 20
193.410418
 30
0.0
  0
SPLINE
  5
107
100
AcDbEntity
  8
Layer_1
 62
7
100
AcDbSpline
 70
8
 71
3
 72
8
 73
4
 74
0
 40
0
 40
0
 40
0
 40
0
 40
1
 40
1
 40
1
 40
1
 10
61.201904
 20
193.410418
 30
0.0
 10
62.366071
 20
189.847362
 30
0.0
 10
62.507182
 20
183.850140
 30
0.0
 10
61.519404
 20
180.181251
 30
0.0
  0
SPLINE
  5
108
100
AcDbEntity
  8
Layer_1
 62
7
100
AcDbSpline
 70
8
 71
3
 72
8
 73
4
 74
0
 40
0
 40
0
 40
0
 40
0
 40
1
 40
1
 40
1
 40
1
 10
61.519404
 20
180.181251
 30
0.0
 10
56.615793
 20
161.766251
 30
0.0
 10
34.002737
 20
155.663196
 30
0.0
 10
20.526626
 20
169.068751
 30
0.0
  0
SPLINE
  5
109
100
AcDbEntity
  8
Layer_1
 62
7
100
AcDbSpline
 70
8
 71
3
 72
8
 73
4
 74
0
 40
0
 40
0
 40
0
 40
0
 40
1
 40
1
 40
1
 40
1
 10
20.526626
 20
169.068751
 30
0.0
 10
18.127737
 20
171.432362
 30
0.0
 10
17.351626
 20
172.525974
 30
0.0
 10
16.046348
 20
175.277640
 30
0.0
  0
SPLINE
  5
10a
100
AcDbEntity
  8
Layer_1
 62
7
100
AcDbSpline
 70
8
 71
3
 72
8
 73
4
 74
0
 40
0
 40
0
 40
0
 40
0
 40
1
 40
1
 40
1
 40
1
 10
16.046348
 20
175.277640
 30
0.0
 10
13.471071
 20
180.569307
 30
0.0
 10
12.800793
 20
185.402362
 30
0.0
 10
13.823848
 20
190.835140
 30
0.0
  0
SPLINE
  5
10b
100
AcDbEntity
  8
Layer_1
 62
7
100
AcDbSpline
 70
8
 71
3
 72
8
 73
4
 74
0
 40
0
 40
0
 40
0
 40
0
 40
1
 40
1
 40
1
 40
1
 10
13.823848
 20
190.835140
 30
0.0
 10
14.811626
 20
195.950418
 30
0.0
 10
16.857737
 20
199.654585
 30
0.0
 10
20.879404
 20
203.640974
 30
0.0
  0
SPLINE
  5
10c
100
AcDbEntity
  8
Layer_1
 62
7
100
AcDbSpline
 70
8
 71
3
 72
8
 73
4
 74
0
 40
0
 40
0
 40
0
 40
0
 40
1
 40
1
 40
1
 40
1
 10
20.879404
 20
203.640974
 30
0.0
 10
26.841348
 20
209.532362
 30
0.0
 10
34.496626
 20
211.790140
 30
0.0
 10
42.963293
 20
210.132085
 30
0.0
  0
LWPOLYLINE
  5
10d
100
AcDbEntity
  8
Layer_1
 62
7
100
AcDbPolyline
 90
2
 70
0
 10
171.691904
 20
215.988196
 30
0.0
 10
171.691904
 20
215.988196
 30
0.0
  0
SPLINE
  5
10e
100
AcDbEntity
  8
Layer_1
 62
7
100
AcDbSpline
 70
8
 71
3
 72
8
 73
4
 74
0
 40
0
 40
0
 40
0
 40
0
 40
1
 40
1
 40
1
 40
1
 10
-21.700874
 20
171.820418
 30
0.0
 10
-21.453929
 20
170.691529
 30
0.0
 10
-21.806707
 20
169.950696
 30
0.0
 10
-22.618096
 20
169.950696
 30
0.0
  0
SPLINE
  5
10f
100
AcDbEntity
  8
Layer_1
 62
7
100
AcDbSpline
 70
8
 71
3
 72
8
 73
4
 74
0
 40
0
 40
0
 40
0
 40
0
 40
1
 40
1
 40
1
 40
1
 10
-22.618096
 20
169.950696
 30
0.0
 10
-23.641152
 20
169.950696
 30
0.0
 10
-23.782263
 20
170.409307
 30
0.0
 10
-23.288374
 20
172.243751
 30
0.0
  0
SPLINE
  5
110
100
AcDbEntity
  8
Layer_1
 62
7
100
AcDbSpline
 70
8
 71
3
 72
8
 73
4
 74
0
 40
0
 40
0
 40
0
 40
0
 40
1
 40
1
 40
1
 40
1
 10
-23.288374
 20
172.243751
 30
0.0
 10
-22.900318
 20
173.725418
 30
0.0
 10
-22.794485
 20
173.795974
 30
0.0
 10
-22.371152
 20
173.231529
 30
0.0
  0
SPLINE
  5
111
100
AcDbEntity
  8
Layer_1
 62
7
100
AcDbSpline
 70
8
 71
3
 72
8
 73
4
 74
0
 40
0
 40
0
 40
0
 40
0
 40
1
 40
1
 40
1
 40
1
 10
-22.371152
 20
173.231529
 30
0.0
 10
-22.124207
 20
172.878751
 30
0.0
 10
-21.841985
 20
172.243751
 30
0.0
 10
-21.700874
 20
171.820418
 30
0.0
  0
LWPOLYLINE
  5
112
100
AcDbEntity
  8
Layer_1
 62
7
100
AcDbPolyline
 90
2
 70
0
 10
42.963293
 20
210.132085
 30
0.0
 10
42.963293
 20
210.132085
 30
0.0
  0
SPLINE
  5
113
100
AcDbEntity
  8
Layer_1
 62
7
100
AcDbSpline
 70
8
 71
3
 72
8
 73
4
 74
0
 40
0
 40
0
 40
0
 40
0
 40
1
 40
1
 40
1
 40
1
 10
-26.040040
 20
172.737640
 30
0.0
 10
-25.334485
 20
172.420140
 30
0.0
 10
-24.064485
 20
170.585696
 30
0.0
 10
-24.064485
 20
169.880140
 30
0.0
  0
SPLINE
  5
114
100
AcDbEntity
  8
Layer_1
 62
7
100
AcDbSpline
 70
8
 71
3
 72
8
 73
4
 74
0
 40
0
 40
0
 40
0
 40
0
 40
1
 40
1
 40
1
 40
1
 10
-24.064485
 20
169.880140
 30
0.0
 10
-24.064485
 20
169.809585
 30
0.0
 10
-25.228652
 20
170.091807
 30
0.0
 10
-26.604485
 20
170.550418
 30
0.0
  0
SPLINE
  5
115
100
AcDbEntity
  8
Layer_1
 62
7
100
AcDbSpline
 70
8
 71
3
 72
8
 73
4
 74
0
 40
0
 40
0
 40
0
 40
0
 40
1
 40
1
 40
1
 40
1
 10
-26.604485
 20
170.550418
 30
0.0
 10
-28.015596
 20
170.973751
 30
0.0
 10
-29.885318
 20
171.538196
 30
0.0
 10
-30.731985
 20
171.749862
 30
0.0
  0
SPLINE
  5
116
100
AcDbEntity
  8
Layer_1
 62
7
100
AcDbSpline
 70
8
 71
3
 72
8
 73
4
 74
0
 40
0
 40
0
 40
0
 40
0
 40
1
 40
1
 40
1
 40
1
 10
-30.731985
 20
171.749862
 30
0.0
 10
-32.460596
 20
172.173196
 30
0.0
 10
-32.319485
 20
172.667085
 30
0.0
 10
-30.343929
 20
173.125696
 30
0.0
  0
SPLINE
  5
117
100
AcDbEntity
  8
Layer_1
 62
7
100
AcDbSpline
 70
8
 71
3
 72
8
 73
4
 74
0
 40
0
 40
0
 40
0
 40
0
 40
1
 40
1
 40
1
 40
1
 10
-30.343929
 20
173.125696
 30
0.0
 10
-28.968096
 20
173.478474
 30
0.0
 10
-27.310040
 20
173.302085
 30
0.0
 10
-26.040040
 20
172.737640
 30
0.0
  0
LWPOLYLINE
  5
118
100
AcDbEntity
  8
Layer_1
 62
7
100
AcDbPolyline
 90
2
 70
0
 10
-21.700874
 20
171.820418
 30
0.0
 10
-21.700874
 20
171.820418
 30
0.0
  0
SPLINE
  5
119
100
AcDbEntity
  8
Layer_1
 62
7
100
AcDbSpline
 70
8
 71
3
 72
8
 73
4
 74
0
 40
0
 40
0
 40
0
 40
0
 40
1
 40
1
 40
1
 40
1
 10
241.683015
 20
172.914029
 30
0.0
 10
242.318015
 20
172.596529
 30
0.0
 10
242.882460
 20
172.279029
 30
0.0
 10
242.988293
 20
172.173196
 30
0.0
  0
SPLINE
  5
11a
100
AcDbEntity
  8
Layer_1
 62
7
100
AcDbSpline
 70
8
 71
3
 72
8
 73
4
 74
0
 40
0
 40
0
 40
0
 40
0
 40
1
 40
1
 40
1
 40
1
 10
242.988293
 20
172.173196
 30
0.0
 10
243.270515
 20
171.926251
 30
0.0
 10
242.141626
 20
171.361807
 30
0.0
 10
241.365515
 20
171.361807
 30
0.0
  0
SPLINE
  5
11b
100
AcDbEntity
  8
Layer_1
 62
7
100
AcDbSpline
 70
8
 71
3
 72
8
 73
4
 74
0
 40
0
 40
0
 40
0
 40
0
 40
1
 40
1
 40
1
 40
1
 10
241.365515
 20
171.361807
 30
0.0
 10
240.977460
 20
171.361807
 30
0.0
 10
239.919126
 20
170.973751
 30
0.0
 10
239.001904
 20
170.550418
 30
0.0
  0
LWPOLYLINE
  5
11c
100
AcDbEntity
  8
Layer_1
 62
7
100
AcDbPolyline
 90
2
 70
0
 10
-26.040040
 20
172.737640
 30
0.0
 10
-26.040040
 20
172.737640
 30
0.0
  0
SPLINE
  5
11d
100
AcDbEntity
  8
Layer_1
 62
7
100
AcDbSpline
 70
8
 71
3
 72
8
 73
4
 74
0
 40
0
 40
0
 40
0
 40
0
 40
1
 40
1
 40
1
 40
1
 10
236.991071
 20
170.762085
 30
0.0
 10
236.532460
 20
172.173196
 30
0.0
 10
236.532460
 20
173.019862
 30
0.0
 10
237.096904
 20
173.231529
 30
0.0
  0
SPLINE
  5
11e
100
AcDbEntity
  8
Layer_1
 62
7
100
AcDbSpline
 70
8
 71
3
 72
8
 73
4
 74
0
 40
0
 40
0
 40
0
 40
0
 40
1
 40
1
 40
1
 40
1
 10
237.096904
 20
173.231529
 30
0.0
 10
238.049404
 20
173.619585
 30
0.0
 10
240.624682
 20
173.443196
 30
0.0
 10
241.683015
 20
172.914029
 30
0.0
  0
LWPOLYLINE
  5
11f
100
AcDbEntity
  8
Layer_1
 62
7
100
AcDbPolyline
 90
3
 70
0
 10
239.001904
 20
170.550418
 30
0.0
 10
237.379126
 20
169.703751
 30
0.0
 10
236.991071
 20
170.762085
 30
0.0
  0
SPLINE
  5
120
100
AcDbEntity
  8
Layer_1
 62
7
100
AcDbSpline
 70
8
 71
3
 72
8
 73
4
 74
0
 40
0
 40
0
 40
0
 40
0
 40
1
 40
1
 40
1
 40
1
 10
235.862182
 20
171.467640
 30
0.0
 10
236.109126
 20
170.726807
 30
0.0
 10
236.391348
 20
169.880140
 30
0.0
 10
236.497182
 20
169.562640
 30
0.0
  0
SPLINE
  5
121
100
AcDbEntity
  8
Layer_1
 62
7
100
AcDbSpline
 70
8
 71
3
 72
8
 73
4
 74
0
 40
0
 40
0
 40
0
 40
0
 40
1
 40
1
 40
1
 40
1
 10
236.497182
 20
169.562640
 30
0.0
 10
236.708848
 20
168.998196
 30
0.0
 10
235.756348
 20
168.469029
 30
0.0
 10
233.745515
 20
167.975140
 30
0.0
  0
SPLINE
  5
122
100
AcDbEntity
  8
Layer_1
 62
7
100
AcDbSpline
 70
8
 71
3
 72
8
 73
4
 74
0
 40
0
 40
0
 40
0
 40
0
 40
1
 40
1
 40
1
 40
1
 10
233.745515
 20
167.975140
 30
0.0
 10
232.898848
 20
167.798751
 30
0.0
 10
232.757737
 20
167.869307
 30
0.0
 10
232.757737
 20
168.504307
 30
0.0
  0
SPLINE
  5
123
100
AcDbEntity
  8
Layer_1
 62
7
100
AcDbSpline
 70
8
 71
3
 72
8
 73
4
 74
0
 40
0
 40
0
 40
0
 40
0
 40
1
 40
1
 40
1
 40
1
 10
232.757737
 20
168.504307
 30
0.0
 10
232.757737
 20
169.985974
 30
0.0
 10
234.345237
 20
172.772918
 30
0.0
 10
235.156626
 20
172.772918
 30
0.0
  0
SPLINE
  5
124
100
AcDbEntity
  8
Layer_1
 62
7
100
AcDbSpline
 70
8
 71
3
 72
8
 73
4
 74
0
 40
0
 40
0
 40
0
 40
0
 40
1
 40
1
 40
1
 40
1
 10
235.156626
 20
172.772918
 30
0.0
 10
235.297737
 20
172.772918
 30
0.0
 10
235.615237
 20
172.173196
 30
0.0
 10
235.862182
 20
171.467640
 30
0.0
  0
LWPOLYLINE
  5
125
100
AcDbEntity
  8
Layer_1
 62
7
100
AcDbPolyline
 90
2
 70
0
 10
241.683015
 20
172.914029
 30
0.0
 10
241.683015
 20
172.914029
 30
0.0
  0
SPLINE
  5
126
100
AcDbEntity
  8
Layer_1
 62
7
100
AcDbSpline
 70
8
 71
3
 72
8
 73
4
 74
0
 40
0
 40
0
 40
0
 40
0
 40
1
 40
1
 40
1
 40
1
 10
-19.972263
 20
171.890974
 30
0.0
 10
-19.619485
 20
171.044307
 30
0.0
 10
-20.183929
 20
170.550418
 30
0.0
 10
-20.748374
 20
171.255974
 30
0.0
  0
SPLINE
  5
127
100
AcDbEntity
  8
Layer_1
 62
7
100
AcDbSpline
 70
8
 71
3
 72
8
 73
4
 74
0
 40
0
 40
0
 40
0
 40
0
 40
1
 40
1
 40
1
 40
1
 10
-20.748374
 20
171.255974
 30
0.0
 10
-20.995318
 20
171.608751
 30
0.0
 10
-21.242263
 20
171.996807
 30
0.0
 10
-21.242263
 20
172.173196
 30
0.0
  0
SPLINE
  5
128
100
AcDbEntity
  8
Layer_1
 62
7
100
AcDbSpline
 70
8
 71
3
 72
8
 73
4
 74
0
 40
0
 40
0
 40
0
 40
0
 40
1
 40
1
 40
1
 40
1
 10
-21.242263
 20
172.173196
 30
0.0
 10
-21.242263
 20
172.631807
 30
0.0
 10
-20.148652
 20
172.420140
 30
0.0
 10
-19.972263
 20
171.890974
 30
0.0
  0
LWPOLYLINE
  5
129
100
AcDbEntity
  8
Layer_1
 62
7
100
AcDbPolyline
 90
2
 70
0
 10
235.862182
 20
171.467640
 30
0.0
 10
235.862182
 20
171.467640
 30
0.0
  0
SPLINE
  5
12a
100
AcDbEntity
  8
Layer_1
 62
7
100
AcDbSpline
 70
8
 71
3
 72
8
 73
4
 74
0
 40
0
 40
0
 40
0
 40
0
 40
1
 40
1
 40
1
 40
1
 10
-28.474207
 20
170.444585
 30
0.0
 10
-26.004763
 20
169.844862
 30
0.0
 10
-25.651985
 20
169.562640
 30
0.0
 10
-26.145874
 20
168.645418
 30
0.0
  0
SPLINE
  5
12b
100
AcDbEntity
  8
Layer_1
 62
7
100
AcDbSpline
 70
8
 71
3
 72
8
 73
4
 74
0
 40
0
 40
0
 40
0
 40
0
 40
1
 40
1
 40
1
 40
1
 10
-26.145874
 20
168.645418
 30
0.0
 10
-26.745596
 20
167.516529
 30
0.0
 10
-30.238096
 20
165.258751
 30
0.0
 10
-31.014207
 20
165.505696
 30
0.0
  0
SPLINE
  5
12c
100
AcDbEntity
  8
Layer_1
 62
7
100
AcDbSpline
 70
8
 71
3
 72
8
 73
4
 74
0
 40
0
 40
0
 40
0
 40
0
 40
1
 40
1
 40
1
 40
1
 10
-31.014207
 20
165.505696
 30
0.0
 10
-31.790318
 20
165.752640
 30
0.0
 10
-35.388652
 20
170.832640
 30
0.0
 10
-35.071152
 20
171.185418
 30
0.0
  0
SPLINE
  5
12d
100
AcDbEntity
  8
Layer_1
 62
7
100
AcDbSpline
 70
8
 71
3
 72
8
 73
4
 74
0
 40
0
 40
0
 40
0
 40
0
 40
1
 40
1
 40
1
 40
1
 10
-35.071152
 20
171.185418
 30
0.0
 10
-34.753652
 20
171.502918
 30
0.0
 10
-31.049485
 20
171.079585
 30
0.0
 10
-28.474207
 20
170.444585
 30
0.0
  0
LWPOLYLINE
  5
12e
100
AcDbEntity
  8
Layer_1
 62
7
100
AcDbPolyline
 90
2
 70
0
 10
-19.972263
 20
171.890974
 30
0.0
 10
-19.972263
 20
171.890974
 30
0.0
  0
SPLINE
  5
12f
100
AcDbEntity
  8
Layer_1
 62
7
100
AcDbSpline
 70
8
 71
3
 72
8
 73
4
 74
0
 40
0
 40
0
 40
0
 40
0
 40
1
 40
1
 40
1
 40
1
 10
246.445515
 20
168.433751
 30
0.0
 10
247.468571
 20
167.798751
 30
0.0
 10
248.562182
 20
167.022640
 30
0.0
 10
248.879682
 20
166.705140
 30
0.0
  0
SPLINE
  5
130
100
AcDbEntity
  8
Layer_1
 62
7
100
AcDbSpline
 70
8
 71
3
 72
8
 73
4
 74
0
 40
0
 40
0
 40
0
 40
0
 40
1
 40
1
 40
1
 40
1
 10
248.879682
 20
166.705140
 30
0.0
 10
249.373571
 20
166.140696
 30
0.0
 10
249.373571
 20
166.070140
 30
0.0
 10
248.526904
 20
165.752640
 30
0.0
  0
SPLINE
  5
131
100
AcDbEntity
  8
Layer_1
 62
7
100
AcDbSpline
 70
8
 71
3
 72
8
 73
4
 74
0
 40
0
 40
0
 40
0
 40
0
 40
1
 40
1
 40
1
 40
1
 10
248.526904
 20
165.752640
 30
0.0
 10
248.033015
 20
165.576251
 30
0.0
 10
246.586626
 20
164.412085
 30
0.0
 10
245.281348
 20
163.177362
 30
0.0
  0
LWPOLYLINE
  5
132
100
AcDbEntity
  8
Layer_1
 62
7
100
AcDbPolyline
 90
2
 70
0
 10
-28.474207
 20
170.444585
 30
0.0
 10
-28.474207
 20
170.444585
 30
0.0
  0
SPLINE
  5
133
100
AcDbEntity
  8
Layer_1
 62
7
100
AcDbSpline
 70
8
 71
3
 72
8
 73
4
 74
0
 40
0
 40
0
 40
0
 40
0
 40
1
 40
1
 40
1
 40
1
 10
242.247460
 20
161.801529
 30
0.0
 10
240.730515
 20
163.671251
 30
0.0
 10
240.024960
 20
168.363196
 30
0.0
 10
241.118571
 20
169.421529
 30
0.0
  0
SPLINE
  5
134
100
AcDbEntity
  8
Layer_1
 62
7
100
AcDbSpline
 70
8
 71
3
 72
8
 73
4
 74
0
 40
0
 40
0
 40
0
 40
0
 40
1
 40
1
 40
1
 40
1
 10
241.118571
 20
169.421529
 30
0.0
 10
241.929960
 20
170.268196
 30
0.0
 10
244.081904
 20
169.844862
 30
0.0
 10
246.445515
 20
168.433751
 30
0.0
  0
LWPOLYLINE
  5
135
100
AcDbEntity
  8
Layer_1
 62
7
100
AcDbPolyline
 90
3
 70
0
 10
245.281348
 20
163.177362
 30
0.0
 10
242.917737
 20
160.990140
 30
0.0
 10
242.247460
 20
161.801529
 30
0.0
  0
SPLINE
  5
136
100
AcDbEntity
  8
Layer_1
 62
7
100
AcDbSpline
 70
8
 71
3
 72
8
 73
4
 74
0
 40
0
 40
0
 40
0
 40
0
 40
1
 40
1
 40
1
 40
1
 10
-34.012818
 20
167.939862
 30
0.0
 10
-32.883929
 20
167.093196
 30
0.0
 10
-31.825596
 20
165.470418
 30
0.0
 10
-31.825596
 20
164.588474
 30
0.0
  0
SPLINE
  5
137
100
AcDbEntity
  8
Layer_1
 62
7
100
AcDbSpline
 70
8
 71
3
 72
8
 73
4
 74
0
 40
0
 40
0
 40
0
 40
0
 40
1
 40
1
 40
1
 40
1
 10
-31.825596
 20
164.588474
 30
0.0
 10
-31.825596
 20
164.235696
 30
0.0
 10
-32.213652
 20
164.165140
 30
0.0
 10
-33.201429
 20
164.235696
 30
0.0
  0
SPLINE
  5
138
100
AcDbEntity
  8
Layer_1
 62
7
100
AcDbSpline
 70
8
 71
3
 72
8
 73
4
 74
0
 40
0
 40
0
 40
0
 40
0
 40
1
 40
1
 40
1
 40
1
 10
-33.201429
 20
164.235696
 30
0.0
 10
-34.012818
 20
164.306251
 30
0.0
 10
-35.917818
 20
163.988751
 30
0.0
 10
-37.787540
 20
163.459585
 30
0.0
  0
SPLINE
  5
139
100
AcDbEntity
  8
Layer_1
 62
7
100
AcDbSpline
 70
8
 71
3
 72
8
 73
4
 74
0
 40
0
 40
0
 40
0
 40
0
 40
1
 40
1
 40
1
 40
1
 10
-37.787540
 20
163.459585
 30
0.0
 10
-39.516152
 20
162.965696
 30
0.0
 10
-41.280040
 20
162.542362
 30
0.0
 10
-41.703374
 20
162.542362
 30
0.0
  0
LWPOLYLINE
  5
13a
100
AcDbEntity
  8
Layer_1
 62
7
100
AcDbPolyline
 90
2
 70
0
 10
246.445515
 20
168.433751
 30
0.0
 10
246.445515
 20
168.433751
 30
0.0
  0
SPLINE
  5
13b
100
AcDbEntity
  8
Layer_1
 62
7
100
AcDbSpline
 70
8
 71
3
 72
8
 73
4
 74
0
 40
0
 40
0
 40
0
 40
0
 40
1
 40
1
 40
1
 40
1
 10
-41.738652
 20
163.882918
 30
0.0
 10
-40.786152
 20
165.787918
 30
0.0
 10
-37.963929
 20
168.821807
 30
0.0
 10
-37.011429
 20
168.962918
 30
0.0
  0
SPLINE
  5
13c
100
AcDbEntity
  8
Layer_1
 62
7
100
AcDbSpline
 70
8
 71
3
 72
8
 73
4
 74
0
 40
0
 40
0
 40
0
 40
0
 40
1
 40
1
 40
1
 40
1
 10
-37.011429
 20
168.962918
 30
0.0
 10
-35.953096
 20
169.139307
 30
0.0
 10
-35.388652
 20
168.927640
 30
0.0
 10
-34.012818
 20
167.939862
 30
0.0
  0
LWPOLYLINE
  5
13d
100
AcDbEntity
  8
Layer_1
 62
7
100
AcDbPolyline
 90
3
 70
0
 10
-41.703374
 20
162.542362
 30
0.0
 10
-42.408929
 20
162.542362
 30
0.0
 10
-41.738652
 20
163.882918
 30
0.0
  0
SPLINE
  5
13e
100
AcDbEntity
  8
Layer_1
 62
7
100
AcDbSpline
 70
8
 71
3
 72
8
 73
4
 74
0
 40
0
 40
0
 40
0
 40
0
 40
1
 40
1
 40
1
 40
1
 10
231.911071
 20
167.304862
 30
0.0
 10
231.981626
 20
166.740418
 30
0.0
 10
231.769960
 20
166.281807
 30
0.0
 10
231.311348
 20
166.070140
 30
0.0
  0
SPLINE
  5
13f
100
AcDbEntity
  8
Layer_1
 62
7
100
AcDbSpline
 70
8
 71
3
 72
8
 73
4
 74
0
 40
0
 40
0
 40
0
 40
0
 40
1
 40
1
 40
1
 40
1
 10
231.311348
 20
166.070140
 30
0.0
 10
230.535237
 20
165.611529
 30
0.0
 10
230.429404
 20
166.140696
 30
0.0
 10
230.993848
 20
167.692918
 30
0.0
  0
SPLINE
  5
140
100
AcDbEntity
  8
Layer_1
 62
7
100
AcDbSpline
 70
8
 71
3
 72
8
 73
4
 74
0
 40
0
 40
0
 40
0
 40
0
 40
1
 40
1
 40
1
 40
1
 10
230.993848
 20
167.692918
 30
0.0
 10
231.417182
 20
168.751251
 30
0.0
 10
231.769960
 20
168.610140
 30
0.0
 10
231.911071
 20
167.304862
 30
0.0
  0
LWPOLYLINE
  5
141
100
AcDbEntity
  8
Layer_1
 62
7
100
AcDbPolyline
 90
2
 70
0
 10
-34.012818
 20
167.939862
 30
0.0
 10
-34.012818
 20
167.939862
 30
0.0
  0
SPLINE
  5
142
100
AcDbEntity
  8
Layer_1
 62
7
100
AcDbSpline
 70
8
 71
3
 72
8
 73
4
 74
0
 40
0
 40
0
 40
0
 40
0
 40
1
 40
1
 40
1
 40
1
 10
-32.989763
 20
163.036251
 30
0.0
 10
-32.566429
 20
161.907362
 30
0.0
 10
-34.894763
 20
156.121807
 30
0.0
 10
-36.023652
 20
155.522085
 30
0.0
  0
SPLINE
  5
143
100
AcDbEntity
  8
Layer_1
 62
7
100
AcDbSpline
 70
8
 71
3
 72
8
 73
4
 74
0
 40
0
 40
0
 40
0
 40
0
 40
1
 40
1
 40
1
 40
1
 10
-36.023652
 20
155.522085
 30
0.0
 10
-36.482263
 20
155.275140
 30
0.0
 10
-37.223096
 20
155.557362
 30
0.0
 10
-39.022263
 20
156.756807
 30
0.0
  0
SPLINE
  5
144
100
AcDbEntity
  8
Layer_1
 62
7
100
AcDbSpline
 70
8
 71
3
 72
8
 73
4
 74
0
 40
0
 40
0
 40
0
 40
0
 40
1
 40
1
 40
1
 40
1
 10
-39.022263
 20
156.756807
 30
0.0
 10
-40.362818
 20
157.603474
 30
0.0
 10
-41.985596
 20
158.379585
 30
0.0
 10
-42.620596
 20
158.520696
 30
0.0
  0
SPLINE
  5
145
100
AcDbEntity
  8
Layer_1
 62
7
100
AcDbSpline
 70
8
 71
3
 72
8
 73
4
 74
0
 40
0
 40
0
 40
0
 40
0
 40
1
 40
1
 40
1
 40
1
 10
-42.620596
 20
158.520696
 30
0.0
 10
-44.102263
 20
158.802918
 30
0.0
 10
-44.137540
 20
159.120418
 30
0.0
 10
-42.655874
 20
160.178751
 30
0.0
  0
SPLINE
  5
146
100
AcDbEntity
  8
Layer_1
 62
7
100
AcDbSpline
 70
8
 71
3
 72
8
 73
4
 74
0
 40
0
 40
0
 40
0
 40
0
 40
1
 40
1
 40
1
 40
1
 10
-42.655874
 20
160.178751
 30
0.0
 10
-41.138929
 20
161.342918
 30
0.0
 10
-40.186429
 20
161.801529
 30
0.0
 10
-37.470040
 20
162.789307
 30
0.0
  0
SPLINE
  5
147
100
AcDbEntity
  8
Layer_1
 62
7
100
AcDbSpline
 70
8
 71
3
 72
8
 73
4
 74
0
 40
0
 40
0
 40
0
 40
0
 40
1
 40
1
 40
1
 40
1
 10
-37.470040
 20
162.789307
 30
0.0
 10
-34.753652
 20
163.741807
 30
0.0
 10
-33.307263
 20
163.812362
 30
0.0
 10
-32.989763
 20
163.036251
 30
0.0
  0
LWPOLYLINE
  5
148
100
AcDbEntity
  8
Layer_1
 62
7
100
AcDbPolyline
 90
2
 70
0
 10
231.911071
 20
167.304862
 30
0.0
 10
231.911071
 20
167.304862
 30
0.0
  0
SPLINE
  5
149
100
AcDbEntity
  8
Layer_1
 62
7
100
AcDbSpline
 70
8
 71
3
 72
8
 73
4
 74
0
 40
0
 40
0
 40
0
 40
0
 40
1
 40
1
 40
1
 40
1
 10
252.760237
 20
160.884307
 30
0.0
 10
253.783293
 20
158.379585
 30
0.0
 10
252.795515
 20
150.900696
 30
0.0
 10
251.384404
 20
150.618474
 30
0.0
  0
SPLINE
  5
14a
100
AcDbEntity
  8
Layer_1
 62
7
100
AcDbSpline
 70
8
 71
3
 72
8
 73
4
 74
0
 40
0
 40
0
 40
0
 40
0
 40
1
 40
1
 40
1
 40
1
 10
251.384404
 20
150.618474
 30
0.0
 10
251.066904
 20
150.547918
 30
0.0
 10
249.479404
 20
151.782640
 30
0.0
 10
247.856626
 20
153.334862
 30
0.0
  0
SPLINE
  5
14b
100
AcDbEntity
  8
Layer_1
 62
7
100
AcDbSpline
 70
8
 71
3
 72
8
 73
4
 74
0
 40
0
 40
0
 40
0
 40
0
 40
1
 40
1
 40
1
 40
1
 10
247.856626
 20
153.334862
 30
0.0
 10
246.198571
 20
154.887085
 30
0.0
 10
244.187737
 20
156.545140
 30
0.0
 10
243.376348
 20
157.003751
 30
0.0
  0
LWPOLYLINE
  5
14c
100
AcDbEntity
  8
Layer_1
 62
7
100
AcDbPolyline
 90
2
 70
0
 10
-32.989763
 20
163.036251
 30
0.0
 10
-32.989763
 20
163.036251
 30
0.0
  0
SPLINE
  5
14d
100
AcDbEntity
  8
Layer_1
 62
7
100
AcDbSpline
 70
8
 71
3
 72
8
 73
4
 74
0
 40
0
 40
0
 40
0
 40
0
 40
1
 40
1
 40
1
 40
1
 10
243.270515
 20
158.732362
 30
0.0
 10
245.175515
 20
160.002362
 30
0.0
 10
248.279960
 20
161.554585
 30
0.0
 10
249.514682
 20
161.872085
 30
0.0
  0
SPLINE
  5
14e
100
AcDbEntity
  8
Layer_1
 62
7
100
AcDbSpline
 70
8
 71
3
 72
8
 73
4
 74
0
 40
0
 40
0
 40
0
 40
0
 40
1
 40
1
 40
1
 40
1
 10
249.514682
 20
161.872085
 30
0.0
 10
251.737182
 20
162.401251
 30
0.0
 10
252.160515
 20
162.260140
 30
0.0
 10
252.760237
 20
160.884307
 30
0.0
  0
LWPOLYLINE
  5
14f
100
AcDbEntity
  8
Layer_1
 62
7
100
AcDbPolyline
 90
3
 70
0
 10
243.376348
 20
157.003751
 30
0.0
 10
241.894682
 20
157.850418
 30
0.0
 10
243.270515
 20
158.732362
 30
0.0
  0
SPLINE
  5
150
100
AcDbEntity
  8
Layer_1
 62
7
100
AcDbSpline
 70
8
 71
3
 72
8
 73
4
 74
0
 40
0
 40
0
 40
0
 40
0
 40
1
 40
1
 40
1
 40
1
 10
-40.715596
 20
156.650974
 30
0.0
 10
-40.045318
 20
156.333474
 30
0.0
 10
-38.951707
 20
155.522085
 30
0.0
 10
-38.246152
 20
154.816529
 30
0.0
  0
SPLINE
  5
151
100
AcDbEntity
  8
Layer_1
 62
7
100
AcDbSpline
 70
8
 71
3
 72
8
 73
4
 74
0
 40
0
 40
0
 40
0
 40
0
 40
1
 40
1
 40
1
 40
1
 10
-38.246152
 20
154.816529
 30
0.0
 10
-37.081985
 20
153.722918
 30
0.0
 10
-37.011429
 20
153.581807
 30
0.0
 10
-37.646429
 20
153.440696
 30
0.0
  0
SPLINE
  5
152
100
AcDbEntity
  8
Layer_1
 62
7
100
AcDbSpline
 70
8
 71
3
 72
8
 73
4
 74
0
 40
0
 40
0
 40
0
 40
0
 40
1
 40
1
 40
1
 40
1
 10
-37.646429
 20
153.440696
 30
0.0
 10
-38.740040
 20
153.229029
 30
0.0
 10
-40.115874
 20
151.747362
 30
0.0
 10
-42.303096
 20
148.395974
 30
0.0
  0
SPLINE
  5
153
100
AcDbEntity
  8
Layer_1
 62
7
100
AcDbSpline
 70
8
 71
3
 72
8
 73
4
 74
0
 40
0
 40
0
 40
0
 40
0
 40
1
 40
1
 40
1
 40
1
 10
-42.303096
 20
148.395974
 30
0.0
 10
-43.431985
 20
146.667362
 30
0.0
 10
-44.560874
 20
145.185696
 30
0.0
 10
-44.772540
 20
145.115140
 30
0.0
  0
SPLINE
  5
154
100
AcDbEntity
  8
Layer_1
 62
7
100
AcDbSpline
 70
8
 71
3
 72
8
 73
4
 74
0
 40
0
 40
0
 40
0
 40
0
 40
1
 40
1
 40
1
 40
1
 10
-44.772540
 20
145.115140
 30
0.0
 10
-46.536429
 20
144.409585
 30
0.0
 10
-45.901429
 20
156.157085
 30
0.0
 10
-44.102263
 20
157.321251
 30
0.0
  0
SPLINE
  5
155
100
AcDbEntity
  8
Layer_1
 62
7
100
AcDbSpline
 70
8
 71
3
 72
8
 73
4
 74
0
 40
0
 40
0
 40
0
 40
0
 40
1
 40
1
 40
1
 40
1
 10
-44.102263
 20
157.321251
 30
0.0
 10
-43.573096
 20
157.674029
 30
0.0
 10
-42.373652
 20
157.427085
 30
0.0
 10
-40.715596
 20
156.650974
 30
0.0
  0
LWPOLYLINE
  5
156
100
AcDbEntity
  8
Layer_1
 62
7
100
AcDbPolyline
 90
2
 70
0
 10
252.760237
 20
160.884307
 30
0.0
 10
252.760237
 20
160.884307
 30
0.0
  0
SPLINE
  5
157
100
AcDbEntity
  8
Layer_1
 62
7
100
AcDbSpline
 70
8
 71
3
 72
8
 73
4
 74
0
 40
0
 40
0
 40
0
 40
0
 40
1
 40
1
 40
1
 40
1
 10
244.505237
 20
153.052640
 30
0.0
 10
246.621904
 20
151.676807
 30
0.0
 10
250.819960
 20
144.691807
 30
0.0
 10
252.548571
 20
139.647085
 30
0.0
  0
SPLINE
  5
158
100
AcDbEntity
  8
Layer_1
 62
7
100
AcDbSpline
 70
8
 71
3
 72
8
 73
4
 74
0
 40
0
 40
0
 40
0
 40
0
 40
1
 40
1
 40
1
 40
1
 10
252.548571
 20
139.647085
 30
0.0
 10
253.430515
 20
137.107085
 30
0.0
 10
253.395237
 20
136.930696
 30
0.0
 10
252.195793
 20
137.918474
 30
0.0
  0
SPLINE
  5
159
100
AcDbEntity
  8
Layer_1
 62
7
100
AcDbSpline
 70
8
 71
3
 72
8
 73
4
 74
0
 40
0
 40
0
 40
0
 40
0
 40
1
 40
1
 40
1
 40
1
 10
252.195793
 20
137.918474
 30
0.0
 10
251.313848
 20
138.694585
 30
0.0
 10
250.184960
 20
139.082640
 30
0.0
 10
244.046626
 20
140.811251
 30
0.0
  0
SPLINE
  5
15a
100
AcDbEntity
  8
Layer_1
 62
7
100
AcDbSpline
 70
8
 71
3
 72
8
 73
4
 74
0
 40
0
 40
0
 40
0
 40
0
 40
1
 40
1
 40
1
 40
1
 10
244.046626
 20
140.811251
 30
0.0
 10
241.048015
 20
141.657918
 30
0.0
 10
239.989682
 20
142.469307
 30
0.0
 10
239.495793
 20
144.303751
 30
0.0
  0
SPLINE
  5
15b
100
AcDbEntity
  8
Layer_1
 62
7
100
AcDbSpline
 70
8
 71
3
 72
8
 73
4
 74
0
 40
0
 40
0
 40
0
 40
0
 40
1
 40
1
 40
1
 40
1
 10
239.495793
 20
144.303751
 30
0.0
 10
239.107737
 20
145.644307
 30
0.0
 10
239.107737
 20
146.173474
 30
0.0
 10
239.636904
 20
147.937362
 30
0.0
  0
SPLINE
  5
15c
100
AcDbEntity
  8
Layer_1
 62
7
100
AcDbSpline
 70
8
 71
3
 72
8
 73
4
 74
0
 40
0
 40
0
 40
0
 40
0
 40
1
 40
1
 40
1
 40
1
 10
239.636904
 20
147.937362
 30
0.0
 10
239.954404
 20
149.066251
 30
0.0
 10
240.589404
 20
150.724307
 30
0.0
 10
241.083293
 20
151.641529
 30
0.0
  0
SPLINE
  5
15d
100
AcDbEntity
  8
Layer_1
 62
7
100
AcDbSpline
 70
8
 71
3
 72
8
 73
4
 74
0
 40
0
 40
0
 40
0
 40
0
 40
1
 40
1
 40
1
 40
1
 10
241.083293
 20
151.641529
 30
0.0
 10
242.176904
 20
153.864029
 30
0.0
 10
242.882460
 20
154.146251
 30
0.0
 10
244.505237
 20
153.052640
 30
0.0
  0
LWPOLYLINE
  5
15e
100
AcDbEntity
  8
Layer_1
 62
7
100
AcDbPolyline
 90
2
 70
0
 10
-40.715596
 20
156.650974
 30
0.0
 10
-40.715596
 20
156.650974
 30
0.0
  0
SPLINE
  5
15f
100
AcDbEntity
  8
Layer_1
 62
7
100
AcDbSpline
 70
8
 71
3
 72
8
 73
4
 74
0
 40
0
 40
0
 40
0
 40
0
 40
1
 40
1
 40
1
 40
1
 10
-36.341152
 20
149.136807
 30
0.0
 10
-35.847263
 20
147.690418
 30
0.0
 10
-35.212263
 20
145.467918
 30
0.0
 10
-35.000596
 20
144.268474
 30
0.0
  0
SPLINE
  5
160
100
AcDbEntity
  8
Layer_1
 62
7
100
AcDbSpline
 70
8
 71
3
 72
8
 73
4
 74
0
 40
0
 40
0
 40
0
 40
0
 40
1
 40
1
 40
1
 40
1
 10
-35.000596
 20
144.268474
 30
0.0
 10
-34.577263
 20
142.187085
 30
0.0
 10
-34.612540
 20
141.975418
 30
0.0
 10
-35.212263
 20
141.375696
 30
0.0
  0
SPLINE
  5
161
100
AcDbEntity
  8
Layer_1
 62
7
100
AcDbSpline
 70
8
 71
3
 72
8
 73
4
 74
0
 40
0
 40
0
 40
0
 40
0
 40
1
 40
1
 40
1
 40
1
 10
-35.212263
 20
141.375696
 30
0.0
 10
-36.200040
 20
140.423196
 30
0.0
 10
-42.867540
 20
137.777362
 30
0.0
 10
-43.149763
 20
138.271251
 30
0.0
  0
SPLINE
  5
162
100
AcDbEntity
  8
Layer_1
 62
7
100
AcDbSpline
 70
8
 71
3
 72
8
 73
4
 74
0
 40
0
 40
0
 40
0
 40
0
 40
1
 40
1
 40
1
 40
1
 10
-43.149763
 20
138.271251
 30
0.0
 10
-43.784763
 20
139.259029
 30
0.0
 10
-41.103652
 20
148.043196
 30
0.0
 10
-39.375040
 20
150.653751
 30
0.0
  0
SPLINE
  5
163
100
AcDbEntity
  8
Layer_1
 62
7
100
AcDbSpline
 70
8
 71
3
 72
8
 73
4
 74
0
 40
0
 40
0
 40
0
 40
0
 40
1
 40
1
 40
1
 40
1
 10
-39.375040
 20
150.653751
 30
0.0
 10
-38.105040
 20
152.594029
 30
0.0
 10
-37.470040
 20
152.276529
 30
0.0
 10
-36.341152
 20
149.136807
 30
0.0
  0
LWPOLYLINE
  5
164
100
AcDbEntity
  8
Layer_1
 62
7
100
AcDbPolyline
 90
2
 70
0
 10
244.505237
 20
153.052640
 30
0.0
 10
244.505237
 20
153.052640
 30
0.0
  0
SPLINE
  5
165
100
AcDbEntity
  8
Layer_1
 62
7
100
AcDbSpline
 70
8
 71
3
 72
8
 73
4
 74
0
 40
0
 40
0
 40
0
 40
0
 40
1
 40
1
 40
1
 40
1
 10
240.765793
 20
138.870974
 30
0.0
 10
244.716904
 20
136.613196
 30
0.0
 10
249.444126
 20
132.344585
 30
0.0
 10
250.114404
 20
130.404307
 30
0.0
  0
SPLINE
  5
166
100
AcDbEntity
  8
Layer_1
 62
7
100
AcDbSpline
 70
8
 71
3
 72
8
 73
4
 74
0
 40
0
 40
0
 40
0
 40
0
 40
1
 40
1
 40
1
 40
1
 10
250.114404
 20
130.404307
 30
0.0
 10
250.855237
 20
128.393474
 30
0.0
 10
244.858015
 20
122.325696
 30
0.0
 10
242.141626
 20
122.325696
 30
0.0
  0
SPLINE
  5
167
100
AcDbEntity
  8
Layer_1
 62
7
100
AcDbSpline
 70
8
 71
3
 72
8
 73
4
 74
0
 40
0
 40
0
 40
0
 40
0
 40
1
 40
1
 40
1
 40
1
 10
242.141626
 20
122.325696
 30
0.0
 10
241.683015
 20
122.325696
 30
0.0
 10
241.577182
 20
122.819585
 30
0.0
 10
241.577182
 20
125.500696
 30
0.0
  0
SPLINE
  5
168
100
AcDbEntity
  8
Layer_1
 62
7
100
AcDbSpline
 70
8
 71
3
 72
8
 73
4
 74
0
 40
0
 40
0
 40
0
 40
0
 40
1
 40
1
 40
1
 40
1
 10
241.577182
 20
125.500696
 30
0.0
 10
241.577182
 20
129.734029
 30
0.0
 10
240.554126
 20
134.531807
 30
0.0
 10
238.578571
 20
139.364862
 30
0.0
  0
SPLINE
  5
169
100
AcDbEntity
  8
Layer_1
 62
7
100
AcDbSpline
 70
8
 71
3
 72
8
 73
4
 74
0
 40
0
 40
0
 40
0
 40
0
 40
1
 40
1
 40
1
 40
1
 10
238.578571
 20
139.364862
 30
0.0
 10
238.225793
 20
140.211529
 30
0.0
 10
238.543293
 20
140.140974
 30
0.0
 10
240.765793
 20
138.870974
 30
0.0
  0
LWPOLYLINE
  5
16a
100
AcDbEntity
  8
Layer_1
 62
7
100
AcDbPolyline
 90
2
 70
0
 10
-36.341152
 20
149.136807
 30
0.0
 10
-36.341152
 20
149.136807
 30
0.0
  0
SPLINE
  5
16b
100
AcDbEntity
  8
Layer_1
 62
7
100
AcDbSpline
 70
8
 71
3
 72
8
 73
4
 74
0
 40
0
 40
0
 40
0
 40
0
 40
1
 40
1
 40
1
 40
1
 10
-34.118652
 20
137.953751
 30
0.0
 10
-34.788929
 20
135.413751
 30
0.0
 10
-34.965318
 20
133.826251
 30
0.0
 10
-35.000596
 20
129.698751
 30
0.0
  0
SPLINE
  5
16c
100
AcDbEntity
  8
Layer_1
 62
7
100
AcDbSpline
 70
8
 71
3
 72
8
 73
4
 74
0
 40
0
 40
0
 40
0
 40
0
 40
1
 40
1
 40
1
 40
1
 10
-35.000596
 20
129.698751
 30
0.0
 10
-35.000596
 20
124.407085
 30
0.0
 10
-35.247540
 20
123.807362
 30
0.0
 10
-37.046707
 20
124.689307
 30
0.0
  0
SPLINE
  5
16d
100
AcDbEntity
  8
Layer_1
 62
7
100
AcDbSpline
 70
8
 71
3
 72
8
 73
4
 74
0
 40
0
 40
0
 40
0
 40
0
 40
1
 40
1
 40
1
 40
1
 10
-37.046707
 20
124.689307
 30
0.0
 10
-39.198652
 20
125.747640
 30
0.0
 10
-42.126707
 20
130.227918
 30
0.0
 10
-42.620596
 20
133.155974
 30
0.0
  0
SPLINE
  5
16e
100
AcDbEntity
  8
Layer_1
 62
7
100
AcDbSpline
 70
8
 71
3
 72
8
 73
4
 74
0
 40
0
 40
0
 40
0
 40
0
 40
1
 40
1
 40
1
 40
1
 10
-42.620596
 20
133.155974
 30
0.0
 10
-42.761707
 20
134.214307
 30
0.0
 10
-42.655874
 20
134.743474
 30
0.0
 10
-41.985596
 20
135.695974
 30
0.0
  0
SPLINE
  5
16f
100
AcDbEntity
  8
Layer_1
 62
7
100
AcDbSpline
 70
8
 71
3
 72
8
 73
4
 74
0
 40
0
 40
0
 40
0
 40
0
 40
1
 40
1
 40
1
 40
1
 10
-41.985596
 20
135.695974
 30
0.0
 10
-40.503929
 20
137.883196
 30
0.0
 10
-38.563652
 20
138.765140
 30
0.0
 10
-35.035874
 20
138.870974
 30
0.0
  0
SPLINE
  5
170
100
AcDbEntity
  8
Layer_1
 62
7
100
AcDbSpline
 70
8
 71
3
 72
8
 73
4
 74
0
 40
0
 40
0
 40
0
 40
0
 40
1
 40
1
 40
1
 40
1
 10
-35.035874
 20
138.870974
 30
0.0
 10
-33.906985
 20
138.906251
 30
0.0
 10
-33.871707
 20
138.870974
 30
0.0
 10
-34.118652
 20
137.953751
 30
0.0
  0
LWPOLYLINE
  5
171
100
AcDbEntity
  8
Layer_1
 62
7
100
AcDbPolyline
 90
2
 70
0
 10
240.765793
 20
138.870974
 30
0.0
 10
240.765793
 20
138.870974
 30
0.0
  0
SPLINE
  5
172
100
AcDbEntity
  8
Layer_1
 62
7
100
AcDbSpline
 70
8
 71
3
 72
8
 73
4
 74
0
 40
0
 40
0
 40
0
 40
0
 40
1
 40
1
 40
1
 40
1
 10
-27.380596
 20
135.554862
 30
0.0
 10
-24.417263
 20
134.108474
 30
0.0
 10
-22.230040
 20
131.956529
 30
0.0
 10
-22.547540
 20
130.792362
 30
0.0
  0
SPLINE
  5
173
100
AcDbEntity
  8
Layer_1
 62
7
100
AcDbSpline
 70
8
 71
3
 72
8
 73
4
 74
0
 40
0
 40
0
 40
0
 40
0
 40
1
 40
1
 40
1
 40
1
 10
-22.547540
 20
130.792362
 30
0.0
 10
-22.653374
 20
130.369029
 30
0.0
 10
-24.628929
 20
128.005418
 30
0.0
 10
-26.886707
 20
125.571251
 30
0.0
  0
SPLINE
  5
174
100
AcDbEntity
  8
Layer_1
 62
7
100
AcDbSpline
 70
8
 71
3
 72
8
 73
4
 74
0
 40
0
 40
0
 40
0
 40
0
 40
1
 40
1
 40
1
 40
1
 10
-26.886707
 20
125.571251
 30
0.0
 10
-29.179763
 20
123.101807
 30
0.0
 10
-31.331707
 20
120.561807
 30
0.0
 10
-31.755040
 20
119.926807
 30
0.0
  0
LWPOLYLINE
  5
175
100
AcDbEntity
  8
Layer_1
 62
7
100
AcDbPolyline
 90
2
 70
0
 10
-34.118652
 20
137.953751
 30
0.0
 10
-34.118652
 20
137.953751
 30
0.0
  0
SPLINE
  5
176
100
AcDbEntity
  8
Layer_1
 62
7
100
AcDbSpline
 70
8
 71
3
 72
8
 73
4
 74
0
 40
0
 40
0
 40
0
 40
0
 40
1
 40
1
 40
1
 40
1
 10
-32.672263
 20
119.750418
 30
0.0
 10
-34.471429
 20
128.358196
 30
0.0
 10
-34.577263
 20
134.778751
 30
0.0
 10
-32.954485
 20
136.542640
 30
0.0
  0
SPLINE
  5
177
100
AcDbEntity
  8
Layer_1
 62
7
100
AcDbSpline
 70
8
 71
3
 72
8
 73
4
 74
0
 40
0
 40
0
 40
0
 40
0
 40
1
 40
1
 40
1
 40
1
 10
-32.954485
 20
136.542640
 30
0.0
 10
-32.143096
 20
137.424585
 30
0.0
 10
-30.590874
 20
137.142362
 30
0.0
 10
-27.380596
 20
135.554862
 30
0.0
  0
LWPOLYLINE
  5
178
100
AcDbEntity
  8
Layer_1
 62
7
100
AcDbPolyline
 90
3
 70
0
 10
-31.755040
 20
119.926807
 30
0.0
 10
-32.460596
 20
118.727362
 30
0.0
 10
-32.672263
 20
119.750418
 30
0.0
  0
SPLINE
  5
179
100
AcDbEntity
  8
Layer_1
 62
7
100
AcDbSpline
 70
8
 71
3
 72
8
 73
4
 74
0
 40
0
 40
0
 40
0
 40
0
 40
1
 40
1
 40
1
 40
1
 10
235.932737
 20
129.734029
 30
0.0
 10
237.061626
 20
129.134307
 30
0.0
 10
237.978848
 20
126.770696
 30
0.0
 10
238.578571
 20
122.749029
 30
0.0
  0
SPLINE
  5
17a
100
AcDbEntity
  8
Layer_1
 62
7
100
AcDbSpline
 70
8
 71
3
 72
8
 73
4
 74
0
 40
0
 40
0
 40
0
 40
0
 40
1
 40
1
 40
1
 40
1
 10
238.578571
 20
122.749029
 30
0.0
 10
239.037182
 20
119.538751
 30
0.0
 10
239.460515
 20
117.951251
 30
0.0
 10
240.342460
 20
115.834585
 30
0.0
  0
SPLINE
  5
17b
100
AcDbEntity
  8
Layer_1
 62
7
100
AcDbSpline
 70
8
 71
3
 72
8
 73
4
 74
0
 40
0
 40
0
 40
0
 40
0
 40
1
 40
1
 40
1
 40
1
 10
240.342460
 20
115.834585
 30
0.0
 10
240.554126
 20
115.375974
 30
0.0
 10
239.319404
 20
115.869862
 30
0.0
 10
235.721071
 20
117.704307
 30
0.0
  0
SPLINE
  5
17c
100
AcDbEntity
  8
Layer_1
 62
7
100
AcDbSpline
 70
8
 71
3
 72
8
 73
4
 74
0
 40
0
 40
0
 40
0
 40
0
 40
1
 40
1
 40
1
 40
1
 10
235.721071
 20
117.704307
 30
0.0
 10
230.076626
 20
120.561807
 30
0.0
 10
227.571904
 20
122.325696
 30
0.0
 10
226.584126
 20
124.195418
 30
0.0
  0
LWPOLYLINE
  5
17d
100
AcDbEntity
  8
Layer_1
 62
7
100
AcDbPolyline
 90
2
 70
0
 10
-27.380596
 20
135.554862
 30
0.0
 10
-27.380596
 20
135.554862
 30
0.0
  0
SPLINE
  5
17e
100
AcDbEntity
  8
Layer_1
 62
7
100
AcDbSpline
 70
8
 71
3
 72
8
 73
4
 74
0
 40
0
 40
0
 40
0
 40
0
 40
1
 40
1
 40
1
 40
1
 10
226.725237
 20
127.123474
 30
0.0
 10
227.219126
 20
128.005418
 30
0.0
 10
227.995237
 20
128.993196
 30
0.0
 10
228.453848
 20
129.310696
 30
0.0
  0
SPLINE
  5
17f
100
AcDbEntity
  8
Layer_1
 62
7
100
AcDbSpline
 70
8
 71
3
 72
8
 73
4
 74
0
 40
0
 40
0
 40
0
 40
0
 40
1
 40
1
 40
1
 40
1
 10
228.453848
 20
129.310696
 30
0.0
 10
230.006071
 20
130.333751
 30
0.0
 10
234.345237
 20
130.580696
 30
0.0
 10
235.932737
 20
129.734029
 30
0.0
  0
LWPOLYLINE
  5
180
100
AcDbEntity
  8
Layer_1
 62
7
100
AcDbPolyline
 90
3
 70
0
 10
226.584126
 20
124.195418
 30
0.0
 10
225.878571
 20
125.500696
 30
0.0
 10
226.725237
 20
127.123474
 30
0.0
  0
SPLINE
  5
181
100
AcDbEntity
  8
Layer_1
 62
7
100
AcDbSpline
 70
8
 71
3
 72
8
 73
4
 74
0
 40
0
 40
0
 40
0
 40
0
 40
1
 40
1
 40
1
 40
1
 10
-18.949207
 20
123.736807
 30
0.0
 10
-18.808096
 20
120.914585
 30
0.0
 10
-18.666985
 20
118.550974
 30
0.0
 10
-18.596429
 20
118.445140
 30
0.0
  0
SPLINE
  5
182
100
AcDbEntity
  8
Layer_1
 62
7
100
AcDbSpline
 70
8
 71
3
 72
8
 73
4
 74
0
 40
0
 40
0
 40
0
 40
0
 40
1
 40
1
 40
1
 40
1
 10
-18.596429
 20
118.445140
 30
0.0
 10
-18.561152
 20
118.339307
 30
0.0
 10
-18.384763
 20
116.857640
 30
0.0
 10
-18.278929
 20
115.093751
 30
0.0
  0
SPLINE
  5
183
100
AcDbEntity
  8
Layer_1
 62
7
100
AcDbSpline
 70
8
 71
3
 72
8
 73
4
 74
0
 40
0
 40
0
 40
0
 40
0
 40
1
 40
1
 40
1
 40
1
 10
-18.278929
 20
115.093751
 30
0.0
 10
-18.137818
 20
113.365140
 30
0.0
 10
-17.961429
 20
110.754585
 30
0.0
 10
-17.855596
 20
109.378751
 30
0.0
  0
SPLINE
  5
184
100
AcDbEntity
  8
Layer_1
 62
7
100
AcDbSpline
 70
8
 71
3
 72
8
 73
4
 74
0
 40
0
 40
0
 40
0
 40
0
 40
1
 40
1
 40
1
 40
1
 10
-17.855596
 20
109.378751
 30
0.0
 10
-17.573374
 20
106.097918
 30
0.0
 10
-17.890874
 20
104.439862
 30
0.0
 10
-18.808096
 20
104.157640
 30
0.0
  0
SPLINE
  5
185
100
AcDbEntity
  8
Layer_1
 62
7
100
AcDbSpline
 70
8
 71
3
 72
8
 73
4
 74
0
 40
0
 40
0
 40
0
 40
0
 40
1
 40
1
 40
1
 40
1
 10
-18.808096
 20
104.157640
 30
0.0
 10
-20.042818
 20
103.769585
 30
0.0
 10
-22.512263
 20
105.321807
 30
0.0
 10
-25.193374
 20
108.179307
 30
0.0
  0
SPLINE
  5
186
100
AcDbEntity
  8
Layer_1
 62
7
100
AcDbSpline
 70
8
 71
3
 72
8
 73
4
 74
0
 40
0
 40
0
 40
0
 40
0
 40
1
 40
1
 40
1
 40
1
 10
-25.193374
 20
108.179307
 30
0.0
 10
-30.132263
 20
113.435696
 30
0.0
 10
-31.049485
 20
116.716529
 30
0.0
 10
-28.650596
 20
120.738196
 30
0.0
  0
SPLINE
  5
187
100
AcDbEntity
  8
Layer_1
 62
7
100
AcDbSpline
 70
8
 71
3
 72
8
 73
4
 74
0
 40
0
 40
0
 40
0
 40
0
 40
1
 40
1
 40
1
 40
1
 10
-28.650596
 20
120.738196
 30
0.0
 10
-26.992540
 20
123.525140
 30
0.0
 10
-23.570596
 20
126.911807
 30
0.0
 10
-21.242263
 20
128.075974
 30
0.0
  0
SPLINE
  5
188
100
AcDbEntity
  8
Layer_1
 62
7
100
AcDbSpline
 70
8
 71
3
 72
8
 73
4
 74
0
 40
0
 40
0
 40
0
 40
0
 40
1
 40
1
 40
1
 40
1
 10
-21.242263
 20
128.075974
 30
0.0
 10
-20.219207
 20
128.605140
 30
0.0
 10
-19.337263
 20
128.993196
 30
0.0
 10
-19.266707
 20
128.922640
 30
0.0
  0
SPLINE
  5
189
100
AcDbEntity
  8
Layer_1
 62
7
100
AcDbSpline
 70
8
 71
3
 72
8
 73
4
 74
0
 40
0
 40
0
 40
0
 40
0
 40
1
 40
1
 40
1
 40
1
 10
-19.266707
 20
128.922640
 30
0.0
 10
-19.231429
 20
128.887362
 30
0.0
 10
-19.090318
 20
126.559029
 30
0.0
 10
-18.949207
 20
123.736807
 30
0.0
  0
LWPOLYLINE
  5
18a
100
AcDbEntity
  8
Layer_1
 62
7
100
AcDbPolyline
 90
2
 70
0
 10
235.932737
 20
129.734029
 30
0.0
 10
235.932737
 20
129.734029
 30
0.0
  0
SPLINE
  5
18b
100
AcDbEntity
  8
Layer_1
 62
7
100
AcDbSpline
 70
8
 71
3
 72
8
 73
4
 74
0
 40
0
 40
0
 40
0
 40
0
 40
1
 40
1
 40
1
 40
1
 10
-5.578929
 20
127.264585
 30
0.0
 10
-2.580318
 20
126.805974
 30
0.0
 10
-0.287263
 20
125.571251
 30
0.0
 10
-0.146152
 20
124.371807
 30
0.0
  0
SPLINE
  5
18c
100
AcDbEntity
  8
Layer_1
 62
7
100
AcDbSpline
 70
8
 71
3
 72
8
 73
4
 74
0
 40
0
 40
0
 40
0
 40
0
 40
1
 40
1
 40
1
 40
1
 10
-0.146152
 20
124.371807
 30
0.0
 10
-0.005040
 20
123.207640
 30
0.0
 10
-1.204485
 20
120.632362
 30
0.0
 10
-4.485318
 20
115.129029
 30
0.0
  0
SPLINE
  5
18d
100
AcDbEntity
  8
Layer_1
 62
7
100
AcDbSpline
 70
8
 71
3
 72
8
 73
4
 74
0
 40
0
 40
0
 40
0
 40
0
 40
1
 40
1
 40
1
 40
1
 10
-4.485318
 20
115.129029
 30
0.0
 10
-9.530040
 20
106.627085
 30
0.0
 10
-11.928929
 20
101.511807
 30
0.0
 10
-12.140596
 20
98.689585
 30
0.0
  0
SPLINE
  5
18e
100
AcDbEntity
  8
Layer_1
 62
7
100
AcDbSpline
 70
8
 71
3
 72
8
 73
4
 74
0
 40
0
 40
0
 40
0
 40
0
 40
1
 40
1
 40
1
 40
1
 10
-12.140596
 20
98.689585
 30
0.0
 10
-12.175874
 20
98.125140
 30
0.0
 10
-12.316985
 20
97.772362
 30
0.0
 10
-12.458096
 20
97.913474
 30
0.0
  0
SPLINE
  5
18f
100
AcDbEntity
  8
Layer_1
 62
7
100
AcDbSpline
 70
8
 71
3
 72
8
 73
4
 74
0
 40
0
 40
0
 40
0
 40
0
 40
1
 40
1
 40
1
 40
1
 10
-12.458096
 20
97.913474
 30
0.0
 10
-12.916707
 20
98.336807
 30
0.0
 10
-16.197540
 20
109.625696
 30
0.0
 10
-17.185318
 20
114.035418
 30
0.0
  0
SPLINE
  5
190
100
AcDbEntity
  8
Layer_1
 62
7
100
AcDbSpline
 70
8
 71
3
 72
8
 73
4
 74
0
 40
0
 40
0
 40
0
 40
0
 40
1
 40
1
 40
1
 40
1
 10
-17.185318
 20
114.035418
 30
0.0
 10
-18.737540
 20
121.020418
 30
0.0
 10
-18.420040
 20
126.206251
 30
0.0
 10
-16.409207
 20
127.088196
 30
0.0
  0
SPLINE
  5
191
100
AcDbEntity
  8
Layer_1
 62
7
100
AcDbSpline
 70
8
 71
3
 72
8
 73
4
 74
0
 40
0
 40
0
 40
0
 40
0
 40
1
 40
1
 40
1
 40
1
 10
-16.409207
 20
127.088196
 30
0.0
 10
-14.751152
 20
127.829029
 30
0.0
 10
-9.812263
 20
127.899585
 30
0.0
 10
-5.578929
 20
127.264585
 30
0.0
  0
LWPOLYLINE
  5
192
100
AcDbEntity
  8
Layer_1
 62
7
100
AcDbPolyline
 90
2
 70
0
 10
-18.949207
 20
123.736807
 30
0.0
 10
-18.949207
 20
123.736807
 30
0.0
  0
SPLINE
  5
193
100
AcDbEntity
  8
Layer_1
 62
7
100
AcDbSpline
 70
8
 71
3
 72
8
 73
4
 74
0
 40
0
 40
0
 40
0
 40
0
 40
1
 40
1
 40
1
 40
1
 10
222.350793
 20
122.572640
 30
0.0
 10
225.208293
 20
118.127640
 30
0.0
 10
228.312737
 20
112.059862
 30
0.0
 10
229.229960
 20
109.096529
 30
0.0
  0
SPLINE
  5
194
100
AcDbEntity
  8
Layer_1
 62
7
100
AcDbSpline
 70
8
 71
3
 72
8
 73
4
 74
0
 40
0
 40
0
 40
0
 40
0
 40
1
 40
1
 40
1
 40
1
 10
229.229960
 20
109.096529
 30
0.0
 10
230.782182
 20
103.981251
 30
0.0
 10
230.111904
 20
100.912085
 30
0.0
 10
226.972182
 20
98.795418
 30
0.0
  0
SPLINE
  5
195
100
AcDbEntity
  8
Layer_1
 62
7
100
AcDbSpline
 70
8
 71
3
 72
8
 73
4
 74
0
 40
0
 40
0
 40
0
 40
0
 40
1
 40
1
 40
1
 40
1
 10
226.972182
 20
98.795418
 30
0.0
 10
224.714404
 20
97.243196
 30
0.0
 10
222.915237
 20
96.784585
 30
0.0
 10
219.528571
 20
96.784585
 30
0.0
  0
SPLINE
  5
196
100
AcDbEntity
  8
Layer_1
 62
7
100
AcDbSpline
 70
8
 71
3
 72
8
 73
4
 74
0
 40
0
 40
0
 40
0
 40
0
 40
1
 40
1
 40
1
 40
1
 10
219.528571
 20
96.784585
 30
0.0
 10
216.177182
 20
96.784585
 30
0.0
 10
213.884126
 20
97.737085
 30
0.0
 10
213.496071
 20
99.254029
 30
0.0
  0
SPLINE
  5
197
100
AcDbEntity
  8
Layer_1
 62
7
100
AcDbSpline
 70
8
 71
3
 72
8
 73
4
 74
0
 40
0
 40
0
 40
0
 40
0
 40
1
 40
1
 40
1
 40
1
 10
213.496071
 20
99.254029
 30
0.0
 10
212.966904
 20
101.300140
 30
0.0
 10
214.025237
 20
106.979862
 30
0.0
 10
216.388848
 20
114.917362
 30
0.0
  0
SPLINE
  5
198
100
AcDbEntity
  8
Layer_1
 62
7
100
AcDbSpline
 70
8
 71
3
 72
8
 73
4
 74
0
 40
0
 40
0
 40
0
 40
0
 40
1
 40
1
 40
1
 40
1
 10
216.388848
 20
114.917362
 30
0.0
 10
218.576071
 20
122.219862
 30
0.0
 10
219.775515
 20
125.853474
 30
0.0
 10
219.987182
 20
125.853474
 30
0.0
  0
SPLINE
  5
199
100
AcDbEntity
  8
Layer_1
 62
7
100
AcDbSpline
 70
8
 71
3
 72
8
 73
4
 74
0
 40
0
 40
0
 40
0
 40
0
 40
1
 40
1
 40
1
 40
1
 10
219.987182
 20
125.853474
 30
0.0
 10
220.128293
 20
125.853474
 30
0.0
 10
221.186626
 20
124.371807
 30
0.0
 10
222.350793
 20
122.572640
 30
0.0
  0
LWPOLYLINE
  5
19a
100
AcDbEntity
  8
Layer_1
 62
7
100
AcDbPolyline
 90
2
 70
0
 10
-5.578929
 20
127.264585
 30
0.0
 10
-5.578929
 20
127.264585
 30
0.0
  0
SPLINE
  5
19b
100
AcDbEntity
  8
Layer_1
 62
7
100
AcDbSpline
 70
8
 71
3
 72
8
 73
4
 74
0
 40
0
 40
0
 40
0
 40
0
 40
1
 40
1
 40
1
 40
1
 10
5.851071
 20
121.232085
 30
0.0
 10
5.498293
 20
120.173751
 30
0.0
 10
5.639404
 20
109.625696
 30
0.0
 10
6.062737
 20
106.979862
 30
0.0
  0
SPLINE
  5
19c
100
AcDbEntity
  8
Layer_1
 62
7
100
AcDbSpline
 70
8
 71
3
 72
8
 73
4
 74
0
 40
0
 40
0
 40
0
 40
0
 40
1
 40
1
 40
1
 40
1
 10
6.062737
 20
106.979862
 30
0.0
 10
6.168571
 20
106.415418
 30
0.0
 10
6.486071
 20
103.769585
 30
0.0
 10
6.803571
 20
101.159029
 30
0.0
  0
SPLINE
  5
19d
100
AcDbEntity
  8
Layer_1
 62
7
100
AcDbSpline
 70
8
 71
3
 72
8
 73
4
 74
0
 40
0
 40
0
 40
0
 40
0
 40
1
 40
1
 40
1
 40
1
 10
6.803571
 20
101.159029
 30
0.0
 10
7.121071
 20
98.548474
 30
0.0
 10
7.438571
 20
95.937918
 30
0.0
 10
7.509126
 20
95.338196
 30
0.0
  0
SPLINE
  5
19e
100
AcDbEntity
  8
Layer_1
 62
7
100
AcDbSpline
 70
8
 71
3
 72
8
 73
4
 74
0
 40
0
 40
0
 40
0
 40
0
 40
1
 40
1
 40
1
 40
1
 10
7.509126
 20
95.338196
 30
0.0
 10
8.108848
 20
91.387085
 30
0.0
 10
8.496904
 20
84.119862
 30
0.0
 10
8.179404
 20
83.590696
 30
0.0
  0
SPLINE
  5
19f
100
AcDbEntity
  8
Layer_1
 62
7
100
AcDbSpline
 70
8
 71
3
 72
8
 73
4
 74
0
 40
0
 40
0
 40
0
 40
0
 40
1
 40
1
 40
1
 40
1
 10
8.179404
 20
83.590696
 30
0.0
 10
7.509126
 20
82.567640
 30
0.0
 10
6.098015
 20
82.285418
 30
0.0
 10
3.875515
 20
82.744029
 30
0.0
  0
SPLINE
  5
1a0
100
AcDbEntity
  8
Layer_1
 62
7
100
AcDbSpline
 70
8
 71
3
 72
8
 73
4
 74
0
 40
0
 40
0
 40
0
 40
0
 40
1
 40
1
 40
1
 40
1
 10
3.875515
 20
82.744029
 30
0.0
 10
-0.957540
 20
83.731807
 30
0.0
 10
-6.072818
 20
87.435974
 30
0.0
 10
-7.977818
 20
91.351807
 30
0.0
  0
SPLINE
  5
1a1
100
AcDbEntity
  8
Layer_1
 62
7
100
AcDbSpline
 70
8
 71
3
 72
8
 73
4
 74
0
 40
0
 40
0
 40
0
 40
0
 40
1
 40
1
 40
1
 40
1
 10
-7.977818
 20
91.351807
 30
0.0
 10
-11.082263
 20
97.737085
 30
0.0
 10
-7.871985
 20
109.096529
 30
0.0
 10
-0.781152
 20
116.787085
 30
0.0
  0
SPLINE
  5
1a2
100
AcDbEntity
  8
Layer_1
 62
7
100
AcDbSpline
 70
8
 71
3
 72
8
 73
4
 74
0
 40
0
 40
0
 40
0
 40
0
 40
1
 40
1
 40
1
 40
1
 10
-0.781152
 20
116.787085
 30
0.0
 10
1.335515
 20
119.115418
 30
0.0
 10
5.251348
 20
122.325696
 30
0.0
 10
5.956904
 20
122.325696
 30
0.0
  0
SPLINE
  5
1a3
100
AcDbEntity
  8
Layer_1
 62
7
100
AcDbSpline
 70
8
 71
3
 72
8
 73
4
 74
0
 40
0
 40
0
 40
0
 40
0
 40
1
 40
1
 40
1
 40
1
 10
5.956904
 20
122.325696
 30
0.0
 10
6.098015
 20
122.325696
 30
0.0
 10
6.062737
 20
121.831807
 30
0.0
 10
5.851071
 20
121.232085
 30
0.0
  0
LWPOLYLINE
  5
1a4
100
AcDbEntity
  8
Layer_1
 62
7
100
AcDbPolyline
 90
2
 70
0
 10
222.350793
 20
122.572640
 30
0.0
 10
222.350793
 20
122.572640
 30
0.0
  0
SPLINE
  5
1a5
100
AcDbEntity
  8
Layer_1
 62
7
100
AcDbSpline
 70
8
 71
3
 72
8
 73
4
 74
0
 40
0
 40
0
 40
0
 40
0
 40
1
 40
1
 40
1
 40
1
 10
209.827182
 20
120.914585
 30
0.0
 10
212.473015
 20
119.503474
 30
0.0
 10
212.296626
 20
112.059862
 30
0.0
 10
209.403848
 20
101.688196
 30
0.0
  0
SPLINE
  5
1a6
100
AcDbEntity
  8
Layer_1
 62
7
100
AcDbSpline
 70
8
 71
3
 72
8
 73
4
 74
0
 40
0
 40
0
 40
0
 40
0
 40
1
 40
1
 40
1
 40
1
 10
209.403848
 20
101.688196
 30
0.0
 10
207.710515
 20
95.620418
 30
0.0
 10
204.464960
 20
87.965140
 30
0.0
 10
204.076904
 20
89.164585
 30
0.0
  0
SPLINE
  5
1a7
100
AcDbEntity
  8
Layer_1
 62
7
100
AcDbSpline
 70
8
 71
3
 72
8
 73
4
 74
0
 40
0
 40
0
 40
0
 40
0
 40
1
 40
1
 40
1
 40
1
 10
204.076904
 20
89.164585
 30
0.0
 10
203.971071
 20
89.446807
 30
0.0
 10
203.724126
 20
90.399307
 30
0.0
 10
203.477182
 20
91.281251
 30
0.0
  0
SPLINE
  5
1a8
100
AcDbEntity
  8
Layer_1
 62
7
100
AcDbSpline
 70
8
 71
3
 72
8
 73
4
 74
0
 40
0
 40
0
 40
0
 40
0
 40
1
 40
1
 40
1
 40
1
 10
203.477182
 20
91.281251
 30
0.0
 10
202.948015
 20
93.256807
 30
0.0
 10
200.337460
 20
98.230974
 30
0.0
 10
196.844960
 20
103.804862
 30
0.0
  0
SPLINE
  5
1a9
100
AcDbEntity
  8
Layer_1
 62
7
100
AcDbSpline
 70
8
 71
3
 72
8
 73
4
 74
0
 40
0
 40
0
 40
0
 40
0
 40
1
 40
1
 40
1
 40
1
 10
196.844960
 20
103.804862
 30
0.0
 10
193.140793
 20
109.731529
 30
0.0
 10
190.777182
 20
114.352918
 30
0.0
 10
190.777182
 20
115.658196
 30
0.0
  0
SPLINE
  5
1aa
100
AcDbEntity
  8
Layer_1
 62
7
100
AcDbSpline
 70
8
 71
3
 72
8
 73
4
 74
0
 40
0
 40
0
 40
0
 40
0
 40
1
 40
1
 40
1
 40
1
 10
190.777182
 20
115.658196
 30
0.0
 10
190.777182
 20
118.304029
 30
0.0
 10
193.176071
 20
120.173751
 30
0.0
 10
197.726904
 20
121.055696
 30
0.0
  0
SPLINE
  5
1ab
100
AcDbEntity
  8
Layer_1
 62
7
100
AcDbSpline
 70
8
 71
3
 72
8
 73
4
 74
0
 40
0
 40
0
 40
0
 40
0
 40
1
 40
1
 40
1
 40
1
 10
197.726904
 20
121.055696
 30
0.0
 10
200.478571
 20
121.584862
 30
0.0
 10
208.733571
 20
121.479029
 30
0.0
 10
209.827182
 20
120.914585
 30
0.0
  0
LWPOLYLINE
  5
1ac
100
AcDbEntity
  8
Layer_1
 62
7
100
AcDbPolyline
 90
2
 70
0
 10
5.851071
 20
121.232085
 30
0.0
 10
5.851071
 20
121.232085
 30
0.0
  0
SPLINE
  5
1ad
100
AcDbEntity
  8
Layer_1
 62
7
100
AcDbSpline
 70
8
 71
3
 72
8
 73
4
 74
0
 40
0
 40
0
 40
0
 40
0
 40
1
 40
1
 40
1
 40
1
 10
22.925515
 20
120.032640
 30
0.0
 10
25.818293
 20
119.291807
 30
0.0
 10
28.393571
 20
117.845418
 30
0.0
 10
29.663571
 20
116.257918
 30
0.0
  0
SPLINE
  5
1ae
100
AcDbEntity
  8
Layer_1
 62
7
100
AcDbSpline
 70
8
 71
3
 72
8
 73
4
 74
0
 40
0
 40
0
 40
0
 40
0
 40
1
 40
1
 40
1
 40
1
 10
29.663571
 20
116.257918
 30
0.0
 10
31.533293
 20
113.894307
 30
0.0
 10
31.180515
 20
112.518474
 30
0.0
 10
24.689404
 20
97.984029
 30
0.0
  0
SPLINE
  5
1af
100
AcDbEntity
  8
Layer_1
 62
7
100
AcDbSpline
 70
8
 71
3
 72
8
 73
4
 74
0
 40
0
 40
0
 40
0
 40
0
 40
1
 40
1
 40
1
 40
1
 10
24.689404
 20
97.984029
 30
0.0
 10
19.009682
 20
85.248751
 30
0.0
 10
16.504960
 20
78.687085
 30
0.0
 10
16.504960
 20
76.640974
 30
0.0
  0
SPLINE
  5
1b0
100
AcDbEntity
  8
Layer_1
 62
7
100
AcDbSpline
 70
8
 71
3
 72
8
 73
4
 74
0
 40
0
 40
0
 40
0
 40
0
 40
1
 40
1
 40
1
 40
1
 10
16.504960
 20
76.640974
 30
0.0
 10
16.504960
 20
74.912362
 30
0.0
 10
15.905237
 20
75.547362
 30
0.0
 10
14.599960
 20
78.687085
 30
0.0
  0
SPLINE
  5
1b1
100
AcDbEntity
  8
Layer_1
 62
7
100
AcDbSpline
 70
8
 71
3
 72
8
 73
4
 74
0
 40
0
 40
0
 40
0
 40
0
 40
1
 40
1
 40
1
 40
1
 10
14.599960
 20
78.687085
 30
0.0
 10
9.978571
 20
89.552640
 30
0.0
 10
6.944682
 20
102.252640
 30
0.0
 10
6.944682
 20
110.578196
 30
0.0
  0
SPLINE
  5
1b2
100
AcDbEntity
  8
Layer_1
 62
7
100
AcDbSpline
 70
8
 71
3
 72
8
 73
4
 74
0
 40
0
 40
0
 40
0
 40
0
 40
1
 40
1
 40
1
 40
1
 10
6.944682
 20
110.578196
 30
0.0
 10
6.909404
 20
117.280974
 30
0.0
 10
8.426348
 20
119.926807
 30
0.0
 10
12.518571
 20
120.385418
 30
0.0
  0
SPLINE
  5
1b3
100
AcDbEntity
  8
Layer_1
 62
7
100
AcDbSpline
 70
8
 71
3
 72
8
 73
4
 74
0
 40
0
 40
0
 40
0
 40
0
 40
1
 40
1
 40
1
 40
1
 10
12.518571
 20
120.385418
 30
0.0
 10
13.647460
 20
120.526529
 30
0.0
 10
14.741071
 20
120.667640
 30
0.0
 10
14.917460
 20
120.702918
 30
0.0
  0
SPLINE
  5
1b4
100
AcDbEntity
  8
Layer_1
 62
7
100
AcDbSpline
 70
8
 71
3
 72
8
 73
4
 74
0
 40
0
 40
0
 40
0
 40
0
 40
1
 40
1
 40
1
 40
1
 10
14.917460
 20
120.702918
 30
0.0
 10
15.869960
 20
120.949862
 30
0.0
 10
21.020515
 20
120.526529
 30
0.0
 10
22.925515
 20
120.032640
 30
0.0
  0
LWPOLYLINE
  5
1b5
100
AcDbEntity
  8
Layer_1
 62
7
100
AcDbPolyline
 90
2
 70
0
 10
209.827182
 20
120.914585
 30
0.0
 10
209.827182
 20
120.914585
 30
0.0
  0
SPLINE
  5
1b6
100
AcDbEntity
  8
Layer_1
 62
7
100
AcDbSpline
 70
8
 71
3
 72
8
 73
4
 74
0
 40
0
 40
0
 40
0
 40
0
 40
1
 40
1
 40
1
 40
1
 10
185.238571
 20
113.964862
 30
0.0
 10
191.447460
 20
104.580974
 30
0.0
 10
198.644126
 20
89.446807
 30
0.0
 10
199.138015
 20
84.754862
 30
0.0
  0
SPLINE
  5
1b7
100
AcDbEntity
  8
Layer_1
 62
7
100
AcDbSpline
 70
8
 71
3
 72
8
 73
4
 74
0
 40
0
 40
0
 40
0
 40
0
 40
1
 40
1
 40
1
 40
1
 10
199.138015
 20
84.754862
 30
0.0
 10
199.279126
 20
83.202640
 30
0.0
 10
199.173293
 20
82.779307
 30
0.0
 10
198.220793
 20
81.368196
 30
0.0
  0
SPLINE
  5
1b8
100
AcDbEntity
  8
Layer_1
 62
7
100
AcDbSpline
 70
8
 71
3
 72
8
 73
4
 74
0
 40
0
 40
0
 40
0
 40
0
 40
1
 40
1
 40
1
 40
1
 10
198.220793
 20
81.368196
 30
0.0
 10
195.257460
 20
76.958474
 30
0.0
 10
184.956348
 20
72.372362
 30
0.0
 10
177.124682
 20
71.984307
 30
0.0
  0
SPLINE
  5
1b9
100
AcDbEntity
  8
Layer_1
 62
7
100
AcDbSpline
 70
8
 71
3
 72
8
 73
4
 74
0
 40
0
 40
0
 40
0
 40
0
 40
1
 40
1
 40
1
 40
1
 10
177.124682
 20
71.984307
 30
0.0
 10
172.926626
 20
71.772640
 30
0.0
 10
171.938848
 20
71.949029
 30
0.0
 10
171.198015
 20
73.077918
 30
0.0
  0
SPLINE
  5
1ba
100
AcDbEntity
  8
Layer_1
 62
7
100
AcDbSpline
 70
8
 71
3
 72
8
 73
4
 74
0
 40
0
 40
0
 40
0
 40
0
 40
1
 40
1
 40
1
 40
1
 10
171.198015
 20
73.077918
 30
0.0
 10
170.668848
 20
73.854029
 30
0.0
 10
170.668848
 20
74.171529
 30
0.0
 10
171.339126
 20
76.887918
 30
0.0
  0
SPLINE
  5
1bb
100
AcDbEntity
  8
Layer_1
 62
7
100
AcDbSpline
 70
8
 71
3
 72
8
 73
4
 74
0
 40
0
 40
0
 40
0
 40
0
 40
1
 40
1
 40
1
 40
1
 10
171.339126
 20
76.887918
 30
0.0
 10
171.727182
 20
78.475418
 30
0.0
 10
173.738015
 20
85.460418
 30
0.0
 10
175.784126
 20
92.339585
 30
0.0
  0
SPLINE
  5
1bc
100
AcDbEntity
  8
Layer_1
 62
7
100
AcDbSpline
 70
8
 71
3
 72
8
 73
4
 74
0
 40
0
 40
0
 40
0
 40
0
 40
1
 40
1
 40
1
 40
1
 10
175.784126
 20
92.339585
 30
0.0
 10
179.911626
 20
106.097918
 30
0.0
 10
182.310515
 20
115.058474
 30
0.0
 10
182.310515
 20
116.716529
 30
0.0
  0
SPLINE
  5
1bd
100
AcDbEntity
  8
Layer_1
 62
7
100
AcDbSpline
 70
8
 71
3
 72
8
 73
4
 74
0
 40
0
 40
0
 40
0
 40
0
 40
1
 40
1
 40
1
 40
1
 10
182.310515
 20
116.716529
 30
0.0
 10
182.310515
 20
117.316251
 30
0.0
 10
182.451626
 20
117.704307
 30
0.0
 10
182.628015
 20
117.598474
 30
0.0
  0
SPLINE
  5
1be
100
AcDbEntity
  8
Layer_1
 62
7
100
AcDbSpline
 70
8
 71
3
 72
8
 73
4
 74
0
 40
0
 40
0
 40
0
 40
0
 40
1
 40
1
 40
1
 40
1
 10
182.628015
 20
117.598474
 30
0.0
 10
182.804404
 20
117.492640
 30
0.0
 10
183.968571
 20
115.834585
 30
0.0
 10
185.238571
 20
113.964862
 30
0.0
  0
LWPOLYLINE
  5
1bf
100
AcDbEntity
  8
Layer_1
 62
7
100
AcDbPolyline
 90
2
 70
0
 10
22.925515
 20
120.032640
 30
0.0
 10
22.925515
 20
120.032640
 30
0.0
  0
SPLINE
  5
1c0
100
AcDbEntity
  8
Layer_1
 62
7
100
AcDbSpline
 70
8
 71
3
 72
8
 73
4
 74
0
 40
0
 40
0
 40
0
 40
0
 40
1
 40
1
 40
1
 40
1
 10
167.599682
 20
116.681251
 30
0.0
 10
176.524960
 20
113.929585
 30
0.0
 10
178.923848
 20
101.441251
 30
0.0
 10
173.103015
 20
87.965140
 30
0.0
  0
SPLINE
  5
1c1
100
AcDbEntity
  8
Layer_1
 62
7
100
AcDbSpline
 70
8
 71
3
 72
8
 73
4
 74
0
 40
0
 40
0
 40
0
 40
0
 40
1
 40
1
 40
1
 40
1
 10
173.103015
 20
87.965140
 30
0.0
 10
169.434126
 20
79.427918
 30
0.0
 10
163.225237
 20
71.278751
 30
0.0
 10
157.580793
 20
67.645140
 30
0.0
  0
SPLINE
  5
1c2
100
AcDbEntity
  8
Layer_1
 62
7
100
AcDbSpline
 70
8
 71
3
 72
8
 73
4
 74
0
 40
0
 40
0
 40
0
 40
0
 40
1
 40
1
 40
1
 40
1
 10
157.580793
 20
67.645140
 30
0.0
 10
156.381348
 20
66.869029
 30
0.0
 10
155.323015
 20
66.304585
 30
0.0
 10
155.252460
 20
66.375140
 30
0.0
  0
SPLINE
  5
1c3
100
AcDbEntity
  8
Layer_1
 62
7
100
AcDbSpline
 70
8
 71
3
 72
8
 73
4
 74
0
 40
0
 40
0
 40
0
 40
0
 40
1
 40
1
 40
1
 40
1
 10
155.252460
 20
66.375140
 30
0.0
 10
155.181904
 20
66.445696
 30
0.0
 10
155.464126
 20
67.257085
 30
0.0
 10
155.887460
 20
68.209585
 30
0.0
  0
SPLINE
  5
1c4
100
AcDbEntity
  8
Layer_1
 62
7
100
AcDbSpline
 70
8
 71
3
 72
8
 73
4
 74
0
 40
0
 40
0
 40
0
 40
0
 40
1
 40
1
 40
1
 40
1
 10
155.887460
 20
68.209585
 30
0.0
 10
157.298571
 20
71.490418
 30
0.0
 10
157.968848
 20
75.053474
 30
0.0
 10
158.215793
 20
80.168751
 30
0.0
  0
SPLINE
  5
1c5
100
AcDbEntity
  8
Layer_1
 62
7
100
AcDbSpline
 70
8
 71
3
 72
8
 73
4
 74
0
 40
0
 40
0
 40
0
 40
0
 40
1
 40
1
 40
1
 40
1
 10
158.215793
 20
80.168751
 30
0.0
 10
158.498015
 20
86.765696
 30
0.0
 10
158.850793
 20
86.024862
 30
0.0
 10
150.384126
 20
96.925696
 30
0.0
  0
SPLINE
  5
1c6
100
AcDbEntity
  8
Layer_1
 62
7
100
AcDbSpline
 70
8
 71
3
 72
8
 73
4
 74
0
 40
0
 40
0
 40
0
 40
0
 40
1
 40
1
 40
1
 40
1
 10
150.384126
 20
96.925696
 30
0.0
 10
145.762737
 20
102.922918
 30
0.0
 10
144.563293
 20
106.838751
 30
0.0
 10
146.503571
 20
109.696251
 30
0.0
  0
SPLINE
  5
1c7
100
AcDbEntity
  8
Layer_1
 62
7
100
AcDbSpline
 70
8
 71
3
 72
8
 73
4
 74
0
 40
0
 40
0
 40
0
 40
0
 40
1
 40
1
 40
1
 40
1
 10
146.503571
 20
109.696251
 30
0.0
 10
148.338015
 20
112.412640
 30
0.0
 10
154.370515
 20
115.834585
 30
0.0
 10
159.168293
 20
116.857640
 30
0.0
  0
SPLINE
  5
1c8
100
AcDbEntity
  8
Layer_1
 62
7
100
AcDbSpline
 70
8
 71
3
 72
8
 73
4
 74
0
 40
0
 40
0
 40
0
 40
0
 40
1
 40
1
 40
1
 40
1
 10
159.168293
 20
116.857640
 30
0.0
 10
162.308015
 20
117.527918
 30
0.0
 10
164.989126
 20
117.492640
 30
0.0
 10
167.599682
 20
116.681251
 30
0.0
  0
LWPOLYLINE
  5
1c9
100
AcDbEntity
  8
Layer_1
 62
7
100
AcDbPolyline
 90
2
 70
0
 10
185.238571
 20
113.964862
 30
0.0
 10
185.238571
 20
113.964862
 30
0.0
  0
SPLINE
  5
1ca
100
AcDbEntity
  8
Layer_1
 62
7
100
AcDbSpline
 70
8
 71
3
 72
8
 73
4
 74
0
 40
0
 40
0
 40
0
 40
0
 40
1
 40
1
 40
1
 40
1
 10
61.025515
 20
115.129029
 30
0.0
 10
61.731071
 20
114.776251
 30
0.0
 10
62.401348
 20
114.282362
 30
0.0
 10
62.507182
 20
114.035418
 30
0.0
  0
SPLINE
  5
1cb
100
AcDbEntity
  8
Layer_1
 62
7
100
AcDbSpline
 70
8
 71
3
 72
8
 73
4
 74
0
 40
0
 40
0
 40
0
 40
0
 40
1
 40
1
 40
1
 40
1
 10
62.507182
 20
114.035418
 30
0.0
 10
62.859960
 20
113.082918
 30
0.0
 10
61.307737
 20
108.285140
 30
0.0
 10
55.698571
 20
92.833474
 30
0.0
  0
SPLINE
  5
1cc
100
AcDbEntity
  8
Layer_1
 62
7
100
AcDbSpline
 70
8
 71
3
 72
8
 73
4
 74
0
 40
0
 40
0
 40
0
 40
0
 40
1
 40
1
 40
1
 40
1
 10
55.698571
 20
92.833474
 30
0.0
 10
49.560237
 20
75.829585
 30
0.0
 10
48.149126
 20
71.702085
 30
0.0
 10
47.443571
 20
68.527085
 30
0.0
  0
LWPOLYLINE
  5
1cd
100
AcDbEntity
  8
Layer_1
 62
7
100
AcDbPolyline
 90
2
 70
0
 10
167.599682
 20
116.681251
 30
0.0
 10
167.599682
 20
116.681251
 30
0.0
  0
SPLINE
  5
1ce
100
AcDbEntity
  8
Layer_1
 62
7
100
AcDbSpline
 70
8
 71
3
 72
8
 73
4
 74
0
 40
0
 40
0
 40
0
 40
0
 40
1
 40
1
 40
1
 40
1
 10
45.503293
 20
72.407640
 30
0.0
 10
40.282182
 20
94.174029
 30
0.0
 10
39.047460
 20
106.097918
 30
0.0
 10
41.516904
 20
111.001529
 30
0.0
  0
SPLINE
  5
1cf
100
AcDbEntity
  8
Layer_1
 62
7
100
AcDbSpline
 70
8
 71
3
 72
8
 73
4
 74
0
 40
0
 40
0
 40
0
 40
0
 40
1
 40
1
 40
1
 40
1
 10
41.516904
 20
111.001529
 30
0.0
 10
42.504682
 20
112.941807
 30
0.0
 10
46.561626
 20
114.952640
 30
0.0
 10
51.077182
 20
115.764029
 30
0.0
  0
SPLINE
  5
1d0
100
AcDbEntity
  8
Layer_1
 62
7
100
AcDbSpline
 70
8
 71
3
 72
8
 73
4
 74
0
 40
0
 40
0
 40
0
 40
0
 40
1
 40
1
 40
1
 40
1
 10
51.077182
 20
115.764029
 30
0.0
 10
51.571071
 20
115.834585
 30
0.0
 10
53.723015
 20
115.869862
 30
0.0
 10
55.839682
 20
115.834585
 30
0.0
  0
SPLINE
  5
1d1
100
AcDbEntity
  8
Layer_1
 62
7
100
AcDbSpline
 70
8
 71
3
 72
8
 73
4
 74
0
 40
0
 40
0
 40
0
 40
0
 40
1
 40
1
 40
1
 40
1
 10
55.839682
 20
115.834585
 30
0.0
 10
58.661904
 20
115.764029
 30
0.0
 10
60.073015
 20
115.587640
 30
0.0
 10
61.025515
 20
115.129029
 30
0.0
  0
LWPOLYLINE
  5
1d2
100
AcDbEntity
  8
Layer_1
 62
7
100
AcDbPolyline
 90
3
 70
0
 10
47.443571
 20
68.527085
 30
0.0
 10
46.949682
 20
66.410418
 30
0.0
 10
45.503293
 20
72.407640
 30
0.0
  0
SPLINE
  5
1d3
100
AcDbEntity
  8
Layer_1
 62
7
100
AcDbSpline
 70
8
 71
3
 72
8
 73
4
 74
0
 40
0
 40
0
 40
0
 40
0
 40
1
 40
1
 40
1
 40
1
 10
91.470237
 20
115.481807
 30
0.0
 10
92.387460
 20
115.199585
 30
0.0
 10
94.045515
 20
114.388196
 30
0.0
 10
95.139126
 20
113.647362
 30
0.0
  0
SPLINE
  5
1d4
100
AcDbEntity
  8
Layer_1
 62
7
100
AcDbSpline
 70
8
 71
3
 72
8
 73
4
 74
0
 40
0
 40
0
 40
0
 40
0
 40
1
 40
1
 40
1
 40
1
 10
95.139126
 20
113.647362
 30
0.0
 10
97.361626
 20
112.200974
 30
0.0
 10
102.053571
 20
107.544307
 30
0.0
 10
102.406348
 20
106.485974
 30
0.0
  0
SPLINE
  5
1d5
100
AcDbEntity
  8
Layer_1
 62
7
100
AcDbSpline
 70
8
 71
3
 72
8
 73
4
 74
0
 40
0
 40
0
 40
0
 40
0
 40
1
 40
1
 40
1
 40
1
 10
102.406348
 20
106.485974
 30
0.0
 10
102.512182
 20
106.062640
 30
0.0
 10
102.265237
 20
105.110140
 30
0.0
 10
101.736071
 20
104.087085
 30
0.0
  0
SPLINE
  5
1d6
100
AcDbEntity
  8
Layer_1
 62
7
100
AcDbSpline
 70
8
 71
3
 72
8
 73
4
 74
0
 40
0
 40
0
 40
0
 40
0
 40
1
 40
1
 40
1
 40
1
 10
101.736071
 20
104.087085
 30
0.0
 10
99.795793
 20
100.206529
 30
0.0
 10
94.680515
 20
84.719585
 30
0.0
 10
90.376626
 20
69.620696
 30
0.0
  0
SPLINE
  5
1d7
100
AcDbEntity
  8
Layer_1
 62
7
100
AcDbSpline
 70
8
 71
3
 72
8
 73
4
 74
0
 40
0
 40
0
 40
0
 40
0
 40
1
 40
1
 40
1
 40
1
 10
90.376626
 20
69.620696
 30
0.0
 10
89.106626
 20
65.140418
 30
0.0
 10
87.977737
 20
61.224585
 30
0.0
 10
87.871904
 20
60.942362
 30
0.0
  0
SPLINE
  5
1d8
100
AcDbEntity
  8
Layer_1
 62
7
100
AcDbSpline
 70
8
 71
3
 72
8
 73
4
 74
0
 40
0
 40
0
 40
0
 40
0
 40
1
 40
1
 40
1
 40
1
 10
87.871904
 20
60.942362
 30
0.0
 10
87.624960
 20
60.201529
 30
0.0
 10
87.060515
 20
61.400974
 30
0.0
 10
84.802737
 20
67.221807
 30
0.0
  0
SPLINE
  5
1d9
100
AcDbEntity
  8
Layer_1
 62
7
100
AcDbSpline
 70
8
 71
3
 72
8
 73
4
 74
0
 40
0
 40
0
 40
0
 40
0
 40
1
 40
1
 40
1
 40
1
 10
84.802737
 20
67.221807
 30
0.0
 10
79.722737
 20
80.239307
 30
0.0
 10
77.182737
 20
90.999029
 30
0.0
 10
77.182737
 20
99.289307
 30
0.0
  0
SPLINE
  5
1da
100
AcDbEntity
  8
Layer_1
 62
7
100
AcDbSpline
 70
8
 71
3
 72
8
 73
4
 74
0
 40
0
 40
0
 40
0
 40
0
 40
1
 40
1
 40
1
 40
1
 10
77.182737
 20
99.289307
 30
0.0
 10
77.182737
 20
103.663751
 30
0.0
 10
77.606071
 20
105.992085
 30
0.0
 10
78.911348
 20
108.779029
 30
0.0
  0
SPLINE
  5
1db
100
AcDbEntity
  8
Layer_1
 62
7
100
AcDbSpline
 70
8
 71
3
 72
8
 73
4
 74
0
 40
0
 40
0
 40
0
 40
0
 40
1
 40
1
 40
1
 40
1
 10
78.911348
 20
108.779029
 30
0.0
 10
81.592460
 20
114.529307
 30
0.0
 10
86.284404
 20
117.034029
 30
0.0
 10
91.470237
 20
115.481807
 30
0.0
  0
LWPOLYLINE
  5
1dc
100
AcDbEntity
  8
Layer_1
 62
7
100
AcDbPolyline
 90
2
 70
0
 10
61.025515
 20
115.129029
 30
0.0
 10
61.025515
 20
115.129029
 30
0.0
  0
SPLINE
  5
1dd
100
AcDbEntity
  8
Layer_1
 62
7
100
AcDbSpline
 70
8
 71
3
 72
8
 73
4
 74
0
 40
0
 40
0
 40
0
 40
0
 40
1
 40
1
 40
1
 40
1
 10
128.370793
 20
114.776251
 30
0.0
 10
129.852460
 20
114.529307
 30
0.0
 10
131.228293
 20
113.188751
 30
0.0
 10
132.074960
 20
111.213196
 30
0.0
  0
SPLINE
  5
1de
100
AcDbEntity
  8
Layer_1
 62
7
100
AcDbSpline
 70
8
 71
3
 72
8
 73
4
 74
0
 40
0
 40
0
 40
0
 40
0
 40
1
 40
1
 40
1
 40
1
 10
132.074960
 20
111.213196
 30
0.0
 10
132.533571
 20
110.119585
 30
0.0
 10
132.709960
 20
108.567362
 30
0.0
 10
132.780515
 20
104.334029
 30
0.0
  0
SPLINE
  5
1df
100
AcDbEntity
  8
Layer_1
 62
7
100
AcDbSpline
 70
8
 71
3
 72
8
 73
4
 74
0
 40
0
 40
0
 40
0
 40
0
 40
1
 40
1
 40
1
 40
1
 10
132.780515
 20
104.334029
 30
0.0
 10
132.921626
 20
93.785974
 30
0.0
 10
130.734404
 20
80.274585
 30
0.0
 10
127.030237
 20
68.879862
 30
0.0
  0
SPLINE
  5
1e0
100
AcDbEntity
  8
Layer_1
 62
7
100
AcDbSpline
 70
8
 71
3
 72
8
 73
4
 74
0
 40
0
 40
0
 40
0
 40
0
 40
1
 40
1
 40
1
 40
1
 10
127.030237
 20
68.879862
 30
0.0
 10
125.724960
 20
64.858196
 30
0.0
 10
122.761626
 20
58.614029
 30
0.0
 10
121.703293
 20
57.661529
 30
0.0
  0
SPLINE
  5
1e1
100
AcDbEntity
  8
Layer_1
 62
7
100
AcDbSpline
 70
8
 71
3
 72
8
 73
4
 74
0
 40
0
 40
0
 40
0
 40
0
 40
1
 40
1
 40
1
 40
1
 10
121.703293
 20
57.661529
 30
0.0
 10
121.138848
 20
57.132362
 30
0.0
 10
121.103571
 20
57.308751
 30
0.0
 10
121.033015
 20
60.519029
 30
0.0
  0
SPLINE
  5
1e2
100
AcDbEntity
  8
Layer_1
 62
7
100
AcDbSpline
 70
8
 71
3
 72
8
 73
4
 74
0
 40
0
 40
0
 40
0
 40
0
 40
1
 40
1
 40
1
 40
1
 10
121.033015
 20
60.519029
 30
0.0
 10
120.927182
 20
67.715696
 30
0.0
 10
117.399404
 20
84.966529
 30
0.0
 10
112.601626
 20
102.005696
 30
0.0
  0
SPLINE
  5
1e3
100
AcDbEntity
  8
Layer_1
 62
7
100
AcDbSpline
 70
8
 71
3
 72
8
 73
4
 74
0
 40
0
 40
0
 40
0
 40
0
 40
1
 40
1
 40
1
 40
1
 10
112.601626
 20
102.005696
 30
0.0
 10
111.402182
 20
106.239029
 30
0.0
 10
111.119960
 20
107.720696
 30
0.0
 10
111.437460
 20
108.073474
 30
0.0
  0
SPLINE
  5
1e4
100
AcDbEntity
  8
Layer_1
 62
7
100
AcDbSpline
 70
8
 71
3
 72
8
 73
4
 74
0
 40
0
 40
0
 40
0
 40
0
 40
1
 40
1
 40
1
 40
1
 10
111.437460
 20
108.073474
 30
0.0
 10
112.001904
 20
108.779029
 30
0.0
 10
115.176904
 20
110.825140
 30
0.0
 10
118.210793
 20
112.447918
 30
0.0
  0
SPLINE
  5
1e5
100
AcDbEntity
  8
Layer_1
 62
7
100
AcDbSpline
 70
8
 71
3
 72
8
 73
4
 74
0
 40
0
 40
0
 40
0
 40
0
 40
1
 40
1
 40
1
 40
1
 10
118.210793
 20
112.447918
 30
0.0
 10
120.680237
 20
113.788474
 30
0.0
 10
125.442737
 20
115.305418
 30
0.0
 10
126.571626
 20
115.093751
 30
0.0
  0
SPLINE
  5
1e6
100
AcDbEntity
  8
Layer_1
 62
7
100
AcDbSpline
 70
8
 71
3
 72
8
 73
4
 74
0
 40
0
 40
0
 40
0
 40
0
 40
1
 40
1
 40
1
 40
1
 10
126.571626
 20
115.093751
 30
0.0
 10
126.853848
 20
115.058474
 30
0.0
 10
127.665237
 20
114.917362
 30
0.0
 10
128.370793
 20
114.776251
 30
0.0
  0
LWPOLYLINE
  5
1e7
100
AcDbEntity
  8
Layer_1
 62
7
100
AcDbPolyline
 90
2
 70
0
 10
91.470237
 20
115.481807
 30
0.0
 10
91.470237
 20
115.481807
 30
0.0
  0
SPLINE
  5
1e8
100
AcDbEntity
  8
Layer_1
 62
7
100
AcDbSpline
 70
8
 71
3
 72
8
 73
4
 74
0
 40
0
 40
0
 40
0
 40
0
 40
1
 40
1
 40
1
 40
1
 10
39.012182
 20
113.435696
 30
0.0
 10
38.553571
 20
111.601251
 30
0.0
 10
38.447737
 20
102.076251
 30
0.0
 10
38.800515
 20
98.160418
 30
0.0
  0
SPLINE
  5
1e9
100
AcDbEntity
  8
Layer_1
 62
7
100
AcDbSpline
 70
8
 71
3
 72
8
 73
4
 74
0
 40
0
 40
0
 40
0
 40
0
 40
1
 40
1
 40
1
 40
1
 10
38.800515
 20
98.160418
 30
0.0
 10
39.153293
 20
94.632640
 30
0.0
 10
39.964682
 20
88.212085
 30
0.0
 10
40.670237
 20
84.049307
 30
0.0
  0
SPLINE
  5
1ea
100
AcDbEntity
  8
Layer_1
 62
7
100
AcDbSpline
 70
8
 71
3
 72
8
 73
4
 74
0
 40
0
 40
0
 40
0
 40
0
 40
1
 40
1
 40
1
 40
1
 10
40.670237
 20
84.049307
 30
0.0
 10
41.481626
 20
79.039862
 30
0.0
 10
41.904960
 20
75.406251
 30
0.0
 10
41.940237
 20
72.972085
 30
0.0
  0
SPLINE
  5
1eb
100
AcDbEntity
  8
Layer_1
 62
7
100
AcDbSpline
 70
8
 71
3
 72
8
 73
4
 74
0
 40
0
 40
0
 40
0
 40
0
 40
1
 40
1
 40
1
 40
1
 10
41.940237
 20
72.972085
 30
0.0
 10
42.010793
 20
70.255696
 30
0.0
 10
41.446348
 20
69.585418
 30
0.0
 10
38.835793
 20
69.197362
 30
0.0
  0
SPLINE
  5
1ec
100
AcDbEntity
  8
Layer_1
 62
7
100
AcDbSpline
 70
8
 71
3
 72
8
 73
4
 74
0
 40
0
 40
0
 40
0
 40
0
 40
1
 40
1
 40
1
 40
1
 10
38.835793
 20
69.197362
 30
0.0
 10
35.837182
 20
68.738751
 30
0.0
 10
28.922737
 20
69.267918
 30
0.0
 10
25.818293
 20
70.185140
 30
0.0
  0
SPLINE
  5
1ed
100
AcDbEntity
  8
Layer_1
 62
7
100
AcDbSpline
 70
8
 71
3
 72
8
 73
4
 74
0
 40
0
 40
0
 40
0
 40
0
 40
1
 40
1
 40
1
 40
1
 10
25.818293
 20
70.185140
 30
0.0
 10
20.279682
 20
71.807918
 30
0.0
 10
18.445237
 20
73.607085
 30
0.0
 10
19.009682
 20
76.711529
 30
0.0
  0
SPLINE
  5
1ee
100
AcDbEntity
  8
Layer_1
 62
7
100
AcDbSpline
 70
8
 71
3
 72
8
 73
4
 74
0
 40
0
 40
0
 40
0
 40
0
 40
1
 40
1
 40
1
 40
1
 10
19.009682
 20
76.711529
 30
0.0
 10
20.103293
 20
82.461807
 30
0.0
 10
30.757182
 20
103.452085
 30
0.0
 10
37.071904
 20
112.342085
 30
0.0
  0
SPLINE
  5
1ef
100
AcDbEntity
  8
Layer_1
 62
7
100
AcDbSpline
 70
8
 71
3
 72
8
 73
4
 74
0
 40
0
 40
0
 40
0
 40
0
 40
1
 40
1
 40
1
 40
1
 10
37.071904
 20
112.342085
 30
0.0
 10
38.094960
 20
113.753196
 30
0.0
 10
39.012182
 20
114.917362
 30
0.0
 10
39.118015
 20
114.917362
 30
0.0
  0
SPLINE
  5
1f0
100
AcDbEntity
  8
Layer_1
 62
7
100
AcDbSpline
 70
8
 71
3
 72
8
 73
4
 74
0
 40
0
 40
0
 40
0
 40
0
 40
1
 40
1
 40
1
 40
1
 10
39.118015
 20
114.917362
 30
0.0
 10
39.259126
 20
114.917362
 30
0.0
 10
39.188571
 20
114.247085
 30
0.0
 10
39.012182
 20
113.435696
 30
0.0
  0
LWPOLYLINE
  5
1f1
100
AcDbEntity
  8
Layer_1
 62
7
100
AcDbPolyline
 90
2
 70
0
 10
128.370793
 20
114.776251
 30
0.0
 10
128.370793
 20
114.776251
 30
0.0
  0
SPLINE
  5
1f2
100
AcDbEntity
  8
Layer_1
 62
7
100
AcDbSpline
 70
8
 71
3
 72
8
 73
4
 74
0
 40
0
 40
0
 40
0
 40
0
 40
1
 40
1
 40
1
 40
1
 10
71.044404
 20
108.108751
 30
0.0
 10
71.079682
 20
103.769585
 30
0.0
 10
71.256071
 20
101.899862
 30
0.0
 10
72.032182
 20
98.266251
 30
0.0
  0
SPLINE
  5
1f3
100
AcDbEntity
  8
Layer_1
 62
7
100
AcDbSpline
 70
8
 71
3
 72
8
 73
4
 74
0
 40
0
 40
0
 40
0
 40
0
 40
1
 40
1
 40
1
 40
1
 10
72.032182
 20
98.266251
 30
0.0
 10
73.760793
 20
89.940696
 30
0.0
 10
76.971071
 20
78.545974
 30
0.0
 10
79.828571
 20
70.573196
 30
0.0
  0
SPLINE
  5
1f4
100
AcDbEntity
  8
Layer_1
 62
7
100
AcDbSpline
 70
8
 71
3
 72
8
 73
4
 74
0
 40
0
 40
0
 40
0
 40
0
 40
1
 40
1
 40
1
 40
1
 10
79.828571
 20
70.573196
 30
0.0
 10
81.028015
 20
67.186529
 30
0.0
 10
81.063293
 20
67.115974
 30
0.0
 10
80.428293
 20
66.234029
 30
0.0
  0
SPLINE
  5
1f5
100
AcDbEntity
  8
Layer_1
 62
7
100
AcDbSpline
 70
8
 71
3
 72
8
 73
4
 74
0
 40
0
 40
0
 40
0
 40
0
 40
1
 40
1
 40
1
 40
1
 10
80.428293
 20
66.234029
 30
0.0
 10
77.923571
 20
62.776807
 30
0.0
 10
65.752737
 20
60.025140
 30
0.0
 10
59.191071
 20
61.436251
 30
0.0
  0
SPLINE
  5
1f6
100
AcDbEntity
  8
Layer_1
 62
7
100
AcDbSpline
 70
8
 71
3
 72
8
 73
4
 74
0
 40
0
 40
0
 40
0
 40
0
 40
1
 40
1
 40
1
 40
1
 10
59.191071
 20
61.436251
 30
0.0
 10
54.005237
 20
62.529862
 30
0.0
 10
51.782737
 20
64.928751
 30
0.0
 10
51.782737
 20
69.444307
 30
0.0
  0
SPLINE
  5
1f7
100
AcDbEntity
  8
Layer_1
 62
7
100
AcDbSpline
 70
8
 71
3
 72
8
 73
4
 74
0
 40
0
 40
0
 40
0
 40
0
 40
1
 40
1
 40
1
 40
1
 10
51.782737
 20
69.444307
 30
0.0
 10
51.782737
 20
81.438751
 30
0.0
 10
60.566904
 20
103.487362
 30
0.0
 10
68.539682
 20
111.495418
 30
0.0
  0
SPLINE
  5
1f8
100
AcDbEntity
  8
Layer_1
 62
7
100
AcDbSpline
 70
8
 71
3
 72
8
 73
4
 74
0
 40
0
 40
0
 40
0
 40
0
 40
1
 40
1
 40
1
 40
1
 10
68.539682
 20
111.495418
 30
0.0
 10
69.668571
 20
112.589029
 30
0.0
 10
70.656348
 20
113.506251
 30
0.0
 10
70.797460
 20
113.506251
 30
0.0
  0
SPLINE
  5
1f9
100
AcDbEntity
  8
Layer_1
 62
7
100
AcDbSpline
 70
8
 71
3
 72
8
 73
4
 74
0
 40
0
 40
0
 40
0
 40
0
 40
1
 40
1
 40
1
 40
1
 10
70.797460
 20
113.506251
 30
0.0
 10
70.903293
 20
113.506251
 30
0.0
 10
71.009126
 20
111.072085
 30
0.0
 10
71.044404
 20
108.108751
 30
0.0
  0
LWPOLYLINE
  5
1fa
100
AcDbEntity
  8
Layer_1
 62
7
100
AcDbPolyline
 90
2
 70
0
 10
39.012182
 20
113.435696
 30
0.0
 10
39.012182
 20
113.435696
 30
0.0
  0
SPLINE
  5
1fb
100
AcDbEntity
  8
Layer_1
 62
7
100
AcDbSpline
 70
8
 71
3
 72
8
 73
4
 74
0
 40
0
 40
0
 40
0
 40
0
 40
1
 40
1
 40
1
 40
1
 10
109.391348
 20
98.160418
 30
0.0
 10
110.273293
 20
94.879585
 30
0.0
 10
111.896071
 20
88.952918
 30
0.0
 10
112.989682
 20
85.001807
 30
0.0
  0
SPLINE
  5
1fc
100
AcDbEntity
  8
Layer_1
 62
7
100
AcDbSpline
 70
8
 71
3
 72
8
 73
4
 74
0
 40
0
 40
0
 40
0
 40
0
 40
1
 40
1
 40
1
 40
1
 10
112.989682
 20
85.001807
 30
0.0
 10
115.388571
 20
76.182362
 30
0.0
 10
116.834960
 20
70.149862
 30
0.0
 10
117.434682
 20
66.375140
 30
0.0
  0
SPLINE
  5
1fd
100
AcDbEntity
  8
Layer_1
 62
7
100
AcDbSpline
 70
8
 71
3
 72
8
 73
4
 74
0
 40
0
 40
0
 40
0
 40
0
 40
1
 40
1
 40
1
 40
1
 10
117.434682
 20
66.375140
 30
0.0
 10
117.822737
 20
63.658751
 30
0.0
 10
117.822737
 20
63.411807
 30
0.0
 10
117.117182
 20
61.965418
 30
0.0
  0
SPLINE
  5
1fe
100
AcDbEntity
  8
Layer_1
 62
7
100
AcDbSpline
 70
8
 71
3
 72
8
 73
4
 74
0
 40
0
 40
0
 40
0
 40
0
 40
1
 40
1
 40
1
 40
1
 10
117.117182
 20
61.965418
 30
0.0
 10
115.635515
 20
58.966807
 30
0.0
 10
112.460515
 20
57.661529
 30
0.0
 10
106.463293
 20
57.661529
 30
0.0
  0
SPLINE
  5
1ff
100
AcDbEntity
  8
Layer_1
 62
7
100
AcDbSpline
 70
8
 71
3
 72
8
 73
4
 74
0
 40
0
 40
0
 40
0
 40
0
 40
1
 40
1
 40
1
 40
1
 10
106.463293
 20
57.661529
 30
0.0
 10
101.912460
 20
57.626251
 30
0.0
 10
98.984404
 20
58.225974
 30
0.0
 10
96.162182
 20
59.778196
 30
0.0
  0
SPLINE
  5
200
100
AcDbEntity
  8
Layer_1
 62
7
100
AcDbSpline
 70
8
 71
3
 72
8
 73
4
 74
0
 40
0
 40
0
 40
0
 40
0
 40
1
 40
1
 40
1
 40
1
 10
96.162182
 20
59.778196
 30
0.0
 10
94.257182
 20
60.836529
 30
0.0
 10
93.410515
 20
62.035974
 30
0.0
 10
93.410515
 20
63.835140
 30
0.0
  0
SPLINE
  5
201
100
AcDbEntity
  8
Layer_1
 62
7
100
AcDbSpline
 70
8
 71
3
 72
8
 73
4
 74
0
 40
0
 40
0
 40
0
 40
0
 40
1
 40
1
 40
1
 40
1
 10
93.410515
 20
63.835140
 30
0.0
 10
93.410515
 20
65.810696
 30
0.0
 10
95.386071
 20
72.478196
 30
0.0
 10
99.090237
 20
83.061529
 30
0.0
  0
SPLINE
  5
202
100
AcDbEntity
  8
Layer_1
 62
7
100
AcDbSpline
 70
8
 71
3
 72
8
 73
4
 74
0
 40
0
 40
0
 40
0
 40
0
 40
1
 40
1
 40
1
 40
1
 10
99.090237
 20
83.061529
 30
0.0
 10
103.182460
 20
94.667918
 30
0.0
 10
105.158015
 20
100.841529
 30
0.0
 10
105.934126
 20
104.651529
 30
0.0
  0
SPLINE
  5
203
100
AcDbEntity
  8
Layer_1
 62
7
100
AcDbSpline
 70
8
 71
3
 72
8
 73
4
 74
0
 40
0
 40
0
 40
0
 40
0
 40
1
 40
1
 40
1
 40
1
 10
105.934126
 20
104.651529
 30
0.0
 10
106.921904
 20
109.378751
 30
0.0
 10
106.886626
 20
109.308196
 30
0.0
 10
107.345237
 20
106.627085
 30
0.0
  0
SPLINE
  5
204
100
AcDbEntity
  8
Layer_1
 62
7
100
AcDbSpline
 70
8
 71
3
 72
8
 73
4
 74
0
 40
0
 40
0
 40
0
 40
0
 40
1
 40
1
 40
1
 40
1
 10
107.345237
 20
106.627085
 30
0.0
 10
107.592182
 20
105.286529
 30
0.0
 10
108.509404
 20
101.476529
 30
0.0
 10
109.391348
 20
98.160418
 30
0.0
  0
LWPOLYLINE
  5
205
100
AcDbEntity
  8
Layer_1
 62
7
100
AcDbPolyline
 90
2
 70
0
 10
71.044404
 20
108.108751
 30
0.0
 10
71.044404
 20
108.108751
 30
0.0
  0
SPLINE
  5
206
100
AcDbEntity
  8
Layer_1
 62
7
100
AcDbSpline
 70
8
 71
3
 72
8
 73
4
 74
0
 40
0
 40
0
 40
0
 40
0
 40
1
 40
1
 40
1
 40
1
 10
142.799404
 20
100.418196
 30
0.0
 10
146.856348
 20
92.480696
 30
0.0
 10
151.266071
 20
73.395418
 30
0.0
 10
151.124960
 20
64.399585
 30
0.0
  0
SPLINE
  5
207
100
AcDbEntity
  8
Layer_1
 62
7
100
AcDbSpline
 70
8
 71
3
 72
8
 73
4
 74
0
 40
0
 40
0
 40
0
 40
0
 40
1
 40
1
 40
1
 40
1
 10
151.124960
 20
64.399585
 30
0.0
 10
151.089682
 20
60.589585
 30
0.0
 10
150.631071
 20
59.601807
 30
0.0
 10
148.408571
 20
58.296529
 30
0.0
  0
SPLINE
  5
208
100
AcDbEntity
  8
Layer_1
 62
7
100
AcDbSpline
 70
8
 71
3
 72
8
 73
4
 74
0
 40
0
 40
0
 40
0
 40
0
 40
1
 40
1
 40
1
 40
1
 10
148.408571
 20
58.296529
 30
0.0
 10
147.385515
 20
57.696807
 30
0.0
 10
146.574126
 20
57.590974
 30
0.0
 10
142.799404
 20
57.590974
 30
0.0
  0
SPLINE
  5
209
100
AcDbEntity
  8
Layer_1
 62
7
100
AcDbSpline
 70
8
 71
3
 72
8
 73
4
 74
0
 40
0
 40
0
 40
0
 40
0
 40
1
 40
1
 40
1
 40
1
 10
142.799404
 20
57.590974
 30
0.0
 10
139.659682
 20
57.590974
 30
0.0
 10
137.719404
 20
57.767362
 30
0.0
 10
136.096626
 20
58.225974
 30
0.0
  0
SPLINE
  5
20a
100
AcDbEntity
  8
Layer_1
 62
7
100
AcDbSpline
 70
8
 71
3
 72
8
 73
4
 74
0
 40
0
 40
0
 40
0
 40
0
 40
1
 40
1
 40
1
 40
1
 10
136.096626
 20
58.225974
 30
0.0
 10
132.780515
 20
59.143196
 30
0.0
 10
129.534960
 20
60.730696
 30
0.0
 10
128.829404
 20
61.824307
 30
0.0
  0
SPLINE
  5
20b
100
AcDbEntity
  8
Layer_1
 62
7
100
AcDbSpline
 70
8
 71
3
 72
8
 73
4
 74
0
 40
0
 40
0
 40
0
 40
0
 40
1
 40
1
 40
1
 40
1
 10
128.829404
 20
61.824307
 30
0.0
 10
128.264960
 20
62.706251
 30
0.0
 10
128.264960
 20
62.917918
 30
0.0
 10
128.829404
 20
65.634307
 30
0.0
  0
SPLINE
  5
20c
100
AcDbEntity
  8
Layer_1
 62
7
100
AcDbSpline
 70
8
 71
3
 72
8
 73
4
 74
0
 40
0
 40
0
 40
0
 40
0
 40
1
 40
1
 40
1
 40
1
 10
128.829404
 20
65.634307
 30
0.0
 10
129.146904
 20
67.221807
 30
0.0
 10
131.969126
 20
76.076529
 30
0.0
 10
135.073571
 20
85.319307
 30
0.0
  0
SPLINE
  5
20d
100
AcDbEntity
  8
Layer_1
 62
7
100
AcDbSpline
 70
8
 71
3
 72
8
 73
4
 74
0
 40
0
 40
0
 40
0
 40
0
 40
1
 40
1
 40
1
 40
1
 10
135.073571
 20
85.319307
 30
0.0
 10
138.142737
 20
94.562085
 30
0.0
 10
140.682737
 20
102.499585
 30
0.0
 10
140.682737
 20
102.958196
 30
0.0
  0
SPLINE
  5
20e
100
AcDbEntity
  8
Layer_1
 62
7
100
AcDbSpline
 70
8
 71
3
 72
8
 73
4
 74
0
 40
0
 40
0
 40
0
 40
0
 40
1
 40
1
 40
1
 40
1
 10
140.682737
 20
102.958196
 30
0.0
 10
140.718015
 20
103.804862
 30
0.0
 10
140.718015
 20
103.804862
 30
0.0
 10
141.247182
 20
103.099307
 30
0.0
  0
SPLINE
  5
20f
100
AcDbEntity
  8
Layer_1
 62
7
100
AcDbSpline
 70
8
 71
3
 72
8
 73
4
 74
0
 40
0
 40
0
 40
0
 40
0
 40
1
 40
1
 40
1
 40
1
 10
141.247182
 20
103.099307
 30
0.0
 10
141.564682
 20
102.711251
 30
0.0
 10
142.270237
 20
101.511807
 30
0.0
 10
142.799404
 20
100.418196
 30
0.0
  0
LWPOLYLINE
  5
210
100
AcDbEntity
  8
Layer_1
 62
7
100
AcDbPolyline
 90
2
 70
0
 10
109.391348
 20
98.160418
 30
0.0
 10
109.391348
 20
98.160418
 30
0.0
  0
LWPOLYLINE
  5
211
100
AcDbEntity
  8
Layer_1
 62
7
100
AcDbPolyline
 90
2
 70
0
 10
142.799404
 20
100.418196
 30
0.0
 10
142.799404
 20
100.418196
 30
0.0
  0
ENDSEC
  0
SECTION
  2
OBJECTS
  0
DICTIONARY
  5
C
330
0
100
AcDbDictionary
  3
ACAD_GROUP
350
D
  3
ACAD_MLINESTYLE
350
17
  0
DICTIONARY
  5
D
330
C
100
AcDbDictionary
  0
DICTIONARY
  5
1A
330
C
100
AcDbDictionary
  0
DICTIONARY
  5
17
330
C
100
AcDbDictionary
  3
STANDARD
350
18
  0
DICTIONARY
  5
19
330
C
100
AcDbDictionary
  0
ENDSEC
  0
EOF
