<?xml version="1.0" encoding="UTF-8" standalone="no"?>
<!-- Created with Inkscape (http://www.inkscape.org/) -->

<svg
   xmlns:dc="http://purl.org/dc/elements/1.1/"
   xmlns:cc="http://creativecommons.org/ns#"
   xmlns:rdf="http://www.w3.org/1999/02/22-rdf-syntax-ns#"
   xmlns:svg="http://www.w3.org/2000/svg"
   xmlns="http://www.w3.org/2000/svg"
   xmlns:sodipodi="http://sodipodi.sourceforge.net/DTD/sodipodi-0.dtd"
   xmlns:inkscape="http://www.inkscape.org/namespaces/inkscape"
   width="744.09448819"
   height="1052.3622047"
   id="svg2"
   version="1.1"
   inkscape:version="0.48.2 r9819"
   sodipodi:docname="New document 1">
  <defs
     id="defs4" />
  <sodipodi:namedview
     id="base"
     pagecolor="#ffffff"
     bordercolor="#666666"
     borderopacity="1.0"
     inkscape:pageopacity="0.0"
     inkscape:pageshadow="2"
     inkscape:zoom="0.35"
     inkscape:cx="375"
     inkscape:cy="520"
     inkscape:document-units="px"
     inkscape:current-layer="layer1"
     showgrid="false"
     inkscape:window-width="1920"
     inkscape:window-height="1028"
     inkscape:window-x="-8"
     inkscape:window-y="-8"
     inkscape:window-maximized="1" />
  <metadata
     id="metadata7">
    <rdf:RDF>
      <cc:Work
         rdf:about="">
        <dc:format>image/svg+xml</dc:format>
        <dc:type
           rdf:resource="http://purl.org/dc/dcmitype/StillImage" />
        <dc:title></dc:title>
      </cc:Work>
    </rdf:RDF>
  </metadata>
  <g
     inkscape:label="Layer 1"
     inkscape:groupmode="layer"
     id="layer1">
    <g
       id="g2989"
       transform="matrix(0.125,0,0,-0.125,-417.76786,1213.9247)"
       style="fill:none;stroke:#000000">
      <path
         style="fill:none;stroke:#000000"
         d="m 8209,7415 c 173,-33 306,-102 433,-223 249,-238 330,-574 219,-899 -77,-225 -272,-428 -493,-513 -425,-164 -898,29 -1092,445 -67,144 -91,341 -62,500 88,466 536,777 995,690 z"
         id="path3067"
         inkscape:connector-curvature="0" />
      <path
         style="fill:none;stroke:#000000"
         d="m 4560,7249 c 232,-46 439,-235 517,-474 33,-101 37,-271 9,-375 -139,-522 -780,-695 -1162,-315 -68,67 -90,98 -127,176 -73,150 -92,287 -63,441 28,145 86,250 200,363 169,167 386,231 626,184 z"
         id="path3065"
         inkscape:connector-curvature="0" />
      <path
         style="fill:none;stroke:#000000"
         d="m 2727,6163 c 7,-32 -3,-53 -26,-53 -29,0 -33,13 -19,65 11,42 14,44 26,28 7,-10 15,-28 19,-40 z"
         id="path3063"
         inkscape:connector-curvature="0" />
      <path
         style="fill:none;stroke:#000000"
         d="m 2604,6189 c 20,-9 56,-61 56,-81 0,-2 -33,6 -72,19 -40,12 -93,28 -117,34 -49,12 -45,26 11,39 39,10 86,5 122,-11 z"
         id="path3061"
         inkscape:connector-curvature="0" />
      <path
         style="fill:none;stroke:#000000"
         d="m 10193,6194 c 18,-9 34,-18 37,-21 8,-7 -24,-23 -46,-23 -11,0 -41,-11 -67,-23 l -46,-24 -11,30 c -13,40 -13,64 3,70 27,11 100,6 130,-9 z"
         id="path3059"
         inkscape:connector-curvature="0" />
      <path
         style="fill:none;stroke:#000000"
         d="m 10028,6153 c 7,-21 15,-45 18,-54 6,-16 -21,-31 -78,-45 -24,-5 -28,-3 -28,15 0,42 45,121 68,121 4,0 13,-17 20,-37 z"
         id="path3057"
         inkscape:connector-curvature="0" />
      <path
         style="fill:none;stroke:#000000"
         d="m 2776,6165 c 10,-24 -6,-38 -22,-18 -7,10 -14,21 -14,26 0,13 31,7 36,-8 z"
         id="path3055"
         inkscape:connector-curvature="0" />
      <path
         style="fill:none;stroke:#000000"
         d="m 2535,6124 c 70,-17 80,-25 66,-51 -17,-32 -116,-96 -138,-89 -22,7 -124,151 -115,161 9,9 114,-3 187,-21 z"
         id="path3053"
         inkscape:connector-curvature="0" />
      <path
         style="fill:none;stroke:#000000"
         d="m 10328,6067 c 29,-18 60,-40 69,-49 14,-16 14,-18 -10,-27 -14,-5 -55,-38 -92,-73 l -67,-62 -19,23 c -43,53 -63,186 -32,216 23,24 84,12 151,-28 z"
         id="path3051"
         inkscape:connector-curvature="0" />
      <path
         style="fill:none;stroke:#000000"
         d="m 2378,6053 c 32,-24 62,-70 62,-95 0,-10 -11,-12 -39,-10 -23,2 -77,-7 -130,-22 -49,-14 -99,-26 -111,-26 l -20,0 19,38 c 27,54 107,140 134,144 30,5 46,-1 85,-29 z"
         id="path3049"
         inkscape:connector-curvature="0" />
      <path
         style="fill:none;stroke:#000000"
         d="m 9916,6035 c 2,-16 -4,-29 -17,-35 -22,-13 -25,2 -9,46 12,30 22,26 26,-11 z"
         id="path3047"
         inkscape:connector-curvature="0" />
      <path
         style="fill:none;stroke:#000000"
         d="m 2407,5914 c 12,-32 -54,-196 -86,-213 -13,-7 -34,1 -85,35 -38,24 -84,46 -102,50 -42,8 -43,17 -1,47 43,33 70,46 147,74 77,27 118,29 127,7 z"
         id="path3045"
         inkscape:connector-curvature="0" />
      <path
         style="fill:none;stroke:#000000"
         d="m 10507,5853 c 29,-71 1,-283 -39,-291 -9,-2 -54,33 -100,77 -47,44 -104,91 -127,104 l -42,24 39,25 c 54,36 142,80 177,89 63,15 75,11 92,-28 z"
         id="path3043"
         inkscape:connector-curvature="0" />
      <path
         style="fill:none;stroke:#000000"
         d="m 2188,5733 c 19,-9 50,-32 70,-52 33,-31 35,-35 17,-39 -31,-6 -70,-48 -132,-143 -32,-49 -64,-91 -70,-93 -50,-20 -32,313 19,346 15,10 49,3 96,-19 z"
         id="path3041"
         inkscape:connector-curvature="0" />
      <path
         style="fill:none;stroke:#000000"
         d="m 10273,5631 c 60,-39 179,-237 228,-380 25,-72 24,-77 -10,-49 -25,22 -57,33 -231,82 -85,24 -115,47 -129,99 -11,38 -11,53 4,103 9,32 27,79 41,105 31,63 51,71 97,40 z"
         id="path3039"
         inkscape:connector-curvature="0" />
      <path
         style="fill:none;stroke:#000000"
         d="m 2312,5520 c 14,-41 32,-104 38,-138 12,-59 11,-65 -6,-82 -28,-27 -217,-102 -225,-88 -18,28 58,277 107,351 36,55 54,46 86,-43 z"
         id="path3037"
         inkscape:connector-curvature="0" />
      <path
         style="fill:none;stroke:#000000"
         d="m 10167,5229 c 112,-64 246,-185 265,-240 21,-57 -149,-229 -226,-229 -13,0 -16,14 -16,90 0,120 -29,256 -85,393 -10,24 -1,22 62,-14 z"
         id="path3035"
         inkscape:connector-curvature="0" />
      <path
         style="fill:none;stroke:#000000"
         d="m 2375,5203 c -19,-72 -24,-117 -25,-234 0,-150 -7,-167 -58,-142 -61,30 -144,157 -158,240 -4,30 -1,45 18,72 42,62 97,87 197,90 32,1 33,0 26,-26 z"
         id="path3033"
         inkscape:connector-curvature="0" />
      <path
         style="fill:none;stroke:#000000"
         d="m 2566,5135 c 84,-41 146,-102 137,-135 -3,-12 -59,-79 -123,-148 -65,-70 -126,-142 -138,-160 l -20,-34 -6,29 c -51,244 -54,426 -8,476 23,25 67,17 158,-28 z"
         id="path3031"
         inkscape:connector-curvature="0" />
      <path
         style="fill:none;stroke:#000000"
         d="m 10030,4970 c 32,-17 58,-84 75,-198 13,-91 25,-136 50,-196 6,-13 -29,1 -131,53 -160,81 -231,131 -259,184 l -20,37 24,46 c 14,25 36,53 49,62 44,29 167,36 212,12 z"
         id="path3029"
         inkscape:connector-curvature="0" />
      <path
         style="fill:none;stroke:#000000"
         d="m 2805,4800 c 4,-80 8,-147 10,-150 1,-3 6,-45 9,-95 4,-49 9,-123 12,-162 8,-93 -1,-140 -27,-148 -35,-11 -105,33 -181,114 -140,149 -166,242 -98,356 47,79 144,175 210,208 29,15 54,26 56,24 1,-1 5,-67 9,-147 z"
         id="path3027"
         inkscape:connector-curvature="0" />
      <path
         style="fill:none;stroke:#000000"
         d="m 3184,4900 c 85,-13 150,-48 154,-82 4,-33 -30,-106 -123,-262 -143,-241 -211,-386 -217,-466 -1,-16 -5,-26 -9,-22 -13,12 -106,332 -134,457 -44,198 -35,345 22,370 47,21 187,23 307,5 z"
         id="path3025"
         inkscape:connector-curvature="0" />
      <path
         style="fill:none;stroke:#000000"
         d="m 9645,4767 c 81,-126 169,-298 195,-382 44,-145 25,-232 -64,-292 -64,-44 -115,-57 -211,-57 -95,0 -160,27 -171,70 -15,58 15,219 82,444 62,207 96,310 102,310 4,0 34,-42 67,-93 z"
         id="path3023"
         inkscape:connector-curvature="0" />
      <path
         style="fill:none;stroke:#000000"
         d="m 3508,4729 c -10,-30 -6,-329 6,-404 3,-16 12,-91 21,-165 9,-74 18,-148 20,-165 17,-112 28,-318 19,-333 -19,-29 -59,-37 -122,-24 -137,28 -282,133 -336,244 -88,181 3,503 204,721 60,66 171,157 191,157 4,0 3,-14 -3,-31 z"
         id="path3021"
         inkscape:connector-curvature="0" />
      <path
         style="fill:none;stroke:#000000"
         d="m 9290,4720 c 75,-40 70,-251 -12,-545 -48,-172 -140,-389 -151,-355 -3,8 -10,35 -17,60 -15,56 -89,197 -188,355 -105,168 -172,299 -172,336 0,75 68,128 197,153 78,15 312,12 343,-4 z"
         id="path3019"
         inkscape:connector-curvature="0" />
      <path
         style="fill:none;stroke:#000000"
         d="m 3992,4695 c 82,-21 155,-62 191,-107 53,-67 43,-106 -141,-518 -161,-361 -232,-547 -232,-605 0,-49 -17,-31 -54,58 -131,308 -217,668 -217,904 -1,190 42,265 158,278 32,4 63,8 68,9 27,7 173,-5 227,-19 z"
         id="path3017"
         inkscape:connector-curvature="0" />
      <path
         style="fill:none;stroke:#000000"
         d="m 8593,4523 c 176,-266 380,-695 394,-828 4,-44 1,-56 -26,-96 -84,-125 -376,-255 -598,-266 -119,-6 -147,-1 -168,31 -15,22 -15,31 4,108 11,45 68,243 126,438 117,390 185,644 185,691 0,17 4,28 9,25 5,-3 38,-50 74,-103 z"
         id="path3015"
         inkscape:connector-curvature="0" />
      <path
         style="fill:none;stroke:#000000"
         d="m 8093,4600 c 253,-78 321,-432 156,-814 -104,-242 -280,-473 -440,-576 -34,-22 -64,-38 -66,-36 -2,2 6,25 18,52 40,93 59,194 66,339 8,187 18,166 -222,475 -131,170 -165,281 -110,362 52,77 223,174 359,203 89,19 165,18 239,-5 z"
         id="path3013"
         inkscape:connector-curvature="0" />
      <path
         style="fill:none;stroke:#000000"
         d="m 5072,4556 c 20,-10 39,-24 42,-31 10,-27 -34,-163 -193,-601 -174,-482 -214,-599 -234,-689 l -14,-60 -41,170 c -148,617 -183,955 -113,1094 28,55 143,112 271,135 14,2 75,3 135,2 80,-2 120,-7 147,-20 z"
         id="path3011"
         inkscape:connector-curvature="0" />
      <path
         style="fill:none;stroke:#000000"
         d="m 5935,4566 c 26,-8 73,-31 104,-52 63,-41 196,-173 206,-203 3,-12 -4,-39 -19,-68 -55,-110 -200,-549 -322,-977 -36,-127 -68,-238 -71,-246 -7,-21 -23,13 -87,178 -144,369 -216,674 -216,909 0,124 12,190 49,269 76,163 209,234 356,190 z"
         id="path3009"
         inkscape:connector-curvature="0" />
      <path
         style="fill:none;stroke:#000000"
         d="m 6981,4546 c 42,-7 81,-45 105,-101 13,-31 18,-75 20,-195 4,-299 -58,-682 -163,-1005 -37,-114 -121,-291 -151,-318 -16,-15 -17,-10 -19,81 -3,204 -103,693 -239,1176 -34,120 -42,162 -33,172 16,20 106,78 192,124 70,38 205,81 237,75 8,-1 31,-5 51,-9 z"
         id="path3007"
         inkscape:connector-curvature="0" />
      <path
         style="fill:none;stroke:#000000"
         d="m 4448,4508 c -13,-52 -16,-322 -6,-433 10,-100 33,-282 53,-400 23,-142 35,-245 36,-314 2,-77 -14,-96 -88,-107 -85,-13 -281,2 -369,28 -157,46 -209,97 -193,185 31,163 333,758 512,1010 29,40 55,73 58,73 4,0 2,-19 -3,-42 z"
         id="path3005"
         inkscape:connector-curvature="0" />
      <path
         style="fill:none;stroke:#000000"
         d="m 5356,4357 c 1,-123 6,-176 28,-279 49,-236 140,-559 221,-785 34,-96 35,-98 17,-123 -71,-98 -416,-176 -602,-136 -147,31 -210,99 -210,227 0,340 249,965 475,1192 32,31 60,57 64,57 3,0 6,-69 7,-153 z"
         id="path3003"
         inkscape:connector-curvature="0" />
      <path
         style="fill:none;stroke:#000000"
         d="m 6443,4075 c 25,-93 71,-261 102,-373 68,-250 109,-421 126,-528 11,-77 11,-84 -9,-125 -42,-85 -132,-122 -302,-122 -129,-1 -212,16 -292,60 -54,30 -78,64 -78,115 0,56 56,245 161,545 116,329 172,504 194,612 28,134 27,132 40,56 7,-38 33,-146 58,-240 z"
         id="path3001"
         inkscape:connector-curvature="0" />
      <path
         style="fill:none;stroke:#000000"
         d="m 7390,4139 c 115,-225 240,-766 236,-1021 -1,-108 -14,-136 -77,-173 -29,-17 -52,-20 -159,-20 -89,0 -144,5 -190,18 -94,26 -186,71 -206,102 -16,25 -16,31 0,108 9,45 89,296 177,558 87,262 159,487 159,500 1,24 1,24 16,4 9,-11 29,-45 44,-76 z"
         id="path2991"
         inkscape:connector-curvature="0" />
    </g>
  </g>
</svg>
