999
DXF created by Inkscape
  0
SECTION
  2
HEADER
  9
$ACADVER
  1
AC1014
  9
$HANDSEED
  5
FFFF
  9
$MEASUREMENT
 70
     1
  0
ENDSEC
  0
SECTION
  2
TABLES
  0
TABLE
  2
VPORT
  5
8
330
0
100
AcDbSymbolTable
 70
     4
  0
VPORT
  5
2E
330
8
100
AcDbSymbolTableRecord
100
AcDbViewportTableRecord
  2
*ACTIVE
 70
     0
 10
0.0
 20
0.0
 11
1.0
 21
1.0
 12
210.0
 22
148.5
 13
0.0
 23
0.0
 14
10.0
 24
10.0
 15
10.0
 25
10.0
 16
0.0
 26
0.0
 36
1.0
 17
0.0
 27
0.0
 37
0.0
 40
341.0
 41
1.24
 42
50.0
 43
0.0
 44
0.0
 50
0.0
 51
0.0
 71
     0
 72
   100
 73
     1
 74
     3
 75
     0
 76
     0
 77
     0
 78
     0
  0
ENDTAB
  0
TABLE
  2
LTYPE
  5
5
330
0
100
AcDbSymbolTable
 70
     1
  0
LTYPE
  5
14
330
5
100
AcDbSymbolTableRecord
100
AcDbLinetypeTableRecord
  2
BYBLOCK
 70
     0
  3

 72
    65
 73
     0
 40
0.0
  0
LTYPE
  5
15
330
5
100
AcDbSymbolTableRecord
100
AcDbLinetypeTableRecord
  2
BYLAYER
 70
     0
  3

 72
    65
 73
     0
 40
0.0
  0
LTYPE
  5
16
330
5
100
AcDbSymbolTableRecord
100
AcDbLinetypeTableRecord
  2
CONTINUOUS
 70
     0
  3
Solid line
 72
    65
 73
     0
 40
0.0
  0
ENDTAB
  0
TABLE
  2
LAYER
  5
2
100
AcDbSymbolTable
 70
2
  0
LAYER
  5
50
100
AcDbSymbolTableRecord
100
AcDbLayerTableRecord
  2
0
 70
0
  6
CONTINUOUS
  0
LAYER
  5
51
100
AcDbSymbolTableRecord
100
AcDbLayerTableRecord
  2
Layer_1
 70
0
  6
CONTINUOUS
  0
ENDTAB
  0
TABLE
  2
STYLE
  5
3
330
0
100
AcDbSymbolTable
 70
     1
  0
STYLE
  5
11
330
3
100
AcDbSymbolTableRecord
100
AcDbTextStyleTableRecord
  2
STANDARD
 70
     0
 40
0.0
 41
1.0
 50
0.0
 71
     0
 42
2.5
  3
txt
  4

  0
ENDTAB
  0
TABLE
  2
VIEW
  5
6
330
0
100
AcDbSymbolTable
 70
     0
  0
ENDTAB
  0
TABLE
  2
UCS
  5
7
330
0
100
AcDbSymbolTable
 70
     0
  0
ENDTAB
  0
TABLE
  2
APPID
  5
9
330
0
100
AcDbSymbolTable
 70
     2
  0
APPID
  5
12
330
9
100
AcDbSymbolTableRecord
100
AcDbRegAppTableRecord
  2
ACAD
 70
     0
  0
ENDTAB
  0
TABLE
  2
DIMSTYLE
  5
A
330
0
100
AcDbSymbolTable
 70
     1
  0
DIMSTYLE
105
27
330
A
100
AcDbSymbolTableRecord
100
AcDbDimStyleTableRecord
  2
ISO-25
 70
     0
  3

  4

  5

  6

  7

 40
1.0
 41
2.5
 42
0.625
 43
3.75
 44
1.25
 45
0.0
 46
0.0
 47
0.0
 48
0.0
140
2.5
141
2.5
142
0.0
143
0.03937007874016
144
1.0
145
0.0
146
1.0
147
0.625
 71
     0
 72
     0
 73
     0
 74
     0
 75
     0
 76
     0
 77
     1
 78
     8
170
     0
171
     3
172
     1
173
     0
174
     0
175
     0
176
     0
177
     0
178
     0
270
     2
271
     2
272
     2
273
     2
274
     3
340
11
275
     0
280
     0
281
     0
282
     0
283
     0
284
     8
285
     0
286
     0
287
     3
288
     0
  0
ENDTAB
  0
TABLE
  2
BLOCK_RECORD
  5
1
330
0
100
AcDbSymbolTable
 70
     1
  0
BLOCK_RECORD
  5
1F
330
1
100
AcDbSymbolTableRecord
100
AcDbBlockTableRecord
  2
*MODEL_SPACE
  0
BLOCK_RECORD
  5
1B
330
1
100
AcDbSymbolTableRecord
100
AcDbBlockTableRecord
  2
*PAPER_SPACE
  0
ENDTAB
  0
ENDSEC
  0
SECTION
  2
BLOCKS
  0
BLOCK
  5
20
330
1F
100
AcDbEntity
  8
0
100
AcDbBlockBegin
  2
*MODEL_SPACE
 70
     0
 10
0.0
 20
0.0
 30
0.0
  3
*MODEL_SPACE
  1

  0
ENDBLK
  5
21
330
1F
100
AcDbEntity
  8
0
100
AcDbBlockEnd
  0
BLOCK
  5
1C
330
1B
100
AcDbEntity
 67
     1
  8
0
100
AcDbBlockBegin
  2
*PAPER_SPACE
  1

  0
ENDBLK
  5
1D
330
1B
100
AcDbEntity
 67
     1
  8
0
100
AcDbBlockEnd
  0
ENDSEC
  0
SECTION
  2
ENTITIES
  0
SPLINE
  5
100
100
AcDbEntity
  8
Layer_1
 62
7
100
AcDbSpline
 70
8
 71
3
 72
8
 73
4
 74
0
 40
0
 40
0
 40
0
 40
0
 40
1
 40
1
 40
1
 40
1
 10
127.187032
 20
183.550610
 30
0.0
 10
119.498935
 20
182.720440
 30
0.0
 10
113.200472
 20
182.016601
 30
0.0
 10
113.146330
 20
181.980506
 30
0.0
  0
SPLINE
  5
101
100
AcDbEntity
  8
Layer_1
 62
7
100
AcDbSpline
 70
8
 71
3
 72
8
 73
4
 74
0
 40
0
 40
0
 40
0
 40
0
 40
1
 40
1
 40
1
 40
1
 10
113.146330
 20
181.980506
 30
0.0
 10
113.110236
 20
181.944412
 30
0.0
 10
113.164377
 20
178.551543
 30
0.0
 10
113.272660
 20
174.436787
 30
0.0
  0
SPLINE
  5
102
100
AcDbEntity
  8
Layer_1
 62
7
100
AcDbSpline
 70
8
 71
3
 72
8
 73
4
 74
0
 40
0
 40
0
 40
0
 40
0
 40
1
 40
1
 40
1
 40
1
 10
113.272660
 20
174.436787
 30
0.0
 10
113.362896
 20
170.322032
 30
0.0
 10
113.453132
 20
166.153135
 30
0.0
 10
113.453132
 20
165.160540
 30
0.0
  0
SPLINE
  5
103
100
AcDbEntity
  8
Layer_1
 62
7
100
AcDbSpline
 70
8
 71
3
 72
8
 73
4
 74
0
 40
0
 40
0
 40
0
 40
0
 40
1
 40
1
 40
1
 40
1
 10
115.095425
 20
162.200803
 30
0.0
 10
123.108370
 20
156.660321
 30
0.0
 10
129.009796
 20
148.557140
 30
0.0
 10
132.510948
 20
138.360486
 30
0.0
  0
LWPOLYLINE
  5
104
100
AcDbEntity
  8
Layer_1
 62
7
100
AcDbPolyline
 90
3
 70
0
 10
113.453132
 20
165.160540
 30
0.0
 10
113.453132
 20
163.337775
 30
0.0
 10
115.095425
 20
162.200803
 30
0.0
  0
SPLINE
  5
105
100
AcDbEntity
  8
Layer_1
 62
7
100
AcDbSpline
 70
8
 71
3
 72
8
 73
4
 74
0
 40
0
 40
0
 40
0
 40
0
 40
1
 40
1
 40
1
 40
1
 10
140.253186
 20
137.259609
 30
0.0
 10
144.331847
 20
137.187420
 30
0.0
 10
152.814019
 20
137.097184
 30
0.0
 10
159.112483
 20
137.024995
 30
0.0
  0
LWPOLYLINE
  5
106
100
AcDbEntity
  8
Layer_1
 62
7
100
AcDbPolyline
 90
3
 70
0
 10
132.510948
 20
138.360486
 30
0.0
 10
132.853844
 20
137.367892
 30
0.0
 10
140.253186
 20
137.259609
 30
0.0
  0
SPLINE
  5
107
100
AcDbEntity
  8
Layer_1
 62
7
100
AcDbSpline
 70
8
 71
3
 72
8
 73
4
 74
0
 40
0
 40
0
 40
0
 40
0
 40
1
 40
1
 40
1
 40
1
 10
171.095806
 20
138.757524
 30
0.0
 10
173.315609
 20
146.878753
 30
0.0
 10
177.664978
 20
154.566849
 30
0.0
 10
183.458121
 20
160.594605
 30
0.0
  0
LWPOLYLINE
  5
108
100
AcDbEntity
  8
Layer_1
 62
7
100
AcDbPolyline
 90
3
 70
0
 10
159.112483
 20
137.024995
 30
0.0
 10
170.590485
 20
136.898665
 30
0.0
 10
171.095806
 20
138.757524
 30
0.0
  0
SPLINE
  5
109
100
AcDbEntity
  8
Layer_1
 62
7
100
AcDbSpline
 70
8
 71
3
 72
8
 73
4
 74
0
 40
0
 40
0
 40
0
 40
0
 40
1
 40
1
 40
1
 40
1
 10
185.118461
 20
171.061966
 30
0.0
 10
185.010178
 20
175.754231
 30
0.0
 10
184.883847
 20
179.616326
 30
0.0
 10
184.829706
 20
179.652421
 30
0.0
  0
SPLINE
  5
10a
100
AcDbEntity
  8
Layer_1
 62
7
100
AcDbSpline
 70
8
 71
3
 72
8
 73
4
 74
0
 40
0
 40
0
 40
0
 40
0
 40
1
 40
1
 40
1
 40
1
 10
184.829706
 20
179.652421
 30
0.0
 10
184.793612
 20
179.706562
 30
0.0
 10
178.874138
 20
180.771346
 30
0.0
 10
171.673316
 20
182.034648
 30
0.0
  0
LWPOLYLINE
  5
10b
100
AcDbEntity
  8
Layer_1
 62
7
100
AcDbPolyline
 90
3
 70
0
 10
183.458121
 20
160.594605
 30
0.0
 10
185.335027
 20
162.543700
 30
0.0
 10
185.118461
 20
171.061966
 30
0.0
  0
SPLINE
  5
10c
100
AcDbEntity
  8
Layer_1
 62
7
100
AcDbSpline
 70
8
 71
3
 72
8
 73
4
 74
0
 40
0
 40
0
 40
0
 40
0
 40
1
 40
1
 40
1
 40
1
 10
150.864924
 20
184.723677
 30
0.0
 10
146.623838
 20
184.940243
 30
0.0
 10
142.689554
 20
185.102667
 30
0.0
 10
142.148139
 20
185.084620
 30
0.0
  0
SPLINE
  5
10d
100
AcDbEntity
  8
Layer_1
 62
7
100
AcDbSpline
 70
8
 71
3
 72
8
 73
4
 74
0
 40
0
 40
0
 40
0
 40
0
 40
1
 40
1
 40
1
 40
1
 10
142.148139
 20
185.084620
 30
0.0
 10
141.606724
 20
185.066573
 30
0.0
 10
134.875128
 20
184.380780
 30
0.0
 10
127.187032
 20
183.550610
 30
0.0
  0
LWPOLYLINE
  5
10e
100
AcDbEntity
  8
Layer_1
 62
7
100
AcDbPolyline
 90
3
 70
0
 10
171.673316
 20
182.034648
 30
0.0
 10
158.607162
 20
184.344686
 30
0.0
 10
150.864924
 20
184.723677
 30
0.0
  0
SPLINE
  5
10f
100
AcDbEntity
  8
Layer_1
 62
7
100
AcDbSpline
 70
8
 71
3
 72
8
 73
4
 74
0
 40
0
 40
0
 40
0
 40
0
 40
1
 40
1
 40
1
 40
1
 10
57.687364
 20
174.689448
 30
0.0
 10
51.876174
 20
173.859278
 30
0.0
 10
47.093673
 20
173.137391
 30
0.0
 10
47.057579
 20
173.083249
 30
0.0
  0
SPLINE
  5
110
100
AcDbEntity
  8
Layer_1
 62
7
100
AcDbSpline
 70
8
 71
3
 72
8
 73
4
 74
0
 40
0
 40
0
 40
0
 40
0
 40
1
 40
1
 40
1
 40
1
 10
47.057579
 20
173.083249
 30
0.0
 10
46.985390
 20
173.011061
 30
0.0
 10
49.493947
 20
142.024063
 30
0.0
 10
49.656372
 20
140.959279
 30
0.0
  0
SPLINE
  5
111
100
AcDbEntity
  8
Layer_1
 62
7
100
AcDbSpline
 70
8
 71
3
 72
8
 73
4
 74
0
 40
0
 40
0
 40
0
 40
0
 40
1
 40
1
 40
1
 40
1
 10
49.656372
 20
140.959279
 30
0.0
 10
49.746607
 20
140.435911
 30
0.0
 10
49.945126
 20
140.309581
 30
0.0
 10
53.464325
 20
138.649241
 30
0.0
  0
SPLINE
  5
112
100
AcDbEntity
  8
Layer_1
 62
7
100
AcDbSpline
 70
8
 71
3
 72
8
 73
4
 74
0
 40
0
 40
0
 40
0
 40
0
 40
1
 40
1
 40
1
 40
1
 10
53.464325
 20
138.649241
 30
0.0
 10
55.521703
 20
137.692741
 30
0.0
 10
57.218138
 20
136.916712
 30
0.0
 10
57.236185
 20
136.952807
 30
0.0
  0
SPLINE
  5
113
100
AcDbEntity
  8
Layer_1
 62
7
100
AcDbSpline
 70
8
 71
3
 72
8
 73
4
 74
0
 40
0
 40
0
 40
0
 40
0
 40
1
 40
1
 40
1
 40
1
 10
57.236185
 20
136.952807
 30
0.0
 10
57.254232
 20
136.988901
 30
0.0
 10
57.958072
 20
138.631194
 30
0.0
 10
58.770195
 20
140.616383
 30
0.0
  0
SPLINE
  5
114
100
AcDbEntity
  8
Layer_1
 62
7
100
AcDbSpline
 70
8
 71
3
 72
8
 73
4
 74
0
 40
0
 40
0
 40
0
 40
0
 40
1
 40
1
 40
1
 40
1
 10
58.770195
 20
140.616383
 30
0.0
 10
62.505960
 20
149.676065
 30
0.0
 10
65.772498
 20
155.306783
 30
0.0
 10
69.760924
 20
159.511774
 30
0.0
  0
LWPOLYLINE
  5
115
100
AcDbEntity
  8
Layer_1
 62
7
100
AcDbPolyline
 90
2
 70
0
 10
127.187032
 20
183.550610
 30
0.0
 10
127.187032
 20
183.550610
 30
0.0
  0
SPLINE
  5
116
100
AcDbEntity
  8
Layer_1
 62
7
100
AcDbSpline
 70
8
 71
3
 72
8
 73
4
 74
0
 40
0
 40
0
 40
0
 40
0
 40
1
 40
1
 40
1
 40
1
 10
69.598499
 20
175.808373
 30
0.0
 10
69.111225
 20
176.061033
 30
0.0
 10
68.605904
 20
176.259552
 30
0.0
 10
68.479574
 20
176.241505
 30
0.0
  0
SPLINE
  5
117
100
AcDbEntity
  8
Layer_1
 62
7
100
AcDbSpline
 70
8
 71
3
 72
8
 73
4
 74
0
 40
0
 40
0
 40
0
 40
0
 40
1
 40
1
 40
1
 40
1
 10
68.479574
 20
176.241505
 30
0.0
 10
68.353244
 20
176.223458
 30
0.0
 10
63.498554
 20
175.537665
 30
0.0
 10
57.687364
 20
174.689448
 30
0.0
  0
LWPOLYLINE
  5
118
100
AcDbEntity
  8
Layer_1
 62
7
100
AcDbPolyline
 90
7
 70
0
 10
69.760924
 20
159.511774
 30
0.0
 10
71.222745
 20
161.063831
 30
0.0
 10
69.887254
 20
166.062899
 30
0.0
 10
68.533716
 20
171.080013
 30
0.0
 10
69.508263
 20
173.209580
 30
0.0
 10
70.482811
 20
175.357193
 30
0.0
 10
69.598499
 20
175.808373
 30
0.0
  0
SPLINE
  5
119
100
AcDbEntity
  8
Layer_1
 62
7
100
AcDbSpline
 70
8
 71
3
 72
8
 73
4
 74
0
 40
0
 40
0
 40
0
 40
0
 40
1
 40
1
 40
1
 40
1
 10
96.236128
 20
174.707495
 30
0.0
 10
89.594768
 20
174.274363
 30
0.0
 10
84.144521
 20
173.895372
 30
0.0
 10
84.126474
 20
173.877325
 30
0.0
  0
SPLINE
  5
11a
100
AcDbEntity
  8
Layer_1
 62
7
100
AcDbSpline
 70
8
 71
3
 72
8
 73
4
 74
0
 40
0
 40
0
 40
0
 40
0
 40
1
 40
1
 40
1
 40
1
 10
84.126474
 20
173.877325
 30
0.0
 10
84.108427
 20
173.841231
 30
0.0
 10
84.361087
 20
171.116107
 30
0.0
 10
84.685937
 20
167.813475
 30
0.0
  0
LWPOLYLINE
  5
11b
100
AcDbEntity
  8
Layer_1
 62
7
100
AcDbPolyline
 90
2
 70
0
 10
57.687364
 20
174.689448
 30
0.0
 10
57.687364
 20
174.689448
 30
0.0
  0
SPLINE
  5
11c
100
AcDbEntity
  8
Layer_1
 62
7
100
AcDbSpline
 70
8
 71
3
 72
8
 73
4
 74
0
 40
0
 40
0
 40
0
 40
0
 40
1
 40
1
 40
1
 40
1
 10
86.382371
 20
159.908812
 30
0.0
 10
86.995975
 20
158.880123
 30
0.0
 10
87.573484
 20
157.977765
 30
0.0
 10
87.663720
 20
157.923623
 30
0.0
  0
SPLINE
  5
11d
100
AcDbEntity
  8
Layer_1
 62
7
100
AcDbSpline
 70
8
 71
3
 72
8
 73
4
 74
0
 40
0
 40
0
 40
0
 40
0
 40
1
 40
1
 40
1
 40
1
 10
87.663720
 20
157.923623
 30
0.0
 10
87.753956
 20
157.869482
 30
0.0
 10
88.187088
 20
158.122142
 30
0.0
 10
88.620221
 20
158.465038
 30
0.0
  0
SPLINE
  5
11e
100
AcDbEntity
  8
Layer_1
 62
7
100
AcDbSpline
 70
8
 71
3
 72
8
 73
4
 74
0
 40
0
 40
0
 40
0
 40
0
 40
1
 40
1
 40
1
 40
1
 10
88.620221
 20
158.465038
 30
0.0
 10
89.558674
 20
159.259114
 30
0.0
 10
91.652146
 20
160.233661
 30
0.0
 10
93.240297
 20
160.630699
 30
0.0
  0
SPLINE
  5
11f
100
AcDbEntity
  8
Layer_1
 62
7
100
AcDbSpline
 70
8
 71
3
 72
8
 73
4
 74
0
 40
0
 40
0
 40
0
 40
0
 40
1
 40
1
 40
1
 40
1
 10
93.240297
 20
160.630699
 30
0.0
 10
96.236128
 20
161.388681
 30
0.0
 10
100.531355
 20
161.136020
 30
0.0
 10
104.429545
 20
159.944907
 30
0.0
  0
LWPOLYLINE
  5
120
100
AcDbEntity
  8
Layer_1
 62
7
100
AcDbPolyline
 90
3
 70
0
 10
84.685937
 20
167.813475
 30
0.0
 10
85.263446
 20
161.803766
 30
0.0
 10
86.382371
 20
159.908812
 30
0.0
  0
SPLINE
  5
121
100
AcDbEntity
  8
Layer_1
 62
7
100
AcDbSpline
 70
8
 71
3
 72
8
 73
4
 74
0
 40
0
 40
0
 40
0
 40
0
 40
1
 40
1
 40
1
 40
1
 10
109.410565
 20
168.751928
 30
0.0
 10
108.724773
 20
175.573759
 30
0.0
 10
108.742820
 20
175.537665
 30
0.0
 10
108.508206
 20
175.519618
 30
0.0
  0
SPLINE
  5
122
100
AcDbEntity
  8
Layer_1
 62
7
100
AcDbSpline
 70
8
 71
3
 72
8
 73
4
 74
0
 40
0
 40
0
 40
0
 40
0
 40
1
 40
1
 40
1
 40
1
 10
108.508206
 20
175.519618
 30
0.0
 10
108.399923
 20
175.501571
 30
0.0
 10
102.877488
 20
175.140627
 30
0.0
 10
96.236128
 20
174.707495
 30
0.0
  0
LWPOLYLINE
  5
123
100
AcDbEntity
  8
Layer_1
 62
7
100
AcDbPolyline
 90
5
 70
0
 10
104.429545
 20
159.944907
 30
0.0
 10
106.360593
 20
159.367397
 30
0.0
 10
108.129216
 20
161.515011
 30
0.0
 10
109.897839
 20
163.680672
 30
0.0
 10
109.410565
 20
168.751928
 30
0.0
  0
SPLINE
  5
124
100
AcDbEntity
  8
Layer_1
 62
7
100
AcDbSpline
 70
8
 71
3
 72
8
 73
4
 74
0
 40
0
 40
0
 40
0
 40
0
 40
1
 40
1
 40
1
 40
1
 10
188.457188
 20
172.162844
 30
0.0
 10
188.403046
 20
170.989777
 30
0.0
 10
188.294763
 20
168.697786
 30
0.0
 10
188.240622
 20
167.055493
 30
0.0
  0
LWPOLYLINE
  5
125
100
AcDbEntity
  8
Layer_1
 62
7
100
AcDbPolyline
 90
2
 70
0
 10
96.236128
 20
174.707495
 30
0.0
 10
96.236128
 20
174.707495
 30
0.0
  0
SPLINE
  5
126
100
AcDbEntity
  8
Layer_1
 62
7
100
AcDbSpline
 70
8
 71
3
 72
8
 73
4
 74
0
 40
0
 40
0
 40
0
 40
0
 40
1
 40
1
 40
1
 40
1
 10
189.251264
 20
161.280397
 30
0.0
 10
189.864867
 20
159.746388
 30
0.0
 10
190.424330
 20
158.410897
 30
0.0
 10
190.514566
 20
158.338708
 30
0.0
  0
SPLINE
  5
127
100
AcDbEntity
  8
Layer_1
 62
7
100
AcDbSpline
 70
8
 71
3
 72
8
 73
4
 74
0
 40
0
 40
0
 40
0
 40
0
 40
1
 40
1
 40
1
 40
1
 10
190.514566
 20
158.338708
 30
0.0
 10
190.586754
 20
158.248472
 30
0.0
 10
191.290594
 20
158.302614
 30
0.0
 10
192.048576
 20
158.465038
 30
0.0
  0
SPLINE
  5
128
100
AcDbEntity
  8
Layer_1
 62
7
100
AcDbSpline
 70
8
 71
3
 72
8
 73
4
 74
0
 40
0
 40
0
 40
0
 40
0
 40
1
 40
1
 40
1
 40
1
 10
192.048576
 20
158.465038
 30
0.0
 10
196.975454
 20
159.493727
 30
0.0
 10
201.595531
 20
159.168878
 30
0.0
 10
205.620050
 20
157.526585
 30
0.0
  0
LWPOLYLINE
  5
129
100
AcDbEntity
  8
Layer_1
 62
7
100
AcDbPolyline
 90
3
 70
0
 10
188.240622
 20
167.055493
 30
0.0
 10
188.132339
 20
164.077709
 30
0.0
 10
189.251264
 20
161.280397
 30
0.0
  0
SPLINE
  5
12a
100
AcDbEntity
  8
Layer_1
 62
7
100
AcDbSpline
 70
8
 71
3
 72
8
 73
4
 74
0
 40
0
 40
0
 40
0
 40
0
 40
1
 40
1
 40
1
 40
1
 10
208.525645
 20
165.828285
 30
0.0
 10
208.327127
 20
168.445126
 30
0.0
 10
208.092513
 20
170.628834
 30
0.0
 10
208.038372
 20
170.719070
 30
0.0
  0
SPLINE
  5
12b
100
AcDbEntity
  8
Layer_1
 62
7
100
AcDbSpline
 70
8
 71
3
 72
8
 73
4
 74
0
 40
0
 40
0
 40
0
 40
0
 40
1
 40
1
 40
1
 40
1
 10
208.038372
 20
170.719070
 30
0.0
 10
207.930089
 20
170.827353
 30
0.0
 10
189.233216
 20
174.274363
 30
0.0
 10
188.727895
 20
174.274363
 30
0.0
  0
SPLINE
  5
12c
100
AcDbEntity
  8
Layer_1
 62
7
100
AcDbSpline
 70
8
 71
3
 72
8
 73
4
 74
0
 40
0
 40
0
 40
0
 40
0
 40
1
 40
1
 40
1
 40
1
 10
188.727895
 20
174.274363
 30
0.0
 10
188.637660
 20
174.274363
 30
0.0
 10
188.529377
 20
173.317863
 30
0.0
 10
188.457188
 20
172.162844
 30
0.0
  0
LWPOLYLINE
  5
12d
100
AcDbEntity
  8
Layer_1
 62
7
100
AcDbPolyline
 90
5
 70
0
 10
205.620050
 20
157.526585
 30
0.0
 10
206.883353
 20
157.003217
 30
0.0
 10
207.893994
 20
159.042548
 30
0.0
 10
208.904636
 20
161.081879
 30
0.0
 10
208.525645
 20
165.828285
 30
0.0
  0
SPLINE
  5
12e
100
AcDbEntity
  8
Layer_1
 62
7
100
AcDbSpline
 70
8
 71
3
 72
8
 73
4
 74
0
 40
0
 40
0
 40
0
 40
0
 40
1
 40
1
 40
1
 40
1
 10
217.585327
 20
171.910183
 30
0.0
 10
216.538591
 20
171.025872
 30
0.0
 10
215.582091
 20
170.195702
 30
0.0
 10
215.473808
 20
170.069371
 30
0.0
  0
SPLINE
  5
12f
100
AcDbEntity
  8
Layer_1
 62
7
100
AcDbSpline
 70
8
 71
3
 72
8
 73
4
 74
0
 40
0
 40
0
 40
0
 40
0
 40
1
 40
1
 40
1
 40
1
 10
215.473808
 20
170.069371
 30
0.0
 10
215.293336
 20
169.888900
 30
0.0
 10
215.473808
 20
169.654286
 30
0.0
 10
216.322025
 20
168.950447
 30
0.0
  0
LWPOLYLINE
  5
130
100
AcDbEntity
  8
Layer_1
 62
7
100
AcDbPolyline
 90
2
 70
0
 10
188.457188
 20
172.162844
 30
0.0
 10
188.457188
 20
172.162844
 30
0.0
  0
SPLINE
  5
131
100
AcDbEntity
  8
Layer_1
 62
7
100
AcDbSpline
 70
8
 71
3
 72
8
 73
4
 74
0
 40
0
 40
0
 40
0
 40
0
 40
1
 40
1
 40
1
 40
1
 10
219.119337
 20
161.821813
 30
0.0
 10
225.381706
 20
155.631632
 30
0.0
 10
229.117471
 20
148.322526
 30
0.0
 10
231.030472
 20
138.522911
 30
0.0
  0
SPLINE
  5
132
100
AcDbEntity
  8
Layer_1
 62
7
100
AcDbSpline
 70
8
 71
3
 72
8
 73
4
 74
0
 40
0
 40
0
 40
0
 40
0
 40
1
 40
1
 40
1
 40
1
 10
231.030472
 20
138.522911
 30
0.0
 10
231.265085
 20
137.331797
 30
0.0
 10
231.481651
 20
136.321156
 30
0.0
 10
231.517745
 20
136.303108
 30
0.0
  0
SPLINE
  5
133
100
AcDbEntity
  8
Layer_1
 62
7
100
AcDbSpline
 70
8
 71
3
 72
8
 73
4
 74
0
 40
0
 40
0
 40
0
 40
0
 40
1
 40
1
 40
1
 40
1
 10
231.517745
 20
136.303108
 30
0.0
 10
231.553840
 20
136.267014
 30
0.0
 10
236.931898
 20
136.682099
 30
0.0
 10
237.004086
 20
136.718194
 30
0.0
  0
SPLINE
  5
134
100
AcDbEntity
  8
Layer_1
 62
7
100
AcDbSpline
 70
8
 71
3
 72
8
 73
4
 74
0
 40
0
 40
0
 40
0
 40
0
 40
1
 40
1
 40
1
 40
1
 10
237.004086
 20
136.718194
 30
0.0
 10
237.058228
 20
136.736241
 30
0.0
 10
236.859709
 20
170.213749
 30
0.0
 10
236.805567
 20
170.249843
 30
0.0
  0
SPLINE
  5
135
100
AcDbEntity
  8
Layer_1
 62
7
100
AcDbSpline
 70
8
 71
3
 72
8
 73
4
 74
0
 40
0
 40
0
 40
0
 40
0
 40
1
 40
1
 40
1
 40
1
 10
236.805567
 20
170.249843
 30
0.0
 10
236.769473
 20
170.322032
 30
0.0
 10
219.877318
 20
173.552476
 30
0.0
 10
219.660752
 20
173.534429
 30
0.0
  0
SPLINE
  5
136
100
AcDbEntity
  8
Layer_1
 62
7
100
AcDbSpline
 70
8
 71
3
 72
8
 73
4
 74
0
 40
0
 40
0
 40
0
 40
0
 40
1
 40
1
 40
1
 40
1
 10
219.660752
 20
173.534429
 30
0.0
 10
219.570516
 20
173.534429
 30
0.0
 10
218.632063
 20
172.794495
 30
0.0
 10
217.585327
 20
171.910183
 30
0.0
  0
LWPOLYLINE
  5
137
100
AcDbEntity
  8
Layer_1
 62
7
100
AcDbPolyline
 90
5
 70
0
 10
216.322025
 20
168.950447
 30
0.0
 10
217.422902
 20
168.048088
 30
0.0
 10
217.314619
 20
165.882427
 30
0.0
 10
217.206336
 20
163.716766
 30
0.0
 10
219.119337
 20
161.821813
 30
0.0
  0
SPLINE
  5
138
100
AcDbEntity
  8
Layer_1
 62
7
100
AcDbSpline
 70
8
 71
3
 72
8
 73
4
 74
0
 40
0
 40
0
 40
0
 40
0
 40
1
 40
1
 40
1
 40
1
 10
96.055656
 20
134.841287
 30
0.0
 10
92.283797
 20
134.065259
 30
0.0
 10
89.215777
 20
132.459060
 30
0.0
 10
86.418465
 20
129.806126
 30
0.0
  0
SPLINE
  5
139
100
AcDbEntity
  8
Layer_1
 62
7
100
AcDbSpline
 70
8
 71
3
 72
8
 73
4
 74
0
 40
0
 40
0
 40
0
 40
0
 40
1
 40
1
 40
1
 40
1
 10
86.418465
 20
129.806126
 30
0.0
 10
81.617917
 20
125.276285
 30
0.0
 10
78.910841
 20
118.310076
 30
0.0
 10
78.748416
 20
110.206895
 30
0.0
  0
LWPOLYLINE
  5
13a
100
AcDbEntity
  8
Layer_1
 62
7
100
AcDbPolyline
 90
2
 70
0
 10
217.585327
 20
171.910183
 30
0.0
 10
217.585327
 20
171.910183
 30
0.0
  0
SPLINE
  5
13b
100
AcDbEntity
  8
Layer_1
 62
7
100
AcDbSpline
 70
8
 71
3
 72
8
 73
4
 74
0
 40
0
 40
0
 40
0
 40
0
 40
1
 40
1
 40
1
 40
1
 10
79.885388
 20
107.662243
 30
0.0
 10
80.535087
 20
107.590054
 30
0.0
 10
81.726200
 20
107.499819
 30
0.0
 10
82.556370
 20
107.427630
 30
0.0
  0
LWPOLYLINE
  5
13c
100
AcDbEntity
  8
Layer_1
 62
7
100
AcDbPolyline
 90
3
 70
0
 10
78.748416
 20
110.206895
 30
0.0
 10
78.712322
 20
107.770526
 30
0.0
 10
79.885388
 20
107.662243
 30
0.0
  0
SPLINE
  5
13d
100
AcDbEntity
  8
Layer_1
 62
7
100
AcDbSpline
 70
8
 71
3
 72
8
 73
4
 74
0
 40
0
 40
0
 40
0
 40
0
 40
1
 40
1
 40
1
 40
1
 10
84.036238
 20
109.466961
 30
0.0
 10
84.036238
 20
113.148584
 30
0.0
 10
84.722031
 20
115.657141
 30
0.0
 10
86.165805
 20
117.263340
 30
0.0
  0
SPLINE
  5
13e
100
AcDbEntity
  8
Layer_1
 62
7
100
AcDbSpline
 70
8
 71
3
 72
8
 73
4
 74
0
 40
0
 40
0
 40
0
 40
0
 40
1
 40
1
 40
1
 40
1
 10
86.165805
 20
117.263340
 30
0.0
 10
87.501296
 20
118.761255
 30
0.0
 10
88.620221
 20
119.031963
 30
0.0
 10
90.262513
 20
118.255934
 30
0.0
  0
SPLINE
  5
13f
100
AcDbEntity
  8
Layer_1
 62
7
100
AcDbSpline
 70
8
 71
3
 72
8
 73
4
 74
0
 40
0
 40
0
 40
0
 40
0
 40
1
 40
1
 40
1
 40
1
 10
90.262513
 20
118.255934
 30
0.0
 10
91.850665
 20
117.516000
 30
0.0
 10
93.474910
 20
115.404481
 30
0.0
 10
94.684071
 20
112.516933
 30
0.0
  0
SPLINE
  5
140
100
AcDbEntity
  8
Layer_1
 62
7
100
AcDbSpline
 70
8
 71
3
 72
8
 73
4
 74
0
 40
0
 40
0
 40
0
 40
0
 40
1
 40
1
 40
1
 40
1
 10
94.684071
 20
112.516933
 30
0.0
 10
95.063062
 20
111.632621
 30
0.0
 10
95.405958
 20
111.073159
 30
0.0
 10
95.622524
 20
111.000970
 30
0.0
  0
SPLINE
  5
141
100
AcDbEntity
  8
Layer_1
 62
7
100
AcDbSpline
 70
8
 71
3
 72
8
 73
4
 74
0
 40
0
 40
0
 40
0
 40
0
 40
1
 40
1
 40
1
 40
1
 10
95.622524
 20
111.000970
 30
0.0
 10
96.290270
 20
110.802451
 30
0.0
 10
96.759496
 20
111.361914
 30
0.0
 10
97.300911
 20
113.004207
 30
0.0
  0
SPLINE
  5
142
100
AcDbEntity
  8
Layer_1
 62
7
100
AcDbSpline
 70
8
 71
3
 72
8
 73
4
 74
0
 40
0
 40
0
 40
0
 40
0
 40
1
 40
1
 40
1
 40
1
 10
97.300911
 20
113.004207
 30
0.0
 10
98.113034
 20
115.548858
 30
0.0
 10
99.538761
 20
117.389670
 30
0.0
 10
101.253242
 20
118.165698
 30
0.0
  0
SPLINE
  5
143
100
AcDbEntity
  8
Layer_1
 62
7
100
AcDbSpline
 70
8
 71
3
 72
8
 73
4
 74
0
 40
0
 40
0
 40
0
 40
0
 40
1
 40
1
 40
1
 40
1
 10
101.253242
 20
118.165698
 30
0.0
 10
102.245837
 20
118.616878
 30
0.0
 10
103.256479
 20
118.598831
 30
0.0
 10
104.339309
 20
118.075463
 30
0.0
  0
SPLINE
  5
144
100
AcDbEntity
  8
Layer_1
 62
7
100
AcDbSpline
 70
8
 71
3
 72
8
 73
4
 74
0
 40
0
 40
0
 40
0
 40
0
 40
1
 40
1
 40
1
 40
1
 10
104.339309
 20
118.075463
 30
0.0
 10
106.775678
 20
116.956538
 30
0.0
 10
108.544301
 20
113.256867
 30
0.0
 10
109.392518
 20
107.572007
 30
0.0
  0
SPLINE
  5
145
100
AcDbEntity
  8
Layer_1
 62
7
100
AcDbSpline
 70
8
 71
3
 72
8
 73
4
 74
0
 40
0
 40
0
 40
0
 40
0
 40
1
 40
1
 40
1
 40
1
 10
109.392518
 20
107.572007
 30
0.0
 10
109.554943
 20
106.489177
 30
0.0
 10
109.699320
 20
105.604865
 30
0.0
 10
109.717367
 20
105.568771
 30
0.0
  0
SPLINE
  5
146
100
AcDbEntity
  8
Layer_1
 62
7
100
AcDbSpline
 70
8
 71
3
 72
8
 73
4
 74
0
 40
0
 40
0
 40
0
 40
0
 40
1
 40
1
 40
1
 40
1
 10
109.717367
 20
105.568771
 30
0.0
 10
109.771509
 20
105.514629
 30
0.0
 10
118.019067
 20
105.153686
 30
0.0
 10
119.210181
 20
105.153686
 30
0.0
  0
LWPOLYLINE
  5
147
100
AcDbEntity
  8
Layer_1
 62
7
100
AcDbPolyline
 90
3
 70
0
 10
82.556370
 20
107.427630
 30
0.0
 10
84.036238
 20
107.319347
 30
0.0
 10
84.036238
 20
109.466961
 30
0.0
  0
SPLINE
  5
148
100
AcDbEntity
  8
Layer_1
 62
7
100
AcDbSpline
 70
8
 71
3
 72
8
 73
4
 74
0
 40
0
 40
0
 40
0
 40
0
 40
1
 40
1
 40
1
 40
1
 10
120.076445
 20
108.095375
 30
0.0
 10
119.805737
 20
114.538216
 30
0.0
 10
118.867284
 20
118.815397
 30
0.0
 10
116.701624
 20
123.291096
 30
0.0
  0
SPLINE
  5
149
100
AcDbEntity
  8
Layer_1
 62
7
100
AcDbSpline
 70
8
 71
3
 72
8
 73
4
 74
0
 40
0
 40
0
 40
0
 40
0
 40
1
 40
1
 40
1
 40
1
 10
116.701624
 20
123.291096
 30
0.0
 10
113.940406
 20
129.030097
 30
0.0
 10
109.609084
 20
132.838051
 30
0.0
 10
103.978366
 20
134.498391
 30
0.0
  0
SPLINE
  5
14a
100
AcDbEntity
  8
Layer_1
 62
7
100
AcDbSpline
 70
8
 71
3
 72
8
 73
4
 74
0
 40
0
 40
0
 40
0
 40
0
 40
1
 40
1
 40
1
 40
1
 10
103.978366
 20
134.498391
 30
0.0
 10
101.939035
 20
135.093948
 30
0.0
 10
98.058893
 20
135.256372
 30
0.0
 10
96.055656
 20
134.841287
 30
0.0
  0
LWPOLYLINE
  5
14b
100
AcDbEntity
  8
Layer_1
 62
7
100
AcDbPolyline
 90
3
 70
0
 10
119.210181
 20
105.153686
 30
0.0
 10
120.184728
 20
105.153686
 30
0.0
 10
120.076445
 20
108.095375
 30
0.0
  0
SPLINE
  5
14c
100
AcDbEntity
  8
Layer_1
 62
7
100
AcDbSpline
 70
8
 71
3
 72
8
 73
4
 74
0
 40
0
 40
0
 40
0
 40
0
 40
1
 40
1
 40
1
 40
1
 10
195.026359
 20
134.462297
 30
0.0
 10
194.484944
 20
134.317919
 30
0.0
 10
193.293831
 20
133.848693
 30
0.0
 10
192.373425
 20
133.397513
 30
0.0
  0
SPLINE
  5
14d
100
AcDbEntity
  8
Layer_1
 62
7
100
AcDbSpline
 70
8
 71
3
 72
8
 73
4
 74
0
 40
0
 40
0
 40
0
 40
0
 40
1
 40
1
 40
1
 40
1
 10
192.373425
 20
133.397513
 30
0.0
 10
188.637660
 20
131.556702
 30
0.0
 10
185.461357
 20
127.423899
 30
0.0
 10
183.476168
 20
121.829275
 30
0.0
  0
SPLINE
  5
14e
100
AcDbEntity
  8
Layer_1
 62
7
100
AcDbSpline
 70
8
 71
3
 72
8
 73
4
 74
0
 40
0
 40
0
 40
0
 40
0
 40
1
 40
1
 40
1
 40
1
 10
183.476168
 20
121.829275
 30
0.0
 10
182.032394
 20
117.714519
 30
0.0
 10
181.310507
 20
113.708046
 30
0.0
 10
180.859328
 20
107.012545
 30
0.0
  0
LWPOLYLINE
  5
14f
100
AcDbEntity
  8
Layer_1
 62
7
100
AcDbPolyline
 90
2
 70
0
 10
96.055656
 20
134.841287
 30
0.0
 10
96.055656
 20
134.841287
 30
0.0
  0
SPLINE
  5
150
100
AcDbEntity
  8
Layer_1
 62
7
100
AcDbSpline
 70
8
 71
3
 72
8
 73
4
 74
0
 40
0
 40
0
 40
0
 40
0
 40
1
 40
1
 40
1
 40
1
 10
181.346601
 20
105.514629
 30
0.0
 10
181.671450
 20
105.532677
 30
0.0
 10
184.288291
 20
105.677054
 30
0.0
 10
187.175839
 20
105.857526
 30
0.0
  0
LWPOLYLINE
  5
151
100
AcDbEntity
  8
Layer_1
 62
7
100
AcDbPolyline
 90
3
 70
0
 10
180.859328
 20
107.012545
 30
0.0
 10
180.769092
 20
105.514629
 30
0.0
 10
181.346601
 20
105.514629
 30
0.0
  0
SPLINE
  5
152
100
AcDbEntity
  8
Layer_1
 62
7
100
AcDbSpline
 70
8
 71
3
 72
8
 73
4
 74
0
 40
0
 40
0
 40
0
 40
0
 40
1
 40
1
 40
1
 40
1
 10
193.059217
 20
106.958403
 30
0.0
 10
194.629321
 20
108.781168
 30
0.0
 10
196.127237
 20
111.993565
 30
0.0
 10
197.101784
 20
115.621047
 30
0.0
  0
SPLINE
  5
153
100
AcDbEntity
  8
Layer_1
 62
7
100
AcDbSpline
 70
8
 71
3
 72
8
 73
4
 74
0
 40
0
 40
0
 40
0
 40
0
 40
1
 40
1
 40
1
 40
1
 10
197.101784
 20
115.621047
 30
0.0
 10
198.130473
 20
119.429001
 30
0.0
 10
198.816266
 20
120.800586
 30
0.0
 10
200.602936
 20
122.713586
 30
0.0
  0
SPLINE
  5
154
100
AcDbEntity
  8
Layer_1
 62
7
100
AcDbSpline
 70
8
 71
3
 72
8
 73
4
 74
0
 40
0
 40
0
 40
0
 40
0
 40
1
 40
1
 40
1
 40
1
 10
200.602936
 20
122.713586
 30
0.0
 10
202.136946
 20
124.355879
 30
0.0
 10
203.544625
 20
124.680728
 30
0.0
 10
205.277154
 20
123.814464
 30
0.0
  0
SPLINE
  5
155
100
AcDbEntity
  8
Layer_1
 62
7
100
AcDbSpline
 70
8
 71
3
 72
8
 73
4
 74
0
 40
0
 40
0
 40
0
 40
0
 40
1
 40
1
 40
1
 40
1
 10
205.277154
 20
123.814464
 30
0.0
 10
206.359985
 20
123.273049
 30
0.0
 10
207.262343
 20
122.262407
 30
0.0
 10
207.912042
 20
120.854727
 30
0.0
  0
SPLINE
  5
156
100
AcDbEntity
  8
Layer_1
 62
7
100
AcDbSpline
 70
8
 71
3
 72
8
 73
4
 74
0
 40
0
 40
0
 40
0
 40
0
 40
1
 40
1
 40
1
 40
1
 10
207.912042
 20
120.854727
 30
0.0
 10
208.597834
 20
119.374859
 30
0.0
 10
208.796353
 20
118.129604
 30
0.0
 10
208.706117
 20
115.891755
 30
0.0
  0
SPLINE
  5
157
100
AcDbEntity
  8
Layer_1
 62
7
100
AcDbSpline
 70
8
 71
3
 72
8
 73
4
 74
0
 40
0
 40
0
 40
0
 40
0
 40
1
 40
1
 40
1
 40
1
 10
208.706117
 20
115.891755
 30
0.0
 10
208.633929
 20
114.267509
 30
0.0
 10
208.507598
 20
113.581716
 30
0.0
 10
208.038372
 20
112.192084
 30
0.0
  0
SPLINE
  5
158
100
AcDbEntity
  8
Layer_1
 62
7
100
AcDbSpline
 70
8
 71
3
 72
8
 73
4
 74
0
 40
0
 40
0
 40
0
 40
0
 40
1
 40
1
 40
1
 40
1
 10
208.038372
 20
112.192084
 30
0.0
 10
207.713523
 20
111.253631
 30
0.0
 10
207.226249
 20
110.044470
 30
0.0
 10
206.919447
 20
109.503055
 30
0.0
  0
SPLINE
  5
159
100
AcDbEntity
  8
Layer_1
 62
7
100
AcDbSpline
 70
8
 71
3
 72
8
 73
4
 74
0
 40
0
 40
0
 40
0
 40
0
 40
1
 40
1
 40
1
 40
1
 10
206.919447
 20
109.503055
 30
0.0
 10
206.630692
 20
108.961640
 30
0.0
 10
206.432173
 20
108.492413
 30
0.0
 10
206.468268
 20
108.438272
 30
0.0
  0
SPLINE
  5
15a
100
AcDbEntity
  8
Layer_1
 62
7
100
AcDbSpline
 70
8
 71
3
 72
8
 73
4
 74
0
 40
0
 40
0
 40
0
 40
0
 40
1
 40
1
 40
1
 40
1
 10
206.468268
 20
108.438272
 30
0.0
 10
206.504362
 20
108.402177
 30
0.0
 10
208.561740
 20
108.564602
 30
0.0
 10
211.016156
 20
108.781168
 30
0.0
  0
LWPOLYLINE
  5
15b
100
AcDbEntity
  8
Layer_1
 62
7
100
AcDbPolyline
 90
3
 70
0
 10
187.175839
 20
105.857526
 30
0.0
 10
192.391472
 20
106.182375
 30
0.0
 10
193.059217
 20
106.958403
 30
0.0
  0
SPLINE
  5
15c
100
AcDbEntity
  8
Layer_1
 62
7
100
AcDbSpline
 70
8
 71
3
 72
8
 73
4
 74
0
 40
0
 40
0
 40
0
 40
0
 40
1
 40
1
 40
1
 40
1
 10
215.347477
 20
111.343867
 30
0.0
 10
214.878251
 20
119.807991
 30
0.0
 10
211.719995
 20
127.099050
 30
0.0
 10
206.757022
 20
131.267947
 30
0.0
  0
SPLINE
  5
15d
100
AcDbEntity
  8
Layer_1
 62
7
100
AcDbSpline
 70
8
 71
3
 72
8
 73
4
 74
0
 40
0
 40
0
 40
0
 40
0
 40
1
 40
1
 40
1
 40
1
 10
206.757022
 20
131.267947
 30
0.0
 10
205.204965
 20
132.585391
 30
0.0
 10
202.389606
 20
134.029165
 30
0.0
 10
200.602936
 20
134.462297
 30
0.0
  0
SPLINE
  5
15e
100
AcDbEntity
  8
Layer_1
 62
7
100
AcDbSpline
 70
8
 71
3
 72
8
 73
4
 74
0
 40
0
 40
0
 40
0
 40
0
 40
1
 40
1
 40
1
 40
1
 10
200.602936
 20
134.462297
 30
0.0
 10
199.141115
 20
134.823240
 30
0.0
 10
196.361850
 20
134.823240
 30
0.0
 10
195.026359
 20
134.462297
 30
0.0
  0
LWPOLYLINE
  5
15f
100
AcDbEntity
  8
Layer_1
 62
7
100
AcDbPolyline
 90
3
 70
0
 10
211.016156
 20
108.781168
 30
0.0
 10
215.473808
 20
109.196253
 30
0.0
 10
215.347477
 20
111.343867
 30
0.0
  0
SPLINE
  5
160
100
AcDbEntity
  8
Layer_1
 62
7
100
AcDbSpline
 70
8
 71
3
 72
8
 73
4
 74
0
 40
0
 40
0
 40
0
 40
0
 40
1
 40
1
 40
1
 40
1
 10
140.144903
 20
124.590492
 30
0.0
 10
139.495204
 20
123.886653
 30
0.0
 10
138.701129
 20
122.984294
 30
0.0
 10
138.376280
 20
122.623351
 30
0.0
  0
LWPOLYLINE
  5
161
100
AcDbEntity
  8
Layer_1
 62
7
100
AcDbPolyline
 90
2
 70
0
 10
195.026359
 20
134.462297
 30
0.0
 10
195.026359
 20
134.462297
 30
0.0
  0
SPLINE
  5
162
100
AcDbEntity
  8
Layer_1
 62
7
100
AcDbSpline
 70
8
 71
3
 72
8
 73
4
 74
0
 40
0
 40
0
 40
0
 40
0
 40
1
 40
1
 40
1
 40
1
 10
138.340185
 20
120.602067
 30
0.0
 10
140.379516
 20
115.711283
 30
0.0
 10
140.975073
 20
107.572007
 30
0.0
 10
139.874195
 20
99.685392
 30
0.0
  0
SPLINE
  5
163
100
AcDbEntity
  8
Layer_1
 62
7
100
AcDbSpline
 70
8
 71
3
 72
8
 73
4
 74
0
 40
0
 40
0
 40
0
 40
0
 40
1
 40
1
 40
1
 40
1
 10
139.874195
 20
99.685392
 30
0.0
 10
139.567393
 20
97.429495
 30
0.0
 10
138.574799
 20
93.404976
 30
0.0
 10
138.015336
 20
92.123626
 30
0.0
  0
LWPOLYLINE
  5
164
100
AcDbEntity
  8
Layer_1
 62
7
100
AcDbPolyline
 90
3
 70
0
 10
138.376280
 20
122.623351
 30
0.0
 10
137.780723
 20
121.937558
 30
0.0
 10
138.340185
 20
120.602067
 30
0.0
  0
SPLINE
  5
165
100
AcDbEntity
  8
Layer_1
 62
7
100
AcDbSpline
 70
8
 71
3
 72
8
 73
4
 74
0
 40
0
 40
0
 40
0
 40
0
 40
1
 40
1
 40
1
 40
1
 10
145.522961
 20
85.662738
 30
0.0
 10
148.681216
 20
85.103275
 30
0.0
 10
149.024112
 20
85.085228
 30
0.0
 10
151.965802
 20
85.175464
 30
0.0
  0
SPLINE
  5
166
100
AcDbEntity
  8
Layer_1
 62
7
100
AcDbSpline
 70
8
 71
3
 72
8
 73
4
 74
0
 40
0
 40
0
 40
0
 40
0
 40
1
 40
1
 40
1
 40
1
 10
151.965802
 20
85.175464
 30
0.0
 10
155.015774
 20
85.265700
 30
0.0
 10
155.106010
 20
85.283747
 30
0.0
 10
159.112483
 20
86.348530
 30
0.0
  0
LWPOLYLINE
  5
167
100
AcDbEntity
  8
Layer_1
 62
7
100
AcDbPolyline
 90
5
 70
0
 10
138.015336
 20
92.123626
 30
0.0
 10
137.654393
 20
91.275409
 30
0.0
 10
139.928337
 20
88.766852
 30
0.0
 10
142.184233
 20
86.258295
 30
0.0
 10
145.522961
 20
85.662738
 30
0.0
  0
SPLINE
  5
168
100
AcDbEntity
  8
Layer_1
 62
7
100
AcDbSpline
 70
8
 71
3
 72
8
 73
4
 74
0
 40
0
 40
0
 40
0
 40
0
 40
1
 40
1
 40
1
 40
1
 10
164.490541
 20
89.109748
 30
0.0
 10
165.194380
 20
90.048201
 30
0.0
 10
166.006503
 20
91.112984
 30
0.0
 10
166.259164
 20
91.473928
 30
0.0
  0
LWPOLYLINE
  5
169
100
AcDbEntity
  8
Layer_1
 62
7
100
AcDbPolyline
 90
3
 70
0
 10
159.112483
 20
86.348530
 30
0.0
 10
163.173097
 20
87.413314
 30
0.0
 10
164.490541
 20
89.109748
 30
0.0
  0
SPLINE
  5
16a
100
AcDbEntity
  8
Layer_1
 62
7
100
AcDbSpline
 70
8
 71
3
 72
8
 73
4
 74
0
 40
0
 40
0
 40
0
 40
0
 40
1
 40
1
 40
1
 40
1
 10
166.006503
 20
93.910296
 30
0.0
 10
164.400305
 20
97.826533
 30
0.0
 10
163.894984
 20
100.659940
 30
0.0
 10
163.913031
 20
105.514629
 30
0.0
  0
SPLINE
  5
16b
100
AcDbEntity
  8
Layer_1
 62
7
100
AcDbSpline
 70
8
 71
3
 72
8
 73
4
 74
0
 40
0
 40
0
 40
0
 40
0
 40
1
 40
1
 40
1
 40
1
 10
163.913031
 20
105.514629
 30
0.0
 10
163.931078
 20
109.809857
 30
0.0
 10
164.237880
 20
112.065754
 30
0.0
 10
165.537277
 20
117.299434
 30
0.0
  0
LWPOLYLINE
  5
16c
100
AcDbEntity
  8
Layer_1
 62
7
100
AcDbPolyline
 90
3
 70
0
 10
166.259164
 20
91.473928
 30
0.0
 10
166.728390
 20
92.141673
 30
0.0
 10
166.006503
 20
93.910296
 30
0.0
  0
SPLINE
  5
16d
100
AcDbEntity
  8
Layer_1
 62
7
100
AcDbSpline
 70
8
 71
3
 72
8
 73
4
 74
0
 40
0
 40
0
 40
0
 40
0
 40
1
 40
1
 40
1
 40
1
 10
164.057408
 20
122.984294
 30
0.0
 10
162.794106
 20
124.337832
 30
0.0
 10
161.657134
 20
125.474804
 30
0.0
 10
161.530804
 20
125.510898
 30
0.0
  0
SPLINE
  5
16e
100
AcDbEntity
  8
Layer_1
 62
7
100
AcDbSpline
 70
8
 71
3
 72
8
 73
4
 74
0
 40
0
 40
0
 40
0
 40
0
 40
1
 40
1
 40
1
 40
1
 10
161.530804
 20
125.510898
 30
0.0
 10
161.404474
 20
125.546993
 30
0.0
 10
160.014841
 20
125.438710
 30
0.0
 10
158.444737
 20
125.276285
 30
0.0
  0
SPLINE
  5
16f
100
AcDbEntity
  8
Layer_1
 62
7
100
AcDbSpline
 70
8
 71
3
 72
8
 73
4
 74
0
 40
0
 40
0
 40
0
 40
0
 40
1
 40
1
 40
1
 40
1
 10
158.444737
 20
125.276285
 30
0.0
 10
156.874633
 20
125.113861
 30
0.0
 10
154.113415
 20
124.915342
 30
0.0
 10
152.308698
 20
124.825106
 30
0.0
  0
SPLINE
  5
170
100
AcDbEntity
  8
Layer_1
 62
7
100
AcDbSpline
 70
8
 71
3
 72
8
 73
4
 74
0
 40
0
 40
0
 40
0
 40
0
 40
1
 40
1
 40
1
 40
1
 10
152.308698
 20
124.825106
 30
0.0
 10
149.024112
 20
124.662681
 30
0.0
 10
149.006065
 20
124.662681
 30
0.0
 10
145.450772
 20
125.294332
 30
0.0
  0
SPLINE
  5
171
100
AcDbEntity
  8
Layer_1
 62
7
100
AcDbSpline
 70
8
 71
3
 72
8
 73
4
 74
0
 40
0
 40
0
 40
0
 40
0
 40
1
 40
1
 40
1
 40
1
 10
145.450772
 20
125.294332
 30
0.0
 10
143.483630
 20
125.619181
 30
0.0
 10
141.751101
 20
125.907936
 30
0.0
 10
141.606724
 20
125.907936
 30
0.0
  0
SPLINE
  5
172
100
AcDbEntity
  8
Layer_1
 62
7
100
AcDbSpline
 70
8
 71
3
 72
8
 73
4
 74
0
 40
0
 40
0
 40
0
 40
0
 40
1
 40
1
 40
1
 40
1
 10
141.606724
 20
125.907936
 30
0.0
 10
141.462346
 20
125.907936
 30
0.0
 10
140.794601
 20
125.312379
 30
0.0
 10
140.144903
 20
124.590492
 30
0.0
  0
LWPOLYLINE
  5
173
100
AcDbEntity
  8
Layer_1
 62
7
100
AcDbPolyline
 90
3
 70
0
 10
165.537277
 20
117.299434
 30
0.0
 10
166.349400
 20
120.511831
 30
0.0
 10
164.057408
 20
122.984294
 30
0.0
  0
SPLINE
  5
174
100
AcDbEntity
  8
Layer_1
 62
7
100
AcDbSpline
 70
8
 71
3
 72
8
 73
4
 74
0
 40
0
 40
0
 40
0
 40
0
 40
1
 40
1
 40
1
 40
1
 10
58.589723
 20
123.399379
 30
0.0
 10
58.589723
 20
123.236954
 30
0.0
 10
58.842383
 20
116.974585
 30
0.0
 10
59.131138
 20
109.485008
 30
0.0
  0
SPLINE
  5
175
100
AcDbEntity
  8
Layer_1
 62
7
100
AcDbSpline
 70
8
 71
3
 72
8
 73
4
 74
0
 40
0
 40
0
 40
0
 40
0
 40
1
 40
1
 40
1
 40
1
 10
59.131138
 20
109.485008
 30
0.0
 10
59.419893
 20
101.995430
 30
0.0
 10
59.672553
 20
95.372118
 30
0.0
 10
59.672553
 20
94.776561
 30
0.0
  0
LWPOLYLINE
  5
176
100
AcDbEntity
  8
Layer_1
 62
7
100
AcDbPolyline
 90
2
 70
0
 10
140.144903
 20
124.590492
 30
0.0
 10
140.144903
 20
124.590492
 30
0.0
  0
SPLINE
  5
177
100
AcDbEntity
  8
Layer_1
 62
7
100
AcDbSpline
 70
8
 71
3
 72
8
 73
4
 74
0
 40
0
 40
0
 40
0
 40
0
 40
1
 40
1
 40
1
 40
1
 10
67.432838
 20
92.989891
 30
0.0
 10
68.822471
 20
94.162957
 30
0.0
 10
69.941395
 20
95.155551
 30
0.0
 10
69.923348
 20
95.209693
 30
0.0
  0
SPLINE
  5
178
100
AcDbEntity
  8
Layer_1
 62
7
100
AcDbSpline
 70
8
 71
3
 72
8
 73
4
 74
0
 40
0
 40
0
 40
0
 40
0
 40
1
 40
1
 40
1
 40
1
 10
69.923348
 20
95.209693
 30
0.0
 10
69.887254
 20
95.263835
 30
0.0
 10
69.652641
 20
95.733061
 30
0.0
 10
69.381933
 20
96.238382
 30
0.0
  0
SPLINE
  5
179
100
AcDbEntity
  8
Layer_1
 62
7
100
AcDbSpline
 70
8
 71
3
 72
8
 73
4
 74
0
 40
0
 40
0
 40
0
 40
0
 40
1
 40
1
 40
1
 40
1
 10
69.381933
 20
96.238382
 30
0.0
 10
67.053847
 20
100.659940
 30
0.0
 10
65.339366
 20
114.393839
 30
0.0
 10
66.440244
 20
119.681661
 30
0.0
  0
SPLINE
  5
17a
100
AcDbEntity
  8
Layer_1
 62
7
100
AcDbSpline
 70
8
 71
3
 72
8
 73
4
 74
0
 40
0
 40
0
 40
0
 40
0
 40
1
 40
1
 40
1
 40
1
 10
66.440244
 20
119.681661
 30
0.0
 10
66.548527
 20
120.168935
 30
0.0
 10
66.422196
 20
120.349407
 30
0.0
 10
65.213036
 20
121.540520
 30
0.0
  0
LWPOLYLINE
  5
17b
100
AcDbEntity
  8
Layer_1
 62
7
100
AcDbPolyline
 90
5
 70
0
 10
59.672553
 20
94.776561
 30
0.0
 10
59.672553
 20
93.693730
 30
0.0
 10
62.289393
 20
92.286051
 30
0.0
 10
64.906234
 20
90.860324
 30
0.0
 10
67.432838
 20
92.989891
 30
0.0
  0
SPLINE
  5
17c
100
AcDbEntity
  8
Layer_1
 62
7
100
AcDbSpline
 70
8
 71
3
 72
8
 73
4
 74
0
 40
0
 40
0
 40
0
 40
0
 40
1
 40
1
 40
1
 40
1
 10
61.242657
 20
123.273049
 30
0.0
 10
58.896525
 20
123.633992
 30
0.0
 10
58.589723
 20
123.652039
 30
0.0
 10
58.589723
 20
123.399379
 30
0.0
  0
LWPOLYLINE
  5
17d
100
AcDbEntity
  8
Layer_1
 62
7
100
AcDbPolyline
 90
3
 70
0
 10
65.213036
 20
121.540520
 30
0.0
 10
63.895592
 20
122.857964
 30
0.0
 10
61.242657
 20
123.273049
 30
0.0
  0
SPLINE
  5
17e
100
AcDbEntity
  8
Layer_1
 62
7
100
AcDbSpline
 70
8
 71
3
 72
8
 73
4
 74
0
 40
0
 40
0
 40
0
 40
0
 40
1
 40
1
 40
1
 40
1
 10
224.804197
 20
123.471568
 30
0.0
 10
223.270187
 20
123.345237
 30
0.0
 10
221.988837
 20
123.218907
 30
0.0
 10
221.970790
 20
123.218907
 30
0.0
  0
SPLINE
  5
17f
100
AcDbEntity
  8
Layer_1
 62
7
100
AcDbSpline
 70
8
 71
3
 72
8
 73
4
 74
0
 40
0
 40
0
 40
0
 40
0
 40
1
 40
1
 40
1
 40
1
 10
221.970790
 20
123.218907
 30
0.0
 10
221.952743
 20
123.200860
 30
0.0
 10
222.133215
 20
122.623351
 30
0.0
 10
222.367828
 20
121.919511
 30
0.0
  0
SPLINE
  5
180
100
AcDbEntity
  8
Layer_1
 62
7
100
AcDbSpline
 70
8
 71
3
 72
8
 73
4
 74
0
 40
0
 40
0
 40
0
 40
0
 40
1
 40
1
 40
1
 40
1
 10
222.367828
 20
121.919511
 30
0.0
 10
223.595036
 20
118.328123
 30
0.0
 10
224.172545
 20
114.141179
 30
0.0
 10
224.028168
 20
109.845951
 30
0.0
  0
SPLINE
  5
181
100
AcDbEntity
  8
Layer_1
 62
7
100
AcDbSpline
 70
8
 71
3
 72
8
 73
4
 74
0
 40
0
 40
0
 40
0
 40
0
 40
1
 40
1
 40
1
 40
1
 10
224.028168
 20
109.845951
 30
0.0
 10
223.919885
 20
106.416988
 30
0.0
 10
223.504800
 20
103.926478
 30
0.0
 10
222.512205
 20
100.948694
 30
0.0
  0
LWPOLYLINE
  5
182
100
AcDbEntity
  8
Layer_1
 62
7
100
AcDbPolyline
 90
2
 70
0
 10
58.589723
 20
123.399379
 30
0.0
 10
58.589723
 20
123.399379
 30
0.0
  0
SPLINE
  5
183
100
AcDbEntity
  8
Layer_1
 62
7
100
AcDbSpline
 70
8
 71
3
 72
8
 73
4
 74
0
 40
0
 40
0
 40
0
 40
0
 40
1
 40
1
 40
1
 40
1
 10
226.247970
 20
96.021816
 30
0.0
 10
226.987905
 20
96.094005
 30
0.0
 10
228.142924
 20
96.184240
 30
0.0
 10
228.828716
 20
96.238382
 30
0.0
  0
LWPOLYLINE
  5
184
100
AcDbEntity
  8
Layer_1
 62
7
100
AcDbPolyline
 90
5
 70
0
 10
222.512205
 20
100.948694
 30
0.0
 10
221.862507
 20
98.981552
 30
0.0
 10
223.378470
 20
97.447543
 30
0.0
 10
224.894432
 20
95.913533
 30
0.0
 10
226.247970
 20
96.021816
 30
0.0
  0
SPLINE
  5
185
100
AcDbEntity
  8
Layer_1
 62
7
100
AcDbSpline
 70
8
 71
3
 72
8
 73
4
 74
0
 40
0
 40
0
 40
0
 40
0
 40
1
 40
1
 40
1
 40
1
 10
228.828716
 20
123.724228
 30
0.0
 10
228.142924
 20
123.706181
 30
0.0
 10
226.338206
 20
123.579851
 30
0.0
 10
224.804197
 20
123.471568
 30
0.0
  0
LWPOLYLINE
  5
186
100
AcDbEntity
  8
Layer_1
 62
7
100
AcDbPolyline
 90
5
 70
0
 10
228.828716
 20
96.238382
 30
0.0
 10
230.037877
 20
96.364712
 30
0.0
 10
230.037877
 20
110.044470
 30
0.0
 10
230.037877
 20
123.742275
 30
0.0
 10
228.828716
 20
123.724228
 30
0.0
  0
SPLINE
  5
187
100
AcDbEntity
  8
Layer_1
 62
7
100
AcDbSpline
 70
8
 71
3
 72
8
 73
4
 74
0
 40
0
 40
0
 40
0
 40
0
 40
1
 40
1
 40
1
 40
1
 10
210.456693
 20
106.110186
 30
0.0
 10
208.074466
 20
105.857526
 30
0.0
 10
206.089277
 20
105.622912
 30
0.0
 10
206.053183
 20
105.586818
 30
0.0
  0
SPLINE
  5
188
100
AcDbEntity
  8
Layer_1
 62
7
100
AcDbSpline
 70
8
 71
3
 72
8
 73
4
 74
0
 40
0
 40
0
 40
0
 40
0
 40
1
 40
1
 40
1
 40
1
 10
206.053183
 20
105.586818
 30
0.0
 10
206.017088
 20
105.550724
 30
0.0
 10
206.287796
 20
105.081497
 30
0.0
 10
206.666787
 20
104.522035
 30
0.0
  0
SPLINE
  5
189
100
AcDbEntity
  8
Layer_1
 62
7
100
AcDbSpline
 70
8
 71
3
 72
8
 73
4
 74
0
 40
0
 40
0
 40
0
 40
0
 40
1
 40
1
 40
1
 40
1
 10
206.666787
 20
104.522035
 30
0.0
 10
208.074466
 20
102.392468
 30
0.0
 10
208.778306
 20
99.920005
 30
0.0
 10
208.778306
 20
97.032458
 30
0.0
  0
SPLINE
  5
18a
100
AcDbEntity
  8
Layer_1
 62
7
100
AcDbSpline
 70
8
 71
3
 72
8
 73
4
 74
0
 40
0
 40
0
 40
0
 40
0
 40
1
 40
1
 40
1
 40
1
 10
208.778306
 20
97.032458
 30
0.0
 10
208.778306
 20
91.889013
 30
0.0
 10
206.558504
 20
87.972776
 30
0.0
 10
203.255871
 20
87.286984
 30
0.0
  0
SPLINE
  5
18b
100
AcDbEntity
  8
Layer_1
 62
7
100
AcDbSpline
 70
8
 71
3
 72
8
 73
4
 74
0
 40
0
 40
0
 40
0
 40
0
 40
1
 40
1
 40
1
 40
1
 10
203.255871
 20
87.286984
 30
0.0
 10
201.992568
 20
87.034323
 30
0.0
 10
200.404417
 20
87.449408
 30
0.0
 10
199.574247
 20
88.243484
 30
0.0
  0
SPLINE
  5
18c
100
AcDbEntity
  8
Layer_1
 62
7
100
AcDbSpline
 70
8
 71
3
 72
8
 73
4
 74
0
 40
0
 40
0
 40
0
 40
0
 40
1
 40
1
 40
1
 40
1
 10
199.574247
 20
88.243484
 30
0.0
 10
198.653841
 20
89.127795
 30
0.0
 10
197.787577
 20
91.076890
 30
0.0
 10
197.101784
 20
93.856155
 30
0.0
  0
SPLINE
  5
18d
100
AcDbEntity
  8
Layer_1
 62
7
100
AcDbSpline
 70
8
 71
3
 72
8
 73
4
 74
0
 40
0
 40
0
 40
0
 40
0
 40
1
 40
1
 40
1
 40
1
 10
197.101784
 20
93.856155
 30
0.0
 10
196.722794
 20
95.372118
 30
0.0
 10
196.163331
 20
96.996363
 30
0.0
 10
195.694105
 20
98.007005
 30
0.0
  0
SPLINE
  5
18e
100
AcDbEntity
  8
Layer_1
 62
7
100
AcDbSpline
 70
8
 71
3
 72
8
 73
4
 74
0
 40
0
 40
0
 40
0
 40
0
 40
1
 40
1
 40
1
 40
1
 10
195.694105
 20
98.007005
 30
0.0
 10
194.881982
 20
99.703439
 30
0.0
 10
193.185547
 20
102.536846
 30
0.0
 10
192.463661
 20
103.385063
 30
0.0
  0
LWPOLYLINE
  5
18f
100
AcDbEntity
  8
Layer_1
 62
7
100
AcDbPolyline
 90
2
 70
0
 10
224.804197
 20
123.471568
 30
0.0
 10
224.804197
 20
123.471568
 30
0.0
  0
SPLINE
  5
190
100
AcDbEntity
  8
Layer_1
 62
7
100
AcDbSpline
 70
8
 71
3
 72
8
 73
4
 74
0
 40
0
 40
0
 40
0
 40
0
 40
1
 40
1
 40
1
 40
1
 10
186.742706
 20
103.240685
 30
0.0
 10
183.819064
 20
102.897789
 30
0.0
 10
181.382696
 20
102.572940
 30
0.0
 10
181.328554
 20
102.536846
 30
0.0
  0
SPLINE
  5
191
100
AcDbEntity
  8
Layer_1
 62
7
100
AcDbSpline
 70
8
 71
3
 72
8
 73
4
 74
0
 40
0
 40
0
 40
0
 40
0
 40
1
 40
1
 40
1
 40
1
 10
181.328554
 20
102.536846
 30
0.0
 10
181.202224
 20
102.410515
 30
0.0
 10
181.779733
 20
100.046336
 30
0.0
 10
182.519668
 20
97.573873
 30
0.0
  0
SPLINE
  5
192
100
AcDbEntity
  8
Layer_1
 62
7
100
AcDbSpline
 70
8
 71
3
 72
8
 73
4
 74
0
 40
0
 40
0
 40
0
 40
0
 40
1
 40
1
 40
1
 40
1
 10
182.519668
 20
97.573873
 30
0.0
 10
185.389168
 20
88.063012
 30
0.0
 10
189.630254
 20
82.125492
 30
0.0
 10
194.936123
 20
80.230538
 30
0.0
  0
SPLINE
  5
193
100
AcDbEntity
  8
Layer_1
 62
7
100
AcDbSpline
 70
8
 71
3
 72
8
 73
4
 74
0
 40
0
 40
0
 40
0
 40
0
 40
1
 40
1
 40
1
 40
1
 10
194.936123
 20
80.230538
 30
0.0
 10
196.434039
 20
79.707170
 30
0.0
 10
198.906502
 20
79.580840
 30
0.0
 10
200.494653
 20
79.959831
 30
0.0
  0
SPLINE
  5
194
100
AcDbEntity
  8
Layer_1
 62
7
100
AcDbSpline
 70
8
 71
3
 72
8
 73
4
 74
0
 40
0
 40
0
 40
0
 40
0
 40
1
 40
1
 40
1
 40
1
 10
200.494653
 20
79.959831
 30
0.0
 10
201.884285
 20
80.284680
 30
0.0
 10
203.887522
 20
81.241180
 30
0.0
 10
205.150824
 20
82.143539
 30
0.0
  0
SPLINE
  5
195
100
AcDbEntity
  8
Layer_1
 62
7
100
AcDbSpline
 70
8
 71
3
 72
8
 73
4
 74
0
 40
0
 40
0
 40
0
 40
0
 40
1
 40
1
 40
1
 40
1
 10
205.150824
 20
82.143539
 30
0.0
 10
206.468268
 20
83.118086
 30
0.0
 10
208.850495
 20
85.716879
 30
0.0
 10
209.897231
 20
87.323078
 30
0.0
  0
SPLINE
  5
196
100
AcDbEntity
  8
Layer_1
 62
7
100
AcDbSpline
 70
8
 71
3
 72
8
 73
4
 74
0
 40
0
 40
0
 40
0
 40
0
 40
1
 40
1
 40
1
 40
1
 10
209.897231
 20
87.323078
 30
0.0
 10
213.001345
 20
92.105579
 30
0.0
 10
214.860204
 20
98.115288
 30
0.0
 10
215.509902
 20
105.388299
 30
0.0
  0
SPLINE
  5
197
100
AcDbEntity
  8
Layer_1
 62
7
100
AcDbSpline
 70
8
 71
3
 72
8
 73
4
 74
0
 40
0
 40
0
 40
0
 40
0
 40
1
 40
1
 40
1
 40
1
 10
215.509902
 20
105.388299
 30
0.0
 10
215.600138
 20
106.561366
 30
0.0
 10
215.600138
 20
106.597460
 30
0.0
 10
215.203100
 20
106.579413
 30
0.0
  0
SPLINE
  5
198
100
AcDbEntity
  8
Layer_1
 62
7
100
AcDbSpline
 70
8
 71
3
 72
8
 73
4
 74
0
 40
0
 40
0
 40
0
 40
0
 40
1
 40
1
 40
1
 40
1
 10
215.203100
 20
106.579413
 30
0.0
 10
214.968487
 20
106.561366
 30
0.0
 10
212.838920
 20
106.344799
 30
0.0
 10
210.456693
 20
106.110186
 30
0.0
  0
LWPOLYLINE
  5
199
100
AcDbEntity
  8
Layer_1
 62
7
100
AcDbPolyline
 90
3
 70
0
 10
192.463661
 20
103.385063
 30
0.0
 10
192.048576
 20
103.872337
 30
0.0
 10
186.742706
 20
103.240685
 30
0.0
  0
SPLINE
  5
19a
100
AcDbEntity
  8
Layer_1
 62
7
100
AcDbSpline
 70
8
 71
3
 72
8
 73
4
 74
0
 40
0
 40
0
 40
0
 40
0
 40
1
 40
1
 40
1
 40
1
 10
79.163501
 20
104.648365
 30
0.0
 10
79.163501
 20
103.854289
 30
0.0
 10
79.885388
 20
99.883911
 30
0.0
 10
80.426804
 20
97.736297
 30
0.0
  0
SPLINE
  5
19b
100
AcDbEntity
  8
Layer_1
 62
7
100
AcDbSpline
 70
8
 71
3
 72
8
 73
4
 74
0
 40
0
 40
0
 40
0
 40
0
 40
1
 40
1
 40
1
 40
1
 10
80.426804
 20
97.736297
 30
0.0
 10
83.206068
 20
86.727521
 30
0.0
 10
88.421702
 20
80.104208
 30
0.0
 10
95.857137
 20
78.173161
 30
0.0
  0
SPLINE
  5
19c
100
AcDbEntity
  8
Layer_1
 62
7
100
AcDbSpline
 70
8
 71
3
 72
8
 73
4
 74
0
 40
0
 40
0
 40
0
 40
0
 40
1
 40
1
 40
1
 40
1
 10
95.857137
 20
78.173161
 30
0.0
 10
97.697949
 20
77.685887
 30
0.0
 10
101.126912
 20
77.703934
 30
0.0
 10
103.184290
 20
78.227302
 30
0.0
  0
SPLINE
  5
19d
100
AcDbEntity
  8
Layer_1
 62
7
100
AcDbSpline
 70
8
 71
3
 72
8
 73
4
 74
0
 40
0
 40
0
 40
0
 40
0
 40
1
 40
1
 40
1
 40
1
 10
103.184290
 20
78.227302
 30
0.0
 10
105.313857
 20
78.750670
 30
0.0
 10
107.696084
 20
79.797406
 30
0.0
 10
109.609084
 20
81.078756
 30
0.0
  0
SPLINE
  5
19e
100
AcDbEntity
  8
Layer_1
 62
7
100
AcDbSpline
 70
8
 71
3
 72
8
 73
4
 74
0
 40
0
 40
0
 40
0
 40
0
 40
1
 40
1
 40
1
 40
1
 10
109.609084
 20
81.078756
 30
0.0
 10
111.323566
 20
82.215728
 30
0.0
 10
114.048689
 20
84.796474
 30
0.0
 10
115.203708
 20
86.384625
 30
0.0
  0
SPLINE
  5
19f
100
AcDbEntity
  8
Layer_1
 62
7
100
AcDbSpline
 70
8
 71
3
 72
8
 73
4
 74
0
 40
0
 40
0
 40
0
 40
0
 40
1
 40
1
 40
1
 40
1
 10
115.203708
 20
86.384625
 30
0.0
 10
118.109303
 20
90.391098
 30
0.0
 10
119.607219
 20
94.830702
 30
0.0
 10
119.607219
 20
99.522968
 30
0.0
  0
SPLINE
  5
1a0
100
AcDbEntity
  8
Layer_1
 62
7
100
AcDbSpline
 70
8
 71
3
 72
8
 73
4
 74
0
 40
0
 40
0
 40
0
 40
0
 40
1
 40
1
 40
1
 40
1
 10
119.607219
 20
99.522968
 30
0.0
 10
119.625266
 20
100.750175
 30
0.0
 10
119.553077
 20
101.833006
 30
0.0
 10
119.462841
 20
101.905195
 30
0.0
  0
SPLINE
  5
1a1
100
AcDbEntity
  8
Layer_1
 62
7
100
AcDbSpline
 70
8
 71
3
 72
8
 73
4
 74
0
 40
0
 40
0
 40
0
 40
0
 40
1
 40
1
 40
1
 40
1
 10
119.462841
 20
101.905195
 30
0.0
 10
119.390652
 20
101.977383
 30
0.0
 10
117.405463
 20
102.248091
 30
0.0
 10
115.077378
 20
102.518799
 30
0.0
  0
SPLINE
  5
1a2
100
AcDbEntity
  8
Layer_1
 62
7
100
AcDbSpline
 70
8
 71
3
 72
8
 73
4
 74
0
 40
0
 40
0
 40
0
 40
0
 40
1
 40
1
 40
1
 40
1
 10
115.077378
 20
102.518799
 30
0.0
 10
112.749292
 20
102.789506
 30
0.0
 10
110.583631
 20
103.042167
 30
0.0
 10
110.276830
 20
103.096308
 30
0.0
  0
LWPOLYLINE
  5
1a3
100
AcDbEntity
  8
Layer_1
 62
7
100
AcDbPolyline
 90
2
 70
0
 10
210.456693
 20
106.110186
 30
0.0
 10
210.456693
 20
106.110186
 30
0.0
  0
SPLINE
  5
1a4
100
AcDbEntity
  8
Layer_1
 62
7
100
AcDbSpline
 70
8
 71
3
 72
8
 73
4
 74
0
 40
0
 40
0
 40
0
 40
0
 40
1
 40
1
 40
1
 40
1
 10
109.627131
 20
101.959336
 30
0.0
 10
109.554943
 20
101.111119
 30
0.0
 10
109.374471
 20
100.425326
 30
0.0
 10
109.031575
 20
99.739534
 30
0.0
  0
SPLINE
  5
1a5
100
AcDbEntity
  8
Layer_1
 62
7
100
AcDbSpline
 70
8
 71
3
 72
8
 73
4
 74
0
 40
0
 40
0
 40
0
 40
0
 40
1
 40
1
 40
1
 40
1
 10
109.031575
 20
99.739534
 30
0.0
 10
108.147263
 20
97.970911
 30
0.0
 10
105.765036
 20
95.263835
 30
0.0
 10
103.833988
 20
93.802013
 30
0.0
  0
SPLINE
  5
1a6
100
AcDbEntity
  8
Layer_1
 62
7
100
AcDbSpline
 70
8
 71
3
 72
8
 73
4
 74
0
 40
0
 40
0
 40
0
 40
0
 40
1
 40
1
 40
1
 40
1
 10
103.833988
 20
93.802013
 30
0.0
 10
101.848799
 20
92.322145
 30
0.0
 10
99.394384
 20
89.055607
 30
0.0
 10
98.726638
 20
87.016276
 30
0.0
  0
SPLINE
  5
1a7
100
AcDbEntity
  8
Layer_1
 62
7
100
AcDbSpline
 70
8
 71
3
 72
8
 73
4
 74
0
 40
0
 40
0
 40
0
 40
0
 40
1
 40
1
 40
1
 40
1
 10
98.726638
 20
87.016276
 30
0.0
 10
98.365695
 20
85.933445
 30
0.0
 10
98.076940
 20
85.662738
 30
0.0
 10
97.192628
 20
85.662738
 30
0.0
  0
SPLINE
  5
1a8
100
AcDbEntity
  8
Layer_1
 62
7
100
AcDbSpline
 70
8
 71
3
 72
8
 73
4
 74
0
 40
0
 40
0
 40
0
 40
0
 40
1
 40
1
 40
1
 40
1
 10
97.192628
 20
85.662738
 30
0.0
 10
96.398553
 20
85.662738
 30
0.0
 10
96.254175
 20
85.807115
 30
0.0
 10
95.857137
 20
87.178701
 30
0.0
  0
SPLINE
  5
1a9
100
AcDbEntity
  8
Layer_1
 62
7
100
AcDbSpline
 70
8
 71
3
 72
8
 73
4
 74
0
 40
0
 40
0
 40
0
 40
0
 40
1
 40
1
 40
1
 40
1
 10
95.857137
 20
87.178701
 30
0.0
 10
95.153298
 20
89.633116
 30
0.0
 10
94.305080
 20
90.896418
 30
0.0
 10
89.287966
 20
96.870033
 30
0.0
  0
SPLINE
  5
1aa
100
AcDbEntity
  8
Layer_1
 62
7
100
AcDbSpline
 70
8
 71
3
 72
8
 73
4
 74
0
 40
0
 40
0
 40
0
 40
0
 40
1
 40
1
 40
1
 40
1
 10
89.287966
 20
96.870033
 30
0.0
 10
86.346277
 20
100.371185
 30
0.0
 10
84.992739
 20
102.266138
 30
0.0
 10
84.469371
 20
103.619676
 30
0.0
  0
SPLINE
  5
1ab
100
AcDbEntity
  8
Layer_1
 62
7
100
AcDbSpline
 70
8
 71
3
 72
8
 73
4
 74
0
 40
0
 40
0
 40
0
 40
0
 40
1
 40
1
 40
1
 40
1
 10
84.469371
 20
103.619676
 30
0.0
 10
84.126474
 20
104.558129
 30
0.0
 10
84.234757
 20
104.503988
 30
0.0
 10
81.293068
 20
104.846884
 30
0.0
  0
LWPOLYLINE
  5
1ac
100
AcDbEntity
  8
Layer_1
 62
7
100
AcDbPolyline
 90
3
 70
0
 10
110.276830
 20
103.096308
 30
0.0
 10
109.717367
 20
103.204591
 30
0.0
 10
109.627131
 20
101.959336
 30
0.0
  0
LWPOLYLINE
  5
1ad
100
AcDbEntity
  8
Layer_1
 62
7
100
AcDbPolyline
 90
4
 70
0
 10
81.293068
 20
104.846884
 30
0.0
 10
79.163501
 20
105.099544
 30
0.0
 10
79.163501
 20
104.648365
 30
0.0
 10
79.163501
 20
104.648365
 30
0.0
  0
SPLINE
  5
1ae
100
AcDbEntity
  8
Layer_1
 62
7
100
AcDbSpline
 70
8
 71
3
 72
8
 73
4
 74
0
 40
0
 40
0
 40
0
 40
0
 40
1
 40
1
 40
1
 40
1
 10
219.480280
 20
87.828399
 30
0.0
 10
218.884723
 20
83.406841
 30
0.0
 10
217.783846
 20
80.248586
 30
0.0
 10
215.437713
 20
76.296255
 30
0.0
  0
SPLINE
  5
1af
100
AcDbEntity
  8
Layer_1
 62
7
100
AcDbSpline
 70
8
 71
3
 72
8
 73
4
 74
0
 40
0
 40
0
 40
0
 40
0
 40
1
 40
1
 40
1
 40
1
 10
215.437713
 20
76.296255
 30
0.0
 10
213.885656
 20
73.679414
 30
0.0
 10
212.044844
 20
71.279140
 30
0.0
 10
209.770901
 20
68.933007
 30
0.0
  0
LWPOLYLINE
  5
1b0
100
AcDbEntity
  8
Layer_1
 62
7
100
AcDbPolyline
 90
3
 70
0
 10
223.324328
 20
89.759446
 30
0.0
 10
219.588563
 20
88.658569
 30
0.0
 10
219.480280
 20
87.828399
 30
0.0
  0
SPLINE
  5
1b1
100
AcDbEntity
  8
Layer_1
 62
7
100
AcDbSpline
 70
8
 71
3
 72
8
 73
4
 74
0
 40
0
 40
0
 40
0
 40
0
 40
1
 40
1
 40
1
 40
1
 10
212.297505
 20
63.807610
 30
0.0
 10
214.751921
 20
62.093128
 30
0.0
 10
217.477044
 20
60.198175
 30
0.0
 10
218.343308
 20
59.602618
 30
0.0
  0
SPLINE
  5
1b2
100
AcDbEntity
  8
Layer_1
 62
7
100
AcDbSpline
 70
8
 71
3
 72
8
 73
4
 74
0
 40
0
 40
0
 40
0
 40
0
 40
1
 40
1
 40
1
 40
1
 10
218.343308
 20
59.602618
 30
0.0
 10
219.209573
 20
58.989015
 30
0.0
 10
219.931460
 20
58.393458
 30
0.0
 10
219.931460
 20
58.285175
 30
0.0
  0
SPLINE
  5
1b3
100
AcDbEntity
  8
Layer_1
 62
7
100
AcDbSpline
 70
8
 71
3
 72
8
 73
4
 74
0
 40
0
 40
0
 40
0
 40
0
 40
1
 40
1
 40
1
 40
1
 10
219.931460
 20
58.285175
 30
0.0
 10
219.931460
 20
58.158844
 30
0.0
 10
219.119337
 20
55.614193
 30
0.0
 10
218.144789
 20
52.636409
 30
0.0
  0
LWPOLYLINE
  5
1b4
100
AcDbEntity
  8
Layer_1
 62
7
100
AcDbPolyline
 90
3
 70
0
 10
209.770901
 20
68.933007
 30
0.0
 10
207.821806
 20
66.929771
 30
0.0
 10
212.297505
 20
63.807610
 30
0.0
  0
SPLINE
  5
1b5
100
AcDbEntity
  8
Layer_1
 62
7
100
AcDbSpline
 70
8
 71
3
 72
8
 73
4
 74
0
 40
0
 40
0
 40
0
 40
0
 40
1
 40
1
 40
1
 40
1
 10
227.421037
 20
48.864550
 30
0.0
 10
231.589934
 20
50.741456
 30
0.0
 10
235.054991
 20
52.293513
 30
0.0
 10
235.127180
 20
52.311560
 30
0.0
  0
SPLINE
  5
1b6
100
AcDbEntity
  8
Layer_1
 62
7
100
AcDbSpline
 70
8
 71
3
 72
8
 73
4
 74
0
 40
0
 40
0
 40
0
 40
0
 40
1
 40
1
 40
1
 40
1
 10
235.127180
 20
52.311560
 30
0.0
 10
235.199369
 20
52.347654
 30
0.0
 10
235.073039
 20
59.530430
 30
0.0
 10
234.838425
 20
68.301356
 30
0.0
  0
LWPOLYLINE
  5
1b7
100
AcDbEntity
  8
Layer_1
 62
7
100
AcDbPolyline
 90
5
 70
0
 10
218.144789
 20
52.636409
 30
0.0
 10
216.358119
 20
47.204210
 30
0.0
 10
218.108695
 20
46.337945
 30
0.0
 10
219.841224
 20
45.471681
 30
0.0
 10
227.421037
 20
48.864550
 30
0.0
  0
SPLINE
  5
1b8
100
AcDbEntity
  8
Layer_1
 62
7
100
AcDbSpline
 70
8
 71
3
 72
8
 73
4
 74
0
 40
0
 40
0
 40
0
 40
0
 40
1
 40
1
 40
1
 40
1
 10
231.192896
 20
87.521597
 30
0.0
 10
228.846764
 20
89.903824
 30
0.0
 10
227.836122
 20
90.806183
 30
0.0
 10
227.511273
 20
90.842277
 30
0.0
  0
SPLINE
  5
1b9
100
AcDbEntity
  8
Layer_1
 62
7
100
AcDbSpline
 70
8
 71
3
 72
8
 73
4
 74
0
 40
0
 40
0
 40
0
 40
0
 40
1
 40
1
 40
1
 40
1
 10
227.511273
 20
90.842277
 30
0.0
 10
227.258612
 20
90.860324
 30
0.0
 10
225.381706
 20
90.373050
 30
0.0
 10
223.324328
 20
89.759446
 30
0.0
  0
LWPOLYLINE
  5
1ba
100
AcDbEntity
  8
Layer_1
 62
7
100
AcDbPolyline
 90
3
 70
0
 10
234.838425
 20
68.301356
 30
0.0
 10
234.423340
 20
84.237011
 30
0.0
 10
231.192896
 20
87.521597
 30
0.0
  0
LWPOLYLINE
  5
1bb
100
AcDbEntity
  8
Layer_1
 62
7
100
AcDbPolyline
 90
2
 70
0
 10
223.324328
 20
89.759446
 30
0.0
 10
223.324328
 20
89.759446
 30
0.0
  0
SPLINE
  5
1bc
100
AcDbEntity
  8
Layer_1
 62
7
100
AcDbSpline
 70
8
 71
3
 72
8
 73
4
 74
0
 40
0
 40
0
 40
0
 40
0
 40
1
 40
1
 40
1
 40
1
 10
54.709580
 20
61.461477
 30
0.0
 10
55.359279
 20
52.401796
 30
0.0
 10
55.900694
 20
44.966360
 30
0.0
 10
55.936788
 20
44.930266
 30
0.0
  0
SPLINE
  5
1bd
100
AcDbEntity
  8
Layer_1
 62
7
100
AcDbSpline
 70
8
 71
3
 72
8
 73
4
 74
0
 40
0
 40
0
 40
0
 40
0
 40
1
 40
1
 40
1
 40
1
 10
55.936788
 20
44.930266
 30
0.0
 10
56.045071
 20
44.840030
 30
0.0
 10
77.376831
 20
38.379142
 30
0.0
 10
77.593397
 20
38.379142
 30
0.0
  0
SPLINE
  5
1be
100
AcDbEntity
  8
Layer_1
 62
7
100
AcDbSpline
 70
8
 71
3
 72
8
 73
4
 74
0
 40
0
 40
0
 40
0
 40
0
 40
1
 40
1
 40
1
 40
1
 10
77.593397
 20
38.379142
 30
0.0
 10
77.954341
 20
38.379142
 30
0.0
 10
81.365257
 20
41.122312
 30
0.0
 10
81.275021
 20
41.338878
 30
0.0
  0
SPLINE
  5
1bf
100
AcDbEntity
  8
Layer_1
 62
7
100
AcDbSpline
 70
8
 71
3
 72
8
 73
4
 74
0
 40
0
 40
0
 40
0
 40
0
 40
1
 40
1
 40
1
 40
1
 10
81.275021
 20
41.338878
 30
0.0
 10
81.238926
 20
41.447161
 30
0.0
 10
81.040407
 20
42.223190
 30
0.0
 10
80.859936
 20
43.071407
 30
0.0
  0
SPLINE
  5
1c0
100
AcDbEntity
  8
Layer_1
 62
7
100
AcDbSpline
 70
8
 71
3
 72
8
 73
4
 74
0
 40
0
 40
0
 40
0
 40
0
 40
1
 40
1
 40
1
 40
1
 10
80.859936
 20
43.071407
 30
0.0
 10
80.589228
 20
44.370803
 30
0.0
 10
80.354615
 20
44.876124
 30
0.0
 10
79.380067
 20
46.410134
 30
0.0
  0
SPLINE
  5
1c1
100
AcDbEntity
  8
Layer_1
 62
7
100
AcDbSpline
 70
8
 71
3
 72
8
 73
4
 74
0
 40
0
 40
0
 40
0
 40
0
 40
1
 40
1
 40
1
 40
1
 10
79.380067
 20
46.410134
 30
0.0
 10
78.730369
 20
47.402729
 30
0.0
 10
77.773869
 20
48.882597
 30
0.0
 10
77.250501
 20
49.694720
 30
0.0
  0
LWPOLYLINE
  5
1c2
100
AcDbEntity
  8
Layer_1
 62
7
100
AcDbPolyline
 90
3
 70
0
 10
57.470798
 20
82.251822
 30
0.0
 10
53.554561
 20
77.938547
 30
0.0
 10
54.709580
 20
61.461477
 30
0.0
  0
SPLINE
  5
1c3
100
AcDbEntity
  8
Layer_1
 62
7
100
AcDbSpline
 70
8
 71
3
 72
8
 73
4
 74
0
 40
0
 40
0
 40
0
 40
0
 40
1
 40
1
 40
1
 40
1
 10
82.772936
 20
56.697023
 30
0.0
 10
86.346277
 20
59.746996
 30
0.0
 10
89.306013
 20
62.291647
 30
0.0
 10
89.360155
 20
62.363836
 30
0.0
  0
SPLINE
  5
1c4
100
AcDbEntity
  8
Layer_1
 62
7
100
AcDbSpline
 70
8
 71
3
 72
8
 73
4
 74
0
 40
0
 40
0
 40
0
 40
0
 40
1
 40
1
 40
1
 40
1
 10
89.360155
 20
62.363836
 30
0.0
 10
89.396249
 20
62.454072
 30
0.0
 10
89.071400
 20
62.778921
 30
0.0
 10
88.620221
 20
63.103770
 30
0.0
  0
SPLINE
  5
1c5
100
AcDbEntity
  8
Layer_1
 62
7
100
AcDbSpline
 70
8
 71
3
 72
8
 73
4
 74
0
 40
0
 40
0
 40
0
 40
0
 40
1
 40
1
 40
1
 40
1
 10
88.620221
 20
63.103770
 30
0.0
 10
87.230588
 20
64.096365
 30
0.0
 10
84.451323
 20
66.875630
 30
0.0
 10
82.899266
 20
68.788630
 30
0.0
  0
SPLINE
  5
1c6
100
AcDbEntity
  8
Layer_1
 62
7
100
AcDbSpline
 70
8
 71
3
 72
8
 73
4
 74
0
 40
0
 40
0
 40
0
 40
0
 40
1
 40
1
 40
1
 40
1
 10
82.899266
 20
68.788630
 30
0.0
 10
79.325926
 20
73.228235
 30
0.0
 10
76.239859
 20
78.895048
 30
0.0
 10
74.002010
 20
85.157417
 30
0.0
  0
SPLINE
  5
1c7
100
AcDbEntity
  8
Layer_1
 62
7
100
AcDbSpline
 70
8
 71
3
 72
8
 73
4
 74
0
 40
0
 40
0
 40
0
 40
0
 40
1
 40
1
 40
1
 40
1
 10
74.002010
 20
85.157417
 30
0.0
 10
73.731302
 20
85.879304
 30
0.0
 10
73.514736
 20
86.492908
 30
0.0
 10
73.496689
 20
86.510955
 30
0.0
  0
SPLINE
  5
1c8
100
AcDbEntity
  8
Layer_1
 62
7
100
AcDbSpline
 70
8
 71
3
 72
8
 73
4
 74
0
 40
0
 40
0
 40
0
 40
0
 40
1
 40
1
 40
1
 40
1
 10
73.496689
 20
86.510955
 30
0.0
 10
73.478641
 20
86.529002
 30
0.0
 10
71.980726
 20
86.186106
 30
0.0
 10
70.157961
 20
85.752974
 30
0.0
  0
LWPOLYLINE
  5
1c9
100
AcDbEntity
  8
Layer_1
 62
7
100
AcDbPolyline
 90
3
 70
0
 10
77.250501
 20
49.694720
 30
0.0
 10
76.294001
 20
51.174588
 30
0.0
 10
82.772936
 20
56.697023
 30
0.0
  0
SPLINE
  5
1ca
100
AcDbEntity
  8
Layer_1
 62
7
100
AcDbSpline
 70
8
 71
3
 72
8
 73
4
 74
0
 40
0
 40
0
 40
0
 40
0
 40
1
 40
1
 40
1
 40
1
 10
64.455054
 20
85.662738
 30
0.0
 10
63.137611
 20
86.041729
 30
0.0
 10
61.910403
 20
86.402672
 30
0.0
 10
61.729931
 20
86.456814
 30
0.0
  0
SPLINE
  5
1cb
100
AcDbEntity
  8
Layer_1
 62
7
100
AcDbSpline
 70
8
 71
3
 72
8
 73
4
 74
0
 40
0
 40
0
 40
0
 40
0
 40
1
 40
1
 40
1
 40
1
 10
61.729931
 20
86.456814
 30
0.0
 10
61.459223
 20
86.547049
 30
0.0
 10
60.556865
 20
85.644691
 30
0.0
 10
57.470798
 20
82.251822
 30
0.0
  0
LWPOLYLINE
  5
1cc
100
AcDbEntity
  8
Layer_1
 62
7
100
AcDbPolyline
 90
3
 70
0
 10
70.157961
 20
85.752974
 30
0.0
 10
66.837281
 20
84.976945
 30
0.0
 10
64.455054
 20
85.662738
 30
0.0
  0
LWPOLYLINE
  5
1cd
100
AcDbEntity
  8
Layer_1
 62
7
100
AcDbPolyline
 90
2
 70
0
 10
57.470798
 20
82.251822
 30
0.0
 10
57.470798
 20
82.251822
 30
0.0
  0
SPLINE
  5
1ce
100
AcDbEntity
  8
Layer_1
 62
7
100
AcDbSpline
 70
8
 71
3
 72
8
 73
4
 74
0
 40
0
 40
0
 40
0
 40
0
 40
1
 40
1
 40
1
 40
1
 10
141.913526
 20
76.061641
 30
0.0
 10
138.466516
 20
77.144472
 30
0.0
 10
135.615062
 20
77.992689
 30
0.0
 10
135.578968
 20
77.920500
 30
0.0
  0
SPLINE
  5
1cf
100
AcDbEntity
  8
Layer_1
 62
7
100
AcDbSpline
 70
8
 71
3
 72
8
 73
4
 74
0
 40
0
 40
0
 40
0
 40
0
 40
1
 40
1
 40
1
 40
1
 10
135.578968
 20
77.920500
 30
0.0
 10
135.542873
 20
77.866359
 30
0.0
 10
135.254119
 20
77.126425
 30
0.0
 10
134.929269
 20
76.278207
 30
0.0
  0
SPLINE
  5
1d0
100
AcDbEntity
  8
Layer_1
 62
7
100
AcDbSpline
 70
8
 71
3
 72
8
 73
4
 74
0
 40
0
 40
0
 40
0
 40
0
 40
1
 40
1
 40
1
 40
1
 10
134.929269
 20
76.278207
 30
0.0
 10
134.604420
 20
75.429990
 30
0.0
 10
133.756203
 20
73.516990
 30
0.0
 10
133.034316
 20
72.037121
 30
0.0
  0
SPLINE
  5
1d1
100
AcDbEntity
  8
Layer_1
 62
7
100
AcDbSpline
 70
8
 71
3
 72
8
 73
4
 74
0
 40
0
 40
0
 40
0
 40
0
 40
1
 40
1
 40
1
 40
1
 10
133.034316
 20
72.037121
 30
0.0
 10
130.092627
 20
65.991318
 30
0.0
 10
126.194437
 20
61.317100
 30
0.0
 10
121.574361
 20
58.285175
 30
0.0
  0
SPLINE
  5
1d2
100
AcDbEntity
  8
Layer_1
 62
7
100
AcDbSpline
 70
8
 71
3
 72
8
 73
4
 74
0
 40
0
 40
0
 40
0
 40
0
 40
1
 40
1
 40
1
 40
1
 10
121.574361
 20
58.285175
 30
0.0
 10
120.726143
 20
57.725712
 30
0.0
 10
119.968162
 20
57.202344
 30
0.0
 10
119.859879
 20
57.112108
 30
0.0
  0
SPLINE
  5
1d3
100
AcDbEntity
  8
Layer_1
 62
7
100
AcDbSpline
 70
8
 71
3
 72
8
 73
4
 74
0
 40
0
 40
0
 40
0
 40
0
 40
1
 40
1
 40
1
 40
1
 10
119.859879
 20
57.112108
 30
0.0
 10
119.751596
 20
57.003825
 30
0.0
 10
119.607219
 20
51.770145
 30
0.0
 10
119.480888
 20
42.836794
 30
0.0
  0
SPLINE
  5
1d4
100
AcDbEntity
  8
Layer_1
 62
7
100
AcDbSpline
 70
8
 71
3
 72
8
 73
4
 74
0
 40
0
 40
0
 40
0
 40
0
 40
1
 40
1
 40
1
 40
1
 10
119.480888
 20
42.836794
 30
0.0
 10
119.390652
 20
35.076509
 30
0.0
 10
119.300417
 20
28.705856
 30
0.0
 10
119.318464
 20
28.687809
 30
0.0
  0
SPLINE
  5
1d5
100
AcDbEntity
  8
Layer_1
 62
7
100
AcDbSpline
 70
8
 71
3
 72
8
 73
4
 74
0
 40
0
 40
0
 40
0
 40
0
 40
1
 40
1
 40
1
 40
1
 10
119.318464
 20
28.687809
 30
0.0
 10
119.318464
 20
28.669762
 30
0.0
 10
125.616928
 20
26.919186
 30
0.0
 10
133.305024
 20
24.771572
 30
0.0
  0
LWPOLYLINE
  5
1d6
100
AcDbEntity
  8
Layer_1
 62
7
100
AcDbPolyline
 90
5
 70
0
 10
163.804748
 20
76.314302
 30
0.0
 10
158.300360
 20
74.220829
 30
0.0
 10
153.247151
 20
74.166688
 30
0.0
 10
148.193942
 20
74.094499
 30
0.0
 10
141.913526
 20
76.061641
 30
0.0
  0
SPLINE
  5
1d7
100
AcDbEntity
  8
Layer_1
 62
7
100
AcDbSpline
 70
8
 71
3
 72
8
 73
4
 74
0
 40
0
 40
0
 40
0
 40
0
 40
1
 40
1
 40
1
 40
1
 10
173.820930
 20
25.926591
 30
0.0
 10
180.769092
 20
28.922422
 30
0.0
 10
186.453952
 20
31.394885
 30
0.0
 10
186.471999
 20
31.394885
 30
0.0
  0
SPLINE
  5
1d8
100
AcDbEntity
  8
Layer_1
 62
7
100
AcDbSpline
 70
8
 71
3
 72
8
 73
4
 74
0
 40
0
 40
0
 40
0
 40
0
 40
1
 40
1
 40
1
 40
1
 10
186.471999
 20
31.394885
 30
0.0
 10
186.471999
 20
31.412932
 30
0.0
 10
185.984725
 20
37.476783
 30
0.0
 10
185.353074
 20
44.876124
 30
0.0
  0
SPLINE
  5
1d9
100
AcDbEntity
  8
Layer_1
 62
7
100
AcDbSpline
 70
8
 71
3
 72
8
 73
4
 74
0
 40
0
 40
0
 40
0
 40
0
 40
1
 40
1
 40
1
 40
1
 10
185.353074
 20
44.876124
 30
0.0
 10
184.721423
 20
52.275466
 30
0.0
 10
184.216102
 20
58.573930
 30
0.0
 10
184.198055
 20
58.862684
 30
0.0
  0
SPLINE
  5
1da
100
AcDbEntity
  8
Layer_1
 62
7
100
AcDbSpline
 70
8
 71
3
 72
8
 73
4
 74
0
 40
0
 40
0
 40
0
 40
0
 40
1
 40
1
 40
1
 40
1
 10
184.198055
 20
58.862684
 30
0.0
 10
184.198055
 20
59.331911
 30
0.0
 10
184.035630
 20
59.494335
 30
0.0
 10
182.880611
 20
60.180128
 30
0.0
  0
SPLINE
  5
1db
100
AcDbEntity
  8
Layer_1
 62
7
100
AcDbSpline
 70
8
 71
3
 72
8
 73
4
 74
0
 40
0
 40
0
 40
0
 40
0
 40
1
 40
1
 40
1
 40
1
 10
182.880611
 20
60.180128
 30
0.0
 10
177.646931
 20
63.302289
 30
0.0
 10
173.207326
 20
69.005196
 30
0.0
 10
170.211495
 20
76.458679
 30
0.0
  0
SPLINE
  5
1dc
100
AcDbEntity
  8
Layer_1
 62
7
100
AcDbSpline
 70
8
 71
3
 72
8
 73
4
 74
0
 40
0
 40
0
 40
0
 40
0
 40
1
 40
1
 40
1
 40
1
 10
170.211495
 20
76.458679
 30
0.0
 10
169.832504
 20
77.397132
 30
0.0
 10
169.471561
 20
78.227302
 30
0.0
 10
169.417419
 20
78.299491
 30
0.0
  0
SPLINE
  5
1dd
100
AcDbEntity
  8
Layer_1
 62
7
100
AcDbSpline
 70
8
 71
3
 72
8
 73
4
 74
0
 40
0
 40
0
 40
0
 40
0
 40
1
 40
1
 40
1
 40
1
 10
169.417419
 20
78.299491
 30
0.0
 10
169.363278
 20
78.353632
 30
0.0
 10
166.836673
 20
77.469321
 30
0.0
 10
163.804748
 20
76.314302
 30
0.0
  0
LWPOLYLINE
  5
1de
100
AcDbEntity
  8
Layer_1
 62
7
100
AcDbPolyline
 90
5
 70
0
 10
133.305024
 20
24.771572
 30
0.0
 10
147.291584
 20
20.891430
 30
0.0
 10
154.239746
 20
20.692911
 30
0.0
 10
161.187908
 20
20.494392
 30
0.0
 10
173.820930
 20
25.926591
 30
0.0
  0
SPLINE
  5
1df
100
AcDbEntity
  8
Layer_1
 62
7
100
AcDbSpline
 70
8
 71
3
 72
8
 73
4
 74
0
 40
0
 40
0
 40
0
 40
0
 40
1
 40
1
 40
1
 40
1
 10
202.515937
 20
61.804374
 30
0.0
 10
201.397012
 20
61.082487
 30
0.0
 10
198.780171
 20
59.837232
 30
0.0
 10
197.426633
 20
59.386052
 30
0.0
  0
SPLINE
  5
1e0
100
AcDbEntity
  8
Layer_1
 62
7
100
AcDbSpline
 70
8
 71
3
 72
8
 73
4
 74
0
 40
0
 40
0
 40
0
 40
0
 40
1
 40
1
 40
1
 40
1
 10
197.426633
 20
59.386052
 30
0.0
 10
195.802388
 20
58.844637
 30
0.0
 10
193.185547
 20
58.321269
 30
0.0
 10
191.182311
 20
58.140797
 30
0.0
  0
SPLINE
  5
1e1
100
AcDbEntity
  8
Layer_1
 62
7
100
AcDbSpline
 70
8
 71
3
 72
8
 73
4
 74
0
 40
0
 40
0
 40
0
 40
0
 40
1
 40
1
 40
1
 40
1
 10
191.182311
 20
58.140797
 30
0.0
 10
190.261905
 20
58.050561
 30
0.0
 10
189.810726
 20
57.942278
 30
0.0
 10
189.864867
 20
57.797901
 30
0.0
  0
SPLINE
  5
1e2
100
AcDbEntity
  8
Layer_1
 62
7
100
AcDbSpline
 70
8
 71
3
 72
8
 73
4
 74
0
 40
0
 40
0
 40
0
 40
0
 40
1
 40
1
 40
1
 40
1
 10
189.864867
 20
57.797901
 30
0.0
 10
189.900962
 20
57.689618
 30
0.0
 10
190.117528
 20
56.841401
 30
0.0
 10
190.352141
 20
55.920995
 30
0.0
  0
LWPOLYLINE
  5
1e3
100
AcDbEntity
  8
Layer_1
 62
7
100
AcDbPolyline
 90
2
 70
0
 10
163.804748
 20
76.314302
 30
0.0
 10
163.804748
 20
76.314302
 30
0.0
  0
SPLINE
  5
1e4
100
AcDbEntity
  8
Layer_1
 62
7
100
AcDbSpline
 70
8
 71
3
 72
8
 73
4
 74
0
 40
0
 40
0
 40
0
 40
0
 40
1
 40
1
 40
1
 40
1
 10
190.334094
 20
52.672504
 30
0.0
 10
189.900962
 20
51.174588
 30
0.0
 10
189.882915
 20
50.903880
 30
0.0
 10
189.937056
 20
46.861313
 30
0.0
  0
SPLINE
  5
1e5
100
AcDbEntity
  8
Layer_1
 62
7
100
AcDbSpline
 70
8
 71
3
 72
8
 73
4
 74
0
 40
0
 40
0
 40
0
 40
0
 40
1
 40
1
 40
1
 40
1
 10
189.937056
 20
46.861313
 30
0.0
 10
189.955103
 20
44.515181
 30
0.0
 10
190.045339
 20
42.114907
 30
0.0
 10
190.117528
 20
41.501303
 30
0.0
  0
LWPOLYLINE
  5
1e6
100
AcDbEntity
  8
Layer_1
 62
7
100
AcDbPolyline
 90
3
 70
0
 10
190.352141
 20
55.920995
 30
0.0
 10
190.767226
 20
54.224561
 30
0.0
 10
190.334094
 20
52.672504
 30
0.0
  0
SPLINE
  5
1e7
100
AcDbEntity
  8
Layer_1
 62
7
100
AcDbSpline
 70
8
 71
3
 72
8
 73
4
 74
0
 40
0
 40
0
 40
0
 40
0
 40
1
 40
1
 40
1
 40
1
 10
198.401181
 20
43.324067
 30
0.0
 10
202.894927
 20
44.930266
 30
0.0
 10
206.612645
 20
46.301851
 30
0.0
 10
206.684834
 20
46.374040
 30
0.0
  0
SPLINE
  5
1e8
100
AcDbEntity
  8
Layer_1
 62
7
100
AcDbSpline
 70
8
 71
3
 72
8
 73
4
 74
0
 40
0
 40
0
 40
0
 40
0
 40
1
 40
1
 40
1
 40
1
 10
206.684834
 20
46.374040
 30
0.0
 10
206.775070
 20
46.464276
 30
0.0
 10
207.442815
 20
54.531362
 30
0.0
 10
207.478909
 20
55.902948
 30
0.0
  0
SPLINE
  5
1e9
100
AcDbEntity
  8
Layer_1
 62
7
100
AcDbSpline
 70
8
 71
3
 72
8
 73
4
 74
0
 40
0
 40
0
 40
0
 40
0
 40
1
 40
1
 40
1
 40
1
 10
207.478909
 20
55.902948
 30
0.0
 10
207.478909
 20
56.155608
 30
0.0
 10
203.797286
 20
61.443430
 30
0.0
 10
203.273918
 20
61.948751
 30
0.0
  0
SPLINE
  5
1ea
100
AcDbEntity
  8
Layer_1
 62
7
100
AcDbSpline
 70
8
 71
3
 72
8
 73
4
 74
0
 40
0
 40
0
 40
0
 40
0
 40
1
 40
1
 40
1
 40
1
 10
203.273918
 20
61.948751
 30
0.0
 10
203.111493
 20
62.111176
 30
0.0
 10
202.912974
 20
62.075081
 30
0.0
 10
202.515937
 20
61.804374
 30
0.0
  0
LWPOLYLINE
  5
1eb
100
AcDbEntity
  8
Layer_1
 62
7
100
AcDbPolyline
 90
3
 70
0
 10
190.117528
 20
41.501303
 30
0.0
 10
190.243858
 20
40.400425
 30
0.0
 10
198.401181
 20
43.324067
 30
0.0
  0
LWPOLYLINE
  5
1ec
100
AcDbEntity
  8
Layer_1
 62
7
100
AcDbPolyline
 90
2
 70
0
 10
202.515937
 20
61.804374
 30
0.0
 10
202.515937
 20
61.804374
 30
0.0
  0
SPLINE
  5
1ed
100
AcDbEntity
  8
Layer_1
 62
7
100
AcDbSpline
 70
8
 71
3
 72
8
 73
4
 74
0
 40
0
 40
0
 40
0
 40
0
 40
1
 40
1
 40
1
 40
1
 10
91.255108
 20
45.616058
 30
0.0
 10
91.381438
 20
43.179690
 30
0.0
 10
91.507768
 20
41.140359
 30
0.0
 10
91.561910
 20
41.086218
 30
0.0
  0
SPLINE
  5
1ee
100
AcDbEntity
  8
Layer_1
 62
7
100
AcDbSpline
 70
8
 71
3
 72
8
 73
4
 74
0
 40
0
 40
0
 40
0
 40
0
 40
1
 40
1
 40
1
 40
1
 10
91.561910
 20
41.086218
 30
0.0
 10
91.652146
 20
40.995982
 30
0.0
 10
114.048689
 20
35.148697
 30
0.0
 10
114.120878
 20
35.202839
 30
0.0
  0
SPLINE
  5
1ef
100
AcDbEntity
  8
Layer_1
 62
7
100
AcDbSpline
 70
8
 71
3
 72
8
 73
4
 74
0
 40
0
 40
0
 40
0
 40
0
 40
1
 40
1
 40
1
 40
1
 10
114.120878
 20
35.202839
 30
0.0
 10
114.138925
 20
35.220886
 30
0.0
 10
113.994547
 20
37.585066
 30
0.0
 10
113.777981
 20
40.454567
 30
0.0
  0
LWPOLYLINE
  5
1f0
100
AcDbEntity
  8
Layer_1
 62
7
100
AcDbPolyline
 90
3
 70
0
 10
93.222250
 20
54.405032
 30
0.0
 10
91.056589
 20
50.055663
 30
0.0
 10
91.255108
 20
45.616058
 30
0.0
  0
SPLINE
  5
1f1
100
AcDbEntity
  8
Layer_1
 62
7
100
AcDbSpline
 70
8
 71
3
 72
8
 73
4
 74
0
 40
0
 40
0
 40
0
 40
0
 40
1
 40
1
 40
1
 40
1
 10
111.449896
 20
50.831692
 30
0.0
 10
111.648415
 20
51.282871
 30
0.0
 10
112.171783
 20
52.419843
 30
0.0
 10
112.604915
 20
53.376343
 30
0.0
  0
LWPOLYLINE
  5
1f2
100
AcDbEntity
  8
Layer_1
 62
7
100
AcDbPolyline
 90
5
 70
0
 10
113.777981
 20
40.454567
 30
0.0
 10
113.417038
 20
45.688247
 30
0.0
 10
112.262019
 20
47.853908
 30
0.0
 10
111.107000
 20
50.019569
 30
0.0
 10
111.449896
 20
50.831692
 30
0.0
  0
SPLINE
  5
1f3
100
AcDbEntity
  8
Layer_1
 62
7
100
AcDbSpline
 70
8
 71
3
 72
8
 73
4
 74
0
 40
0
 40
0
 40
0
 40
0
 40
1
 40
1
 40
1
 40
1
 10
110.150499
 20
55.018636
 30
0.0
 10
104.321262
 20
54.874259
 30
0.0
 10
99.683138
 20
55.866853
 30
0.0
 10
96.560977
 20
57.960326
 30
0.0
  0
LWPOLYLINE
  5
1f4
100
AcDbEntity
  8
Layer_1
 62
7
100
AcDbPolyline
 90
3
 70
0
 10
112.604915
 20
53.376343
 30
0.0
 10
113.417038
 20
55.108872
 30
0.0
 10
110.150499
 20
55.018636
 30
0.0
  0
LWPOLYLINE
  5
1f5
100
AcDbEntity
  8
Layer_1
 62
7
100
AcDbPolyline
 90
4
 70
0
 10
96.560977
 20
57.960326
 30
0.0
 10
95.387911
 20
58.754401
 30
0.0
 10
93.222250
 20
54.405032
 30
0.0
 10
93.222250
 20
54.405032
 30
0.0
  0
ENDSEC
  0
SECTION
  2
OBJECTS
  0
DICTIONARY
  5
C
330
0
100
AcDbDictionary
  3
ACAD_GROUP
350
D
  3
ACAD_MLINESTYLE
350
17
  0
DICTIONARY
  5
D
330
C
100
AcDbDictionary
  0
DICTIONARY
  5
1A
330
C
100
AcDbDictionary
  0
DICTIONARY
  5
17
330
C
100
AcDbDictionary
  3
STANDARD
350
18
  0
DICTIONARY
  5
19
330
C
100
AcDbDictionary
  0
ENDSEC
  0
EOF
