<?xml version="1.0" encoding="UTF-8" standalone="no"?>
<!-- Created with Inkscape (http://www.inkscape.org/) -->

<svg
   xmlns:dc="http://purl.org/dc/elements/1.1/"
   xmlns:cc="http://creativecommons.org/ns#"
   xmlns:rdf="http://www.w3.org/1999/02/22-rdf-syntax-ns#"
   xmlns:svg="http://www.w3.org/2000/svg"
   xmlns="http://www.w3.org/2000/svg"
   xmlns:sodipodi="http://sodipodi.sourceforge.net/DTD/sodipodi-0.dtd"
   xmlns:inkscape="http://www.inkscape.org/namespaces/inkscape"
   width="297mm"
   height="210mm"
   id="svg3158"
   version="1.1"
   inkscape:version="0.48.2 r9819"
   sodipodi:docname="New document 3">
  <defs
     id="defs3160" />
  <sodipodi:namedview
     inkscape:document-units="mm"
     pagecolor="#ffffff"
     bordercolor="#666666"
     borderopacity="1.0"
     inkscape:pageopacity="0.0"
     inkscape:pageshadow="2"
     inkscape:zoom="0.43415836"
     inkscape:cx="490"
     inkscape:cy="380"
     inkscape:current-layer="layer1"
     id="namedview3162"
     showgrid="false"
     inkscape:window-width="1920"
     inkscape:window-height="1028"
     inkscape:window-x="-8"
     inkscape:window-y="-8"
     inkscape:window-maximized="1" />
  <metadata
     id="metadata3164">
    <rdf:RDF>
      <cc:Work
         rdf:about="">
        <dc:format>image/svg+xml</dc:format>
        <dc:type
           rdf:resource="http://purl.org/dc/dcmitype/StillImage" />
        <dc:title></dc:title>
      </cc:Work>
    </rdf:RDF>
  </metadata>
  <g
     inkscape:label="Layer 1"
     inkscape:groupmode="layer"
     id="layer1">
    <g
       id="g3171"
       transform="matrix(0.06394668,0,0,-0.06394668,143.6547,686.75982)"
       style="fill:#000000;stroke:none">
      <path
         id="path3173"
         d="m 4801,9274 c -426,-46 -775,-85 -778,-87 -2,-2 1,-190 7,-418 5,-228 10,-459 10,-514 l 0,-101 91,-63 c 444,-307 771,-756 965,-1321 l 19,-55 410,-6 c 226,-4 696,-9 1045,-13 l 636,-7 28,103 c 123,450 364,876 685,1210 l 104,108 -12,472 c -6,260 -13,474 -16,476 -2,3 -330,62 -729,132 l -724,128 -429,21 c -235,12 -453,21 -483,20 -30,-1 -403,-39 -829,-85 z"
         inkscape:connector-curvature="0" />
      <path
         id="path3175"
         d="m 950,8783 c -322,-46 -587,-86 -589,-89 -4,-4 135,-1721 144,-1780 5,-29 16,-36 211,-128 114,-53 208,-96 209,-94 1,2 40,93 85,203 207,502 388,814 609,1047 l 81,86 -74,277 -75,278 54,118 54,119 -49,25 c -27,14 -55,25 -62,24 -7,-1 -276,-39 -598,-86 z"
         inkscape:connector-curvature="0" />
      <path
         id="path3177"
         d="m 3086,8784 c -368,-24 -670,-45 -671,-46 -1,-2 13,-153 31,-336 l 32,-333 62,-105 c 34,-57 66,-107 71,-110 5,-3 29,11 53,30 52,44 168,98 256,120 166,42 404,28 620,-38 l 107,-32 98,119 98,120 -27,281 c -38,378 -37,376 -50,375 -6,-1 -312,-21 -680,-45 z"
         inkscape:connector-curvature="0" />
      <path
         id="path3179"
         d="m 8196,8643 c -3,-65 -9,-192 -12,-283 l -6,-165 62,-155 c 34,-85 65,-159 70,-163 4,-5 43,-2 85,7 273,57 529,39 752,-52 l 70,-29 56,113 56,113 -21,263 c -11,145 -24,266 -27,271 -6,6 -1042,197 -1070,197 -5,0 -11,-53 -15,-117 z"
         inkscape:connector-curvature="0" />
      <path
         id="path3181"
         d="m 9810,8629 c -58,-49 -111,-95 -117,-102 -10,-10 0,-23 47,-62 l 61,-50 -6,-120 -6,-120 106,-105 c 347,-343 554,-748 660,-1291 13,-66 25,-122 27,-123 2,-2 300,21 304,23 3,1 -8,1856 -11,1858 -2,4 -938,183 -950,182 -5,0 -57,-41 -115,-90 z"
         inkscape:connector-curvature="0" />
      <path
         id="path3183"
         d="m 3076,6575 c -209,-43 -379,-132 -534,-279 -266,-251 -416,-637 -425,-1086 l -2,-135 65,-6 c 36,-4 102,-9 148,-13 l 82,-6 0,119 c 0,204 38,343 118,432 74,83 136,98 227,55 88,-41 178,-158 245,-318 21,-49 40,-80 52,-84 37,-11 63,20 93,111 45,141 124,243 219,286 55,25 111,24 171,-5 135,-62 233,-267 280,-582 9,-60 17,-109 18,-111 3,-3 460,-23 526,-23 l 54,0 -6,163 c -15,357 -67,594 -187,842 -153,318 -393,529 -705,621 -113,33 -328,42 -439,19 z"
         inkscape:connector-curvature="0" />
      <path
         id="path3185"
         d="m 8560,6554 c -30,-8 -96,-34 -147,-59 -207,-102 -383,-331 -493,-641 -80,-228 -120,-450 -145,-821 l -5,-83 32,0 c 18,1 163,9 323,19 l 289,18 37,43 c 87,101 170,279 224,480 57,211 95,287 194,393 85,91 163,109 259,61 60,-30 110,-86 146,-164 38,-82 49,-151 44,-275 -4,-90 -11,-128 -37,-205 -18,-52 -45,-119 -62,-149 -16,-30 -27,-56 -25,-59 2,-2 116,7 252,19 l 247,23 -7,119 c -26,469 -201,873 -476,1104 -86,73 -242,153 -341,177 -81,20 -235,20 -309,0 z"
         inkscape:connector-curvature="0" />
      <path
         id="path3187"
         d="m 5519,6007 c -36,-39 -80,-89 -98,-109 l -33,-38 31,-74 c 113,-271 146,-722 85,-1159 -17,-125 -72,-348 -103,-419 l -20,-47 126,-139 125,-139 185,-33 c 175,-31 194,-32 357,-27 169,5 174,6 396,65 l 225,59 73,94 c 39,52 84,111 98,131 l 26,37 -40,98 c -89,217 -117,374 -116,643 1,238 18,363 90,653 l 45,178 -127,137 c -70,75 -133,138 -140,140 -7,2 -84,-4 -171,-13 -87,-9 -240,-20 -340,-25 -182,-9 -183,-9 -380,26 -109,18 -205,34 -213,34 -8,0 -45,-33 -81,-73 z"
         inkscape:connector-curvature="0" />
      <path
         id="path3189"
         d="m 1000,5941 c 0,-9 14,-356 30,-771 16,-415 30,-782 30,-815 l 0,-60 145,-78 145,-79 140,118 c 77,65 139,120 138,123 -2,3 -15,29 -30,57 -129,245 -224,1006 -163,1299 6,27 -1,37 -68,103 l -73,73 -147,23 c -130,20 -147,21 -147,7 z"
         inkscape:connector-curvature="0" />
      <path
         id="path3191"
         d="m 10210,5945 c -85,-7 -156,-14 -157,-14 -1,-1 9,-33 22,-72 68,-199 100,-431 92,-669 -6,-190 -29,-328 -84,-493 l -36,-109 84,-85 84,-85 75,6 c 41,4 105,9 143,12 l 67,7 0,758 0,759 -67,-1 c -38,-1 -138,-8 -223,-14 z"
         inkscape:connector-curvature="0" />
      <path
         id="path3193"
         d="m 9415,4983 c -132,-14 -242,-27 -244,-29 -2,-2 13,-28 34,-59 78,-118 117,-255 117,-415 0,-285 -123,-502 -306,-540 -70,-14 -158,9 -204,53 -51,49 -99,157 -137,311 -21,84 -52,174 -78,230 -45,94 -139,251 -179,298 l -23,27 -294,-35 c -162,-19 -297,-37 -300,-39 -7,-7 25,-138 66,-275 159,-527 394,-856 688,-961 83,-29 220,-36 308,-15 77,18 188,71 258,121 73,54 205,198 263,287 172,265 275,598 311,1001 5,65 5,67 -17,66 -13,-1 -131,-13 -263,-26 z"
         inkscape:connector-curvature="0" />
      <path
         id="path3195"
         d="m 2140,4902 c 0,-44 40,-264 70,-383 154,-610 443,-977 855,-1084 102,-27 292,-26 406,3 118,29 250,87 356,158 95,63 246,206 310,294 161,222 244,468 244,728 1,68 -3,128 -8,132 -4,4 -114,19 -243,34 -129,15 -249,29 -266,32 l -31,6 -5,-69 c -4,-47 -14,-85 -33,-123 -49,-98 -181,-248 -288,-329 -110,-82 -246,-263 -283,-376 -20,-60 -36,-75 -85,-75 -44,0 -52,8 -74,84 -39,136 -86,206 -364,537 -163,194 -238,299 -267,374 -19,52 -13,49 -176,68 l -118,14 0,-25 z"
         inkscape:connector-curvature="0" />
      <path
         id="path3197"
         d="m 10128,4077 -207,-61 -6,-46 c -33,-245 -94,-420 -224,-639 -86,-145 -188,-278 -314,-408 l -108,-111 248,-173 c 136,-95 287,-200 335,-233 48,-34 88,-67 88,-73 0,-7 -45,-148 -99,-313 l -99,-301 97,-48 96,-48 420,188 c 231,104 423,190 427,191 4,2 -3,400 -16,886 l -23,883 -179,182 c -130,132 -186,182 -204,184 -14,1 -118,-26 -232,-60 z"
         inkscape:connector-curvature="0" />
      <path
         id="path3199"
         d="m 938,3661 -217,-239 64,-913 c 36,-502 66,-914 68,-916 6,-5 1188,-363 1200,-363 20,0 209,152 204,164 -2,6 -13,49 -23,96 -15,72 -28,100 -82,185 -36,55 -89,137 -118,182 l -53,82 359,306 c 198,169 362,310 365,314 2,5 -16,23 -41,41 -77,55 -231,209 -317,315 -198,246 -369,560 -493,907 -15,40 -27,74 -28,75 -1,1 -84,-18 -185,-42 l -184,-43 -132,38 c -73,21 -141,41 -151,44 -15,5 -65,-45 -236,-233 z"
         inkscape:connector-curvature="0" />
      <path
         id="path3201"
         d="m 6830,3332 -305,-116 -280,-3 -280,-4 -348,109 c -191,60 -349,107 -351,103 -2,-3 -18,-44 -36,-91 -18,-47 -65,-153 -105,-235 -163,-335 -379,-594 -635,-762 -47,-31 -89,-60 -95,-65 -6,-6 -14,-296 -21,-791 -5,-430 -10,-783 -9,-784 0,-1 349,-98 775,-217 l 775,-215 385,-11 385,-11 700,301 c 385,166 700,303 701,303 0,1 -27,337 -62,747 -35,410 -63,759 -64,775 0,26 -9,35 -73,73 -290,173 -536,489 -702,902 -21,52 -41,98 -44,102 -3,3 -143,-46 -311,-110 z"
         inkscape:connector-curvature="0" />
      <path
         id="path3203"
         d="m 8975,2528 c -62,-40 -207,-109 -282,-134 -90,-30 -235,-59 -346,-69 -51,-5 -76,-11 -73,-19 2,-6 14,-53 27,-104 l 23,-94 -24,-86 c -24,-83 -25,-98 -22,-322 1,-130 6,-263 10,-297 l 7,-61 452,162 c 249,89 455,165 459,169 5,5 42,452 44,528 0,14 -204,307 -233,335 -9,9 -20,7 -42,-8 z"
         inkscape:connector-curvature="0" />
      <path
         id="path3205"
         d="m 2919,2118 -120,-241 11,-246 c 7,-135 14,-248 17,-251 5,-5 1246,-329 1250,-326 1,1 -7,132 -19,291 l -20,290 -64,120 -64,120 19,45 c 11,25 40,88 64,141 l 45,96 -181,-5 c -323,-8 -580,47 -753,163 l -65,44 -120,-241 z"
         inkscape:connector-curvature="0" />
    </g>
  </g>
</svg>
