999
DXF created by Inkscape
  0
SECTION
  2
HEADER
  9
$ACADVER
  1
AC1014
  9
$HANDSEED
  5
FFFF
  9
$MEASUREMENT
 70
     1
  0
ENDSEC
  0
SECTION
  2
TABLES
  0
TABLE
  2
VPORT
  5
8
330
0
100
AcDbSymbolTable
 70
     4
  0
VPORT
  5
2E
330
8
100
AcDbSymbolTableRecord
100
AcDbViewportTableRecord
  2
*ACTIVE
 70
     0
 10
0.0
 20
0.0
 11
1.0
 21
1.0
 12
210.0
 22
148.5
 13
0.0
 23
0.0
 14
10.0
 24
10.0
 15
10.0
 25
10.0
 16
0.0
 26
0.0
 36
1.0
 17
0.0
 27
0.0
 37
0.0
 40
341.0
 41
1.24
 42
50.0
 43
0.0
 44
0.0
 50
0.0
 51
0.0
 71
     0
 72
   100
 73
     1
 74
     3
 75
     0
 76
     0
 77
     0
 78
     0
  0
ENDTAB
  0
TABLE
  2
LTYPE
  5
5
330
0
100
AcDbSymbolTable
 70
     1
  0
LTYPE
  5
14
330
5
100
AcDbSymbolTableRecord
100
AcDbLinetypeTableRecord
  2
BYBLOCK
 70
     0
  3

 72
    65
 73
     0
 40
0.0
  0
LTYPE
  5
15
330
5
100
AcDbSymbolTableRecord
100
AcDbLinetypeTableRecord
  2
BYLAYER
 70
     0
  3

 72
    65
 73
     0
 40
0.0
  0
LTYPE
  5
16
330
5
100
AcDbSymbolTableRecord
100
AcDbLinetypeTableRecord
  2
CONTINUOUS
 70
     0
  3
Solid line
 72
    65
 73
     0
 40
0.0
  0
ENDTAB
  0
TABLE
  2
LAYER
  5
2
100
AcDbSymbolTable
 70
2
  0
LAYER
  5
50
100
AcDbSymbolTableRecord
100
AcDbLayerTableRecord
  2
0
 70
0
  6
CONTINUOUS
  0
LAYER
  5
51
100
AcDbSymbolTableRecord
100
AcDbLayerTableRecord
  2
Layer_1
 70
0
  6
CONTINUOUS
  0
ENDTAB
  0
TABLE
  2
STYLE
  5
3
330
0
100
AcDbSymbolTable
 70
     1
  0
STYLE
  5
11
330
3
100
AcDbSymbolTableRecord
100
AcDbTextStyleTableRecord
  2
STANDARD
 70
     0
 40
0.0
 41
1.0
 50
0.0
 71
     0
 42
2.5
  3
txt
  4

  0
ENDTAB
  0
TABLE
  2
VIEW
  5
6
330
0
100
AcDbSymbolTable
 70
     0
  0
ENDTAB
  0
TABLE
  2
UCS
  5
7
330
0
100
AcDbSymbolTable
 70
     0
  0
ENDTAB
  0
TABLE
  2
APPID
  5
9
330
0
100
AcDbSymbolTable
 70
     2
  0
APPID
  5
12
330
9
100
AcDbSymbolTableRecord
100
AcDbRegAppTableRecord
  2
ACAD
 70
     0
  0
ENDTAB
  0
TABLE
  2
DIMSTYLE
  5
A
330
0
100
AcDbSymbolTable
 70
     1
  0
DIMSTYLE
105
27
330
A
100
AcDbSymbolTableRecord
100
AcDbDimStyleTableRecord
  2
ISO-25
 70
     0
  3

  4

  5

  6

  7

 40
1.0
 41
2.5
 42
0.625
 43
3.75
 44
1.25
 45
0.0
 46
0.0
 47
0.0
 48
0.0
140
2.5
141
2.5
142
0.0
143
0.03937007874016
144
1.0
145
0.0
146
1.0
147
0.625
 71
     0
 72
     0
 73
     0
 74
     0
 75
     0
 76
     0
 77
     1
 78
     8
170
     0
171
     3
172
     1
173
     0
174
     0
175
     0
176
     0
177
     0
178
     0
270
     2
271
     2
272
     2
273
     2
274
     3
340
11
275
     0
280
     0
281
     0
282
     0
283
     0
284
     8
285
     0
286
     0
287
     3
288
     0
  0
ENDTAB
  0
TABLE
  2
BLOCK_RECORD
  5
1
330
0
100
AcDbSymbolTable
 70
     1
  0
BLOCK_RECORD
  5
1F
330
1
100
AcDbSymbolTableRecord
100
AcDbBlockTableRecord
  2
*MODEL_SPACE
  0
BLOCK_RECORD
  5
1B
330
1
100
AcDbSymbolTableRecord
100
AcDbBlockTableRecord
  2
*PAPER_SPACE
  0
ENDTAB
  0
ENDSEC
  0
SECTION
  2
BLOCKS
  0
BLOCK
  5
20
330
1F
100
AcDbEntity
  8
0
100
AcDbBlockBegin
  2
*MODEL_SPACE
 70
     0
 10
0.0
 20
0.0
 30
0.0
  3
*MODEL_SPACE
  1

  0
ENDBLK
  5
21
330
1F
100
AcDbEntity
  8
0
100
AcDbBlockEnd
  0
BLOCK
  5
1C
330
1B
100
AcDbEntity
 67
     1
  8
0
100
AcDbBlockBegin
  2
*PAPER_SPACE
  1

  0
ENDBLK
  5
1D
330
1B
100
AcDbEntity
 67
     1
  8
0
100
AcDbBlockEnd
  0
ENDSEC
  0
SECTION
  2
ENTITIES
  0
SPLINE
  5
100
100
AcDbEntity
  8
Layer_1
 62
7
100
AcDbSpline
 70
8
 71
3
 72
8
 73
4
 74
0
 40
0
 40
0
 40
0
 40
0
 40
1
 40
1
 40
1
 40
1
 10
98.755909
 20
220.039541
 30
0.0
 10
90.180336
 20
217.246579
 30
0.0
 10
80.936025
 20
212.919455
 30
0.0
 10
79.795237
 20
211.188605
 30
0.0
  0
SPLINE
  5
101
100
AcDbEntity
  8
Layer_1
 62
7
100
AcDbSpline
 70
8
 71
3
 72
8
 73
4
 74
0
 40
0
 40
0
 40
0
 40
0
 40
1
 40
1
 40
1
 40
1
 10
79.795237
 20
211.188605
 30
0.0
 10
77.867700
 20
208.238293
 30
0.0
 10
73.304551
 20
195.296258
 30
0.0
 10
71.022976
 20
186.287972
 30
0.0
  0
SPLINE
  5
102
100
AcDbEntity
  8
Layer_1
 62
7
100
AcDbSpline
 70
8
 71
3
 72
8
 73
4
 74
0
 40
0
 40
0
 40
0
 40
0
 40
1
 40
1
 40
1
 40
1
 10
71.022976
 20
186.287972
 30
0.0
 10
70.590264
 20
184.517785
 30
0.0
 10
70.747614
 20
184.281760
 30
0.0
 10
75.310763
 20
178.813848
 30
0.0
  0
SPLINE
  5
103
100
AcDbEntity
  8
Layer_1
 62
7
100
AcDbSpline
 70
8
 71
3
 72
8
 73
4
 74
0
 40
0
 40
0
 40
0
 40
0
 40
1
 40
1
 40
1
 40
1
 10
75.310763
 20
178.813848
 30
0.0
 10
77.395650
 20
176.335586
 30
0.0
 10
80.149275
 20
173.031236
 30
0.0
 10
81.447412
 20
171.457737
 30
0.0
  0
SPLINE
  5
104
100
AcDbEntity
  8
Layer_1
 62
7
100
AcDbSpline
 70
8
 71
3
 72
8
 73
4
 74
0
 40
0
 40
0
 40
0
 40
0
 40
1
 40
1
 40
1
 40
1
 10
81.447412
 20
171.457737
 30
0.0
 10
84.830437
 20
167.405975
 30
0.0
 10
93.838723
 20
155.172014
 30
0.0
 10
98.323197
 20
148.484640
 30
0.0
  0
SPLINE
  5
105
100
AcDbEntity
  8
Layer_1
 62
7
100
AcDbSpline
 70
8
 71
3
 72
8
 73
4
 74
0
 40
0
 40
0
 40
0
 40
0
 40
1
 40
1
 40
1
 40
1
 10
98.323197
 20
148.484640
 30
0.0
 10
103.358396
 20
141.049854
 30
0.0
 10
103.004359
 20
141.364554
 30
0.0
 10
104.145146
 20
143.134741
 30
0.0
  0
SPLINE
  5
106
100
AcDbEntity
  8
Layer_1
 62
7
100
AcDbSpline
 70
8
 71
3
 72
8
 73
4
 74
0
 40
0
 40
0
 40
0
 40
0
 40
1
 40
1
 40
1
 40
1
 10
104.145146
 20
143.134741
 30
0.0
 10
105.207258
 20
144.786916
 30
0.0
 10
105.521958
 20
144.865591
 30
0.0
 10
105.994008
 20
143.646129
 30
0.0
  0
SPLINE
  5
107
100
AcDbEntity
  8
Layer_1
 62
7
100
AcDbSpline
 70
8
 71
3
 72
8
 73
4
 74
0
 40
0
 40
0
 40
0
 40
0
 40
1
 40
1
 40
1
 40
1
 10
105.994008
 20
143.646129
 30
0.0
 10
106.190696
 20
143.134741
 30
0.0
 10
106.623408
 20
142.544679
 30
0.0
 10
106.938108
 20
142.269316
 30
0.0
  0
SPLINE
  5
108
100
AcDbEntity
  8
Layer_1
 62
7
100
AcDbSpline
 70
8
 71
3
 72
8
 73
4
 74
0
 40
0
 40
0
 40
0
 40
0
 40
1
 40
1
 40
1
 40
1
 10
106.938108
 20
142.269316
 30
0.0
 10
107.449495
 20
141.836604
 30
0.0
 10
108.000220
 20
142.466004
 30
0.0
 10
110.635832
 20
146.399753
 30
0.0
  0
SPLINE
  5
109
100
AcDbEntity
  8
Layer_1
 62
7
100
AcDbSpline
 70
8
 71
3
 72
8
 73
4
 74
0
 40
0
 40
0
 40
0
 40
0
 40
1
 40
1
 40
1
 40
1
 10
110.635832
 20
146.399753
 30
0.0
 10
117.913269
 20
157.217564
 30
0.0
 10
126.095467
 20
168.153387
 30
0.0
 10
132.979529
 20
176.217573
 30
0.0
  0
SPLINE
  5
10a
100
AcDbEntity
  8
Layer_1
 62
7
100
AcDbSpline
 70
8
 71
3
 72
8
 73
4
 74
0
 40
0
 40
0
 40
0
 40
0
 40
1
 40
1
 40
1
 40
1
 10
132.979529
 20
176.217573
 30
0.0
 10
139.588228
 20
184.006397
 30
0.0
 10
139.942265
 20
184.517785
 30
0.0
 10
139.470215
 20
186.248634
 30
0.0
  0
SPLINE
  5
10b
100
AcDbEntity
  8
Layer_1
 62
7
100
AcDbSpline
 70
8
 71
3
 72
8
 73
4
 74
0
 40
0
 40
0
 40
0
 40
0
 40
1
 40
1
 40
1
 40
1
 10
139.470215
 20
186.248634
 30
0.0
 10
137.542678
 20
193.880108
 30
0.0
 10
133.412241
 20
205.917381
 30
0.0
 10
131.366691
 20
209.929805
 30
0.0
  0
SPLINE
  5
10c
100
AcDbEntity
  8
Layer_1
 62
7
100
AcDbSpline
 70
8
 71
3
 72
8
 73
4
 74
0
 40
0
 40
0
 40
0
 40
0
 40
1
 40
1
 40
1
 40
1
 10
131.366691
 20
209.929805
 30
0.0
 10
131.051992
 20
210.519868
 30
0.0
 10
130.422592
 20
211.385293
 30
0.0
 10
129.911204
 20
211.857343
 30
0.0
  0
SPLINE
  5
10d
100
AcDbEntity
  8
Layer_1
 62
7
100
AcDbSpline
 70
8
 71
3
 72
8
 73
4
 74
0
 40
0
 40
0
 40
0
 40
0
 40
1
 40
1
 40
1
 40
1
 10
129.911204
 20
211.857343
 30
0.0
 10
127.983667
 20
213.666867
 30
0.0
 10
118.385319
 20
217.954654
 30
0.0
 10
111.068545
 20
220.236229
 30
0.0
  0
SPLINE
  5
10e
100
AcDbEntity
  8
Layer_1
 62
7
100
AcDbSpline
 70
8
 71
3
 72
8
 73
4
 74
0
 40
0
 40
0
 40
0
 40
0
 40
1
 40
1
 40
1
 40
1
 10
104.105808
 20
220.432916
 30
0.0
 10
102.728996
 20
221.416354
 30
0.0
 10
103.083034
 20
221.455691
 30
0.0
 10
98.755909
 20
220.039541
 30
0.0
  0
LWPOLYLINE
  5
10f
100
AcDbEntity
  8
Layer_1
 62
7
100
AcDbPolyline
 90
5
 70
0
 10
111.068545
 20
220.236229
 30
0.0
 10
107.606845
 20
221.337679
 30
0.0
 10
106.426721
 20
220.472254
 30
0.0
 10
105.246596
 20
219.646166
 30
0.0
 10
104.105808
 20
220.432916
 30
0.0
  0
SPLINE
  5
110
100
AcDbEntity
  8
Layer_1
 62
7
100
AcDbSpline
 70
8
 71
3
 72
8
 73
4
 74
0
 40
0
 40
0
 40
0
 40
0
 40
1
 40
1
 40
1
 40
1
 10
63.824215
 20
213.234155
 30
0.0
 10
61.503303
 20
212.368730
 30
0.0
 10
59.733116
 20
210.795230
 30
0.0
 10
58.671003
 20
208.513656
 30
0.0
  0
SPLINE
  5
111
100
AcDbEntity
  8
Layer_1
 62
7
100
AcDbSpline
 70
8
 71
3
 72
8
 73
4
 74
0
 40
0
 40
0
 40
0
 40
0
 40
1
 40
1
 40
1
 40
1
 10
58.671003
 20
208.513656
 30
0.0
 10
56.979491
 20
204.894606
 30
0.0
 10
57.569553
 20
203.753819
 30
0.0
 10
59.969141
 20
206.074731
 30
0.0
  0
SPLINE
  5
112
100
AcDbEntity
  8
Layer_1
 62
7
100
AcDbSpline
 70
8
 71
3
 72
8
 73
4
 74
0
 40
0
 40
0
 40
0
 40
0
 40
1
 40
1
 40
1
 40
1
 10
59.969141
 20
206.074731
 30
0.0
 10
61.660653
 20
207.726906
 30
0.0
 10
63.234152
 20
208.277631
 30
0.0
 10
64.925665
 20
207.844918
 30
0.0
  0
SPLINE
  5
113
100
AcDbEntity
  8
Layer_1
 62
7
100
AcDbSpline
 70
8
 71
3
 72
8
 73
4
 74
0
 40
0
 40
0
 40
0
 40
0
 40
1
 40
1
 40
1
 40
1
 10
64.925665
 20
207.844918
 30
0.0
 10
66.538502
 20
207.372868
 30
0.0
 10
67.089227
 20
206.507444
 30
0.0
 10
67.089227
 20
204.265206
 30
0.0
  0
SPLINE
  5
114
100
AcDbEntity
  8
Layer_1
 62
7
100
AcDbSpline
 70
8
 71
3
 72
8
 73
4
 74
0
 40
0
 40
0
 40
0
 40
0
 40
1
 40
1
 40
1
 40
1
 10
67.089227
 20
204.265206
 30
0.0
 10
67.089227
 20
201.944294
 30
0.0
 10
66.184465
 20
200.056095
 30
0.0
 10
63.784877
 20
197.381145
 30
0.0
  0
SPLINE
  5
115
100
AcDbEntity
  8
Layer_1
 62
7
100
AcDbSpline
 70
8
 71
3
 72
8
 73
4
 74
0
 40
0
 40
0
 40
0
 40
0
 40
1
 40
1
 40
1
 40
1
 10
63.784877
 20
197.381145
 30
0.0
 10
62.801440
 20
196.279695
 30
0.0
 10
61.975353
 20
195.217583
 30
0.0
 10
61.975353
 20
195.060233
 30
0.0
  0
SPLINE
  5
116
100
AcDbEntity
  8
Layer_1
 62
7
100
AcDbSpline
 70
8
 71
3
 72
8
 73
4
 74
0
 40
0
 40
0
 40
0
 40
0
 40
1
 40
1
 40
1
 40
1
 10
61.975353
 20
195.060233
 30
0.0
 10
62.014690
 20
194.863545
 30
0.0
 10
62.762103
 20
193.840771
 30
0.0
 10
63.706202
 20
192.778658
 30
0.0
  0
LWPOLYLINE
  5
117
100
AcDbEntity
  8
Layer_1
 62
7
100
AcDbPolyline
 90
2
 70
0
 10
98.755909
 20
220.039541
 30
0.0
 10
98.755909
 20
220.039541
 30
0.0
  0
SPLINE
  5
118
100
AcDbEntity
  8
Layer_1
 62
7
100
AcDbSpline
 70
8
 71
3
 72
8
 73
4
 74
0
 40
0
 40
0
 40
0
 40
0
 40
1
 40
1
 40
1
 40
1
 10
67.718627
 20
193.486733
 30
0.0
 10
70.196889
 20
196.161683
 30
0.0
 10
72.242439
 20
199.780732
 30
0.0
 10
73.029188
 20
202.770382
 30
0.0
  0
SPLINE
  5
119
100
AcDbEntity
  8
Layer_1
 62
7
100
AcDbSpline
 70
8
 71
3
 72
8
 73
4
 74
0
 40
0
 40
0
 40
0
 40
0
 40
1
 40
1
 40
1
 40
1
 10
73.029188
 20
202.770382
 30
0.0
 10
73.619251
 20
204.973281
 30
0.0
 10
73.225876
 20
208.474318
 30
0.0
 10
72.242439
 20
210.087155
 30
0.0
  0
SPLINE
  5
11a
100
AcDbEntity
  8
Layer_1
 62
7
100
AcDbSpline
 70
8
 71
3
 72
8
 73
4
 74
0
 40
0
 40
0
 40
0
 40
0
 40
1
 40
1
 40
1
 40
1
 10
72.242439
 20
210.087155
 30
0.0
 10
70.629601
 20
212.762105
 30
0.0
 10
66.695852
 20
214.217592
 30
0.0
 10
63.824215
 20
213.234155
 30
0.0
  0
LWPOLYLINE
  5
11b
100
AcDbEntity
  8
Layer_1
 62
7
100
AcDbPolyline
 90
3
 70
0
 10
63.706202
 20
192.778658
 30
0.0
 10
65.358377
 20
190.890459
 30
0.0
 10
67.718627
 20
193.486733
 30
0.0
  0
SPLINE
  5
11c
100
AcDbEntity
  8
Layer_1
 62
7
100
AcDbSpline
 70
8
 71
3
 72
8
 73
4
 74
0
 40
0
 40
0
 40
0
 40
0
 40
1
 40
1
 40
1
 40
1
 10
143.167940
 20
213.391505
 30
0.0
 10
142.263177
 20
213.273492
 30
0.0
 10
140.886365
 20
212.683430
 30
0.0
 10
140.099615
 20
212.054030
 30
0.0
  0
SPLINE
  5
11d
100
AcDbEntity
  8
Layer_1
 62
7
100
AcDbSpline
 70
8
 71
3
 72
8
 73
4
 74
0
 40
0
 40
0
 40
0
 40
0
 40
1
 40
1
 40
1
 40
1
 10
140.099615
 20
212.054030
 30
0.0
 10
137.896715
 20
210.401855
 30
0.0
 10
137.306653
 20
208.946368
 30
0.0
 10
137.306653
 20
205.327319
 30
0.0
  0
SPLINE
  5
11e
100
AcDbEntity
  8
Layer_1
 62
7
100
AcDbSpline
 70
8
 71
3
 72
8
 73
4
 74
0
 40
0
 40
0
 40
0
 40
0
 40
1
 40
1
 40
1
 40
1
 10
137.306653
 20
205.327319
 30
0.0
 10
137.306653
 20
202.455682
 30
0.0
 10
137.464003
 20
201.904957
 30
0.0
 10
138.840815
 20
199.033320
 30
0.0
  0
SPLINE
  5
11f
100
AcDbEntity
  8
Layer_1
 62
7
100
AcDbSpline
 70
8
 71
3
 72
8
 73
4
 74
0
 40
0
 40
0
 40
0
 40
0
 40
1
 40
1
 40
1
 40
1
 10
138.840815
 20
199.033320
 30
0.0
 10
140.138953
 20
196.397708
 30
0.0
 10
141.043715
 20
195.256920
 30
0.0
 10
144.977464
 20
191.362508
 30
0.0
  0
SPLINE
  5
120
100
AcDbEntity
  8
Layer_1
 62
7
100
AcDbSpline
 70
8
 71
3
 72
8
 73
4
 74
0
 40
0
 40
0
 40
0
 40
0
 40
1
 40
1
 40
1
 40
1
 10
144.977464
 20
191.362508
 30
0.0
 10
147.534401
 20
188.884246
 30
0.0
 10
149.973326
 20
186.523997
 30
0.0
 10
150.484713
 20
186.091284
 30
0.0
  0
SPLINE
  5
121
100
AcDbEntity
  8
Layer_1
 62
7
100
AcDbSpline
 70
8
 71
3
 72
8
 73
4
 74
0
 40
0
 40
0
 40
0
 40
0
 40
1
 40
1
 40
1
 40
1
 10
150.484713
 20
186.091284
 30
0.0
 10
161.459874
 20
177.004323
 30
0.0
 10
166.967123
 20
170.946349
 30
0.0
 10
169.681410
 20
165.085063
 30
0.0
  0
SPLINE
  5
122
100
AcDbEntity
  8
Layer_1
 62
7
100
AcDbSpline
 70
8
 71
3
 72
8
 73
4
 74
0
 40
0
 40
0
 40
0
 40
0
 40
1
 40
1
 40
1
 40
1
 10
169.681410
 20
165.085063
 30
0.0
 10
170.468160
 20
163.393550
 30
0.0
 10
170.743523
 20
162.016738
 30
0.0
 10
170.861535
 20
159.420464
 30
0.0
  0
SPLINE
  5
123
100
AcDbEntity
  8
Layer_1
 62
7
100
AcDbSpline
 70
8
 71
3
 72
8
 73
4
 74
0
 40
0
 40
0
 40
0
 40
0
 40
1
 40
1
 40
1
 40
1
 10
170.861535
 20
159.420464
 30
0.0
 10
171.097560
 20
154.581952
 30
0.0
 10
170.743523
 20
152.851102
 30
0.0
 10
168.973335
 20
150.097478
 30
0.0
  0
LWPOLYLINE
  5
124
100
AcDbEntity
  8
Layer_1
 62
7
100
AcDbPolyline
 90
2
 70
0
 10
63.824215
 20
213.234155
 30
0.0
 10
63.824215
 20
213.234155
 30
0.0
  0
SPLINE
  5
125
100
AcDbEntity
  8
Layer_1
 62
7
100
AcDbSpline
 70
8
 71
3
 72
8
 73
4
 74
0
 40
0
 40
0
 40
0
 40
0
 40
1
 40
1
 40
1
 40
1
 10
169.052010
 20
144.747578
 30
0.0
 10
169.956773
 20
143.095404
 30
0.0
 10
170.900873
 20
141.836604
 30
0.0
 10
171.136898
 20
141.915279
 30
0.0
  0
SPLINE
  5
126
100
AcDbEntity
  8
Layer_1
 62
7
100
AcDbSpline
 70
8
 71
3
 72
8
 73
4
 74
0
 40
0
 40
0
 40
0
 40
0
 40
1
 40
1
 40
1
 40
1
 10
171.136898
 20
141.915279
 30
0.0
 10
172.002322
 20
142.190641
 30
0.0
 10
175.109984
 20
146.557103
 30
0.0
 10
175.975409
 20
148.760003
 30
0.0
  0
SPLINE
  5
127
100
AcDbEntity
  8
Layer_1
 62
7
100
AcDbSpline
 70
8
 71
3
 72
8
 73
4
 74
0
 40
0
 40
0
 40
0
 40
0
 40
1
 40
1
 40
1
 40
1
 10
175.975409
 20
148.760003
 30
0.0
 10
177.076859
 20
151.474290
 30
0.0
 10
178.020959
 20
156.076777
 30
0.0
 10
178.020959
 20
158.673051
 30
0.0
  0
SPLINE
  5
128
100
AcDbEntity
  8
Layer_1
 62
7
100
AcDbSpline
 70
8
 71
3
 72
8
 73
4
 74
0
 40
0
 40
0
 40
0
 40
0
 40
1
 40
1
 40
1
 40
1
 10
178.020959
 20
158.673051
 30
0.0
 10
178.020959
 20
159.695826
 30
0.0
 10
177.666922
 20
161.898726
 30
0.0
 10
177.273547
 20
163.511563
 30
0.0
  0
SPLINE
  5
129
100
AcDbEntity
  8
Layer_1
 62
7
100
AcDbSpline
 70
8
 71
3
 72
8
 73
4
 74
0
 40
0
 40
0
 40
0
 40
0
 40
1
 40
1
 40
1
 40
1
 10
177.273547
 20
163.511563
 30
0.0
 10
175.109984
 20
171.969124
 30
0.0
 10
168.697973
 20
179.915298
 30
0.0
 10
156.975400
 20
188.648221
 30
0.0
  0
SPLINE
  5
12a
100
AcDbEntity
  8
Layer_1
 62
7
100
AcDbSpline
 70
8
 71
3
 72
8
 73
4
 74
0
 40
0
 40
0
 40
0
 40
0
 40
1
 40
1
 40
1
 40
1
 10
156.975400
 20
188.648221
 30
0.0
 10
147.023014
 20
196.043670
 30
0.0
 10
143.403965
 20
200.174107
 30
0.0
 10
143.403965
 20
204.068519
 30
0.0
  0
SPLINE
  5
12b
100
AcDbEntity
  8
Layer_1
 62
7
100
AcDbSpline
 70
8
 71
3
 72
8
 73
4
 74
0
 40
0
 40
0
 40
0
 40
0
 40
1
 40
1
 40
1
 40
1
 10
143.403965
 20
204.068519
 30
0.0
 10
143.403965
 20
206.428769
 30
0.0
 10
143.836677
 20
207.294193
 30
0.0
 10
145.370839
 20
207.805581
 30
0.0
  0
SPLINE
  5
12c
100
AcDbEntity
  8
Layer_1
 62
7
100
AcDbSpline
 70
8
 71
3
 72
8
 73
4
 74
0
 40
0
 40
0
 40
0
 40
0
 40
1
 40
1
 40
1
 40
1
 10
145.370839
 20
207.805581
 30
0.0
 10
147.023014
 20
208.395643
 30
0.0
 10
148.753864
 20
207.805581
 30
0.0
 10
150.563388
 20
206.035394
 30
0.0
  0
SPLINE
  5
12d
100
AcDbEntity
  8
Layer_1
 62
7
100
AcDbSpline
 70
8
 71
3
 72
8
 73
4
 74
0
 40
0
 40
0
 40
0
 40
0
 40
1
 40
1
 40
1
 40
1
 10
150.563388
 20
206.035394
 30
0.0
 10
152.412251
 20
204.225869
 30
0.0
 10
153.199000
 20
204.619244
 30
0.0
 10
152.451588
 20
206.979493
 30
0.0
  0
SPLINE
  5
12e
100
AcDbEntity
  8
Layer_1
 62
7
100
AcDbSpline
 70
8
 71
3
 72
8
 73
4
 74
0
 40
0
 40
0
 40
0
 40
0
 40
1
 40
1
 40
1
 40
1
 10
152.451588
 20
206.979493
 30
0.0
 10
151.664838
 20
209.339743
 30
0.0
 10
150.091338
 20
211.385293
 30
0.0
 10
148.360489
 20
212.368730
 30
0.0
  0
SPLINE
  5
12f
100
AcDbEntity
  8
Layer_1
 62
7
100
AcDbSpline
 70
8
 71
3
 72
8
 73
4
 74
0
 40
0
 40
0
 40
0
 40
0
 40
1
 40
1
 40
1
 40
1
 10
148.360489
 20
212.368730
 30
0.0
 10
146.354277
 20
213.509517
 30
0.0
 10
145.252827
 20
213.745542
 30
0.0
 10
143.167940
 20
213.391505
 30
0.0
  0
LWPOLYLINE
  5
130
100
AcDbEntity
  8
Layer_1
 62
7
100
AcDbPolyline
 90
3
 70
0
 10
168.973335
 20
150.097478
 30
0.0
 10
167.399836
 20
147.697891
 30
0.0
 10
169.052010
 20
144.747578
 30
0.0
  0
SPLINE
  5
131
100
AcDbEntity
  8
Layer_1
 62
7
100
AcDbSpline
 70
8
 71
3
 72
8
 73
4
 74
0
 40
0
 40
0
 40
0
 40
0
 40
1
 40
1
 40
1
 40
1
 10
48.875967
 20
198.010545
 30
0.0
 10
45.020893
 20
197.420482
 30
0.0
 10
42.031243
 20
194.863545
 30
0.0
 10
39.552981
 20
190.064371
 30
0.0
  0
SPLINE
  5
132
100
AcDbEntity
  8
Layer_1
 62
7
100
AcDbSpline
 70
8
 71
3
 72
8
 73
4
 74
0
 40
0
 40
0
 40
0
 40
0
 40
1
 40
1
 40
1
 40
1
 10
39.552981
 20
190.064371
 30
0.0
 10
37.704119
 20
186.484659
 30
0.0
 10
37.428757
 20
183.849047
 30
0.0
 10
38.726894
 20
182.275547
 30
0.0
  0
SPLINE
  5
133
100
AcDbEntity
  8
Layer_1
 62
7
100
AcDbSpline
 70
8
 71
3
 72
8
 73
4
 74
0
 40
0
 40
0
 40
0
 40
0
 40
1
 40
1
 40
1
 40
1
 10
38.726894
 20
182.275547
 30
0.0
 10
39.316956
 20
181.528135
 30
0.0
 10
39.552981
 20
181.449460
 30
0.0
 10
39.670994
 20
181.921510
 30
0.0
  0
SPLINE
  5
134
100
AcDbEntity
  8
Layer_1
 62
7
100
AcDbSpline
 70
8
 71
3
 72
8
 73
4
 74
0
 40
0
 40
0
 40
0
 40
0
 40
1
 40
1
 40
1
 40
1
 10
39.670994
 20
181.921510
 30
0.0
 10
41.441181
 20
187.468097
 30
0.0
 10
43.054018
 20
189.907021
 30
0.0
 10
46.004330
 20
191.480521
 30
0.0
  0
SPLINE
  5
135
100
AcDbEntity
  8
Layer_1
 62
7
100
AcDbSpline
 70
8
 71
3
 72
8
 73
4
 74
0
 40
0
 40
0
 40
0
 40
0
 40
1
 40
1
 40
1
 40
1
 10
46.004330
 20
191.480521
 30
0.0
 10
49.662717
 20
193.329383
 30
0.0
 10
54.776591
 20
191.873896
 30
0.0
 10
57.648228
 20
188.097496
 30
0.0
  0
SPLINE
  5
136
100
AcDbEntity
  8
Layer_1
 62
7
100
AcDbSpline
 70
8
 71
3
 72
8
 73
4
 74
0
 40
0
 40
0
 40
0
 40
0
 40
1
 40
1
 40
1
 40
1
 10
57.648228
 20
188.097496
 30
0.0
 10
60.401853
 20
184.517785
 30
0.0
 10
61.031253
 20
180.229998
 30
0.0
 10
59.811791
 20
173.778649
 30
0.0
  0
SPLINE
  5
137
100
AcDbEntity
  8
Layer_1
 62
7
100
AcDbSpline
 70
8
 71
3
 72
8
 73
4
 74
0
 40
0
 40
0
 40
0
 40
0
 40
1
 40
1
 40
1
 40
1
 10
59.811791
 20
173.778649
 30
0.0
 10
58.710341
 20
168.074712
 30
0.0
 10
57.766241
 20
166.343862
 30
0.0
 10
48.757955
 20
153.637852
 30
0.0
  0
SPLINE
  5
138
100
AcDbEntity
  8
Layer_1
 62
7
100
AcDbSpline
 70
8
 71
3
 72
8
 73
4
 74
0
 40
0
 40
0
 40
0
 40
0
 40
1
 40
1
 40
1
 40
1
 10
48.757955
 20
153.637852
 30
0.0
 10
46.437043
 20
150.333503
 30
0.0
 10
45.060230
 20
148.051928
 30
0.0
 10
45.138905
 20
147.540541
 30
0.0
  0
SPLINE
  5
139
100
AcDbEntity
  8
Layer_1
 62
7
100
AcDbSpline
 70
8
 71
3
 72
8
 73
4
 74
0
 40
0
 40
0
 40
0
 40
0
 40
1
 40
1
 40
1
 40
1
 10
45.138905
 20
147.540541
 30
0.0
 10
45.256918
 20
146.714453
 30
0.0
 10
48.128555
 20
144.747578
 30
0.0
 10
49.780730
 20
144.354204
 30
0.0
  0
SPLINE
  5
13a
100
AcDbEntity
  8
Layer_1
 62
7
100
AcDbSpline
 70
8
 71
3
 72
8
 73
4
 74
0
 40
0
 40
0
 40
0
 40
0
 40
1
 40
1
 40
1
 40
1
 10
49.780730
 20
144.354204
 30
0.0
 10
50.646155
 20
144.157516
 30
0.0
 10
50.960854
 20
144.432879
 30
0.0
 10
52.219654
 20
146.399753
 30
0.0
  0
SPLINE
  5
13b
100
AcDbEntity
  8
Layer_1
 62
7
100
AcDbSpline
 70
8
 71
3
 72
8
 73
4
 74
0
 40
0
 40
0
 40
0
 40
0
 40
1
 40
1
 40
1
 40
1
 10
52.219654
 20
146.399753
 30
0.0
 10
53.006404
 20
147.658553
 30
0.0
 10
55.169966
 20
151.080915
 30
0.0
 10
57.058166
 20
153.991889
 30
0.0
  0
SPLINE
  5
13c
100
AcDbEntity
  8
Layer_1
 62
7
100
AcDbSpline
 70
8
 71
3
 72
8
 73
4
 74
0
 40
0
 40
0
 40
0
 40
0
 40
1
 40
1
 40
1
 40
1
 10
57.058166
 20
153.991889
 30
0.0
 10
64.689640
 20
165.793138
 30
0.0
 10
67.049889
 20
172.441174
 30
0.0
 10
66.538502
 20
180.741385
 30
0.0
  0
SPLINE
  5
13d
100
AcDbEntity
  8
Layer_1
 62
7
100
AcDbSpline
 70
8
 71
3
 72
8
 73
4
 74
0
 40
0
 40
0
 40
0
 40
0
 40
1
 40
1
 40
1
 40
1
 10
66.538502
 20
180.741385
 30
0.0
 10
66.302477
 20
184.321097
 30
0.0
 10
65.476390
 20
187.625447
 30
0.0
 10
64.217590
 20
190.025034
 30
0.0
  0
SPLINE
  5
13e
100
AcDbEntity
  8
Layer_1
 62
7
100
AcDbSpline
 70
8
 71
3
 72
8
 73
4
 74
0
 40
0
 40
0
 40
0
 40
0
 40
1
 40
1
 40
1
 40
1
 10
64.217590
 20
190.025034
 30
0.0
 10
63.037465
 20
192.227933
 30
0.0
 10
59.536428
 20
195.217583
 30
0.0
 10
56.468104
 20
196.594395
 30
0.0
  0
SPLINE
  5
13f
100
AcDbEntity
  8
Layer_1
 62
7
100
AcDbSpline
 70
8
 71
3
 72
8
 73
4
 74
0
 40
0
 40
0
 40
0
 40
0
 40
1
 40
1
 40
1
 40
1
 10
56.468104
 20
196.594395
 30
0.0
 10
53.085079
 20
198.128557
 30
0.0
 10
51.550917
 20
198.443257
 30
0.0
 10
48.875967
 20
198.010545
 30
0.0
  0
LWPOLYLINE
  5
140
100
AcDbEntity
  8
Layer_1
 62
7
100
AcDbPolyline
 90
2
 70
0
 10
143.167940
 20
213.391505
 30
0.0
 10
143.167940
 20
213.391505
 30
0.0
  0
SPLINE
  5
141
100
AcDbEntity
  8
Layer_1
 62
7
100
AcDbSpline
 70
8
 71
3
 72
8
 73
4
 74
0
 40
0
 40
0
 40
0
 40
0
 40
1
 40
1
 40
1
 40
1
 10
157.722812
 20
198.010545
 30
0.0
 10
155.991963
 20
197.695845
 30
0.0
 10
151.271463
 20
195.492945
 30
0.0
 10
151.271463
 20
194.981558
 30
0.0
  0
SPLINE
  5
142
100
AcDbEntity
  8
Layer_1
 62
7
100
AcDbSpline
 70
8
 71
3
 72
8
 73
4
 74
0
 40
0
 40
0
 40
0
 40
0
 40
1
 40
1
 40
1
 40
1
 10
151.271463
 20
194.981558
 30
0.0
 10
151.310801
 20
194.824208
 30
0.0
 10
152.412251
 20
193.880108
 30
0.0
 10
153.789063
 20
192.857333
 30
0.0
  0
LWPOLYLINE
  5
143
100
AcDbEntity
  8
Layer_1
 62
7
100
AcDbPolyline
 90
2
 70
0
 10
48.875967
 20
198.010545
 30
0.0
 10
48.875967
 20
198.010545
 30
0.0
  0
SPLINE
  5
144
100
AcDbEntity
  8
Layer_1
 62
7
100
AcDbSpline
 70
8
 71
3
 72
8
 73
4
 74
0
 40
0
 40
0
 40
0
 40
0
 40
1
 40
1
 40
1
 40
1
 10
157.801487
 20
191.795221
 30
0.0
 10
159.768362
 20
192.817996
 30
0.0
 10
162.403974
 20
192.581971
 30
0.0
 10
164.842899
 20
191.126483
 30
0.0
  0
SPLINE
  5
145
100
AcDbEntity
  8
Layer_1
 62
7
100
AcDbSpline
 70
8
 71
3
 72
8
 73
4
 74
0
 40
0
 40
0
 40
0
 40
0
 40
1
 40
1
 40
1
 40
1
 10
164.842899
 20
191.126483
 30
0.0
 10
167.753873
 20
189.434971
 30
0.0
 10
169.091348
 20
187.350084
 30
0.0
 10
170.822198
 20
181.921510
 30
0.0
  0
SPLINE
  5
146
100
AcDbEntity
  8
Layer_1
 62
7
100
AcDbSpline
 70
8
 71
3
 72
8
 73
4
 74
0
 40
0
 40
0
 40
0
 40
0
 40
1
 40
1
 40
1
 40
1
 10
170.822198
 20
181.921510
 30
0.0
 10
170.940210
 20
181.449460
 30
0.0
 10
171.176235
 20
181.528135
 30
0.0
 10
171.766297
 20
182.275547
 30
0.0
  0
SPLINE
  5
147
100
AcDbEntity
  8
Layer_1
 62
7
100
AcDbSpline
 70
8
 71
3
 72
8
 73
4
 74
0
 40
0
 40
0
 40
0
 40
0
 40
1
 40
1
 40
1
 40
1
 10
171.766297
 20
182.275547
 30
0.0
 10
173.025097
 20
183.809710
 30
0.0
 10
172.749735
 20
186.287972
 30
0.0
 10
170.900873
 20
190.064371
 30
0.0
  0
SPLINE
  5
148
100
AcDbEntity
  8
Layer_1
 62
7
100
AcDbSpline
 70
8
 71
3
 72
8
 73
4
 74
0
 40
0
 40
0
 40
0
 40
0
 40
1
 40
1
 40
1
 40
1
 10
170.900873
 20
190.064371
 30
0.0
 10
167.911223
 20
196.122345
 30
0.0
 10
163.151386
 20
198.993982
 30
0.0
 10
157.722812
 20
198.010545
 30
0.0
  0
LWPOLYLINE
  5
149
100
AcDbEntity
  8
Layer_1
 62
7
100
AcDbPolyline
 90
3
 70
0
 10
153.789063
 20
192.857333
 30
0.0
 10
156.306662
 20
191.008471
 30
0.0
 10
157.801487
 20
191.795221
 30
0.0
  0
SPLINE
  5
14a
100
AcDbEntity
  8
Layer_1
 62
7
100
AcDbSpline
 70
8
 71
3
 72
8
 73
4
 74
0
 40
0
 40
0
 40
0
 40
0
 40
1
 40
1
 40
1
 40
1
 10
50.960854
 20
186.799359
 30
0.0
 10
41.598531
 20
179.639935
 30
0.0
 10
35.225857
 20
171.261049
 30
0.0
 10
33.219645
 20
163.511563
 30
0.0
  0
SPLINE
  5
14b
100
AcDbEntity
  8
Layer_1
 62
7
100
AcDbSpline
 70
8
 71
3
 72
8
 73
4
 74
0
 40
0
 40
0
 40
0
 40
0
 40
1
 40
1
 40
1
 40
1
 10
33.219645
 20
163.511563
 30
0.0
 10
32.275545
 20
159.735164
 30
0.0
 10
32.275545
 20
156.588164
 30
0.0
 10
33.258982
 20
152.654415
 30
0.0
  0
SPLINE
  5
14c
100
AcDbEntity
  8
Layer_1
 62
7
100
AcDbSpline
 70
8
 71
3
 72
8
 73
4
 74
0
 40
0
 40
0
 40
0
 40
0
 40
1
 40
1
 40
1
 40
1
 10
33.258982
 20
152.654415
 30
0.0
 10
34.360432
 20
148.366628
 30
0.0
 10
35.697907
 20
145.809691
 30
0.0
 10
38.372857
 20
142.898716
 30
0.0
  0
SPLINE
  5
14d
100
AcDbEntity
  8
Layer_1
 62
7
100
AcDbSpline
 70
8
 71
3
 72
8
 73
4
 74
0
 40
0
 40
0
 40
0
 40
0
 40
1
 40
1
 40
1
 40
1
 10
38.372857
 20
142.898716
 30
0.0
 10
45.178243
 20
135.503267
 30
0.0
 10
57.176178
 20
132.592293
 30
0.0
 10
74.642026
 20
134.126455
 30
0.0
  0
SPLINE
  5
14e
100
AcDbEntity
  8
Layer_1
 62
7
100
AcDbSpline
 70
8
 71
3
 72
8
 73
4
 74
0
 40
0
 40
0
 40
0
 40
0
 40
1
 40
1
 40
1
 40
1
 10
74.642026
 20
134.126455
 30
0.0
 10
78.890475
 20
134.480493
 30
0.0
 10
83.768324
 20
134.755855
 30
0.0
 10
85.459836
 20
134.677180
 30
0.0
  0
SPLINE
  5
14f
100
AcDbEntity
  8
Layer_1
 62
7
100
AcDbSpline
 70
8
 71
3
 72
8
 73
4
 74
0
 40
0
 40
0
 40
0
 40
0
 40
1
 40
1
 40
1
 40
1
 10
85.459836
 20
134.677180
 30
0.0
 10
89.039548
 20
134.480493
 30
0.0
 10
89.904973
 20
134.008443
 30
0.0
 10
92.579923
 20
130.468068
 30
0.0
  0
SPLINE
  5
150
100
AcDbEntity
  8
Layer_1
 62
7
100
AcDbSpline
 70
8
 71
3
 72
8
 73
4
 74
0
 40
0
 40
0
 40
0
 40
0
 40
1
 40
1
 40
1
 40
1
 10
92.579923
 20
130.468068
 30
0.0
 10
96.474335
 20
125.275519
 30
0.0
 10
97.261084
 20
119.532245
 30
0.0
 10
95.766260
 20
106.590210
 30
0.0
  0
SPLINE
  5
151
100
AcDbEntity
  8
Layer_1
 62
7
100
AcDbSpline
 70
8
 71
3
 72
8
 73
4
 74
0
 40
0
 40
0
 40
0
 40
0
 40
1
 40
1
 40
1
 40
1
 10
95.766260
 20
106.590210
 30
0.0
 10
95.372885
 20
103.167848
 30
0.0
 10
93.445348
 20
95.339686
 30
0.0
 10
92.579923
 20
93.648174
 30
0.0
  0
SPLINE
  5
152
100
AcDbEntity
  8
Layer_1
 62
7
100
AcDbSpline
 70
8
 71
3
 72
8
 73
4
 74
0
 40
0
 40
0
 40
0
 40
0
 40
1
 40
1
 40
1
 40
1
 10
92.579923
 20
93.648174
 30
0.0
 10
89.275573
 20
87.118150
 30
0.0
 10
83.571637
 20
83.617113
 30
0.0
 10
79.873912
 20
85.898688
 30
0.0
  0
LWPOLYLINE
  5
153
100
AcDbEntity
  8
Layer_1
 62
7
100
AcDbPolyline
 90
2
 70
0
 10
157.722812
 20
198.010545
 30
0.0
 10
157.722812
 20
198.010545
 30
0.0
  0
SPLINE
  5
154
100
AcDbEntity
  8
Layer_1
 62
7
100
AcDbSpline
 70
8
 71
3
 72
8
 73
4
 74
0
 40
0
 40
0
 40
0
 40
0
 40
1
 40
1
 40
1
 40
1
 10
75.940163
 20
85.269288
 30
0.0
 10
74.445338
 20
84.561213
 30
0.0
 10
73.029188
 20
83.774463
 30
0.0
 10
72.832501
 20
83.577776
 30
0.0
  0
SPLINE
  5
155
100
AcDbEntity
  8
Layer_1
 62
7
100
AcDbSpline
 70
8
 71
3
 72
8
 73
4
 74
0
 40
0
 40
0
 40
0
 40
0
 40
1
 40
1
 40
1
 40
1
 10
72.832501
 20
83.577776
 30
0.0
 10
72.596476
 20
83.341751
 30
0.0
 10
73.186538
 20
82.476326
 30
0.0
 10
74.406001
 20
81.256864
 30
0.0
  0
SPLINE
  5
156
100
AcDbEntity
  8
Layer_1
 62
7
100
AcDbSpline
 70
8
 71
3
 72
8
 73
4
 74
0
 40
0
 40
0
 40
0
 40
0
 40
1
 40
1
 40
1
 40
1
 10
74.406001
 20
81.256864
 30
0.0
 10
76.923600
 20
78.739264
 30
0.0
 10
79.559212
 20
77.913177
 30
0.0
 10
84.240374
 20
78.149202
 30
0.0
  0
SPLINE
  5
157
100
AcDbEntity
  8
Layer_1
 62
7
100
AcDbSpline
 70
8
 71
3
 72
8
 73
4
 74
0
 40
0
 40
0
 40
0
 40
0
 40
1
 40
1
 40
1
 40
1
 10
84.240374
 20
78.149202
 30
0.0
 10
87.033336
 20
78.306552
 30
0.0
 10
87.741411
 20
78.503239
 30
0.0
 10
89.708286
 20
79.683364
 30
0.0
  0
SPLINE
  5
158
100
AcDbEntity
  8
Layer_1
 62
7
100
AcDbSpline
 70
8
 71
3
 72
8
 73
4
 74
0
 40
0
 40
0
 40
0
 40
0
 40
1
 40
1
 40
1
 40
1
 10
89.708286
 20
79.683364
 30
0.0
 10
92.422573
 20
81.296201
 30
0.0
 10
96.513672
 20
85.898688
 30
0.0
 10
97.969159
 20
89.006350
 30
0.0
  0
SPLINE
  5
159
100
AcDbEntity
  8
Layer_1
 62
7
100
AcDbSpline
 70
8
 71
3
 72
8
 73
4
 74
0
 40
0
 40
0
 40
0
 40
0
 40
1
 40
1
 40
1
 40
1
 10
97.969159
 20
89.006350
 30
0.0
 10
100.408084
 20
94.080887
 30
0.0
 10
101.273509
 20
97.463911
 30
0.0
 10
103.122371
 20
108.753772
 30
0.0
  0
SPLINE
  5
15a
100
AcDbEntity
  8
Layer_1
 62
7
100
AcDbSpline
 70
8
 71
3
 72
8
 73
4
 74
0
 40
0
 40
0
 40
0
 40
0
 40
1
 40
1
 40
1
 40
1
 10
103.122371
 20
108.753772
 30
0.0
 10
104.105808
 20
114.851083
 30
0.0
 10
104.577858
 20
121.813820
 30
0.0
 10
104.302496
 20
127.045706
 30
0.0
  0
SPLINE
  5
15b
100
AcDbEntity
  8
Layer_1
 62
7
100
AcDbSpline
 70
8
 71
3
 72
8
 73
4
 74
0
 40
0
 40
0
 40
0
 40
0
 40
1
 40
1
 40
1
 40
1
 10
104.302496
 20
127.045706
 30
0.0
 10
104.066471
 20
132.120243
 30
0.0
 10
104.066471
 20
132.198918
 30
0.0
 10
101.745559
 20
138.060205
 30
0.0
  0
LWPOLYLINE
  5
15c
100
AcDbEntity
  8
Layer_1
 62
7
100
AcDbPolyline
 90
3
 70
0
 10
79.873912
 20
85.898688
 30
0.0
 10
78.654450
 20
86.606763
 30
0.0
 10
75.940163
 20
85.269288
 30
0.0
  0
SPLINE
  5
15d
100
AcDbEntity
  8
Layer_1
 62
7
100
AcDbSpline
 70
8
 71
3
 72
8
 73
4
 74
0
 40
0
 40
0
 40
0
 40
0
 40
1
 40
1
 40
1
 40
1
 10
94.704147
 20
146.399753
 30
0.0
 10
92.107873
 20
147.737228
 30
0.0
 10
89.236236
 20
149.271390
 30
0.0
 10
88.331473
 20
149.861453
 30
0.0
  0
SPLINE
  5
15e
100
AcDbEntity
  8
Layer_1
 62
7
100
AcDbSpline
 70
8
 71
3
 72
8
 73
4
 74
0
 40
0
 40
0
 40
0
 40
0
 40
1
 40
1
 40
1
 40
1
 10
88.331473
 20
149.861453
 30
0.0
 10
86.521949
 20
151.002240
 30
0.0
 10
85.459836
 20
153.008452
 30
0.0
 10
84.987786
 20
156.076777
 30
0.0
  0
SPLINE
  5
15f
100
AcDbEntity
  8
Layer_1
 62
7
100
AcDbSpline
 70
8
 71
3
 72
8
 73
4
 74
0
 40
0
 40
0
 40
0
 40
0
 40
1
 40
1
 40
1
 40
1
 10
84.987786
 20
156.076777
 30
0.0
 10
84.751762
 20
157.925639
 30
0.0
 10
84.751762
 20
157.925639
 30
0.0
 10
85.853211
 20
157.925639
 30
0.0
  0
SPLINE
  5
160
100
AcDbEntity
  8
Layer_1
 62
7
100
AcDbSpline
 70
8
 71
3
 72
8
 73
4
 74
0
 40
0
 40
0
 40
0
 40
0
 40
1
 40
1
 40
1
 40
1
 10
85.853211
 20
157.925639
 30
0.0
 10
86.482611
 20
157.925639
 30
0.0
 10
87.662736
 20
157.571601
 30
0.0
 10
88.488823
 20
157.099551
 30
0.0
  0
SPLINE
  5
161
100
AcDbEntity
  8
Layer_1
 62
7
100
AcDbSpline
 70
8
 71
3
 72
8
 73
4
 74
0
 40
0
 40
0
 40
0
 40
0
 40
1
 40
1
 40
1
 40
1
 10
88.488823
 20
157.099551
 30
0.0
 10
89.314911
 20
156.666839
 30
0.0
 10
90.062323
 20
156.391477
 30
0.0
 10
90.180336
 20
156.470152
 30
0.0
  0
SPLINE
  5
162
100
AcDbEntity
  8
Layer_1
 62
7
100
AcDbSpline
 70
8
 71
3
 72
8
 73
4
 74
0
 40
0
 40
0
 40
0
 40
0
 40
1
 40
1
 40
1
 40
1
 10
90.180336
 20
156.470152
 30
0.0
 10
90.731061
 20
157.060214
 30
0.0
 10
79.991925
 20
170.985687
 30
0.0
 10
78.733125
 20
171.221712
 30
0.0
  0
SPLINE
  5
163
100
AcDbEntity
  8
Layer_1
 62
7
100
AcDbSpline
 70
8
 71
3
 72
8
 73
4
 74
0
 40
0
 40
0
 40
0
 40
0
 40
1
 40
1
 40
1
 40
1
 10
78.733125
 20
171.221712
 30
0.0
 10
78.103725
 20
171.379062
 30
0.0
 10
78.103725
 20
171.300387
 30
0.0
 10
78.654450
 20
170.159599
 30
0.0
  0
SPLINE
  5
164
100
AcDbEntity
  8
Layer_1
 62
7
100
AcDbSpline
 70
8
 71
3
 72
8
 73
4
 74
0
 40
0
 40
0
 40
0
 40
0
 40
1
 40
1
 40
1
 40
1
 10
78.654450
 20
170.159599
 30
0.0
 10
80.345962
 20
166.933925
 30
0.0
 10
80.267287
 20
162.370776
 30
0.0
 10
78.457763
 20
159.853176
 30
0.0
  0
SPLINE
  5
165
100
AcDbEntity
  8
Layer_1
 62
7
100
AcDbSpline
 70
8
 71
3
 72
8
 73
4
 74
0
 40
0
 40
0
 40
0
 40
0
 40
1
 40
1
 40
1
 40
1
 10
78.457763
 20
159.853176
 30
0.0
 10
77.356313
 20
158.279676
 30
0.0
 10
76.687575
 20
158.397689
 30
0.0
 10
77.631675
 20
160.010526
 30
0.0
  0
SPLINE
  5
166
100
AcDbEntity
  8
Layer_1
 62
7
100
AcDbSpline
 70
8
 71
3
 72
8
 73
4
 74
0
 40
0
 40
0
 40
0
 40
0
 40
1
 40
1
 40
1
 40
1
 10
77.631675
 20
160.010526
 30
0.0
 10
78.064388
 20
160.679263
 30
0.0
 10
78.536438
 20
161.820051
 30
0.0
 10
78.693787
 20
162.528126
 30
0.0
  0
SPLINE
  5
167
100
AcDbEntity
  8
Layer_1
 62
7
100
AcDbSpline
 70
8
 71
3
 72
8
 73
4
 74
0
 40
0
 40
0
 40
0
 40
0
 40
1
 40
1
 40
1
 40
1
 10
78.693787
 20
162.528126
 30
0.0
 10
78.929812
 20
163.786925
 30
0.0
 10
78.929812
 20
163.786925
 30
0.0
 10
77.631675
 20
163.590238
 30
0.0
  0
SPLINE
  5
168
100
AcDbEntity
  8
Layer_1
 62
7
100
AcDbSpline
 70
8
 71
3
 72
8
 73
4
 74
0
 40
0
 40
0
 40
0
 40
0
 40
1
 40
1
 40
1
 40
1
 10
77.631675
 20
163.590238
 30
0.0
 10
75.153413
 20
163.157526
 30
0.0
 10
72.832501
 20
166.107838
 30
0.0
 10
72.360451
 20
170.277612
 30
0.0
  0
SPLINE
  5
169
100
AcDbEntity
  8
Layer_1
 62
7
100
AcDbSpline
 70
8
 71
3
 72
8
 73
4
 74
0
 40
0
 40
0
 40
0
 40
0
 40
1
 40
1
 40
1
 40
1
 10
72.360451
 20
170.277612
 30
0.0
 10
72.203101
 20
171.497074
 30
0.0
 10
71.967076
 20
172.480512
 30
0.0
 10
71.809726
 20
172.480512
 30
0.0
  0
SPLINE
  5
16a
100
AcDbEntity
  8
Layer_1
 62
7
100
AcDbSpline
 70
8
 71
3
 72
8
 73
4
 74
0
 40
0
 40
0
 40
0
 40
0
 40
1
 40
1
 40
1
 40
1
 10
71.809726
 20
172.480512
 30
0.0
 10
71.259001
 20
172.480512
 30
0.0
 10
67.207239
 20
167.878025
 30
0.0
 10
66.105790
 20
166.029163
 30
0.0
  0
SPLINE
  5
16b
100
AcDbEntity
  8
Layer_1
 62
7
100
AcDbSpline
 70
8
 71
3
 72
8
 73
4
 74
0
 40
0
 40
0
 40
0
 40
0
 40
1
 40
1
 40
1
 40
1
 10
66.105790
 20
166.029163
 30
0.0
 10
63.037465
 20
160.757938
 30
0.0
 10
63.784877
 20
152.497065
 30
0.0
 10
67.757964
 20
147.501203
 30
0.0
  0
SPLINE
  5
16c
100
AcDbEntity
  8
Layer_1
 62
7
100
AcDbSpline
 70
8
 71
3
 72
8
 73
4
 74
0
 40
0
 40
0
 40
0
 40
0
 40
1
 40
1
 40
1
 40
1
 10
67.757964
 20
147.501203
 30
0.0
 10
69.095439
 20
145.809691
 30
0.0
 10
69.606826
 20
145.770353
 30
0.0
 10
70.236226
 20
147.304516
 30
0.0
  0
SPLINE
  5
16d
100
AcDbEntity
  8
Layer_1
 62
7
100
AcDbSpline
 70
8
 71
3
 72
8
 73
4
 74
0
 40
0
 40
0
 40
0
 40
0
 40
1
 40
1
 40
1
 40
1
 10
70.236226
 20
147.304516
 30
0.0
 10
71.219664
 20
149.664765
 30
0.0
 10
75.507451
 20
151.788990
 30
0.0
 10
77.395650
 20
150.805553
 30
0.0
  0
SPLINE
  5
16e
100
AcDbEntity
  8
Layer_1
 62
7
100
AcDbSpline
 70
8
 71
3
 72
8
 73
4
 74
0
 40
0
 40
0
 40
0
 40
0
 40
1
 40
1
 40
1
 40
1
 10
77.395650
 20
150.805553
 30
0.0
 10
79.126500
 20
149.900790
 30
0.0
 10
79.677225
 20
149.192715
 30
0.0
 10
79.677225
 20
147.697891
 30
0.0
  0
SPLINE
  5
16f
100
AcDbEntity
  8
Layer_1
 62
7
100
AcDbSpline
 70
8
 71
3
 72
8
 73
4
 74
0
 40
0
 40
0
 40
0
 40
0
 40
1
 40
1
 40
1
 40
1
 10
79.677225
 20
147.697891
 30
0.0
 10
79.677225
 20
145.849028
 30
0.0
 10
79.205175
 20
145.258966
 30
0.0
 10
76.333538
 20
143.803479
 30
0.0
  0
SPLINE
  5
170
100
AcDbEntity
  8
Layer_1
 62
7
100
AcDbSpline
 70
8
 71
3
 72
8
 73
4
 74
0
 40
0
 40
0
 40
0
 40
0
 40
1
 40
1
 40
1
 40
1
 10
76.333538
 20
143.803479
 30
0.0
 10
72.596476
 20
141.915279
 30
0.0
 10
66.381152
 20
140.931842
 30
0.0
 10
59.811791
 20
141.167867
 30
0.0
  0
SPLINE
  5
171
100
AcDbEntity
  8
Layer_1
 62
7
100
AcDbSpline
 70
8
 71
3
 72
8
 73
4
 74
0
 40
0
 40
0
 40
0
 40
0
 40
1
 40
1
 40
1
 40
1
 10
59.811791
 20
141.167867
 30
0.0
 10
54.697916
 20
141.364554
 30
0.0
 10
52.416342
 20
141.915279
 30
0.0
 10
48.285905
 20
143.882154
 30
0.0
  0
SPLINE
  5
172
100
AcDbEntity
  8
Layer_1
 62
7
100
AcDbSpline
 70
8
 71
3
 72
8
 73
4
 74
0
 40
0
 40
0
 40
0
 40
0
 40
1
 40
1
 40
1
 40
1
 10
48.285905
 20
143.882154
 30
0.0
 10
45.060230
 20
145.416316
 30
0.0
 10
42.936006
 20
147.501203
 30
0.0
 10
41.126481
 20
150.844890
 30
0.0
  0
SPLINE
  5
173
100
AcDbEntity
  8
Layer_1
 62
7
100
AcDbSpline
 70
8
 71
3
 72
8
 73
4
 74
0
 40
0
 40
0
 40
0
 40
0
 40
1
 40
1
 40
1
 40
1
 10
41.126481
 20
150.844890
 30
0.0
 10
39.946356
 20
153.087127
 30
0.0
 10
39.749669
 20
153.834540
 30
0.0
 10
39.631656
 20
156.981539
 30
0.0
  0
SPLINE
  5
174
100
AcDbEntity
  8
Layer_1
 62
7
100
AcDbSpline
 70
8
 71
3
 72
8
 73
4
 74
0
 40
0
 40
0
 40
0
 40
0
 40
1
 40
1
 40
1
 40
1
 10
39.631656
 20
156.981539
 30
0.0
 10
39.395631
 20
162.174088
 30
0.0
 10
39.946356
 20
164.219638
 30
0.0
 10
42.739318
 20
168.586100
 30
0.0
  0
SPLINE
  5
175
100
AcDbEntity
  8
Layer_1
 62
7
100
AcDbSpline
 70
8
 71
3
 72
8
 73
4
 74
0
 40
0
 40
0
 40
0
 40
0
 40
1
 40
1
 40
1
 40
1
 10
42.739318
 20
168.586100
 30
0.0
 10
45.374930
 20
172.598524
 30
0.0
 10
49.190667
 20
176.728961
 30
0.0
 10
54.776591
 20
181.606810
 30
0.0
  0
LWPOLYLINE
  5
176
100
AcDbEntity
  8
Layer_1
 62
7
100
AcDbPolyline
 90
3
 70
0
 10
101.745559
 20
138.060205
 30
0.0
 10
99.385309
 20
143.960829
 30
0.0
 10
94.704147
 20
146.399753
 30
0.0
  0
SPLINE
  5
177
100
AcDbEntity
  8
Layer_1
 62
7
100
AcDbSpline
 70
8
 71
3
 72
8
 73
4
 74
0
 40
0
 40
0
 40
0
 40
0
 40
1
 40
1
 40
1
 40
1
 10
57.648228
 20
186.248634
 30
0.0
 10
56.940154
 20
187.625447
 30
0.0
 10
55.130629
 20
189.434971
 30
0.0
 10
54.540566
 20
189.356296
 30
0.0
  0
SPLINE
  5
178
100
AcDbEntity
  8
Layer_1
 62
7
100
AcDbSpline
 70
8
 71
3
 72
8
 73
4
 74
0
 40
0
 40
0
 40
0
 40
0
 40
1
 40
1
 40
1
 40
1
 10
54.540566
 20
189.356296
 30
0.0
 10
54.422554
 20
189.356296
 30
0.0
 10
52.809717
 20
188.215509
 30
0.0
 10
50.960854
 20
186.799359
 30
0.0
  0
LWPOLYLINE
  5
179
100
AcDbEntity
  8
Layer_1
 62
7
100
AcDbPolyline
 90
3
 70
0
 10
54.776591
 20
181.606810
 30
0.0
 10
58.395641
 20
184.753810
 30
0.0
 10
57.648228
 20
186.248634
 30
0.0
  0
SPLINE
  5
17a
100
AcDbEntity
  8
Layer_1
 62
7
100
AcDbSpline
 70
8
 71
3
 72
8
 73
4
 74
0
 40
0
 40
0
 40
0
 40
0
 40
1
 40
1
 40
1
 40
1
 10
144.741439
 20
186.169959
 30
0.0
 10
144.190714
 20
184.557122
 30
0.0
 10
144.033364
 20
182.865610
 30
0.0
 10
144.033364
 20
178.774510
 30
0.0
  0
SPLINE
  5
17b
100
AcDbEntity
  8
Layer_1
 62
7
100
AcDbSpline
 70
8
 71
3
 72
8
 73
4
 74
0
 40
0
 40
0
 40
0
 40
0
 40
1
 40
1
 40
1
 40
1
 10
144.033364
 20
178.774510
 30
0.0
 10
144.033364
 20
174.093349
 30
0.0
 10
144.151377
 20
173.070574
 30
0.0
 10
145.095477
 20
170.120262
 30
0.0
  0
SPLINE
  5
17c
100
AcDbEntity
  8
Layer_1
 62
7
100
AcDbSpline
 70
8
 71
3
 72
8
 73
4
 74
0
 40
0
 40
0
 40
0
 40
0
 40
1
 40
1
 40
1
 40
1
 10
145.095477
 20
170.120262
 30
0.0
 10
146.629639
 20
165.281750
 30
0.0
 10
149.265251
 20
160.403901
 30
0.0
 10
155.323225
 20
151.002240
 30
0.0
  0
SPLINE
  5
17d
100
AcDbEntity
  8
Layer_1
 62
7
100
AcDbSpline
 70
8
 71
3
 72
8
 73
4
 74
0
 40
0
 40
0
 40
0
 40
0
 40
1
 40
1
 40
1
 40
1
 10
155.323225
 20
151.002240
 30
0.0
 10
164.410186
 20
136.919417
 30
0.0
 10
165.865673
 20
133.418380
 30
0.0
 10
165.905011
 20
126.062269
 30
0.0
  0
SPLINE
  5
17e
100
AcDbEntity
  8
Layer_1
 62
7
100
AcDbSpline
 70
8
 71
3
 72
8
 73
4
 74
0
 40
0
 40
0
 40
0
 40
0
 40
1
 40
1
 40
1
 40
1
 10
165.905011
 20
126.062269
 30
0.0
 10
165.905011
 20
120.909057
 30
0.0
 10
165.314948
 20
118.627483
 30
0.0
 10
162.954699
 20
114.929758
 30
0.0
  0
SPLINE
  5
17f
100
AcDbEntity
  8
Layer_1
 62
7
100
AcDbSpline
 70
8
 71
3
 72
8
 73
4
 74
0
 40
0
 40
0
 40
0
 40
0
 40
1
 40
1
 40
1
 40
1
 10
162.954699
 20
114.929758
 30
0.0
 10
161.695899
 20
113.002221
 30
0.0
 10
158.391550
 20
109.894559
 30
0.0
 10
157.132750
 20
109.461847
 30
0.0
  0
SPLINE
  5
180
100
AcDbEntity
  8
Layer_1
 62
7
100
AcDbSpline
 70
8
 71
3
 72
8
 73
4
 74
0
 40
0
 40
0
 40
0
 40
0
 40
1
 40
1
 40
1
 40
1
 10
157.132750
 20
109.461847
 30
0.0
 10
156.464012
 20
109.225822
 30
0.0
 10
157.880162
 20
102.853148
 30
0.0
 10
158.627575
 20
102.853148
 30
0.0
  0
SPLINE
  5
181
100
AcDbEntity
  8
Layer_1
 62
7
100
AcDbSpline
 70
8
 71
3
 72
8
 73
4
 74
0
 40
0
 40
0
 40
0
 40
0
 40
1
 40
1
 40
1
 40
1
 10
158.627575
 20
102.853148
 30
0.0
 10
160.791137
 20
102.853148
 30
0.0
 10
165.786998
 20
107.062260
 30
0.0
 10
168.737310
 20
111.428721
 30
0.0
  0
SPLINE
  5
182
100
AcDbEntity
  8
Layer_1
 62
7
100
AcDbSpline
 70
8
 71
3
 72
8
 73
4
 74
0
 40
0
 40
0
 40
0
 40
0
 40
1
 40
1
 40
1
 40
1
 10
168.737310
 20
111.428721
 30
0.0
 10
169.720748
 20
112.884209
 30
0.0
 10
171.018885
 20
115.401808
 30
0.0
 10
171.608947
 20
117.014645
 30
0.0
  0
SPLINE
  5
183
100
AcDbEntity
  8
Layer_1
 62
7
100
AcDbSpline
 70
8
 71
3
 72
8
 73
4
 74
0
 40
0
 40
0
 40
0
 40
0
 40
1
 40
1
 40
1
 40
1
 10
171.608947
 20
117.014645
 30
0.0
 10
172.671060
 20
119.807608
 30
0.0
 10
172.710397
 20
120.318995
 30
0.0
 10
172.710397
 20
126.455644
 30
0.0
  0
SPLINE
  5
184
100
AcDbEntity
  8
Layer_1
 62
7
100
AcDbSpline
 70
8
 71
3
 72
8
 73
4
 74
0
 40
0
 40
0
 40
0
 40
0
 40
1
 40
1
 40
1
 40
1
 10
172.710397
 20
126.455644
 30
0.0
 10
172.671060
 20
132.788980
 30
0.0
 10
172.631722
 20
133.025005
 30
0.0
 10
171.412260
 20
136.211342
 30
0.0
  0
SPLINE
  5
185
100
AcDbEntity
  8
Layer_1
 62
7
100
AcDbSpline
 70
8
 71
3
 72
8
 73
4
 74
0
 40
0
 40
0
 40
0
 40
0
 40
1
 40
1
 40
1
 40
1
 10
171.412260
 20
136.211342
 30
0.0
 10
169.209360
 20
142.072629
 30
0.0
 10
163.859461
 20
151.159590
 30
0.0
 10
158.194862
 20
158.712389
 30
0.0
  0
SPLINE
  5
186
100
AcDbEntity
  8
Layer_1
 62
7
100
AcDbSpline
 70
8
 71
3
 72
8
 73
4
 74
0
 40
0
 40
0
 40
0
 40
0
 40
1
 40
1
 40
1
 40
1
 10
158.194862
 20
158.712389
 30
0.0
 10
152.176226
 20
166.737237
 30
0.0
 10
150.327363
 20
171.300387
 30
0.0
 10
150.327363
 20
178.184448
 30
0.0
  0
SPLINE
  5
187
100
AcDbEntity
  8
Layer_1
 62
7
100
AcDbSpline
 70
8
 71
3
 72
8
 73
4
 74
0
 40
0
 40
0
 40
0
 40
0
 40
1
 40
1
 40
1
 40
1
 10
150.327363
 20
178.184448
 30
0.0
 10
150.288026
 20
180.269335
 30
0.0
 10
150.524051
 20
182.078860
 30
0.0
 10
150.799413
 20
182.590247
 30
0.0
  0
SPLINE
  5
188
100
AcDbEntity
  8
Layer_1
 62
7
100
AcDbSpline
 70
8
 71
3
 72
8
 73
4
 74
0
 40
0
 40
0
 40
0
 40
0
 40
1
 40
1
 40
1
 40
1
 10
150.799413
 20
182.590247
 30
0.0
 10
151.232126
 20
183.376997
 30
0.0
 10
151.074776
 20
183.613022
 30
0.0
 10
148.517839
 20
185.815922
 30
0.0
  0
SPLINE
  5
189
100
AcDbEntity
  8
Layer_1
 62
7
100
AcDbSpline
 70
8
 71
3
 72
8
 73
4
 74
0
 40
0
 40
0
 40
0
 40
0
 40
1
 40
1
 40
1
 40
1
 10
148.517839
 20
185.815922
 30
0.0
 10
146.983676
 20
187.153397
 30
0.0
 10
145.685539
 20
188.215509
 30
0.0
 10
145.606864
 20
188.215509
 30
0.0
  0
SPLINE
  5
18a
100
AcDbEntity
  8
Layer_1
 62
7
100
AcDbSpline
 70
8
 71
3
 72
8
 73
4
 74
0
 40
0
 40
0
 40
0
 40
0
 40
1
 40
1
 40
1
 40
1
 10
145.606864
 20
188.215509
 30
0.0
 10
145.488852
 20
188.215509
 30
0.0
 10
145.134814
 20
187.271409
 30
0.0
 10
144.741439
 20
186.169959
 30
0.0
  0
LWPOLYLINE
  5
18b
100
AcDbEntity
  8
Layer_1
 62
7
100
AcDbPolyline
 90
2
 70
0
 10
50.960854
 20
186.799359
 30
0.0
 10
50.960854
 20
186.799359
 30
0.0
  0
SPLINE
  5
18c
100
AcDbEntity
  8
Layer_1
 62
7
100
AcDbSpline
 70
8
 71
3
 72
8
 73
4
 74
0
 40
0
 40
0
 40
0
 40
0
 40
1
 40
1
 40
1
 40
1
 10
138.014728
 20
170.356287
 30
0.0
 10
137.936053
 20
166.461875
 30
0.0
 10
135.418453
 20
163.157526
 30
0.0
 10
132.900854
 20
163.629575
 30
0.0
  0
SPLINE
  5
18d
100
AcDbEntity
  8
Layer_1
 62
7
100
AcDbSpline
 70
8
 71
3
 72
8
 73
4
 74
0
 40
0
 40
0
 40
0
 40
0
 40
1
 40
1
 40
1
 40
1
 10
132.900854
 20
163.629575
 30
0.0
 10
131.799404
 20
163.826263
 30
0.0
 10
131.602716
 20
163.747588
 30
0.0
 10
131.602716
 20
163.118188
 30
0.0
  0
SPLINE
  5
18e
100
AcDbEntity
  8
Layer_1
 62
7
100
AcDbSpline
 70
8
 71
3
 72
8
 73
4
 74
0
 40
0
 40
0
 40
0
 40
0
 40
1
 40
1
 40
1
 40
1
 10
131.602716
 20
163.118188
 30
0.0
 10
131.602716
 20
162.724813
 30
0.0
 10
132.035429
 20
161.544688
 30
0.0
 10
132.546816
 20
160.521913
 30
0.0
  0
SPLINE
  5
18f
100
AcDbEntity
  8
Layer_1
 62
7
100
AcDbSpline
 70
8
 71
3
 72
8
 73
4
 74
0
 40
0
 40
0
 40
0
 40
0
 40
1
 40
1
 40
1
 40
1
 10
132.546816
 20
160.521913
 30
0.0
 10
133.569591
 20
158.476364
 30
0.0
 10
133.058204
 20
158.279676
 30
0.0
 10
131.760066
 20
160.207213
 30
0.0
  0
SPLINE
  5
190
100
AcDbEntity
  8
Layer_1
 62
7
100
AcDbSpline
 70
8
 71
3
 72
8
 73
4
 74
0
 40
0
 40
0
 40
0
 40
0
 40
1
 40
1
 40
1
 40
1
 10
131.760066
 20
160.207213
 30
0.0
 10
130.225904
 20
162.449451
 30
0.0
 10
130.265242
 20
167.130612
 30
0.0
 10
131.838741
 20
170.159599
 30
0.0
  0
SPLINE
  5
191
100
AcDbEntity
  8
Layer_1
 62
7
100
AcDbSpline
 70
8
 71
3
 72
8
 73
4
 74
0
 40
0
 40
0
 40
0
 40
0
 40
1
 40
1
 40
1
 40
1
 10
131.838741
 20
170.159599
 30
0.0
 10
132.389466
 20
171.221712
 30
0.0
 10
132.350129
 20
171.300387
 30
0.0
 10
131.642054
 20
171.300387
 30
0.0
  0
SPLINE
  5
192
100
AcDbEntity
  8
Layer_1
 62
7
100
AcDbSpline
 70
8
 71
3
 72
8
 73
4
 74
0
 40
0
 40
0
 40
0
 40
0
 40
1
 40
1
 40
1
 40
1
 10
131.642054
 20
171.300387
 30
0.0
 10
131.130667
 20
171.300387
 30
0.0
 10
130.068554
 20
170.277612
 30
0.0
 10
128.573729
 20
168.310737
 30
0.0
  0
SPLINE
  5
193
100
AcDbEntity
  8
Layer_1
 62
7
100
AcDbSpline
 70
8
 71
3
 72
8
 73
4
 74
0
 40
0
 40
0
 40
0
 40
0
 40
1
 40
1
 40
1
 40
1
 10
128.573729
 20
168.310737
 30
0.0
 10
123.892568
 20
162.174088
 30
0.0
 10
120.076831
 20
156.706177
 30
0.0
 10
120.312856
 20
156.470152
 30
0.0
  0
SPLINE
  5
194
100
AcDbEntity
  8
Layer_1
 62
7
100
AcDbSpline
 70
8
 71
3
 72
8
 73
4
 74
0
 40
0
 40
0
 40
0
 40
0
 40
1
 40
1
 40
1
 40
1
 10
120.312856
 20
156.470152
 30
0.0
 10
120.391531
 20
156.430814
 30
0.0
 10
121.138943
 20
156.706177
 30
0.0
 10
121.965031
 20
157.138889
 30
0.0
  0
SPLINE
  5
195
100
AcDbEntity
  8
Layer_1
 62
7
100
AcDbSpline
 70
8
 71
3
 72
8
 73
4
 74
0
 40
0
 40
0
 40
0
 40
0
 40
1
 40
1
 40
1
 40
1
 10
121.965031
 20
157.138889
 30
0.0
 10
124.128593
 20
158.240339
 30
0.0
 10
125.230042
 20
158.161664
 30
0.0
 10
125.544742
 20
156.902864
 30
0.0
  0
SPLINE
  5
196
100
AcDbEntity
  8
Layer_1
 62
7
100
AcDbSpline
 70
8
 71
3
 72
8
 73
4
 74
0
 40
0
 40
0
 40
0
 40
0
 40
1
 40
1
 40
1
 40
1
 10
125.544742
 20
156.902864
 30
0.0
 10
125.898780
 20
155.447377
 30
0.0
 10
124.757993
 20
151.985677
 30
0.0
 10
123.499193
 20
150.805553
 30
0.0
  0
SPLINE
  5
197
100
AcDbEntity
  8
Layer_1
 62
7
100
AcDbSpline
 70
8
 71
3
 72
8
 73
4
 74
0
 40
0
 40
0
 40
0
 40
0
 40
1
 40
1
 40
1
 40
1
 10
123.499193
 20
150.805553
 30
0.0
 10
122.948468
 20
150.294165
 30
0.0
 10
119.919481
 20
148.523978
 30
0.0
 10
116.772481
 20
146.911141
 30
0.0
  0
LWPOLYLINE
  5
198
100
AcDbEntity
  8
Layer_1
 62
7
100
AcDbPolyline
 90
2
 70
0
 10
144.741439
 20
186.169959
 30
0.0
 10
144.741439
 20
186.169959
 30
0.0
  0
SPLINE
  5
199
100
AcDbEntity
  8
Layer_1
 62
7
100
AcDbSpline
 70
8
 71
3
 72
8
 73
4
 74
0
 40
0
 40
0
 40
0
 40
0
 40
1
 40
1
 40
1
 40
1
 10
106.151358
 20
127.242394
 30
0.0
 10
105.954671
 20
122.167857
 30
0.0
 10
106.505396
 20
114.024996
 30
0.0
 10
107.410158
 20
108.557084
 30
0.0
  0
SPLINE
  5
19a
100
AcDbEntity
  8
Layer_1
 62
7
100
AcDbSpline
 70
8
 71
3
 72
8
 73
4
 74
0
 40
0
 40
0
 40
0
 40
0
 40
1
 40
1
 40
1
 40
1
 10
107.410158
 20
108.557084
 30
0.0
 10
108.354258
 20
102.931823
 30
0.0
 10
109.219683
 20
97.935961
 30
0.0
 10
109.416370
 20
97.385236
 30
0.0
  0
SPLINE
  5
19b
100
AcDbEntity
  8
Layer_1
 62
7
100
AcDbSpline
 70
8
 71
3
 72
8
 73
4
 74
0
 40
0
 40
0
 40
0
 40
0
 40
1
 40
1
 40
1
 40
1
 10
109.416370
 20
97.385236
 30
0.0
 10
109.534383
 20
97.031199
 30
0.0
 10
110.124445
 20
97.345899
 30
0.0
 10
111.304570
 20
98.447348
 30
0.0
  0
SPLINE
  5
19c
100
AcDbEntity
  8
Layer_1
 62
7
100
AcDbSpline
 70
8
 71
3
 72
8
 73
4
 74
0
 40
0
 40
0
 40
0
 40
0
 40
1
 40
1
 40
1
 40
1
 10
111.304570
 20
98.447348
 30
0.0
 10
112.248670
 20
99.312773
 30
0.0
 10
113.586144
 20
100.335548
 30
0.0
 10
114.294219
 20
100.689586
 30
0.0
  0
SPLINE
  5
19d
100
AcDbEntity
  8
Layer_1
 62
7
100
AcDbSpline
 70
8
 71
3
 72
8
 73
4
 74
0
 40
0
 40
0
 40
0
 40
0
 40
1
 40
1
 40
1
 40
1
 10
114.294219
 20
100.689586
 30
0.0
 10
115.277657
 20
101.200973
 30
0.0
 10
115.513682
 20
101.515673
 30
0.0
 10
115.356332
 20
102.184410
 30
0.0
  0
SPLINE
  5
19e
100
AcDbEntity
  8
Layer_1
 62
7
100
AcDbSpline
 70
8
 71
3
 72
8
 73
4
 74
0
 40
0
 40
0
 40
0
 40
0
 40
1
 40
1
 40
1
 40
1
 10
115.356332
 20
102.184410
 30
0.0
 10
114.648257
 20
105.056047
 30
0.0
 10
113.822169
 20
115.283796
 30
0.0
 10
114.018857
 20
118.588145
 30
0.0
  0
SPLINE
  5
19f
100
AcDbEntity
  8
Layer_1
 62
7
100
AcDbSpline
 70
8
 71
3
 72
8
 73
4
 74
0
 40
0
 40
0
 40
0
 40
0
 40
1
 40
1
 40
1
 40
1
 10
114.018857
 20
118.588145
 30
0.0
 10
114.451569
 20
125.314857
 30
0.0
 10
117.008506
 20
130.979456
 30
0.0
 10
120.863581
 20
133.497055
 30
0.0
  0
SPLINE
  5
1a0
100
AcDbEntity
  8
Layer_1
 62
7
100
AcDbSpline
 70
8
 71
3
 72
8
 73
4
 74
0
 40
0
 40
0
 40
0
 40
0
 40
1
 40
1
 40
1
 40
1
 10
120.863581
 20
133.497055
 30
0.0
 10
122.555093
 20
134.637843
 30
0.0
 10
122.948468
 20
134.716518
 30
0.0
 10
126.213480
 20
134.716518
 30
0.0
  0
SPLINE
  5
1a1
100
AcDbEntity
  8
Layer_1
 62
7
100
AcDbSpline
 70
8
 71
3
 72
8
 73
4
 74
0
 40
0
 40
0
 40
0
 40
0
 40
1
 40
1
 40
1
 40
1
 10
126.213480
 20
134.716518
 30
0.0
 10
128.141017
 20
134.716518
 30
0.0
 10
132.664829
 20
134.441155
 30
0.0
 10
136.283878
 20
134.087118
 30
0.0
  0
SPLINE
  5
1a2
100
AcDbEntity
  8
Layer_1
 62
7
100
AcDbSpline
 70
8
 71
3
 72
8
 73
4
 74
0
 40
0
 40
0
 40
0
 40
0
 40
1
 40
1
 40
1
 40
1
 10
136.283878
 20
134.087118
 30
0.0
 10
143.325290
 20
133.418380
 30
0.0
 10
148.085126
 20
133.536393
 30
0.0
 10
154.457800
 20
134.519830
 30
0.0
  0
SPLINE
  5
1a3
100
AcDbEntity
  8
Layer_1
 62
7
100
AcDbSpline
 70
8
 71
3
 72
8
 73
4
 74
0
 40
0
 40
0
 40
0
 40
0
 40
1
 40
1
 40
1
 40
1
 10
154.457800
 20
134.519830
 30
0.0
 10
157.880162
 20
135.070555
 30
0.0
 10
161.892587
 20
136.132667
 30
0.0
 10
161.892587
 20
136.486705
 30
0.0
  0
SPLINE
  5
1a4
100
AcDbEntity
  8
Layer_1
 62
7
100
AcDbSpline
 70
8
 71
3
 72
8
 73
4
 74
0
 40
0
 40
0
 40
0
 40
0
 40
1
 40
1
 40
1
 40
1
 10
161.892587
 20
136.486705
 30
0.0
 10
161.892587
 20
137.194780
 30
0.0
 10
160.161737
 20
141.049854
 30
0.0
 10
159.571674
 20
141.679254
 30
0.0
  0
SPLINE
  5
1a5
100
AcDbEntity
  8
Layer_1
 62
7
100
AcDbSpline
 70
8
 71
3
 72
8
 73
4
 74
0
 40
0
 40
0
 40
0
 40
0
 40
1
 40
1
 40
1
 40
1
 10
159.571674
 20
141.679254
 30
0.0
 10
158.824262
 20
142.466004
 30
0.0
 10
158.784925
 20
142.466004
 30
0.0
 10
155.126538
 20
141.757929
 30
0.0
  0
SPLINE
  5
1a6
100
AcDbEntity
  8
Layer_1
 62
7
100
AcDbSpline
 70
8
 71
3
 72
8
 73
4
 74
0
 40
0
 40
0
 40
0
 40
0
 40
1
 40
1
 40
1
 40
1
 10
155.126538
 20
141.757929
 30
0.0
 10
151.035438
 20
140.931842
 30
0.0
 10
146.590302
 20
140.813829
 30
0.0
 10
143.285952
 20
141.403892
 30
0.0
  0
SPLINE
  5
1a7
100
AcDbEntity
  8
Layer_1
 62
7
100
AcDbSpline
 70
8
 71
3
 72
8
 73
4
 74
0
 40
0
 40
0
 40
0
 40
0
 40
1
 40
1
 40
1
 40
1
 10
143.285952
 20
141.403892
 30
0.0
 10
142.066490
 20
141.639916
 30
0.0
 10
140.060278
 20
141.954616
 30
0.0
 10
138.880153
 20
142.190641
 30
0.0
  0
SPLINE
  5
1a8
100
AcDbEntity
  8
Layer_1
 62
7
100
AcDbSpline
 70
8
 71
3
 72
8
 73
4
 74
0
 40
0
 40
0
 40
0
 40
0
 40
1
 40
1
 40
1
 40
1
 10
138.880153
 20
142.190641
 30
0.0
 10
136.362553
 20
142.623354
 30
0.0
 10
132.743504
 20
144.196854
 30
0.0
 10
131.602716
 20
145.337641
 30
0.0
  0
SPLINE
  5
1a9
100
AcDbEntity
  8
Layer_1
 62
7
100
AcDbSpline
 70
8
 71
3
 72
8
 73
4
 74
0
 40
0
 40
0
 40
0
 40
0
 40
1
 40
1
 40
1
 40
1
 10
131.602716
 20
145.337641
 30
0.0
 10
130.658617
 20
146.281741
 30
0.0
 10
130.540604
 20
148.327290
 30
0.0
 10
131.406029
 20
149.507415
 30
0.0
  0
SPLINE
  5
1aa
100
AcDbEntity
  8
Layer_1
 62
7
100
AcDbSpline
 70
8
 71
3
 72
8
 73
4
 74
0
 40
0
 40
0
 40
0
 40
0
 40
1
 40
1
 40
1
 40
1
 10
131.406029
 20
149.507415
 30
0.0
 10
132.350129
 20
150.884227
 30
0.0
 10
134.041641
 20
151.395615
 30
0.0
 10
135.811828
 20
150.805553
 30
0.0
  0
SPLINE
  5
1ab
100
AcDbEntity
  8
Layer_1
 62
7
100
AcDbSpline
 70
8
 71
3
 72
8
 73
4
 74
0
 40
0
 40
0
 40
0
 40
0
 40
1
 40
1
 40
1
 40
1
 10
135.811828
 20
150.805553
 30
0.0
 10
137.857378
 20
150.176153
 30
0.0
 10
139.666903
 20
148.681328
 30
0.0
 10
140.256965
 20
147.304516
 30
0.0
  0
SPLINE
  5
1ac
100
AcDbEntity
  8
Layer_1
 62
7
100
AcDbSpline
 70
8
 71
3
 72
8
 73
4
 74
0
 40
0
 40
0
 40
0
 40
0
 40
1
 40
1
 40
1
 40
1
 10
140.256965
 20
147.304516
 30
0.0
 10
140.532328
 20
146.635778
 30
0.0
 10
140.965040
 20
146.124391
 30
0.0
 10
141.240402
 20
146.124391
 30
0.0
  0
SPLINE
  5
1ad
100
AcDbEntity
  8
Layer_1
 62
7
100
AcDbSpline
 70
8
 71
3
 72
8
 73
4
 74
0
 40
0
 40
0
 40
0
 40
0
 40
1
 40
1
 40
1
 40
1
 10
141.240402
 20
146.124391
 30
0.0
 10
142.027152
 20
146.124391
 30
0.0
 10
144.898789
 20
150.687540
 30
0.0
 10
145.567527
 20
152.969115
 30
0.0
  0
SPLINE
  5
1ae
100
AcDbEntity
  8
Layer_1
 62
7
100
AcDbSpline
 70
8
 71
3
 72
8
 73
4
 74
0
 40
0
 40
0
 40
0
 40
0
 40
1
 40
1
 40
1
 40
1
 10
145.567527
 20
152.969115
 30
0.0
 10
146.236264
 20
155.211352
 30
0.0
 10
146.432952
 20
160.128539
 30
0.0
 10
145.960902
 20
162.252763
 30
0.0
  0
SPLINE
  5
1af
100
AcDbEntity
  8
Layer_1
 62
7
100
AcDbSpline
 70
8
 71
3
 72
8
 73
4
 74
0
 40
0
 40
0
 40
0
 40
0
 40
1
 40
1
 40
1
 40
1
 10
145.960902
 20
162.252763
 30
0.0
 10
145.803552
 20
163.000176
 30
0.0
 10
145.056139
 20
164.691688
 30
0.0
 10
144.308727
 20
165.989825
 30
0.0
  0
SPLINE
  5
1b0
100
AcDbEntity
  8
Layer_1
 62
7
100
AcDbSpline
 70
8
 71
3
 72
8
 73
4
 74
0
 40
0
 40
0
 40
0
 40
0
 40
1
 40
1
 40
1
 40
1
 10
144.308727
 20
165.989825
 30
0.0
 10
142.931915
 20
168.389412
 30
0.0
 10
139.234190
 20
172.480512
 30
0.0
 10
138.486778
 20
172.480512
 30
0.0
  0
SPLINE
  5
1b1
100
AcDbEntity
  8
Layer_1
 62
7
100
AcDbSpline
 70
8
 71
3
 72
8
 73
4
 74
0
 40
0
 40
0
 40
0
 40
0
 40
1
 40
1
 40
1
 40
1
 10
138.486778
 20
172.480512
 30
0.0
 10
138.290090
 20
172.480512
 30
0.0
 10
138.054065
 20
171.536412
 30
0.0
 10
138.014728
 20
170.356287
 30
0.0
  0
LWPOLYLINE
  5
1b2
100
AcDbEntity
  8
Layer_1
 62
7
100
AcDbPolyline
 90
5
 70
0
 10
116.772481
 20
146.911141
 30
0.0
 10
111.068545
 20
143.960829
 30
0.0
 10
108.708295
 20
138.060205
 30
0.0
 10
106.308708
 20
132.159581
 30
0.0
 10
106.151358
 20
127.242394
 30
0.0
  0
SPLINE
  5
1b3
100
AcDbEntity
  8
Layer_1
 62
7
100
AcDbSpline
 70
8
 71
3
 72
8
 73
4
 74
0
 40
0
 40
0
 40
0
 40
0
 40
1
 40
1
 40
1
 40
1
 10
39.828344
 20
138.374905
 30
0.0
 10
39.749669
 20
138.178217
 30
0.0
 10
39.238281
 20
136.840742
 30
0.0
 10
38.726894
 20
135.306580
 30
0.0
  0
SPLINE
  5
1b4
100
AcDbEntity
  8
Layer_1
 62
7
100
AcDbSpline
 70
8
 71
3
 72
8
 73
4
 74
0
 40
0
 40
0
 40
0
 40
0
 40
1
 40
1
 40
1
 40
1
 10
38.726894
 20
135.306580
 30
0.0
 10
37.861469
 20
132.828318
 30
0.0
 10
37.782794
 20
131.884218
 30
0.0
 10
37.782794
 20
126.062269
 30
0.0
  0
SPLINE
  5
1b5
100
AcDbEntity
  8
Layer_1
 62
7
100
AcDbSpline
 70
8
 71
3
 72
8
 73
4
 74
0
 40
0
 40
0
 40
0
 40
0
 40
1
 40
1
 40
1
 40
1
 10
37.782794
 20
126.062269
 30
0.0
 10
37.782794
 20
119.728933
 30
0.0
 10
37.822132
 20
119.492908
 30
0.0
 10
39.002256
 20
116.542596
 30
0.0
  0
SPLINE
  5
1b6
100
AcDbEntity
  8
Layer_1
 62
7
100
AcDbSpline
 70
8
 71
3
 72
8
 73
4
 74
0
 40
0
 40
0
 40
0
 40
0
 40
1
 40
1
 40
1
 40
1
 10
39.002256
 20
116.542596
 30
0.0
 10
41.362506
 20
110.759984
 30
0.0
 10
46.476380
 20
104.977372
 30
0.0
 10
51.275554
 20
102.774473
 30
0.0
  0
SPLINE
  5
1b7
100
AcDbEntity
  8
Layer_1
 62
7
100
AcDbSpline
 70
8
 71
3
 72
8
 73
4
 74
0
 40
0
 40
0
 40
0
 40
0
 40
1
 40
1
 40
1
 40
1
 10
51.275554
 20
102.774473
 30
0.0
 10
55.681354
 20
100.728923
 30
0.0
 10
59.772453
 20
99.706148
 30
0.0
 10
63.588190
 20
99.706148
 30
0.0
  0
SPLINE
  5
1b8
100
AcDbEntity
  8
Layer_1
 62
7
100
AcDbSpline
 70
8
 71
3
 72
8
 73
4
 74
0
 40
0
 40
0
 40
0
 40
0
 40
1
 40
1
 40
1
 40
1
 10
63.588190
 20
99.706148
 30
0.0
 10
65.476390
 20
99.706148
 30
0.0
 10
67.128564
 20
99.824161
 30
0.0
 10
67.207239
 20
100.020848
 30
0.0
  0
SPLINE
  5
1b9
100
AcDbEntity
  8
Layer_1
 62
7
100
AcDbSpline
 70
8
 71
3
 72
8
 73
4
 74
0
 40
0
 40
0
 40
0
 40
0
 40
1
 40
1
 40
1
 40
1
 10
67.207239
 20
100.020848
 30
0.0
 10
67.285914
 20
100.178198
 30
0.0
 10
67.285914
 20
101.673023
 30
0.0
 10
67.167902
 20
103.364535
 30
0.0
  0
LWPOLYLINE
  5
1ba
100
AcDbEntity
  8
Layer_1
 62
7
100
AcDbPolyline
 90
2
 70
0
 10
138.014728
 20
170.356287
 30
0.0
 10
138.014728
 20
170.356287
 30
0.0
  0
SPLINE
  5
1bb
100
AcDbEntity
  8
Layer_1
 62
7
100
AcDbSpline
 70
8
 71
3
 72
8
 73
4
 74
0
 40
0
 40
0
 40
0
 40
0
 40
1
 40
1
 40
1
 40
1
 10
64.335602
 20
106.393522
 30
0.0
 10
60.362515
 20
106.393522
 30
0.0
 10
55.169966
 20
108.163709
 30
0.0
 10
51.196879
 20
110.877996
 30
0.0
  0
SPLINE
  5
1bc
100
AcDbEntity
  8
Layer_1
 62
7
100
AcDbSpline
 70
8
 71
3
 72
8
 73
4
 74
0
 40
0
 40
0
 40
0
 40
0
 40
1
 40
1
 40
1
 40
1
 10
51.196879
 20
110.877996
 30
0.0
 10
49.308680
 20
112.136796
 30
0.0
 10
47.381143
 20
114.536383
 30
0.0
 10
46.476380
 20
116.660608
 30
0.0
  0
SPLINE
  5
1bd
100
AcDbEntity
  8
Layer_1
 62
7
100
AcDbSpline
 70
8
 71
3
 72
8
 73
4
 74
0
 40
0
 40
0
 40
0
 40
0
 40
1
 40
1
 40
1
 40
1
 10
46.476380
 20
116.660608
 30
0.0
 10
46.083005
 20
117.604708
 30
0.0
 10
45.610955
 20
118.666820
 30
0.0
 10
45.453605
 20
119.020858
 30
0.0
  0
SPLINE
  5
1be
100
AcDbEntity
  8
Layer_1
 62
7
100
AcDbSpline
 70
8
 71
3
 72
8
 73
4
 74
0
 40
0
 40
0
 40
0
 40
0
 40
1
 40
1
 40
1
 40
1
 10
45.453605
 20
119.020858
 30
0.0
 10
44.076793
 20
121.735145
 30
0.0
 10
43.998118
 20
129.012581
 30
0.0
 10
45.335593
 20
133.143018
 30
0.0
  0
SPLINE
  5
1bf
100
AcDbEntity
  8
Layer_1
 62
7
100
AcDbSpline
 70
8
 71
3
 72
8
 73
4
 74
0
 40
0
 40
0
 40
0
 40
0
 40
1
 40
1
 40
1
 40
1
 10
45.335593
 20
133.143018
 30
0.0
 10
45.689630
 20
134.323143
 30
0.0
 10
46.004330
 20
135.424592
 30
0.0
 10
46.043668
 20
135.581942
 30
0.0
  0
SPLINE
  5
1c0
100
AcDbEntity
  8
Layer_1
 62
7
100
AcDbSpline
 70
8
 71
3
 72
8
 73
4
 74
0
 40
0
 40
0
 40
0
 40
0
 40
1
 40
1
 40
1
 40
1
 10
46.043668
 20
135.581942
 30
0.0
 10
46.043668
 20
135.857305
 30
0.0
 10
40.851119
 20
138.650267
 30
0.0
 10
40.300394
 20
138.650267
 30
0.0
  0
SPLINE
  5
1c1
100
AcDbEntity
  8
Layer_1
 62
7
100
AcDbSpline
 70
8
 71
3
 72
8
 73
4
 74
0
 40
0
 40
0
 40
0
 40
0
 40
1
 40
1
 40
1
 40
1
 10
40.300394
 20
138.650267
 30
0.0
 10
40.143044
 20
138.650267
 30
0.0
 10
39.907019
 20
138.532254
 30
0.0
 10
39.828344
 20
138.374905
 30
0.0
  0
LWPOLYLINE
  5
1c2
100
AcDbEntity
  8
Layer_1
 62
7
100
AcDbPolyline
 90
3
 70
0
 10
67.167902
 20
103.364535
 30
0.0
 10
67.010552
 20
106.393522
 30
0.0
 10
64.335602
 20
106.393522
 30
0.0
  0
SPLINE
  5
1c3
100
AcDbEntity
  8
Layer_1
 62
7
100
AcDbSpline
 70
8
 71
3
 72
8
 73
4
 74
0
 40
0
 40
0
 40
0
 40
0
 40
1
 40
1
 40
1
 40
1
 10
122.397743
 20
133.143018
 30
0.0
 10
120.824243
 20
132.356268
 30
0.0
 10
118.660681
 20
130.153368
 30
0.0
 10
118.621344
 20
129.366618
 30
0.0
  0
SPLINE
  5
1c4
100
AcDbEntity
  8
Layer_1
 62
7
100
AcDbSpline
 70
8
 71
3
 72
8
 73
4
 74
0
 40
0
 40
0
 40
0
 40
0
 40
1
 40
1
 40
1
 40
1
 10
118.621344
 20
129.366618
 30
0.0
 10
118.621344
 20
129.130594
 30
0.0
 10
119.486768
 20
128.815894
 30
0.0
 10
120.509543
 20
128.658544
 30
0.0
  0
SPLINE
  5
1c5
100
AcDbEntity
  8
Layer_1
 62
7
100
AcDbSpline
 70
8
 71
3
 72
8
 73
4
 74
0
 40
0
 40
0
 40
0
 40
0
 40
1
 40
1
 40
1
 40
1
 10
120.509543
 20
128.658544
 30
0.0
 10
123.381180
 20
128.304506
 30
0.0
 10
127.393605
 20
126.140944
 30
0.0
 10
132.350129
 20
122.403882
 30
0.0
  0
SPLINE
  5
1c6
100
AcDbEntity
  8
Layer_1
 62
7
100
AcDbSpline
 70
8
 71
3
 72
8
 73
4
 74
0
 40
0
 40
0
 40
0
 40
0
 40
1
 40
1
 40
1
 40
1
 10
132.350129
 20
122.403882
 30
0.0
 10
134.828391
 20
120.515682
 30
0.0
 10
137.070628
 20
118.981520
 30
0.0
 10
137.345991
 20
118.981520
 30
0.0
  0
SPLINE
  5
1c7
100
AcDbEntity
  8
Layer_1
 62
7
100
AcDbSpline
 70
8
 71
3
 72
8
 73
4
 74
0
 40
0
 40
0
 40
0
 40
0
 40
1
 40
1
 40
1
 40
1
 10
137.345991
 20
118.981520
 30
0.0
 10
137.621353
 20
118.981520
 30
0.0
 10
138.211415
 20
119.728933
 30
0.0
 10
138.644128
 20
120.673032
 30
0.0
  0
SPLINE
  5
1c8
100
AcDbEntity
  8
Layer_1
 62
7
100
AcDbSpline
 70
8
 71
3
 72
8
 73
4
 74
0
 40
0
 40
0
 40
0
 40
0
 40
1
 40
1
 40
1
 40
1
 10
138.644128
 20
120.673032
 30
0.0
 10
139.076840
 20
121.577795
 30
0.0
 10
139.784915
 20
122.875932
 30
0.0
 10
140.217628
 20
123.544669
 30
0.0
  0
LWPOLYLINE
  5
1c9
100
AcDbEntity
  8
Layer_1
 62
7
100
AcDbPolyline
 90
2
 70
0
 10
39.828344
 20
138.374905
 30
0.0
 10
39.828344
 20
138.374905
 30
0.0
  0
SPLINE
  5
1ca
100
AcDbEntity
  8
Layer_1
 62
7
100
AcDbSpline
 70
8
 71
3
 72
8
 73
4
 74
0
 40
0
 40
0
 40
0
 40
0
 40
1
 40
1
 40
1
 40
1
 10
137.936053
 20
127.596431
 30
0.0
 10
136.008516
 20
129.287943
 30
0.0
 10
134.592366
 20
130.940118
 30
0.0
 10
134.317004
 20
131.726868
 30
0.0
  0
SPLINE
  5
1cb
100
AcDbEntity
  8
Layer_1
 62
7
100
AcDbSpline
 70
8
 71
3
 72
8
 73
4
 74
0
 40
0
 40
0
 40
0
 40
0
 40
1
 40
1
 40
1
 40
1
 10
134.317004
 20
131.726868
 30
0.0
 10
133.766279
 20
133.300368
 30
0.0
 10
133.294229
 20
133.457718
 30
0.0
 10
127.708305
 20
133.733080
 30
0.0
  0
SPLINE
  5
1cc
100
AcDbEntity
  8
Layer_1
 62
7
100
AcDbSpline
 70
8
 71
3
 72
8
 73
4
 74
0
 40
0
 40
0
 40
0
 40
0
 40
1
 40
1
 40
1
 40
1
 10
127.708305
 20
133.733080
 30
0.0
 10
124.443293
 20
133.929768
 30
0.0
 10
123.735218
 20
133.851093
 30
0.0
 10
122.397743
 20
133.143018
 30
0.0
  0
LWPOLYLINE
  5
1cd
100
AcDbEntity
  8
Layer_1
 62
7
100
AcDbPolyline
 90
3
 70
0
 10
140.217628
 20
123.544669
 30
0.0
 10
141.043715
 20
124.764132
 30
0.0
 10
137.936053
 20
127.596431
 30
0.0
  0
SPLINE
  5
1ce
100
AcDbEntity
  8
Layer_1
 62
7
100
AcDbSpline
 70
8
 71
3
 72
8
 73
4
 74
0
 40
0
 40
0
 40
0
 40
0
 40
1
 40
1
 40
1
 40
1
 10
77.080950
 20
133.221693
 30
0.0
 10
76.844925
 20
133.064343
 30
0.0
 10
76.333538
 20
132.277593
 30
0.0
 10
75.940163
 20
131.451506
 30
0.0
  0
SPLINE
  5
1cf
100
AcDbEntity
  8
Layer_1
 62
7
100
AcDbSpline
 70
8
 71
3
 72
8
 73
4
 74
0
 40
0
 40
0
 40
0
 40
0
 40
1
 40
1
 40
1
 40
1
 10
75.940163
 20
131.451506
 30
0.0
 10
75.507451
 20
130.546743
 30
0.0
 10
73.973288
 20
128.894569
 30
0.0
 10
72.085089
 20
127.321069
 30
0.0
  0
SPLINE
  5
1d0
100
AcDbEntity
  8
Layer_1
 62
7
100
AcDbSpline
 70
8
 71
3
 72
8
 73
4
 74
0
 40
0
 40
0
 40
0
 40
0
 40
1
 40
1
 40
1
 40
1
 10
72.085089
 20
127.321069
 30
0.0
 10
65.594402
 20
121.892495
 30
0.0
 10
60.795228
 20
117.290008
 30
0.0
 10
58.907028
 20
114.733071
 30
0.0
  0
SPLINE
  5
1d1
100
AcDbEntity
  8
Layer_1
 62
7
100
AcDbSpline
 70
8
 71
3
 72
8
 73
4
 74
0
 40
0
 40
0
 40
0
 40
0
 40
1
 40
1
 40
1
 40
1
 10
58.907028
 20
114.733071
 30
0.0
 10
56.074729
 20
110.799321
 30
0.0
 10
55.878041
 20
110.405947
 30
0.0
 10
56.664791
 20
109.540522
 30
0.0
  0
SPLINE
  5
1d2
100
AcDbEntity
  8
Layer_1
 62
7
100
AcDbSpline
 70
8
 71
3
 72
8
 73
4
 74
0
 40
0
 40
0
 40
0
 40
0
 40
1
 40
1
 40
1
 40
1
 10
56.664791
 20
109.540522
 30
0.0
 10
57.254853
 20
108.911122
 30
0.0
 10
61.109928
 20
107.573647
 30
0.0
 10
62.408065
 20
107.573647
 30
0.0
  0
SPLINE
  5
1d3
100
AcDbEntity
  8
Layer_1
 62
7
100
AcDbSpline
 70
8
 71
3
 72
8
 73
4
 74
0
 40
0
 40
0
 40
0
 40
0
 40
1
 40
1
 40
1
 40
1
 10
62.408065
 20
107.573647
 30
0.0
 10
62.722765
 20
107.573647
 30
0.0
 10
63.430840
 20
108.360397
 30
0.0
 10
64.020902
 20
109.304497
 30
0.0
  0
SPLINE
  5
1d4
100
AcDbEntity
  8
Layer_1
 62
7
100
AcDbSpline
 70
8
 71
3
 72
8
 73
4
 74
0
 40
0
 40
0
 40
0
 40
0
 40
1
 40
1
 40
1
 40
1
 10
64.020902
 20
109.304497
 30
0.0
 10
65.673077
 20
111.900771
 30
0.0
 10
71.770389
 20
117.565370
 30
0.0
 10
77.749688
 20
122.010507
 30
0.0
  0
SPLINE
  5
1d5
100
AcDbEntity
  8
Layer_1
 62
7
100
AcDbSpline
 70
8
 71
3
 72
8
 73
4
 74
0
 40
0
 40
0
 40
0
 40
0
 40
1
 40
1
 40
1
 40
1
 10
77.749688
 20
122.010507
 30
0.0
 10
83.532299
 20
126.376969
 30
0.0
 10
87.072674
 20
128.265169
 30
0.0
 10
90.022986
 20
128.658544
 30
0.0
  0
SPLINE
  5
1d6
100
AcDbEntity
  8
Layer_1
 62
7
100
AcDbSpline
 70
8
 71
3
 72
8
 73
4
 74
0
 40
0
 40
0
 40
0
 40
0
 40
1
 40
1
 40
1
 40
1
 10
90.022986
 20
128.658544
 30
0.0
 10
92.147210
 20
128.973244
 30
0.0
 10
92.304560
 20
129.405956
 30
0.0
 10
90.849073
 20
131.176143
 30
0.0
  0
SPLINE
  5
1d7
100
AcDbEntity
  8
Layer_1
 62
7
100
AcDbSpline
 70
8
 71
3
 72
8
 73
4
 74
0
 40
0
 40
0
 40
0
 40
0
 40
1
 40
1
 40
1
 40
1
 10
90.849073
 20
131.176143
 30
0.0
 10
89.078886
 20
133.261030
 30
0.0
 10
88.095448
 20
133.536393
 30
0.0
 10
82.548862
 20
133.536393
 30
0.0
  0
SPLINE
  5
1d8
100
AcDbEntity
  8
Layer_1
 62
7
100
AcDbSpline
 70
8
 71
3
 72
8
 73
4
 74
0
 40
0
 40
0
 40
0
 40
0
 40
1
 40
1
 40
1
 40
1
 10
82.548862
 20
133.536393
 30
0.0
 10
79.795237
 20
133.536393
 30
0.0
 10
77.316975
 20
133.379043
 30
0.0
 10
77.080950
 20
133.221693
 30
0.0
  0
LWPOLYLINE
  5
1d9
100
AcDbEntity
  8
Layer_1
 62
7
100
AcDbPolyline
 90
2
 70
0
 10
122.397743
 20
133.143018
 30
0.0
 10
122.397743
 20
133.143018
 30
0.0
  0
SPLINE
  5
1da
100
AcDbEntity
  8
Layer_1
 62
7
100
AcDbSpline
 70
8
 71
3
 72
8
 73
4
 74
0
 40
0
 40
0
 40
0
 40
0
 40
1
 40
1
 40
1
 40
1
 10
54.697916
 20
129.209268
 30
0.0
 10
54.029179
 20
129.012581
 30
0.0
 10
52.967067
 20
128.304506
 30
0.0
 10
52.337667
 20
127.635769
 30
0.0
  0
SPLINE
  5
1db
100
AcDbEntity
  8
Layer_1
 62
7
100
AcDbSpline
 70
8
 71
3
 72
8
 73
4
 74
0
 40
0
 40
0
 40
0
 40
0
 40
1
 40
1
 40
1
 40
1
 10
52.337667
 20
127.635769
 30
0.0
 10
51.236217
 20
126.455644
 30
0.0
 10
51.157542
 20
126.219619
 30
0.0
 10
51.157542
 20
123.111957
 30
0.0
  0
SPLINE
  5
1dc
100
AcDbEntity
  8
Layer_1
 62
7
100
AcDbSpline
 70
8
 71
3
 72
8
 73
4
 74
0
 40
0
 40
0
 40
0
 40
0
 40
1
 40
1
 40
1
 40
1
 10
51.157542
 20
123.111957
 30
0.0
 10
51.157542
 20
120.161645
 30
0.0
 10
51.275554
 20
119.689595
 30
0.0
 10
52.062304
 20
118.902845
 30
0.0
  0
SPLINE
  5
1dd
100
AcDbEntity
  8
Layer_1
 62
7
100
AcDbSpline
 70
8
 71
3
 72
8
 73
4
 74
0
 40
0
 40
0
 40
0
 40
0
 40
1
 40
1
 40
1
 40
1
 10
52.062304
 20
118.902845
 30
0.0
 10
52.967067
 20
117.998083
 30
0.0
 10
52.967067
 20
117.998083
 30
0.0
 10
53.557129
 20
118.745495
 30
0.0
  0
SPLINE
  5
1de
100
AcDbEntity
  8
Layer_1
 62
7
100
AcDbSpline
 70
8
 71
3
 72
8
 73
4
 74
0
 40
0
 40
0
 40
0
 40
0
 40
1
 40
1
 40
1
 40
1
 10
53.557129
 20
118.745495
 30
0.0
 10
53.871829
 20
119.178208
 30
0.0
 10
54.107854
 20
120.200982
 30
0.0
 10
54.107854
 20
121.066407
 30
0.0
  0
SPLINE
  5
1df
100
AcDbEntity
  8
Layer_1
 62
7
100
AcDbSpline
 70
8
 71
3
 72
8
 73
4
 74
0
 40
0
 40
0
 40
0
 40
0
 40
1
 40
1
 40
1
 40
1
 10
54.107854
 20
121.066407
 30
0.0
 10
54.107854
 20
123.111957
 30
0.0
 10
54.619241
 20
123.938044
 30
0.0
 10
56.232079
 20
124.488769
 30
0.0
  0
SPLINE
  5
1e0
100
AcDbEntity
  8
Layer_1
 62
7
100
AcDbSpline
 70
8
 71
3
 72
8
 73
4
 74
0
 40
0
 40
0
 40
0
 40
0
 40
1
 40
1
 40
1
 40
1
 10
56.232079
 20
124.488769
 30
0.0
 10
58.159616
 20
125.118169
 30
0.0
 10
60.441190
 20
124.410094
 30
0.0
 10
62.211378
 20
122.679245
 30
0.0
  0
LWPOLYLINE
  5
1e1
100
AcDbEntity
  8
Layer_1
 62
7
100
AcDbPolyline
 90
2
 70
0
 10
77.080950
 20
133.221693
 30
0.0
 10
77.080950
 20
133.221693
 30
0.0
  0
SPLINE
  5
1e2
100
AcDbEntity
  8
Layer_1
 62
7
100
AcDbSpline
 70
8
 71
3
 72
8
 73
4
 74
0
 40
0
 40
0
 40
0
 40
0
 40
1
 40
1
 40
1
 40
1
 10
66.617177
 20
126.298294
 30
0.0
 10
64.060240
 20
128.619206
 30
0.0
 10
57.766241
 20
130.153368
 30
0.0
 10
54.697916
 20
129.209268
 30
0.0
  0
LWPOLYLINE
  5
1e3
100
AcDbEntity
  8
Layer_1
 62
7
100
AcDbPolyline
 90
5
 70
0
 10
62.211378
 20
122.679245
 30
0.0
 10
63.588190
 20
121.263095
 30
0.0
 10
65.791090
 20
123.151294
 30
0.0
 10
67.993989
 20
125.039494
 30
0.0
 10
66.617177
 20
126.298294
 30
0.0
  0
SPLINE
  5
1e4
100
AcDbEntity
  8
Layer_1
 62
7
100
AcDbSpline
 70
8
 71
3
 72
8
 73
4
 74
0
 40
0
 40
0
 40
0
 40
0
 40
1
 40
1
 40
1
 40
1
 10
149.383264
 20
129.012581
 30
0.0
 10
144.898789
 20
127.753781
 30
0.0
 10
142.381190
 20
125.472207
 30
0.0
 10
139.942265
 20
120.476345
 30
0.0
  0
SPLINE
  5
1e5
100
AcDbEntity
  8
Layer_1
 62
7
100
AcDbSpline
 70
8
 71
3
 72
8
 73
4
 74
0
 40
0
 40
0
 40
0
 40
0
 40
1
 40
1
 40
1
 40
1
 10
139.942265
 20
120.476345
 30
0.0
 10
138.565453
 20
117.644045
 30
0.0
 10
136.716591
 20
111.704084
 30
0.0
 10
136.716591
 20
110.051909
 30
0.0
  0
SPLINE
  5
1e6
100
AcDbEntity
  8
Layer_1
 62
7
100
AcDbSpline
 70
8
 71
3
 72
8
 73
4
 74
0
 40
0
 40
0
 40
0
 40
0
 40
1
 40
1
 40
1
 40
1
 10
136.716591
 20
110.051909
 30
0.0
 10
136.716591
 20
109.383172
 30
0.0
 10
139.902928
 20
107.967022
 30
0.0
 10
141.476427
 20
107.967022
 30
0.0
  0
SPLINE
  5
1e7
100
AcDbEntity
  8
Layer_1
 62
7
100
AcDbSpline
 70
8
 71
3
 72
8
 73
4
 74
0
 40
0
 40
0
 40
0
 40
0
 40
1
 40
1
 40
1
 40
1
 10
141.476427
 20
107.967022
 30
0.0
 10
142.420527
 20
107.967022
 30
0.0
 10
142.617215
 20
108.124372
 30
0.0
 10
142.617215
 20
108.911122
 30
0.0
  0
SPLINE
  5
1e8
100
AcDbEntity
  8
Layer_1
 62
7
100
AcDbSpline
 70
8
 71
3
 72
8
 73
4
 74
0
 40
0
 40
0
 40
0
 40
0
 40
1
 40
1
 40
1
 40
1
 10
142.617215
 20
108.911122
 30
0.0
 10
142.617215
 20
110.759984
 30
0.0
 10
144.269389
 20
116.503258
 30
0.0
 10
145.488852
 20
118.784833
 30
0.0
  0
SPLINE
  5
1e9
100
AcDbEntity
  8
Layer_1
 62
7
100
AcDbSpline
 70
8
 71
3
 72
8
 73
4
 74
0
 40
0
 40
0
 40
0
 40
0
 40
1
 40
1
 40
1
 40
1
 10
145.488852
 20
118.784833
 30
0.0
 10
147.927776
 20
123.387319
 30
0.0
 10
151.035438
 20
125.432869
 30
0.0
 10
154.103763
 20
124.528107
 30
0.0
  0
SPLINE
  5
1ea
100
AcDbEntity
  8
Layer_1
 62
7
100
AcDbSpline
 70
8
 71
3
 72
8
 73
4
 74
0
 40
0
 40
0
 40
0
 40
0
 40
1
 40
1
 40
1
 40
1
 10
154.103763
 20
124.528107
 30
0.0
 10
155.873950
 20
123.977382
 30
0.0
 10
156.778712
 20
122.403882
 30
0.0
 10
156.778712
 20
119.964957
 30
0.0
  0
SPLINE
  5
1eb
100
AcDbEntity
  8
Layer_1
 62
7
100
AcDbSpline
 70
8
 71
3
 72
8
 73
4
 74
0
 40
0
 40
0
 40
0
 40
0
 40
1
 40
1
 40
1
 40
1
 10
156.778712
 20
119.964957
 30
0.0
 10
156.778712
 20
118.863508
 30
0.0
 10
156.936062
 20
118.588145
 30
0.0
 10
157.565462
 20
118.588145
 30
0.0
  0
SPLINE
  5
1ec
100
AcDbEntity
  8
Layer_1
 62
7
100
AcDbSpline
 70
8
 71
3
 72
8
 73
4
 74
0
 40
0
 40
0
 40
0
 40
0
 40
1
 40
1
 40
1
 40
1
 10
157.565462
 20
118.588145
 30
0.0
 10
159.414324
 20
118.588145
 30
0.0
 10
160.240412
 20
123.780694
 30
0.0
 10
158.784925
 20
126.455644
 30
0.0
  0
SPLINE
  5
1ed
100
AcDbEntity
  8
Layer_1
 62
7
100
AcDbSpline
 70
8
 71
3
 72
8
 73
4
 74
0
 40
0
 40
0
 40
0
 40
0
 40
1
 40
1
 40
1
 40
1
 10
158.784925
 20
126.455644
 30
0.0
 10
158.391550
 20
127.203056
 30
0.0
 10
157.526125
 20
128.147156
 30
0.0
 10
156.857387
 20
128.540531
 30
0.0
  0
SPLINE
  5
1ee
100
AcDbEntity
  8
Layer_1
 62
7
100
AcDbSpline
 70
8
 71
3
 72
8
 73
4
 74
0
 40
0
 40
0
 40
0
 40
0
 40
1
 40
1
 40
1
 40
1
 10
156.857387
 20
128.540531
 30
0.0
 10
155.205213
 20
129.523968
 30
0.0
 10
151.940201
 20
129.720656
 30
0.0
 10
149.383264
 20
129.012581
 30
0.0
  0
LWPOLYLINE
  5
1ef
100
AcDbEntity
  8
Layer_1
 62
7
100
AcDbPolyline
 90
2
 70
0
 10
54.697916
 20
129.209268
 30
0.0
 10
54.697916
 20
129.209268
 30
0.0
  0
SPLINE
  5
1f0
100
AcDbEntity
  8
Layer_1
 62
7
100
AcDbSpline
 70
8
 71
3
 72
8
 73
4
 74
0
 40
0
 40
0
 40
0
 40
0
 40
1
 40
1
 40
1
 40
1
 10
89.550936
 20
127.203056
 30
0.0
 10
88.606836
 20
127.006369
 30
0.0
 10
87.741411
 20
126.770344
 30
0.0
 10
87.623399
 20
126.652331
 30
0.0
  0
SPLINE
  5
1f1
100
AcDbEntity
  8
Layer_1
 62
7
100
AcDbSpline
 70
8
 71
3
 72
8
 73
4
 74
0
 40
0
 40
0
 40
0
 40
0
 40
1
 40
1
 40
1
 40
1
 10
87.623399
 20
126.652331
 30
0.0
 10
87.505386
 20
126.534319
 30
0.0
 10
87.387374
 20
125.157507
 30
0.0
 10
87.348036
 20
123.584007
 30
0.0
  0
SPLINE
  5
1f2
100
AcDbEntity
  8
Layer_1
 62
7
100
AcDbSpline
 70
8
 71
3
 72
8
 73
4
 74
0
 40
0
 40
0
 40
0
 40
0
 40
1
 40
1
 40
1
 40
1
 10
87.348036
 20
123.584007
 30
0.0
 10
87.308699
 20
119.532245
 30
0.0
 10
86.207249
 20
116.975308
 30
0.0
 10
83.099587
 20
113.867646
 30
0.0
  0
SPLINE
  5
1f3
100
AcDbEntity
  8
Layer_1
 62
7
100
AcDbSpline
 70
8
 71
3
 72
8
 73
4
 74
0
 40
0
 40
0
 40
0
 40
0
 40
1
 40
1
 40
1
 40
1
 10
83.099587
 20
113.867646
 30
0.0
 10
81.604762
 20
112.372821
 30
0.0
 10
79.598550
 20
110.838659
 30
0.0
 10
77.907038
 20
109.973234
 30
0.0
  0
SPLINE
  5
1f4
100
AcDbEntity
  8
Layer_1
 62
7
100
AcDbSpline
 70
8
 71
3
 72
8
 73
4
 74
0
 40
0
 40
0
 40
0
 40
0
 40
1
 40
1
 40
1
 40
1
 10
77.907038
 20
109.973234
 30
0.0
 10
75.271426
 20
108.596422
 30
0.0
 10
75.153413
 20
108.439072
 30
0.0
 10
75.192751
 20
107.180272
 30
0.0
  0
SPLINE
  5
1f5
100
AcDbEntity
  8
Layer_1
 62
7
100
AcDbSpline
 70
8
 71
3
 72
8
 73
4
 74
0
 40
0
 40
0
 40
0
 40
0
 40
1
 40
1
 40
1
 40
1
 10
75.192751
 20
107.180272
 30
0.0
 10
75.310763
 20
104.308635
 30
0.0
 10
75.861488
 20
101.673023
 30
0.0
 10
76.372875
 20
101.673023
 30
0.0
  0
SPLINE
  5
1f6
100
AcDbEntity
  8
Layer_1
 62
7
100
AcDbSpline
 70
8
 71
3
 72
8
 73
4
 74
0
 40
0
 40
0
 40
0
 40
0
 40
1
 40
1
 40
1
 40
1
 10
76.372875
 20
101.673023
 30
0.0
 10
77.198963
 20
101.673023
 30
0.0
 10
82.509524
 20
104.544660
 30
0.0
 10
84.476399
 20
106.039485
 30
0.0
  0
SPLINE
  5
1f7
100
AcDbEntity
  8
Layer_1
 62
7
100
AcDbSpline
 70
8
 71
3
 72
8
 73
4
 74
0
 40
0
 40
0
 40
0
 40
0
 40
1
 40
1
 40
1
 40
1
 10
84.476399
 20
106.039485
 30
0.0
 10
85.459836
 20
106.786897
 30
0.0
 10
88.331473
 20
109.265159
 30
0.0
 10
90.849073
 20
111.546734
 30
0.0
  0
LWPOLYLINE
  5
1f8
100
AcDbEntity
  8
Layer_1
 62
7
100
AcDbPolyline
 90
2
 70
0
 10
149.383264
 20
129.012581
 30
0.0
 10
149.383264
 20
129.012581
 30
0.0
  0
SPLINE
  5
1f9
100
AcDbEntity
  8
Layer_1
 62
7
100
AcDbSpline
 70
8
 71
3
 72
8
 73
4
 74
0
 40
0
 40
0
 40
0
 40
0
 40
1
 40
1
 40
1
 40
1
 10
95.215535
 20
118.194770
 30
0.0
 10
94.900835
 20
121.459782
 30
0.0
 10
93.917398
 20
125.629557
 30
0.0
 10
93.209323
 20
126.770344
 30
0.0
  0
SPLINE
  5
1fa
100
AcDbEntity
  8
Layer_1
 62
7
100
AcDbSpline
 70
8
 71
3
 72
8
 73
4
 74
0
 40
0
 40
0
 40
0
 40
0
 40
1
 40
1
 40
1
 40
1
 10
93.209323
 20
126.770344
 30
0.0
 10
92.619260
 20
127.714444
 30
0.0
 10
92.265223
 20
127.753781
 30
0.0
 10
89.550936
 20
127.203056
 30
0.0
  0
LWPOLYLINE
  5
1fb
100
AcDbEntity
  8
Layer_1
 62
7
100
AcDbPolyline
 90
3
 70
0
 10
90.849073
 20
111.546734
 30
0.0
 10
95.451560
 20
115.637833
 30
0.0
 10
95.215535
 20
118.194770
 30
0.0
  0
SPLINE
  5
1fc
100
AcDbEntity
  8
Layer_1
 62
7
100
AcDbSpline
 70
8
 71
3
 72
8
 73
4
 74
0
 40
0
 40
0
 40
0
 40
0
 40
1
 40
1
 40
1
 40
1
 10
117.283869
 20
126.770344
 30
0.0
 10
116.497119
 20
125.550882
 30
0.0
 10
115.867719
 20
122.993945
 30
0.0
 10
115.435007
 20
118.981520
 30
0.0
  0
LWPOLYLINE
  5
1fd
100
AcDbEntity
  8
Layer_1
 62
7
100
AcDbPolyline
 90
2
 70
0
 10
89.550936
 20
127.203056
 30
0.0
 10
89.550936
 20
127.203056
 30
0.0
  0
SPLINE
  5
1fe
100
AcDbEntity
  8
Layer_1
 62
7
100
AcDbSpline
 70
8
 71
3
 72
8
 73
4
 74
0
 40
0
 40
0
 40
0
 40
0
 40
1
 40
1
 40
1
 40
1
 10
116.379106
 20
114.457708
 30
0.0
 10
117.126519
 20
113.828308
 30
0.0
 10
119.447431
 20
111.743421
 30
0.0
 10
121.532318
 20
109.855222
 30
0.0
  0
SPLINE
  5
1ff
100
AcDbEntity
  8
Layer_1
 62
7
100
AcDbSpline
 70
8
 71
3
 72
8
 73
4
 74
0
 40
0
 40
0
 40
0
 40
0
 40
1
 40
1
 40
1
 40
1
 10
121.532318
 20
109.855222
 30
0.0
 10
126.134805
 20
105.724785
 30
0.0
 10
129.045779
 20
103.718573
 30
0.0
 10
132.900854
 20
102.145073
 30
0.0
  0
SPLINE
  5
200
100
AcDbEntity
  8
Layer_1
 62
7
100
AcDbSpline
 70
8
 71
3
 72
8
 73
4
 74
0
 40
0
 40
0
 40
0
 40
0
 40
1
 40
1
 40
1
 40
1
 10
132.900854
 20
102.145073
 30
0.0
 10
136.244541
 20
100.728923
 30
0.0
 10
141.515765
 20
99.706148
 30
0.0
 10
145.370839
 20
99.706148
 30
0.0
  0
SPLINE
  5
201
100
AcDbEntity
  8
Layer_1
 62
7
100
AcDbSpline
 70
8
 71
3
 72
8
 73
4
 74
0
 40
0
 40
0
 40
0
 40
0
 40
1
 40
1
 40
1
 40
1
 10
145.370839
 20
99.706148
 30
0.0
 10
148.714526
 20
99.706148
 30
0.0
 10
149.107901
 20
100.099523
 30
0.0
 10
148.360489
 20
102.617123
 30
0.0
  0
SPLINE
  5
202
100
AcDbEntity
  8
Layer_1
 62
7
100
AcDbSpline
 70
8
 71
3
 72
8
 73
4
 74
0
 40
0
 40
0
 40
0
 40
0
 40
1
 40
1
 40
1
 40
1
 10
148.360489
 20
102.617123
 30
0.0
 10
147.377051
 20
105.803460
 30
0.0
 10
146.944339
 20
106.236172
 30
0.0
 10
144.151377
 20
106.550872
 30
0.0
  0
SPLINE
  5
203
100
AcDbEntity
  8
Layer_1
 62
7
100
AcDbSpline
 70
8
 71
3
 72
8
 73
4
 74
0
 40
0
 40
0
 40
0
 40
0
 40
1
 40
1
 40
1
 40
1
 10
144.151377
 20
106.550872
 30
0.0
 10
137.503340
 20
107.219610
 30
0.0
 10
131.327354
 20
109.855222
 30
0.0
 10
127.590292
 20
113.631621
 30
0.0
  0
SPLINE
  5
204
100
AcDbEntity
  8
Layer_1
 62
7
100
AcDbSpline
 70
8
 71
3
 72
8
 73
4
 74
0
 40
0
 40
0
 40
0
 40
0
 40
1
 40
1
 40
1
 40
1
 10
127.590292
 20
113.631621
 30
0.0
 10
124.325280
 20
116.857295
 30
0.0
 10
123.223830
 20
119.374895
 30
0.0
 10
123.145155
 20
123.465994
 30
0.0
  0
SPLINE
  5
205
100
AcDbEntity
  8
Layer_1
 62
7
100
AcDbSpline
 70
8
 71
3
 72
8
 73
4
 74
0
 40
0
 40
0
 40
0
 40
0
 40
1
 40
1
 40
1
 40
1
 10
123.145155
 20
123.465994
 30
0.0
 10
123.066480
 20
126.967031
 30
0.0
 10
123.105818
 20
126.888356
 30
0.0
 10
119.722793
 20
127.399744
 30
0.0
  0
SPLINE
  5
206
100
AcDbEntity
  8
Layer_1
 62
7
100
AcDbSpline
 70
8
 71
3
 72
8
 73
4
 74
0
 40
0
 40
0
 40
0
 40
0
 40
1
 40
1
 40
1
 40
1
 10
119.722793
 20
127.399744
 30
0.0
 10
118.070619
 20
127.635769
 30
0.0
 10
117.834594
 20
127.596431
 30
0.0
 10
117.283869
 20
126.770344
 30
0.0
  0
LWPOLYLINE
  5
207
100
AcDbEntity
  8
Layer_1
 62
7
100
AcDbPolyline
 90
3
 70
0
 10
115.435007
 20
118.981520
 30
0.0
 10
115.041632
 20
115.637833
 30
0.0
 10
116.379106
 20
114.457708
 30
0.0
  0
SPLINE
  5
208
100
AcDbEntity
  8
Layer_1
 62
7
100
AcDbSpline
 70
8
 71
3
 72
8
 73
4
 74
0
 40
0
 40
0
 40
0
 40
0
 40
1
 40
1
 40
1
 40
1
 10
146.472289
 20
117.722720
 30
0.0
 10
145.410177
 20
115.637833
 30
0.0
 10
144.584089
 20
113.434934
 30
0.0
 10
144.584089
 20
112.608846
 30
0.0
  0
SPLINE
  5
209
100
AcDbEntity
  8
Layer_1
 62
7
100
AcDbSpline
 70
8
 71
3
 72
8
 73
4
 74
0
 40
0
 40
0
 40
0
 40
0
 40
1
 40
1
 40
1
 40
1
 10
144.584089
 20
112.608846
 30
0.0
 10
144.584089
 20
112.176134
 30
0.0
 10
145.016802
 20
111.271371
 30
0.0
 10
145.528189
 20
110.602634
 30
0.0
  0
SPLINE
  5
20a
100
AcDbEntity
  8
Layer_1
 62
7
100
AcDbSpline
 70
8
 71
3
 72
8
 73
4
 74
0
 40
0
 40
0
 40
0
 40
0
 40
1
 40
1
 40
1
 40
1
 10
145.528189
 20
110.602634
 30
0.0
 10
148.085126
 20
107.219610
 30
0.0
 10
150.091338
 20
102.695798
 30
0.0
 10
150.091338
 20
100.374886
 30
0.0
  0
SPLINE
  5
20b
100
AcDbEntity
  8
Layer_1
 62
7
100
AcDbSpline
 70
8
 71
3
 72
8
 73
4
 74
0
 40
0
 40
0
 40
0
 40
0
 40
1
 40
1
 40
1
 40
1
 10
150.091338
 20
100.374886
 30
0.0
 10
150.091338
 20
96.952524
 30
0.0
 10
147.219701
 20
92.861424
 30
0.0
 10
143.994027
 20
91.602625
 30
0.0
  0
SPLINE
  5
20c
100
AcDbEntity
  8
Layer_1
 62
7
100
AcDbSpline
 70
8
 71
3
 72
8
 73
4
 74
0
 40
0
 40
0
 40
0
 40
0
 40
1
 40
1
 40
1
 40
1
 10
143.994027
 20
91.602625
 30
0.0
 10
142.459865
 20
91.012562
 30
0.0
 10
142.184502
 20
90.737200
 30
0.0
 10
141.830465
 20
89.321050
 30
0.0
  0
SPLINE
  5
20d
100
AcDbEntity
  8
Layer_1
 62
7
100
AcDbSpline
 70
8
 71
3
 72
8
 73
4
 74
0
 40
0
 40
0
 40
0
 40
0
 40
1
 40
1
 40
1
 40
1
 10
141.830465
 20
89.321050
 30
0.0
 10
141.594440
 20
88.455625
 30
0.0
 10
141.161727
 20
87.039475
 30
0.0
 10
140.847027
 20
86.252725
 30
0.0
  0
SPLINE
  5
20e
100
AcDbEntity
  8
Layer_1
 62
7
100
AcDbSpline
 70
8
 71
3
 72
8
 73
4
 74
0
 40
0
 40
0
 40
0
 40
0
 40
1
 40
1
 40
1
 40
1
 10
140.847027
 20
86.252725
 30
0.0
 10
140.217628
 20
84.600551
 30
0.0
 10
140.256965
 20
84.561213
 30
0.0
 10
142.302515
 20
84.167838
 30
0.0
  0
SPLINE
  5
20f
100
AcDbEntity
  8
Layer_1
 62
7
100
AcDbSpline
 70
8
 71
3
 72
8
 73
4
 74
0
 40
0
 40
0
 40
0
 40
0
 40
1
 40
1
 40
1
 40
1
 10
142.302515
 20
84.167838
 30
0.0
 10
143.325290
 20
83.971151
 30
0.0
 10
144.584089
 20
84.128501
 30
0.0
 10
146.511627
 20
84.718563
 30
0.0
  0
SPLINE
  5
210
100
AcDbEntity
  8
Layer_1
 62
7
100
AcDbSpline
 70
8
 71
3
 72
8
 73
4
 74
0
 40
0
 40
0
 40
0
 40
0
 40
1
 40
1
 40
1
 40
1
 10
146.511627
 20
84.718563
 30
0.0
 10
151.389476
 20
86.213388
 30
0.0
 10
154.615150
 20
90.147137
 30
0.0
 10
156.346000
 20
96.716499
 30
0.0
  0
SPLINE
  5
211
100
AcDbEntity
  8
Layer_1
 62
7
100
AcDbSpline
 70
8
 71
3
 72
8
 73
4
 74
0
 40
0
 40
0
 40
0
 40
0
 40
1
 40
1
 40
1
 40
1
 10
156.346000
 20
96.716499
 30
0.0
 10
156.818050
 20
98.447348
 30
0.0
 10
157.172087
 20
100.335548
 30
0.0
 10
157.172087
 20
100.886273
 30
0.0
  0
SPLINE
  5
212
100
AcDbEntity
  8
Layer_1
 62
7
100
AcDbSpline
 70
8
 71
3
 72
8
 73
4
 74
0
 40
0
 40
0
 40
0
 40
0
 40
1
 40
1
 40
1
 40
1
 10
157.172087
 20
100.886273
 30
0.0
 10
157.172087
 20
102.538448
 30
0.0
 10
155.637925
 20
107.888347
 30
0.0
 10
154.536475
 20
110.051909
 30
0.0
  0
SPLINE
  5
213
100
AcDbEntity
  8
Layer_1
 62
7
100
AcDbSpline
 70
8
 71
3
 72
8
 73
4
 74
0
 40
0
 40
0
 40
0
 40
0
 40
1
 40
1
 40
1
 40
1
 10
154.536475
 20
110.051909
 30
0.0
 10
152.766288
 20
113.552946
 30
0.0
 10
148.517839
 20
118.981520
 30
0.0
 10
147.534401
 20
118.981520
 30
0.0
  0
SPLINE
  5
214
100
AcDbEntity
  8
Layer_1
 62
7
100
AcDbSpline
 70
8
 71
3
 72
8
 73
4
 74
0
 40
0
 40
0
 40
0
 40
0
 40
1
 40
1
 40
1
 40
1
 10
147.534401
 20
118.981520
 30
0.0
 10
147.298376
 20
118.981520
 30
0.0
 10
146.826326
 20
118.391458
 30
0.0
 10
146.472289
 20
117.722720
 30
0.0
  0
LWPOLYLINE
  5
215
100
AcDbEntity
  8
Layer_1
 62
7
100
AcDbPolyline
 90
2
 70
0
 10
117.283869
 20
126.770344
 30
0.0
 10
117.283869
 20
126.770344
 30
0.0
  0
SPLINE
  5
216
100
AcDbEntity
  8
Layer_1
 62
7
100
AcDbSpline
 70
8
 71
3
 72
8
 73
4
 74
0
 40
0
 40
0
 40
0
 40
0
 40
1
 40
1
 40
1
 40
1
 10
69.488814
 20
113.985658
 30
0.0
 10
67.718627
 20
112.451496
 30
0.0
 10
67.443264
 20
112.018784
 30
0.0
 10
67.639952
 20
111.153359
 30
0.0
  0
SPLINE
  5
217
100
AcDbEntity
  8
Layer_1
 62
7
100
AcDbSpline
 70
8
 71
3
 72
8
 73
4
 74
0
 40
0
 40
0
 40
0
 40
0
 40
1
 40
1
 40
1
 40
1
 10
67.639952
 20
111.153359
 30
0.0
 10
67.757964
 20
110.602634
 30
0.0
 10
68.072664
 20
106.668885
 30
0.0
 10
68.269352
 20
102.459773
 30
0.0
  0
SPLINE
  5
218
100
AcDbEntity
  8
Layer_1
 62
7
100
AcDbSpline
 70
8
 71
3
 72
8
 73
4
 74
0
 40
0
 40
0
 40
0
 40
0
 40
1
 40
1
 40
1
 40
1
 10
68.269352
 20
102.459773
 30
0.0
 10
68.466039
 20
98.250661
 30
0.0
 10
68.820077
 20
94.277574
 30
0.0
 10
68.977427
 20
93.608837
 30
0.0
  0
SPLINE
  5
219
100
AcDbEntity
  8
Layer_1
 62
7
100
AcDbSpline
 70
8
 71
3
 72
8
 73
4
 74
0
 40
0
 40
0
 40
0
 40
0
 40
1
 40
1
 40
1
 40
1
 10
68.977427
 20
93.608837
 30
0.0
 10
69.370802
 20
92.192687
 30
0.0
 10
70.196889
 20
92.192687
 30
0.0
 10
73.304551
 20
93.726849
 30
0.0
  0
LWPOLYLINE
  5
21a
100
AcDbEntity
  8
Layer_1
 62
7
100
AcDbPolyline
 90
2
 70
0
 10
146.472289
 20
117.722720
 30
0.0
 10
146.472289
 20
117.722720
 30
0.0
  0
SPLINE
  5
21b
100
AcDbEntity
  8
Layer_1
 62
7
100
AcDbSpline
 70
8
 71
3
 72
8
 73
4
 74
0
 40
0
 40
0
 40
0
 40
0
 40
1
 40
1
 40
1
 40
1
 10
75.153413
 20
96.323124
 30
0.0
 10
75.035401
 20
97.227886
 30
0.0
 10
74.681363
 20
100.768261
 30
0.0
 10
74.366663
 20
104.229960
 30
0.0
  0
SPLINE
  5
21c
100
AcDbEntity
  8
Layer_1
 62
7
100
AcDbSpline
 70
8
 71
3
 72
8
 73
4
 74
0
 40
0
 40
0
 40
0
 40
0
 40
1
 40
1
 40
1
 40
1
 10
74.366663
 20
104.229960
 30
0.0
 10
73.737263
 20
110.956671
 30
0.0
 10
72.753826
 20
115.834521
 30
0.0
 10
72.045751
 20
115.834521
 30
0.0
  0
SPLINE
  5
21d
100
AcDbEntity
  8
Layer_1
 62
7
100
AcDbSpline
 70
8
 71
3
 72
8
 73
4
 74
0
 40
0
 40
0
 40
0
 40
0
 40
1
 40
1
 40
1
 40
1
 10
72.045751
 20
115.834521
 30
0.0
 10
71.809726
 20
115.834521
 30
0.0
 10
70.668939
 20
115.008433
 30
0.0
 10
69.488814
 20
113.985658
 30
0.0
  0
LWPOLYLINE
  5
21e
100
AcDbEntity
  8
Layer_1
 62
7
100
AcDbPolyline
 90
3
 70
0
 10
73.304551
 20
93.726849
 30
0.0
 10
75.389438
 20
94.749624
 30
0.0
 10
75.153413
 20
96.323124
 30
0.0
  0
SPLINE
  5
21f
100
AcDbEntity
  8
Layer_1
 62
7
100
AcDbSpline
 70
8
 71
3
 72
8
 73
4
 74
0
 40
0
 40
0
 40
0
 40
0
 40
1
 40
1
 40
1
 40
1
 10
88.410148
 20
100.453561
 30
0.0
 10
85.853211
 20
100.138861
 30
0.0
 10
82.430849
 20
98.447348
 30
0.0
 10
77.120288
 20
94.828299
 30
0.0
  0
SPLINE
  5
220
100
AcDbEntity
  8
Layer_1
 62
7
100
AcDbSpline
 70
8
 71
3
 72
8
 73
4
 74
0
 40
0
 40
0
 40
0
 40
0
 40
1
 40
1
 40
1
 40
1
 10
77.120288
 20
94.828299
 30
0.0
 10
72.517801
 20
91.720637
 30
0.0
 10
68.151339
 20
90.658525
 30
0.0
 10
65.555065
 20
91.996000
 30
0.0
  0
SPLINE
  5
221
100
AcDbEntity
  8
Layer_1
 62
7
100
AcDbSpline
 70
8
 71
3
 72
8
 73
4
 74
0
 40
0
 40
0
 40
0
 40
0
 40
1
 40
1
 40
1
 40
1
 10
65.555065
 20
91.996000
 30
0.0
 10
64.060240
 20
92.782749
 30
0.0
 10
61.267278
 20
95.890411
 30
0.0
 10
60.952578
 20
97.149211
 30
0.0
  0
SPLINE
  5
222
100
AcDbEntity
  8
Layer_1
 62
7
100
AcDbSpline
 70
8
 71
3
 72
8
 73
4
 74
0
 40
0
 40
0
 40
0
 40
0
 40
1
 40
1
 40
1
 40
1
 10
60.952578
 20
97.149211
 30
0.0
 10
60.795228
 20
97.778611
 30
0.0
 10
60.283840
 20
98.368673
 30
0.0
 10
59.654441
 20
98.604698
 30
0.0
  0
SPLINE
  5
223
100
AcDbEntity
  8
Layer_1
 62
7
100
AcDbSpline
 70
8
 71
3
 72
8
 73
4
 74
0
 40
0
 40
0
 40
0
 40
0
 40
1
 40
1
 40
1
 40
1
 10
59.654441
 20
98.604698
 30
0.0
 10
57.766241
 20
99.352111
 30
0.0
 10
53.989841
 20
100.138861
 30
0.0
 10
53.675142
 20
99.824161
 30
0.0
  0
SPLINE
  5
224
100
AcDbEntity
  8
Layer_1
 62
7
100
AcDbSpline
 70
8
 71
3
 72
8
 73
4
 74
0
 40
0
 40
0
 40
0
 40
0
 40
1
 40
1
 40
1
 40
1
 10
53.675142
 20
99.824161
 30
0.0
 10
53.242429
 20
99.312773
 30
0.0
 10
54.855266
 20
93.805524
 30
0.0
 10
56.153404
 20
91.327262
 30
0.0
  0
SPLINE
  5
225
100
AcDbEntity
  8
Layer_1
 62
7
100
AcDbSpline
 70
8
 71
3
 72
8
 73
4
 74
0
 40
0
 40
0
 40
0
 40
0
 40
1
 40
1
 40
1
 40
1
 10
56.153404
 20
91.327262
 30
0.0
 10
58.631666
 20
86.685438
 30
0.0
 10
63.273490
 20
83.971151
 30
0.0
 10
68.623389
 20
83.971151
 30
0.0
  0
SPLINE
  5
226
100
AcDbEntity
  8
Layer_1
 62
7
100
AcDbSpline
 70
8
 71
3
 72
8
 73
4
 74
0
 40
0
 40
0
 40
0
 40
0
 40
1
 40
1
 40
1
 40
1
 10
68.623389
 20
83.971151
 30
0.0
 10
70.511589
 20
83.971151
 30
0.0
 10
71.455689
 20
84.285851
 30
0.0
 10
75.153413
 20
86.095375
 30
0.0
  0
SPLINE
  5
227
100
AcDbEntity
  8
Layer_1
 62
7
100
AcDbSpline
 70
8
 71
3
 72
8
 73
4
 74
0
 40
0
 40
0
 40
0
 40
0
 40
1
 40
1
 40
1
 40
1
 10
75.153413
 20
86.095375
 30
0.0
 10
77.553000
 20
87.275500
 30
0.0
 10
80.385300
 20
89.006350
 30
0.0
 10
81.447412
 20
89.911112
 30
0.0
  0
SPLINE
  5
228
100
AcDbEntity
  8
Layer_1
 62
7
100
AcDbSpline
 70
8
 71
3
 72
8
 73
4
 74
0
 40
0
 40
0
 40
0
 40
0
 40
1
 40
1
 40
1
 40
1
 10
81.447412
 20
89.911112
 30
0.0
 10
84.043687
 20
92.114012
 30
0.0
 10
87.702074
 20
93.805524
 30
0.0
 10
89.786961
 20
93.805524
 30
0.0
  0
SPLINE
  5
229
100
AcDbEntity
  8
Layer_1
 62
7
100
AcDbSpline
 70
8
 71
3
 72
8
 73
4
 74
0
 40
0
 40
0
 40
0
 40
0
 40
1
 40
1
 40
1
 40
1
 10
89.786961
 20
93.805524
 30
0.0
 10
91.399798
 20
93.805524
 30
0.0
 10
91.439135
 20
93.805524
 30
0.0
 10
92.265223
 20
96.047761
 30
0.0
  0
SPLINE
  5
22a
100
AcDbEntity
  8
Layer_1
 62
7
100
AcDbSpline
 70
8
 71
3
 72
8
 73
4
 74
0
 40
0
 40
0
 40
0
 40
0
 40
1
 40
1
 40
1
 40
1
 10
92.265223
 20
96.047761
 30
0.0
 10
93.642035
 20
99.706148
 30
0.0
 10
93.681373
 20
100.335548
 30
0.0
 10
92.579923
 20
100.610911
 30
0.0
  0
SPLINE
  5
22b
100
AcDbEntity
  8
Layer_1
 62
7
100
AcDbSpline
 70
8
 71
3
 72
8
 73
4
 74
0
 40
0
 40
0
 40
0
 40
0
 40
1
 40
1
 40
1
 40
1
 10
92.579923
 20
100.610911
 30
0.0
 10
92.107873
 20
100.768261
 30
0.0
 10
91.517810
 20
100.846936
 30
0.0
 10
91.281785
 20
100.846936
 30
0.0
  0
SPLINE
  5
22c
100
AcDbEntity
  8
Layer_1
 62
7
100
AcDbSpline
 70
8
 71
3
 72
8
 73
4
 74
0
 40
0
 40
0
 40
0
 40
0
 40
1
 40
1
 40
1
 40
1
 10
91.281785
 20
100.846936
 30
0.0
 10
91.085098
 20
100.807598
 30
0.0
 10
89.786961
 20
100.650248
 30
0.0
 10
88.410148
 20
100.453561
 30
0.0
  0
LWPOLYLINE
  5
22d
100
AcDbEntity
  8
Layer_1
 62
7
100
AcDbPolyline
 90
2
 70
0
 10
69.488814
 20
113.985658
 30
0.0
 10
69.488814
 20
113.985658
 30
0.0
  0
SPLINE
  5
22e
100
AcDbEntity
  8
Layer_1
 62
7
100
AcDbSpline
 70
8
 71
3
 72
8
 73
4
 74
0
 40
0
 40
0
 40
0
 40
0
 40
1
 40
1
 40
1
 40
1
 10
117.087181
 20
100.414223
 30
0.0
 10
111.933970
 20
98.958736
 30
0.0
 10
107.488833
 20
93.254799
 30
0.0
 10
106.938108
 20
87.393513
 30
0.0
  0
SPLINE
  5
22f
100
AcDbEntity
  8
Layer_1
 62
7
100
AcDbSpline
 70
8
 71
3
 72
8
 73
4
 74
0
 40
0
 40
0
 40
0
 40
0
 40
1
 40
1
 40
1
 40
1
 10
106.938108
 20
87.393513
 30
0.0
 10
106.387383
 20
81.296201
 30
0.0
 10
109.888420
 20
75.552927
 30
0.0
 10
114.451569
 20
75.041540
 30
0.0
  0
SPLINE
  5
230
100
AcDbEntity
  8
Layer_1
 62
7
100
AcDbSpline
 70
8
 71
3
 72
8
 73
4
 74
0
 40
0
 40
0
 40
0
 40
0
 40
1
 40
1
 40
1
 40
1
 10
114.451569
 20
75.041540
 30
0.0
 10
116.379106
 20
74.805515
 30
0.0
 10
117.362544
 20
75.552927
 30
0.0
 10
116.025069
 20
76.261002
 30
0.0
  0
SPLINE
  5
231
100
AcDbEntity
  8
Layer_1
 62
7
100
AcDbSpline
 70
8
 71
3
 72
8
 73
4
 74
0
 40
0
 40
0
 40
0
 40
0
 40
1
 40
1
 40
1
 40
1
 10
116.025069
 20
76.261002
 30
0.0
 10
115.631694
 20
76.497027
 30
0.0
 10
114.490907
 20
77.480464
 30
0.0
 10
113.507469
 20
78.463902
 30
0.0
  0
SPLINE
  5
232
100
AcDbEntity
  8
Layer_1
 62
7
100
AcDbSpline
 70
8
 71
3
 72
8
 73
4
 74
0
 40
0
 40
0
 40
0
 40
0
 40
1
 40
1
 40
1
 40
1
 10
113.507469
 20
78.463902
 30
0.0
 10
109.022995
 20
82.948376
 30
0.0
 10
110.203120
 20
89.911112
 30
0.0
 10
115.985731
 20
92.822087
 30
0.0
  0
SPLINE
  5
233
100
AcDbEntity
  8
Layer_1
 62
7
100
AcDbSpline
 70
8
 71
3
 72
8
 73
4
 74
0
 40
0
 40
0
 40
0
 40
0
 40
1
 40
1
 40
1
 40
1
 10
115.985731
 20
92.822087
 30
0.0
 10
119.801468
 20
94.710287
 30
0.0
 10
123.263168
 20
94.041549
 30
0.0
 10
128.731079
 20
90.304487
 30
0.0
  0
SPLINE
  5
234
100
AcDbEntity
  8
Layer_1
 62
7
100
AcDbSpline
 70
8
 71
3
 72
8
 73
4
 74
0
 40
0
 40
0
 40
0
 40
0
 40
1
 40
1
 40
1
 40
1
 10
128.731079
 20
90.304487
 30
0.0
 10
130.029217
 20
89.439062
 30
0.0
 10
131.288016
 20
88.691650
 30
0.0
 10
131.484704
 20
88.691650
 30
0.0
  0
SPLINE
  5
235
100
AcDbEntity
  8
Layer_1
 62
7
100
AcDbSpline
 70
8
 71
3
 72
8
 73
4
 74
0
 40
0
 40
0
 40
0
 40
0
 40
1
 40
1
 40
1
 40
1
 10
131.484704
 20
88.691650
 30
0.0
 10
131.917416
 20
88.691650
 30
0.0
 10
133.569591
 20
92.861424
 30
0.0
 10
133.569591
 20
93.923537
 30
0.0
  0
SPLINE
  5
236
100
AcDbEntity
  8
Layer_1
 62
7
100
AcDbSpline
 70
8
 71
3
 72
8
 73
4
 74
0
 40
0
 40
0
 40
0
 40
0
 40
1
 40
1
 40
1
 40
1
 10
133.569591
 20
93.923537
 30
0.0
 10
133.569591
 20
94.710287
 30
0.0
 10
131.956754
 20
95.929749
 30
0.0
 10
127.826317
 20
98.289998
 30
0.0
  0
SPLINE
  5
237
100
AcDbEntity
  8
Layer_1
 62
7
100
AcDbSpline
 70
8
 71
3
 72
8
 73
4
 74
0
 40
0
 40
0
 40
0
 40
0
 40
1
 40
1
 40
1
 40
1
 10
127.826317
 20
98.289998
 30
0.0
 10
125.426730
 20
99.627473
 30
0.0
 10
124.010580
 20
100.178198
 30
0.0
 10
121.925693
 20
100.492898
 30
0.0
  0
SPLINE
  5
238
100
AcDbEntity
  8
Layer_1
 62
7
100
AcDbSpline
 70
8
 71
3
 72
8
 73
4
 74
0
 40
0
 40
0
 40
0
 40
0
 40
1
 40
1
 40
1
 40
1
 10
121.925693
 20
100.492898
 30
0.0
 10
118.778694
 20
100.925611
 30
0.0
 10
118.857369
 20
100.925611
 30
0.0
 10
117.087181
 20
100.414223
 30
0.0
  0
LWPOLYLINE
  5
239
100
AcDbEntity
  8
Layer_1
 62
7
100
AcDbPolyline
 90
2
 70
0
 10
88.410148
 20
100.453561
 30
0.0
 10
88.410148
 20
100.453561
 30
0.0
  0
SPLINE
  5
23a
100
AcDbEntity
  8
Layer_1
 62
7
100
AcDbSpline
 70
8
 71
3
 72
8
 73
4
 74
0
 40
0
 40
0
 40
0
 40
0
 40
1
 40
1
 40
1
 40
1
 10
135.536466
 20
98.604698
 30
0.0
 10
135.536466
 20
96.559149
 30
0.0
 10
134.002304
 20
90.186475
 30
0.0
 10
133.097541
 20
88.573638
 30
0.0
  0
SPLINE
  5
23b
100
AcDbEntity
  8
Layer_1
 62
7
100
AcDbSpline
 70
8
 71
3
 72
8
 73
4
 74
0
 40
0
 40
0
 40
0
 40
0
 40
1
 40
1
 40
1
 40
1
 10
133.097541
 20
88.573638
 30
0.0
 10
130.147229
 20
83.302413
 30
0.0
 10
124.364618
 20
84.364526
 30
0.0
 10
119.329418
 20
91.051900
 30
0.0
  0
LWPOLYLINE
  5
23c
100
AcDbEntity
  8
Layer_1
 62
7
100
AcDbPolyline
 90
2
 70
0
 10
117.087181
 20
100.414223
 30
0.0
 10
117.087181
 20
100.414223
 30
0.0
  0
SPLINE
  5
23d
100
AcDbEntity
  8
Layer_1
 62
7
100
AcDbSpline
 70
8
 71
3
 72
8
 73
4
 74
0
 40
0
 40
0
 40
0
 40
0
 40
1
 40
1
 40
1
 40
1
 10
116.457781
 20
91.484612
 30
0.0
 10
114.058194
 20
90.225812
 30
0.0
 10
112.878069
 20
88.573638
 30
0.0
 10
113.428794
 20
87.314838
 30
0.0
  0
SPLINE
  5
23e
100
AcDbEntity
  8
Layer_1
 62
7
100
AcDbSpline
 70
8
 71
3
 72
8
 73
4
 74
0
 40
0
 40
0
 40
0
 40
0
 40
1
 40
1
 40
1
 40
1
 10
113.428794
 20
87.314838
 30
0.0
 10
114.294219
 20
85.465976
 30
0.0
 10
118.582006
 20
80.981501
 30
0.0
 10
120.824243
 20
79.644027
 30
0.0
  0
SPLINE
  5
23f
100
AcDbEntity
  8
Layer_1
 62
7
100
AcDbSpline
 70
8
 71
3
 72
8
 73
4
 74
0
 40
0
 40
0
 40
0
 40
0
 40
1
 40
1
 40
1
 40
1
 10
120.824243
 20
79.644027
 30
0.0
 10
123.027143
 20
78.306552
 30
0.0
 10
123.263168
 20
78.267214
 30
0.0
 10
127.078905
 20
78.267214
 30
0.0
  0
SPLINE
  5
240
100
AcDbEntity
  8
Layer_1
 62
7
100
AcDbSpline
 70
8
 71
3
 72
8
 73
4
 74
0
 40
0
 40
0
 40
0
 40
0
 40
1
 40
1
 40
1
 40
1
 10
127.078905
 20
78.267214
 30
0.0
 10
129.399817
 20
78.267214
 30
0.0
 10
131.642054
 20
78.503239
 30
0.0
 10
132.507479
 20
78.817939
 30
0.0
  0
SPLINE
  5
241
100
AcDbEntity
  8
Layer_1
 62
7
100
AcDbSpline
 70
8
 71
3
 72
8
 73
4
 74
0
 40
0
 40
0
 40
0
 40
0
 40
1
 40
1
 40
1
 40
1
 10
132.507479
 20
78.817939
 30
0.0
 10
135.890503
 20
79.998064
 30
0.0
 10
138.722803
 20
83.695788
 30
0.0
 10
140.374978
 20
89.085025
 30
0.0
  0
SPLINE
  5
242
100
AcDbEntity
  8
Layer_1
 62
7
100
AcDbSpline
 70
8
 71
3
 72
8
 73
4
 74
0
 40
0
 40
0
 40
0
 40
0
 40
1
 40
1
 40
1
 40
1
 10
140.374978
 20
89.085025
 30
0.0
 10
141.279740
 20
92.035337
 30
0.0
 10
142.223840
 20
96.559149
 30
0.0
 10
142.223840
 20
98.053974
 30
0.0
  0
SPLINE
  5
243
100
AcDbEntity
  8
Layer_1
 62
7
100
AcDbSpline
 70
8
 71
3
 72
8
 73
4
 74
0
 40
0
 40
0
 40
0
 40
0
 40
1
 40
1
 40
1
 40
1
 10
142.223840
 20
98.053974
 30
0.0
 10
142.223840
 20
98.722711
 30
0.0
 10
140.965040
 20
99.155423
 30
0.0
 10
138.014728
 20
99.470123
 30
0.0
  0
LWPOLYLINE
  5
244
100
AcDbEntity
  8
Layer_1
 62
7
100
AcDbPolyline
 90
3
 70
0
 10
119.329418
 20
91.051900
 30
0.0
 10
118.306644
 20
92.428712
 30
0.0
 10
116.457781
 20
91.484612
 30
0.0
  0
SPLINE
  5
245
100
AcDbEntity
  8
Layer_1
 62
7
100
AcDbSpline
 70
8
 71
3
 72
8
 73
4
 74
0
 40
0
 40
0
 40
0
 40
0
 40
1
 40
1
 40
1
 40
1
 10
100.014709
 20
91.051900
 30
0.0
 10
99.149284
 20
88.927675
 30
0.0
 10
98.991934
 20
88.180263
 30
0.0
 10
99.306634
 20
87.550863
 30
0.0
  0
SPLINE
  5
246
100
AcDbEntity
  8
Layer_1
 62
7
100
AcDbSpline
 70
8
 71
3
 72
8
 73
4
 74
0
 40
0
 40
0
 40
0
 40
0
 40
1
 40
1
 40
1
 40
1
 10
99.306634
 20
87.550863
 30
0.0
 10
99.896697
 20
86.528088
 30
0.0
 10
99.857359
 20
83.853138
 30
0.0
 10
99.267297
 20
81.846926
 30
0.0
  0
SPLINE
  5
247
100
AcDbEntity
  8
Layer_1
 62
7
100
AcDbSpline
 70
8
 71
3
 72
8
 73
4
 74
0
 40
0
 40
0
 40
0
 40
0
 40
1
 40
1
 40
1
 40
1
 10
99.267297
 20
81.846926
 30
0.0
 10
98.795247
 20
80.312764
 30
0.0
 10
96.120297
 20
77.205102
 30
0.0
 10
94.468122
 20
76.261002
 30
0.0
  0
SPLINE
  5
248
100
AcDbEntity
  8
Layer_1
 62
7
100
AcDbSpline
 70
8
 71
3
 72
8
 73
4
 74
0
 40
0
 40
0
 40
0
 40
0
 40
1
 40
1
 40
1
 40
1
 10
94.468122
 20
76.261002
 30
0.0
 10
93.130648
 20
75.552927
 30
0.0
 10
94.114085
 20
74.805515
 30
0.0
 10
96.041622
 20
75.041540
 30
0.0
  0
SPLINE
  5
249
100
AcDbEntity
  8
Layer_1
 62
7
100
AcDbSpline
 70
8
 71
3
 72
8
 73
4
 74
0
 40
0
 40
0
 40
0
 40
0
 40
1
 40
1
 40
1
 40
1
 10
96.041622
 20
75.041540
 30
0.0
 10
100.604771
 20
75.552927
 30
0.0
 10
104.105808
 20
81.296201
 30
0.0
 10
103.555083
 20
87.354175
 30
0.0
  0
SPLINE
  5
24a
100
AcDbEntity
  8
Layer_1
 62
7
100
AcDbSpline
 70
8
 71
3
 72
8
 73
4
 74
0
 40
0
 40
0
 40
0
 40
0
 40
1
 40
1
 40
1
 40
1
 10
103.555083
 20
87.354175
 30
0.0
 10
103.319059
 20
89.675087
 30
0.0
 10
101.942246
 20
93.805524
 30
0.0
 10
101.352184
 20
93.805524
 30
0.0
  0
SPLINE
  5
24b
100
AcDbEntity
  8
Layer_1
 62
7
100
AcDbSpline
 70
8
 71
3
 72
8
 73
4
 74
0
 40
0
 40
0
 40
0
 40
0
 40
1
 40
1
 40
1
 40
1
 10
101.352184
 20
93.805524
 30
0.0
 10
101.234171
 20
93.805524
 30
0.0
 10
100.604771
 20
92.586062
 30
0.0
 10
100.014709
 20
91.051900
 30
0.0
  0
LWPOLYLINE
  5
24c
100
AcDbEntity
  8
Layer_1
 62
7
100
AcDbPolyline
 90
4
 70
0
 10
138.014728
 20
99.470123
 30
0.0
 10
135.536466
 20
99.745486
 30
0.0
 10
135.536466
 20
98.604698
 30
0.0
 10
135.536466
 20
98.604698
 30
0.0
  0
LWPOLYLINE
  5
24d
100
AcDbEntity
  8
Layer_1
 62
7
100
AcDbPolyline
 90
2
 70
0
 10
100.014709
 20
91.051900
 30
0.0
 10
100.014709
 20
91.051900
 30
0.0
  0
ENDSEC
  0
SECTION
  2
OBJECTS
  0
DICTIONARY
  5
C
330
0
100
AcDbDictionary
  3
ACAD_GROUP
350
D
  3
ACAD_MLINESTYLE
350
17
  0
DICTIONARY
  5
D
330
C
100
AcDbDictionary
  0
DICTIONARY
  5
1A
330
C
100
AcDbDictionary
  0
DICTIONARY
  5
17
330
C
100
AcDbDictionary
  3
STANDARD
350
18
  0
DICTIONARY
  5
19
330
C
100
AcDbDictionary
  0
ENDSEC
  0
EOF
