<?xml version="1.0" encoding="UTF-8" standalone="no"?>
<!-- Created with Inkscape (http://www.inkscape.org/) -->

<svg
   xmlns:dc="http://purl.org/dc/elements/1.1/"
   xmlns:cc="http://creativecommons.org/ns#"
   xmlns:rdf="http://www.w3.org/1999/02/22-rdf-syntax-ns#"
   xmlns:svg="http://www.w3.org/2000/svg"
   xmlns="http://www.w3.org/2000/svg"
   xmlns:sodipodi="http://sodipodi.sourceforge.net/DTD/sodipodi-0.dtd"
   xmlns:inkscape="http://www.inkscape.org/namespaces/inkscape"
   width="210mm"
   height="297mm"
   id="svg3071"
   version="1.1"
   inkscape:version="0.48.2 r9819"
   sodipodi:docname="New document 2">
  <defs
     id="defs3" />
  <sodipodi:namedview
     inkscape:document-units="mm"
     id="base"
     pagecolor="#ffffff"
     bordercolor="#666666"
     borderopacity="1.0"
     inkscape:pageopacity="0.0"
     inkscape:pageshadow="2"
     inkscape:zoom="0.98994949"
     inkscape:cx="420.82109"
     inkscape:cy="504.77505"
     inkscape:current-layer="g3081"
     showgrid="false"
     inkscape:window-width="1920"
     inkscape:window-height="1028"
     inkscape:window-x="-8"
     inkscape:window-y="-8"
     inkscape:window-maximized="1" />
  <metadata
     id="metadata4">
    <rdf:RDF>
      <cc:Work
         rdf:about="">
        <dc:format>image/svg+xml</dc:format>
        <dc:type
           rdf:resource="http://purl.org/dc/dcmitype/StillImage" />
        <dc:title></dc:title>
      </cc:Work>
    </rdf:RDF>
  </metadata>
  <g
     inkscape:label="Layer 1"
     inkscape:groupmode="layer"
     id="layer1">
    <g
       id="g3081"
       transform="matrix(0.13938482,0,0,-0.13938482,28.640503,887.24221)"
       style="fill:none;stroke:#000000">
      <path
         id="path3085"
         d="m 2305,4409 c -218,-71 -453,-181 -482,-225 -49,-75 -165,-404 -223,-633 -11,-45 -7,-51 109,-190 53,-63 123,-147 156,-187 86,-103 315,-414 429,-584 128,-189 119,-181 148,-136 27,42 35,44 47,13 5,-13 16,-28 24,-35 13,-11 27,5 94,105 185,275 393,553 568,758 168,198 177,211 165,255 -49,194 -154,500 -206,602 -8,15 -24,37 -37,49 -49,46 -293,155 -479,213 l -88,28 -30,-22 -30,-21 -29,20 c -35,25 -26,26 -136,-10 z"
         inkscape:connector-curvature="0"
         style="stroke:#000000;fill:none" />
      <path
         id="path3087"
         d="m 1417,4236 c -59,-22 -104,-62 -131,-120 -43,-92 -28,-121 33,-62 43,42 83,56 126,45 41,-12 55,-34 55,-91 0,-59 -23,-107 -84,-175 -25,-28 -46,-55 -46,-59 1,-5 20,-31 44,-58 l 42,-48 60,66 c 63,68 115,160 135,236 15,56 5,145 -20,186 -41,68 -141,105 -214,80 z"
         inkscape:connector-curvature="0"
         style="stroke:#000000;fill:none" />
      <path
         id="path3089"
         d="m 3434,4240 c -23,-3 -58,-18 -78,-34 -56,-42 -71,-79 -71,-171 0,-73 4,-87 39,-160 33,-67 56,-96 156,-195 65,-63 127,-123 140,-134 279,-231 419,-385 488,-534 20,-43 27,-78 30,-144 6,-123 -3,-167 -48,-237 l -40,-61 42,-75 c 23,-42 47,-74 53,-72 22,7 101,118 123,174 28,69 52,186 52,252 0,26 -9,82 -19,123 -55,215 -218,417 -516,639 -253,188 -345,293 -345,392 0,60 11,82 50,95 42,15 86,0 132,-45 47,-46 67,-36 48,24 -20,60 -60,112 -104,137 -51,29 -79,35 -132,26 z"
         inkscape:connector-curvature="0"
         style="stroke:#000000;fill:none" />
      <path
         id="path3091"
         d="m 1037,3849 c -98,-15 -174,-80 -237,-202 -47,-91 -54,-158 -21,-198 15,-19 21,-21 24,-9 45,141 86,203 161,243 93,47 223,10 296,-86 70,-91 86,-200 55,-364 -28,-145 -52,-189 -281,-512 -59,-84 -94,-142 -92,-155 3,-21 76,-71 118,-81 22,-5 30,2 62,52 20,32 75,119 123,193 194,300 254,469 241,680 -6,91 -27,175 -59,236 -30,56 -119,132 -197,167 -86,39 -125,47 -193,36 z"
         inkscape:connector-curvature="0"
         style="stroke:#000000;fill:none" />
      <path
         id="path3093"
         d="m 3804,3849 c -44,-8 -164,-64 -164,-77 1,-4 29,-28 64,-54 l 64,-47 38,20 c 50,26 117,20 179,-17 74,-43 108,-96 152,-234 3,-12 9,-10 24,9 32,39 25,102 -22,198 -76,154 -197,227 -335,202 z"
         inkscape:connector-curvature="0"
         style="stroke:#000000;fill:none" />
      <path
         id="path3095"
         d="M 1090,3564 C 852,3382 690,3169 639,2972 c -24,-96 -24,-176 1,-276 28,-109 62,-174 130,-248 173,-188 478,-262 922,-223 108,9 232,16 275,14 91,-5 113,-17 181,-107 99,-132 119,-278 81,-607 -10,-87 -59,-286 -81,-329 -84,-166 -229,-255 -323,-197 l -31,18 -69,-34 c -38,-18 -74,-38 -79,-43 -6,-6 9,-28 40,-59 64,-64 131,-85 250,-79 71,4 89,9 139,39 69,41 173,158 210,237 62,129 84,215 131,502 25,155 37,332 30,465 -6,129 -6,131 -65,280 l -60,150 -119,62 c -66,34 -139,73 -162,88 -46,29 -73,80 -85,158 -6,47 -6,47 22,47 16,0 46,-9 67,-21 21,-11 40,-18 43,-16 14,15 -259,369 -291,375 -16,4 -16,2 -2,-27 43,-82 41,-198 -5,-262 -28,-40 -45,-37 -21,4 11,17 23,46 27,64 6,32 6,32 -27,27 -63,-11 -122,64 -134,170 -4,31 -10,56 -14,56 -14,0 -117,-117 -145,-164 -78,-134 -59,-344 42,-471 34,-43 47,-44 63,-5 25,60 134,114 182,89 44,-23 58,-41 58,-79 0,-47 -12,-62 -85,-99 -95,-48 -253,-73 -420,-67 -130,5 -188,19 -293,69 -82,39 -136,92 -182,177 -30,57 -35,76 -38,156 -6,132 8,184 79,295 67,102 164,207 306,331 l 92,80 -19,38 c -18,35 -64,81 -79,79 -3,0 -44,-29 -91,-65 z"
         inkscape:connector-curvature="0"
         style="stroke:#000000;fill:none" />
      <path
         id="path3097"
         d="m 3474,3548 c -14,-41 -18,-84 -18,-188 0,-119 3,-145 27,-220 39,-123 106,-247 260,-486 231,-358 268,-447 269,-634 0,-131 -15,-189 -75,-283 -32,-49 -116,-128 -148,-139 -17,-6 19,-168 38,-168 55,0 182,107 257,218 25,37 58,101 73,142 27,71 28,84 28,240 -1,161 -2,167 -33,248 -56,149 -192,380 -336,572 -153,204 -200,320 -200,495 -1,53 5,99 12,112 11,20 7,26 -58,82 -39,34 -72,61 -74,61 -3,0 -12,-24 -22,-52 z"
         inkscape:connector-curvature="0"
         style="stroke:#000000;fill:none" />
      <path
         id="path3099"
         d="m 3303,3146 c -2,-99 -66,-183 -130,-171 -28,5 -33,3 -33,-13 0,-10 11,-40 24,-66 26,-52 13,-57 -20,-8 -39,57 -38,176 2,253 14,27 13,29 -5,29 -13,0 -40,-26 -78,-76 -119,-156 -216,-295 -210,-301 2,-1 21,6 42,17 55,28 83,26 91,-6 9,-37 -20,-125 -52,-155 -14,-13 -91,-58 -171,-99 l -145,-75 -60,-150 -61,-150 -4,-125 c -5,-129 9,-336 32,-475 24,-143 46,-270 51,-284 3,-9 18,-1 48,27 24,22 58,48 76,57 25,13 31,21 27,38 -18,73 -39,333 -34,417 11,171 76,315 174,379 43,29 53,31 136,31 49,0 164,-7 256,-16 179,-17 300,-14 462,11 87,14 189,41 189,50 0,18 -44,116 -59,132 -19,20 -20,20 -113,2 -104,-21 -217,-24 -301,-9 -31,6 -82,14 -112,20 -64,11 -156,51 -185,80 -24,24 -27,76 -5,106 24,35 67,48 112,33 52,-16 98,-54 113,-89 7,-17 18,-30 25,-30 20,0 93,116 110,174 17,57 22,182 10,236 -4,19 -23,62 -42,95 -35,61 -129,165 -148,165 -5,0 -11,-24 -12,-54 z"
         inkscape:connector-curvature="0"
         style="stroke:#000000;fill:none" />
      <path
         id="path3101"
         d="m 807,2333 c -2,-5 -15,-39 -28,-78 -22,-63 -24,-87 -24,-235 0,-161 1,-167 31,-242 60,-147 190,-294 312,-350 112,-52 216,-78 313,-78 48,0 90,3 92,8 2,4 2,42 -1,85 l -4,77 -68,0 c -101,0 -233,45 -334,114 -48,32 -97,93 -120,147 -10,24 -22,51 -26,60 -35,69 -37,254 -3,359 9,30 17,58 18,62 0,7 -132,78 -146,78 -4,0 -10,-3 -12,-7 z"
         inkscape:connector-curvature="0"
         style="stroke:#000000;fill:none" />
      <path
         id="path3103"
         d="m 2906,2200 c -40,-20 -95,-76 -96,-96 0,-6 22,-14 48,-18 73,-9 175,-64 301,-159 63,-48 120,-87 127,-87 7,0 22,19 33,43 11,23 29,56 40,73 l 21,31 -79,72 c -49,43 -85,85 -92,105 -14,40 -26,44 -168,51 -83,5 -101,3 -135,-15 z"
         inkscape:connector-curvature="0"
         style="stroke:#000000;fill:none" />
      <path
         id="path3105"
         d="m 1754,2202 c -6,-4 -19,-24 -29,-45 -11,-23 -50,-65 -98,-105 -165,-138 -287,-255 -335,-320 -72,-100 -77,-110 -57,-132 15,-16 113,-50 146,-50 8,0 26,20 41,44 42,66 197,210 349,323 147,111 237,159 312,169 54,8 58,19 21,64 -45,53 -70,60 -211,60 -70,0 -133,-4 -139,-8 z"
         inkscape:connector-curvature="0"
         style="stroke:#000000;fill:none" />
      <path
         id="path3107"
         d="m 1185,2100 c -17,-5 -44,-23 -60,-40 -28,-30 -30,-36 -30,-115 0,-75 3,-87 23,-107 23,-23 23,-23 38,-4 8,11 14,37 14,59 0,52 13,73 54,87 49,16 107,-2 152,-46 l 35,-36 56,48 56,48 -35,32 c -65,59 -225,98 -303,74 z"
         inkscape:connector-curvature="0"
         style="stroke:#000000;fill:none" />
      <path
         id="path3109"
         d="m 3592,2095 c -114,-32 -178,-90 -240,-217 -35,-72 -82,-223 -82,-265 0,-17 81,-53 121,-53 24,0 29,4 29,24 0,47 42,193 73,251 62,117 141,169 219,146 45,-14 68,-54 68,-116 0,-28 4,-35 20,-35 47,0 68,132 31,200 -10,19 -32,43 -49,53 -42,25 -125,30 -190,12 z"
         inkscape:connector-curvature="0"
         style="stroke:#000000;fill:none" />
      <path
         id="path3111"
         d="m 2071,2049 c -24,-5 -46,-11 -49,-14 -3,-3 -6,-38 -7,-78 -1,-103 -29,-168 -108,-247 -38,-38 -89,-77 -132,-99 -67,-35 -70,-39 -69,-71 3,-73 17,-140 30,-140 21,0 156,73 206,111 25,19 98,82 162,140 l 117,104 -6,65 c -8,83 -33,189 -51,218 -15,24 -24,25 -93,11 z"
         inkscape:connector-curvature="0"
         style="stroke:#000000;fill:none" />
      <path
         id="path3113"
         d="m 2776,2038 c -20,-31 -36,-96 -47,-198 l -10,-85 34,-30 c 19,-16 78,-69 131,-117 117,-105 191,-156 289,-196 85,-36 219,-62 317,-62 85,0 95,10 76,74 -25,81 -36,92 -107,100 -169,17 -326,84 -421,180 -83,82 -111,146 -113,250 -2,89 -1,87 -87,100 -42,6 -48,5 -62,-16 z"
         inkscape:connector-curvature="0"
         style="stroke:#000000;fill:none" />
      <path
         id="path3115"
         d="m 3518,1808 c -27,-53 -48,-109 -48,-130 0,-11 11,-34 24,-51 65,-86 116,-201 116,-260 0,-87 -73,-191 -155,-223 -39,-15 -46,-22 -55,-58 -6,-22 -17,-58 -25,-78 -16,-42 -15,-43 37,-53 26,-5 58,-1 107,14 124,38 206,138 250,305 12,44 21,92 21,106 0,42 -39,178 -67,233 -45,89 -153,227 -178,227 -6,0 -18,-15 -27,-32 z"
         inkscape:connector-curvature="0"
         style="stroke:#000000;fill:none" />
      <path
         id="path3117"
         d="m 1561,1713 c -45,-39 -52,-50 -47,-72 3,-14 11,-114 16,-221 5,-107 14,-208 18,-225 10,-36 31,-36 110,3 l 53,26 -6,40 c -3,23 -12,113 -20,201 -16,171 -41,295 -59,295 -6,0 -35,-21 -65,-47 z"
         inkscape:connector-curvature="0"
         style="stroke:#000000;fill:none" />
      <path
         id="path3119"
         d="m 2042,1369 c -65,-8 -152,-51 -287,-143 -117,-79 -228,-106 -294,-72 -38,20 -109,99 -117,131 -4,16 -17,31 -33,37 -48,19 -144,39 -152,31 -11,-13 30,-153 63,-216 63,-118 181,-187 317,-187 48,0 72,8 166,54 61,30 133,74 160,97 66,56 159,99 212,99 41,0 42,0 63,57 35,93 36,109 8,116 -12,4 -27,6 -33,6 -5,-1 -38,-5 -73,-10 z"
         inkscape:connector-curvature="0"
         style="stroke:#000000;fill:none" />
      <path
         id="path3121"
         d="m 2771,1368 c -131,-37 -244,-182 -258,-331 -14,-155 75,-301 191,-314 49,-6 74,13 40,31 -10,6 -39,31 -64,56 -114,114 -84,291 63,365 97,48 185,31 324,-64 33,-22 65,-41 70,-41 11,0 53,106 53,133 0,20 -41,51 -146,111 -61,34 -97,48 -150,56 -80,11 -78,11 -123,-2 z"
         inkscape:connector-curvature="0"
         style="stroke:#000000;fill:none" />
      <path
         id="path3123"
         d="m 3240,1322 c 0,-52 -39,-214 -62,-255 -75,-134 -222,-107 -350,63 l -26,35 -47,-24 c -61,-32 -91,-74 -77,-106 22,-47 131,-161 188,-195 56,-34 62,-35 159,-35 59,0 116,6 138,14 86,30 158,124 200,261 23,75 47,190 47,228 0,17 -32,28 -107,36 l -63,7 0,-29 z"
         inkscape:connector-curvature="0"
         style="stroke:#000000;fill:none" />
      <path
         id="path3125"
         d="m 2337,1130 c -22,-54 -26,-73 -18,-89 15,-26 14,-94 -1,-145 -12,-39 -80,-118 -122,-142 -34,-18 -9,-37 40,-31 116,13 205,159 191,313 -6,59 -41,164 -56,164 -3,0 -19,-31 -34,-70 z"
         inkscape:connector-curvature="0"
         style="stroke:#000000;fill:none" />
    </g>
  </g>
</svg>
