<?xml version="1.0" encoding="UTF-8" standalone="no"?>
<svg
   xmlns:dc="http://purl.org/dc/elements/1.1/"
   xmlns:cc="http://creativecommons.org/ns#"
   xmlns:rdf="http://www.w3.org/1999/02/22-rdf-syntax-ns#"
   xmlns:svg="http://www.w3.org/2000/svg"
   xmlns="http://www.w3.org/2000/svg"
   xmlns:sodipodi="http://sodipodi.sourceforge.net/DTD/sodipodi-0.dtd"
   xmlns:inkscape="http://www.inkscape.org/namespaces/inkscape"
   version="1.0"
   width="800.000000pt"
   height="813.000000pt"
   viewBox="0 0 800.000000 813.000000"
   preserveAspectRatio="xMidYMid meet"
   id="svg2"
   inkscape:version="0.48.5 r10040"
   sodipodi:docname="leftshark_full.svg">
  <defs
     id="defs20" />
  <sodipodi:namedview
     pagecolor="#ffffff"
     bordercolor="#666666"
     borderopacity="1"
     objecttolerance="10"
     gridtolerance="10"
     guidetolerance="10"
     inkscape:pageopacity="0"
     inkscape:pageshadow="2"
     inkscape:window-width="1440"
     inkscape:window-height="900"
     id="namedview18"
     showgrid="false"
     inkscape:zoom="0.46445264"
     inkscape:cx="-246.1403"
     inkscape:cy="605.39581"
     inkscape:window-x="-8"
     inkscape:window-y="-8"
     inkscape:window-maximized="1"
     inkscape:current-layer="g6" />
  <metadata
     id="metadata4">
Created by potrace 1.11, written by Peter Selinger 2001-2013
<rdf:RDF>
  <cc:Work
     rdf:about="">
    <dc:format>image/svg+xml</dc:format>
    <dc:type
       rdf:resource="http://purl.org/dc/dcmitype/StillImage" />
    <dc:title></dc:title>
  </cc:Work>
</rdf:RDF>
</metadata>
  <g
     transform="translate(0.000000,813.000000) scale(0.100000,-0.100000)"
     fill="#000000"
     stroke="none"
     id="g6">
    <path
       style="fill:none;stroke:#ff0000;stroke-width:1"
       d="m 547.25,19 c -1.625,0.125 -7.375,0.5 -12.875,1 -11.625,1 -13.125,1.375 -25.625,6.625 -9.75,4.125 -15.375,7.5 -14.25,8.75 1,1 -5.375,5 -6.625,4.25 -1.25,-0.75 -19.375,11.875 -28.5,19.75 -9.125,7.875 -29.5,26.875 -28.875,26.875 0.125,0 -5.375,5.875 -12.25,13 -17.875,18.5 -23.375,24.5 -27.625,30 -2,2.75 -4.875,6.125 -6.25,7.75 -1.375,1.5 -3.375,4 -4.375,5.625 -1,1.5 -2.875,3.875 -4.125,5.125 -1.25,1.25 -3.75,5 -5.5,8.25 -1.75,3.25 -3.625,6.125 -4,6.5 -1.375,1.125 -8.875,12.875 -8.875,14 0,0.5 -1.125,1 -2.625,1 -1.875,0 -2.375,0.625 -1.875,1.875 0.375,1 -0.125,2.25 -1,2.75 -2.375,1.375 -7.125,11.625 -6.125,13.25 0.375,0.75 0.125,0.875 -0.5,0.5 -1.25,-0.75 -2.625,1 -2.5,2.875 0,0.375 -2.25,4.375 -5.125,8.875 -2.875,4.5 -5.25,9 -5.25,10 0,0.875 -1.75,5.375 -4,9.875 -2.125,4.5 -4.375,9.25 -4.875,10.625 -0.375,1.375 -3.875,9 -7.75,16.875 -4.75,9.875 -7.125,16.5 -7.625,21.25 -0.375,3.75 -1.875,10 -3.25,13.75 -1.375,3.75 -2.5,8 -2.5,9.375 0,1.5 -0.5,3.125 -1.125,3.75 -0.75,0.75 -1.5,2.625 -1.75,4.375 -0.25,1.75 -0.875,4.125 -1.5,5.375 -0.5,1.25 -1,3.875 -1.125,5.875 -0.125,2 -0.625,4 -1.125,4.5 -0.5,0.5 -0.875,2.25 -0.875,3.875 0,1.75 -0.75,2.875 -2,2.875 -1,0 -1.625,-0.5 -1.25,-1.125 0.875,-1.25 -10.375,-12.5 -14.875,-14.875 -1.875,-0.875 -2.75,-2.25 -2.375,-3.375 0.5,-1.125 0,-1.875 -1.125,-1.875 -1.125,0 -2.375,-1.125 -2.75,-2.5 -0.375,-1.375 -1.25,-2.5 -1.75,-2.5 -0.5,0 -4.625,-3.5 -9.125,-7.875 -18.25,-17 -21.125,-19.625 -22.125,-19.625 -0.625,0 -2,-1.25 -3,-2.875 -2.875,-4.25 -10.75,-12.125 -12.125,-12.125 -0.625,0 -1.25,-0.625 -1.25,-1.5 0,-0.75 -0.375,-1 -0.75,-0.625 -0.875,0.875 -5.5,-3.75 -5.5,-5.5 0,-0.5 -0.75,-1.125 -1.625,-1.375 -0.875,-0.25 -5.75,-4.875 -10.75,-10.375 -5.125,-5.5 -11.875,-11.75 -15,-14 -3.125,-2.25 -6.375,-4.625 -7.25,-5.375 -0.875,-0.625 -1.875,-1.25 -2.25,-1.25 -0.5,0 -1.625,-0.875 -2.625,-1.875 -1.125,-1 -1.625,-1.875 -1.25,-1.875 0.375,0 -1.375,-1.875 -3.875,-4.25 -10.5,-9.5 -15.375,-14.5 -15.375,-15.75 0,-0.625 -0.625,-1.25 -1.25,-1.25 -0.75,0 -3,-1.625 -4.875,-3.625 -2,-2 -4,-3.375 -4.375,-3 -0.375,0.5 -0.75,0.125 -0.75,-0.75 0,-1.875 -3.125,-5.125 -4.875,-5.125 -0.75,0 -1.375,-0.625 -1.375,-1.375 0,-1 -0.5,-1 -1.75,0 -1.375,1.125 -1.875,1.125 -2.25,0 -0.5,-1.5 -10.125,-2 -13.5,-0.875 -1,0.375 -3.125,1.125 -4.625,1.625 -1.625,0.5 -2.875,1.5 -2.875,2.125 0,0.625 0.625,0.75 1.5,0.25 0.875,-0.5 1,-0.375 0.5,0.625 -0.5,0.75 -1.875,1.25 -3,1.125 -1.125,-0.25 -2.75,1 -3.5,2.75 -2.375,4.625 -3.5,14.625 -1.875,15.625 0.75,0.375 1.125,1.25 0.75,1.875 -0.375,0.625 0,2.5 0.875,4 0.875,1.625 1.625,3.125 1.625,3.5 0.5,2.25 6.5,13.625 7,13.25 0.375,-0.375 0.75,0.625 0.75,2.125 0.125,1.5 0.875,2.875 1.625,3.125 0.625,0.25 1.25,1.125 1.25,2.125 0,0.875 0.875,2.25 1.875,3.125 1,0.875 1.625,2 1.25,2.5 -0.875,1.375 2,7.5 3.375,7.5 0.5,0 1,1.125 1,2.5 0,1.375 1.125,3.625 2.5,5 1.375,1.375 2.5,3.375 2.5,4.375 0,2.25 6.75,15.25 9.375,18.125 1,1.125 1.5,2.375 1.125,2.75 -0.375,0.375 0.625,3.125 2.25,6 1.625,3 3.375,6.375 4.125,7.625 0.625,1.375 1.625,2.375 2.125,2.375 0.625,0 1,1.125 1,2.625 0,3.625 2.375,7.625 4,6.625 0.875,-0.625 1,-0.25 0.375,0.625 -0.75,1.375 2.375,9.625 4.5,11.375 0.375,0.375 1.625,2.875 2.625,5.625 1.125,2.75 2.75,4.875 3.5,4.625 0.75,-0.125 1.125,0.25 0.75,0.875 -0.875,1.375 1.75,7.625 3.25,7.625 0.5,0 1,1.375 1,3.125 0,1.75 0.625,3.125 1.25,3.125 0.75,0 1.25,1 1.25,2.25 0,1.25 0.5,2.75 1.125,3.5 2,2.125 8.875,15.625 7.625,14.875 -0.75,-0.375 -1.25,-0.25 -1.25,0.5 0,0.625 0.75,1.75 1.625,2.25 1,0.5 2.75,2.5 4,4.375 1.125,1.875 2.75,3.125 3.5,2.625 0.75,-0.375 0.875,-0.125 0.375,0.75 -0.5,0.75 -0.25,2.25 0.5,3.25 0.875,1 1.25,1.875 0.75,1.875 -0.5,0 0,1.625 1.125,3.75 1.125,2 2.25,3.75 2.625,3.75 0.375,0 0.25,-0.625 -0.25,-1.5 -0.5,-0.875 -0.375,-1 0.5,-0.5 0.75,0.5 1.125,1.625 0.75,2.5 -0.875,2.25 3.875,10.25 5.875,9.75 1.125,-0.25 1.25,0 0.25,1.25 -1,1.25 -0.625,2.875 1.625,6.625 4,6.625 7.25,13.5 7,14.625 -0.125,0.625 0.25,1 0.75,1 0.625,0 2.125,2.25 3.375,5 1.25,2.75 2.625,4.75 3.125,4.375 0.5,-0.25 0.875,0.125 0.875,1 0,2 7.75,15 9.625,16.125 0.75,0.5 1.375,1.625 1.375,2.5 0.125,0.875 0.75,1.5 1.625,1.375 0.875,-0.25 1.375,0 1.25,0.625 -0.5,1.75 1.75,6.5 2.75,5.875 0.625,-0.375 1.375,1.125 1.875,3.25 0.625,2.5 1.5,3.625 2.5,3.125 1.25,-0.375 1.5,0 1,1.375 -0.5,1.375 -0.25,1.75 0.625,1.125 0.875,-0.5 1.25,-0.25 0.875,0.875 -0.375,0.875 0.625,3.125 2.375,5 1.75,1.875 2.75,3.375 2.25,3.375 -0.5,0 0,0.75 1,1.625 1,0.875 2.75,3.5 3.875,5.875 1.125,2.375 4.125,7 6.5,10.25 2.5,3.25 6,8.75 7.75,12.25 1.75,3.375 3.75,6.25 4.375,6.25 0.625,0 0.875,0.75 0.5,1.625 -0.75,2 3.75,7.5 5,6.25 0.5,-0.5 0.5,0 0,1.25 -0.375,1.125 -0.25,2.125 0.25,2.125 0.625,0 1.875,1.875 2.875,4 2.375,5.625 5.875,9.875 7,8.75 0.625,-0.5 0.625,-0.125 0,0.75 -1.125,2.125 1.75,8 3.5,6.875 0.75,-0.5 0.875,-0.125 0.375,0.75 -0.625,0.875 1.5,6.5 4.75,13.25 3.125,6.375 5.75,12.625 5.75,13.75 0,1.375 0.625,1.875 1.75,1.5 1.25,-0.5 1.625,-0.125 1.25,0.875 -0.625,1.75 4,16.625 6.125,19.125 0.625,0.875 0.75,1.625 0.25,1.625 -0.5,0 -0.25,0.75 0.5,1.625 0.75,1 1,2 0.75,2.375 -0.375,0.375 0,2.25 0.75,4.25 5.125,13.125 7.5,77.875 5,135.5 -0.75,18.25 -1.5,39.25 -1.5,46.875 -0.125,7.5 -0.625,19.625 -1.25,26.875 -0.625,7.25 -1.375,17 -1.75,21.875 -1.25,16.25 -2,23.75 -2.5,25.625 -0.875,3.25 -4.25,45 -4.875,61.25 -2.375,54.5 -2.375,52.25 0.375,56.625 3.125,5.25 11,9.125 19.5,9.875 2.125,0.125 4.375,0.625 5,1.125 0.75,0.5 3.75,1.25 6.875,1.625 3.125,0.5 9.25,1.25 13.75,2 4.5,0.625 19.625,0.875 33.75,0.75 43.875,-0.75 61,-4.5 62.875,-14 0.75,-4.25 -1.125,-12.375 -4.375,-18.875 -2.625,-5.25 -13.875,-17.875 -15.875,-17.875 -0.5,0 -2.375,-1.125 -4,-2.5 -1.625,-1.375 -3.5,-2.875 -4.25,-3.5 -0.625,-0.5 -2.25,-1.375 -3.375,-1.75 -1.125,-0.5 -4.375,-2.25 -7.25,-4.125 l -5.125,-3.25 0.875,-14 c 1,-17.5 1.125,-18.625 2,-20.875 0.75,-1.75 4.25,-19.375 5.625,-28.125 0.25,-2.125 1,-4.875 1.5,-6.25 2,-5.25 10.75,-32.5 10.75,-33.75 0,-0.625 0.625,-2 1.25,-3 0.5,-1 1.875,-5 2.75,-8.75 1,-3.875 1.875,-7.625 2,-8.25 0.25,-0.75 1.125,-2.625 2.125,-4.375 1,-1.75 1.875,-3.75 2,-4.5 0.25,-1.625 1.375,-4.125 10,-23 3.25,-7.25 6.75,-13.875 7.625,-14.75 0.875,-0.875 1.625,-2.375 1.625,-3.25 0,-1 0.875,-2.375 1.875,-3.25 1,-0.875 1.625,-1.875 1.375,-2.375 -0.25,-0.375 0.875,-2.5 2.5,-4.5 l 3,-3.75 2.5,3.125 c 1.375,1.75 2.5,3.75 2.5,4.625 0,0.75 0.75,2.25 1.625,3.125 2.5,2.625 10.875,15.875 10.875,17.125 0,0.625 0.375,1.375 1,1.625 1.25,0.5 6.5,8.125 6.5,9.5 0,0.625 1.125,2.125 2.5,3.375 1.375,1.25 2.5,3.25 2.5,4.5 0,1.125 0.375,2.375 1,2.625 0.5,0.25 2.375,3.125 4.125,6.625 1.75,3.375 3.75,6.125 4.375,6 0.625,-0.125 1.25,1.125 1.25,2.625 0.125,1.625 1.625,5 3.25,7.75 1.75,2.625 5.25,9.125 7.875,14.25 2.75,5.125 5.375,9.75 6,10.125 0.625,0.375 1,1.125 0.75,1.625 -0.375,1.25 6.75,16.25 8,16.75 0.5,0.25 0.875,1.25 0.875,2.25 0,2.75 15.125,33.125 16.125,32.5 0.5,-0.375 0.875,0.5 1,1.75 0.125,1.125 3,7.25 6.5,13.375 3.5,6.125 6.375,11.75 6.375,12.625 0,0.875 0.5,1.5 1,1.5 0.625,0 2.625,3.375 4.75,7.625 2,4.25 4.5,8.25 5.625,9.125 1.125,0.75 2.125,1.75 2.125,2.375 0.5,3.375 7.125,15 20.75,36.25 4.875,7.5 8.875,10.25 19.5,13.25 3.125,0.875 6.75,2.125 8.125,2.625 2.875,1.125 20.75,4.375 35,6.375 5.5,0.75 21.25,1.5 35,1.625 40.875,0.25 66.75,-2.375 71.5,-7.125 2.375,-2.25 3.875,-13.375 1.875,-13.375 -0.75,0 -1.125,-0.75 -0.75,-1.625 0.25,-0.875 -1.25,-4.25 -3.375,-7.5 -3.5,-5.375 -6.25,-8 -19.125,-18.875 -2,-1.625 -9.625,-5.875 -16.875,-9.5 -7.25,-3.5 -14.25,-6.875 -15.375,-7.625 -1.25,-0.625 -3.25,-1.125 -4.5,-1.125 -1.25,0 -2.75,-0.5 -3.375,-1 -0.75,-0.625 -3.75,-1.75 -6.875,-2.625 -10.625,-3.125 -11.875,-4 -17.5,-12.375 -3,-4.625 -5.875,-8.625 -6.375,-9 -0.375,-0.375 -2.25,-3.25 -4.125,-6.625 -2,-3.25 -4.125,-5.5 -4.75,-5 -0.875,0.375 -1,0.125 -0.5,-0.625 0.75,-1.25 -3.25,-10.5 -5.5,-12.75 -0.375,-0.375 -1.25,-2 -2,-3.75 -0.875,-1.75 -3.125,-6.75 -5.25,-11.25 -6.625,-14.375 -7.5,-16.75 -11.25,-27.75 -2,-6 -3.875,-10.75 -4.125,-10.5 -0.25,0.25 -0.625,-1.125 -0.75,-3.125 -0.125,-2 -1.375,-7.5 -2.75,-12.125 -1.375,-4.625 -2.75,-9.75 -3.125,-11.5 -0.375,-1.75 -1.25,-6 -2,-9.375 -0.75,-3.5 -1.875,-9.875 -2.5,-14.375 -0.625,-4.5 -1.875,-13.75 -3,-20.625 -3.75,-25.375 -6.25,-53.875 -8.5,-96.5 -0.125,-2.875 -0.625,-5 -1.25,-4.625 -0.5,0.375 -0.875,-21.75 -0.625,-49.125 0.25,-43.5 0.5,-49.75 2.125,-49.375 1.5,0.375 1.625,0.125 0.375,-1.125 C 611,555.5 610.75,552 612.5,553.125 c 1.25,0.75 1.875,-5.25 1.375,-11.5 -0.125,-1.625 0.625,-4.125 1.625,-5.75 1.125,-1.5 2.125,-4 2.375,-5.25 0.75,-3.875 2.25,-9.75 3,-11.875 1.375,-3.5 1.875,-5.625 2.125,-8.75 0.5,-4.625 2.125,-7.625 3.625,-6.625 0.75,0.5 1,0 0.5,-1.25 -0.5,-1.375 0.625,-4.25 2.75,-7.5 2.75,-3.875 3.375,-5.625 2.375,-6.875 -1,-1.125 -0.875,-1.375 0.5,-0.875 1.25,0.5 3.625,-1.875 7.25,-7.125 5.5,-7.875 9.125,-12.375 31.75,-39.75 6.625,-7.875 11.75,-15.125 11.375,-15.875 -0.25,-0.875 -0.125,-1.5 0.5,-1.25 1,0.25 9.375,-8.625 14.875,-15.875 1.5,-1.875 2.375,-4.125 1.875,-4.875 -0.375,-0.75 -0.125,-0.875 0.625,-0.375 1.25,0.75 12,-13 28.125,-35.75 6,-8.5 9.375,-12.75 13.75,-17.375 1.875,-2 3.375,-4.375 3.375,-5.5 0,-1 1.625,-3.625 3.625,-5.875 6.5,-7.5 22.625,-32.5 21.75,-33.75 -0.375,-0.75 -0.125,-1 0.625,-0.5 0.75,0.375 1.75,-0.5 2.25,-2 0.5,-1.625 1.25,-3.125 1.625,-3.5 2.375,-1.875 7.625,-11.5 6.875,-12.75 -0.5,-0.75 -0.375,-1 0.375,-0.625 0.625,0.375 2.25,-1.125 3.625,-3.375 7.125,-12.625 21.375,-35.625 25,-40.375 2.375,-3.125 4.625,-7.125 5,-8.875 0.75,-2.75 6.75,-14.5 11.75,-22.75 6.125,-10 8.75,-15 9.125,-17 0.125,-1.25 0.625,-3 1.125,-3.625 2.125,-3.5 9.5,-24.875 9,-26.375 -0.25,-1 -0.875,-2.75 -1.375,-4 -0.375,-1.125 -0.875,-2.5 -0.875,-3.125 -0.125,-0.5 -1.75,-2 -3.625,-3.25 -3.5,-2.25 -3.625,-2.25 -10.125,0.375 -3.5,1.5 -8.875,4.375 -11.625,6.375 -2.875,2.125 -9,6 -13.5,8.75 -4.625,2.75 -11.25,7.25 -14.75,10 -3.625,2.75 -8.875,6.625 -11.875,8.75 -3,2 -6.625,5.125 -8.125,7 -1.5,1.875 -5.5,5.125 -9,7.25 -3.375,2 -9,6.625 -12.375,10.125 -3.375,3.375 -6.625,6.25 -7.125,6.25 -1.375,0 -33.5,27.25 -37.625,31.875 -5.625,6.5 -43.625,43.5 -53.875,52.625 -12.625,11.125 -34.5,33.25 -34.625,34.875 0,1.875 -28.5,29.625 -29.125,28.5 -1.125,-2.375 3.125,-59.5 6,-80.125 1.875,-12.625 3,-23.25 2.625,-23.625 -0.375,-0.375 0,-1.625 0.875,-2.875 0.38521,-0.57781 0.66813,-1.91383 0.875,-4.03125 8e-5,-7.7e-4 0.0312,7.7e-4 0.0312,0 0.67139,-0.32471 1.5625,-1.125 2.34375,-2.21875 8.25,-10.75 12,-29.625 8.75,-44.625 -1.32713,-5.97207 -5.56933,-14.16948 -7.3125,-14.6875 0.001,-0.007 -0.001,-0.024 0,-0.0312 0.43098,-2.61364 0.82843,-13.69251 0.9375,-26.78125 0.375,-21 0,-28 -1.25,-30.125 -1.125,-2 -1.25,-3 -0.25,-3.375 1.375,-0.5 -0.875,-20 -2.75,-23.125 -0.5,-0.75 -1,-3.75 -1.125,-6.625 -0.375,-7.125 -1.875,-12 -3.625,-11 -0.875,0.5 -0.875,0.125 0.125,-0.875 1.25,-1.25 1,-2.375 -1,-5.25 -1.5,-2.125 -2.375,-4.75 -2,-6.125 0.375,-1.5 0,-2.75 -1.125,-3.25 -1,-0.375 -1.375,-1.125 -1,-1.875 0.875,-1.375 -1.75,-8.625 -3.75,-10.375 -0.875,-0.75 -3,-4.25 -5,-8 -4.75,-9.375 -11,-17.5 -13.25,-17.625 -1.5,0 -1.5,-0.25 -0.25,-1.125 1.25,-0.75 -0.25,-2.75 -5.5,-7.375 -4,-3.625 -7.875,-6.5 -8.75,-6.5 -0.75,0 -1.75,-0.875 -2.25,-1.875 -0.375,-1 -2,-1.75 -3.5,-1.625 z"
       transform="matrix(8,0,0,-8,0,8130)"
       id="path3018"
       inkscape:connector-curvature="0"
       sodipodi:nodetypes="ccccsssccccsscsscccscssccccsssscsssscccssscscssssscscscscssccssscsccssccccscccccsscsssscsccssccccccssssccscccccscsscccsccsscscccccccsccssssccscscsccccccscccscccccsscccccccccsssccccccccscccsccsssccccscsssssccscccsccsccssscccccccccscccccscccccccscccsssscscccccsccccccscccccccccccccsccccccccccccccccccccccsccscccccsccccccccccccsscccccccccscc" />
    <path
       style="fill:none;stroke:#000000;stroke-width:8"
       d="m 4448,7761 c 15,-20 35,-44 44,-55 9,-10 22,-32 29,-50 7,-17 16,-33 21,-36 4,-3 9,-16 11,-28 2,-12 6,-25 10,-28 4,-4 7,-22 7,-40 0,-18 5,-36 10,-39 6,-3 10,-17 10,-29 0,-21 20,-49 31,-43 2,1 1,-2 -3,-7 -10,-13 -10,-29 0,-23 4,3 8,-13 10,-36 1,-22 7,-47 13,-53 6,-7 8,-22 4,-34 -4,-12 -2,-20 5,-20 6,0 9,-4 6,-8 -5,-8 11,-157 19,-181 10,-27 20,-896 10,-923 -21,-61 -70,-433 -110,-853 -9,-93 -23,-190 -31,-215 -8,-25 -14,-57 -13,-70 0,-14 -4,-43 -10,-65 -14,-53 -14,-449 0,-499 19,-67 16,-282 -4,-355 -10,-35 -25,-70 -33,-78 -8,-8 -15,-23 -15,-34 -2,-27 -3,-30 -23,-71 -10,-20 -14,-42 -10,-49 4,-8 3,-9 -5,-5 -7,5 -19,-9 -32,-41 -12,-26 -31,-68 -42,-93 -11,-25 -18,-46 -16,-46 2,-1 -4,-10 -13,-20 -9,-11 -20,-31 -23,-46 -4,-16 -10,-28 -14,-28 -3,0 -12,-15 -20,-32 -7,-18 -22,-53 -34,-78 -26,-56 -41,-97 -46,-125 -2,-5 -9,-17 -17,-26 -8,-9 -14,-20 -13,-25 3,-12 -22,-65 -38,-82 -7,-7 -13,-22 -13,-33 0,-10 -5,-19 -11,-19 -5,0 -7,-5 -4,-10 3,-6 -1,-13 -9,-16 -9,-3 -16,-14 -16,-24 0,-9 -17,-44 -39,-77 -21,-33 -44,-75 -50,-95 -6,-19 -19,-43 -29,-54 -10,-10 -18,-22 -18,-26 1,-13 -98,-126 -114,-130 -14,-3 -70,55 -70,72 0,4 -9,10 -20,13 -11,3 -20,12 -20,21 0,9 -4,16 -9,16 -5,0 -12,8 -15,18 -4,9 -17,35 -30,57 -14,22 -25,48 -25,58 -1,10 -8,20 -16,23 -8,4 -13,10 -10,15 3,4 1,16 -4,26 -14,26 -24,57 -23,66 1,4 -3,7 -9,7 -5,0 -7,4 -4,10 3,5 -1,10 -10,10 -9,0 -13,4 -10,10 3,5 0,10 -7,10 -10,0 -10,2 -1,8 9,6 6,18 -12,49 -13,23 -26,56 -30,72 -4,17 -11,31 -16,31 -6,0 -7,5 -4,10 3,6 -3,23 -14,39 -12,16 -21,39 -21,50 0,12 -4,21 -10,21 -5,0 -10,9 -10,20 0,11 -4,20 -10,20 -5,0 -10,6 -10,13 0,17 -28,75 -40,82 -5,3 -16,30 -24,60 -9,29 -23,60 -30,68 -25,24 -96,170 -146,297 -12,30 -30,73 -40,95 -53,117 -60,181 -60,557 0,214 4,339 10,343 6,3 10,36 10,73 0,89 23,235 55,351 14,52 25,108 25,123 0,36 29,122 71,213 18,39 33,72 33,75 8,38 33,118 53,168 13,35 22,66 20,69 -3,2 6,29 19,59 13,30 24,57 24,62 0,4 7,29 16,55 9,26 13,54 10,62 -3,8 -1,15 3,15 5,0 8,12 6,26 -1,15 3,28 11,31 8,3 14,13 14,23 0,10 7,30 14,46 8,15 13,31 10,36 -3,4 0,8 6,8 7,0 10,7 6,15 -3,8 -1,15 3,15 11,0 31,56 24,64 -4,3 -1,6 5,6 6,0 14,16 18,35 3,19 10,35 14,35 8,0 38,66 38,84 0,5 4,12 9,15 10,6 63,110 63,122 0,7 60,109 70,119 3,3 12,18 20,35 24,47 91,158 107,177 8,9 12,22 7,29 -4,8 -3,10 4,5 14,-9 114,143 107,162 -3,7 0,10 6,7 9,-6 49,30 49,44 0,3 25,33 55,66 30,33 55,63 55,67 0,19 127,156 151,163 10,4 19,14 19,22 0,9 3,14 6,10 6,-5 18,2 46,29 22,20 68,3 96,-35 z"
       id="path3016" />
    <path
       style="fill:none;stroke:#000000;stroke-width:8"
       d="m 6600,6663 c -51,-120 -90,-197 -133,-267 -20,-33 -33,-64 -30,-69 4,-6 1,-7 -7,-2 -10,6 -12,4 -6,-11 4,-10 4,-15 0,-11 -8,7 -141,-203 -136,-216 1,-4 -3,-6 -9,-5 -6,2 -13,-4 -14,-14 -2,-9 -20,-40 -42,-70 -21,-29 -47,-70 -58,-91 -11,-21 -39,-64 -63,-95 -24,-31 -52,-74 -63,-95 -11,-21 -56,-94 -99,-163 -43,-68 -77,-124 -74,-124 2,0 -20,-24 -49,-52 -30,-29 -67,-73 -82,-98 -16,-25 -52,-71 -81,-104 -29,-32 -52,-64 -51,-70 1,-6 -3,-10 -10,-9 -6,1 -24,-14 -39,-35 -15,-20 -88,-112 -161,-204 -73,-92 -133,-172 -133,-178 0,-5 -3,-10 -8,-10 -4,0 -30,-29 -57,-65 -28,-37 -73,-94 -101,-128 -28,-34 -55,-72 -58,-84 -4,-13 -15,-23 -26,-23 -20,0 -122,105 -153,158 -10,17 -21,32 -24,32 -2,0 -1,-5 3,-12 4,-7 3,-8 -5,-4 -6,4 -9,12 -5,17 3,5 -6,25 -20,43 -14,18 -28,45 -32,60 -3,14 -9,26 -13,26 -4,0 -8,6 -8,13 0,6 -8,38 -17,69 -17,58 -21,114 -12,198 3,25 5,50 5,55 1,6 93,104 206,219 112,115 203,213 202,219 -1,6 3,11 9,12 19,0 85,69 79,83 -2,7 -1,11 4,8 11,-7 43,29 34,38 -5,4 -3,6 3,4 7,-1 88,74 181,167 276,277 491,481 598,565 22,17 44,38 48,46 4,7 48,42 97,76 144,100 155,109 153,119 -2,4 5,5 14,2 12,-5 14,-3 8,7 -5,8 -4,11 2,7 13,-8 65,27 56,38 -5,4 -3,5 4,2 6,-4 51,20 100,53 48,32 93,59 100,59 7,1 -4,-35 -27,-86 z"
       id="path3014" />
    <path
       style="fill:none;stroke:#000000;stroke-width:8"
       d="m 1060,6456 c 10,-8 13,-13 7,-9 -26,13 -11,-3 31,-33 24,-17 47,-28 51,-24 3,4 5,2 3,-4 -5,-18 51,-76 65,-68 7,4 9,4 5,-1 -5,-5 14,-23 41,-41 27,-18 51,-37 53,-41 1,-4 28,-27 58,-50 30,-23 69,-54 86,-70 60,-53 84,-73 90,-72 3,0 24,-23 46,-50 23,-28 58,-62 79,-77 21,-14 51,-43 66,-63 15,-20 34,-40 42,-45 9,-5 52,-47 96,-93 43,-47 96,-93 116,-104 21,-10 57,-43 81,-72 101,-124 145,-170 179,-187 41,-22 139,-128 154,-168 6,-15 24,-41 40,-58 17,-17 46,-52 65,-77 19,-26 41,-46 48,-47 7,0 11,-4 8,-9 -3,-5 13,-29 37,-54 94,-101 115,-126 133,-156 10,-17 27,-34 37,-37 28,-9 51,-65 43,-108 -4,-20 -11,-36 -16,-36 -6,0 -10,-5 -10,-11 0,-18 -104,-217 -119,-229 -3,-3 -13,-18 -21,-35 -8,-16 -24,-38 -35,-47 -11,-10 -27,-23 -35,-31 -8,-7 -33,-21 -55,-31 -22,-10 -53,-25 -68,-32 -27,-13 -30,-12 -75,34 -26,26 -58,70 -72,97 -14,27 -33,58 -42,69 -10,11 -18,24 -18,28 0,5 -11,21 -25,36 -14,15 -25,34 -25,44 0,9 -6,23 -13,30 -6,7 -21,30 -32,51 -11,20 -23,37 -27,37 -5,0 -8,6 -8,14 0,8 -7,21 -15,30 -9,8 -24,33 -34,56 -10,22 -21,37 -24,33 -4,-3 -7,3 -7,15 0,11 -7,27 -15,35 -8,8 -12,17 -9,19 2,3 -5,13 -16,23 -11,10 -20,27 -20,38 0,11 -3,17 -6,14 -4,-4 -14,7 -23,23 -9,16 -28,42 -43,59 -14,16 -24,32 -20,36 4,3 2,9 -4,13 -18,12 -54,70 -54,86 0,9 -3,16 -7,16 -9,0 -33,49 -33,67 0,7 -4,13 -10,13 -5,0 -10,6 -10,14 0,8 -6,16 -14,19 -7,3 -24,28 -36,56 -13,28 -28,47 -33,44 -6,-3 -7,-1 -3,5 8,14 -25,81 -41,82 -6,0 -9,9 -6,20 3,11 0,20 -6,20 -6,0 -11,9 -11,20 0,11 -4,20 -10,20 -5,0 -10,6 -10,13 0,7 -9,23 -20,35 -11,12 -20,26 -20,31 0,5 -11,22 -24,38 -13,15 -24,30 -24,33 -1,18 -26,58 -34,54 -5,-3 -8,-2 -6,3 4,16 -14,73 -23,73 -5,0 -9,7 -9,15 0,8 -4,15 -10,15 -5,0 -10,7 -10,15 0,9 -11,27 -24,40 -14,14 -35,47 -48,75 -13,27 -26,50 -30,50 -5,0 -8,11 -8,25 0,14 -4,25 -10,25 -5,0 -10,7 -10,15 0,9 -11,27 -25,41 -14,14 -28,36 -31,49 -3,14 -13,25 -22,25 -8,0 -12,3 -9,7 4,3 -5,16 -18,29 -14,13 -25,28 -25,34 0,5 -4,10 -10,10 -5,0 -10,9 -10,19 0,11 -3,21 -7,23 -14,6 -54,55 -57,69 -6,30 -19,49 -29,42 -5,-3 -7,-1 -4,4 4,6 0,16 -8,23 -16,13 -20,40 -7,40 5,0 17,-7 28,-16 z"
       id="path3012"
       inkscape:connector-curvature="0" />
    <path
       style="fill:none;stroke:#000000;stroke-width:8"
       d="m 3188,6414 c 147,-61 178,-257 57,-362 -47,-42 -78,-54 -140,-53 -69,1 -78,3 -119,31 -62,42 -90,93 -94,170 -5,75 14,124 65,172 59,56 156,74 231,42 z"
       id="path3010" />
    <path
       style="fill:none;stroke:#000000;stroke-width:8"
       d="m 2790,6158 c 0,-38 32,-133 66,-193 37,-67 104,-142 152,-171 41,-23 41,-36 1,-22 -94,32 -185,130 -218,233 -22,69 -36,159 -26,175 9,15 25,2 25,-22 z"
       id="path3008" />
    <path
       style="fill:none;stroke:#000000;stroke-width:8"
       d="m 2776,5892 c 41,-81 106,-147 179,-182 61,-29 69,-45 19,-36 -53,10 -128,52 -174,99 -61,60 -101,193 -84,274 l 7,38 8,-60 c 5,-36 23,-89 45,-133 z"
       id="path3006" />
    <path
       style="fill:none;stroke:#000000;stroke-width:8"
       d="m 2682,5850 c 28,-134 99,-221 223,-272 l 30,-12 -31,-4 c -61,-6 -180,64 -213,126 -24,46 -41,118 -41,178 0,57 12,97 18,57 1,-10 7,-43 14,-73 z"
       id="path3004" />
    <path
       style="fill:none;stroke:#000000;stroke-width:8"
       d="m 2653,5636 c 39,-82 77,-119 159,-153 l 53,-22 -36,-1 c -138,-1 -239,121 -239,288 0,67 14,75 21,13 4,-28 23,-84 42,-125 z"
       id="path3002" />
    <path
       style="fill:none;stroke:#000000;stroke-width:8"
       d="m 2593,5509 c 30,-69 82,-120 150,-148 l 52,-21 -58,3 c -45,3 -65,10 -95,33 -47,37 -89,122 -96,194 -6,53 -6,54 8,25 8,-16 26,-55 39,-86 z"
       id="path3000" />
    <path
       style="fill:none;stroke:#000000;stroke-width:8"
       d="m 2607,1753 c -3,-10 -5,-2 -5,17 0,19 2,27 5,18 2,-10 2,-26 0,-35 z"
       id="path8" />
    <path
       d="M3920 7835 c-11 -13 -10 -14 4 -9 9 3 16 10 16 15 0 13 -6 11 -20 -6z"
       id="path10"
       style="stroke-width:8" />
    <path
       d="M678 619 c-21 -12 -24 -59 -6 -77 7 -7 21 -12 33 -12 12 0 26 5 33 12 19 19 15 66 -7 78 -24 12 -31 12 -53 -1z"
       id="path12"
       style="stroke-width:8" />
    <path
       d="M838 413 c-22 -5 -35 -50 -21 -72 13 -20 50 -26 69 -11 21 18 18 67 -5 80 -11 5 -21 9 -23 9 -2 -1 -11 -3 -20 -6z"
       id="path14"
       style="stroke-width:8" />
    <path
       d="M463 390 c-16 -7 -23 -18 -23 -38 0 -33 16 -52 45 -52 12 0 26 5 33 12 19 19 15 66 -7 78 -22 11 -19 11 -48 0z"
       id="path16"
       style="stroke-width:8" />
    <g
       id="g3024"
       transform="translate(5.047257,0.03421)"
       style="fill:none;stroke:#000080;stroke-width:8">
      <path
         id="path3028"
         d="m 2999,6386 c -75,-52 -101,-183 -55,-282 80,-171 281,-95 280,106 -1,111 -58,188 -147,197 -33,3 -50,-1 -78,-21 z m 151,-65 c 14,-28 12,-57 -6,-75 -34,-34 -94,-9 -94,39 0,13 7,31 16,39 22,23 71,20 84,-3 z"
         inkscape:connector-curvature="0"
         style="fill:none;stroke:#000080;stroke-width:8" />
      <path
         id="path3030"
         d="m 2765,6180 c -10,-16 4,-106 26,-175 33,-103 124,-201 218,-233 40,-14 40,-1 -1,22 -48,29 -115,104 -152,171 -34,60 -66,155 -66,193 0,24 -16,37 -25,22 z"
         inkscape:connector-curvature="0"
         style="fill:none;stroke:#000080;stroke-width:8" />
      <path
         id="path3032"
         d="m 2716,6047 c -17,-81 23,-214 84,-274 46,-47 121,-89 174,-99 50,-9 42,7 -19,36 -111,54 -206,188 -224,315 l -8,60 -7,-38 z"
         inkscape:connector-curvature="0"
         style="fill:none;stroke:#000080;stroke-width:8" />
      <path
         id="path3034"
         d="m 4059,5993 c -41,-80 -78,-92 -110,-38 -26,43 -49,46 -49,5 0,-40 -19,-78 -43,-86 -14,-4 -29,4 -54,30 -20,20 -39,36 -44,36 -13,0 -29,-35 -29,-63 0,-50 -61,-74 -95,-37 -37,41 -95,10 -95,-51 0,-39 -23,-54 -64,-42 -23,7 -39,7 -52,0 -22,-12 -84,-77 -84,-88 0,-4 -16,-26 -35,-48 -41,-50 -38,-75 8,-65 45,9 61,22 83,63 24,45 56,52 72,16 13,-29 40,-33 48,-7 13,41 30,65 53,75 20,10 26,8 45,-16 22,-28 56,-29 56,-2 0,16 33,45 52,45 9,0 28,-13 41,-30 14,-16 30,-30 35,-30 5,0 17,18 27,40 29,64 79,66 108,5 9,-19 21,-35 26,-35 9,0 46,42 53,60 2,5 15,11 29,15 27,7 33,3 64,-40 14,-19 16,-19 52,23 39,43 76,55 87,27 8,-21 32,-19 54,5 19,20 52,19 52,-2 0,-5 10,-8 23,-7 12,1 33,-1 47,-4 14,-3 42,-9 63,-12 34,-5 37,-4 37,17 0,44 -12,68 -37,74 -16,5 -26,16 -30,36 -6,33 -30,48 -43,28 -13,-21 -38,-4 -45,30 -9,40 -30,48 -54,21 -10,-11 -24,-21 -30,-21 -21,0 -41,27 -41,54 0,39 -33,34 -56,-9 -10,-19 -23,-36 -29,-39 -19,-7 -47,22 -54,55 -8,42 -24,46 -42,12 z"
         inkscape:connector-curvature="0"
         style="fill:none;stroke:#000080;stroke-width:8" />
      <path
         id="path3036"
         d="m 2658,5934 c -23,-22 -1,-181 33,-246 33,-62 152,-132 213,-126 l 31,4 -30,12 c -142,59 -211,158 -237,345 -2,11 -6,15 -10,11 z"
         inkscape:connector-curvature="0"
         style="fill:none;stroke:#000080;stroke-width:8" />
      <path
         id="path3038"
         d="m 2598,5804 c -12,-11 -9,-99 4,-152 28,-115 120,-193 227,-192 l 36,1 -53,22 c -29,12 -69,35 -88,51 -44,35 -104,155 -113,227 -3,28 -9,47 -13,43 z"
         inkscape:connector-curvature="0"
         style="fill:none;stroke:#000080;stroke-width:8" />
      <path
         id="path3040"
         d="m 2546,5570 c 7,-72 49,-157 96,-194 30,-23 50,-30 95,-33 l 58,-3 -52,21 c -68,28 -120,79 -150,148 -13,31 -31,70 -39,86 -14,29 -14,28 -8,-25 z"
         inkscape:connector-curvature="0"
         style="fill:none;stroke:#000080;stroke-width:8" />
      <path
         id="path3042"
         d="m 678,619 c -21,-12 -24,-59 -6,-77 7,-7 21,-12 33,-12 12,0 26,5 33,12 19,19 15,66 -7,78 -24,12 -31,12 -53,-1 z"
         inkscape:connector-curvature="0"
         style="fill:none;stroke:#000080;stroke-width:8" />
      <path
         id="path3044"
         d="m 838,413 c -22,-5 -35,-50 -21,-72 13,-20 50,-26 69,-11 21,18 18,67 -5,80 -11,5 -21,9 -23,9 -2,-1 -11,-3 -20,-6 z"
         inkscape:connector-curvature="0"
         style="fill:none;stroke:#000080;stroke-width:8" />
      <path
         id="path3046"
         d="m 463,390 c -16,-7 -23,-18 -23,-38 0,-33 16,-52 45,-52 12,0 26,5 33,12 19,19 15,66 -7,78 -22,11 -19,11 -48,0 z"
         inkscape:connector-curvature="0"
         style="fill:none;stroke:#000080;stroke-width:8" />
      <path
         inkscape:connector-curvature="0"
         style="fill:none;stroke:#000080;stroke-width:8"
         d="m 4787.9156,6562.3293 c -1.263,0.1068 -2.4453,-0.5465 -3.2219,-1.8411 -2.7617,-4.6028 -8.285,-56.1537 -11.0467,-114.1485 -2.7616,-57.9948 -9.2055,-155.5733 -15.6493,-218.1708 -5.5234,-61.677 -7.3645,-115.9896 -3.6823,-119.6718 3.6823,-3.6822 14.7289,3.6822 23.9344,16.5699 60.7564,79.1675 88.373,218.1709 64.4387,328.6371 -10.0111,45.0496 -42.5647,107.5914 -54.7729,108.6252 z"
         id="path3026-9" />
    </g>
  </g>
</svg>
