<svg xmlns="http://www.w3.org/2000/svg" xmlns:xlink="http://www.w3.org/1999/xlink" version="1.1" id="Layer_1" x="0px" y="0px" width="90px" height="90px" viewBox="4.5 -9.0 90.0 121.5" enable-background="new 0 0 90 90" xml:space="preserve">
<path d="M45.677,77.286c0,0,55.638,0.735,28.489-22.071c-8.018-6.735-23.059-15.383-40.75-9.693  c-9.31,2.995-40.749,15.302-18.692,34.367C14.725,79.889,30.021,94.713,45.677,77.286z"/>
<path d="M10.591,53.126c3.377,1.385,9.253-2.958,9.345-11.215c0.03-2.647-0.677-9.888-7.103-7.851  C8.259,35.509-6.475,46.126,10.591,53.126z"/>
<path d="M28.158,42.371c3.379,1.38,9.258-2.958,9.345-11.216c0.028-2.646-0.693-9.936-7.103-7.851  C25.835,24.789,11.446,35.542,28.158,42.371z"/>
<path d="M77.863,35.62c-3.319,0.37-7.716,4.483-6.134,11.896c0.506,2.372,2.71,8.968,7.902,5.634  C83.338,50.768,96.18,33.576,77.863,35.62z"/>
<path d="M63.442,24.627c-3.678,0.41-8.545,4.963-6.793,13.171c0.56,2.627,3.003,9.93,8.75,6.235  C69.504,41.398,83.721,22.365,63.442,24.627z"/>
<path d="M46.849,19.652c-3.677,0.41-8.544,4.963-6.793,13.171c0.56,2.627,3.003,9.929,8.751,6.235  C52.91,36.422,67.128,17.389,46.849,19.652z"/>
<path d="M8.72,31.627c0,0,6.209,1.042,7.469-0.338c2.017-2.209-0.542-11.951-0.542-11.951S8.325,26.625,8.72,31.627z"/>
<path d="M26.756,20.542c0,0,6.206,1.06,7.47-0.316C36.25,18.023,33.72,8.273,33.72,8.273S26.375,15.539,26.756,20.542z"/>
<path d="M46.795,16.154c0,0,6.19,1.147,7.474-0.211c2.055-2.173-0.338-11.957-0.338-11.957S46.485,11.145,46.795,16.154z"/>
<path d="M71.553,20.944c0,0-6.262,0.649-7.433-0.808c-1.875-2.331,1.291-11.892,1.291-11.892S72.262,15.976,71.553,20.944z"/>
<path d="M83.626,31.992c0,0-5.055,0.524-5.999-0.652c-1.515-1.882,1.041-9.601,1.041-9.601S84.197,27.981,83.626,31.992z"/>
<text x="0.0" y="105.75" font-size="4.5" font-weight="bold" font-family="Helvetica Neue, Helvetica, Arial-Unicode, Arial, Sans-serif" fill="#000000">Created by Mattijs Dekkers</text><text x="0.0" y="110.25" font-size="4.5" font-weight="bold" font-family="Helvetica Neue, Helvetica, Arial-Unicode, Arial, Sans-serif" fill="#000000">from the Noun Project</text></svg>