<?xml version="1.0" encoding="UTF-8" standalone="no"?>
<!-- Created with Inkscape (http://www.inkscape.org/) -->

<svg
   xmlns:dc="http://purl.org/dc/elements/1.1/"
   xmlns:cc="http://creativecommons.org/ns#"
   xmlns:rdf="http://www.w3.org/1999/02/22-rdf-syntax-ns#"
   xmlns:svg="http://www.w3.org/2000/svg"
   xmlns="http://www.w3.org/2000/svg"
   xmlns:sodipodi="http://sodipodi.sourceforge.net/DTD/sodipodi-0.dtd"
   xmlns:inkscape="http://www.inkscape.org/namespaces/inkscape"
   id="svg3078"
   version="1.1"
   inkscape:version="0.48.2 r9819"
   width="1417.3228"
   height="1062.9921"
   sodipodi:docname="3737193419_6c8d08a9eb.jpg">
  <metadata
     id="metadata3084">
    <rdf:RDF>
      <cc:Work
         rdf:about="">
        <dc:format>image/svg+xml</dc:format>
        <dc:type
           rdf:resource="http://purl.org/dc/dcmitype/StillImage" />
        <dc:title></dc:title>
      </cc:Work>
    </rdf:RDF>
  </metadata>
  <defs
     id="defs3082" />
  <sodipodi:namedview
     pagecolor="#ffffff"
     bordercolor="#666666"
     borderopacity="1"
     objecttolerance="10"
     gridtolerance="10"
     guidetolerance="10"
     inkscape:pageopacity="0"
     inkscape:pageshadow="2"
     inkscape:window-width="1366"
     inkscape:window-height="745"
     id="namedview3080"
     showgrid="false"
     units="mm"
     inkscape:zoom="1.112"
     inkscape:cx="173.7231"
     inkscape:cy="112.23705"
     inkscape:window-x="-8"
     inkscape:window-y="-8"
     inkscape:window-maximized="1"
     inkscape:current-layer="svg3078" />
  <path
     style="fill:none;stroke:#000000;stroke-width:1"
     d="m 343.87058,781.52524 c -2.59528,-0.39049 -14.48641,-2.04301 -26.42473,-3.67289 -18.54078,-2.53159 -23.28447,-3.9219 -32.53041,-9.52838 -10.89305,-6.60629 -24.07942,-20.48856 -24.11102,-25.38574 -0.009,-1.44878 2.75108,-5.03301 6.13431,-7.96642 6.71096,-5.81776 6.68104,-5.8253 -8.47286,-2.12789 -4.23373,1.03188 -6.14122,0.2226 -10.38114,-4.40105 -6.81198,-7.42878 -18.15504,-29.83396 -16.83952,-33.25973 0.56692,-1.47707 6.31052,-6.26862 12.76354,-10.64703 l 11.73277,-7.96453 8.67426,2.97491 c 10.7066,3.66912 26.88814,6.99301 34.04622,6.99301 6.60602,0 7.65897,2.48444 7.65897,18.06072 0,10.04904 -0.63784,12.49009 -3.77497,14.4482 -2.07622,1.2941 -3.77496,3.84267 -3.77496,5.65931 0,1.81663 -1.69873,4.36332 -3.77496,5.6593 -2.07623,1.29409 -3.77496,3.46727 -3.77496,4.82738 0,3.73892 12.57328,8.21165 21.26574,7.56649 7.21414,-0.53575 7.86385,-1.07338 10.36015,-8.58893 1.46484,-4.4086 3.34971,-8.01735 4.18859,-8.01735 0.83889,0 2.83662,3.27674 4.43939,7.27975 2.48428,6.20637 3.95865,7.44953 9.99487,8.42859 7.83482,1.26957 11.5085,-0.72628 12.39669,-6.73646 1.02215,-6.91567 5.08867,-5.8121 8.32003,2.25995 3.45311,8.62478 7.24621,11.40538 15.55598,11.40538 6.40496,0 19.86775,-10.23768 25.38528,-19.30577 3.38102,-5.55743 3.37181,-5.76494 -0.4329,-9.81323 -2.13808,-2.27504 -3.88741,-5.23296 -3.88741,-6.57422 0,-1.56385 -1.18568,-1.96944 -3.3031,-1.12997 -1.8167,0.72061 -6.70055,1.56008 -10.85301,1.86757 -4.15246,0.30748 -11.15022,1.68081 -15.5506,3.05036 -7.32824,2.28259 -8.4387,2.16563 -13.21236,-1.38276 -4.56138,-3.3918 -5.41828,-5.69325 -6.8672,-18.44366 -2.0227,-17.79851 -0.94416,-19.41518 10.39511,-15.57629 4.53624,1.53556 13.00108,3.38426 18.81074,4.10488 5.80965,0.7225 11.63538,1.97698 12.94603,2.78626 1.31066,0.80928 2.83365,5.46689 3.38444,10.35087 0.65448,5.80456 1.54917,8.00791 2.58258,6.36483 0.86966,-1.38465 1.0992,-4.06338 0.51011,-5.95359 -1.94295,-6.23466 0.85601,-12.59761 5.54238,-12.59761 5.91784,0 20.54816,-9.58497 25.72929,-16.85717 5.21998,-7.32691 12.01187,-7.38917 12.98561,-0.11319 0.34742,2.59385 1.32378,5.4367 2.16969,6.31767 2.18087,2.27315 11.52666,-14.41236 13.65217,-24.37273 0.98077,-4.59535 2.80806,-8.35502 4.06067,-8.35502 2.91821,0 20.0666,17.32879 20.0666,20.27728 0,1.22619 -2.97278,7.6344 -6.60618,14.2407 -3.6334,6.60629 -6.60619,13.24088 -6.60619,14.74437 0,1.50348 -3.90576,9.29257 -8.67946,17.30992 -8.29588,13.93131 -25.28934,31.52042 -30.45333,31.52042 -1.31548,0 -2.39178,2.0449 -2.39178,4.54065 0,6.08941 -14.82567,18.38519 -31.00808,25.71965 -19.78758,8.96622 -37.00233,12.28068 -52.04108,10.01885 z m -31.93868,-65.5668 c -1.38102,-1.66194 -1.9946,-8.15694 -1.64672,-17.43065 0.53735,-14.32181 0.72953,-14.8651 6.21693,-17.56459 3.11434,-1.53178 10.75864,-2.81267 16.98733,-2.84851 l 11.32488,-0.0566 -0.65786,16.03469 c -0.38322,9.34162 -1.56525,16.61382 -2.83122,17.42122 -1.19534,0.76211 -5.19614,1.39973 -8.89066,1.41482 -3.69452,0 -8.36603,1.27523 -10.38114,2.79947 -4.64938,3.51443 -7.34844,3.57857 -10.12154,0.23769 z m -92.10539,-36.49307 c -2.16722,-3.88982 -5.20269,-11.36765 -6.74546,-16.61759 -2.86055,-9.734 -11.69877,-28.37197 -19.14662,-40.37724 -11.745,-18.92848 -18.60479,-47.8079 -17.70816,-74.54999 0.33124,-9.87926 0.42765,-17.96074 0.21421,-17.95886 -0.21341,0.002 -3.51707,2.12601 -7.34145,4.71986 -13.50692,9.16241 -18.94815,5.50084 -22.54994,-15.17259 -1.61855,-9.29069 -1.9217,-15.24993 -0.79565,-15.63854 2.81571,-0.9734 2.18242,-3.74834 -2.21005,-9.68684 -2.42652,-3.28051 -3.53702,-6.72891 -2.79186,-8.66816 1.15706,-3.01453 1.48037,-3.00321 4.98449,0.16977 4.91102,4.44256 5.96563,3.04848 3.69176,-4.87454 -1.02035,-3.55593 -1.8552,-8.06073 -1.8552,-10.00942 0,-2.93718 0.48542,-3.1428 2.83122,-1.19789 1.55717,1.29221 2.83122,3.53707 2.83122,4.98962 0,1.45256 3.2932,6.23089 7.31822,10.61685 4.02501,4.38596 9.11804,10.94509 11.31782,14.57648 l 3.99963,6.60252 -0.12571,-6.60252 c -0.11966,-6.28371 -3.22432,-16.73456 -3.50259,-11.79021 -0.49262,8.75682 -16.68279,-11.72608 -25.72114,-32.54099 -2.25269,-5.1877 -7.17794,-16.04224 -10.94503,-24.12372 -3.76707,-8.0796 -8.26522,-19.01903 -9.99589,-24.30671 -1.97385,-6.03093 -4.44156,-9.95471 -6.62085,-10.52253 -4.16212,-1.08847 -4.25866,-2.8504 -0.69738,-12.73154 2.98648,-8.28334 3.86745,-29.23973 1.22928,-29.23973 -0.911,0 -2.70597,1.26579 -3.98882,2.8089 -6.31011,7.60044 -6.10119,-7.81927 0.41546,-30.66399 4.14279,-14.52177 3.58579,-17.77021 -2.40603,-14.02941 -3.13277,1.95434 -3.69818,1.80154 -3.74914,-1.0149 -0.033,-1.82419 -1.23106,-4.86134 -2.66228,-6.74778 -1.89909,-2.50518 -2.13787,-5.04998 -0.88371,-9.42085 2.73682,-9.53593 2.26514,-11.27522 -2.71996,-10.02451 -6.917645,1.73552 -7.128212,-0.3339 -1.22395,-12.02413 5.65957,-11.20354 5.61193,-13.20504 -0.31459,-13.20504 -1.90321,0 -3.460386,-0.66591 -3.460386,-1.48085 0,-0.81683 7.054396,-13.45028 15.676386,-28.07769 11.85055,-20.10562 19.83735,-31.02618 32.72588,-44.75188 14.86584,-15.83095 17.45117,-19.60005 20.18576,-29.43026 4.29605,-15.44235 4.15185,-19.58307 -0.63871,-18.33048 -5.41409,1.41483 -4.72412,-2.72212 1.41561,-8.48707 2.96659,-2.78626 8.5609,-5.4235 13.05658,-6.15166 4.65022,-0.75646 15.4531,-5.95925 26.42473,-12.72588 10.2073,-6.29692 24.07961,-13.938867 30.82735,-16.979797 11.29423,-5.09148 11.98787,-5.73664 8.73358,-8.12487 -3.35805,-2.465569 -3.28716,-2.657985 1.41561,-3.837006 2.72287,-0.68289 7.03529,-0.718732 9.58316,-0.07546 2.95908,0.741369 8.42643,-0.514996 15.13527,-3.480471 5.77653,-2.554232 20.89157,-8.000367 33.58899,-12.103362 30.57379,-9.879256 56.9261,-11.788327 85.13754,-6.166753 16.59139,3.306919 19.42522,4.482168 25.79271,10.696082 l 7.15344,6.981693 9.73504,-2.335406 c 9.60173,-2.301449 9.85589,-2.248629 18.56309,3.920011 25.1222,17.796622 27.73579,20.132032 29.5906,26.440259 1.64268,5.5895 2.95629,6.64402 10.13751,8.15128 6.73262,1.41294 8.708,2.82588 10.73841,7.68345 2.28285,5.45934 3.75063,6.23844 17.79197,9.44349 18.23943,4.16336 22.71527,6.73079 19.17432,10.99414 -2.02302,2.43727 -1.70551,3.37105 1.95873,5.76683 2.40524,1.57328 7.52763,4.17467 11.38312,5.78192 8.38252,3.49745 10.28061,6.63081 12.03867,19.87547 1.44332,10.87529 1.48607,10.84511 -9.61124,6.54404 -2.07623,-0.80551 1.84006,4.41048 8.70287,11.59214 10.17207,10.64326 22.44056,29.07372 22.44056,33.71057 0,0.55462 -1.69873,1.00547 -3.77496,1.00547 -5.02381,0 -4.78979,1.87135 1.88748,15.09148 3.11434,6.16675 5.66244,11.72796 5.66244,12.35803 0,0.63195 -2.5481,0.58857 -5.66244,-0.0943 -7.1614,-1.57329 -7.1614,-0.0377 0,14.14825 6.4063,12.6825 6.85799,15.09148 2.83122,15.09148 -4.21912,0 -3.46751,4.50669 2.83122,16.9779 7.72671,15.2971 7.55349,25.88565 -0.47187,28.84547 -4.09326,1.50915 -4.35147,11.53177 -0.47187,18.31539 3.74558,6.54781 3.47187,9.43217 -0.89527,9.43217 -2.24659,0 -4.9109,2.28825 -6.70892,5.76306 -2.83862,5.48575 -2.74994,6.17996 1.83901,14.38594 5.17021,9.24542 6.06824,14.6991 2.75705,16.74399 -1.37126,0.84701 -1.67778,6.11016 -0.91296,15.67439 0.74074,9.26427 0.26846,18.10033 -1.3241,24.77642 -2.24684,9.4152 -2.91531,10.33012 -7.23544,9.88492 -7.13735,-0.73194 -13.02244,6.81757 -16.10591,20.66023 -3.32851,14.94433 -10.03552,29.35102 -14.35365,30.82999 -1.93725,0.66214 -3.30309,3.03904 -3.30309,5.74608 0,2.53725 -2.5451,9.90755 -5.65576,16.37802 l -5.65576,11.76569 3.97739,3.30126 c 5.9977,4.97641 9.10942,4.02942 12.36938,-3.7691 2.09548,-5.01225 2.69048,-10.76588 2.04535,-19.77737 -0.90678,-12.66552 -0.88832,-12.724 5.55943,-17.64005 7.11504,-5.4235 9.74197,-10.69042 11.60715,-23.26728 1.76457,-11.89962 5.95252,-12.4448 5.95252,-0.77344 0,13.72193 -2.90282,21.27898 -11.5602,30.09618 -7.82808,7.97018 -7.83225,7.98338 -6.58338,19.01525 1.64595,14.54064 -1.03659,22.00903 -9.31589,25.9347 -5.82007,2.76174 -6.96985,2.77494 -12.04347,0.15091 -3.08503,-1.59403 -6.37808,-2.89945 -7.31791,-2.89945 -0.93984,0 -2.20498,6.15544 -2.81143,13.67665 -0.60646,7.5231 -4.14904,24.6689 -7.87239,38.10031 -5.49929,19.83963 -8.88568,27.95507 -18.0446,43.23896 -6.20117,10.34898 -11.27485,19.52082 -11.27485,20.38104 0,4.90661 -6.51891,-0.0755 -14.92118,-11.40161 -7.73786,-10.43198 -9.61607,-14.41424 -9.61607,-20.39047 0,-4.08413 1.24704,-9.07375 2.7712,-11.08657 3.6039,-4.76325 3.58023,-9.12091 -0.088,-16.21013 -2.79105,-5.3952 -2.74453,-6.01395 0.73653,-9.81134 5.19199,-5.66119 3.47512,-15.49518 -4.10727,-23.52384 l -5.91859,-6.26673 4.89703,-4.10866 c 2.69336,-2.25995 12.24018,-10.26597 21.21517,-17.79473 17.9725,-15.07261 24.85212,-25.95545 34.42271,-54.45004 l 4.86907,-14.49536 -4.04128,-5.46311 -4.04129,-5.46312 5.09667,-21.55817 c 2.80316,-11.85623 5.84434,-21.09599 6.75817,-20.53195 5.22754,3.22958 7.27087,15.35558 7.39939,43.91619 0.0729,16.2139 0.78893,31.15824 1.59105,33.21068 1.45293,3.71627 1.46578,3.71627 3.41901,0 1.07831,-2.05244 2.59621,-6.68553 3.37309,-10.29616 1.29759,-6.03093 1.15169,-6.34974 -1.79316,-3.90681 -2.99339,2.48255 -3.1814,0.85645 -2.83868,-24.55948 0.32918,-24.41423 -0.2425,-29.94337 -5.54426,-53.63133 -6.68359,-29.86036 -11.21247,-43.53701 -13.61931,-41.13181 -0.91854,0.91681 -0.72577,4.90662 0.44071,9.12091 3.03199,10.95075 0.52732,47.59851 -4.55176,66.59867 -2.53249,9.47368 -6.17797,18.08902 -9.17245,21.67702 l -4.96959,5.95547 -6.92928,-3.30314 c -6.84767,-3.26354 -7.00133,-3.24844 -13.04114,1.35634 -3.3615,2.56178 -10.7475,6.73834 -16.41332,9.27749 -8.96031,4.0181 -11.70064,4.41991 -21.04794,3.08243 -12.12935,-1.73552 -15.34207,-3.15601 -13.57976,-6.00452 0.74838,-1.21109 4.73835,-1.5016 10.37048,-0.75457 7.2681,0.96396 10.81536,0.38294 17.21735,-2.82211 11.96357,-5.98754 20.33177,-14.65571 20.33177,-21.06204 0,-10.34143 -15.1352,-19.66796 -17.88167,-11.01866 -2.27313,7.15902 -8.71599,13.36161 -13.87062,13.35407 -6.17837,0 -16.34245,-5.95736 -19.15563,-11.21108 -4.24192,-7.92114 -17.52668,-2.86361 -19.5925,7.45896 -1.03468,5.17072 -1.58836,5.58196 -5.03242,3.7408 -2.12842,-1.13941 -7.84124,-1.81286 -12.69516,-1.49783 -7.64902,0.49613 -8.97114,1.20166 -9.9192,5.28767 -0.84467,3.64271 -2.47457,4.85191 -7.15403,5.30843 -5.53245,0.53952 -6.06013,0.13205 -6.06013,-4.74249 0,-2.93341 -1.77039,-9.99056 -3.93419,-15.68382 -6.90924,-18.17391 -7.22873,-16.9515 4.42727,-16.9515 5.70393,0 13.51331,-1.31107 17.35416,-2.91454 3.84599,-1.60724 11.18568,-2.72589 16.33717,-2.49009 7.53493,0.34333 11.69664,-0.82437 21.40222,-6.00829 11.35025,-6.06112 12.25063,-6.24976 15.5381,-3.27674 4.95835,4.48405 52.86143,4.59724 63.34734,0.15092 11.09477,-4.70666 12.204,-12.01093 5.16081,-33.986 -3.09196,-9.64723 -5.62175,-20.3867 -5.62175,-23.86717 0,-7.71551 5.22387,-14.73305 14.10477,-18.94546 3.66164,-1.73552 6.65752,-4.38973 6.65752,-5.89699 0,-3.40313 -0.43406,-3.39936 -8.75479,0.0755 -3.71036,1.54876 -7.50521,2.34861 -8.43304,1.77513 -0.92785,-0.57347 -1.68698,-10.27352 -1.68698,-21.55628 l 0,-20.51497 -5.19057,-0.59612 c -4.81228,-0.55272 -5.22651,-1.28466 -5.68379,-10.03017 -1.03651,-19.82076 -3.03452,-21.64306 -13.07288,-11.91849 -3.40775,3.30126 -6.63132,5.56687 -7.16352,5.03489 -0.53217,-0.53197 -1.48977,-6.41576 -2.12796,-13.07676 -1.21567,-12.68627 -4.82344,-19.98111 -15.54879,-31.44497 -5.03753,-5.382 -6.92329,-6.13091 -15.47419,-6.13091 -12.50863,0 -37.77543,11.50725 -52.07189,23.71436 -5.54438,4.73495 -10.94061,8.07583 -11.99164,7.42689 -1.05102,-0.64893 -1.91094,-4.95 -1.91094,-9.55856 0,-4.60667 -0.40928,-8.37765 -0.9095,-8.37765 -0.50024,0 -8.31687,3.42199 -17.3703,7.60233 -9.05343,4.18034 -17.5625,7.17788 -18.90905,6.661 -1.45011,-0.5565 -2.44825,-4.06338 -2.44825,-8.60403 0,-5.01226 -0.96254,-8.03244 -2.78313,-8.73042 -1.53071,-0.58668 -14.48354,1.50726 -28.78408,4.65195 -14.30052,3.14657 -33.84602,6.30824 -43.43444,7.02697 -16.66053,1.2507 -17.95678,1.67704 -29.23631,9.61515 -10.6976,7.52876 -16.54741,8.38898 -10.91432,1.60536 3.61955,-4.35955 0.67246,-6.37238 -6.84636,-4.67836 -11.00199,2.48066 -23.96597,16.70438 -30.75522,33.74454 -5.30418,13.31256 -5.72386,16.1573 -6.07157,41.1469 -0.31755,22.82208 0.10079,27.37027 2.79153,30.34141 5.00688,5.52914 9.3357,22.52402 7.72919,30.34329 -1.32663,6.45726 -1.51578,6.10827 -3.84406,-7.11186 -3.79395,-21.5393 -4.94178,-21.17899 -9.11712,2.87304 -6.41284,36.94016 -4.46821,100.99403 3.24087,106.74954 1.75103,1.3073 4.84123,7.22504 6.86714,13.15411 3.35305,9.81134 18.67813,33.0956 29.53347,44.87072 7.89643,8.56819 17.36579,26.28746 18.66128,34.92167 1.03579,6.90246 0.54472,9.52272 -2.6179,13.9615 -5.87958,8.25126 -5.14835,14.45009 1.99867,16.94018 5.72973,1.99585 5.80891,2.17883 2.8829,6.64213 -2.82844,4.31428 -2.71948,5.10658 1.81976,13.22202 3.18648,5.69892 6.09241,8.63421 8.54546,8.63421 8.37337,0 45.97829,-18.94546 60.44917,-30.45459 l 5.03333,-4.00302 6.76343,4.17846 c 6.31711,3.90114 8.53605,3.54461 5.31892,-0.85645 -0.76269,-1.04319 -4.57273,-4.27088 -8.46675,-7.17222 -10.24625,-7.63251 -17.90515,-23.81434 -14.31063,-30.23388 2.8084,-5.01414 13.29766,-4.02942 18.70231,1.75816 5.75714,6.16486 17.14193,12.07695 23.25257,12.07695 7.57093,0 14.82158,-3.53518 22.4756,-10.9583 6.87256,-6.66666 7.73402,-6.96283 20.2669,-6.96283 8.39336,0 13.40011,0.8074 13.95575,2.25052 1.22603,3.1843 -1.50348,11.63741 -6.43735,19.93772 -2.75172,4.62931 -3.82262,8.67005 -3.08073,11.62421 1.07962,4.29918 0.86403,4.42558 -4.25767,2.49387 -4.56111,-1.72232 -6.31045,-1.38465 -11.31916,2.18071 -3.25834,2.31843 -5.92427,5.15374 -5.92427,6.30258 0,1.14695 1.96581,0.24147 4.36848,-2.01471 5.62103,-5.27824 11.72991,-5.2009 19.04687,0.24335 14.12551,10.50555 44.53395,27.65324 44.53395,25.11221 0,-0.29428 -4.69408,-3.76532 -10.43131,-7.71363 -5.73722,-3.95019 -10.13368,-7.47782 -9.76988,-7.8419 0.36377,-0.36409 7.16606,1.52423 15.11617,4.19543 10.04094,3.37483 15.90595,6.58176 19.20729,10.50366 7.87672,9.35483 5.4431,17.79851 -3.45141,11.9732 -4.23524,-2.77306 -4.59926,-2.7259 -5.49676,0.70364 -1.61961,6.18939 -11.61003,10.14147 -19.85281,7.85511 -3.86503,-1.07338 -14.11856,-1.95623 -22.78565,-1.96189 -24.01123,0 -33.12417,-5.41595 -32.80213,-19.43593 l 0.18214,-7.92869 -2.55351,8.17204 c -2.75827,8.82474 -7.67314,15.40839 -11.50269,15.40839 -5.07706,0 -13.83423,-9.82077 -16.85075,-18.89641 -3.13184,-9.42462 -8.58228,-16.34595 -5.77582,-7.33634 0.77764,2.49764 1.84999,9.24353 2.38304,14.99149 1.34071,14.45763 -0.23263,15.43481 -25.96379,16.12524 -11.42,0.30749 -22.64924,1.06772 -24.95391,1.69213 -9.46997,2.56367 -29.67133,13.19938 -29.67133,15.62156 0,1.82796 2.95266,0.92247 9.90927,-3.04093 15.2466,-8.68326 29.34263,-10.86209 53.70494,-8.29842 11.20828,1.18091 24.44388,3.65779 29.41247,5.50839 9.0163,3.35596 9.05086,3.35408 17.87452,-1.31296 8.37065,-4.42935 10.50841,-4.68025 40.20362,-4.72929 26.43883,-0.0377 32.14178,-0.56216 36.32413,-3.30126 6.28043,-4.11243 9.43205,-4.10111 13.03908,0.0566 3.38771,3.90115 2.40095,17.22126 -1.3832,18.67193 -1.33583,0.51122 -8.24258,-0.75646 -15.3483,-2.81834 -20.543,-5.9649 -27.30177,-6.41387 -49.0839,-3.26919 -23.99371,3.46538 -31.365,3.66723 -70.72468,1.94114 l -29.50236,-1.29409 -11.07848,7.47028 c -12.00266,8.0928 -40.20758,23.15786 -43.35756,23.15786 -1.0693,0 -3.71738,-3.18241 -5.88462,-7.07412 z M 167.99993,523.69873 c 0.46916,-4.07658 -0.96884,-6.77796 -6.2687,-11.77324 -6.65323,-6.2705 -12.01619,-8.76248 -9.25654,-4.29918 0.74246,1.19977 1.20949,5.89322 1.03783,10.4301 -0.26291,6.94585 0.36002,8.51913 3.95202,9.98112 6.68741,2.72024 9.87421,1.40917 10.53539,-4.3388 z M 516.86941,331.38242 c -0.51704,-1.27711 -0.90858,0.22449 -0.87011,3.3371 0.0385,3.11262 0.46149,4.15771 0.94004,2.32221 0.47855,-1.83551 0.44709,-4.38219 -0.07,-5.65931 z M 389.27539,532.04997 c -1.05328,-1.96755 -5.11764,-4.33125 -9.03194,-5.25183 -5.26133,-1.2375 -7.27418,-2.76551 -7.72006,-5.85549 -0.81056,-5.61969 1.25189,-5.2707 9.62326,1.62611 6.38144,5.25749 12.34768,13.05601 9.98751,13.05601 -0.51905,0 -1.8055,-1.60913 -2.85877,-3.5748 z m -92.59183,-4.91416 c 0,-4.59158 5.80591,-12.26182 9.28303,-12.26182 0.95321,0 3.07663,-0.515 4.7187,-1.14506 2.24969,-0.8621 2.9856,0.0566 2.9856,3.75023 0,3.65402 -1.90317,6.09507 -7.51242,9.63402 -9.25766,5.8404 -9.47491,5.8404 -9.47491,0.0189 z M 138.03544,471.07288 c -1.18987,-4.44067 -4.12086,-12.74475 -6.51332,-18.45122 -2.39246,-5.70646 -4.98399,-14.61609 -5.75897,-19.8019 -1.2101,-8.09657 -1.0245,-9.1077 1.31439,-7.16845 6.02159,4.99528 16.72008,34.87263 16.72008,46.69491 0,7.91925 -3.50666,7.14392 -5.76218,-1.27334 z m 88.80935,-5.13299 c -8.63968,-4.56706 -13.00285,-9.55479 -16.07779,-18.37953 -1.77851,-5.10469 -3.51133,-7.09111 -5.95483,-6.82512 -1.89552,0.20562 -7.39694,0.94322 -12.22538,1.63931 -7.93635,1.14318 -9.00725,0.83758 -11.15683,-3.17675 -7.28807,-13.60874 -9.88819,-52.60133 -3.50771,-52.60133 0.95563,0 1.7375,2.44293 1.7375,5.42915 0,2.98623 1.30482,6.51009 2.89961,7.83436 4.62349,3.83324 29.31746,4.71986 35.95556,1.29033 5.14745,-2.66176 6.84759,-2.52594 22.52152,1.79588 15.7817,4.35012 19.00147,4.59913 46.5734,3.59366 29.07796,-1.06206 29.6735,-1.00547 32.56436,3.12016 1.93261,2.75797 2.55943,6.25542 1.82371,10.17354 -1.0398,5.54046 -0.63001,6.13468 5.65714,8.20787 8.4306,2.7825 8.69704,5.29334 0.64382,6.06866 -4.84583,0.46784 -6.70145,1.87889 -8.8343,6.72137 -3.204,7.27598 -5.27778,7.73438 -7.5833,1.67327 -1.86234,-4.8953 -6.88269,-7.73627 -8.64247,-4.89153 -0.61358,0.99227 -5.98601,1.80343 -11.93875,1.80343 -10.57336,0 -10.86485,-0.13205 -12.62909,-6.11016 -1.94721,-6.58743 -12.02886,-12.27502 -13.57158,-7.65515 -0.41649,1.24694 -2.63845,5.06696 -4.93767,8.48896 -3.31211,4.92736 -5.67644,6.34407 -11.3829,6.81757 -7.94237,0.65648 -12.86994,-2.57876 -17.47143,-11.47141 -3.34526,-6.46481 -7.50878,-4.85191 -12.7129,4.92926 -3.4956,6.56856 -3.48973,6.71193 0.54709,13.23899 5.04106,8.15317 14.51306,11.85058 34.61302,13.51253 15.45318,1.279 17.1582,3.2541 5.58303,6.4667 -10.72491,2.97679 -25.07309,2.22976 -32.49283,-1.69402 z"
     id="path3871"
     inkscape:connector-curvature="0"
     sodipodi:nodetypes="ssscssssscssssssssssssssssssssssssssssssssssssssssssscssscsscscccssscsssssssssssscssssssssssscssssssssssssssssssssscsssssssssssssssscsssssssssssssssscssssssssscssssssssssscssscccssssssssssssscssssssssscssssssssssssssssssssscssscsssscssssssssssssscssssssssssssscsssssssssssssssssscssssscscssssssssssssssssssscssccssssssccsccsssssscscssccsssssssssssssssssssssssssssssssssss" />
  <g
     style="font-size:72px;font-style:normal;font-weight:normal;line-height:125%;letter-spacing:0px;word-spacing:0px;fill:#000000;fill-opacity:1;stroke:none;font-family:Sans"
     id="text3873">
    <path
       d="m 199.28584,805.48187 0,79.46167 -22.30224,0 0,-79.46167 z"
       style="font-size:100px;font-variant:normal;font-weight:bold;font-stretch:normal;font-family:Impact;-inkscape-font-specification:Impact Bold"
       id="path3882" />
    <path
       d="m 301.84016,805.48187 -9.06677,79.46167 -27.04773,0 c -2.41093,-12.49999 -4.14941,-26.03248 -5.21545,-40.59753 -0.0794,6.03438 -1.61951,19.56687 -4.62036,40.59753 l -26.95313,0 -9.10034,-79.46167 21.64307,0 2.13012,27.948 0.83313,25.19226 c 0.16477,-12.95569 1.76796,-30.66909 4.80957,-53.14026 l 22.87903,0 c 0.35192,2.77921 1.12198,11.60591 2.31018,26.48011 l 1.01319,28.52783 c 0.49229,-18.22302 2.08531,-36.55898 4.77905,-55.00794 z"
       style="font-size:100px;font-variant:normal;font-weight:bold;font-stretch:normal;font-family:Impact;-inkscape-font-specification:Impact Bold"
       id="path3884" />
    <path
       style="font-size:100px;font-variant:normal;font-weight:bold;font-stretch:normal;font-family:Impact;-inkscape-font-specification:Impact Bold"
       d="M 311.25 805.46875 L 300.90625 884.9375 L 323.84375 884.9375 L 325.03125 871 L 330.28125 871 L 331.28125 884.9375 L 354 884.9375 L 342.3125 805.46875 L 327.78125 805.46875 L 327.78125 827.375 L 327.46875 827.375 C 327.97113 838.53296 328.6823 847.88994 329.625 855.3125 L 324.875 855.3125 C 325.32548 849.76305 326.12427 839.82337 327.125 827.375 L 326.65625 827.375 L 326.65625 805.46875 L 311.25 805.46875 z "
       id="path3886" />
    <path
       d="m 399.22176,805.48187 0,17.46521 -11.969,0 0,61.99646 -22.3053,0 0,-61.99646 -11.92016,0 0,-17.46521 z"
       style="font-size:100px;font-variant:normal;font-weight:bold;font-stretch:normal;font-family:Impact;-inkscape-font-specification:Impact Bold"
       id="path3888" />
    <path
       d="m 451.97444,841.23322 -22.3053,0 0,-14.47754 c -3e-5,-3.78819 -0.15821,-6.04039 -0.47454,-6.7566 -0.3164,-0.71608 -0.9649,-1.07415 -1.9455,-1.07421 -1.15766,6e-5 -1.90636,0.44918 -2.24609,1.34735 -0.33979,0.89829 -0.50967,3.26696 -0.50965,7.10601 l 0,36.00159 c -2e-5,3.67434 0.16884,5.94637 0.50659,6.8161 0.33771,0.86977 1.03961,1.30464 2.10572,1.30463 0.99688,10e-6 1.67335,-0.44249 2.02942,-1.32752 0.356,-0.88499 0.53402,-3.38845 0.53405,-7.51037 l 0,-10.69641 22.3053,0 0,3.99475 c -5e-5,8.09125 -0.59362,13.89314 -1.7807,17.4057 -1.18718,3.51258 -3.81525,6.59129 -7.88422,9.23614 -4.06905,2.64486 -9.05765,3.96729 -14.96582,3.96729 -6.11574,0 -11.18725,-1.12457 -15.21453,-3.37372 -4.02732,-2.24914 -6.69048,-5.34718 -7.98951,-9.29413 -1.29903,-3.94692 -1.94855,-9.76764 -1.94854,-17.46216 l 0,-22.64709 c -1e-5,-5.66604 0.19581,-9.92985 0.58746,-12.79144 0.39164,-2.86147 1.58894,-5.65586 3.59192,-8.38318 2.00296,-2.72718 4.77243,-4.86951 8.30841,-6.427 3.53595,-1.55734 7.5663,-2.33604 12.09106,-2.33612 6.14011,8e-5 11.2401,1.20806 15.29999,3.62396 4.05981,2.41605 6.72552,5.42152 7.99713,9.01642 1.27152,3.59503 1.9073,9.05767 1.90735,16.38794 z"
       style="font-size:100px;font-variant:normal;font-weight:bold;font-stretch:normal;font-family:Impact;-inkscape-font-specification:Impact Bold"
       id="path3890" />
    <path
       d="m 506.91829,805.48187 0,79.46167 -22.30225,0 0,-32.55615 -3.88488,0 0,32.55615 -22.30225,0 0,-79.46167 22.30225,0 0,27.71912 3.88488,0 0,-27.71912 z"
       style="font-size:100px;font-variant:normal;font-weight:bold;font-stretch:normal;font-family:Impact;-inkscape-font-specification:Impact Bold"
       id="path3892" />
    <path
       d="m 225.88864,905.04637 -14.69727,50.55237 0,28.90926 -20.81909,0 0,-28.87264 -14.16931,-50.58899 20.4895,0 c 3.01512,15.67389 4.46266,25.83929 4.34265,30.49622 0.16884,-7.67206 1.62351,-17.83746 4.36402,-30.49622 z"
       style="font-size:100px;font-variant:normal;font-weight:bold;font-stretch:normal;font-family:Impact;-inkscape-font-specification:Impact Bold"
       id="path3894"
       inkscape:connector-curvature="0" />
    <path
       style="font-size:100px;font-variant:normal;font-weight:bold;font-stretch:normal;font-family:Impact;-inkscape-font-specification:Impact Bold"
       d="M 250.40625 903.46875 C 246.56692 903.63392 243.11917 904.36667 240.09375 905.6875 C 236.6361 907.19718 233.91153 909.36063 231.875 912.1875 C 229.83845 915.01452 228.62434 918.0972 228.25 921.40625 C 227.87564 924.71544 227.6875 930.29701 227.6875 938.15625 L 227.6875 951.40625 C 227.6875 959.47105 227.8896 965.13682 228.28125 968.40625 C 228.67289 971.67571 229.91435 974.73935 232.03125 977.59375 C 234.14815 980.44815 236.94961 982.581 240.40625 984 C 243.5324 985.28343 247.00841 985.97163 250.84375 986.09375 L 250.84375 970.625 C 250.65579 970.44133 250.51138 970.20774 250.40625 969.90625 C 250.13767 969.1362 249.99997 966.5399 250 962.125 L 250 925.9375 C 249.99997 922.3194 250.17318 920.17209 250.53125 919.46875 L 250.53125 903.46875 C 250.48982 903.47039 250.44759 903.46697 250.40625 903.46875 z M 253.40625 903.46875 L 253.40625 919.09375 C 253.5196 919.24164 253.63801 919.39041 253.71875 919.59375 C 254.01474 920.33947 254.15622 922.46262 254.15625 925.9375 L 254.15625 961.5625 C 254.15622 966.00588 254.01881 968.70819 253.71875 969.65625 C 253.57443 970.11217 253.3598 970.45464 253.09375 970.6875 L 253.09375 986.09375 C 257.20637 985.9886 260.84903 985.26556 264.03125 983.875 C 267.47664 982.3695 270.24568 980.201 272.28125 977.375 C 274.31672 974.54912 275.52575 971.44866 275.90625 968.09375 C 276.28665 964.73887 276.4687 959.18419 276.46875 951.40625 L 276.46875 938.15625 C 276.4687 930.19325 276.27167 924.53403 275.875 921.21875 C 275.47822 917.90359 274.2106 914.82323 272.09375 911.96875 C 269.9768 909.11442 267.18754 906.98673 263.71875 905.5625 C 260.61558 904.28855 257.1704 903.60312 253.40625 903.46875 z "
       id="path3896" />
    <path
       d="m 331.10714,905.04637 0,52.7771 c -5e-5,5.92043 -0.19994,10.11965 -0.59967,12.59766 -0.39983,2.47804 -1.59306,5.03847 -3.57971,7.68127 -1.98674,2.6428 -4.59701,4.6422 -7.83081,5.9982 -3.23388,1.356 -7.02569,2.034 -11.37543,2.034 -4.79942,0 -9.05407,-0.8021 -12.76397,-2.4063 -3.70994,-1.6042 -6.49059,-3.7023 -8.34198,-6.2942 -1.85141,-2.592 -2.94088,-5.28973 -3.26844,-8.09329 -0.32755,-2.80353 -0.49133,-8.6212 -0.49133,-17.45301 l 0,-46.84143 22.30225,0 0,59.09729 c -3e-5,3.28778 0.12916,5.26328 0.38757,5.92652 0.25836,0.66326 0.69679,0.99488 1.31531,0.99487 0.74867,10e-6 1.25933,-0.38451 1.53198,-1.15357 0.2726,-0.76902 0.40891,-3.02732 0.40894,-6.7749 l 0,-58.09021 z"
       style="font-size:100px;font-variant:normal;font-weight:bold;font-stretch:normal;font-family:Impact;-inkscape-font-specification:Impact Bold"
       id="path3898"
       inkscape:connector-curvature="0" />
    <path
       style="font-size:100px;font-variant:normal;font-weight:bold;font-stretch:normal;font-family:Impact;-inkscape-font-specification:Impact Bold"
       d="M 355.8125 905.03125 L 355.8125 984.5 L 378.09375 984.5 L 378.09375 953.28125 L 382.4375 953.28125 C 387.02121 953.28128 390.77099 952.6418 393.6875 951.34375 C 396.60391 950.04577 398.61702 948.19348 399.71875 945.75 C 400.82038 943.3066 401.37495 939.54286 401.375 934.46875 L 401.375 927.71875 C 401.37495 922.82379 401.0856 919.15615 400.53125 916.71875 C 399.9768 914.28148 398.91564 912.16515 397.3125 910.40625 C 395.70927 908.6475 393.33761 907.31677 390.21875 906.40625 C 387.70759 905.67329 384.3556 905.23663 380.25 905.09375 L 380.25 920.5625 C 380.73363 920.71359 381.1184 920.91033 381.40625 921.1875 C 382.03895 921.79689 382.37497 923.28001 382.375 925.65625 L 382.375 932.03125 C 382.37497 934.69243 382.10669 936.3416 381.5625 937.03125 C 381.01824 937.721 379.98109 938.0938 378.5 938.09375 C 378.10121 938.09985 377.96962 938.08365 378.09375 938.09375 L 378.09375 924.6875 L 377.71875 924.6875 L 377.71875 905.03125 C 377.52428 905.03011 377.35381 905.03125 377.15625 905.03125 L 355.8125 905.03125 z "
       id="path3900" />
    <path
       d="m 406.18954,905.04637 35.7544,0 0,17.46521 -13.45215,0 0,12.74414 12.59155,0 0,16.69617 -12.59155,0 0,15.09094 14.79492,0 0,17.46517 -37.09717,0 z"
       style="font-size:100px;font-variant:normal;font-weight:bold;font-stretch:normal;font-family:Impact;-inkscape-font-specification:Impact Bold"
       id="path3902"
       inkscape:connector-curvature="0" />
    <path
       d="m 447.98642,905.04637 35.75439,0 0,17.46521 -13.45215,0 0,12.74414 12.59156,0 0,16.69617 -12.59156,0 0,15.09094 14.79492,0 0,17.46517 -37.09716,0 z"
       style="font-size:100px;font-variant:normal;font-weight:bold;font-stretch:normal;font-family:Impact;-inkscape-font-specification:Impact Bold"
       id="path3904"
       inkscape:connector-curvature="0" />
  </g>
</svg>
