999
DXF created by Inkscape
  0
SECTION
  2
HEADER
  9
$ACADVER
  1
AC1014
  9
$HANDSEED
  5
FFFF
  9
$MEASUREMENT
 70
     1
  0
ENDSEC
  0
SECTION
  2
TABLES
  0
TABLE
  2
VPORT
  5
8
330
0
100
AcDbSymbolTable
 70
     4
  0
VPORT
  5
2E
330
8
100
AcDbSymbolTableRecord
100
AcDbViewportTableRecord
  2
*ACTIVE
 70
     0
 10
0.0
 20
0.0
 11
1.0
 21
1.0
 12
210.0
 22
148.5
 13
0.0
 23
0.0
 14
10.0
 24
10.0
 15
10.0
 25
10.0
 16
0.0
 26
0.0
 36
1.0
 17
0.0
 27
0.0
 37
0.0
 40
341.0
 41
1.24
 42
50.0
 43
0.0
 44
0.0
 50
0.0
 51
0.0
 71
     0
 72
   100
 73
     1
 74
     3
 75
     0
 76
     0
 77
     0
 78
     0
  0
ENDTAB
  0
TABLE
  2
LTYPE
  5
5
330
0
100
AcDbSymbolTable
 70
     1
  0
LTYPE
  5
14
330
5
100
AcDbSymbolTableRecord
100
AcDbLinetypeTableRecord
  2
BYBLOCK
 70
     0
  3

 72
    65
 73
     0
 40
0.0
  0
LTYPE
  5
15
330
5
100
AcDbSymbolTableRecord
100
AcDbLinetypeTableRecord
  2
BYLAYER
 70
     0
  3

 72
    65
 73
     0
 40
0.0
  0
LTYPE
  5
16
330
5
100
AcDbSymbolTableRecord
100
AcDbLinetypeTableRecord
  2
CONTINUOUS
 70
     0
  3
Solid line
 72
    65
 73
     0
 40
0.0
  0
ENDTAB
  0
TABLE
  2
LAYER
  5
2
100
AcDbSymbolTable
 70
1
  0
LAYER
  5
50
100
AcDbSymbolTableRecord
100
AcDbLayerTableRecord
  2
0
 70
0
  6
CONTINUOUS
  0
ENDTAB
  0
TABLE
  2
STYLE
  5
3
330
0
100
AcDbSymbolTable
 70
     1
  0
STYLE
  5
11
330
3
100
AcDbSymbolTableRecord
100
AcDbTextStyleTableRecord
  2
STANDARD
 70
     0
 40
0.0
 41
1.0
 50
0.0
 71
     0
 42
2.5
  3
txt
  4

  0
ENDTAB
  0
TABLE
  2
VIEW
  5
6
330
0
100
AcDbSymbolTable
 70
     0
  0
ENDTAB
  0
TABLE
  2
UCS
  5
7
330
0
100
AcDbSymbolTable
 70
     0
  0
ENDTAB
  0
TABLE
  2
APPID
  5
9
330
0
100
AcDbSymbolTable
 70
     2
  0
APPID
  5
12
330
9
100
AcDbSymbolTableRecord
100
AcDbRegAppTableRecord
  2
ACAD
 70
     0
  0
ENDTAB
  0
TABLE
  2
DIMSTYLE
  5
A
330
0
100
AcDbSymbolTable
 70
     1
  0
DIMSTYLE
105
27
330
A
100
AcDbSymbolTableRecord
100
AcDbDimStyleTableRecord
  2
ISO-25
 70
     0
  3

  4

  5

  6

  7

 40
1.0
 41
2.5
 42
0.625
 43
3.75
 44
1.25
 45
0.0
 46
0.0
 47
0.0
 48
0.0
140
2.5
141
2.5
142
0.0
143
0.03937007874016
144
1.0
145
0.0
146
1.0
147
0.625
 71
     0
 72
     0
 73
     0
 74
     0
 75
     0
 76
     0
 77
     1
 78
     8
170
     0
171
     3
172
     1
173
     0
174
     0
175
     0
176
     0
177
     0
178
     0
270
     2
271
     2
272
     2
273
     2
274
     3
340
11
275
     0
280
     0
281
     0
282
     0
283
     0
284
     8
285
     0
286
     0
287
     3
288
     0
  0
ENDTAB
  0
TABLE
  2
BLOCK_RECORD
  5
1
330
0
100
AcDbSymbolTable
 70
     1
  0
BLOCK_RECORD
  5
1F
330
1
100
AcDbSymbolTableRecord
100
AcDbBlockTableRecord
  2
*MODEL_SPACE
  0
BLOCK_RECORD
  5
1B
330
1
100
AcDbSymbolTableRecord
100
AcDbBlockTableRecord
  2
*PAPER_SPACE
  0
ENDTAB
  0
ENDSEC
  0
SECTION
  2
BLOCKS
  0
BLOCK
  5
20
330
1F
100
AcDbEntity
  8
0
100
AcDbBlockBegin
  2
*MODEL_SPACE
 70
     0
 10
0.0
 20
0.0
 30
0.0
  3
*MODEL_SPACE
  1

  0
ENDBLK
  5
21
330
1F
100
AcDbEntity
  8
0
100
AcDbBlockEnd
  0
BLOCK
  5
1C
330
1B
100
AcDbEntity
 67
     1
  8
0
100
AcDbBlockBegin
  2
*PAPER_SPACE
  1

  0
ENDBLK
  5
1D
330
1B
100
AcDbEntity
 67
     1
  8
0
100
AcDbBlockEnd
  0
ENDSEC
  0
SECTION
  2
ENTITIES
  0
SPLINE
  5
100
100
AcDbEntity
  8
0
 62
7
100
AcDbSpline
 70
8
 71
3
 72
8
 73
4
 74
0
 40
0
 40
0
 40
0
 40
0
 40
1
 40
1
 40
1
 40
1
 10
97.047919
 20
79.436203
 30
0.0
 10
96.315474
 20
79.546408
 30
0.0
 10
92.959532
 20
80.012786
 30
0.0
 10
89.590273
 20
80.472774
 30
0.0
  0
SPLINE
  5
101
100
AcDbEntity
  8
0
 62
7
100
AcDbSpline
 70
8
 71
3
 72
8
 73
4
 74
0
 40
0
 40
0
 40
0
 40
0
 40
1
 40
1
 40
1
 40
1
 10
89.590273
 20
80.472774
 30
0.0
 10
84.357653
 20
81.187245
 30
0.0
 10
83.018878
 20
81.579621
 30
0.0
 10
80.409469
 20
83.161894
 30
0.0
  0
SPLINE
  5
102
100
AcDbEntity
  8
0
 62
7
100
AcDbSpline
 70
8
 71
3
 72
8
 73
4
 74
0
 40
0
 40
0
 40
0
 40
0
 40
1
 40
1
 40
1
 40
1
 10
80.409469
 20
83.161894
 30
0.0
 10
77.335208
 20
85.026336
 30
0.0
 10
73.613721
 20
88.944221
 30
0.0
 10
73.604803
 20
90.326314
 30
0.0
  0
SPLINE
  5
103
100
AcDbEntity
  8
0
 62
7
100
AcDbSpline
 70
8
 71
3
 72
8
 73
4
 74
0
 40
0
 40
0
 40
0
 40
0
 40
1
 40
1
 40
1
 40
1
 10
73.604803
 20
90.326314
 30
0.0
 10
73.602263
 20
90.735192
 30
0.0
 10
74.381219
 20
91.746742
 30
0.0
 10
75.336042
 20
92.574615
 30
0.0
  0
SPLINE
  5
104
100
AcDbEntity
  8
0
 62
7
100
AcDbSpline
 70
8
 71
3
 72
8
 73
4
 74
0
 40
0
 40
0
 40
0
 40
0
 40
1
 40
1
 40
1
 40
1
 10
75.336042
 20
92.574615
 30
0.0
 10
77.230024
 20
94.216516
 30
0.0
 10
77.221580
 20
94.218644
 30
0.0
 10
72.944812
 20
93.175153
 30
0.0
  0
SPLINE
  5
105
100
AcDbEntity
  8
0
 62
7
100
AcDbSpline
 70
8
 71
3
 72
8
 73
4
 74
0
 40
0
 40
0
 40
0
 40
0
 40
1
 40
1
 40
1
 40
1
 10
72.944812
 20
93.175153
 30
0.0
 10
71.749960
 20
92.883934
 30
0.0
 10
71.211623
 20
93.112330
 30
0.0
 10
70.015024
 20
94.417227
 30
0.0
  0
SPLINE
  5
106
100
AcDbEntity
  8
0
 62
7
100
AcDbSpline
 70
8
 71
3
 72
8
 73
4
 74
0
 40
0
 40
0
 40
0
 40
0
 40
1
 40
1
 40
1
 40
1
 10
70.015024
 20
94.417227
 30
0.0
 10
68.092532
 20
96.513794
 30
0.0
 10
64.891268
 20
102.837034
 30
0.0
 10
65.262537
 20
103.803862
 30
0.0
  0
SPLINE
  5
107
100
AcDbEntity
  8
0
 62
7
100
AcDbSpline
 70
8
 71
3
 72
8
 73
4
 74
0
 40
0
 40
0
 40
0
 40
0
 40
1
 40
1
 40
1
 40
1
 10
65.262537
 20
103.803862
 30
0.0
 10
65.422534
 20
104.220724
 30
0.0
 10
67.043506
 20
105.573006
 30
0.0
 10
68.864692
 20
106.808691
 30
0.0
  0
SPLINE
  5
108
100
AcDbEntity
  8
0
 62
7
100
AcDbSpline
 70
8
 71
3
 72
8
 73
4
 74
0
 40
0
 40
0
 40
0
 40
0
 40
1
 40
1
 40
1
 40
1
 10
74.624009
 20
108.216872
 30
0.0
 10
77.645649
 20
107.181365
 30
0.0
 10
82.212440
 20
106.243289
 30
0.0
 10
84.232609
 20
106.243289
 30
0.0
  0
SPLINE
  5
109
100
AcDbEntity
  8
0
 62
7
100
AcDbSpline
 70
8
 71
3
 72
8
 73
4
 74
0
 40
0
 40
0
 40
0
 40
0
 40
1
 40
1
 40
1
 40
1
 10
84.232609
 20
106.243289
 30
0.0
 10
86.096975
 20
106.243289
 30
0.0
 10
86.394140
 20
105.542125
 30
0.0
 10
86.394140
 20
101.146153
 30
0.0
  0
SPLINE
  5
10a
100
AcDbEntity
  8
0
 62
7
100
AcDbSpline
 70
8
 71
3
 72
8
 73
4
 74
0
 40
0
 40
0
 40
0
 40
0
 40
1
 40
1
 40
1
 40
1
 10
86.394140
 20
101.146153
 30
0.0
 10
86.394140
 20
98.310090
 30
0.0
 10
86.214128
 20
97.621172
 30
0.0
 10
85.328760
 20
97.068550
 30
0.0
  0
SPLINE
  5
10b
100
AcDbEntity
  8
0
 62
7
100
AcDbSpline
 70
8
 71
3
 72
8
 73
4
 74
0
 40
0
 40
0
 40
0
 40
0
 40
1
 40
1
 40
1
 40
1
 10
85.328760
 20
97.068550
 30
0.0
 10
84.742805
 20
96.703326
 30
0.0
 10
84.263382
 20
95.984063
 30
0.0
 10
84.263382
 20
95.471367
 30
0.0
  0
SPLINE
  5
10c
100
AcDbEntity
  8
0
 62
7
100
AcDbSpline
 70
8
 71
3
 72
8
 73
4
 74
0
 40
0
 40
0
 40
0
 40
0
 40
1
 40
1
 40
1
 40
1
 10
84.263382
 20
95.471367
 30
0.0
 10
84.263382
 20
94.958673
 30
0.0
 10
83.783963
 20
94.239941
 30
0.0
 10
83.198005
 20
93.874186
 30
0.0
  0
SPLINE
  5
10d
100
AcDbEntity
  8
0
 62
7
100
AcDbSpline
 70
8
 71
3
 72
8
 73
4
 74
0
 40
0
 40
0
 40
0
 40
0
 40
1
 40
1
 40
1
 40
1
 10
83.198005
 20
93.874186
 30
0.0
 10
82.612047
 20
93.508965
 30
0.0
 10
82.132627
 20
92.895646
 30
0.0
 10
82.132627
 20
92.511793
 30
0.0
  0
SPLINE
  5
10e
100
AcDbEntity
  8
0
 62
7
100
AcDbSpline
 70
8
 71
3
 72
8
 73
4
 74
0
 40
0
 40
0
 40
0
 40
0
 40
1
 40
1
 40
1
 40
1
 10
82.132627
 20
92.511793
 30
0.0
 10
82.132627
 20
91.456586
 30
0.0
 10
85.681086
 20
90.194282
 30
0.0
 10
88.134292
 20
90.376361
 30
0.0
  0
SPLINE
  5
10f
100
AcDbEntity
  8
0
 62
7
100
AcDbSpline
 70
8
 71
3
 72
8
 73
4
 74
0
 40
0
 40
0
 40
0
 40
0
 40
1
 40
1
 40
1
 40
1
 10
88.134292
 20
90.376361
 30
0.0
 10
90.170282
 20
90.527561
 30
0.0
 10
90.353645
 20
90.679293
 30
0.0
 10
91.058156
 20
92.800348
 30
0.0
  0
SPLINE
  5
110
100
AcDbEntity
  8
0
 62
7
100
AcDbSpline
 70
8
 71
3
 72
8
 73
4
 74
0
 40
0
 40
0
 40
0
 40
0
 40
1
 40
1
 40
1
 40
1
 10
91.058156
 20
92.800348
 30
0.0
 10
91.471567
 20
94.044553
 30
0.0
 10
92.003519
 20
95.063022
 30
0.0
 10
92.240269
 20
95.063022
 30
0.0
  0
SPLINE
  5
111
100
AcDbEntity
  8
0
 62
7
100
AcDbSpline
 70
8
 71
3
 72
8
 73
4
 74
0
 40
0
 40
0
 40
0
 40
0
 40
1
 40
1
 40
1
 40
1
 10
92.240269
 20
95.063022
 30
0.0
 10
92.477023
 20
95.063022
 30
0.0
 10
93.040827
 20
94.138253
 30
0.0
 10
93.493164
 20
93.008515
 30
0.0
  0
SPLINE
  5
112
100
AcDbEntity
  8
0
 62
7
100
AcDbSpline
 70
8
 71
3
 72
8
 73
4
 74
0
 40
0
 40
0
 40
0
 40
0
 40
1
 40
1
 40
1
 40
1
 10
93.493164
 20
93.008515
 30
0.0
 10
94.194283
 20
91.256939
 30
0.0
 10
94.610383
 20
90.906092
 30
0.0
 10
96.313938
 20
90.629780
 30
0.0
  0
SPLINE
  5
113
100
AcDbEntity
  8
0
 62
7
100
AcDbSpline
 70
8
 71
3
 72
8
 73
4
 74
0
 40
0
 40
0
 40
0
 40
0
 40
1
 40
1
 40
1
 40
1
 10
96.313938
 20
90.629780
 30
0.0
 10
98.525099
 20
90.271479
 30
0.0
 10
99.561893
 20
90.834752
 30
0.0
 10
99.812560
 20
92.530958
 30
0.0
  0
SPLINE
  5
114
100
AcDbEntity
  8
0
 62
7
100
AcDbSpline
 70
8
 71
3
 72
8
 73
4
 74
0
 40
0
 40
0
 40
0
 40
0
 40
1
 40
1
 40
1
 40
1
 10
99.812560
 20
92.530958
 30
0.0
 10
100.101033
 20
94.482714
 30
0.0
 10
101.248695
 20
94.171262
 30
0.0
 10
102.160657
 20
91.893150
 30
0.0
  0
SPLINE
  5
115
100
AcDbEntity
  8
0
 62
7
100
AcDbSpline
 70
8
 71
3
 72
8
 73
4
 74
0
 40
0
 40
0
 40
0
 40
0
 40
1
 40
1
 40
1
 40
1
 10
102.160657
 20
91.893150
 30
0.0
 10
103.135201
 20
89.459046
 30
0.0
 10
104.205699
 20
88.674298
 30
0.0
 10
106.550900
 20
88.674298
 30
0.0
  0
SPLINE
  5
116
100
AcDbEntity
  8
0
 62
7
100
AcDbSpline
 70
8
 71
3
 72
8
 73
4
 74
0
 40
0
 40
0
 40
0
 40
0
 40
1
 40
1
 40
1
 40
1
 10
106.550900
 20
88.674298
 30
0.0
 10
108.358522
 20
88.674298
 30
0.0
 10
112.158021
 20
91.563599
 30
0.0
 10
113.715190
 20
94.122816
 30
0.0
  0
SPLINE
  5
117
100
AcDbEntity
  8
0
 62
7
100
AcDbSpline
 70
8
 71
3
 72
8
 73
4
 74
0
 40
0
 40
0
 40
0
 40
0
 40
1
 40
1
 40
1
 40
1
 10
113.715190
 20
94.122816
 30
0.0
 10
114.669389
 20
95.691246
 30
0.0
 10
114.666790
 20
95.749810
 30
0.0
 10
113.593016
 20
96.892327
 30
0.0
  0
SPLINE
  5
118
100
AcDbEntity
  8
0
 62
7
100
AcDbSpline
 70
8
 71
3
 72
8
 73
4
 74
0
 40
0
 40
0
 40
0
 40
0
 40
1
 40
1
 40
1
 40
1
 10
113.593016
 20
96.892327
 30
0.0
 10
112.989603
 20
97.534394
 30
0.0
 10
112.495903
 20
98.369185
 30
0.0
 10
112.495903
 20
98.747718
 30
0.0
  0
SPLINE
  5
119
100
AcDbEntity
  8
0
 62
7
100
AcDbSpline
 70
8
 71
3
 72
8
 73
4
 74
0
 40
0
 40
0
 40
0
 40
0
 40
1
 40
1
 40
1
 40
1
 10
112.495903
 20
98.747718
 30
0.0
 10
112.495903
 20
99.189072
 30
0.0
 10
112.161278
 20
99.303538
 30
0.0
 10
111.563695
 20
99.066621
 30
0.0
  0
SPLINE
  5
11a
100
AcDbEntity
  8
0
 62
7
100
AcDbSpline
 70
8
 71
3
 72
8
 73
4
 74
0
 40
0
 40
0
 40
0
 40
0
 40
1
 40
1
 40
1
 40
1
 10
111.563695
 20
99.066621
 30
0.0
 10
111.050982
 20
98.863249
 30
0.0
 10
109.672651
 20
98.626332
 30
0.0
 10
108.500734
 20
98.539551
 30
0.0
  0
SPLINE
  5
11b
100
AcDbEntity
  8
0
 62
7
100
AcDbSpline
 70
8
 71
3
 72
8
 73
4
 74
0
 40
0
 40
0
 40
0
 40
0
 40
1
 40
1
 40
1
 40
1
 10
108.500734
 20
98.539551
 30
0.0
 10
107.328818
 20
98.452773
 30
0.0
 10
105.353894
 20
98.065189
 30
0.0
 10
104.112009
 20
97.678672
 30
0.0
  0
SPLINE
  5
11c
100
AcDbEntity
  8
0
 62
7
100
AcDbSpline
 70
8
 71
3
 72
8
 73
4
 74
0
 40
0
 40
0
 40
0
 40
0
 40
1
 40
1
 40
1
 40
1
 10
104.112009
 20
97.678672
 30
0.0
 10
102.043817
 20
97.034474
 30
0.0
 10
101.730421
 20
97.067483
 30
0.0
 10
100.383188
 20
98.068917
 30
0.0
  0
SPLINE
  5
11d
100
AcDbEntity
  8
0
 62
7
100
AcDbSpline
 70
8
 71
3
 72
8
 73
4
 74
0
 40
0
 40
0
 40
0
 40
0
 40
1
 40
1
 40
1
 40
1
 10
100.383188
 20
98.068917
 30
0.0
 10
99.095865
 20
99.026159
 30
0.0
 10
98.854029
 20
99.675679
 30
0.0
 10
98.445111
 20
103.274128
 30
0.0
  0
SPLINE
  5
11e
100
AcDbEntity
  8
0
 62
7
100
AcDbSpline
 70
8
 71
3
 72
8
 73
4
 74
0
 40
0
 40
0
 40
0
 40
0
 40
1
 40
1
 40
1
 40
1
 10
98.445111
 20
103.274128
 30
0.0
 10
97.874260
 20
108.297263
 30
0.0
 10
98.178648
 20
108.753523
 30
0.0
 10
101.378842
 20
107.670103
 30
0.0
  0
SPLINE
  5
11f
100
AcDbEntity
  8
0
 62
7
100
AcDbSpline
 70
8
 71
3
 72
8
 73
4
 74
0
 40
0
 40
0
 40
0
 40
0
 40
1
 40
1
 40
1
 40
1
 10
101.378842
 20
107.670103
 30
0.0
 10
102.659070
 20
107.236734
 30
0.0
 10
105.048036
 20
106.714990
 30
0.0
 10
106.687651
 20
106.511615
 30
0.0
  0
SPLINE
  5
120
100
AcDbEntity
  8
0
 62
7
100
AcDbSpline
 70
8
 71
3
 72
8
 73
4
 74
0
 40
0
 40
0
 40
0
 40
0
 40
1
 40
1
 40
1
 40
1
 10
106.687651
 20
106.511615
 30
0.0
 10
108.327263
 20
106.307709
 30
0.0
 10
109.971414
 20
105.953667
 30
0.0
 10
110.341308
 20
105.725270
 30
0.0
  0
SPLINE
  5
121
100
AcDbEntity
  8
0
 62
7
100
AcDbSpline
 70
8
 71
3
 72
8
 73
4
 74
0
 40
0
 40
0
 40
0
 40
0
 40
1
 40
1
 40
1
 40
1
 10
110.341308
 20
105.725270
 30
0.0
 10
110.711206
 20
105.496874
 30
0.0
 10
111.141027
 20
104.182393
 30
0.0
 10
111.296473
 20
102.804025
 30
0.0
  0
SPLINE
  5
122
100
AcDbEntity
  8
0
 62
7
100
AcDbSpline
 70
8
 71
3
 72
8
 73
4
 74
0
 40
0
 40
0
 40
0
 40
0
 40
1
 40
1
 40
1
 40
1
 10
111.296473
 20
102.804025
 30
0.0
 10
111.481181
 20
101.165849
 30
0.0
 10
111.733683
 20
100.544015
 30
0.0
 10
112.025334
 20
101.007728
 30
0.0
  0
SPLINE
  5
123
100
AcDbEntity
  8
0
 62
7
100
AcDbSpline
 70
8
 71
3
 72
8
 73
4
 74
0
 40
0
 40
0
 40
0
 40
0
 40
1
 40
1
 40
1
 40
1
 10
112.025334
 20
101.007728
 30
0.0
 10
112.270771
 20
101.398507
 30
0.0
 10
112.335553
 20
102.154505
 30
0.0
 10
112.169298
 20
102.687964
 30
0.0
  0
SPLINE
  5
124
100
AcDbEntity
  8
0
 62
7
100
AcDbSpline
 70
8
 71
3
 72
8
 73
4
 74
0
 40
0
 40
0
 40
0
 40
0
 40
1
 40
1
 40
1
 40
1
 10
112.169298
 20
102.687964
 30
0.0
 10
111.620955
 20
104.447523
 30
0.0
 10
112.410883
 20
106.243289
 30
0.0
 10
113.733481
 20
106.243289
 30
0.0
  0
SPLINE
  5
125
100
AcDbEntity
  8
0
 62
7
100
AcDbSpline
 70
8
 71
3
 72
8
 73
4
 74
0
 40
0
 40
0
 40
0
 40
0
 40
1
 40
1
 40
1
 40
1
 10
113.733481
 20
106.243289
 30
0.0
 10
115.403627
 20
106.243289
 30
0.0
 10
119.532629
 20
108.948381
 30
0.0
 10
120.994859
 20
111.000757
 30
0.0
  0
SPLINE
  5
126
100
AcDbEntity
  8
0
 62
7
100
AcDbSpline
 70
8
 71
3
 72
8
 73
4
 74
0
 40
0
 40
0
 40
0
 40
0
 40
1
 40
1
 40
1
 40
1
 10
120.994859
 20
111.000757
 30
0.0
 10
122.468053
 20
113.068574
 30
0.0
 10
124.384875
 20
113.086145
 30
0.0
 10
124.659686
 20
111.032702
 30
0.0
  0
SPLINE
  5
127
100
AcDbEntity
  8
0
 62
7
100
AcDbSpline
 70
8
 71
3
 72
8
 73
4
 74
0
 40
0
 40
0
 40
0
 40
0
 40
1
 40
1
 40
1
 40
1
 10
124.659686
 20
111.032702
 30
0.0
 10
124.757736
 20
110.300660
 30
0.0
 10
125.033286
 20
109.498344
 30
0.0
 10
125.272021
 20
109.249715
 30
0.0
  0
SPLINE
  5
128
100
AcDbEntity
  8
0
 62
7
100
AcDbSpline
 70
8
 71
3
 72
8
 73
4
 74
0
 40
0
 40
0
 40
0
 40
0
 40
1
 40
1
 40
1
 40
1
 10
125.272021
 20
109.249715
 30
0.0
 10
125.887511
 20
108.608182
 30
0.0
 10
128.525101
 20
113.317203
 30
0.0
 10
129.124967
 20
116.128241
 30
0.0
  0
SPLINE
  5
129
100
AcDbEntity
  8
0
 62
7
100
AcDbSpline
 70
8
 71
3
 72
8
 73
4
 74
0
 40
0
 40
0
 40
0
 40
0
 40
1
 40
1
 40
1
 40
1
 10
129.124967
 20
116.128241
 30
0.0
 10
129.401762
 20
117.425151
 30
0.0
 10
129.917464
 20
118.486214
 30
0.0
 10
130.270978
 20
118.486214
 30
0.0
  0
SPLINE
  5
12a
100
AcDbEntity
  8
0
 62
7
100
AcDbSpline
 70
8
 71
3
 72
8
 73
4
 74
0
 40
0
 40
0
 40
0
 40
0
 40
1
 40
1
 40
1
 40
1
 10
130.270978
 20
118.486214
 30
0.0
 10
131.094562
 20
118.486214
 30
0.0
 10
135.934219
 20
113.595644
 30
0.0
 10
135.934219
 20
112.763514
 30
0.0
  0
SPLINE
  5
12b
100
AcDbEntity
  8
0
 62
7
100
AcDbSpline
 70
8
 71
3
 72
8
 73
4
 74
0
 40
0
 40
0
 40
0
 40
0
 40
1
 40
1
 40
1
 40
1
 10
135.934219
 20
112.763514
 30
0.0
 10
135.934219
 20
112.417456
 30
0.0
 10
135.095234
 20
110.608917
 30
0.0
 10
134.069808
 20
108.744472
 30
0.0
  0
SPLINE
  5
12c
100
AcDbEntity
  8
0
 62
7
100
AcDbSpline
 70
8
 71
3
 72
8
 73
4
 74
0
 40
0
 40
0
 40
0
 40
0
 40
1
 40
1
 40
1
 40
1
 10
134.069808
 20
108.744472
 30
0.0
 10
133.044382
 20
106.880031
 30
0.0
 10
132.205394
 20
105.007602
 30
0.0
 10
132.205394
 20
104.583284
 30
0.0
  0
SPLINE
  5
12d
100
AcDbEntity
  8
0
 62
7
100
AcDbSpline
 70
8
 71
3
 72
8
 73
4
 74
0
 40
0
 40
0
 40
0
 40
0
 40
1
 40
1
 40
1
 40
1
 10
132.205394
 20
104.583284
 30
0.0
 10
132.205394
 20
104.158968
 30
0.0
 10
131.103102
 20
101.960714
 30
0.0
 10
129.755858
 20
99.698040
 30
0.0
  0
SPLINE
  5
12e
100
AcDbEntity
  8
0
 62
7
100
AcDbSpline
 70
8
 71
3
 72
8
 73
4
 74
0
 40
0
 40
0
 40
0
 40
0
 40
1
 40
1
 40
1
 40
1
 10
129.755858
 20
99.698040
 30
0.0
 10
127.414576
 20
95.766314
 30
0.0
 10
122.618644
 20
90.802277
 30
0.0
 10
121.161251
 20
90.802277
 30
0.0
  0
SPLINE
  5
12f
100
AcDbEntity
  8
0
 62
7
100
AcDbSpline
 70
8
 71
3
 72
8
 73
4
 74
0
 40
0
 40
0
 40
0
 40
0
 40
1
 40
1
 40
1
 40
1
 10
121.161251
 20
90.802277
 30
0.0
 10
120.789994
 20
90.802277
 30
0.0
 10
120.486238
 20
90.225160
 30
0.0
 10
120.486238
 20
89.520804
 30
0.0
  0
SPLINE
  5
130
100
AcDbEntity
  8
0
 62
7
100
AcDbSpline
 70
8
 71
3
 72
8
 73
4
 74
0
 40
0
 40
0
 40
0
 40
0
 40
1
 40
1
 40
1
 40
1
 10
120.486238
 20
89.520804
 30
0.0
 10
120.486238
 20
87.802237
 30
0.0
 10
116.302104
 20
84.332095
 30
0.0
 10
111.735068
 20
82.262147
 30
0.0
  0
SPLINE
  5
131
100
AcDbEntity
  8
0
 62
7
100
AcDbSpline
 70
8
 71
3
 72
8
 73
4
 74
0
 40
0
 40
0
 40
0
 40
0
 40
1
 40
1
 40
1
 40
1
 10
111.735068
 20
82.262147
 30
0.0
 10
106.150574
 20
79.731681
 30
0.0
 10
101.292189
 20
78.796267
 30
0.0
 10
97.047919
 20
79.434605
 30
0.0
  0
LWPOLYLINE
  5
132
100
AcDbEntity
  8
0
 62
7
100
AcDbPolyline
 90
3
 70
0
 10
68.864692
 20
106.808691
 30
0.0
 10
72.175940
 20
109.056458
 30
0.0
 10
74.624009
 20
108.216872
 30
0.0
  0
SPLINE
  5
133
100
AcDbEntity
  8
0
 62
7
100
AcDbSpline
 70
8
 71
3
 72
8
 73
4
 74
0
 40
0
 40
0
 40
0
 40
0
 40
1
 40
1
 40
1
 40
1
 10
88.034114
 20
97.940611
 30
0.0
 10
87.644359
 20
98.409647
 30
0.0
 10
87.471194
 20
100.242680
 30
0.0
 10
87.569373
 20
102.859927
 30
0.0
  0
SPLINE
  5
134
100
AcDbEntity
  8
0
 62
7
100
AcDbSpline
 70
8
 71
3
 72
8
 73
4
 74
0
 40
0
 40
0
 40
0
 40
0
 40
1
 40
1
 40
1
 40
1
 10
87.569373
 20
102.859927
 30
0.0
 10
87.721025
 20
106.901861
 30
0.0
 10
87.775263
 20
107.055189
 30
0.0
 10
89.323929
 20
107.817045
 30
0.0
  0
SPLINE
  5
135
100
AcDbEntity
  8
0
 62
7
100
AcDbSpline
 70
8
 71
3
 72
8
 73
4
 74
0
 40
0
 40
0
 40
0
 40
0
 40
1
 40
1
 40
1
 40
1
 10
89.323929
 20
107.817045
 30
0.0
 10
90.202865
 20
108.249347
 30
0.0
 10
92.360256
 20
108.610843
 30
0.0
 10
94.118131
 20
108.620958
 30
0.0
  0
LWPOLYLINE
  5
136
100
AcDbEntity
  8
0
 62
7
100
AcDbPolyline
 90
2
 70
0
 10
97.047919
 20
79.434605
 30
0.0
 10
97.047919
 20
79.436203
 30
0.0
  0
SPLINE
  5
137
100
AcDbEntity
  8
0
 62
7
100
AcDbSpline
 70
8
 71
3
 72
8
 73
4
 74
0
 40
0
 40
0
 40
0
 40
0
 40
1
 40
1
 40
1
 40
1
 10
97.128601
 20
104.111586
 30
0.0
 10
97.020448
 20
101.475173
 30
0.0
 10
96.686853
 20
99.422797
 30
0.0
 10
96.329568
 20
99.194930
 30
0.0
  0
SPLINE
  5
138
100
AcDbEntity
  8
0
 62
7
100
AcDbSpline
 70
8
 71
3
 72
8
 73
4
 74
0
 40
0
 40
0
 40
0
 40
0
 40
1
 40
1
 40
1
 40
1
 10
96.329568
 20
99.194930
 30
0.0
 10
95.992216
 20
98.979846
 30
0.0
 10
94.863102
 20
98.799896
 30
0.0
 10
93.820426
 20
98.795637
 30
0.0
  0
SPLINE
  5
139
100
AcDbEntity
  8
0
 62
7
100
AcDbSpline
 70
8
 71
3
 72
8
 73
4
 74
0
 40
0
 40
0
 40
0
 40
0
 40
1
 40
1
 40
1
 40
1
 10
93.820426
 20
98.795637
 30
0.0
 10
92.777750
 20
98.795637
 30
0.0
 10
91.459346
 20
98.435739
 30
0.0
 10
90.890638
 20
98.005564
 30
0.0
  0
SPLINE
  5
13a
100
AcDbEntity
  8
0
 62
7
100
AcDbSpline
 70
8
 71
3
 72
8
 73
4
 74
0
 40
0
 40
0
 40
0
 40
0
 40
1
 40
1
 40
1
 40
1
 10
90.890638
 20
98.005564
 30
0.0
 10
89.578479
 20
97.013714
 30
0.0
 10
88.816744
 20
96.995612
 30
0.0
 10
88.034114
 20
97.938483
 30
0.0
  0
LWPOLYLINE
  5
13b
100
AcDbEntity
  8
0
 62
7
100
AcDbPolyline
 90
3
 70
0
 10
94.118131
 20
108.620958
 30
0.0
 10
97.314264
 20
108.636932
 30
0.0
 10
97.128601
 20
104.111586
 30
0.0
  0
SPLINE
  5
13c
100
AcDbEntity
  8
0
 62
7
100
AcDbSpline
 70
8
 71
3
 72
8
 73
4
 74
0
 40
0
 40
0
 40
0
 40
0
 40
1
 40
1
 40
1
 40
1
 10
62.039926
 20
108.239766
 30
0.0
 10
61.428289
 20
109.337560
 30
0.0
 10
60.571611
 20
111.447969
 30
0.0
 10
60.136207
 20
112.929619
 30
0.0
  0
SPLINE
  5
13d
100
AcDbEntity
  8
0
 62
7
100
AcDbSpline
 70
8
 71
3
 72
8
 73
4
 74
0
 40
0
 40
0
 40
0
 40
0
 40
1
 40
1
 40
1
 40
1
 10
60.136207
 20
112.929619
 30
0.0
 10
59.328897
 20
115.676770
 30
0.0
 10
56.834555
 20
120.936820
 30
0.0
 10
54.732606
 20
124.324974
 30
0.0
  0
SPLINE
  5
13e
100
AcDbEntity
  8
0
 62
7
100
AcDbSpline
 70
8
 71
3
 72
8
 73
4
 74
0
 40
0
 40
0
 40
0
 40
0
 40
1
 40
1
 40
1
 40
1
 10
54.732606
 20
124.324974
 30
0.0
 10
51.417906
 20
129.667011
 30
0.0
 10
49.481921
 20
137.817425
 30
0.0
 10
49.734970
 20
145.364637
 30
0.0
  0
SPLINE
  5
13f
100
AcDbEntity
  8
0
 62
7
100
AcDbSpline
 70
8
 71
3
 72
8
 73
4
 74
0
 40
0
 40
0
 40
0
 40
0
 40
1
 40
1
 40
1
 40
1
 10
49.734970
 20
145.364637
 30
0.0
 10
49.828453
 20
148.152784
 30
0.0
 10
49.855662
 20
150.433557
 30
0.0
 10
49.795424
 20
150.433027
 30
0.0
  0
SPLINE
  5
140
100
AcDbEntity
  8
0
 62
7
100
AcDbSpline
 70
8
 71
3
 72
8
 73
4
 74
0
 40
0
 40
0
 40
0
 40
0
 40
1
 40
1
 40
1
 40
1
 10
49.795424
 20
150.433027
 30
0.0
 10
49.735195
 20
150.432462
 30
0.0
 10
48.802829
 20
149.833020
 30
0.0
 10
47.723504
 20
149.100977
 30
0.0
  0
SPLINE
  5
141
100
AcDbEntity
  8
0
 62
7
100
AcDbSpline
 70
8
 71
3
 72
8
 73
4
 74
0
 40
0
 40
0
 40
0
 40
0
 40
1
 40
1
 40
1
 40
1
 10
47.723504
 20
149.100977
 30
0.0
 10
43.911551
 20
146.515142
 30
0.0
 10
42.375915
 20
147.548518
 30
0.0
 10
41.359410
 20
153.383020
 30
0.0
  0
SPLINE
  5
142
100
AcDbEntity
  8
0
 62
7
100
AcDbSpline
 70
8
 71
3
 72
8
 73
4
 74
0
 40
0
 40
0
 40
0
 40
0
 40
1
 40
1
 40
1
 40
1
 10
41.359410
 20
153.383020
 30
0.0
 10
40.902619
 20
156.005059
 30
0.0
 10
40.817063
 20
157.686889
 30
0.0
 10
41.134860
 20
157.796563
 30
0.0
  0
SPLINE
  5
143
100
AcDbEntity
  8
0
 62
7
100
AcDbSpline
 70
8
 71
3
 72
8
 73
4
 74
0
 40
0
 40
0
 40
0
 40
0
 40
1
 40
1
 40
1
 40
1
 10
41.134860
 20
157.796563
 30
0.0
 10
41.929516
 20
158.071278
 30
0.0
 10
41.750787
 20
158.854428
 30
0.0
 10
40.511135
 20
160.530405
 30
0.0
  0
SPLINE
  5
144
100
AcDbEntity
  8
0
 62
7
100
AcDbSpline
 70
8
 71
3
 72
8
 73
4
 74
0
 40
0
 40
0
 40
0
 40
0
 40
1
 40
1
 40
1
 40
1
 10
40.511135
 20
160.530405
 30
0.0
 10
39.826317
 20
161.456237
 30
0.0
 10
39.512909
 20
162.429452
 30
0.0
 10
39.723210
 20
162.976752
 30
0.0
  0
SPLINE
  5
145
100
AcDbEntity
  8
0
 62
7
100
AcDbSpline
 70
8
 71
3
 72
8
 73
4
 74
0
 40
0
 40
0
 40
0
 40
0
 40
1
 40
1
 40
1
 40
1
 10
39.723210
 20
162.976752
 30
0.0
 10
40.049758
 20
163.827519
 30
0.0
 10
40.141003
 20
163.824325
 30
0.0
 10
41.129943
 20
162.928839
 30
0.0
  0
SPLINE
  5
146
100
AcDbEntity
  8
0
 62
7
100
AcDbSpline
 70
8
 71
3
 72
8
 73
4
 74
0
 40
0
 40
0
 40
0
 40
0
 40
1
 40
1
 40
1
 40
1
 10
41.129943
 20
162.928839
 30
0.0
 10
42.515942
 20
161.675050
 30
0.0
 10
42.813577
 20
162.068490
 30
0.0
 10
42.171840
 20
164.304543
 30
0.0
  0
SPLINE
  5
147
100
AcDbEntity
  8
0
 62
7
100
AcDbSpline
 70
8
 71
3
 72
8
 73
4
 74
0
 40
0
 40
0
 40
0
 40
0
 40
1
 40
1
 40
1
 40
1
 10
42.171840
 20
164.304543
 30
0.0
 10
41.883875
 20
165.308105
 30
0.0
 10
41.648261
 20
166.579460
 30
0.0
 10
41.648261
 20
167.129423
 30
0.0
  0
SPLINE
  5
148
100
AcDbEntity
  8
0
 62
7
100
AcDbSpline
 70
8
 71
3
 72
8
 73
4
 74
0
 40
0
 40
0
 40
0
 40
0
 40
1
 40
1
 40
1
 40
1
 10
41.648261
 20
167.129423
 30
0.0
 10
41.648261
 20
167.958361
 30
0.0
 10
41.785258
 20
168.016391
 30
0.0
 10
42.447295
 20
167.467494
 30
0.0
  0
SPLINE
  5
149
100
AcDbEntity
  8
0
 62
7
100
AcDbSpline
 70
8
 71
3
 72
8
 73
4
 74
0
 40
0
 40
0
 40
0
 40
0
 40
1
 40
1
 40
1
 40
1
 10
42.447295
 20
167.467494
 30
0.0
 10
42.886763
 20
167.102804
 30
0.0
 10
43.246328
 20
166.469255
 30
0.0
 10
43.246328
 20
166.059313
 30
0.0
  0
SPLINE
  5
14a
100
AcDbEntity
  8
0
 62
7
100
AcDbSpline
 70
8
 71
3
 72
8
 73
4
 74
0
 40
0
 40
0
 40
0
 40
0
 40
1
 40
1
 40
1
 40
1
 10
43.246328
 20
166.059313
 30
0.0
 10
43.246328
 20
165.649368
 30
0.0
 10
44.175742
 20
164.300817
 30
0.0
 10
45.311692
 20
163.063002
 30
0.0
  0
SPLINE
  5
14b
100
AcDbEntity
  8
0
 62
7
100
AcDbSpline
 70
8
 71
3
 72
8
 73
4
 74
0
 40
0
 40
0
 40
0
 40
0
 40
1
 40
1
 40
1
 40
1
 10
45.311692
 20
163.063002
 30
0.0
 10
46.447639
 20
161.825186
 30
0.0
 10
47.885006
 20
159.974054
 30
0.0
 10
48.505832
 20
158.949195
 30
0.0
  0
LWPOLYLINE
  5
14c
100
AcDbEntity
  8
0
 62
7
100
AcDbPolyline
 90
2
 70
0
 10
88.034114
 20
97.938483
 30
0.0
 10
88.034114
 20
97.940611
 30
0.0
  0
SPLINE
  5
14d
100
AcDbEntity
  8
0
 62
7
100
AcDbSpline
 70
8
 71
3
 72
8
 73
4
 74
0
 40
0
 40
0
 40
0
 40
0
 40
1
 40
1
 40
1
 40
1
 10
49.599139
 20
158.949195
 30
0.0
 10
49.565368
 20
160.722598
 30
0.0
 10
48.689164
 20
163.672060
 30
0.0
 10
48.610630
 20
162.276655
 30
0.0
  0
SPLINE
  5
14e
100
AcDbEntity
  8
0
 62
7
100
AcDbSpline
 70
8
 71
3
 72
8
 73
4
 74
0
 40
0
 40
0
 40
0
 40
0
 40
1
 40
1
 40
1
 40
1
 10
48.610630
 20
162.276655
 30
0.0
 10
48.471602
 20
159.805285
 30
0.0
 10
43.902376
 20
165.586015
 30
0.0
 10
41.351553
 20
171.460445
 30
0.0
  0
SPLINE
  5
14f
100
AcDbEntity
  8
0
 62
7
100
AcDbSpline
 70
8
 71
3
 72
8
 73
4
 74
0
 40
0
 40
0
 40
0
 40
0
 40
1
 40
1
 40
1
 40
1
 10
41.351553
 20
171.460445
 30
0.0
 10
40.715794
 20
172.924529
 30
0.0
 10
39.325779
 20
175.987922
 30
0.0
 10
38.262622
 20
178.268695
 30
0.0
  0
SPLINE
  5
150
100
AcDbEntity
  8
0
 62
7
100
AcDbSpline
 70
8
 71
3
 72
8
 73
4
 74
0
 40
0
 40
0
 40
0
 40
0
 40
1
 40
1
 40
1
 40
1
 10
38.262622
 20
178.268695
 30
0.0
 10
37.199471
 20
180.548938
 30
0.0
 10
35.929993
 20
183.636288
 30
0.0
 10
35.441560
 20
185.128589
 30
0.0
  0
SPLINE
  5
151
100
AcDbEntity
  8
0
 62
7
100
AcDbSpline
 70
8
 71
3
 72
8
 73
4
 74
0
 40
0
 40
0
 40
0
 40
0
 40
1
 40
1
 40
1
 40
1
 10
35.441560
 20
185.128589
 30
0.0
 10
34.884495
 20
186.830651
 30
0.0
 10
34.188053
 20
187.938029
 30
0.0
 10
33.573009
 20
188.098280
 30
0.0
  0
SPLINE
  5
152
100
AcDbEntity
  8
0
 62
7
100
AcDbSpline
 70
8
 71
3
 72
8
 73
4
 74
0
 40
0
 40
0
 40
0
 40
0
 40
1
 40
1
 40
1
 40
1
 10
33.573009
 20
188.098280
 30
0.0
 10
32.398366
 20
188.405471
 30
0.0
 10
32.371120
 20
188.902727
 30
0.0
 10
33.376193
 20
191.691404
 30
0.0
  0
SPLINE
  5
153
100
AcDbEntity
  8
0
 62
7
100
AcDbSpline
 70
8
 71
3
 72
8
 73
4
 74
0
 40
0
 40
0
 40
0
 40
0
 40
1
 40
1
 40
1
 40
1
 10
33.376193
 20
191.691404
 30
0.0
 10
34.219044
 20
194.029147
 30
0.0
 10
34.467673
 20
199.943506
 30
0.0
 10
33.723123
 20
199.943506
 30
0.0
  0
SPLINE
  5
154
100
AcDbEntity
  8
0
 62
7
100
AcDbSpline
 70
8
 71
3
 72
8
 73
4
 74
0
 40
0
 40
0
 40
0
 40
0
 40
1
 40
1
 40
1
 40
1
 10
33.723123
 20
199.943506
 30
0.0
 10
33.466018
 20
199.943506
 30
0.0
 10
32.959438
 20
199.586271
 30
0.0
 10
32.597389
 20
199.150772
 30
0.0
  0
SPLINE
  5
155
100
AcDbEntity
  8
0
 62
7
100
AcDbSpline
 70
8
 71
3
 72
8
 73
4
 74
0
 40
0
 40
0
 40
0
 40
0
 40
1
 40
1
 40
1
 40
1
 10
32.597389
 20
199.150772
 30
0.0
 10
30.816536
 20
197.005758
 30
0.0
 10
30.875498
 20
201.357543
 30
0.0
 10
32.714641
 20
207.804831
 30
0.0
  0
SPLINE
  5
156
100
AcDbEntity
  8
0
 62
7
100
AcDbSpline
 70
8
 71
3
 72
8
 73
4
 74
0
 40
0
 40
0
 40
0
 40
0
 40
1
 40
1
 40
1
 40
1
 10
32.714641
 20
207.804831
 30
0.0
 10
33.883829
 20
211.903197
 30
0.0
 10
33.726631
 20
212.819979
 30
0.0
 10
32.035606
 20
211.764242
 30
0.0
  0
SPLINE
  5
157
100
AcDbEntity
  8
0
 62
7
100
AcDbSpline
 70
8
 71
3
 72
8
 73
4
 74
0
 40
0
 40
0
 40
0
 40
0
 40
1
 40
1
 40
1
 40
1
 10
32.035606
 20
211.764242
 30
0.0
 10
31.151469
 20
211.212684
 30
0.0
 10
30.991897
 20
211.255808
 30
0.0
 10
30.977515
 20
212.050670
 30
0.0
  0
SPLINE
  5
158
100
AcDbEntity
  8
0
 62
7
100
AcDbSpline
 70
8
 71
3
 72
8
 73
4
 74
0
 40
0
 40
0
 40
0
 40
0
 40
1
 40
1
 40
1
 40
1
 10
30.977515
 20
212.050670
 30
0.0
 10
30.968202
 20
212.565496
 30
0.0
 10
30.630083
 20
213.422648
 30
0.0
 10
30.226161
 20
213.955043
 30
0.0
  0
SPLINE
  5
159
100
AcDbEntity
  8
0
 62
7
100
AcDbSpline
 70
8
 71
3
 72
8
 73
4
 74
0
 40
0
 40
0
 40
0
 40
0
 40
1
 40
1
 40
1
 40
1
 10
30.226161
 20
213.955043
 30
0.0
 10
29.690195
 20
214.662060
 30
0.0
 10
29.622806
 20
215.380260
 30
0.0
 10
29.976758
 20
216.613816
 30
0.0
  0
SPLINE
  5
15a
100
AcDbEntity
  8
0
 62
7
100
AcDbSpline
 70
8
 71
3
 72
8
 73
4
 74
0
 40
0
 40
0
 40
0
 40
0
 40
1
 40
1
 40
1
 40
1
 10
29.976758
 20
216.613816
 30
0.0
 10
30.749150
 20
219.305068
 30
0.0
 10
30.616031
 20
219.795934
 30
0.0
 10
29.209125
 20
219.442956
 30
0.0
  0
SPLINE
  5
15b
100
AcDbEntity
  8
0
 62
7
100
AcDbSpline
 70
8
 71
3
 72
8
 73
4
 74
0
 40
0
 40
0
 40
0
 40
0
 40
1
 40
1
 40
1
 40
1
 10
29.209125
 20
219.442956
 30
0.0
 10
27.256812
 20
218.953153
 30
0.0
 10
27.197385
 20
219.537190
 30
0.0
 10
28.863699
 20
222.836432
 30
0.0
  0
SPLINE
  5
15c
100
AcDbEntity
  8
0
 62
7
100
AcDbSpline
 70
8
 71
3
 72
8
 73
4
 74
0
 40
0
 40
0
 40
0
 40
0
 40
1
 40
1
 40
1
 40
1
 10
28.863699
 20
222.836432
 30
0.0
 10
30.460956
 20
225.998320
 30
0.0
 10
30.447511
 20
226.563188
 30
0.0
 10
28.774915
 20
226.563188
 30
0.0
  0
SPLINE
  5
15d
100
AcDbEntity
  8
0
 62
7
100
AcDbSpline
 70
8
 71
3
 72
8
 73
4
 74
0
 40
0
 40
0
 40
0
 40
0
 40
1
 40
1
 40
1
 40
1
 10
28.774915
 20
226.563188
 30
0.0
 10
28.237787
 20
226.563188
 30
0.0
 10
27.798317
 20
226.751123
 30
0.0
 10
27.798317
 20
226.981117
 30
0.0
  0
SPLINE
  5
15e
100
AcDbEntity
  8
0
 62
7
100
AcDbSpline
 70
8
 71
3
 72
8
 73
4
 74
0
 40
0
 40
0
 40
0
 40
0
 40
1
 40
1
 40
1
 40
1
 10
27.798317
 20
226.981117
 30
0.0
 10
27.798317
 20
227.211644
 30
0.0
 10
29.789224
 20
230.777085
 30
0.0
 10
32.222542
 20
234.905265
 30
0.0
  0
SPLINE
  5
15f
100
AcDbEntity
  8
0
 62
7
100
AcDbSpline
 70
8
 71
3
 72
8
 73
4
 74
0
 40
0
 40
0
 40
0
 40
0
 40
1
 40
1
 40
1
 40
1
 10
32.222542
 20
234.905265
 30
0.0
 10
35.567030
 20
240.579518
 30
0.0
 10
37.821083
 20
243.661542
 30
0.0
 10
41.458512
 20
247.535240
 30
0.0
  0
SPLINE
  5
160
100
AcDbEntity
  8
0
 62
7
100
AcDbSpline
 70
8
 71
3
 72
8
 73
4
 74
0
 40
0
 40
0
 40
0
 40
0
 40
1
 40
1
 40
1
 40
1
 10
41.458512
 20
247.535240
 30
0.0
 10
45.653983
 20
252.003086
 30
0.0
 10
46.383620
 20
253.066810
 30
0.0
 10
47.155382
 20
255.841113
 30
0.0
  0
SPLINE
  5
161
100
AcDbEntity
  8
0
 62
7
100
AcDbSpline
 70
8
 71
3
 72
8
 73
4
 74
0
 40
0
 40
0
 40
0
 40
0
 40
1
 40
1
 40
1
 40
1
 10
47.155382
 20
255.841113
 30
0.0
 10
48.367823
 20
260.199288
 30
0.0
 10
48.327127
 20
261.367891
 30
0.0
 10
46.975124
 20
261.014382
 30
0.0
  0
SPLINE
  5
162
100
AcDbEntity
  8
0
 62
7
100
AcDbSpline
 70
8
 71
3
 72
8
 73
4
 74
0
 40
0
 40
0
 40
0
 40
0
 40
1
 40
1
 40
1
 40
1
 10
46.975124
 20
261.014382
 30
0.0
 10
45.447148
 20
260.615086
 30
0.0
 10
45.641872
 20
261.782625
 30
0.0
 10
47.374641
 20
263.409622
 30
0.0
  0
SPLINE
  5
163
100
AcDbEntity
  8
0
 62
7
100
AcDbSpline
 70
8
 71
3
 72
8
 73
4
 74
0
 40
0
 40
0
 40
0
 40
0
 40
1
 40
1
 40
1
 40
1
 10
47.374641
 20
263.409622
 30
0.0
 10
48.211878
 20
264.195966
 30
0.0
 10
49.790717
 20
264.940254
 30
0.0
 10
51.059498
 20
265.145757
 30
0.0
  0
SPLINE
  5
164
100
AcDbEntity
  8
0
 62
7
100
AcDbSpline
 70
8
 71
3
 72
8
 73
4
 74
0
 40
0
 40
0
 40
0
 40
0
 40
1
 40
1
 40
1
 40
1
 10
51.059498
 20
265.145757
 30
0.0
 10
52.371893
 20
265.359247
 30
0.0
 10
55.420706
 20
266.827590
 30
0.0
 10
58.517144
 20
268.737283
 30
0.0
  0
SPLINE
  5
165
100
AcDbEntity
  8
0
 62
7
100
AcDbSpline
 70
8
 71
3
 72
8
 73
4
 74
0
 40
0
 40
0
 40
0
 40
0
 40
1
 40
1
 40
1
 40
1
 10
58.517144
 20
268.737283
 30
0.0
 10
61.397871
 20
270.514414
 30
0.0
 10
65.312945
 20
272.671141
 30
0.0
 10
67.217307
 20
273.529359
 30
0.0
  0
SPLINE
  5
166
100
AcDbEntity
  8
0
 62
7
100
AcDbSpline
 70
8
 71
3
 72
8
 73
4
 74
0
 40
0
 40
0
 40
0
 40
0
 40
1
 40
1
 40
1
 40
1
 10
67.217307
 20
273.529359
 30
0.0
 10
70.404790
 20
274.966288
 30
0.0
 10
70.600550
 20
275.148367
 30
0.0
 10
69.682117
 20
275.822378
 30
0.0
  0
SPLINE
  5
167
100
AcDbEntity
  8
0
 62
7
100
AcDbSpline
 70
8
 71
3
 72
8
 73
4
 74
0
 40
0
 40
0
 40
0
 40
0
 40
1
 40
1
 40
1
 40
1
 10
69.682117
 20
275.822378
 30
0.0
 10
68.734401
 20
276.518216
 30
0.0
 10
68.754408
 20
276.572521
 30
0.0
 10
70.081634
 20
276.905266
 30
0.0
  0
SPLINE
  5
168
100
AcDbEntity
  8
0
 62
7
100
AcDbSpline
 70
8
 71
3
 72
8
 73
4
 74
0
 40
0
 40
0
 40
0
 40
0
 40
1
 40
1
 40
1
 40
1
 10
70.081634
 20
276.905266
 30
0.0
 10
70.850088
 20
277.097993
 30
0.0
 10
72.067149
 20
277.108109
 30
0.0
 10
72.786215
 20
276.926563
 30
0.0
  0
SPLINE
  5
169
100
AcDbEntity
  8
0
 62
7
100
AcDbSpline
 70
8
 71
3
 72
8
 73
4
 74
0
 40
0
 40
0
 40
0
 40
0
 40
1
 40
1
 40
1
 40
1
 10
72.786215
 20
276.926563
 30
0.0
 10
73.621333
 20
276.717332
 30
0.0
 10
75.164340
 20
277.071906
 30
0.0
 10
77.057724
 20
277.908829
 30
0.0
  0
SPLINE
  5
16a
100
AcDbEntity
  8
0
 62
7
100
AcDbSpline
 70
8
 71
3
 72
8
 73
4
 74
0
 40
0
 40
0
 40
0
 40
0
 40
1
 40
1
 40
1
 40
1
 10
77.057724
 20
277.908829
 30
0.0
 10
78.687989
 20
278.629690
 30
0.0
 10
82.953789
 20
280.166711
 30
0.0
 10
86.537284
 20
281.324667
 30
0.0
  0
SPLINE
  5
16b
100
AcDbEntity
  8
0
 62
7
100
AcDbSpline
 70
8
 71
3
 72
8
 73
4
 74
0
 40
0
 40
0
 40
0
 40
0
 40
1
 40
1
 40
1
 40
1
 10
86.537284
 20
281.324667
 30
0.0
 10
95.165886
 20
284.112813
 30
0.0
 10
102.603094
 20
284.651595
 30
0.0
 10
110.564989
 20
283.065062
 30
0.0
  0
SPLINE
  5
16c
100
AcDbEntity
  8
0
 62
7
100
AcDbSpline
 70
8
 71
3
 72
8
 73
4
 74
0
 40
0
 40
0
 40
0
 40
0
 40
1
 40
1
 40
1
 40
1
 10
110.564989
 20
283.065062
 30
0.0
 10
115.247448
 20
282.131776
 30
0.0
 10
116.047218
 20
281.800094
 30
0.0
 10
117.844265
 20
280.046390
 30
0.0
  0
LWPOLYLINE
  5
16d
100
AcDbEntity
  8
0
 62
7
100
AcDbPolyline
 90
3
 70
0
 10
48.505832
 20
158.949195
 30
0.0
 10
49.634617
 20
157.085817
 30
0.0
 10
49.599139
 20
158.949195
 30
0.0
  0
SPLINE
  5
16e
100
AcDbEntity
  8
0
 62
7
100
AcDbSpline
 70
8
 71
3
 72
8
 73
4
 74
0
 40
0
 40
0
 40
0
 40
0
 40
1
 40
1
 40
1
 40
1
 10
122.610570
 20
278.735104
 30
0.0
 10
125.320391
 20
279.384624
 30
0.0
 10
125.392121
 20
279.369717
 30
0.0
 10
127.849486
 20
277.628790
 30
0.0
  0
SPLINE
  5
16f
100
AcDbEntity
  8
0
 62
7
100
AcDbSpline
 70
8
 71
3
 72
8
 73
4
 74
0
 40
0
 40
0
 40
0
 40
0
 40
1
 40
1
 40
1
 40
1
 10
127.849486
 20
277.628790
 30
0.0
 10
134.939529
 20
272.606188
 30
0.0
 10
135.677142
 20
271.947083
 30
0.0
 10
136.200611
 20
270.166761
 30
0.0
  0
SPLINE
  5
170
100
AcDbEntity
  8
0
 62
7
100
AcDbSpline
 70
8
 71
3
 72
8
 73
4
 74
0
 40
0
 40
0
 40
0
 40
0
 40
1
 40
1
 40
1
 40
1
 10
136.200611
 20
270.166761
 30
0.0
 10
136.664212
 20
268.589280
 30
0.0
 10
137.034942
 20
268.291671
 30
0.0
 10
139.061642
 20
267.866289
 30
0.0
  0
SPLINE
  5
171
100
AcDbEntity
  8
0
 62
7
100
AcDbSpline
 70
8
 71
3
 72
8
 73
4
 74
0
 40
0
 40
0
 40
0
 40
0
 40
1
 40
1
 40
1
 40
1
 10
139.061642
 20
267.866289
 30
0.0
 10
140.961737
 20
267.467526
 30
0.0
 10
141.519233
 20
267.068763
 30
0.0
 10
142.092259
 20
265.697849
 30
0.0
  0
SPLINE
  5
172
100
AcDbEntity
  8
0
 62
7
100
AcDbSpline
 70
8
 71
3
 72
8
 73
4
 74
0
 40
0
 40
0
 40
0
 40
0
 40
1
 40
1
 40
1
 40
1
 10
142.092259
 20
265.697849
 30
0.0
 10
142.736530
 20
264.157102
 30
0.0
 10
143.150771
 20
263.937222
 30
0.0
 10
147.113549
 20
263.032686
 30
0.0
  0
SPLINE
  5
173
100
AcDbEntity
  8
0
 62
7
100
AcDbSpline
 70
8
 71
3
 72
8
 73
4
 74
0
 40
0
 40
0
 40
0
 40
0
 40
1
 40
1
 40
1
 40
1
 10
147.113549
 20
263.032686
 30
0.0
 10
152.261121
 20
261.857693
 30
0.0
 10
153.524303
 20
261.133107
 30
0.0
 10
152.524968
 20
259.929895
 30
0.0
  0
SPLINE
  5
174
100
AcDbEntity
  8
0
 62
7
100
AcDbSpline
 70
8
 71
3
 72
8
 73
4
 74
0
 40
0
 40
0
 40
0
 40
0
 40
1
 40
1
 40
1
 40
1
 10
152.524968
 20
259.929895
 30
0.0
 10
151.954027
 20
259.242044
 30
0.0
 10
152.043635
 20
258.978510
 30
0.0
 10
153.077765
 20
258.302368
 30
0.0
  0
SPLINE
  5
175
100
AcDbEntity
  8
0
 62
7
100
AcDbSpline
 70
8
 71
3
 72
8
 73
4
 74
0
 40
0
 40
0
 40
0
 40
0
 40
1
 40
1
 40
1
 40
1
 10
153.077765
 20
258.302368
 30
0.0
 10
153.756577
 20
257.858353
 30
0.0
 10
155.202230
 20
257.124183
 30
0.0
 10
156.290335
 20
256.670581
 30
0.0
  0
SPLINE
  5
176
100
AcDbEntity
  8
0
 62
7
100
AcDbSpline
 70
8
 71
3
 72
8
 73
4
 74
0
 40
0
 40
0
 40
0
 40
0
 40
1
 40
1
 40
1
 40
1
 10
156.290335
 20
256.670581
 30
0.0
 10
158.656068
 20
255.683523
 30
0.0
 10
159.191751
 20
254.799219
 30
0.0
 10
159.687915
 20
251.061282
 30
0.0
  0
SPLINE
  5
177
100
AcDbEntity
  8
0
 62
7
100
AcDbSpline
 70
8
 71
3
 72
8
 73
4
 74
0
 40
0
 40
0
 40
0
 40
0
 40
1
 40
1
 40
1
 40
1
 10
159.687915
 20
251.061282
 30
0.0
 10
160.095252
 20
247.992034
 30
0.0
 10
160.107317
 20
248.000551
 30
0.0
 10
156.975409
 20
249.214409
 30
0.0
  0
SPLINE
  5
178
100
AcDbEntity
  8
0
 62
7
100
AcDbSpline
 70
8
 71
3
 72
8
 73
4
 74
0
 40
0
 40
0
 40
0
 40
0
 40
1
 40
1
 40
1
 40
1
 10
156.975409
 20
249.214409
 30
0.0
 10
156.389451
 20
249.441741
 30
0.0
 10
157.494715
 20
247.969673
 30
0.0
 10
159.431553
 20
245.942849
 30
0.0
  0
SPLINE
  5
179
100
AcDbEntity
  8
0
 62
7
100
AcDbSpline
 70
8
 71
3
 72
8
 73
4
 74
0
 40
0
 40
0
 40
0
 40
0
 40
1
 40
1
 40
1
 40
1
 10
159.431553
 20
245.942849
 30
0.0
 10
162.302337
 20
242.939085
 30
0.0
 10
165.764777
 20
237.737599
 30
0.0
 10
165.764777
 20
236.428977
 30
0.0
  0
SPLINE
  5
17a
100
AcDbEntity
  8
0
 62
7
100
AcDbSpline
 70
8
 71
3
 72
8
 73
4
 74
0
 40
0
 40
0
 40
0
 40
0
 40
1
 40
1
 40
1
 40
1
 10
165.764777
 20
236.428977
 30
0.0
 10
165.764777
 20
236.272451
 30
0.0
 10
165.285358
 20
236.145211
 30
0.0
 10
164.699400
 20
236.145211
 30
0.0
  0
SPLINE
  5
17b
100
AcDbEntity
  8
0
 62
7
100
AcDbSpline
 70
8
 71
3
 72
8
 73
4
 74
0
 40
0
 40
0
 40
0
 40
0
 40
1
 40
1
 40
1
 40
1
 10
164.699400
 20
236.145211
 30
0.0
 10
163.281569
 20
236.145211
 30
0.0
 10
163.347614
 20
235.617075
 30
0.0
 10
165.232088
 20
231.886060
 30
0.0
  0
SPLINE
  5
17c
100
AcDbEntity
  8
0
 62
7
100
AcDbSpline
 70
8
 71
3
 72
8
 73
4
 74
0
 40
0
 40
0
 40
0
 40
0
 40
1
 40
1
 40
1
 40
1
 10
165.232088
 20
231.886060
 30
0.0
 10
166.111024
 20
230.145666
 30
0.0
 10
166.830155
 20
228.576169
 30
0.0
 10
166.830155
 20
228.398349
 30
0.0
  0
SPLINE
  5
17d
100
AcDbEntity
  8
0
 62
7
100
AcDbSpline
 70
8
 71
3
 72
8
 73
4
 74
0
 40
0
 40
0
 40
0
 40
0
 40
1
 40
1
 40
1
 40
1
 10
166.830155
 20
228.398349
 30
0.0
 10
166.830155
 20
228.219999
 30
0.0
 10
166.111024
 20
228.232242
 30
0.0
 10
165.232088
 20
228.424963
 30
0.0
  0
SPLINE
  5
17e
100
AcDbEntity
  8
0
 62
7
100
AcDbSpline
 70
8
 71
3
 72
8
 73
4
 74
0
 40
0
 40
0
 40
0
 40
0
 40
1
 40
1
 40
1
 40
1
 10
165.232088
 20
228.424963
 30
0.0
 10
163.210982
 20
228.868980
 30
0.0
 10
163.210982
 20
228.435603
 30
0.0
 10
165.232088
 20
224.432012
 30
0.0
  0
SPLINE
  5
17f
100
AcDbEntity
  8
0
 62
7
100
AcDbSpline
 70
8
 71
3
 72
8
 73
4
 74
0
 40
0
 40
0
 40
0
 40
0
 40
1
 40
1
 40
1
 40
1
 10
165.232088
 20
224.432012
 30
0.0
 10
167.040089
 20
220.852729
 30
0.0
 10
167.167566
 20
220.172861
 30
0.0
 10
166.031122
 20
220.172861
 30
0.0
  0
SPLINE
  5
180
100
AcDbEntity
  8
0
 62
7
100
AcDbSpline
 70
8
 71
3
 72
8
 73
4
 74
0
 40
0
 40
0
 40
0
 40
0
 40
1
 40
1
 40
1
 40
1
 10
166.031122
 20
220.172861
 30
0.0
 10
164.840392
 20
220.172861
 30
0.0
 10
165.052513
 20
218.900973
 30
0.0
 10
166.830155
 20
215.381321
 30
0.0
  0
SPLINE
  5
181
100
AcDbEntity
  8
0
 62
7
100
AcDbSpline
 70
8
 71
3
 72
8
 73
4
 74
0
 40
0
 40
0
 40
0
 40
0
 40
1
 40
1
 40
1
 40
1
 10
166.830155
 20
215.381321
 30
0.0
 10
169.010804
 20
211.064139
 30
0.0
 10
168.961918
 20
208.075815
 30
0.0
 10
166.696983
 20
207.240488
 30
0.0
  0
SPLINE
  5
182
100
AcDbEntity
  8
0
 62
7
100
AcDbSpline
 70
8
 71
3
 72
8
 73
4
 74
0
 40
0
 40
0
 40
0
 40
0
 40
1
 40
1
 40
1
 40
1
 10
166.696983
 20
207.240488
 30
0.0
 10
165.541774
 20
206.814572
 30
0.0
 10
165.468901
 20
203.985966
 30
0.0
 10
166.563810
 20
202.071478
 30
0.0
  0
SPLINE
  5
183
100
AcDbEntity
  8
0
 62
7
100
AcDbSpline
 70
8
 71
3
 72
8
 73
4
 74
0
 40
0
 40
0
 40
0
 40
0
 40
1
 40
1
 40
1
 40
1
 10
166.563810
 20
202.071478
 30
0.0
 10
167.620896
 20
200.223541
 30
0.0
 10
167.543649
 20
199.409510
 30
0.0
 10
166.311145
 20
199.409510
 30
0.0
  0
SPLINE
  5
184
100
AcDbEntity
  8
0
 62
7
100
AcDbSpline
 70
8
 71
3
 72
8
 73
4
 74
0
 40
0
 40
0
 40
0
 40
0
 40
1
 40
1
 40
1
 40
1
 10
166.311145
 20
199.409510
 30
0.0
 10
165.677108
 20
199.409510
 30
0.0
 10
164.925180
 20
198.763715
 30
0.0
 10
164.417739
 20
197.783046
 30
0.0
  0
SPLINE
  5
185
100
AcDbEntity
  8
0
 62
7
100
AcDbSpline
 70
8
 71
3
 72
8
 73
4
 74
0
 40
0
 40
0
 40
0
 40
0
 40
1
 40
1
 40
1
 40
1
 10
164.417739
 20
197.783046
 30
0.0
 10
163.616617
 20
196.234846
 30
0.0
 10
163.641645
 20
196.038924
 30
0.0
 10
164.936749
 20
193.723014
 30
0.0
  0
SPLINE
  5
186
100
AcDbEntity
  8
0
 62
7
100
AcDbSpline
 70
8
 71
3
 72
8
 73
4
 74
0
 40
0
 40
0
 40
0
 40
0
 40
1
 40
1
 40
1
 40
1
 10
164.936749
 20
193.723014
 30
0.0
 10
166.395897
 20
191.113751
 30
0.0
 10
166.649341
 20
189.574602
 30
0.0
 10
165.714849
 20
188.997488
 30
0.0
  0
SPLINE
  5
187
100
AcDbEntity
  8
0
 62
7
100
AcDbSpline
 70
8
 71
3
 72
8
 73
4
 74
0
 40
0
 40
0
 40
0
 40
0
 40
1
 40
1
 40
1
 40
1
 10
165.714849
 20
188.997488
 30
0.0
 10
165.327849
 20
188.758443
 30
0.0
 10
165.241343
 20
187.273065
 30
0.0
 10
165.457192
 20
184.573827
 30
0.0
  0
SPLINE
  5
188
100
AcDbEntity
  8
0
 62
7
100
AcDbSpline
 70
8
 71
3
 72
8
 73
4
 74
0
 40
0
 40
0
 40
0
 40
0
 40
1
 40
1
 40
1
 40
1
 10
165.457192
 20
184.573827
 30
0.0
 10
165.666245
 20
181.959244
 30
0.0
 10
165.532957
 20
179.465512
 30
0.0
 10
165.083501
 20
177.581371
 30
0.0
  0
SPLINE
  5
189
100
AcDbEntity
  8
0
 62
7
100
AcDbSpline
 70
8
 71
3
 72
8
 73
4
 74
0
 40
0
 40
0
 40
0
 40
0
 40
1
 40
1
 40
1
 40
1
 10
165.083501
 20
177.581371
 30
0.0
 10
164.449393
 20
174.924192
 30
0.0
 10
164.260736
 20
174.665981
 30
0.0
 10
163.041499
 20
174.791627
 30
0.0
  0
SPLINE
  5
18a
100
AcDbEntity
  8
0
 62
7
100
AcDbSpline
 70
8
 71
3
 72
8
 73
4
 74
0
 40
0
 40
0
 40
0
 40
0
 40
1
 40
1
 40
1
 40
1
 10
163.041499
 20
174.791627
 30
0.0
 10
161.027181
 20
174.998197
 30
0.0
 10
159.366277
 20
172.867557
 30
0.0
 10
158.496054
 20
168.960851
 30
0.0
  0
SPLINE
  5
18b
100
AcDbEntity
  8
0
 62
7
100
AcDbSpline
 70
8
 71
3
 72
8
 73
4
 74
0
 40
0
 40
0
 40
0
 40
0
 40
1
 40
1
 40
1
 40
1
 10
158.496054
 20
168.960851
 30
0.0
 10
157.556674
 20
164.743229
 30
0.0
 10
155.663807
 20
160.677341
 30
0.0
 10
154.445135
 20
160.259943
 30
0.0
  0
SPLINE
  5
18c
100
AcDbEntity
  8
0
 62
7
100
AcDbSpline
 70
8
 71
3
 72
8
 73
4
 74
0
 40
0
 40
0
 40
0
 40
0
 40
1
 40
1
 40
1
 40
1
 10
154.445135
 20
160.259943
 30
0.0
 10
153.898400
 20
160.073072
 30
0.0
 10
153.512929
 20
159.402258
 30
0.0
 10
153.512929
 20
158.638271
 30
0.0
  0
SPLINE
  5
18d
100
AcDbEntity
  8
0
 62
7
100
AcDbSpline
 70
8
 71
3
 72
8
 73
4
 74
0
 40
0
 40
0
 40
0
 40
0
 40
1
 40
1
 40
1
 40
1
 10
153.512929
 20
158.638271
 30
0.0
 10
153.512929
 20
157.922203
 30
0.0
 10
152.794645
 20
155.842140
 30
0.0
 10
151.916748
 20
154.016030
 30
0.0
  0
LWPOLYLINE
  5
18e
100
AcDbEntity
  8
0
 62
7
100
AcDbPolyline
 90
3
 70
0
 10
117.844265
 20
280.046390
 30
0.0
 10
119.863125
 20
278.076001
 30
0.0
 10
122.610570
 20
278.735104
 30
0.0
  0
SPLINE
  5
18f
100
AcDbEntity
  8
0
 62
7
100
AcDbSpline
 70
8
 71
3
 72
8
 73
4
 74
0
 40
0
 40
0
 40
0
 40
0
 40
1
 40
1
 40
1
 40
1
 10
151.443075
 20
149.763802
 30
0.0
 10
153.135759
 20
148.359348
 30
0.0
 10
154.013956
 20
148.626610
 30
0.0
 10
154.933989
 20
150.827526
 30
0.0
  0
SPLINE
  5
190
100
AcDbEntity
  8
0
 62
7
100
AcDbSpline
 70
8
 71
3
 72
8
 73
4
 74
0
 40
0
 40
0
 40
0
 40
0
 40
1
 40
1
 40
1
 40
1
 10
154.933989
 20
150.827526
 30
0.0
 10
155.525380
 20
152.242094
 30
0.0
 10
155.693302
 20
153.865896
 30
0.0
 10
155.511232
 20
156.409139
 30
0.0
  0
SPLINE
  5
191
100
AcDbEntity
  8
0
 62
7
100
AcDbSpline
 70
8
 71
3
 72
8
 73
4
 74
0
 40
0
 40
0
 40
0
 40
0
 40
1
 40
1
 40
1
 40
1
 10
155.511232
 20
156.409139
 30
0.0
 10
155.255318
 20
159.983630
 30
0.0
 10
155.260528
 20
160.000134
 30
0.0
 10
157.080227
 20
161.387553
 30
0.0
  0
SPLINE
  5
192
100
AcDbEntity
  8
0
 62
7
100
AcDbSpline
 70
8
 71
3
 72
8
 73
4
 74
0
 40
0
 40
0
 40
0
 40
0
 40
1
 40
1
 40
1
 40
1
 10
157.080227
 20
161.387553
 30
0.0
 10
159.088249
 20
162.918185
 30
0.0
 10
159.829627
 20
164.404627
 30
0.0
 10
160.356022
 20
167.954096
 30
0.0
  0
SPLINE
  5
193
100
AcDbEntity
  8
0
 62
7
100
AcDbSpline
 70
8
 71
3
 72
8
 73
4
 74
0
 40
0
 40
0
 40
0
 40
0
 40
1
 40
1
 40
1
 40
1
 10
160.356022
 20
167.954096
 30
0.0
 10
160.854023
 20
171.312434
 30
0.0
 10
162.035956
 20
171.466296
 30
0.0
 10
162.035956
 20
168.172378
 30
0.0
  0
SPLINE
  5
194
100
AcDbEntity
  8
0
 62
7
100
AcDbSpline
 70
8
 71
3
 72
8
 73
4
 74
0
 40
0
 40
0
 40
0
 40
0
 40
1
 40
1
 40
1
 40
1
 10
162.035956
 20
168.172378
 30
0.0
 10
162.035956
 20
164.299745
 30
0.0
 10
161.216715
 20
162.166977
 30
0.0
 10
158.773410
 20
159.678568
 30
0.0
  0
SPLINE
  5
195
100
AcDbEntity
  8
0
 62
7
100
AcDbSpline
 70
8
 71
3
 72
8
 73
4
 74
0
 40
0
 40
0
 40
0
 40
0
 40
1
 40
1
 40
1
 40
1
 10
158.773410
 20
159.678568
 30
0.0
 10
156.564152
 20
157.429206
 30
0.0
 10
156.562975
 20
157.425480
 30
0.0
 10
156.915434
 20
154.312041
 30
0.0
  0
SPLINE
  5
196
100
AcDbEntity
  8
0
 62
7
100
AcDbSpline
 70
8
 71
3
 72
8
 73
4
 74
0
 40
0
 40
0
 40
0
 40
0
 40
1
 40
1
 40
1
 40
1
 10
156.915434
 20
154.312041
 30
0.0
 10
157.379958
 20
150.208350
 30
0.0
 10
156.622885
 20
148.100604
 30
0.0
 10
154.286283
 20
146.992693
 30
0.0
  0
SPLINE
  5
197
100
AcDbEntity
  8
0
 62
7
100
AcDbSpline
 70
8
 71
3
 72
8
 73
4
 74
0
 40
0
 40
0
 40
0
 40
0
 40
1
 40
1
 40
1
 40
1
 10
154.286283
 20
146.992693
 30
0.0
 10
152.643730
 20
146.213268
 30
0.0
 10
152.319236
 20
146.209543
 30
0.0
 10
150.887348
 20
146.950103
 30
0.0
  0
SPLINE
  5
198
100
AcDbEntity
  8
0
 62
7
100
AcDbSpline
 70
8
 71
3
 72
8
 73
4
 74
0
 40
0
 40
0
 40
0
 40
0
 40
1
 40
1
 40
1
 40
1
 10
150.887348
 20
146.950103
 30
0.0
 10
150.016684
 20
147.399973
 30
0.0
 10
149.087312
 20
147.768392
 30
0.0
 10
148.822071
 20
147.768392
 30
0.0
  0
SPLINE
  5
199
100
AcDbEntity
  8
0
 62
7
100
AcDbSpline
 70
8
 71
3
 72
8
 73
4
 74
0
 40
0
 40
0
 40
0
 40
0
 40
1
 40
1
 40
1
 40
1
 10
148.822071
 20
147.768392
 30
0.0
 10
148.556828
 20
147.768392
 30
0.0
 10
148.199777
 20
146.031190
 30
0.0
 10
148.028623
 20
143.908537
 30
0.0
  0
SPLINE
  5
19a
100
AcDbEntity
  8
0
 62
7
100
AcDbSpline
 70
8
 71
3
 72
8
 73
4
 74
0
 40
0
 40
0
 40
0
 40
0
 40
1
 40
1
 40
1
 40
1
 10
148.028623
 20
143.908537
 30
0.0
 10
147.857467
 20
141.785351
 30
0.0
 10
146.857672
 20
136.946426
 30
0.0
 10
145.806860
 20
133.155783
 30
0.0
  0
SPLINE
  5
19b
100
AcDbEntity
  8
0
 62
7
100
AcDbSpline
 70
8
 71
3
 72
8
 73
4
 74
0
 40
0
 40
0
 40
0
 40
0
 40
1
 40
1
 40
1
 40
1
 10
145.806860
 20
133.155783
 30
0.0
 10
144.254838
 20
127.556599
 30
0.0
 10
143.299124
 20
125.266241
 30
0.0
 10
140.714273
 20
120.952788
 30
0.0
  0
SPLINE
  5
19c
100
AcDbEntity
  8
0
 62
7
100
AcDbSpline
 70
8
 71
3
 72
8
 73
4
 74
0
 40
0
 40
0
 40
0
 40
0
 40
1
 40
1
 40
1
 40
1
 10
140.714273
 20
120.952788
 30
0.0
 10
138.964165
 20
118.032076
 30
0.0
 10
137.532260
 20
115.443579
 30
0.0
 10
137.532260
 20
115.200805
 30
0.0
  0
SPLINE
  5
19d
100
AcDbEntity
  8
0
 62
7
100
AcDbSpline
 70
8
 71
3
 72
8
 73
4
 74
0
 40
0
 40
0
 40
0
 40
0
 40
1
 40
1
 40
1
 40
1
 10
137.532260
 20
115.200805
 30
0.0
 10
137.532260
 20
113.816051
 30
0.0
 10
135.692478
 20
115.222113
 30
0.0
 10
133.321171
 20
118.418593
 30
0.0
  0
SPLINE
  5
19e
100
AcDbEntity
  8
0
 62
7
100
AcDbSpline
 70
8
 71
3
 72
8
 73
4
 74
0
 40
0
 40
0
 40
0
 40
0
 40
1
 40
1
 40
1
 40
1
 10
133.321171
 20
118.418593
 30
0.0
 10
131.137375
 20
121.362730
 30
0.0
 10
130.607302
 20
122.486612
 30
0.0
 10
130.607302
 20
124.173237
 30
0.0
  0
SPLINE
  5
19f
100
AcDbEntity
  8
0
 62
7
100
AcDbSpline
 70
8
 71
3
 72
8
 73
4
 74
0
 40
0
 40
0
 40
0
 40
0
 40
1
 40
1
 40
1
 40
1
 10
130.607302
 20
124.173237
 30
0.0
 10
130.607302
 20
125.325869
 30
0.0
 10
130.959245
 20
126.734051
 30
0.0
 10
131.389397
 20
127.302113
 30
0.0
  0
SPLINE
  5
1a0
100
AcDbEntity
  8
0
 62
7
100
AcDbSpline
 70
8
 71
3
 72
8
 73
4
 74
0
 40
0
 40
0
 40
0
 40
0
 40
1
 40
1
 40
1
 40
1
 10
131.389397
 20
127.302113
 30
0.0
 10
132.406497
 20
128.646408
 30
0.0
 10
132.399817
 20
129.876237
 30
0.0
 10
131.364561
 20
131.876972
 30
0.0
  0
SPLINE
  5
1a1
100
AcDbEntity
  8
0
 62
7
100
AcDbSpline
 70
8
 71
3
 72
8
 73
4
 74
0
 40
0
 40
0
 40
0
 40
0
 40
1
 40
1
 40
1
 40
1
 10
131.364561
 20
131.876972
 30
0.0
 10
130.576865
 20
133.399617
 30
0.0
 10
130.589994
 20
133.574242
 30
0.0
 10
131.572426
 20
134.645950
 30
0.0
  0
SPLINE
  5
1a2
100
AcDbEntity
  8
0
 62
7
100
AcDbSpline
 70
8
 71
3
 72
8
 73
4
 74
0
 40
0
 40
0
 40
0
 40
0
 40
1
 40
1
 40
1
 40
1
 10
131.572426
 20
134.645950
 30
0.0
 10
133.037721
 20
136.243664
 30
0.0
 10
132.553182
 20
139.019034
 30
0.0
 10
130.413263
 20
141.284901
 30
0.0
  0
LWPOLYLINE
  5
1a3
100
AcDbEntity
  8
0
 62
7
100
AcDbPolyline
 90
3
 70
0
 10
151.916748
 20
154.016030
 30
0.0
 10
150.320567
 20
150.695491
 30
0.0
 10
151.443075
 20
149.763802
 30
0.0
  0
SPLINE
  5
1a4
100
AcDbEntity
  8
0
 62
7
100
AcDbSpline
 70
8
 71
3
 72
8
 73
4
 74
0
 40
0
 40
0
 40
0
 40
0
 40
1
 40
1
 40
1
 40
1
 10
130.124956
 20
144.213066
 30
0.0
 10
130.885082
 20
144.850874
 30
0.0
 10
133.579407
 20
147.110351
 30
0.0
 10
136.112349
 20
149.235135
 30
0.0
  0
SPLINE
  5
1a5
100
AcDbEntity
  8
0
 62
7
100
AcDbSpline
 70
8
 71
3
 72
8
 73
4
 74
0
 40
0
 40
0
 40
0
 40
0
 40
1
 40
1
 40
1
 40
1
 10
136.112349
 20
149.235135
 30
0.0
 10
141.184588
 20
153.488960
 30
0.0
 10
143.126169
 20
156.560339
 30
0.0
 10
145.827202
 20
164.602146
 30
0.0
  0
LWPOLYLINE
  5
1a6
100
AcDbEntity
  8
0
 62
7
100
AcDbPolyline
 90
3
 70
0
 10
130.413263
 20
141.284901
 30
0.0
 10
128.742906
 20
143.053511
 30
0.0
 10
130.124956
 20
144.213066
 30
0.0
  0
SPLINE
  5
1a7
100
AcDbEntity
  8
0
 62
7
100
AcDbSpline
 70
8
 71
3
 72
8
 73
4
 74
0
 40
0
 40
0
 40
0
 40
0
 40
1
 40
1
 40
1
 40
1
 10
146.358675
 20
177.860878
 30
0.0
 10
147.149789
 20
181.206970
 30
0.0
 10
148.008078
 20
183.814635
 30
0.0
 10
148.265981
 20
183.655451
 30
0.0
  0
SPLINE
  5
1a8
100
AcDbEntity
  8
0
 62
7
100
AcDbSpline
 70
8
 71
3
 72
8
 73
4
 74
0
 40
0
 40
0
 40
0
 40
0
 40
1
 40
1
 40
1
 40
1
 10
148.265981
 20
183.655451
 30
0.0
 10
149.741309
 20
182.743991
 30
0.0
 10
150.317982
 20
179.321765
 30
0.0
 10
150.354253
 20
171.261326
 30
0.0
  0
SPLINE
  5
1a9
100
AcDbEntity
  8
0
 62
7
100
AcDbSpline
 70
8
 71
3
 72
8
 73
4
 74
0
 40
0
 40
0
 40
0
 40
0
 40
1
 40
1
 40
1
 40
1
 10
150.354253
 20
171.261326
 30
0.0
 10
150.374827
 20
166.685403
 30
0.0
 10
150.576907
 20
162.467778
 30
0.0
 10
150.803283
 20
161.888534
 30
0.0
  0
SPLINE
  5
1aa
100
AcDbEntity
  8
0
 62
7
100
AcDbSpline
 70
8
 71
3
 72
8
 73
4
 74
0
 40
0
 40
0
 40
0
 40
0
 40
1
 40
1
 40
1
 40
1
 10
150.803283
 20
161.888534
 30
0.0
 10
151.213332
 20
160.839720
 30
0.0
 10
151.216958
 20
160.839720
 30
0.0
 10
151.768203
 20
161.888534
 30
0.0
  0
SPLINE
  5
1ab
100
AcDbEntity
  8
0
 62
7
100
AcDbSpline
 70
8
 71
3
 72
8
 73
4
 74
0
 40
0
 40
0
 40
0
 40
0
 40
1
 40
1
 40
1
 40
1
 10
151.768203
 20
161.888534
 30
0.0
 10
152.072526
 20
162.467778
 30
0.0
 10
152.500911
 20
163.775339
 30
0.0
 10
152.720164
 20
164.794339
 30
0.0
  0
SPLINE
  5
1ac
100
AcDbEntity
  8
0
 62
7
100
AcDbSpline
 70
8
 71
3
 72
8
 73
4
 74
0
 40
0
 40
0
 40
0
 40
0
 40
1
 40
1
 40
1
 40
1
 10
152.720164
 20
164.794339
 30
0.0
 10
153.086373
 20
166.496402
 30
0.0
 10
153.045197
 20
166.586377
 30
0.0
 10
152.214095
 20
165.896928
 30
0.0
  0
SPLINE
  5
1ad
100
AcDbEntity
  8
0
 62
7
100
AcDbSpline
 70
8
 71
3
 72
8
 73
4
 74
0
 40
0
 40
0
 40
0
 40
0
 40
1
 40
1
 40
1
 40
1
 10
152.214095
 20
165.896928
 30
0.0
 10
151.369293
 20
165.196297
 30
0.0
 10
151.316233
 20
165.655219
 30
0.0
 10
151.412956
 20
172.828159
 30
0.0
  0
SPLINE
  5
1ae
100
AcDbEntity
  8
0
 62
7
100
AcDbSpline
 70
8
 71
3
 72
8
 73
4
 74
0
 40
0
 40
0
 40
0
 40
0
 40
1
 40
1
 40
1
 40
1
 10
151.412956
 20
172.828159
 30
0.0
 10
151.505858
 20
179.718397
 30
0.0
 10
151.344517
 20
181.278843
 30
0.0
 10
149.848243
 20
187.964112
 30
0.0
  0
SPLINE
  5
1af
100
AcDbEntity
  8
0
 62
7
100
AcDbSpline
 70
8
 71
3
 72
8
 73
4
 74
0
 40
0
 40
0
 40
0
 40
0
 40
1
 40
1
 40
1
 40
1
 10
149.848243
 20
187.964112
 30
0.0
 10
147.961985
 20
196.391369
 30
0.0
 10
146.683834
 20
200.251224
 30
0.0
 10
146.004571
 20
199.572423
 30
0.0
  0
SPLINE
  5
1b0
100
AcDbEntity
  8
0
 62
7
100
AcDbSpline
 70
8
 71
3
 72
8
 73
4
 74
0
 40
0
 40
0
 40
0
 40
0
 40
1
 40
1
 40
1
 40
1
 10
146.004571
 20
199.572423
 30
0.0
 10
145.745338
 20
199.313679
 30
0.0
 10
145.799742
 20
198.187666
 30
0.0
 10
146.128949
 20
196.998299
 30
0.0
  0
SPLINE
  5
1b1
100
AcDbEntity
  8
0
 62
7
100
AcDbSpline
 70
8
 71
3
 72
8
 73
4
 74
0
 40
0
 40
0
 40
0
 40
0
 40
1
 40
1
 40
1
 40
1
 10
146.128949
 20
196.998299
 30
0.0
 10
146.984644
 20
193.907754
 30
0.0
 10
146.277770
 20
183.564942
 30
0.0
 10
144.844341
 20
178.202675
 30
0.0
  0
SPLINE
  5
1b2
100
AcDbEntity
  8
0
 62
7
100
AcDbSpline
 70
8
 71
3
 72
8
 73
4
 74
0
 40
0
 40
0
 40
0
 40
0
 40
1
 40
1
 40
1
 40
1
 10
144.844341
 20
178.202675
 30
0.0
 10
144.129616
 20
175.528992
 30
0.0
 10
143.100781
 20
173.097551
 30
0.0
 10
142.255672
 20
172.084938
 30
0.0
  0
LWPOLYLINE
  5
1b3
100
AcDbEntity
  8
0
 62
7
100
AcDbPolyline
 90
5
 70
0
 10
145.827202
 20
164.602146
 30
0.0
 10
147.201362
 20
168.693059
 30
0.0
 10
146.060823
 20
170.234870
 30
0.0
 10
144.920281
 20
171.776684
 30
0.0
 10
146.358675
 20
177.860878
 30
0.0
  0
SPLINE
  5
1b4
100
AcDbEntity
  8
0
 62
7
100
AcDbSpline
 70
8
 71
3
 72
8
 73
4
 74
0
 40
0
 40
0
 40
0
 40
0
 40
1
 40
1
 40
1
 40
1
 10
138.897546
 20
171.336391
 30
0.0
 10
136.964982
 20
172.257435
 30
0.0
 10
136.921615
 20
172.253173
 30
0.0
 10
135.217047
 20
170.953602
 30
0.0
  0
SPLINE
  5
1b5
100
AcDbEntity
  8
0
 62
7
100
AcDbSpline
 70
8
 71
3
 72
8
 73
4
 74
0
 40
0
 40
0
 40
0
 40
0
 40
1
 40
1
 40
1
 40
1
 10
135.217047
 20
170.953602
 30
0.0
 10
134.268357
 20
170.230611
 30
0.0
 10
132.183863
 20
169.051893
 30
0.0
 10
130.584843
 20
168.335288
 30
0.0
  0
SPLINE
  5
1b6
100
AcDbEntity
  8
0
 62
7
100
AcDbSpline
 70
8
 71
3
 72
8
 73
4
 74
0
 40
0
 40
0
 40
0
 40
0
 40
1
 40
1
 40
1
 40
1
 10
130.584843
 20
168.335288
 30
0.0
 10
128.056045
 20
167.201291
 30
0.0
 10
127.282662
 20
167.087891
 30
0.0
 10
124.644647
 20
167.465358
 30
0.0
  0
SPLINE
  5
1b7
100
AcDbEntity
  8
0
 62
7
100
AcDbSpline
 70
8
 71
3
 72
8
 73
4
 74
0
 40
0
 40
0
 40
0
 40
0
 40
1
 40
1
 40
1
 40
1
 10
124.644647
 20
167.465358
 30
0.0
 10
121.221475
 20
167.955160
 30
0.0
 10
120.314774
 20
168.356054
 30
0.0
 10
120.812137
 20
169.159967
 30
0.0
  0
SPLINE
  5
1b8
100
AcDbEntity
  8
0
 62
7
100
AcDbSpline
 70
8
 71
3
 72
8
 73
4
 74
0
 40
0
 40
0
 40
0
 40
0
 40
1
 40
1
 40
1
 40
1
 10
120.812137
 20
169.159967
 30
0.0
 10
121.023346
 20
169.501764
 30
0.0
 10
122.149404
 20
169.583752
 30
0.0
 10
123.738917
 20
169.372923
 30
0.0
  0
SPLINE
  5
1b9
100
AcDbEntity
  8
0
 62
7
100
AcDbSpline
 70
8
 71
3
 72
8
 73
4
 74
0
 40
0
 40
0
 40
0
 40
0
 40
1
 40
1
 40
1
 40
1
 10
123.738917
 20
169.372923
 30
0.0
 10
125.790136
 20
169.100873
 30
0.0
 10
126.791252
 20
169.264849
 30
0.0
 10
128.598035
 20
170.169386
 30
0.0
  0
SPLINE
  5
1ba
100
AcDbEntity
  8
0
 62
7
100
AcDbSpline
 70
8
 71
3
 72
8
 73
4
 74
0
 40
0
 40
0
 40
0
 40
0
 40
1
 40
1
 40
1
 40
1
 10
128.598035
 20
170.169386
 30
0.0
 10
131.974421
 20
171.859202
 30
0.0
 10
134.336113
 20
174.305553
 30
0.0
 10
134.336113
 20
176.113561
 30
0.0
  0
SPLINE
  5
1bb
100
AcDbEntity
  8
0
 62
7
100
AcDbSpline
 70
8
 71
3
 72
8
 73
4
 74
0
 40
0
 40
0
 40
0
 40
0
 40
1
 40
1
 40
1
 40
1
 10
134.336113
 20
176.113561
 30
0.0
 10
134.336113
 20
179.032143
 30
0.0
 10
130.064623
 20
181.664297
 30
0.0
 10
129.289508
 20
179.223272
 30
0.0
  0
SPLINE
  5
1bc
100
AcDbEntity
  8
0
 62
7
100
AcDbSpline
 70
8
 71
3
 72
8
 73
4
 74
0
 40
0
 40
0
 40
0
 40
0
 40
1
 40
1
 40
1
 40
1
 10
129.289508
 20
179.223272
 30
0.0
 10
128.647980
 20
177.202838
 30
0.0
 10
126.829662
 20
175.452329
 30
0.0
 10
125.374911
 20
175.454457
 30
0.0
  0
SPLINE
  5
1bd
100
AcDbEntity
  8
0
 62
7
100
AcDbSpline
 70
8
 71
3
 72
8
 73
4
 74
0
 40
0
 40
0
 40
0
 40
0
 40
1
 40
1
 40
1
 40
1
 10
125.374911
 20
175.454457
 30
0.0
 10
123.631238
 20
175.454457
 30
0.0
 10
120.762708
 20
177.135756
 30
0.0
 10
119.968766
 20
178.618473
 30
0.0
  0
SPLINE
  5
1be
100
AcDbEntity
  8
0
 62
7
100
AcDbSpline
 70
8
 71
3
 72
8
 73
4
 74
0
 40
0
 40
0
 40
0
 40
0
 40
1
 40
1
 40
1
 40
1
 10
119.968766
 20
178.618473
 30
0.0
 10
118.771602
 20
180.853994
 30
0.0
 10
115.022348
 20
179.426647
 30
0.0
 10
114.439327
 20
176.513388
 30
0.0
  0
SPLINE
  5
1bf
100
AcDbEntity
  8
0
 62
7
100
AcDbSpline
 70
8
 71
3
 72
8
 73
4
 74
0
 40
0
 40
0
 40
0
 40
0
 40
1
 40
1
 40
1
 40
1
 10
114.439327
 20
176.513388
 30
0.0
 10
114.147318
 20
175.054096
 30
0.0
 10
113.991057
 20
174.938035
 30
0.0
 10
113.019067
 20
175.457652
 30
0.0
  0
SPLINE
  5
1c0
100
AcDbEntity
  8
0
 62
7
100
AcDbSpline
 70
8
 71
3
 72
8
 73
4
 74
0
 40
0
 40
0
 40
0
 40
0
 40
1
 40
1
 40
1
 40
1
 10
113.019067
 20
175.457652
 30
0.0
 10
112.418379
 20
175.779218
 30
0.0
 10
110.806095
 20
175.969281
 30
0.0
 10
109.436210
 20
175.880372
 30
0.0
  0
SPLINE
  5
1c1
100
AcDbEntity
  8
0
 62
7
100
AcDbSpline
 70
8
 71
3
 72
8
 73
4
 74
0
 40
0
 40
0
 40
0
 40
0
 40
1
 40
1
 40
1
 40
1
 10
109.436210
 20
175.880372
 30
0.0
 10
107.277487
 20
175.740354
 30
0.0
 10
106.904355
 20
175.541237
 30
0.0
 10
106.636792
 20
174.388074
 30
0.0
  0
SPLINE
  5
1c2
100
AcDbEntity
  8
0
 62
7
100
AcDbSpline
 70
8
 71
3
 72
8
 73
4
 74
0
 40
0
 40
0
 40
0
 40
0
 40
1
 40
1
 40
1
 40
1
 10
106.636792
 20
174.388074
 30
0.0
 10
106.398407
 20
173.360021
 30
0.0
 10
105.938413
 20
173.018758
 30
0.0
 10
104.617766
 20
172.889918
 30
0.0
  0
SPLINE
  5
1c3
100
AcDbEntity
  8
0
 62
7
100
AcDbSpline
 70
8
 71
3
 72
8
 73
4
 74
0
 40
0
 40
0
 40
0
 40
0
 40
1
 40
1
 40
1
 40
1
 10
104.617766
 20
172.889918
 30
0.0
 10
103.056385
 20
172.737653
 30
0.0
 10
102.907462
 20
172.852650
 30
0.0
 10
102.907462
 20
174.228354
 30
0.0
  0
SPLINE
  5
1c4
100
AcDbEntity
  8
0
 62
7
100
AcDbSpline
 70
8
 71
3
 72
8
 73
4
 74
0
 40
0
 40
0
 40
0
 40
0
 40
1
 40
1
 40
1
 40
1
 10
102.907462
 20
174.228354
 30
0.0
 10
102.907462
 20
175.056227
 30
0.0
 10
102.407819
 20
177.047912
 30
0.0
 10
101.797146
 20
178.654676
 30
0.0
  0
SPLINE
  5
1c5
100
AcDbEntity
  8
0
 62
7
100
AcDbSpline
 70
8
 71
3
 72
8
 73
4
 74
0
 40
0
 40
0
 40
0
 40
0
 40
1
 40
1
 40
1
 40
1
 10
101.797146
 20
178.654676
 30
0.0
 10
99.847205
 20
183.783757
 30
0.0
 10
99.757038
 20
183.438766
 30
0.0
 10
103.046620
 20
183.438766
 30
0.0
  0
SPLINE
  5
1c6
100
AcDbEntity
  8
0
 62
7
100
AcDbSpline
 70
8
 71
3
 72
8
 73
4
 74
0
 40
0
 40
0
 40
0
 40
0
 40
1
 40
1
 40
1
 40
1
 10
103.046620
 20
183.438766
 30
0.0
 10
104.656396
 20
183.438766
 30
0.0
 10
106.860377
 20
183.808779
 30
0.0
 10
107.944350
 20
184.261314
 30
0.0
  0
SPLINE
  5
1c7
100
AcDbEntity
  8
0
 62
7
100
AcDbSpline
 70
8
 71
3
 72
8
 73
4
 74
0
 40
0
 40
0
 40
0
 40
0
 40
1
 40
1
 40
1
 40
1
 10
107.944350
 20
184.261314
 30
0.0
 10
109.029774
 20
184.714913
 30
0.0
 10
111.101197
 20
185.030621
 30
0.0
 10
112.555062
 20
184.964073
 30
0.0
  0
SPLINE
  5
1c8
100
AcDbEntity
  8
0
 62
7
100
AcDbSpline
 70
8
 71
3
 72
8
 73
4
 74
0
 40
0
 40
0
 40
0
 40
0
 40
1
 40
1
 40
1
 40
1
 10
112.555062
 20
184.964073
 30
0.0
 10
114.681587
 20
184.867177
 30
0.0
 10
115.856114
 20
185.196728
 30
0.0
 10
118.595244
 20
186.659746
 30
0.0
  0
SPLINE
  5
1c9
100
AcDbEntity
  8
0
 62
7
100
AcDbSpline
 70
8
 71
3
 72
8
 73
4
 74
0
 40
0
 40
0
 40
0
 40
0
 40
1
 40
1
 40
1
 40
1
 10
118.595244
 20
186.659746
 30
0.0
 10
121.798537
 20
188.370329
 30
0.0
 10
122.052644
 20
188.423567
 30
0.0
 10
122.980442
 20
187.584515
 30
0.0
  0
SPLINE
  5
1ca
100
AcDbEntity
  8
0
 62
7
100
AcDbSpline
 70
8
 71
3
 72
8
 73
4
 74
0
 40
0
 40
0
 40
0
 40
0
 40
1
 40
1
 40
1
 40
1
 10
122.980442
 20
187.584515
 30
0.0
 10
124.379798
 20
186.319016
 30
0.0
 10
137.899112
 20
186.287071
 30
0.0
 10
140.858469
 20
187.541922
 30
0.0
  0
SPLINE
  5
1cb
100
AcDbEntity
  8
0
 62
7
100
AcDbSpline
 70
8
 71
3
 72
8
 73
4
 74
0
 40
0
 40
0
 40
0
 40
0
 40
1
 40
1
 40
1
 40
1
 10
140.858469
 20
187.541922
 30
0.0
 10
143.989659
 20
188.870246
 30
0.0
 10
144.302709
 20
190.931673
 30
0.0
 10
142.314964
 20
197.133526
 30
0.0
  0
SPLINE
  5
1cc
100
AcDbEntity
  8
0
 62
7
100
AcDbSpline
 70
8
 71
3
 72
8
 73
4
 74
0
 40
0
 40
0
 40
0
 40
0
 40
1
 40
1
 40
1
 40
1
 10
142.314964
 20
197.133526
 30
0.0
 10
141.442344
 20
199.856189
 30
0.0
 10
140.728381
 20
202.887106
 30
0.0
 10
140.728381
 20
203.869372
 30
0.0
  0
SPLINE
  5
1cd
100
AcDbEntity
  8
0
 62
7
100
AcDbSpline
 70
8
 71
3
 72
8
 73
4
 74
0
 40
0
 40
0
 40
0
 40
0
 40
1
 40
1
 40
1
 40
1
 10
140.728381
 20
203.869372
 30
0.0
 10
140.728381
 20
206.046860
 30
0.0
 10
142.202673
 20
208.027366
 30
0.0
 10
144.709061
 20
209.216202
 30
0.0
  0
SPLINE
  5
1ce
100
AcDbEntity
  8
0
 62
7
100
AcDbSpline
 70
8
 71
3
 72
8
 73
4
 74
0
 40
0
 40
0
 40
0
 40
0
 40
1
 40
1
 40
1
 40
1
 10
144.709061
 20
209.216202
 30
0.0
 10
145.742457
 20
209.706004
 30
0.0
 10
146.587961
 20
210.455081
 30
0.0
 10
146.587961
 20
210.880463
 30
0.0
  0
SPLINE
  5
1cf
100
AcDbEntity
  8
0
 62
7
100
AcDbSpline
 70
8
 71
3
 72
8
 73
4
 74
0
 40
0
 40
0
 40
0
 40
0
 40
1
 40
1
 40
1
 40
1
 10
146.587961
 20
210.880463
 30
0.0
 10
146.587961
 20
211.840902
 30
0.0
 10
146.465459
 20
211.839838
 30
0.0
 10
144.117164
 20
210.859156
 30
0.0
  0
SPLINE
  5
1d0
100
AcDbEntity
  8
0
 62
7
100
AcDbSpline
 70
8
 71
3
 72
8
 73
4
 74
0
 40
0
 40
0
 40
0
 40
0
 40
1
 40
1
 40
1
 40
1
 10
144.117164
 20
210.859156
 30
0.0
 10
143.070018
 20
210.422061
 30
0.0
 10
141.999027
 20
210.196326
 30
0.0
 10
141.737173
 20
210.358174
 30
0.0
  0
SPLINE
  5
1d1
100
AcDbEntity
  8
0
 62
7
100
AcDbSpline
 70
8
 71
3
 72
8
 73
4
 74
0
 40
0
 40
0
 40
0
 40
0
 40
1
 40
1
 40
1
 40
1
 10
141.737173
 20
210.358174
 30
0.0
 10
141.475313
 20
210.520020
 30
0.0
 10
141.261070
 20
213.257590
 30
0.0
 10
141.261070
 20
216.441836
 30
0.0
  0
LWPOLYLINE
  5
1d2
100
AcDbEntity
  8
0
 62
7
100
AcDbPolyline
 90
3
 70
0
 10
142.255672
 20
172.084938
 30
0.0
 10
140.853143
 20
170.404172
 30
0.0
 10
138.897546
 20
171.336391
 30
0.0
  0
SPLINE
  5
1d3
100
AcDbEntity
  8
0
 62
7
100
AcDbSpline
 70
8
 71
3
 72
8
 73
4
 74
0
 40
0
 40
0
 40
0
 40
0
 40
1
 40
1
 40
1
 40
1
 10
139.796176
 20
222.399854
 30
0.0
 10
138.438043
 20
222.555844
 30
0.0
 10
138.321138
 20
222.762414
 30
0.0
 10
138.192084
 20
225.230591
 30
0.0
  0
SPLINE
  5
1d4
100
AcDbEntity
  8
0
 62
7
100
AcDbSpline
 70
8
 71
3
 72
8
 73
4
 74
0
 40
0
 40
0
 40
0
 40
0
 40
1
 40
1
 40
1
 40
1
 10
138.192084
 20
225.230591
 30
0.0
 10
137.899558
 20
230.824450
 30
0.0
 10
137.335675
 20
231.338744
 30
0.0
 10
134.502627
 20
228.594254
 30
0.0
  0
SPLINE
  5
1d5
100
AcDbEntity
  8
0
 62
7
100
AcDbSpline
 70
8
 71
3
 72
8
 73
4
 74
0
 40
0
 40
0
 40
0
 40
0
 40
1
 40
1
 40
1
 40
1
 10
134.502627
 20
228.594254
 30
0.0
 10
133.540884
 20
227.662565
 30
0.0
 10
132.631121
 20
227.023160
 30
0.0
 10
132.480922
 20
227.173296
 30
0.0
  0
SPLINE
  5
1d6
100
AcDbEntity
  8
0
 62
7
100
AcDbSpline
 70
8
 71
3
 72
8
 73
4
 74
0
 40
0
 40
0
 40
0
 40
0
 40
1
 40
1
 40
1
 40
1
 10
132.480922
 20
227.173296
 30
0.0
 10
132.330732
 20
227.323430
 30
0.0
 10
132.060476
 20
228.983966
 30
0.0
 10
131.880364
 20
230.863848
 30
0.0
  0
SPLINE
  5
1d7
100
AcDbEntity
  8
0
 62
7
100
AcDbSpline
 70
8
 71
3
 72
8
 73
4
 74
0
 40
0
 40
0
 40
0
 40
0
 40
1
 40
1
 40
1
 40
1
 10
131.880364
 20
230.863848
 30
0.0
 10
131.537275
 20
234.444196
 30
0.0
 10
130.519083
 20
236.502962
 30
0.0
 10
127.492150
 20
239.738318
 30
0.0
  0
SPLINE
  5
1d8
100
AcDbEntity
  8
0
 62
7
100
AcDbSpline
 70
8
 71
3
 72
8
 73
4
 74
0
 40
0
 40
0
 40
0
 40
0
 40
1
 40
1
 40
1
 40
1
 10
127.492150
 20
239.738318
 30
0.0
 10
126.070447
 20
241.257238
 30
0.0
 10
125.538244
 20
241.468597
 30
0.0
 10
123.124990
 20
241.468597
 30
0.0
  0
SPLINE
  5
1d9
100
AcDbEntity
  8
0
 62
7
100
AcDbSpline
 70
8
 71
3
 72
8
 73
4
 74
0
 40
0
 40
0
 40
0
 40
0
 40
1
 40
1
 40
1
 40
1
 10
123.124990
 20
241.468597
 30
0.0
 10
119.594777
 20
241.468597
 30
0.0
 10
112.463924
 20
238.220995
 30
0.0
 10
108.429146
 20
234.775877
 30
0.0
  0
SPLINE
  5
1da
100
AcDbEntity
  8
0
 62
7
100
AcDbSpline
 70
8
 71
3
 72
8
 73
4
 74
0
 40
0
 40
0
 40
0
 40
0
 40
1
 40
1
 40
1
 40
1
 10
108.429146
 20
234.775877
 30
0.0
 10
106.864398
 20
233.439569
 30
0.0
 10
105.341462
 20
232.496699
 30
0.0
 10
105.044838
 20
232.679844
 30
0.0
  0
SPLINE
  5
1db
100
AcDbEntity
  8
0
 62
7
100
AcDbSpline
 70
8
 71
3
 72
8
 73
4
 74
0
 40
0
 40
0
 40
0
 40
0
 40
1
 40
1
 40
1
 40
1
 10
105.044838
 20
232.679844
 30
0.0
 10
104.748217
 20
232.862986
 30
0.0
 10
104.505529
 20
234.076844
 30
0.0
 10
104.505529
 20
235.377482
 30
0.0
  0
SPLINE
  5
1dc
100
AcDbEntity
  8
0
 62
7
100
AcDbSpline
 70
8
 71
3
 72
8
 73
4
 74
0
 40
0
 40
0
 40
0
 40
0
 40
1
 40
1
 40
1
 40
1
 10
104.505529
 20
235.377482
 30
0.0
 10
104.505529
 20
236.677587
 30
0.0
 10
104.390021
 20
237.741841
 30
0.0
 10
104.248847
 20
237.741841
 30
0.0
  0
SPLINE
  5
1dd
100
AcDbEntity
  8
0
 62
7
100
AcDbSpline
 70
8
 71
3
 72
8
 73
4
 74
0
 40
0
 40
0
 40
0
 40
0
 40
1
 40
1
 40
1
 40
1
 10
104.248847
 20
237.741841
 30
0.0
 10
104.107669
 20
237.741841
 30
0.0
 10
101.901642
 20
236.776079
 30
0.0
 10
99.346563
 20
235.596295
 30
0.0
  0
SPLINE
  5
1de
100
AcDbEntity
  8
0
 62
7
100
AcDbSpline
 70
8
 71
3
 72
8
 73
4
 74
0
 40
0
 40
0
 40
0
 40
0
 40
1
 40
1
 40
1
 40
1
 10
99.346563
 20
235.596295
 30
0.0
 10
96.791484
 20
234.416510
 30
0.0
 10
94.390035
 20
233.570537
 30
0.0
 10
94.010009
 20
233.716412
 30
0.0
  0
SPLINE
  5
1df
100
AcDbEntity
  8
0
 62
7
100
AcDbSpline
 70
8
 71
3
 72
8
 73
4
 74
0
 40
0
 40
0
 40
0
 40
0
 40
1
 40
1
 40
1
 40
1
 10
94.010009
 20
233.716412
 30
0.0
 10
93.600755
 20
233.873469
 30
0.0
 10
93.319058
 20
234.863188
 30
0.0
 10
93.319058
 20
236.144661
 30
0.0
  0
SPLINE
  5
1e0
100
AcDbEntity
  8
0
 62
7
100
AcDbSpline
 70
8
 71
3
 72
8
 73
4
 74
0
 40
0
 40
0
 40
0
 40
0
 40
1
 40
1
 40
1
 40
1
 10
93.319058
 20
236.144661
 30
0.0
 10
93.319058
 20
237.559232
 30
0.0
 10
93.047408
 20
238.411594
 30
0.0
 10
92.533597
 20
238.608579
 30
0.0
  0
SPLINE
  5
1e1
100
AcDbEntity
  8
0
 62
7
100
AcDbSpline
 70
8
 71
3
 72
8
 73
4
 74
0
 40
0
 40
0
 40
0
 40
0
 40
1
 40
1
 40
1
 40
1
 10
92.533597
 20
238.608579
 30
0.0
 10
92.101597
 20
238.774153
 30
0.0
 10
88.446020
 20
238.183197
 30
0.0
 10
84.410090
 20
237.295696
 30
0.0
  0
SPLINE
  5
1e2
100
AcDbEntity
  8
0
 62
7
100
AcDbSpline
 70
8
 71
3
 72
8
 73
4
 74
0
 40
0
 40
0
 40
0
 40
0
 40
1
 40
1
 40
1
 40
1
 10
84.410090
 20
237.295696
 30
0.0
 10
80.374165
 20
236.407664
 30
0.0
 10
74.857991
 20
235.515370
 30
0.0
 10
72.151926
 20
235.312529
 30
0.0
  0
SPLINE
  5
1e3
100
AcDbEntity
  8
0
 62
7
100
AcDbSpline
 70
8
 71
3
 72
8
 73
4
 74
0
 40
0
 40
0
 40
0
 40
0
 40
1
 40
1
 40
1
 40
1
 10
72.151926
 20
235.312529
 30
0.0
 10
67.449954
 20
234.959553
 30
0.0
 10
67.084123
 20
234.839231
 30
0.0
 10
63.900789
 20
232.598920
 30
0.0
  0
SPLINE
  5
1e4
100
AcDbEntity
  8
0
 62
7
100
AcDbSpline
 70
8
 71
3
 72
8
 73
4
 74
0
 40
0
 40
0
 40
0
 40
0
 40
1
 40
1
 40
1
 40
1
 10
63.900789
 20
232.598920
 30
0.0
 10
60.881689
 20
230.474136
 30
0.0
 10
59.230743
 20
230.231363
 30
0.0
 10
60.820526
 20
232.145851
 30
0.0
  0
SPLINE
  5
1e5
100
AcDbEntity
  8
0
 62
7
100
AcDbSpline
 70
8
 71
3
 72
8
 73
4
 74
0
 40
0
 40
0
 40
0
 40
0
 40
1
 40
1
 40
1
 40
1
 10
60.820526
 20
232.145851
 30
0.0
 10
61.842043
 20
233.376213
 30
0.0
 10
61.010309
 20
233.944279
 30
0.0
 10
58.888331
 20
233.466188
 30
0.0
  0
SPLINE
  5
1e6
100
AcDbEntity
  8
0
 62
7
100
AcDbSpline
 70
8
 71
3
 72
8
 73
4
 74
0
 40
0
 40
0
 40
0
 40
0
 40
1
 40
1
 40
1
 40
1
 10
58.888331
 20
233.466188
 30
0.0
 10
55.783325
 20
232.766091
 30
0.0
 10
52.124602
 20
228.751841
 30
0.0
 10
50.208524
 20
223.942729
 30
0.0
  0
SPLINE
  5
1e7
100
AcDbEntity
  8
0
 62
7
100
AcDbSpline
 70
8
 71
3
 72
8
 73
4
 74
0
 40
0
 40
0
 40
0
 40
0
 40
1
 40
1
 40
1
 40
1
 10
50.208524
 20
223.942729
 30
0.0
 10
48.711567
 20
220.185629
 30
0.0
 10
48.593124
 20
219.382780
 30
0.0
 10
48.494992
 20
212.330160
 30
0.0
  0
SPLINE
  5
1e8
100
AcDbEntity
  8
0
 62
7
100
AcDbSpline
 70
8
 71
3
 72
8
 73
4
 74
0
 40
0
 40
0
 40
0
 40
0
 40
1
 40
1
 40
1
 40
1
 10
48.494992
 20
212.330160
 30
0.0
 10
48.405373
 20
205.889262
 30
0.0
 10
48.523438
 20
204.605661
 30
0.0
 10
49.282824
 20
203.767140
 30
0.0
  0
SPLINE
  5
1e9
100
AcDbEntity
  8
0
 62
7
100
AcDbSpline
 70
8
 71
3
 72
8
 73
4
 74
0
 40
0
 40
0
 40
0
 40
0
 40
1
 40
1
 40
1
 40
1
 10
49.282824
 20
203.767140
 30
0.0
 10
50.695877
 20
202.206693
 30
0.0
 10
51.917566
 20
197.410361
 30
0.0
 10
51.464173
 20
195.203589
 30
0.0
  0
SPLINE
  5
1ea
100
AcDbEntity
  8
0
 62
7
100
AcDbSpline
 70
8
 71
3
 72
8
 73
4
 74
0
 40
0
 40
0
 40
0
 40
0
 40
1
 40
1
 40
1
 40
1
 10
51.464173
 20
195.203589
 30
0.0
 10
51.089769
 20
193.381207
 30
0.0
 10
51.036387
 20
193.479699
 30
0.0
 10
50.379294
 20
197.210714
 30
0.0
  0
SPLINE
  5
1eb
100
AcDbEntity
  8
0
 62
7
100
AcDbSpline
 70
8
 71
3
 72
8
 73
4
 74
0
 40
0
 40
0
 40
0
 40
0
 40
1
 40
1
 40
1
 40
1
 10
50.379294
 20
197.210714
 30
0.0
 10
49.308557
 20
203.289583
 30
0.0
 10
48.984614
 20
203.187895
 30
0.0
 10
47.806240
 20
196.399878
 30
0.0
  0
SPLINE
  5
1ec
100
AcDbEntity
  8
0
 62
7
100
AcDbSpline
 70
8
 71
3
 72
8
 73
4
 74
0
 40
0
 40
0
 40
0
 40
0
 40
1
 40
1
 40
1
 40
1
 10
47.806240
 20
196.399878
 30
0.0
 10
45.996394
 20
185.974544
 30
0.0
 10
46.545212
 20
167.897119
 30
0.0
 10
48.720886
 20
166.272786
 30
0.0
  0
SPLINE
  5
1ed
100
AcDbEntity
  8
0
 62
7
100
AcDbSpline
 70
8
 71
3
 72
8
 73
4
 74
0
 40
0
 40
0
 40
0
 40
0
 40
1
 40
1
 40
1
 40
1
 10
48.720886
 20
166.272786
 30
0.0
 10
49.215065
 20
165.903837
 30
0.0
 10
50.087189
 20
164.233719
 30
0.0
 10
50.658945
 20
162.560404
 30
0.0
  0
SPLINE
  5
1ee
100
AcDbEntity
  8
0
 62
7
100
AcDbSpline
 70
8
 71
3
 72
8
 73
4
 74
0
 40
0
 40
0
 40
0
 40
0
 40
1
 40
1
 40
1
 40
1
 10
50.658945
 20
162.560404
 30
0.0
 10
51.605251
 20
159.791425
 30
0.0
 10
55.930329
 20
153.220090
 30
0.0
 10
58.993947
 20
149.896889
 30
0.0
  0
SPLINE
  5
1ef
100
AcDbEntity
  8
0
 62
7
100
AcDbSpline
 70
8
 71
3
 72
8
 73
4
 74
0
 40
0
 40
0
 40
0
 40
0
 40
1
 40
1
 40
1
 40
1
 10
58.993947
 20
149.896889
 30
0.0
 10
61.222495
 20
147.478756
 30
0.0
 10
63.894959
 20
142.477984
 30
0.0
 10
64.260575
 20
140.041218
 30
0.0
  0
SPLINE
  5
1f0
100
AcDbEntity
  8
0
 62
7
100
AcDbSpline
 70
8
 71
3
 72
8
 73
4
 74
0
 40
0
 40
0
 40
0
 40
0
 40
1
 40
1
 40
1
 40
1
 10
64.260575
 20
140.041218
 30
0.0
 10
64.552898
 20
138.093190
 30
0.0
 10
64.414307
 20
137.353695
 30
0.0
 10
63.521745
 20
136.100972
 30
0.0
  0
SPLINE
  5
1f1
100
AcDbEntity
  8
0
 62
7
100
AcDbSpline
 70
8
 71
3
 72
8
 73
4
 74
0
 40
0
 40
0
 40
0
 40
0
 40
1
 40
1
 40
1
 40
1
 10
63.521745
 20
136.100972
 30
0.0
 10
61.862397
 20
133.772283
 30
0.0
 10
62.068766
 20
132.022836
 30
0.0
 10
64.085814
 20
131.320077
 30
0.0
  0
SPLINE
  5
1f2
100
AcDbEntity
  8
0
 62
7
100
AcDbSpline
 70
8
 71
3
 72
8
 73
4
 74
0
 40
0
 40
0
 40
0
 40
0
 40
1
 40
1
 40
1
 40
1
 10
64.085814
 20
131.320077
 30
0.0
 10
65.702871
 20
130.756804
 30
0.0
 10
65.725218
 20
130.705163
 30
0.0
 10
64.899433
 20
129.445520
 30
0.0
  0
SPLINE
  5
1f3
100
AcDbEntity
  8
0
 62
7
100
AcDbSpline
 70
8
 71
3
 72
8
 73
4
 74
0
 40
0
 40
0
 40
0
 40
0
 40
1
 40
1
 40
1
 40
1
 10
64.899433
 20
129.445520
 30
0.0
 10
64.101184
 20
128.227935
 30
0.0
 10
64.131935
 20
128.004330
 30
0.0
 10
65.413009
 20
125.713973
 30
0.0
  0
SPLINE
  5
1f4
100
AcDbEntity
  8
0
 62
7
100
AcDbSpline
 70
8
 71
3
 72
8
 73
4
 74
0
 40
0
 40
0
 40
0
 40
0
 40
1
 40
1
 40
1
 40
1
 10
65.413009
 20
125.713973
 30
0.0
 10
66.312305
 20
124.105611
 30
0.0
 10
67.132423
 20
123.277207
 30
0.0
 10
67.824728
 20
123.277207
 30
0.0
  0
SPLINE
  5
1f5
100
AcDbEntity
  8
0
 62
7
100
AcDbSpline
 70
8
 71
3
 72
8
 73
4
 74
0
 40
0
 40
0
 40
0
 40
0
 40
1
 40
1
 40
1
 40
1
 10
67.824728
 20
123.277207
 30
0.0
 10
70.187879
 20
123.277207
 30
0.0
 10
80.800823
 20
128.624036
 30
0.0
 10
84.884827
 20
131.872169
 30
0.0
  0
LWPOLYLINE
  5
1f6
100
AcDbEntity
  8
0
 62
7
100
AcDbPolyline
 90
3
 70
0
 10
141.261070
 20
216.441836
 30
0.0
 10
141.261070
 20
222.231616
 30
0.0
 10
139.796176
 20
222.399854
 30
0.0
  0
SPLINE
  5
1f7
100
AcDbEntity
  8
0
 62
7
100
AcDbSpline
 70
8
 71
3
 72
8
 73
4
 74
0
 40
0
 40
0
 40
0
 40
0
 40
1
 40
1
 40
1
 40
1
 10
88.214135
 20
131.822656
 30
0.0
 10
89.996964
 20
130.721667
 30
0.0
 10
90.623198
 20
130.822288
 30
0.0
 10
89.715253
 20
132.064365
 30
0.0
  0
SPLINE
  5
1f8
100
AcDbEntity
  8
0
 62
7
100
AcDbSpline
 70
8
 71
3
 72
8
 73
4
 74
0
 40
0
 40
0
 40
0
 40
0
 40
1
 40
1
 40
1
 40
1
 10
89.715253
 20
132.064365
 30
0.0
 10
89.500004
 20
132.358776
 30
0.0
 10
88.424726
 20
133.269702
 30
0.0
 10
87.325748
 20
134.088525
 30
0.0
  0
SPLINE
  5
1f9
100
AcDbEntity
  8
0
 62
7
100
AcDbSpline
 70
8
 71
3
 72
8
 73
4
 74
0
 40
0
 40
0
 40
0
 40
0
 40
1
 40
1
 40
1
 40
1
 10
87.325748
 20
134.088525
 30
0.0
 10
84.434028
 20
136.242589
 30
0.0
 10
82.272516
 20
140.809461
 30
0.0
 10
83.286970
 20
142.621198
 30
0.0
  0
SPLINE
  5
1fa
100
AcDbEntity
  8
0
 62
7
100
AcDbSpline
 70
8
 71
3
 72
8
 73
4
 74
0
 40
0
 40
0
 40
0
 40
0
 40
1
 40
1
 40
1
 40
1
 10
83.286970
 20
142.621198
 30
0.0
 10
84.079563
 20
144.036299
 30
0.0
 10
87.039865
 20
143.758389
 30
0.0
 10
88.565177
 20
142.125006
 30
0.0
  0
SPLINE
  5
1fb
100
AcDbEntity
  8
0
 62
7
100
AcDbSpline
 70
8
 71
3
 72
8
 73
4
 74
0
 40
0
 40
0
 40
0
 40
0
 40
1
 40
1
 40
1
 40
1
 10
88.565177
 20
142.125006
 30
0.0
 10
90.189970
 20
140.385145
 30
0.0
 10
93.403011
 20
138.716622
 30
0.0
 10
95.127569
 20
138.716622
 30
0.0
  0
SPLINE
  5
1fc
100
AcDbEntity
  8
0
 62
7
100
AcDbSpline
 70
8
 71
3
 72
8
 73
4
 74
0
 40
0
 40
0
 40
0
 40
0
 40
1
 40
1
 40
1
 40
1
 10
95.127569
 20
138.716622
 30
0.0
 10
97.264254
 20
138.716622
 30
0.0
 10
99.310548
 20
139.714328
 30
0.0
 10
101.470683
 20
141.809298
 30
0.0
  0
SPLINE
  5
1fd
100
AcDbEntity
  8
0
 62
7
100
AcDbSpline
 70
8
 71
3
 72
8
 73
4
 74
0
 40
0
 40
0
 40
0
 40
0
 40
1
 40
1
 40
1
 40
1
 10
101.470683
 20
141.809298
 30
0.0
 10
103.410272
 20
143.690777
 30
0.0
 10
103.653395
 20
143.774363
 30
0.0
 10
107.190453
 20
143.774363
 30
0.0
  0
SPLINE
  5
1fe
100
AcDbEntity
  8
0
 62
7
100
AcDbSpline
 70
8
 71
3
 72
8
 73
4
 74
0
 40
0
 40
0
 40
0
 40
0
 40
1
 40
1
 40
1
 40
1
 10
107.190453
 20
143.774363
 30
0.0
 10
109.559245
 20
143.774363
 30
0.0
 10
110.972261
 20
143.546497
 30
0.0
 10
111.129075
 20
143.139216
 30
0.0
  0
SPLINE
  5
1ff
100
AcDbEntity
  8
0
 62
7
100
AcDbSpline
 70
8
 71
3
 72
8
 73
4
 74
0
 40
0
 40
0
 40
0
 40
0
 40
1
 40
1
 40
1
 40
1
 10
111.129075
 20
143.139216
 30
0.0
 10
111.475088
 20
142.240536
 30
0.0
 10
110.704760
 20
139.854881
 30
0.0
 10
109.312312
 20
137.512349
 30
0.0
  0
SPLINE
  5
200
100
AcDbEntity
  8
0
 62
7
100
AcDbSpline
 70
8
 71
3
 72
8
 73
4
 74
0
 40
0
 40
0
 40
0
 40
0
 40
1
 40
1
 40
1
 40
1
 10
109.312312
 20
137.512349
 30
0.0
 10
108.535716
 20
136.205855
 30
0.0
 10
108.233484
 20
135.065468
 30
0.0
 10
108.442862
 20
134.231738
 30
0.0
  0
SPLINE
  5
201
100
AcDbEntity
  8
0
 62
7
100
AcDbSpline
 70
8
 71
3
 72
8
 73
4
 74
0
 40
0
 40
0
 40
0
 40
0
 40
1
 40
1
 40
1
 40
1
 10
108.442862
 20
134.231738
 30
0.0
 10
108.747554
 20
133.018414
 30
0.0
 10
108.686710
 20
132.982741
 30
0.0
 10
107.241253
 20
133.527913
 30
0.0
  0
SPLINE
  5
202
100
AcDbEntity
  8
0
 62
7
100
AcDbSpline
 70
8
 71
3
 72
8
 73
4
 74
0
 40
0
 40
0
 40
0
 40
0
 40
1
 40
1
 40
1
 40
1
 10
107.241253
 20
133.527913
 30
0.0
 10
105.954006
 20
134.013990
 30
0.0
 10
105.460303
 20
133.918692
 30
0.0
 10
104.046734
 20
132.912468
 30
0.0
  0
SPLINE
  5
203
100
AcDbEntity
  8
0
 62
7
100
AcDbSpline
 70
8
 71
3
 72
8
 73
4
 74
0
 40
0
 40
0
 40
0
 40
0
 40
1
 40
1
 40
1
 40
1
 10
104.046734
 20
132.912468
 30
0.0
 10
103.127158
 20
132.258156
 30
0.0
 10
102.374773
 20
131.457968
 30
0.0
 10
102.374773
 20
131.133740
 30
0.0
  0
SPLINE
  5
204
100
AcDbEntity
  8
0
 62
7
100
AcDbSpline
 70
8
 71
3
 72
8
 73
4
 74
0
 40
0
 40
0
 40
0
 40
0
 40
1
 40
1
 40
1
 40
1
 10
102.374773
 20
131.133740
 30
0.0
 10
102.374773
 20
130.810045
 30
0.0
 10
102.929569
 20
131.065592
 30
0.0
 10
103.607656
 20
131.702336
 30
0.0
  0
SPLINE
  5
205
100
AcDbEntity
  8
0
 62
7
100
AcDbSpline
 70
8
 71
3
 72
8
 73
4
 74
0
 40
0
 40
0
 40
0
 40
0
 40
1
 40
1
 40
1
 40
1
 10
103.607656
 20
131.702336
 30
0.0
 10
105.194035
 20
133.191972
 30
0.0
 10
106.918097
 20
133.170145
 30
0.0
 10
108.983105
 20
131.633657
 30
0.0
  0
SPLINE
  5
206
100
AcDbEntity
  8
0
 62
7
100
AcDbSpline
 70
8
 71
3
 72
8
 73
4
 74
0
 40
0
 40
0
 40
0
 40
0
 40
1
 40
1
 40
1
 40
1
 10
108.983105
 20
131.633657
 30
0.0
 10
112.969638
 20
128.668757
 30
0.0
 10
121.551576
 20
123.829298
 30
0.0
 10
121.551576
 20
124.546433
 30
0.0
  0
SPLINE
  5
207
100
AcDbEntity
  8
0
 62
7
100
AcDbSpline
 70
8
 71
3
 72
8
 73
4
 74
0
 40
0
 40
0
 40
0
 40
0
 40
1
 40
1
 40
1
 40
1
 10
121.551576
 20
124.546433
 30
0.0
 10
121.551576
 20
124.629486
 30
0.0
 10
120.226802
 20
125.609090
 30
0.0
 10
118.607628
 20
126.723391
 30
0.0
  0
SPLINE
  5
208
100
AcDbEntity
  8
0
 62
7
100
AcDbSpline
 70
8
 71
3
 72
8
 73
4
 74
0
 40
0
 40
0
 40
0
 40
0
 40
1
 40
1
 40
1
 40
1
 10
118.607628
 20
126.723391
 30
0.0
 10
116.988457
 20
127.838223
 30
0.0
 10
115.747679
 20
128.833798
 30
0.0
 10
115.850351
 20
128.936550
 30
0.0
  0
SPLINE
  5
209
100
AcDbEntity
  8
0
 62
7
100
AcDbSpline
 70
8
 71
3
 72
8
 73
4
 74
0
 40
0
 40
0
 40
0
 40
0
 40
1
 40
1
 40
1
 40
1
 10
115.850351
 20
128.936550
 30
0.0
 10
115.953015
 20
129.039304
 30
0.0
 10
117.872772
 20
128.506378
 30
0.0
 10
120.116470
 20
127.752506
 30
0.0
  0
SPLINE
  5
20a
100
AcDbEntity
  8
0
 62
7
100
AcDbSpline
 70
8
 71
3
 72
8
 73
4
 74
0
 40
0
 40
0
 40
0
 40
0
 40
1
 40
1
 40
1
 40
1
 10
120.116470
 20
127.752506
 30
0.0
 10
122.950247
 20
126.800054
 30
0.0
 10
124.605483
 20
125.894987
 30
0.0
 10
125.537194
 20
124.788140
 30
0.0
  0
SPLINE
  5
20b
100
AcDbEntity
  8
0
 62
7
100
AcDbSpline
 70
8
 71
3
 72
8
 73
4
 74
0
 40
0
 40
0
 40
0
 40
0
 40
1
 40
1
 40
1
 40
1
 10
125.537194
 20
124.788140
 30
0.0
 10
127.760180
 20
122.147999
 30
0.0
 10
127.073358
 20
119.765005
 30
0.0
 10
124.563130
 20
121.409037
 30
0.0
  0
SPLINE
  5
20c
100
AcDbEntity
  8
0
 62
7
100
AcDbSpline
 70
8
 71
3
 72
8
 73
4
 74
0
 40
0
 40
0
 40
0
 40
0
 40
1
 40
1
 40
1
 40
1
 10
124.563130
 20
121.409037
 30
0.0
 10
123.367851
 20
122.191656
 30
0.0
 10
123.265116
 20
122.178346
 30
0.0
 10
123.011822
 20
121.210454
 30
0.0
  0
SPLINE
  5
20d
100
AcDbEntity
  8
0
 62
7
100
AcDbSpline
 70
8
 71
3
 72
8
 73
4
 74
0
 40
0
 40
0
 40
0
 40
0
 40
1
 40
1
 40
1
 40
1
 10
123.011822
 20
121.210454
 30
0.0
 10
122.554732
 20
119.463670
 30
0.0
 10
119.735213
 20
118.348306
 30
0.0
 10
117.408918
 20
118.993567
 30
0.0
  0
SPLINE
  5
20e
100
AcDbEntity
  8
0
 62
7
100
AcDbSpline
 70
8
 71
3
 72
8
 73
4
 74
0
 40
0
 40
0
 40
0
 40
0
 40
1
 40
1
 40
1
 40
1
 10
117.408918
 20
118.993567
 30
0.0
 10
116.318120
 20
119.296499
 30
0.0
 10
113.424346
 20
119.545659
 30
0.0
 10
110.978301
 20
119.547256
 30
0.0
  0
SPLINE
  5
20f
100
AcDbEntity
  8
0
 62
7
100
AcDbSpline
 70
8
 71
3
 72
8
 73
4
 74
0
 40
0
 40
0
 40
0
 40
0
 40
1
 40
1
 40
1
 40
1
 10
110.978301
 20
119.547256
 30
0.0
 10
104.201798
 20
119.547256
 30
0.0
 10
101.629924
 20
121.075758
 30
0.0
 10
101.720811
 20
125.032508
 30
0.0
  0
LWPOLYLINE
  5
210
100
AcDbEntity
  8
0
 62
7
100
AcDbPolyline
 90
3
 70
0
 10
84.884827
 20
131.872169
 30
0.0
 10
86.305345
 20
133.001910
 30
0.0
 10
88.214135
 20
131.822656
 30
0.0
  0
SPLINE
  5
211
100
AcDbEntity
  8
0
 62
7
100
AcDbSpline
 70
8
 71
3
 72
8
 73
4
 74
0
 40
0
 40
0
 40
0
 40
0
 40
1
 40
1
 40
1
 40
1
 10
101.051558
 20
124.963829
 30
0.0
 10
100.273112
 20
122.473291
 30
0.0
 10
98.886027
 20
120.615239
 30
0.0
 10
97.805243
 20
120.615239
 30
0.0
  0
SPLINE
  5
212
100
AcDbEntity
  8
0
 62
7
100
AcDbSpline
 70
8
 71
3
 72
8
 73
4
 74
0
 40
0
 40
0
 40
0
 40
0
 40
1
 40
1
 40
1
 40
1
 10
97.805243
 20
120.615239
 30
0.0
 10
96.372384
 20
120.615239
 30
0.0
 10
93.900916
 20
123.386878
 30
0.0
 10
93.049587
 20
125.948226
 30
0.0
  0
SPLINE
  5
213
100
AcDbEntity
  8
0
 62
7
100
AcDbSpline
 70
8
 71
3
 72
8
 73
4
 74
0
 40
0
 40
0
 40
0
 40
0
 40
1
 40
1
 40
1
 40
1
 10
93.049587
 20
125.948226
 30
0.0
 10
92.165712
 20
128.608063
 30
0.0
 10
90.627477
 20
130.561416
 30
0.0
 10
91.419522
 20
128.018704
 30
0.0
  0
SPLINE
  5
214
100
AcDbEntity
  8
0
 62
7
100
AcDbSpline
 70
8
 71
3
 72
8
 73
4
 74
0
 40
0
 40
0
 40
0
 40
0
 40
1
 40
1
 40
1
 40
1
 10
91.419522
 20
128.018704
 30
0.0
 10
91.638989
 20
127.313814
 30
0.0
 10
91.941630
 20
125.409974
 30
0.0
 10
92.092069
 20
123.787772
 30
0.0
  0
SPLINE
  5
215
100
AcDbEntity
  8
0
 62
7
100
AcDbSpline
 70
8
 71
3
 72
8
 73
4
 74
0
 40
0
 40
0
 40
0
 40
0
 40
1
 40
1
 40
1
 40
1
 10
92.092069
 20
123.787772
 30
0.0
 10
92.470447
 20
119.707508
 30
0.0
 10
92.026415
 20
119.431726
 30
0.0
 10
84.764510
 20
119.236871
 30
0.0
  0
SPLINE
  5
216
100
AcDbEntity
  8
0
 62
7
100
AcDbSpline
 70
8
 71
3
 72
8
 73
4
 74
0
 40
0
 40
0
 40
0
 40
0
 40
1
 40
1
 40
1
 40
1
 10
84.764510
 20
119.236871
 30
0.0
 10
81.541533
 20
119.150090
 30
0.0
 10
78.372391
 20
118.935537
 30
0.0
 10
77.721962
 20
118.759314
 30
0.0
  0
SPLINE
  5
217
100
AcDbEntity
  8
0
 62
7
100
AcDbSpline
 70
8
 71
3
 72
8
 73
4
 74
0
 40
0
 40
0
 40
0
 40
0
 40
1
 40
1
 40
1
 40
1
 10
77.721962
 20
118.759314
 30
0.0
 10
75.049326
 20
118.035790
 30
0.0
 10
69.348054
 20
115.034156
 30
0.0
 10
69.348054
 20
114.350563
 30
0.0
  0
SPLINE
  5
218
100
AcDbEntity
  8
0
 62
7
100
AcDbSpline
 70
8
 71
3
 72
8
 73
4
 74
0
 40
0
 40
0
 40
0
 40
0
 40
1
 40
1
 40
1
 40
1
 10
69.348054
 20
114.350563
 30
0.0
 10
69.348054
 20
113.834672
 30
0.0
 10
70.181360
 20
114.090221
 30
0.0
 10
72.144670
 20
115.208781
 30
0.0
  0
SPLINE
  5
219
100
AcDbEntity
  8
0
 62
7
100
AcDbSpline
 70
8
 71
3
 72
8
 73
4
 74
0
 40
0
 40
0
 40
0
 40
0
 40
1
 40
1
 40
1
 40
1
 10
72.144670
 20
115.208781
 30
0.0
 10
76.447599
 20
117.659390
 30
0.0
 10
80.425812
 20
118.274304
 30
0.0
 10
87.301397
 20
117.550779
 30
0.0
  0
SPLINE
  5
21a
100
AcDbEntity
  8
0
 62
7
100
AcDbSpline
 70
8
 71
3
 72
8
 73
4
 74
0
 40
0
 40
0
 40
0
 40
0
 40
1
 40
1
 40
1
 40
1
 10
87.301397
 20
117.550779
 30
0.0
 10
90.464623
 20
117.217500
 30
0.0
 10
94.200004
 20
116.518470
 30
0.0
 10
95.602250
 20
115.996189
 30
0.0
  0
SPLINE
  5
21b
100
AcDbEntity
  8
0
 62
7
100
AcDbSpline
 70
8
 71
3
 72
8
 73
4
 74
0
 40
0
 40
0
 40
0
 40
0
 40
1
 40
1
 40
1
 40
1
 10
95.602250
 20
115.996189
 30
0.0
 10
98.146850
 20
115.049063
 30
0.0
 10
98.156604
 20
115.049594
 30
0.0
 10
100.646837
 20
116.366736
 30
0.0
  0
SPLINE
  5
21c
100
AcDbEntity
  8
0
 62
7
100
AcDbSpline
 70
8
 71
3
 72
8
 73
4
 74
0
 40
0
 40
0
 40
0
 40
0
 40
1
 40
1
 40
1
 40
1
 10
100.646837
 20
116.366736
 30
0.0
 10
103.009220
 20
117.616797
 30
0.0
 10
103.612544
 20
117.687606
 30
0.0
 10
111.993192
 20
117.701447
 30
0.0
  0
SPLINE
  5
21d
100
AcDbEntity
  8
0
 62
7
100
AcDbSpline
 70
8
 71
3
 72
8
 73
4
 74
0
 40
0
 40
0
 40
0
 40
0
 40
1
 40
1
 40
1
 40
1
 10
111.993192
 20
117.701447
 30
0.0
 10
119.454817
 20
117.712086
 30
0.0
 10
121.064316
 20
117.860101
 30
0.0
 10
122.244668
 20
118.633136
 30
0.0
  0
SPLINE
  5
21e
100
AcDbEntity
  8
0
 62
7
100
AcDbSpline
 70
8
 71
3
 72
8
 73
4
 74
0
 40
0
 40
0
 40
0
 40
0
 40
1
 40
1
 40
1
 40
1
 10
122.244668
 20
118.633136
 30
0.0
 10
124.017145
 20
119.793755
 30
0.0
 10
124.906603
 20
119.790560
 30
0.0
 10
125.924587
 20
118.617162
 30
0.0
  0
SPLINE
  5
21f
100
AcDbEntity
  8
0
 62
7
100
AcDbSpline
 70
8
 71
3
 72
8
 73
4
 74
0
 40
0
 40
0
 40
0
 40
0
 40
1
 40
1
 40
1
 40
1
 10
125.924587
 20
118.617162
 30
0.0
 10
126.880674
 20
117.516171
 30
0.0
 10
126.602188
 20
113.756940
 30
0.0
 10
125.534217
 20
113.347528
 30
0.0
  0
SPLINE
  5
220
100
AcDbEntity
  8
0
 62
7
100
AcDbSpline
 70
8
 71
3
 72
8
 73
4
 74
0
 40
0
 40
0
 40
0
 40
0
 40
1
 40
1
 40
1
 40
1
 10
125.534217
 20
113.347528
 30
0.0
 10
125.157216
 20
113.203251
 30
0.0
 10
123.207978
 20
113.561018
 30
0.0
 10
121.202585
 20
114.142926
 30
0.0
  0
SPLINE
  5
221
100
AcDbEntity
  8
0
 62
7
100
AcDbSpline
 70
8
 71
3
 72
8
 73
4
 74
0
 40
0
 40
0
 40
0
 40
0
 40
1
 40
1
 40
1
 40
1
 10
121.202585
 20
114.142926
 30
0.0
 10
115.404894
 20
115.826354
 30
0.0
 10
113.497419
 20
115.953063
 30
0.0
 10
107.350018
 20
115.065564
 30
0.0
  0
SPLINE
  5
222
100
AcDbEntity
  8
0
 62
7
100
AcDbSpline
 70
8
 71
3
 72
8
 73
4
 74
0
 40
0
 40
0
 40
0
 40
0
 40
1
 40
1
 40
1
 40
1
 10
107.350018
 20
115.065564
 30
0.0
 10
100.578460
 20
114.087557
 30
0.0
 10
98.498118
 20
114.030591
 30
0.0
 10
87.389942
 20
114.517732
 30
0.0
  0
LWPOLYLINE
  5
223
100
AcDbEntity
  8
0
 62
7
100
AcDbPolyline
 90
3
 70
0
 10
101.720811
 20
125.032508
 30
0.0
 10
101.772215
 20
127.270160
 30
0.0
 10
101.051558
 20
124.963829
 30
0.0
  0
SPLINE
  5
224
100
AcDbEntity
  8
0
 62
7
100
AcDbSpline
 70
8
 71
3
 72
8
 73
4
 74
0
 40
0
 40
0
 40
0
 40
0
 40
1
 40
1
 40
1
 40
1
 10
75.937127
 20
112.774674
 30
0.0
 10
72.549710
 20
110.490706
 30
0.0
 10
64.589654
 20
106.239011
 30
0.0
 10
63.700660
 20
106.239011
 30
0.0
  0
SPLINE
  5
225
100
AcDbEntity
  8
0
 62
7
100
AcDbSpline
 70
8
 71
3
 72
8
 73
4
 74
0
 40
0
 40
0
 40
0
 40
0
 40
1
 40
1
 40
1
 40
1
 10
63.700660
 20
106.239011
 30
0.0
 10
63.398880
 20
106.239011
 30
0.0
 10
62.651533
 20
107.137158
 30
0.0
 10
62.039889
 20
108.235485
 30
0.0
  0
LWPOLYLINE
  5
226
100
AcDbEntity
  8
0
 62
7
100
AcDbPolyline
 90
3
 70
0
 10
87.389942
 20
114.517732
 30
0.0
 10
79.063720
 20
114.882953
 30
0.0
 10
75.937127
 20
112.774674
 30
0.0
  0
SPLINE
  5
227
100
AcDbEntity
  8
0
 62
7
100
AcDbSpline
 70
8
 71
3
 72
8
 73
4
 74
0
 40
0
 40
0
 40
0
 40
0
 40
1
 40
1
 40
1
 40
1
 10
47.413314
 20
152.200573
 30
0.0
 10
47.545721
 20
153.351075
 30
0.0
 10
47.139885
 20
154.113464
 30
0.0
 10
45.644147
 20
155.523243
 30
0.0
  0
SPLINE
  5
228
100
AcDbEntity
  8
0
 62
7
100
AcDbSpline
 70
8
 71
3
 72
8
 73
4
 74
0
 40
0
 40
0
 40
0
 40
0
 40
1
 40
1
 40
1
 40
1
 10
45.644147
 20
155.523243
 30
0.0
 10
43.766458
 20
157.292918
 30
0.0
 10
42.252911
 20
157.996210
 30
0.0
 10
43.031746
 20
156.736567
 30
0.0
  0
SPLINE
  5
229
100
AcDbEntity
  8
0
 62
7
100
AcDbSpline
 70
8
 71
3
 72
8
 73
4
 74
0
 40
0
 40
0
 40
0
 40
0
 40
1
 40
1
 40
1
 40
1
 10
43.031746
 20
156.736567
 30
0.0
 10
43.241285
 20
156.397966
 30
0.0
 10
43.373091
 20
155.073370
 30
0.0
 10
43.324645
 20
153.792961
 30
0.0
  0
SPLINE
  5
22a
100
AcDbEntity
  8
0
 62
7
100
AcDbSpline
 70
8
 71
3
 72
8
 73
4
 74
0
 40
0
 40
0
 40
0
 40
0
 40
1
 40
1
 40
1
 40
1
 10
43.324645
 20
153.792961
 30
0.0
 10
43.250445
 20
151.832688
 30
0.0
 10
43.426250
 20
151.388674
 30
0.0
 10
44.439992
 20
150.976068
 30
0.0
  0
SPLINE
  5
22b
100
AcDbEntity
  8
0
 62
7
100
AcDbSpline
 70
8
 71
3
 72
8
 73
4
 74
0
 40
0
 40
0
 40
0
 40
0
 40
1
 40
1
 40
1
 40
1
 10
44.439992
 20
150.976068
 30
0.0
 10
46.327328
 20
150.208355
 30
0.0
 10
47.226714
 20
150.578368
 30
0.0
 10
47.413314
 20
152.200573
 30
0.0
  0
LWPOLYLINE
  5
22c
100
AcDbEntity
  8
0
 62
7
100
AcDbPolyline
 90
2
 70
0
 10
62.039889
 20
108.235485
 30
0.0
 10
62.039926
 20
108.239766
 30
0.0
  0
SPLINE
  5
22d
100
AcDbEntity
  8
0
 62
7
100
AcDbSpline
 70
8
 71
3
 72
8
 73
4
 74
0
 40
0
 40
0
 40
0
 40
0
 40
1
 40
1
 40
1
 40
1
 10
145.872033
 20
206.476510
 30
0.0
 10
145.726113
 20
206.836939
 30
0.0
 10
145.615612
 20
206.413154
 30
0.0
 10
145.626469
 20
205.534706
 30
0.0
  0
SPLINE
  5
22e
100
AcDbEntity
  8
0
 62
7
100
AcDbSpline
 70
8
 71
3
 72
8
 73
4
 74
0
 40
0
 40
0
 40
0
 40
0
 40
1
 40
1
 40
1
 40
1
 10
145.626469
 20
205.534706
 30
0.0
 10
145.637335
 20
204.656255
 30
0.0
 10
145.756712
 20
204.361308
 30
0.0
 10
145.891769
 20
204.879327
 30
0.0
  0
SPLINE
  5
22f
100
AcDbEntity
  8
0
 62
7
100
AcDbSpline
 70
8
 71
3
 72
8
 73
4
 74
0
 40
0
 40
0
 40
0
 40
0
 40
1
 40
1
 40
1
 40
1
 10
145.891769
 20
204.879327
 30
0.0
 10
146.026827
 20
205.397348
 30
0.0
 10
146.017948
 20
206.116078
 30
0.0
 10
145.872014
 20
206.476510
 30
0.0
  0
LWPOLYLINE
  5
230
100
AcDbEntity
  8
0
 62
7
100
AcDbPolyline
 90
2
 70
0
 10
47.413314
 20
152.200573
 30
0.0
 10
47.413314
 20
152.200573
 30
0.0
  0
SPLINE
  5
231
100
AcDbEntity
  8
0
 62
7
100
AcDbSpline
 70
8
 71
3
 72
8
 73
4
 74
0
 40
0
 40
0
 40
0
 40
0
 40
1
 40
1
 40
1
 40
1
 10
109.862166
 20
149.843668
 30
0.0
 10
109.564907
 20
150.398954
 30
0.0
 10
108.417854
 20
151.066043
 30
0.0
 10
107.313151
 20
151.325851
 30
0.0
  0
SPLINE
  5
232
100
AcDbEntity
  8
0
 62
7
100
AcDbSpline
 70
8
 71
3
 72
8
 73
4
 74
0
 40
0
 40
0
 40
0
 40
0
 40
1
 40
1
 40
1
 40
1
 10
107.313151
 20
151.325851
 30
0.0
 10
105.828287
 20
151.675101
 30
0.0
 10
105.260216
 20
152.106339
 30
0.0
 10
105.134379
 20
152.978400
 30
0.0
  0
SPLINE
  5
233
100
AcDbEntity
  8
0
 62
7
100
AcDbSpline
 70
8
 71
3
 72
8
 73
4
 74
0
 40
0
 40
0
 40
0
 40
0
 40
1
 40
1
 40
1
 40
1
 10
105.134379
 20
152.978400
 30
0.0
 10
104.905621
 20
154.564402
 30
0.0
 10
105.487690
 20
154.465909
 30
0.0
 10
107.850277
 20
152.519476
 30
0.0
  0
SPLINE
  5
234
100
AcDbEntity
  8
0
 62
7
100
AcDbSpline
 70
8
 71
3
 72
8
 73
4
 74
0
 40
0
 40
0
 40
0
 40
0
 40
1
 40
1
 40
1
 40
1
 10
107.850277
 20
152.519476
 30
0.0
 10
109.651261
 20
151.035695
 30
0.0
 10
111.335066
 20
148.834780
 30
0.0
 10
110.668974
 20
148.834780
 30
0.0
  0
SPLINE
  5
235
100
AcDbEntity
  8
0
 62
7
100
AcDbSpline
 70
8
 71
3
 72
8
 73
4
 74
0
 40
0
 40
0
 40
0
 40
0
 40
1
 40
1
 40
1
 40
1
 10
110.668974
 20
148.834780
 30
0.0
 10
110.522487
 20
148.834780
 30
0.0
 10
110.159422
 20
149.288912
 30
0.0
 10
109.862166
 20
149.843668
 30
0.0
  0
LWPOLYLINE
  5
236
100
AcDbEntity
  8
0
 62
7
100
AcDbPolyline
 90
2
 70
0
 10
145.872014
 20
206.476510
 30
0.0
 10
145.872033
 20
206.476510
 30
0.0
  0
SPLINE
  5
237
100
AcDbEntity
  8
0
 62
7
100
AcDbSpline
 70
8
 71
3
 72
8
 73
4
 74
0
 40
0
 40
0
 40
0
 40
0
 40
1
 40
1
 40
1
 40
1
 10
83.730694
 20
151.230553
 30
0.0
 10
83.730694
 20
152.526399
 30
0.0
 10
85.369250
 20
154.691111
 30
0.0
 10
86.350571
 20
154.691111
 30
0.0
  0
SPLINE
  5
238
100
AcDbEntity
  8
0
 62
7
100
AcDbSpline
 70
8
 71
3
 72
8
 73
4
 74
0
 40
0
 40
0
 40
0
 40
0
 40
1
 40
1
 40
1
 40
1
 10
86.350571
 20
154.691111
 30
0.0
 10
86.619588
 20
154.691111
 30
0.0
 10
87.218864
 20
154.836455
 30
0.0
 10
87.682293
 20
155.014272
 30
0.0
  0
SPLINE
  5
239
100
AcDbEntity
  8
0
 62
7
100
AcDbSpline
 70
8
 71
3
 72
8
 73
4
 74
0
 40
0
 40
0
 40
0
 40
0
 40
1
 40
1
 40
1
 40
1
 10
87.682293
 20
155.014272
 30
0.0
 10
88.317205
 20
155.257576
 30
0.0
 10
88.524896
 20
154.998299
 30
0.0
 10
88.524896
 20
153.955874
 30
0.0
  0
SPLINE
  5
23a
100
AcDbEntity
  8
0
 62
7
100
AcDbSpline
 70
8
 71
3
 72
8
 73
4
 74
0
 40
0
 40
0
 40
0
 40
0
 40
1
 40
1
 40
1
 40
1
 10
88.524896
 20
153.955874
 30
0.0
 10
88.524896
 20
152.924629
 30
0.0
 10
87.987779
 20
152.235710
 30
0.0
 10
86.404724
 20
151.236940
 30
0.0
  0
SPLINE
  5
23b
100
AcDbEntity
  8
0
 62
7
100
AcDbSpline
 70
8
 71
3
 72
8
 73
4
 74
0
 40
0
 40
0
 40
0
 40
0
 40
1
 40
1
 40
1
 40
1
 10
86.404724
 20
151.236940
 30
0.0
 10
83.792006
 20
149.588649
 30
0.0
 10
83.730694
 20
149.588649
 30
0.0
 10
83.730694
 20
151.231606
 30
0.0
  0
LWPOLYLINE
  5
23c
100
AcDbEntity
  8
0
 62
7
100
AcDbPolyline
 90
2
 70
0
 10
109.862166
 20
149.843668
 30
0.0
 10
109.862166
 20
149.843668
 30
0.0
  0
SPLINE
  5
23d
100
AcDbEntity
  8
0
 62
7
100
AcDbSpline
 70
8
 71
3
 72
8
 73
4
 74
0
 40
0
 40
0
 40
0
 40
0
 40
1
 40
1
 40
1
 40
1
 10
38.956669
 20
167.052758
 30
0.0
 10
38.620861
 20
168.306013
 30
0.0
 10
37.793670
 20
170.649609
 30
0.0
 10
37.118465
 20
172.260102
 30
0.0
  0
SPLINE
  5
23e
100
AcDbEntity
  8
0
 62
7
100
AcDbSpline
 70
8
 71
3
 72
8
 73
4
 74
0
 40
0
 40
0
 40
0
 40
0
 40
1
 40
1
 40
1
 40
1
 10
37.118465
 20
172.260102
 30
0.0
 10
36.443260
 20
173.870592
 30
0.0
 10
35.711872
 20
176.385087
 30
0.0
 10
35.493156
 20
177.848638
 30
0.0
  0
SPLINE
  5
23f
100
AcDbEntity
  8
0
 62
7
100
AcDbSpline
 70
8
 71
3
 72
8
 73
4
 74
0
 40
0
 40
0
 40
0
 40
0
 40
1
 40
1
 40
1
 40
1
 10
35.493156
 20
177.848638
 30
0.0
 10
35.151639
 20
180.133670
 30
0.0
 10
35.204019
 20
180.419034
 30
0.0
 10
35.864106
 20
179.871734
 30
0.0
  0
SPLINE
  5
240
100
AcDbEntity
  8
0
 62
7
100
AcDbSpline
 70
8
 71
3
 72
8
 73
4
 74
0
 40
0
 40
0
 40
0
 40
0
 40
1
 40
1
 40
1
 40
1
 10
35.864106
 20
179.871734
 30
0.0
 10
37.563532
 20
178.461955
 30
0.0
 10
40.582884
 20
170.029903
 30
0.0
 10
40.582884
 20
166.693393
 30
0.0
  0
SPLINE
  5
241
100
AcDbEntity
  8
0
 62
7
100
AcDbSpline
 70
8
 71
3
 72
8
 73
4
 74
0
 40
0
 40
0
 40
0
 40
0
 40
1
 40
1
 40
1
 40
1
 10
40.582884
 20
166.693393
 30
0.0
 10
40.582884
 20
164.458404
 30
0.0
 10
39.593226
 20
164.677220
 30
0.0
 10
38.956669
 20
167.052758
 30
0.0
  0
LWPOLYLINE
  5
242
100
AcDbEntity
  8
0
 62
7
100
AcDbPolyline
 90
2
 70
0
 10
83.730694
 20
151.231606
 30
0.0
 10
83.730694
 20
151.230553
 30
0.0
  0
SPLINE
  5
243
100
AcDbEntity
  8
0
 62
7
100
AcDbSpline
 70
8
 71
3
 72
8
 73
4
 74
0
 40
0
 40
0
 40
0
 40
0
 40
1
 40
1
 40
1
 40
1
 10
64.020641
 20
168.501401
 30
0.0
 10
61.582331
 20
169.790327
 30
0.0
 10
60.350948
 20
171.197976
 30
0.0
 10
59.483131
 20
173.688513
 30
0.0
  0
SPLINE
  5
244
100
AcDbEntity
  8
0
 62
7
100
AcDbSpline
 70
8
 71
3
 72
8
 73
4
 74
0
 40
0
 40
0
 40
0
 40
0
 40
1
 40
1
 40
1
 40
1
 10
59.483131
 20
173.688513
 30
0.0
 10
58.981196
 20
175.129170
 30
0.0
 10
58.492156
 20
175.689782
 30
0.0
 10
57.802546
 20
175.614714
 30
0.0
  0
SPLINE
  5
245
100
AcDbEntity
  8
0
 62
7
100
AcDbSpline
 70
8
 71
3
 72
8
 73
4
 74
0
 40
0
 40
0
 40
0
 40
0
 40
1
 40
1
 40
1
 40
1
 10
57.802546
 20
175.614714
 30
0.0
 10
57.267588
 20
175.556683
 30
0.0
 10
55.714965
 20
175.348516
 30
0.0
 10
54.352272
 20
175.152064
 30
0.0
  0
SPLINE
  5
246
100
AcDbEntity
  8
0
 62
7
100
AcDbSpline
 70
8
 71
3
 72
8
 73
4
 74
0
 40
0
 40
0
 40
0
 40
0
 40
1
 40
1
 40
1
 40
1
 10
54.352272
 20
175.152064
 30
0.0
 10
52.112458
 20
174.829433
 30
0.0
 10
51.810226
 20
174.915680
 30
0.0
 10
51.203566
 20
176.048614
 30
0.0
  0
SPLINE
  5
247
100
AcDbEntity
  8
0
 62
7
100
AcDbSpline
 70
8
 71
3
 72
8
 73
4
 74
0
 40
0
 40
0
 40
0
 40
0
 40
1
 40
1
 40
1
 40
1
 10
51.203566
 20
176.048614
 30
0.0
 10
49.146711
 20
179.889302
 30
0.0
 10
48.412900
 20
190.893878
 30
0.0
 10
50.213613
 20
190.893878
 30
0.0
  0
SPLINE
  5
248
100
AcDbEntity
  8
0
 62
7
100
AcDbSpline
 70
8
 71
3
 72
8
 73
4
 74
0
 40
0
 40
0
 40
0
 40
0
 40
1
 40
1
 40
1
 40
1
 10
50.213613
 20
190.893878
 30
0.0
 10
50.483313
 20
190.893878
 30
0.0
 10
50.703974
 20
190.204429
 30
0.0
 10
50.703974
 20
189.361651
 30
0.0
  0
SPLINE
  5
249
100
AcDbEntity
  8
0
 62
7
100
AcDbSpline
 70
8
 71
3
 72
8
 73
4
 74
0
 40
0
 40
0
 40
0
 40
0
 40
1
 40
1
 40
1
 40
1
 10
50.703974
 20
189.361651
 30
0.0
 10
50.703974
 20
188.518871
 30
0.0
 10
51.072223
 20
187.524359
 30
0.0
 10
51.522308
 20
187.150621
 30
0.0
  0
SPLINE
  5
24a
100
AcDbEntity
  8
0
 62
7
100
AcDbSpline
 70
8
 71
3
 72
8
 73
4
 74
0
 40
0
 40
0
 40
0
 40
0
 40
1
 40
1
 40
1
 40
1
 10
51.522308
 20
187.150621
 30
0.0
 10
52.827160
 20
186.068795
 30
0.0
 10
59.796347
 20
185.818571
 30
0.0
 10
61.669766
 20
186.786461
 30
0.0
  0
SPLINE
  5
24b
100
AcDbEntity
  8
0
 62
7
100
AcDbSpline
 70
8
 71
3
 72
8
 73
4
 74
0
 40
0
 40
0
 40
0
 40
0
 40
1
 40
1
 40
1
 40
1
 10
61.669766
 20
186.786461
 30
0.0
 10
63.122491
 20
187.537669
 30
0.0
 10
63.602308
 20
187.499337
 30
0.0
 10
68.025840
 20
186.279623
 30
0.0
  0
SPLINE
  5
24c
100
AcDbEntity
  8
0
 62
7
100
AcDbSpline
 70
8
 71
3
 72
8
 73
4
 74
0
 40
0
 40
0
 40
0
 40
0
 40
1
 40
1
 40
1
 40
1
 10
68.025840
 20
186.279623
 30
0.0
 10
72.479786
 20
185.051923
 30
0.0
 10
73.388477
 20
184.981647
 30
0.0
 10
81.169888
 20
185.265413
 30
0.0
  0
SPLINE
  5
24d
100
AcDbEntity
  8
0
 62
7
100
AcDbSpline
 70
8
 71
3
 72
8
 73
4
 74
0
 40
0
 40
0
 40
0
 40
0
 40
1
 40
1
 40
1
 40
1
 10
81.169888
 20
185.265413
 30
0.0
 10
89.376335
 20
185.565150
 30
0.0
 10
89.544409
 20
185.549179
 30
0.0
 10
90.360274
 20
184.384834
 30
0.0
  0
SPLINE
  5
24e
100
AcDbEntity
  8
0
 62
7
100
AcDbSpline
 70
8
 71
3
 72
8
 73
4
 74
0
 40
0
 40
0
 40
0
 40
0
 40
1
 40
1
 40
1
 40
1
 10
90.360274
 20
184.384834
 30
0.0
 10
90.905700
 20
183.606474
 30
0.0
 10
91.082602
 20
182.619416
 30
0.0
 10
90.874966
 20
181.513635
 30
0.0
  0
SPLINE
  5
24f
100
AcDbEntity
  8
0
 62
7
100
AcDbSpline
 70
8
 71
3
 72
8
 73
4
 74
0
 40
0
 40
0
 40
0
 40
0
 40
1
 40
1
 40
1
 40
1
 10
90.874966
 20
181.513635
 30
0.0
 10
90.581511
 20
179.949994
 30
0.0
 10
90.697163
 20
179.782292
 30
0.0
 10
92.471536
 20
179.197192
 30
0.0
  0
SPLINE
  5
250
100
AcDbEntity
  8
0
 62
7
100
AcDbSpline
 70
8
 71
3
 72
8
 73
4
 74
0
 40
0
 40
0
 40
0
 40
0
 40
1
 40
1
 40
1
 40
1
 10
92.471536
 20
179.197192
 30
0.0
 10
94.850839
 20
178.411909
 30
0.0
 10
94.926034
 20
177.703294
 30
0.0
 10
92.653237
 20
177.484481
 30
0.0
  0
SPLINE
  5
251
100
AcDbEntity
  8
0
 62
7
100
AcDbSpline
 70
8
 71
3
 72
8
 73
4
 74
0
 40
0
 40
0
 40
0
 40
0
 40
1
 40
1
 40
1
 40
1
 10
92.653237
 20
177.484481
 30
0.0
 10
91.285636
 20
177.352446
 30
0.0
 10
90.761939
 20
176.954217
 30
0.0
 10
90.160001
 20
175.587561
 30
0.0
  0
SPLINE
  5
252
100
AcDbEntity
  8
0
 62
7
100
AcDbSpline
 70
8
 71
3
 72
8
 73
4
 74
0
 40
0
 40
0
 40
0
 40
0
 40
1
 40
1
 40
1
 40
1
 10
90.160001
 20
175.587561
 30
0.0
 10
89.255761
 20
173.534118
 30
0.0
 10
88.670494
 20
173.404747
 30
0.0
 10
88.019825
 20
175.115327
 30
0.0
  0
SPLINE
  5
253
100
AcDbEntity
  8
0
 62
7
100
AcDbSpline
 70
8
 71
3
 72
8
 73
4
 74
0
 40
0
 40
0
 40
0
 40
0
 40
1
 40
1
 40
1
 40
1
 10
88.019825
 20
175.115327
 30
0.0
 10
87.494231
 20
176.496890
 30
0.0
 10
86.077377
 20
177.298675
 30
0.0
 10
85.580728
 20
176.495826
 30
0.0
  0
SPLINE
  5
254
100
AcDbEntity
  8
0
 62
7
100
AcDbSpline
 70
8
 71
3
 72
8
 73
4
 74
0
 40
0
 40
0
 40
0
 40
0
 40
1
 40
1
 40
1
 40
1
 10
85.580728
 20
176.495826
 30
0.0
 10
85.407562
 20
176.215785
 30
0.0
 10
83.891343
 20
175.986858
 30
0.0
 10
82.211347
 20
175.986858
 30
0.0
  0
SPLINE
  5
255
100
AcDbEntity
  8
0
 62
7
100
AcDbSpline
 70
8
 71
3
 72
8
 73
4
 74
0
 40
0
 40
0
 40
0
 40
0
 40
1
 40
1
 40
1
 40
1
 10
82.211347
 20
175.986858
 30
0.0
 10
79.227310
 20
175.986858
 30
0.0
 10
79.145045
 20
176.024125
 30
0.0
 10
78.647138
 20
177.711281
 30
0.0
  0
SPLINE
  5
256
100
AcDbEntity
  8
0
 62
7
100
AcDbSpline
 70
8
 71
3
 72
8
 73
4
 74
0
 40
0
 40
0
 40
0
 40
0
 40
1
 40
1
 40
1
 40
1
 10
78.647138
 20
177.711281
 30
0.0
 10
78.097592
 20
179.570400
 30
0.0
 10
75.252326
 20
181.175564
 30
0.0
 10
74.816936
 20
179.871734
 30
0.0
  0
SPLINE
  5
257
100
AcDbEntity
  8
0
 62
7
100
AcDbSpline
 70
8
 71
3
 72
8
 73
4
 74
0
 40
0
 40
0
 40
0
 40
0
 40
1
 40
1
 40
1
 40
1
 10
74.816936
 20
179.871734
 30
0.0
 10
74.699393
 20
179.519820
 30
0.0
 10
74.072307
 20
178.441725
 30
0.0
 10
73.423416
 20
177.475961
 30
0.0
  0
SPLINE
  5
258
100
AcDbEntity
  8
0
 62
7
100
AcDbSpline
 70
8
 71
3
 72
8
 73
4
 74
0
 40
0
 40
0
 40
0
 40
0
 40
1
 40
1
 40
1
 40
1
 10
73.423416
 20
177.475961
 30
0.0
 10
72.488665
 20
176.085350
 30
0.0
 10
71.821398
 20
175.685523
 30
0.0
 10
70.210909
 20
175.551891
 30
0.0
  0
SPLINE
  5
259
100
AcDbEntity
  8
0
 62
7
100
AcDbSpline
 70
8
 71
3
 72
8
 73
4
 74
0
 40
0
 40
0
 40
0
 40
0
 40
1
 40
1
 40
1
 40
1
 10
70.210909
 20
175.551891
 30
0.0
 10
67.969395
 20
175.366618
 30
0.0
 10
66.578726
 20
176.279675
 30
0.0
 10
65.280083
 20
178.789378
 30
0.0
  0
SPLINE
  5
25a
100
AcDbEntity
  8
0
 62
7
100
AcDbSpline
 70
8
 71
3
 72
8
 73
4
 74
0
 40
0
 40
0
 40
0
 40
0
 40
1
 40
1
 40
1
 40
1
 10
65.280083
 20
178.789378
 30
0.0
 10
64.335976
 20
180.613891
 30
0.0
 10
63.160938
 20
180.158695
 30
0.0
 10
61.692220
 20
177.398231
 30
0.0
  0
SPLINE
  5
25b
100
AcDbEntity
  8
0
 62
7
100
AcDbSpline
 70
8
 71
3
 72
8
 73
4
 74
0
 40
0
 40
0
 40
0
 40
0
 40
1
 40
1
 40
1
 40
1
 10
61.692220
 20
177.398231
 30
0.0
 10
60.705684
 20
175.544438
 30
0.0
 10
60.707341
 20
175.503975
 30
0.0
 10
61.846621
 20
173.661894
 30
0.0
  0
SPLINE
  5
25c
100
AcDbEntity
  8
0
 62
7
100
AcDbSpline
 70
8
 71
3
 72
8
 73
4
 74
0
 40
0
 40
0
 40
0
 40
0
 40
1
 40
1
 40
1
 40
1
 10
61.846621
 20
173.661894
 30
0.0
 10
63.269320
 20
171.360888
 30
0.0
 10
65.942529
 20
170.317397
 30
0.0
 10
71.615184
 20
169.848358
 30
0.0
  0
SPLINE
  5
25d
100
AcDbEntity
  8
0
 62
7
100
AcDbSpline
 70
8
 71
3
 72
8
 73
4
 74
0
 40
0
 40
0
 40
0
 40
0
 40
1
 40
1
 40
1
 40
1
 10
71.615184
 20
169.848358
 30
0.0
 10
75.976415
 20
169.487396
 30
0.0
 10
76.457610
 20
168.929979
 30
0.0
 10
73.190839
 20
168.023311
 30
0.0
  0
SPLINE
  5
25e
100
AcDbEntity
  8
0
 62
7
100
AcDbSpline
 70
8
 71
3
 72
8
 73
4
 74
0
 40
0
 40
0
 40
0
 40
0
 40
1
 40
1
 40
1
 40
1
 10
73.190839
 20
168.023311
 30
0.0
 10
70.164031
 20
167.183195
 30
0.0
 10
66.114656
 20
167.394024
 30
0.0
 10
64.020641
 20
168.501401
 30
0.0
  0
LWPOLYLINE
  5
25f
100
AcDbEntity
  8
0
 62
7
100
AcDbPolyline
 90
2
 70
0
 10
38.956669
 20
167.052758
 30
0.0
 10
38.956669
 20
167.052758
 30
0.0
  0
LWPOLYLINE
  5
260
100
AcDbEntity
  8
0
 62
7
100
AcDbPolyline
 90
2
 70
0
 10
64.020641
 20
168.501401
 30
0.0
 10
64.020641
 20
168.501401
 30
0.0
  0
LWPOLYLINE
  5
261
100
AcDbEntity
  8
0
 62
7
100
AcDbPolyline
 90
5
 70
0
 10
56.242893
 20
72.675109
 30
0.0
 10
56.242893
 20
50.249260
 30
0.0
 10
49.948705
 20
50.249260
 30
0.0
 10
49.948705
 20
72.675109
 30
0.0
 10
56.242893
 20
72.675109
 30
0.0
  0
SPLINE
  5
262
100
AcDbEntity
  8
0
 62
7
100
AcDbSpline
 70
8
 71
3
 72
8
 73
4
 74
0
 40
0
 40
0
 40
0
 40
0
 40
1
 40
1
 40
1
 40
1
 10
74.993686
 20
50.249260
 30
0.0
 10
74.313268
 20
53.777035
 30
0.0
 10
73.822631
 20
57.596205
 30
0.0
 10
73.521770
 20
61.706785
 30
0.0
  0
SPLINE
  5
263
100
AcDbEntity
  8
0
 62
7
100
AcDbSpline
 70
8
 71
3
 72
8
 73
4
 74
0
 40
0
 40
0
 40
0
 40
0
 40
1
 40
1
 40
1
 40
1
 10
73.521770
 20
61.706785
 30
0.0
 10
73.499362
 20
60.003749
 30
0.0
 10
73.064709
 20
56.184580
 30
0.0
 10
72.217802
 20
50.249260
 30
0.0
  0
LWPOLYLINE
  5
264
100
AcDbEntity
  8
0
 62
7
100
AcDbPolyline
 90
3
 70
0
 10
85.186001
 20
72.675109
 30
0.0
 10
82.627157
 20
50.249260
 30
0.0
 10
74.993686
 20
50.249260
 30
0.0
  0
SPLINE
  5
265
100
AcDbEntity
  8
0
 62
7
100
AcDbSpline
 70
8
 71
3
 72
8
 73
4
 74
0
 40
0
 40
0
 40
0
 40
0
 40
1
 40
1
 40
1
 40
1
 10
68.987162
 20
57.677747
 30
0.0
 10
69.033664
 20
61.334131
 30
0.0
 10
69.486120
 20
66.333246
 30
0.0
 10
70.344530
 20
72.675109
 30
0.0
  0
LWPOLYLINE
  5
266
100
AcDbEntity
  8
0
 62
7
100
AcDbPolyline
 90
6
 70
0
 10
72.217802
 20
50.249260
 30
0.0
 10
64.611030
 20
50.249260
 30
0.0
 10
62.042712
 20
72.675109
 30
0.0
 10
68.150867
 20
72.675109
 30
0.0
 10
68.752034
 20
64.787563
 30
0.0
 10
68.987162
 20
57.677747
 30
0.0
  0
SPLINE
  5
267
100
AcDbEntity
  8
0
 62
7
100
AcDbSpline
 70
8
 71
3
 72
8
 73
4
 74
0
 40
0
 40
0
 40
0
 40
0
 40
1
 40
1
 40
1
 40
1
 10
76.801500
 20
72.675109
 30
0.0
 10
76.900820
 20
71.890755
 30
0.0
 10
77.118148
 20
69.399664
 30
0.0
 10
77.453484
 20
65.201834
 30
0.0
  0
LWPOLYLINE
  5
268
100
AcDbEntity
  8
0
 62
7
100
AcDbPolyline
 90
2
 70
0
 10
70.344530
 20
72.675109
 30
0.0
 10
76.801500
 20
72.675109
 30
0.0
  0
SPLINE
  5
269
100
AcDbEntity
  8
0
 62
7
100
AcDbSpline
 70
8
 71
3
 72
8
 73
4
 74
0
 40
0
 40
0
 40
0
 40
0
 40
1
 40
1
 40
1
 40
1
 10
77.739429
 20
57.150646
 30
0.0
 10
77.878364
 20
62.293587
 30
0.0
 10
78.327950
 20
67.468403
 30
0.0
 10
79.088183
 20
72.675109
 30
0.0
  0
LWPOLYLINE
  5
26a
100
AcDbEntity
  8
0
 62
7
100
AcDbPolyline
 90
2
 70
0
 10
77.453484
 20
65.201834
 30
0.0
 10
77.739429
 20
57.150646
 30
0.0
  0
LWPOLYLINE
  5
26b
100
AcDbEntity
  8
0
 62
7
100
AcDbPolyline
 90
2
 70
0
 10
79.088183
 20
72.675109
 30
0.0
 10
85.186001
 20
72.675109
 30
0.0
  0
SPLINE
  5
26c
100
AcDbEntity
  8
0
 62
7
100
AcDbSpline
 70
8
 71
3
 72
8
 73
4
 74
0
 40
0
 40
0
 40
0
 40
0
 40
1
 40
1
 40
1
 40
1
 10
92.418958
 20
66.496382
 30
0.0
 10
92.560741
 20
63.347357
 30
0.0
 10
92.761449
 20
60.706610
 30
0.0
 10
93.027500
 20
58.611798
 30
0.0
  0
LWPOLYLINE
  5
26d
100
AcDbEntity
  8
0
 62
7
100
AcDbPolyline
 90
11
 70
0
 10
87.841667
 20
72.678812
 30
0.0
 10
84.922431
 20
50.250965
 30
0.0
 10
91.395903
 20
50.250965
 30
0.0
 10
91.731042
 20
54.184437
 30
0.0
 10
93.212708
 20
54.184437
 30
0.0
 10
93.494931
 20
50.250965
 30
0.0
 10
99.906667
 20
50.250965
 30
0.0
 10
96.608194
 20
72.678812
 30
0.0
 10
92.507153
 20
72.678812
 30
0.0
 10
92.507153
 20
66.496382
 30
0.0
 10
92.418958
 20
66.496382
 30
0.0
  0
SPLINE
  5
26e
100
AcDbEntity
  8
0
 62
7
100
AcDbSpline
 70
8
 71
3
 72
8
 73
4
 74
0
 40
0
 40
0
 40
0
 40
0
 40
1
 40
1
 40
1
 40
1
 10
91.686944
 20
58.611798
 30
0.0
 10
91.814080
 20
60.177976
 30
0.0
 10
92.039516
 20
62.983175
 30
0.0
 10
92.321944
 20
66.496382
 30
0.0
  0
LWPOLYLINE
  5
26f
100
AcDbEntity
  8
0
 62
7
100
AcDbPolyline
 90
2
 70
0
 10
93.027500
 20
58.611798
 30
0.0
 10
91.686944
 20
58.611798
 30
0.0
  0
LWPOLYLINE
  5
270
100
AcDbEntity
  8
0
 62
7
100
AcDbPolyline
 90
5
 70
0
 10
92.321944
 20
66.496382
 30
0.0
 10
92.189653
 20
66.496382
 30
0.0
 10
92.189653
 20
72.678812
 30
0.0
 10
87.841667
 20
72.678812
 30
0.0
 10
87.841667
 20
72.678812
 30
0.0
  0
LWPOLYLINE
  5
271
100
AcDbEntity
  8
0
 62
7
100
AcDbPolyline
 90
9
 70
0
 10
112.669252
 20
72.675109
 30
0.0
 10
112.669252
 20
67.746039
 30
0.0
 10
109.291334
 20
67.746039
 30
0.0
 10
109.291334
 20
50.249260
 30
0.0
 10
102.996283
 20
50.249260
 30
0.0
 10
102.996283
 20
67.746039
 30
0.0
 10
99.632149
 20
67.746039
 30
0.0
 10
99.632149
 20
72.675109
 30
0.0
 10
112.669252
 20
72.675109
 30
0.0
  0
SPLINE
  5
272
100
AcDbEntity
  8
0
 62
7
100
AcDbSpline
 70
8
 71
3
 72
8
 73
4
 74
0
 40
0
 40
0
 40
0
 40
0
 40
1
 40
1
 40
1
 40
1
 10
121.262180
 20
66.671167
 30
0.0
 10
121.262171
 20
67.740279
 30
0.0
 10
121.217529
 20
68.375900
 30
0.0
 10
121.128254
 20
68.578030
 30
0.0
  0
SPLINE
  5
273
100
AcDbEntity
  8
0
 62
7
100
AcDbSpline
 70
8
 71
3
 72
8
 73
4
 74
0
 40
0
 40
0
 40
0
 40
0
 40
1
 40
1
 40
1
 40
1
 10
121.128254
 20
68.578030
 30
0.0
 10
121.038959
 20
68.780124
 30
0.0
 10
120.855938
 20
68.881179
 30
0.0
 10
120.579190
 20
68.881196
 30
0.0
  0
SPLINE
  5
274
100
AcDbEntity
  8
0
 62
7
100
AcDbSpline
 70
8
 71
3
 72
8
 73
4
 74
0
 40
0
 40
0
 40
0
 40
0
 40
1
 40
1
 40
1
 40
1
 10
120.579190
 20
68.881196
 30
0.0
 10
120.252473
 20
68.881179
 30
0.0
 10
120.041173
 20
68.754427
 30
0.0
 10
119.945294
 20
68.500944
 30
0.0
  0
SPLINE
  5
275
100
AcDbEntity
  8
0
 62
7
100
AcDbSpline
 70
8
 71
3
 72
8
 73
4
 74
0
 40
0
 40
0
 40
0
 40
0
 40
1
 40
1
 40
1
 40
1
 10
119.945294
 20
68.500944
 30
0.0
 10
119.849398
 20
68.247427
 30
0.0
 10
119.801454
 20
67.578935
 30
0.0
 10
119.801459
 20
66.495470
 30
0.0
  0
LWPOLYLINE
  5
276
100
AcDbEntity
  8
0
 62
7
100
AcDbPolyline
 90
3
 70
0
 10
127.557231
 20
62.585284
 30
0.0
 10
121.262180
 20
62.585284
 30
0.0
 10
121.262180
 20
66.671167
 30
0.0
  0
SPLINE
  5
277
100
AcDbEntity
  8
0
 62
7
100
AcDbSpline
 70
8
 71
3
 72
8
 73
4
 74
0
 40
0
 40
0
 40
0
 40
0
 40
1
 40
1
 40
1
 40
1
 10
119.801459
 20
56.335021
 30
0.0
 10
119.801454
 20
55.298041
 30
0.0
 10
119.849110
 20
54.656823
 30
0.0
 10
119.944430
 20
54.411366
 30
0.0
  0
SPLINE
  5
278
100
AcDbEntity
  8
0
 62
7
100
AcDbSpline
 70
8
 71
3
 72
8
 73
4
 74
0
 40
0
 40
0
 40
0
 40
0
 40
1
 40
1
 40
1
 40
1
 10
119.944430
 20
54.411366
 30
0.0
 10
120.039740
 20
54.165898
 30
0.0
 10
120.237831
 20
54.043168
 30
0.0
 10
120.538711
 20
54.043171
 30
0.0
  0
SPLINE
  5
279
100
AcDbEntity
  8
0
 62
7
100
AcDbSpline
 70
8
 71
3
 72
8
 73
4
 74
0
 40
0
 40
0
 40
0
 40
0
 40
1
 40
1
 40
1
 40
1
 10
120.538711
 20
54.043171
 30
0.0
 10
120.820053
 20
54.043168
 30
0.0
 10
121.010968
 20
54.168051
 30
0.0
 10
121.111459
 20
54.417826
 30
0.0
  0
SPLINE
  5
27a
100
AcDbEntity
  8
0
 62
7
100
AcDbSpline
 70
8
 71
3
 72
8
 73
4
 74
0
 40
0
 40
0
 40
0
 40
0
 40
1
 40
1
 40
1
 40
1
 10
121.111459
 20
54.417826
 30
0.0
 10
121.211930
 20
54.667590
 30
0.0
 10
121.262171
 20
55.374122
 30
0.0
 10
121.262180
 20
56.537420
 30
0.0
  0
LWPOLYLINE
  5
27b
100
AcDbEntity
  8
0
 62
7
100
AcDbPolyline
 90
2
 70
0
 10
119.801459
 20
66.495470
 30
0.0
 10
119.801459
 20
56.335021
 30
0.0
  0
SPLINE
  5
27c
100
AcDbEntity
  8
0
 62
7
100
AcDbSpline
 70
8
 71
3
 72
8
 73
4
 74
0
 40
0
 40
0
 40
0
 40
0
 40
1
 40
1
 40
1
 40
1
 10
127.557231
 20
58.428777
 30
0.0
 10
127.557217
 20
56.145247
 30
0.0
 10
127.389698
 20
54.507824
 30
0.0
 10
127.054678
 20
53.516502
 30
0.0
  0
SPLINE
  5
27d
100
AcDbEntity
  8
0
 62
7
100
AcDbSpline
 70
8
 71
3
 72
8
 73
4
 74
0
 40
0
 40
0
 40
0
 40
0
 40
1
 40
1
 40
1
 40
1
 10
127.054678
 20
53.516502
 30
0.0
 10
126.719629
 20
52.525174
 30
0.0
 10
125.977929
 20
51.656293
 30
0.0
 10
124.829576
 20
50.909858
 30
0.0
  0
SPLINE
  5
27e
100
AcDbEntity
  8
0
 62
7
100
AcDbSpline
 70
8
 71
3
 72
8
 73
4
 74
0
 40
0
 40
0
 40
0
 40
0
 40
1
 40
1
 40
1
 40
1
 10
124.829576
 20
50.909858
 30
0.0
 10
123.681199
 20
50.163420
 30
0.0
 10
122.273306
 20
49.790200
 30
0.0
 10
120.605889
 20
49.790200
 30
0.0
  0
SPLINE
  5
27f
100
AcDbEntity
  8
0
 62
7
100
AcDbSpline
 70
8
 71
3
 72
8
 73
4
 74
0
 40
0
 40
0
 40
0
 40
0
 40
1
 40
1
 40
1
 40
1
 10
120.605889
 20
49.790200
 30
0.0
 10
118.879891
 20
49.790200
 30
0.0
 10
117.448598
 20
50.107579
 30
0.0
 10
116.312010
 20
50.742339
 30
0.0
  0
SPLINE
  5
280
100
AcDbEntity
  8
0
 62
7
100
AcDbSpline
 70
8
 71
3
 72
8
 73
4
 74
0
 40
0
 40
0
 40
0
 40
0
 40
1
 40
1
 40
1
 40
1
 10
116.312010
 20
50.742339
 30
0.0
 10
115.175411
 20
51.377096
 30
0.0
 10
114.423808
 20
52.251432
 30
0.0
 10
114.057193
 20
53.365349
 30
0.0
  0
SPLINE
  5
281
100
AcDbEntity
  8
0
 62
7
100
AcDbSpline
 70
8
 71
3
 72
8
 73
4
 74
0
 40
0
 40
0
 40
0
 40
0
 40
1
 40
1
 40
1
 40
1
 10
114.057193
 20
53.365349
 30
0.0
 10
113.690578
 20
54.479258
 30
0.0
 10
113.507269
 20
56.121994
 30
0.0
 10
113.507272
 20
58.293559
 30
0.0
  0
LWPOLYLINE
  5
282
100
AcDbEntity
  8
0
 62
7
100
AcDbPolyline
 90
4
 70
0
 10
121.262180
 20
56.537420
 30
0.0
 10
121.262180
 20
59.556184
 30
0.0
 10
127.557231
 20
59.556184
 30
0.0
 10
127.557231
 20
58.428777
 30
0.0
  0
SPLINE
  5
283
100
AcDbEntity
  8
0
 62
7
100
AcDbSpline
 70
8
 71
3
 72
8
 73
4
 74
0
 40
0
 40
0
 40
0
 40
0
 40
1
 40
1
 40
1
 40
1
 10
113.507272
 20
64.685071
 30
0.0
 10
113.507269
 20
66.284153
 30
0.0
 10
113.562534
 20
67.487495
 30
0.0
 10
113.673066
 20
68.295099
 30
0.0
  0
SPLINE
  5
284
100
AcDbEntity
  8
0
 62
7
100
AcDbSpline
 70
8
 71
3
 72
8
 73
4
 74
0
 40
0
 40
0
 40
0
 40
0
 40
1
 40
1
 40
1
 40
1
 10
113.673066
 20
68.295099
 30
0.0
 10
113.783595
 20
69.102670
 30
0.0
 10
114.121500
 20
69.891309
 30
0.0
 10
114.686786
 20
70.661019
 30
0.0
  0
SPLINE
  5
285
100
AcDbEntity
  8
0
 62
7
100
AcDbSpline
 70
8
 71
3
 72
8
 73
4
 74
0
 40
0
 40
0
 40
0
 40
0
 40
1
 40
1
 40
1
 40
1
 10
114.686786
 20
70.661019
 30
0.0
 10
115.252065
 20
71.430690
 30
0.0
 10
116.033671
 20
72.035303
 30
0.0
 10
117.031603
 20
72.474861
 30
0.0
  0
SPLINE
  5
286
100
AcDbEntity
  8
0
 62
7
100
AcDbSpline
 70
8
 71
3
 72
8
 73
4
 74
0
 40
0
 40
0
 40
0
 40
0
 40
1
 40
1
 40
1
 40
1
 10
117.031603
 20
72.474861
 30
0.0
 10
118.029527
 20
72.914377
 30
0.0
 10
119.166981
 20
73.134144
 30
0.0
 10
120.443969
 20
73.134166
 30
0.0
  0
SPLINE
  5
287
100
AcDbEntity
  8
0
 62
7
100
AcDbSpline
 70
8
 71
3
 72
8
 73
4
 74
0
 40
0
 40
0
 40
0
 40
0
 40
1
 40
1
 40
1
 40
1
 10
120.443969
 20
73.134166
 30
0.0
 10
122.176845
 20
73.134144
 30
0.0
 10
123.616175
 20
72.793225
 30
0.0
 10
124.761966
 20
72.111404
 30
0.0
  0
SPLINE
  5
288
100
AcDbEntity
  8
0
 62
7
100
AcDbSpline
 70
8
 71
3
 72
8
 73
4
 74
0
 40
0
 40
0
 40
0
 40
0
 40
1
 40
1
 40
1
 40
1
 10
124.761966
 20
72.111404
 30
0.0
 10
125.907735
 20
71.429541
 30
0.0
 10
126.660058
 20
70.581331
 30
0.0
 10
127.018934
 20
69.566770
 30
0.0
  0
SPLINE
  5
289
100
AcDbEntity
  8
0
 62
7
100
AcDbSpline
 70
8
 71
3
 72
8
 73
4
 74
0
 40
0
 40
0
 40
0
 40
0
 40
1
 40
1
 40
1
 40
1
 10
127.018934
 20
69.566770
 30
0.0
 10
127.377785
 20
68.552173
 30
0.0
 10
127.557217
 20
67.010494
 30
0.0
 10
127.557231
 20
64.941729
 30
0.0
  0
LWPOLYLINE
  5
28a
100
AcDbEntity
  8
0
 62
7
100
AcDbPolyline
 90
2
 70
0
 10
113.507272
 20
58.293559
 30
0.0
 10
113.507272
 20
64.685071
 30
0.0
  0
LWPOLYLINE
  5
28b
100
AcDbEntity
  8
0
 62
7
100
AcDbPolyline
 90
2
 70
0
 10
127.557231
 20
64.941729
 30
0.0
 10
127.557231
 20
62.585284
 30
0.0
  0
LWPOLYLINE
  5
28c
100
AcDbEntity
  8
0
 62
7
100
AcDbPolyline
 90
13
 70
0
 10
143.063606
 20
72.675109
 30
0.0
 10
143.063606
 20
50.249260
 30
0.0
 10
136.769416
 20
50.249260
 30
0.0
 10
136.769416
 20
59.437329
 30
0.0
 10
135.673016
 20
59.437329
 30
0.0
 10
135.673016
 20
50.249260
 30
0.0
 10
129.378826
 20
50.249260
 30
0.0
 10
129.378826
 20
72.675109
 30
0.0
 10
135.673016
 20
72.675109
 30
0.0
 10
135.673016
 20
64.852158
 30
0.0
 10
136.769416
 20
64.852158
 30
0.0
 10
136.769416
 20
72.675109
 30
0.0
 10
143.063606
 20
72.675109
 30
0.0
  0
SPLINE
  5
28d
100
AcDbEntity
  8
0
 62
7
100
AcDbSpline
 70
8
 71
3
 72
8
 73
4
 74
0
 40
0
 40
0
 40
0
 40
0
 40
1
 40
1
 40
1
 40
1
 10
55.510986
 20
44.575795
 30
0.0
 10
56.361920
 20
40.152275
 30
0.0
 10
56.770448
 20
37.283373
 30
0.0
 10
56.736578
 20
35.969084
 30
0.0
  0
SPLINE
  5
28e
100
AcDbEntity
  8
0
 62
7
100
AcDbSpline
 70
8
 71
3
 72
8
 73
4
 74
0
 40
0
 40
0
 40
0
 40
0
 40
1
 40
1
 40
1
 40
1
 10
56.736578
 20
35.969084
 30
0.0
 10
56.784229
 20
38.134310
 30
0.0
 10
57.194769
 20
41.003212
 30
0.0
 10
57.968202
 20
44.575795
 30
0.0
  0
LWPOLYLINE
  5
28f
100
AcDbEntity
  8
0
 62
7
100
AcDbPolyline
 90
7
 70
0
 10
63.750794
 20
44.575795
 30
0.0
 10
59.602898
 20
30.308793
 30
0.0
 10
59.602898
 20
22.149957
 30
0.0
 10
53.727288
 20
22.149957
 30
0.0
 10
53.727288
 20
30.298458
 30
0.0
 10
49.728394
 20
44.575795
 30
0.0
 10
55.510986
 20
44.575795
 30
0.0
  0
SPLINE
  5
290
100
AcDbEntity
  8
0
 62
7
100
AcDbSpline
 70
8
 71
3
 72
8
 73
4
 74
0
 40
0
 40
0
 40
0
 40
0
 40
1
 40
1
 40
1
 40
1
 10
70.670208
 20
45.021034
 30
0.0
 10
69.586664
 20
44.974420
 30
0.0
 10
68.613632
 20
44.767621
 30
0.0
 10
67.759792
 20
44.394854
 30
0.0
  0
SPLINE
  5
291
100
AcDbEntity
  8
0
 62
7
100
AcDbSpline
 70
8
 71
3
 72
8
 73
4
 74
0
 40
0
 40
0
 40
0
 40
0
 40
1
 40
1
 40
1
 40
1
 10
67.759792
 20
44.394854
 30
0.0
 10
66.783966
 20
43.968789
 30
0.0
 10
66.015032
 20
43.358215
 30
0.0
 10
65.440278
 20
42.560409
 30
0.0
  0
SPLINE
  5
292
100
AcDbEntity
  8
0
 62
7
100
AcDbSpline
 70
8
 71
3
 72
8
 73
4
 74
0
 40
0
 40
0
 40
0
 40
0
 40
1
 40
1
 40
1
 40
1
 10
65.440278
 20
42.560409
 30
0.0
 10
64.865518
 20
41.762561
 30
0.0
 10
64.522869
 20
40.892561
 30
0.0
 10
64.417222
 20
39.958673
 30
0.0
  0
SPLINE
  5
293
100
AcDbEntity
  8
0
 62
7
100
AcDbSpline
 70
8
 71
3
 72
8
 73
4
 74
0
 40
0
 40
0
 40
0
 40
0
 40
1
 40
1
 40
1
 40
1
 10
64.417222
 20
39.958673
 30
0.0
 10
64.311570
 20
39.024746
 30
0.0
 10
64.258472
 20
37.449503
 30
0.0
 10
64.258472
 20
35.231451
 30
0.0
  0
LWPOLYLINE
  5
294
100
AcDbEntity
  8
0
 62
7
100
AcDbPolyline
 90
2
 70
0
 10
57.968202
 20
44.575795
 30
0.0
 10
63.750794
 20
44.575795
 30
0.0
  0
SPLINE
  5
295
100
AcDbEntity
  8
0
 62
7
100
AcDbSpline
 70
8
 71
3
 72
8
 73
4
 74
0
 40
0
 40
0
 40
0
 40
0
 40
1
 40
1
 40
1
 40
1
 10
64.258472
 20
31.492007
 30
0.0
 10
64.258472
 20
29.215941
 30
0.0
 10
64.315509
 20
27.616935
 30
0.0
 10
64.426042
 20
26.694229
 30
0.0
  0
SPLINE
  5
296
100
AcDbEntity
  8
0
 62
7
100
AcDbSpline
 70
8
 71
3
 72
8
 73
4
 74
0
 40
0
 40
0
 40
0
 40
0
 40
1
 40
1
 40
1
 40
1
 10
64.426042
 20
26.694229
 30
0.0
 10
64.536571
 20
25.771515
 30
0.0
 10
64.886939
 20
24.906887
 30
0.0
 10
65.484375
 20
24.101312
 30
0.0
  0
SPLINE
  5
297
100
AcDbEntity
  8
0
 62
7
100
AcDbSpline
 70
8
 71
3
 72
8
 73
4
 74
0
 40
0
 40
0
 40
0
 40
0
 40
1
 40
1
 40
1
 40
1
 10
65.484375
 20
24.101312
 30
0.0
 10
66.081811
 20
23.295737
 30
0.0
 10
66.872445
 20
22.693799
 30
0.0
 10
67.847986
 20
22.293326
 30
0.0
  0
SPLINE
  5
298
100
AcDbEntity
  8
0
 62
7
100
AcDbSpline
 70
8
 71
3
 72
8
 73
4
 74
0
 40
0
 40
0
 40
0
 40
0
 40
1
 40
1
 40
1
 40
1
 10
67.847986
 20
22.293326
 30
0.0
 10
68.730255
 20
21.931114
 30
0.0
 10
69.711262
 20
21.736888
 30
0.0
 10
70.793681
 20
21.702423
 30
0.0
  0
LWPOLYLINE
  5
299
100
AcDbEntity
  8
0
 62
7
100
AcDbPolyline
 90
2
 70
0
 10
64.258472
 20
35.231451
 30
0.0
 10
64.258472
 20
31.492007
 30
0.0
  0
SPLINE
  5
29a
100
AcDbEntity
  8
0
 62
7
100
AcDbSpline
 70
8
 71
3
 72
8
 73
4
 74
0
 40
0
 40
0
 40
0
 40
0
 40
1
 40
1
 40
1
 40
1
 10
70.793681
 20
26.068048
 30
0.0
 10
70.740634
 20
26.119884
 30
0.0
 10
70.699878
 20
26.185808
 30
0.0
 10
70.670208
 20
26.270895
 30
0.0
  0
SPLINE
  5
29b
100
AcDbEntity
  8
0
 62
7
100
AcDbSpline
 70
8
 71
3
 72
8
 73
4
 74
0
 40
0
 40
0
 40
0
 40
0
 40
1
 40
1
 40
1
 40
1
 10
70.670208
 20
26.270895
 30
0.0
 10
70.594409
 20
26.488221
 30
0.0
 10
70.555547
 20
27.220954
 30
0.0
 10
70.555556
 20
28.466937
 30
0.0
  0
LWPOLYLINE
  5
29c
100
AcDbEntity
  8
0
 62
7
100
AcDbPolyline
 90
2
 70
0
 10
70.793681
 20
21.702423
 30
0.0
 10
70.793681
 20
26.068048
 30
0.0
  0
SPLINE
  5
29d
100
AcDbEntity
  8
0
 62
7
100
AcDbSpline
 70
8
 71
3
 72
8
 73
4
 74
0
 40
0
 40
0
 40
0
 40
0
 40
1
 40
1
 40
1
 40
1
 10
70.555556
 20
38.679854
 30
0.0
 10
70.555547
 20
39.700962
 30
0.0
 10
70.604431
 20
40.306981
 30
0.0
 10
70.705486
 20
40.505479
 30
0.0
  0
LWPOLYLINE
  5
29e
100
AcDbEntity
  8
0
 62
7
100
AcDbPolyline
 90
2
 70
0
 10
70.555556
 20
28.466937
 30
0.0
 10
70.555556
 20
38.679854
 30
0.0
  0
SPLINE
  5
29f
100
AcDbEntity
  8
0
 62
7
100
AcDbSpline
 70
8
 71
3
 72
8
 73
4
 74
0
 40
0
 40
0
 40
0
 40
0
 40
1
 40
1
 40
1
 40
1
 10
70.705486
 20
45.021034
 30
0.0
 10
70.693794
 20
45.020571
 30
0.0
 10
70.681875
 20
45.021537
 30
0.0
 10
70.670208
 20
45.021034
 30
0.0
  0
LWPOLYLINE
  5
2a0
100
AcDbEntity
  8
0
 62
7
100
AcDbPolyline
 90
2
 70
0
 10
70.705486
 20
40.505479
 30
0.0
 10
70.705486
 20
45.021034
 30
0.0
  0
LWPOLYLINE
  5
2a1
100
AcDbEntity
  8
0
 62
7
100
AcDbPolyline
 90
2
 70
0
 10
70.670208
 20
45.021034
 30
0.0
 10
70.670208
 20
45.021034
 30
0.0
  0
SPLINE
  5
2a2
100
AcDbEntity
  8
0
 62
7
100
AcDbSpline
 70
8
 71
3
 72
8
 73
4
 74
0
 40
0
 40
0
 40
0
 40
0
 40
1
 40
1
 40
1
 40
1
 10
71.516875
 20
40.611312
 30
0.0
 10
71.548865
 20
40.569574
 30
0.0
 10
71.582283
 20
40.527588
 30
0.0
 10
71.605069
 20
40.470201
 30
0.0
  0
SPLINE
  5
2a3
100
AcDbEntity
  8
0
 62
7
100
AcDbSpline
 70
8
 71
3
 72
8
 73
4
 74
0
 40
0
 40
0
 40
0
 40
0
 40
1
 40
1
 40
1
 40
1
 10
71.605069
 20
40.470201
 30
0.0
 10
71.688604
 20
40.259742
 30
0.0
 10
71.728533
 20
39.660542
 30
0.0
 10
71.728542
 20
38.679854
 30
0.0
  0
LWPOLYLINE
  5
2a4
100
AcDbEntity
  8
0
 62
7
100
AcDbPolyline
 90
2
 70
0
 10
71.516875
 20
45.021034
 30
0.0
 10
71.516875
 20
40.611312
 30
0.0
  0
SPLINE
  5
2a5
100
AcDbEntity
  8
0
 62
7
100
AcDbSpline
 70
8
 71
3
 72
8
 73
4
 74
0
 40
0
 40
0
 40
0
 40
0
 40
1
 40
1
 40
1
 40
1
 10
71.728542
 20
28.625687
 30
0.0
 10
71.728533
 20
27.371667
 30
0.0
 10
71.689753
 20
26.609015
 30
0.0
 10
71.605069
 20
26.341451
 30
0.0
  0
SPLINE
  5
2a6
100
AcDbEntity
  8
0
 62
7
100
AcDbSpline
 70
8
 71
3
 72
8
 73
4
 74
0
 40
0
 40
0
 40
0
 40
0
 40
1
 40
1
 40
1
 40
1
 10
71.605069
 20
26.341451
 30
0.0
 10
71.564339
 20
26.212780
 30
0.0
 10
71.503766
 20
26.116128
 30
0.0
 10
71.428681
 20
26.050409
 30
0.0
  0
LWPOLYLINE
  5
2a7
100
AcDbEntity
  8
0
 62
7
100
AcDbPolyline
 90
2
 70
0
 10
71.728542
 20
38.679854
 30
0.0
 10
71.728542
 20
28.625687
 30
0.0
  0
SPLINE
  5
2a8
100
AcDbEntity
  8
0
 62
7
100
AcDbSpline
 70
8
 71
3
 72
8
 73
4
 74
0
 40
0
 40
0
 40
0
 40
0
 40
1
 40
1
 40
1
 40
1
 10
71.428681
 20
21.702423
 30
0.0
 10
72.589353
 20
21.732099
 30
0.0
 10
73.617393
 20
21.936157
 30
0.0
 10
74.515486
 20
22.328604
 30
0.0
  0
SPLINE
  5
2a9
100
AcDbEntity
  8
0
 62
7
100
AcDbSpline
 70
8
 71
3
 72
8
 73
4
 74
0
 40
0
 40
0
 40
0
 40
0
 40
1
 40
1
 40
1
 40
1
 10
74.515486
 20
22.328604
 30
0.0
 10
75.487852
 20
22.753489
 30
0.0
 10
76.269336
 20
23.365488
 30
0.0
 10
76.843819
 20
24.163048
 30
0.0
  0
SPLINE
  5
2aa
100
AcDbEntity
  8
0
 62
7
100
AcDbSpline
 70
8
 71
3
 72
8
 73
4
 74
0
 40
0
 40
0
 40
0
 40
0
 40
1
 40
1
 40
1
 40
1
 10
76.843819
 20
24.163048
 30
0.0
 10
77.418274
 20
24.960574
 30
0.0
 10
77.759489
 20
25.835593
 30
0.0
 10
77.866875
 20
26.782423
 30
0.0
  0
SPLINE
  5
2ab
100
AcDbEntity
  8
0
 62
7
100
AcDbSpline
 70
8
 71
3
 72
8
 73
4
 74
0
 40
0
 40
0
 40
0
 40
0
 40
1
 40
1
 40
1
 40
1
 10
77.866875
 20
26.782423
 30
0.0
 10
77.974232
 20
27.729245
 30
0.0
 10
78.025611
 20
29.296899
 30
0.0
 10
78.025625
 20
31.492007
 30
0.0
  0
LWPOLYLINE
  5
2ac
100
AcDbEntity
  8
0
 62
7
100
AcDbPolyline
 90
2
 70
0
 10
71.428681
 20
26.050409
 30
0.0
 10
71.428681
 20
21.702423
 30
0.0
  0
SPLINE
  5
2ad
100
AcDbEntity
  8
0
 62
7
100
AcDbSpline
 70
8
 71
3
 72
8
 73
4
 74
0
 40
0
 40
0
 40
0
 40
0
 40
1
 40
1
 40
1
 40
1
 10
78.025625
 20
35.231451
 30
0.0
 10
78.025611
 20
37.478787
 30
0.0
 10
77.970005
 20
39.075944
 30
0.0
 10
77.858056
 20
40.011590
 30
0.0
  0
SPLINE
  5
2ae
100
AcDbEntity
  8
0
 62
7
100
AcDbSpline
 70
8
 71
3
 72
8
 73
4
 74
0
 40
0
 40
0
 40
0
 40
0
 40
1
 40
1
 40
1
 40
1
 10
77.858056
 20
40.011590
 30
0.0
 10
77.746075
 20
40.947202
 30
0.0
 10
77.388325
 20
41.816548
 30
0.0
 10
76.790903
 20
42.622145
 30
0.0
  0
SPLINE
  5
2af
100
AcDbEntity
  8
0
 62
7
100
AcDbSpline
 70
8
 71
3
 72
8
 73
4
 74
0
 40
0
 40
0
 40
0
 40
0
 40
1
 40
1
 40
1
 40
1
 10
76.790903
 20
42.622145
 30
0.0
 10
76.193452
 20
43.427701
 30
0.0
 10
75.406261
 20
44.028182
 30
0.0
 10
74.427292
 20
44.430132
 30
0.0
  0
SPLINE
  5
2b0
100
AcDbEntity
  8
0
 62
7
100
AcDbSpline
 70
8
 71
3
 72
8
 73
4
 74
0
 40
0
 40
0
 40
0
 40
0
 40
1
 40
1
 40
1
 40
1
 10
74.427292
 20
44.430132
 30
0.0
 10
73.551508
 20
44.789669
 30
0.0
 10
72.579202
 20
44.983112
 30
0.0
 10
71.516875
 20
45.021034
 30
0.0
  0
LWPOLYLINE
  5
2b1
100
AcDbEntity
  8
0
 62
7
100
AcDbPolyline
 90
2
 70
0
 10
78.025625
 20
31.492007
 30
0.0
 10
78.025625
 20
35.231451
 30
0.0
  0
LWPOLYLINE
  5
2b2
100
AcDbEntity
  8
0
 62
7
100
AcDbPolyline
 90
2
 70
0
 10
71.516875
 20
45.021034
 30
0.0
 10
71.516875
 20
45.021034
 30
0.0
  0
SPLINE
  5
2b3
100
AcDbEntity
  8
0
 62
7
100
AcDbSpline
 70
8
 71
3
 72
8
 73
4
 74
0
 40
0
 40
0
 40
0
 40
0
 40
1
 40
1
 40
1
 40
1
 10
93.445793
 20
29.680924
 30
0.0
 10
93.445779
 20
28.010048
 30
0.0
 10
93.389365
 20
26.824934
 30
0.0
 10
93.276553
 20
26.125585
 30
0.0
  0
SPLINE
  5
2b4
100
AcDbEntity
  8
0
 62
7
100
AcDbSpline
 70
8
 71
3
 72
8
 73
4
 74
0
 40
0
 40
0
 40
0
 40
0
 40
1
 40
1
 40
1
 40
1
 10
93.276553
 20
26.125585
 30
0.0
 10
93.163712
 20
25.426227
 30
0.0
 10
92.826956
 20
24.703617
 30
0.0
 10
92.266279
 20
23.957760
 30
0.0
  0
SPLINE
  5
2b5
100
AcDbEntity
  8
0
 62
7
100
AcDbSpline
 70
8
 71
3
 72
8
 73
4
 74
0
 40
0
 40
0
 40
0
 40
0
 40
1
 40
1
 40
1
 40
1
 10
92.266279
 20
23.957760
 30
0.0
 10
91.705577
 20
23.211903
 30
0.0
 10
90.968901
 20
22.647628
 30
0.0
 10
90.056250
 20
22.264934
 30
0.0
  0
SPLINE
  5
2b6
100
AcDbEntity
  8
0
 62
7
100
AcDbSpline
 70
8
 71
3
 72
8
 73
4
 74
0
 40
0
 40
0
 40
0
 40
0
 40
1
 40
1
 40
1
 40
1
 10
90.056250
 20
22.264934
 30
0.0
 10
89.143578
 20
21.882241
 30
0.0
 10
88.073444
 20
21.690894
 30
0.0
 10
86.845851
 20
21.690894
 30
0.0
  0
SPLINE
  5
2b7
100
AcDbEntity
  8
0
 62
7
100
AcDbSpline
 70
8
 71
3
 72
8
 73
4
 74
0
 40
0
 40
0
 40
0
 40
0
 40
1
 40
1
 40
1
 40
1
 10
86.845851
 20
21.690894
 30
0.0
 10
85.491348
 20
21.690894
 30
0.0
 10
84.290591
 20
21.917265
 30
0.0
 10
83.243575
 20
22.370006
 30
0.0
  0
SPLINE
  5
2b8
100
AcDbEntity
  8
0
 62
7
100
AcDbSpline
 70
8
 71
3
 72
8
 73
4
 74
0
 40
0
 40
0
 40
0
 40
0
 40
1
 40
1
 40
1
 40
1
 10
83.243575
 20
22.370006
 30
0.0
 10
82.196548
 20
22.822747
 30
0.0
 10
81.411786
 20
23.414877
 30
0.0
 10
80.889283
 20
24.146369
 30
0.0
  0
SPLINE
  5
2b9
100
AcDbEntity
  8
0
 62
7
100
AcDbSpline
 70
8
 71
3
 72
8
 73
4
 74
0
 40
0
 40
0
 40
0
 40
0
 40
1
 40
1
 40
1
 40
1
 10
80.889283
 20
24.146369
 30
0.0
 10
80.366774
 20
24.877889
 30
0.0
 10
80.059301
 20
25.639248
 30
0.0
 10
79.966857
 20
26.430475
 30
0.0
  0
SPLINE
  5
2ba
100
AcDbEntity
  8
0
 62
7
100
AcDbSpline
 70
8
 71
3
 72
8
 73
4
 74
0
 40
0
 40
0
 40
0
 40
0
 40
1
 40
1
 40
1
 40
1
 10
79.966857
 20
26.430475
 30
0.0
 10
79.874415
 20
27.221694
 30
0.0
 10
79.828192
 20
28.863569
 30
0.0
 10
79.828192
 20
31.356102
 30
0.0
  0
LWPOLYLINE
  5
2bb
100
AcDbEntity
  8
0
 62
7
100
AcDbPolyline
 90
2
 70
0
 10
93.445793
 20
44.575795
 30
0.0
 10
93.445793
 20
29.680924
 30
0.0
  0
SPLINE
  5
2bc
100
AcDbEntity
  8
0
 62
7
100
AcDbSpline
 70
8
 71
3
 72
8
 73
4
 74
0
 40
0
 40
0
 40
0
 40
0
 40
1
 40
1
 40
1
 40
1
 10
86.122383
 20
27.897226
 30
0.0
 10
86.122375
 20
26.969342
 30
0.0
 10
86.158835
 20
26.411812
 30
0.0
 10
86.231764
 20
26.224631
 30
0.0
  0
SPLINE
  5
2bd
100
AcDbEntity
  8
0
 62
7
100
AcDbSpline
 70
8
 71
3
 72
8
 73
4
 74
0
 40
0
 40
0
 40
0
 40
0
 40
1
 40
1
 40
1
 40
1
 10
86.231764
 20
26.224631
 30
0.0
 10
86.304679
 20
26.037444
 30
0.0
 10
86.428413
 20
25.943854
 30
0.0
 10
86.602974
 20
25.943856
 30
0.0
  0
SPLINE
  5
2be
100
AcDbEntity
  8
0
 62
7
100
AcDbSpline
 70
8
 71
3
 72
8
 73
4
 74
0
 40
0
 40
0
 40
0
 40
0
 40
1
 40
1
 40
1
 40
1
 10
86.602974
 20
25.943856
 30
0.0
 10
86.814265
 20
25.943854
 30
0.0
 10
86.958384
 20
26.052374
 30
0.0
 10
87.035332
 20
26.269419
 30
0.0
  0
SPLINE
  5
2bf
100
AcDbEntity
  8
0
 62
7
100
AcDbSpline
 70
8
 71
3
 72
8
 73
4
 74
0
 40
0
 40
0
 40
0
 40
0
 40
1
 40
1
 40
1
 40
1
 10
87.035332
 20
26.269419
 30
0.0
 10
87.112266
 20
26.486454
 30
0.0
 10
87.150736
 20
27.123796
 30
0.0
 10
87.150744
 20
28.181447
 30
0.0
  0
LWPOLYLINE
  5
2c0
100
AcDbEntity
  8
0
 62
7
100
AcDbPolyline
 90
4
 70
0
 10
79.828192
 20
31.356102
 30
0.0
 10
79.828192
 20
44.575795
 30
0.0
 10
86.122383
 20
44.575795
 30
0.0
 10
86.122383
 20
27.897226
 30
0.0
  0
LWPOLYLINE
  5
2c1
100
AcDbEntity
  8
0
 62
7
100
AcDbPolyline
 90
3
 70
0
 10
87.150744
 20
28.181447
 30
0.0
 10
87.150744
 20
44.575795
 30
0.0
 10
93.445793
 20
44.575795
 30
0.0
  0
SPLINE
  5
2c2
100
AcDbEntity
  8
0
 62
7
100
AcDbSpline
 70
8
 71
3
 72
8
 73
4
 74
0
 40
0
 40
0
 40
0
 40
0
 40
1
 40
1
 40
1
 40
1
 10
107.932361
 20
30.962840
 30
0.0
 10
109.225986
 20
30.962831
 30
0.0
 10
110.284257
 20
31.143307
 30
0.0
 10
111.107361
 20
31.509645
 30
0.0
  0
SPLINE
  5
2c3
100
AcDbEntity
  8
0
 62
7
100
AcDbSpline
 70
8
 71
3
 72
8
 73
4
 74
0
 40
0
 40
0
 40
0
 40
0
 40
1
 40
1
 40
1
 40
1
 10
111.107361
 20
31.509645
 30
0.0
 10
111.930437
 20
31.875964
 30
0.0
 10
112.498581
 20
32.398722
 30
0.0
 10
112.809514
 20
33.088326
 30
0.0
  0
SPLINE
  5
2c4
100
AcDbEntity
  8
0
 62
7
100
AcDbSpline
 70
8
 71
3
 72
8
 73
4
 74
0
 40
0
 40
0
 40
0
 40
0
 40
1
 40
1
 40
1
 40
1
 10
112.809514
 20
33.088326
 30
0.0
 10
113.120418
 20
33.777908
 30
0.0
 10
113.276930
 20
34.840119
 30
0.0
 10
113.276944
 20
36.272145
 30
0.0
  0
LWPOLYLINE
  5
2c5
100
AcDbEntity
  8
0
 62
7
100
AcDbPolyline
 90
5
 70
0
 10
100.418194
 20
44.580062
 30
0.0
 10
100.418194
 20
22.152215
 30
0.0
 10
106.706458
 20
22.152215
 30
0.0
 10
106.706458
 20
30.962840
 30
0.0
 10
107.932361
 20
30.962840
 30
0.0
  0
SPLINE
  5
2c6
100
AcDbEntity
  8
0
 62
7
100
AcDbSpline
 70
8
 71
3
 72
8
 73
4
 74
0
 40
0
 40
0
 40
0
 40
0
 40
1
 40
1
 40
1
 40
1
 10
113.276944
 20
38.177145
 30
0.0
 10
113.276930
 20
39.558612
 30
0.0
 10
113.195269
 20
40.593701
 30
0.0
 10
113.038819
 20
41.281590
 30
0.0
  0
SPLINE
  5
2c7
100
AcDbEntity
  8
0
 62
7
100
AcDbSpline
 70
8
 71
3
 72
8
 73
4
 74
0
 40
0
 40
0
 40
0
 40
0
 40
1
 40
1
 40
1
 40
1
 10
113.038819
 20
41.281590
 30
0.0
 10
112.882341
 20
41.969442
 30
0.0
 10
112.582858
 20
42.566717
 30
0.0
 10
112.130417
 20
43.063118
 30
0.0
  0
SPLINE
  5
2c8
100
AcDbEntity
  8
0
 62
7
100
AcDbSpline
 70
8
 71
3
 72
8
 73
4
 74
0
 40
0
 40
0
 40
0
 40
0
 40
1
 40
1
 40
1
 40
1
 10
112.130417
 20
43.063118
 30
0.0
 10
111.677950
 20
43.559476
 30
0.0
 10
111.008614
 20
43.935038
 30
0.0
 10
110.128403
 20
44.192007
 30
0.0
  0
SPLINE
  5
2c9
100
AcDbEntity
  8
0
 62
7
100
AcDbSpline
 70
8
 71
3
 72
8
 73
4
 74
0
 40
0
 40
0
 40
0
 40
0
 40
1
 40
1
 40
1
 40
1
 10
110.128403
 20
44.192007
 30
0.0
 10
109.419698
 20
44.398864
 30
0.0
 10
108.473692
 20
44.522099
 30
0.0
 10
107.315000
 20
44.562423
 30
0.0
  0
LWPOLYLINE
  5
2ca
100
AcDbEntity
  8
0
 62
7
100
AcDbPolyline
 90
2
 70
0
 10
113.276944
 20
36.272145
 30
0.0
 10
113.276944
 20
38.177145
 30
0.0
  0
SPLINE
  5
2cb
100
AcDbEntity
  8
0
 62
7
100
AcDbSpline
 70
8
 71
3
 72
8
 73
4
 74
0
 40
0
 40
0
 40
0
 40
0
 40
1
 40
1
 40
1
 40
1
 10
107.315000
 20
40.196798
 30
0.0
 10
107.451491
 20
40.154157
 30
0.0
 10
107.560082
 20
40.098633
 30
0.0
 10
107.641319
 20
40.020409
 30
0.0
  0
SPLINE
  5
2cc
100
AcDbEntity
  8
0
 62
7
100
AcDbSpline
 70
8
 71
3
 72
8
 73
4
 74
0
 40
0
 40
0
 40
0
 40
0
 40
1
 40
1
 40
1
 40
1
 10
107.641319
 20
40.020409
 30
0.0
 10
107.819881
 20
39.848426
 30
0.0
 10
107.914714
 20
39.429857
 30
0.0
 10
107.914722
 20
38.759229
 30
0.0
  0
LWPOLYLINE
  5
2cd
100
AcDbEntity
  8
0
 62
7
100
AcDbPolyline
 90
2
 70
0
 10
107.315000
 20
44.562423
 30
0.0
 10
107.315000
 20
40.196798
 30
0.0
  0
SPLINE
  5
2ce
100
AcDbEntity
  8
0
 62
7
100
AcDbSpline
 70
8
 71
3
 72
8
 73
4
 74
0
 40
0
 40
0
 40
0
 40
0
 40
1
 40
1
 40
1
 40
1
 10
107.914722
 20
36.960062
 30
0.0
 10
107.914714
 20
36.209018
 30
0.0
 10
107.838999
 20
35.743586
 30
0.0
 10
107.685417
 20
35.548951
 30
0.0
  0
SPLINE
  5
2cf
100
AcDbEntity
  8
0
 62
7
100
AcDbSpline
 70
8
 71
3
 72
8
 73
4
 74
0
 40
0
 40
0
 40
0
 40
0
 40
1
 40
1
 40
1
 40
1
 10
107.685417
 20
35.548951
 30
0.0
 10
107.531814
 20
35.354288
 30
0.0
 10
107.239108
 20
35.249076
 30
0.0
 10
106.821111
 20
35.249090
 30
0.0
  0
SPLINE
  5
2d0
100
AcDbEntity
  8
0
 62
7
100
AcDbSpline
 70
8
 71
3
 72
8
 73
4
 74
0
 40
0
 40
0
 40
0
 40
0
 40
1
 40
1
 40
1
 40
1
 10
106.821111
 20
35.249090
 30
0.0
 10
106.708564
 20
35.247368
 30
0.0
 10
106.671426
 20
35.251940
 30
0.0
 10
106.706458
 20
35.249090
 30
0.0
  0
LWPOLYLINE
  5
2d1
100
AcDbEntity
  8
0
 62
7
100
AcDbPolyline
 90
2
 70
0
 10
107.914722
 20
38.759229
 30
0.0
 10
107.914722
 20
36.960062
 30
0.0
  0
SPLINE
  5
2d2
100
AcDbEntity
  8
0
 62
7
100
AcDbSpline
 70
8
 71
3
 72
8
 73
4
 74
0
 40
0
 40
0
 40
0
 40
0
 40
1
 40
1
 40
1
 40
1
 10
106.600625
 20
44.580062
 30
0.0
 10
106.545741
 20
44.580384
 30
0.0
 10
106.497631
 20
44.580062
 30
0.0
 10
106.441875
 20
44.580062
 30
0.0
  0
LWPOLYLINE
  5
2d3
100
AcDbEntity
  8
0
 62
7
100
AcDbPolyline
 90
4
 70
0
 10
106.706458
 20
35.249090
 30
0.0
 10
106.706458
 20
39.032632
 30
0.0
 10
106.600625
 20
39.032632
 30
0.0
 10
106.600625
 20
44.580062
 30
0.0
  0
LWPOLYLINE
  5
2d4
100
AcDbEntity
  8
0
 62
7
100
AcDbPolyline
 90
3
 70
0
 10
106.441875
 20
44.580062
 30
0.0
 10
100.418194
 20
44.580062
 30
0.0
 10
100.418194
 20
44.580062
 30
0.0
  0
LWPOLYLINE
  5
2d5
100
AcDbEntity
  8
0
 62
7
100
AcDbPolyline
 90
13
 70
0
 10
114.635715
 20
44.575795
 30
0.0
 10
124.726401
 20
44.575795
 30
0.0
 10
124.726401
 20
39.646725
 30
0.0
 10
120.929905
 20
39.646725
 30
0.0
 10
120.929905
 20
36.050045
 30
0.0
 10
124.483520
 20
36.050045
 30
0.0
 10
124.483520
 20
31.338015
 30
0.0
 10
120.929905
 20
31.338015
 30
0.0
 10
120.929905
 20
27.079016
 30
0.0
 10
125.105360
 20
27.079016
 30
0.0
 10
125.105360
 20
22.149957
 30
0.0
 10
114.635715
 20
22.149957
 30
0.0
 10
114.635715
 20
44.575795
 30
0.0
  0
LWPOLYLINE
  5
2d6
100
AcDbEntity
  8
0
 62
7
100
AcDbPolyline
 90
13
 70
0
 10
126.431723
 20
44.575795
 30
0.0
 10
136.522406
 20
44.575795
 30
0.0
 10
136.522406
 20
39.646725
 30
0.0
 10
132.725911
 20
39.646725
 30
0.0
 10
132.725911
 20
36.050045
 30
0.0
 10
136.279529
 20
36.050045
 30
0.0
 10
136.279529
 20
31.338015
 30
0.0
 10
132.725911
 20
31.338015
 30
0.0
 10
132.725911
 20
27.079016
 30
0.0
 10
136.901366
 20
27.079016
 30
0.0
 10
136.901366
 20
22.149957
 30
0.0
 10
126.431723
 20
22.149957
 30
0.0
 10
126.431723
 20
44.575795
 30
0.0
  0
ENDSEC
  0
SECTION
  2
OBJECTS
  0
DICTIONARY
  5
C
330
0
100
AcDbDictionary
  3
ACAD_GROUP
350
D
  3
ACAD_MLINESTYLE
350
17
  0
DICTIONARY
  5
D
330
C
100
AcDbDictionary
  0
DICTIONARY
  5
1A
330
C
100
AcDbDictionary
  0
DICTIONARY
  5
17
330
C
100
AcDbDictionary
  3
STANDARD
350
18
  0
DICTIONARY
  5
19
330
C
100
AcDbDictionary
  0
ENDSEC
  0
EOF
