<svg xmlns="http://www.w3.org/2000/svg" xmlns:xlink="http://www.w3.org/1999/xlink" version="1.1" id="Layer_1" x="0px" y="0px" width="100px" height="100px" viewBox="5.0 -10.0 100.0 135.0" enable-background="new 0 0 100 100" xml:space="preserve">
<path d="M68.95,40.261c0.951-0.911,1.62-2.13,1.821-3.531c0.477-3.326-1.842-6.418-5.168-6.895  c-1.996-0.286-3.903,0.439-5.216,1.779c-0.847-0.494-1.624-0.893-2.4-1.225c-1.855-0.793-3.801-1.339-5.78-1.623  c-7.871-1.127-15.585,1.944-20.593,7.741c-3.604,0.652-6.035,2.224-7.029,4.548c-0.992,2.322-0.404,5.178,1.556,8.18  c-0.361,3.624,0.144,7.307,1.538,10.782c2.279,5.688,6.639,10.146,12.272,12.554c1.855,0.793,3.8,1.339,5.78,1.622  c0.002,0,0.002,0,0.002,0c7.863,1.126,15.573-1.938,20.581-7.729c3.487-0.64,6.013-2.16,7.039-4.561  c0.992-2.322,0.442-5.159-1.569-8.214C72.221,49.08,71.26,44.38,68.95,40.261z M60.191,35.216c0.04-0.263,0.11-0.51,0.189-0.754  c0.032-0.1,0.065-0.197,0.105-0.296c0.04-0.103,0.093-0.198,0.141-0.297c0.145-0.284,0.31-0.56,0.516-0.822l0.235-0.302  c0.991-1.064,2.468-1.646,4.013-1.426c2.507,0.359,4.255,2.691,3.896,5.197c-0.177,1.237-0.836,2.285-1.756,2.99  c-0.239,0.183-0.491,0.34-0.754,0.471c-0.008,0.004-0.014,0.01-0.021,0.013c-0.272,0.135-0.558,0.241-0.848,0.318  c-0.16,0.042-0.328,0.056-0.493,0.079c-0.134,0.02-0.265,0.057-0.4,0.064c-0.304,0.019-0.612,0.006-0.926-0.039  C61.581,40.054,59.833,37.722,60.191,35.216z M25.965,41.645c0.736-1.724,2.454-2.69,4.179-3.235  c-0.875,1.258-1.646,2.604-2.265,4.055c-0.616,1.439-1.075,2.92-1.385,4.42C25.541,44.928,25.331,43.129,25.965,41.645z   M45.946,72.709l-0.002-0.001c-1.85-0.265-3.668-0.775-5.402-1.517c-5.266-2.25-9.339-6.417-11.47-11.731  c-1.083-2.698-1.592-5.528-1.542-8.351c0.99,1.196,2.188,2.4,3.581,3.597c-0.263,0.486-0.461,1.016-0.544,1.594  c-0.376,2.627,1.456,5.069,4.082,5.445c1.697,0.243,3.308-0.443,4.344-1.664c1.661,0.918,3.402,1.781,5.209,2.553  c4.598,1.966,9.096,3.233,13.147,3.813c2.397,0.344,4.634,0.44,6.644,0.302C59.328,71.334,52.698,73.676,45.946,72.709z   M32.052,56.513c0.259-1.808,1.94-3.067,3.748-2.809s3.068,1.939,2.809,3.747c-0.258,1.808-1.939,3.067-3.748,2.809  C33.054,60.001,31.793,58.32,32.052,56.513z M65.547,65.046c-5.293,0.781-13.018-0.482-20.756-3.79  c-1.742-0.745-3.417-1.576-5.019-2.459c0.146-0.358,0.266-0.732,0.323-1.134c0.376-2.625-1.454-5.069-4.081-5.445  c-1.516-0.218-2.956,0.316-3.988,1.298c-1.812-1.559-3.273-3.12-4.336-4.623c0.244-1.985,0.76-3.949,1.568-5.839  c3.809-8.91,13.158-14.174,22.736-12.803c1.851,0.266,3.669,0.775,5.403,1.518c0.669,0.285,1.341,0.624,2.074,1.045  c-0.288,0.494-0.51,1.033-0.651,1.611c-0.047,0.188-0.084,0.382-0.112,0.577c-0.477,3.325,1.843,6.419,5.169,6.896  c0.304,0.043,0.604,0.057,0.901,0.054c0.062,0,0.126,0.001,0.188-0.001c0.286-0.011,0.567-0.041,0.843-0.09  c0.062-0.012,0.122-0.025,0.183-0.039c0.277-0.059,0.548-0.13,0.812-0.225c0.016-0.006,0.029-0.01,0.044-0.015  c0.29-0.107,0.566-0.241,0.835-0.391c0.021-0.013,0.044-0.019,0.065-0.03c3.156,5.758,3.517,12.706,0.935,18.746  C67.873,61.797,66.803,63.512,65.547,65.046z M71.975,61.314c-0.645,1.508-2.114,2.581-4.174,3.228  c0.873-1.254,1.642-2.599,2.26-4.045c0.614-1.436,1.062-2.92,1.367-4.427C72.228,57.702,72.709,59.601,71.975,61.314z M70.251,69.07  c-1.87-0.268-3.609,1.038-3.878,2.909c-0.271,1.901,1.004,3.604,2.906,3.877c1.906,0.272,3.612-1.003,3.884-2.904  C73.432,71.08,72.126,69.339,70.251,69.07z M71.679,72.738c-0.155,1.087-1.095,1.788-2.187,1.632  c-1.087-0.155-1.789-1.093-1.634-2.179c0.15-1.053,1.128-1.787,2.18-1.637C71.094,70.706,71.83,71.685,71.679,72.738z   M53.389,55.809l-0.104-0.004c-0.778,0-1.429,0.609-1.479,1.385c-0.027,0.396,0.103,0.779,0.364,1.077s0.623,0.477,1.021,0.503  l0.098,0.004c0.778,0,1.43-0.609,1.481-1.388C54.824,56.569,54.203,55.861,53.389,55.809z M20.031,55.437  c-0.818,0-1.484,0.666-1.484,1.485s0.666,1.485,1.484,1.485s1.484-0.666,1.484-1.485S20.85,55.437,20.031,55.437z M79.969,52.424  c-0.818,0-1.484,0.666-1.484,1.485s0.666,1.485,1.484,1.485s1.484-0.666,1.484-1.485S80.787,52.424,79.969,52.424z M61.094,54.671  l-0.15-0.005c-1.184,0-2.173,0.925-2.25,2.105c-0.082,1.24,0.86,2.317,2.103,2.401l0.149,0.005c1.184,0,2.171-0.926,2.249-2.107  c0.041-0.601-0.156-1.182-0.553-1.635S61.695,54.711,61.094,54.671z M60.945,57.678l-0.05-0.001  c-0.417-0.028-0.733-0.39-0.706-0.807c0.026-0.394,0.355-0.703,0.801-0.703h0.004c0.201,0.014,0.386,0.104,0.519,0.257  c0.133,0.151,0.199,0.346,0.186,0.547C61.672,57.367,61.341,57.678,60.945,57.678z M39.321,63.649c-1.244,0-2.256,1.012-2.256,2.256  s1.012,2.256,2.256,2.256s2.256-1.012,2.256-2.256S40.565,63.649,39.321,63.649z M39.321,66.661c-0.417,0-0.756-0.339-0.756-0.756  s0.339-0.756,0.756-0.756s0.756,0.339,0.756,0.756S39.738,66.661,39.321,66.661z M43.212,34.983c-2.281,0-4.139,1.855-4.139,4.139  c0,2.281,1.857,4.139,4.139,4.139c2.282,0,4.139-1.857,4.139-4.139C47.351,36.839,45.494,34.983,43.212,34.983z M43.212,41.761  c-1.455,0-2.639-1.184-2.639-2.639s1.184-2.639,2.639-2.639s2.639,1.184,2.639,2.639S44.667,41.761,43.212,41.761z M35.641,28.487  c1.208,0,2.19-0.982,2.19-2.19s-0.982-2.19-2.19-2.19s-2.19,0.982-2.19,2.19S34.433,28.487,35.641,28.487z M35.641,25.606  c0.381,0,0.69,0.31,0.69,0.69s-0.31,0.69-0.69,0.69s-0.69-0.31-0.69-0.69S35.26,25.606,35.641,25.606z"/>
<text x="0.0" y="117.5" font-size="5.0" font-weight="bold" font-family="Helvetica Neue, Helvetica, Arial-Unicode, Arial, Sans-serif" fill="#000000">Created by Sergey Demushkin</text><text x="0.0" y="122.5" font-size="5.0" font-weight="bold" font-family="Helvetica Neue, Helvetica, Arial-Unicode, Arial, Sans-serif" fill="#000000">from the Noun Project</text></svg>