<?xml version="1.0" encoding="UTF-8" standalone="no"?>
<svg
   xmlns:dc="http://purl.org/dc/elements/1.1/"
   xmlns:cc="http://creativecommons.org/ns#"
   xmlns:rdf="http://www.w3.org/1999/02/22-rdf-syntax-ns#"
   xmlns:svg="http://www.w3.org/2000/svg"
   xmlns="http://www.w3.org/2000/svg"
   xmlns:sodipodi="http://sodipodi.sourceforge.net/DTD/sodipodi-0.dtd"
   xmlns:inkscape="http://www.inkscape.org/namespaces/inkscape"
   version="1.0"
   width="346.000000pt"
   height="197.000000pt"
   viewBox="0 0 346.000000 197.000000"
   preserveAspectRatio="xMidYMid meet"
   id="svg2"
   inkscape:version="0.48.4 r9939"
   sodipodi:docname="train.svg">
  <defs
     id="defs44" />
  <sodipodi:namedview
     pagecolor="#ffffff"
     bordercolor="#666666"
     borderopacity="1"
     objecttolerance="10"
     gridtolerance="10"
     guidetolerance="10"
     inkscape:pageopacity="0"
     inkscape:pageshadow="2"
     inkscape:window-width="640"
     inkscape:window-height="480"
     id="namedview42"
     showgrid="false"
     inkscape:zoom="1.4612717"
     inkscape:cx="279.02163"
     inkscape:cy="138.79175"
     inkscape:current-layer="svg2" />
  <metadata
     id="metadata4">
Created by potrace 1.11, written by Peter Selinger 2001-2013
<rdf:RDF>
  <cc:Work
     rdf:about="">
    <dc:format>image/svg+xml</dc:format>
    <dc:type
       rdf:resource="http://purl.org/dc/dcmitype/StillImage" />
    <dc:title></dc:title>
  </cc:Work>
</rdf:RDF>
</metadata>
  <g
     transform="translate(0.000000,197.000000) scale(0.100000,-0.100000)"
     fill="#000000"
     stroke="none"
     id="g6"
     style="fill:none;stroke:#000000">
    <path
       d="M1380 1430 l0 -340 -219 0 -220 0 84 243 c46 133 88 255 94 270 6 16 9 33 5 38 -7 11 -681 12 -688 1 -3 -5 42 -141 99 -303 l103 -294 -74 -3 -74 -3 -31 -42 c-41 -57 -71 -125 -72 -167 -2 -39 29 -116 75 -191 26 -42 32 -47 49 -39 18 10 17 14 -20 83 -62 115 -67 139 -41 200 12 29 31 64 42 80 19 26 23 27 108 27 49 0 92 5 95 10 3 6 -39 139 -94 296 -56 157 -101 290 -101 295 0 5 121 9 280 9 154 0 280 -4 280 -9 0 -4 -41 -126 -90 -271 -50 -144 -88 -266 -84 -271 6 -10 337 -12 462 -2 l82 6 0 343 0 344 647 0 c357 0 643 -4 638 -9 -6 -4 -56 -42 -112 -85 l-102 -76 -170 0 c-96 0 -172 -4 -176 -10 -7 -12 -7 -668 0 -680 4 -6 74 -10 161 -10 l154 0 0 -30 c0 -23 4 -30 20 -30 18 0 20 7 20 55 0 37 -4 55 -12 55 -7 1 -77 1 -155 0 l-143 -1 0 301 0 300 156 0 157 0 143 107 c91 68 144 114 144 125 0 17 -36 18 -710 18 l-710 0 0 -340z"
       id="path8"
       style="fill:none;stroke:#000000" />
    <path
       d="M1575 1561 c-6 -6 -9 -112 -7 -260 l3 -251 109 0 c103 0 110 1 110 20 0 19 -7 20 -90 20 l-90 0 0 215 0 215 90 0 c89 0 90 0 90 25 l0 25 -103 0 c-57 0 -107 -4 -112 -9z"
       id="path10"
       style="fill:none;stroke:#000000" />
    <path
       d="M1830 1545 c0 -25 1 -25 85 -25 l85 0 0 -215 0 -215 -85 0 c-78 0 -85 -2 -85 -20 0 -19 7 -20 110 -20 l109 0 3 251 c2 148 -1 254 -7 260 -5 5 -55 9 -112 9 l-103 0 0 -25z"
       id="path12"
       style="fill:none;stroke:#000000" />
    <path
       d="M1126 912 c-203 -1 -374 -6 -380 -11 -7 -6 -10 -49 -8 -120 l3 -111 380 -2 c208 -2 384 -1 389 0 15 5 13 227 -2 238 -7 5 -179 8 -382 6z m344 -127 l0 -75 -340 0 -340 0 0 75 0 75 340 0 340 0 0 -75z"
       id="path14"
       style="fill:none;stroke:#000000" />
    <path
       d="M803 580 c-97 -39 -173 -137 -188 -242 -7 -46 -6 -48 18 -48 21 0 25 5 31 47 11 85 66 156 148 193 101 44 220 20 295 -61 31 -33 63 -108 63 -146 0 -28 4 -33 25 -33 21 0 25 5 25 30 0 45 -36 132 -74 176 -80 93 -228 129 -343 84z"
       id="path16"
       style="fill:none;stroke:#000000" />
    <path
       d="M1592 588 c-102 -15 -193 -92 -232 -195 -28 -75 -27 -103 5 -103 21 0 25 5 25 28 0 43 43 124 88 164 39 35 119 68 167 68 48 0 128 -33 167 -68 42 -38 88 -120 88 -158 0 -15 8 -23 25 -26 21 -4 25 -1 25 18 0 41 -41 136 -77 175 -71 78 -171 113 -281 97z"
       id="path18"
       style="fill:none;stroke:#000000" />
    <path
       d="M2271 588 c-103 -15 -191 -90 -230 -192 -29 -78 -28 -106 4 -106 19 0 25 5 25 23 0 80 76 182 157 213 93 36 196 18 266 -45 42 -37 87 -120 87 -158 0 -18 6 -23 25 -23 24 0 26 2 19 38 -29 168 -181 275 -353 250z"
       id="path20"
       style="fill:none;stroke:#000000" />
    <path
       d="M261 316 c-209 -209 -262 -268 -259 -285 l3 -22 259 1 c143 0 264 5 270 9 7 6 10 52 8 125 -3 115 -3 116 -28 116 -24 0 -24 0 -24 -105 l0 -105 -212 0 -213 0 210 210 210 210 3 -90 c3 -88 3 -90 27 -90 l25 0 0 139 c0 77 -4 142 -8 145 -5 3 -127 -113 -271 -258z"
       id="path22"
       style="fill:none;stroke:#000000" />
    <path
       d="M885 413 c-34 -9 -63 -33 -79 -68 -21 -44 -20 -55 7 -55 15 0 27 11 37 33 29 61 109 60 133 -3 8 -22 18 -30 35 -30 21 0 23 3 17 28 -10 42 -30 68 -68 86 -36 16 -47 18 -82 9z"
       id="path24"
       style="fill:none;stroke:#000000" />
    <path
       d="M1604 404 c-29 -7 -71 -53 -79 -86 -6 -25 -5 -28 19 -28 16 0 26 6 26 14 0 21 49 56 77 56 14 0 37 -13 54 -29 16 -17 39 -33 51 -36 19 -7 20 -4 14 21 -15 63 -90 103 -162 88z"
       id="path26"
       style="fill:none;stroke:#000000" />
    <path
       d="M2283 403 c-28 -6 -83 -68 -83 -93 0 -15 7 -20 25 -20 14 0 25 6 25 13 0 23 45 57 74 57 18 0 38 -11 56 -30 15 -16 37 -30 49 -30 20 0 20 2 8 32 -23 55 -88 86 -154 71z"
       id="path28"
       style="fill:none;stroke:#000000" />
    <path
       d="M617 253 c-9 -15 34 -110 68 -150 19 -23 56 -54 82 -70 44 -26 56 -28 148 -28 91 0 104 3 146 27 64 37 113 95 138 162 26 70 26 66 -4 66 -20 0 -26 -7 -37 -42 -20 -67 -99 -142 -171 -163 -130 -37 -263 30 -312 158 -12 32 -23 47 -36 47 -10 0 -20 -3 -22 -7z"
       id="path30"
       style="fill:none;stroke:#000000" />
    <path
       d="M800 249 c0 -6 15 -26 34 -45 29 -29 41 -34 80 -34 36 0 52 6 81 31 19 17 35 37 35 45 0 21 -37 17 -60 -6 -12 -12 -33 -20 -55 -20 -23 0 -41 7 -52 20 -18 21 -63 28 -63 9z"
       id="path32"
       style="fill:none;stroke:#000000" />
    <path
       d="M1340 250 c0 -34 47 -126 86 -165 65 -67 110 -85 220 -85 77 0 97 4 142 26 62 31 116 93 143 164 24 64 24 70 -4 70 -18 0 -26 -10 -40 -50 -82 -230 -402 -230 -484 0 -14 40 -22 50 -40 50 -13 0 -23 -4 -23 -10z"
       id="path34"
       style="fill:none;stroke:#000000" />
    <path
       d="M1527 241 c3 -10 18 -32 35 -47 25 -25 38 -29 83 -29 45 0 58 4 83 29 17 15 32 37 35 47 8 29 -34 25 -63 -6 -31 -33 -79 -33 -110 0 -29 31 -71 35 -63 6z"
       id="path36"
       style="fill:none;stroke:#000000" />
    <path
       d="M2020 250 c0 -26 43 -119 71 -153 17 -21 54 -51 83 -67 47 -27 59 -30 146 -30 72 0 105 5 135 19 78 37 138 109 160 192 13 49 13 49 -11 49 -19 0 -25 -8 -34 -40 -17 -62 -68 -121 -132 -153 -141 -71 -302 -6 -355 142 -14 41 -22 51 -40 51 -13 0 -23 -4 -23 -10z"
       id="path38"
       style="fill:none;stroke:#000000" />
    <path
       d="M2200 249 c0 -6 18 -29 40 -51 38 -39 42 -40 91 -36 54 6 109 45 109 80 0 27 -39 23 -62 -7 -14 -18 -29 -25 -52 -25 -22 0 -40 8 -56 25 -24 25 -70 34 -70 14z"
       id="path40"
       style="fill:none;stroke:#000000" />
  </g>
</svg>
