<svg xmlns="http://www.w3.org/2000/svg" xmlns:xlink="http://www.w3.org/1999/xlink" version="1.1" id="Layer_1" x="0px" y="0px" width="100px" height="100px" viewBox="5.0 -10.0 100.0 135.0" enable-background="new 0 0 100 100" xml:space="preserve">
<path d="M88.545,49.887c-0.812-0.929-1.759-1.733-2.812-2.387L70.284,34.382L93.424,0L62.191,27.511l-1.623-1.379l1.364-6.416  c0,0,0.856-4.026,0.85-4.038l-0.005,0.001c-1.442-2.581-7.466-2.366-13.757,0.564c-4.663,2.173-8.181,5.238-9.357,7.848  C26.725,28.225,14.851,41.949,10.02,60.279C6.096,75.173,7.712,89.719,13.4,100h64.088c0.235-1.188,0.364-2.414,0.364-3.671  c0-3.049-0.739-6.122-2.188-8.81c-0.702-1.302-1.554-2.547-2.534-3.655c-1.245-1.408-2.74-2.559-4.103-3.846  c-2.785-2.63-6.568-5.704-7.936-9.394c-0.977-2.635-0.949-5.437-0.406-8.187c0,0,8.332,2.857,8.338,2.853  c2.258,3.17,5.956,5.246,10.146,5.246c6.882,0,12.46-5.578,12.46-12.46c0-3.12-1.154-5.964-3.043-8.154L88.545,49.887z"/>
<text x="0.0" y="117.5" font-size="5.0" font-weight="bold" font-family="Helvetica Neue, Helvetica, Arial-Unicode, Arial, Sans-serif" fill="#000000">Created by Jennifer Ann Rott-Bazan</text><text x="0.0" y="122.5" font-size="5.0" font-weight="bold" font-family="Helvetica Neue, Helvetica, Arial-Unicode, Arial, Sans-serif" fill="#000000">from the Noun Project</text></svg>