<svg xmlns:dc="http://purl.org/dc/elements/1.1/" xmlns:cc="http://creativecommons.org/ns#" xmlns:rdf="http://www.w3.org/1999/02/22-rdf-syntax-ns#" xmlns:svg="http://www.w3.org/2000/svg" xmlns="http://www.w3.org/2000/svg" xmlns:sodipodi="http://sodipodi.sourceforge.net/DTD/sodipodi-0.dtd" xmlns:inkscape="http://www.inkscape.org/namespaces/inkscape" width="90" height="90" id="svg2" version="1.1" inkscape:version="0.48.1 r9760" sodipodi:docname="unicorn06.svg" viewBox="4.5 -9.0 90 121.5">
  <defs id="defs4"/>
  <sodipodi:namedview id="base" pagecolor="#ffffff" bordercolor="#666666" borderopacity="1.0" inkscape:pageopacity="0.0" inkscape:pageshadow="2" inkscape:zoom="4" inkscape:cx="40.24676" inkscape:cy="54.742579" inkscape:document-units="px" inkscape:current-layer="layer4" showgrid="false" inkscape:window-width="1470" inkscape:window-height="1016" inkscape:window-x="1834" inkscape:window-y="29" inkscape:window-maximized="0"/>
  <metadata id="metadata7">
    <rdf:RDF>
      <cc:Work rdf:about="">
        <dc:format>image/svg+xml</dc:format>
        <dc:type rdf:resource="http://purl.org/dc/dcmitype/StillImage"/>
        <dc:title/>
      </cc:Work>
    </rdf:RDF>
  </metadata>
  <g inkscape:groupmode="layer" id="layer4" inkscape:label="square">
    <path style="fill:#000000;fill-opacity:1;stroke:none" d="M 25.96875 27.28125 C 25.24761 27.25771 24.455228 27.494402 23.5625 28.0625 C 17.849072 31.69833 25.625 37.9375 25.625 37.9375 C 19.906568 52.800163 9.1355555 60.5519 0 70.09375 L 0 90 L 24.21875 90 C 23.031755 82.517591 27.862367 71.074088 31.34375 66.5 C 30.824349 67.5387 40.691798 68.043 42.25 68.5625 C 43.808228 69.0819 48.494462 78.4417 57.84375 80 C 67.193011 81.5582 68.286908 74.900222 68.21875 69.09375 C 68.173503 65.239105 60.321869 60.353672 56.28125 54.4375 C 51.914449 49.754114 53.602415 43.857243 45.375 37.40625 C 41.85891 34.649337 31.34375 34.8125 31.34375 34.8125 C 31.34375 34.8125 29.862908 27.408362 25.96875 27.28125 z M 38.65625 44.40625 C 40.236451 44.40625 41.5 45.669799 41.5 47.25 C 41.5 48.830201 40.236451 50.125 38.65625 50.125 C 37.076049 50.125 35.78125 48.830201 35.78125 47.25 C 35.78125 45.669799 37.076049 44.40625 38.65625 44.40625 z " id="rect3840"/>
  </g>
  <g inkscape:label="unicorn" inkscape:groupmode="layer" id="layer1" transform="translate(0,-962.36218)">
    <path transform="matrix(0.33939099,0,0,0.33939099,-15.412137,996.17499)" style="fill:#000000;fill-opacity:1;stroke:none" d="M 68.035713,19.287308 66.47983,10.841597 58.03412,9.2857144 66.47983,7.7298312 68.035713,-0.71587944 69.591596,7.7298312 78.037307,9.2857139 69.591596,10.841597 z" id="path3773"/>
    <path transform="matrix(0.33939099,0,0,0.33939099,8.48072,971.67497)" style="fill:#000000;fill-opacity:1;stroke:none" d="M 68.035713,19.287308 66.47983,10.841597 58.03412,9.2857144 66.47983,7.7298312 68.035713,-0.71587944 69.591596,7.7298312 78.037307,9.2857139 69.591596,10.841597 z" id="path3777"/>
    <path transform="matrix(0.50007967,0,0,0.50007967,-20.916135,979.36143)" style="fill:#000000;fill-opacity:1;stroke:none" d="M 68.035713,19.287308 66.47983,10.841597 58.03412,9.2857144 66.47983,7.7298312 68.035713,-0.71587944 69.591596,7.7298312 78.037307,9.2857139 69.591596,10.841597 z" id="path3779"/>
    <path transform="matrix(0.58935116,0,0,0.58935116,-20.632641,964.92535)" style="fill:#000000;fill-opacity:1;stroke:none" d="M 68.035713,19.287308 66.47983,10.841597 58.03412,9.2857144 66.47983,7.7298312 68.035713,-0.71587944 69.591596,7.7298312 78.037307,9.2857139 69.591596,10.841597 z" id="path3781"/>
    <path style="fill:#000000;stroke:none" d="M 55.40625 0.78125 C 54.891518 0.88003192 54.012105 1.8597785 52.875 3.40625 C 53.84123 3.4394384 54.720811 3.4164562 55.53125 3.375 C 55.925048 1.8289938 55.993307 0.87151036 55.5625 0.78125 C 55.514993 0.77129656 55.462985 0.77036201 55.40625 0.78125 z M 50.8125 6.375 C 49.998899 7.6258936 49.142307 9.0095657 48.21875 10.53125 C 50.13603 10.640102 51.765288 10.593719 53.125 10.4375 C 53.675722 9.0192454 54.154208 7.7109357 54.5625 6.53125 C 53.403432 6.5483983 52.157229 6.4796858 50.8125 6.375 z M 46.4375 13.5 C 45.542626 15.019723 44.641807 16.5361 43.71875 18.15625 C 46.24846 18.341228 48.359148 18.329803 50 18.09375 C 50.660446 16.538562 51.249665 15.083699 51.84375 13.625 C 50.22831 13.709668 48.44338 13.675202 46.4375 13.5 z M 42.09375 21.09375 C 41.235765 22.621656 40.362517 24.149516 39.53125 25.65625 C 42.496409 25.916476 44.926511 25.908949 46.75 25.625 C 47.381674 24.200206 47.970943 22.779048 48.59375 21.34375 C 46.703219 21.459993 44.54295 21.345105 42.09375 21.09375 z M 37.90625 28.59375 C 33.632871 36.416642 30.25 42.875 30.25 42.875 L 38.25 44.25 C 38.25 44.25 41.560401 37.223459 45.3125 28.875 C 43.193274 29.019317 40.734023 28.914289 37.90625 28.59375 z " transform="translate(0,962.36218)" id="path3755"/>
  </g>
  <g inkscape:groupmode="layer" id="layer3" inkscape:label="stars">
    <path transform="translate(-4.4319805,14.431981)" style="fill:#000000;fill-opacity:1;stroke:none" d="M 68.035713,19.287308 66.47983,10.841597 58.03412,9.2857144 66.47983,7.7298312 68.035713,-0.71587944 69.591596,7.7298312 78.037307,9.2857139 69.591596,10.841597 z" id="path3765"/>
    <path transform="matrix(0.48222537,0,0,0.48222537,42.727166,5.34362)" style="fill:#000000;fill-opacity:1;stroke:none" d="M 68.035713,19.287308 66.47983,10.841597 58.03412,9.2857144 66.47983,7.7298312 68.035713,-0.71587944 69.591596,7.7298312 78.037307,9.2857139 69.591596,10.841597 z" id="path3767"/>
    <path transform="matrix(0.48222537,0,0,0.48222537,40.448811,32.779011)" style="fill:#000000;fill-opacity:1;stroke:none" d="M 68.035713,19.287308 66.47983,10.841597 58.03412,9.2857144 66.47983,7.7298312 68.035713,-0.71587944 69.591596,7.7298312 78.037307,9.2857139 69.591596,10.841597 z" id="path3769"/>
    <path transform="matrix(0.33939099,0,0,0.33939099,59.209183,16.991194)" style="fill:#000000;fill-opacity:1;stroke:none" d="M 68.035713,19.287308 66.47983,10.841597 58.03412,9.2857144 66.47983,7.7298312 68.035713,-0.71587944 69.591596,7.7298312 78.037307,9.2857139 69.591596,10.841597 z" id="path3771"/>
    <path transform="matrix(0.33939099,0,0,0.33939099,59.587863,50.919754)" style="fill:#000000;fill-opacity:1;stroke:none" d="M 68.035713,19.287308 66.47983,10.841597 58.03412,9.2857144 66.47983,7.7298312 68.035713,-0.71587944 69.591596,7.7298312 78.037307,9.2857139 69.591596,10.841597 z" id="path3775"/>
  </g>
<text x="0" y="105.75" font-size="4.5" font-weight="bold" font-family="Helvetica Neue, Helvetica, Arial-Unicode, Arial, Sans-serif" fill="#000000">Created by Audrey Roy</text><text x="0" y="110.25" font-size="4.5" font-weight="bold" font-family="Helvetica Neue, Helvetica, Arial-Unicode, Arial, Sans-serif" fill="#000000">from the Noun Project</text></svg>