<?xml version="1.0" encoding="UTF-8" standalone="no"?>
<!-- Created with Inkscape (http://www.inkscape.org/) -->

<svg
   xmlns:sketch="http://www.bohemiancoding.com/sketch/ns"
   xmlns:dc="http://purl.org/dc/elements/1.1/"
   xmlns:cc="http://creativecommons.org/ns#"
   xmlns:rdf="http://www.w3.org/1999/02/22-rdf-syntax-ns#"
   xmlns:svg="http://www.w3.org/2000/svg"
   xmlns="http://www.w3.org/2000/svg"
   xmlns:sodipodi="http://sodipodi.sourceforge.net/DTD/sodipodi-0.dtd"
   xmlns:inkscape="http://www.inkscape.org/namespaces/inkscape"
   width="100mm"
   height="100mm"
   viewBox="0 0 100 100"
   version="1.1"
   id="svg85"
   inkscape:version="0.92.4 (5da689c313, 2019-01-14)"
   sodipodi:docname="AmericanCockroach.svg">
  <defs
     id="defs79" />
  <sodipodi:namedview
     id="base"
     pagecolor="#ffffff"
     bordercolor="#666666"
     borderopacity="1.0"
     inkscape:pageopacity="0.0"
     inkscape:pageshadow="2"
     inkscape:zoom="0.35"
     inkscape:cx="400"
     inkscape:cy="560"
     inkscape:document-units="mm"
     inkscape:current-layer="layer1-0"
     showgrid="false"
     inkscape:window-width="1920"
     inkscape:window-height="1017"
     inkscape:window-x="1912"
     inkscape:window-y="-8"
     inkscape:window-maximized="1" />
  <metadata
     id="metadata82">
    <rdf:RDF>
      <cc:Work
         rdf:about="">
        <dc:format>image/svg+xml</dc:format>
        <dc:type
           rdf:resource="http://purl.org/dc/dcmitype/StillImage" />
        <dc:title></dc:title>
      </cc:Work>
    </rdf:RDF>
  </metadata>
  <g
     inkscape:label="Layer 1"
     inkscape:groupmode="layer"
     id="layer1"
     transform="translate(0,-197)">
    <g
       inkscape:label="Layer 1"
       id="layer1-0"
       transform="matrix(0.28222222,0,0,0.28222222,93.631426,-47.603102)">
      <g
         id="g3367"
         transform="matrix(1.4917882,0,0,1.4917882,-92.602033,403.26431)">
        <g
           id="g3353"
           sketch:type="MSPage"
           style="fill:none;fill-rule:evenodd;stroke:none;stroke-width:1"
           transform="matrix(0.60627712,0,0,0.60627712,-81.521627,335.57715)">
          <path
             id="path3355"
             sketch:type="MSShapeGroup"
             d="M 71,0 C 41.147946,-3e-6 15,7.59375 15,7.59375 L 22.636364,70.875 c 0,0 19.499822,10.124997 48.363636,10.125 28.863814,5e-6 48.36364,-10.125 48.36364,-10.125 L 127,7.59375 C 127,7.59375 100.85205,3e-6 71,0 Z m 0,130 C 13.235735,130 4e-6,119.16658 0,109.09995 -6e-6,99.033315 22.821429,94 22.821429,94 22.821429,94 42.246634,104.06663 71,104.06663 99.753366,104.06664 119.17857,94 119.17857,94 119.17857,94 142,99.033315 142,109.09995 142,119.16658 128.76426,130 71,130 Z M 71,84.89698 C 42.582648,84.896979 23,76 23,76 l 1.263158,15.251965 c 0,0 27.113487,8.748035 46.736842,8.748035 19.623355,0 46.73684,-8.748035 46.73684,-8.748035 L 119,76 c 0,0 -19.582648,8.89698 -48,8.89698 z"
             inkscape:connector-curvature="0"
             style="fill:#000000" />
        </g>
      </g>
      <flowRoot
         xml:space="preserve"
         id="flowRoot3351"
         style="font-style:normal;font-weight:normal;line-height:0.01%;font-family:sans-serif;letter-spacing:0px;word-spacing:0px;fill:#000000;fill-opacity:1;stroke:none;stroke-width:1px;stroke-linecap:butt;stroke-linejoin:miter;stroke-opacity:1"
         transform="translate(0,332.36215)"><flowRegion
           id="flowRegion3353"><rect
             id="rect3355"
             width="270.72089"
             height="353.55341"
             x="-269.71072"
             y="22.994741" /></flowRegion><flowPara
           id="flowPara3357"
           style="font-size:60px;line-height:1.25"> </flowPara></flowRoot>      <path
         style="fill:#000000"
         d="m -178.56718,1179.9854 c -2.1537,-0.3603 -3.40603,-1.0435 -4.96196,-2.7069 l -1.2298,-1.3148 1.35425,-1.4135 c 1.34168,-1.4004 1.39294,-1.4098 5.53043,-1.0144 4.68539,0.4478 9.92058,1.8977 12.41499,3.4383 1.61828,0.9995 2.53182,2.3083 1.98961,2.8505 -0.37486,0.3749 -13.01332,0.5095 -15.09752,0.1608 z m 41.73697,-0.5816 c -0.57743,-0.9343 2.64755,-3.2245 6.16821,-4.3802 1.78504,-0.586 5.31385,-1.2998 7.8418,-1.5861 l 4.59627,-0.5207 1.46888,1.3864 1.46887,1.3864 -1.37828,1.4677 c -2.31249,2.4625 -3.79307,2.8053 -12.15626,2.8148 -5.19337,0.01 -7.76747,-0.1767 -8.00949,-0.5683 z m -55.0108,-5.4527 c -2.93516,-1.1465 -9.19453,-5.8352 -11.91339,-8.924 -1.07254,-1.2185 -2.46282,-3.5865 -3.08951,-5.2623 -1.08847,-2.9105 -1.09978,-3.0906 -0.25275,-4.0266 0.4877,-0.5389 1.66907,-1.238 2.62528,-1.5535 2.80467,-0.9257 4.02756,0.097 15.08864,12.6186 2.78276,3.1502 5.12541,5.9022 5.20588,6.1155 0.19164,0.5081 -3.06714,2.0466 -4.27044,2.0162 -0.51449,-0.013 -2.04166,-0.4558 -3.39371,-0.9839 z m 77.62915,-0.044 -2.13215,-0.9546 5.47419,-6.2066 c 7.21746,-8.183 11.567237,-12.4532 13.069587,-12.8302 1.72533,-0.4331 5.01221,1.2606 5.21503,2.6871 0.0879,0.6177 -0.54273,2.5948 -1.40122,4.3936 -2.41621,5.0627 -9.990367,11.4593 -15.509267,13.098 -2.40361,0.7137 -2.73288,0.7006 -4.71617,-0.1873 z m -61.93272,-11.511 c -4.27828,-1.7349 -8.30544,-4.9587 -11.16804,-8.9401 -2.37448,-3.3025 -3.00747,-4.7588 -2.43804,-5.6088 1.53991,-2.2986 6.6508,-1.4296 6.68464,1.1367 0.0141,1.0709 2.9927,3.1204 5.69389,3.9179 3.79209,1.1194 5.75353,2.4847 7.47921,5.2058 1.8923,2.9838 1.95562,4.5632 0.20958,5.2271 -1.89563,0.7207 -2.63409,0.6134 -6.46124,-0.9386 z m 44.82046,0.591 c -0.90465,-0.3651 -0.78524,-1.4242 0.43514,-3.8593 1.68574,-3.3636 3.3485,-4.7863 6.98219,-5.9745 3.9862,-1.3033 6.24802,-2.8831 7.11106,-4.9667 0.47686,-1.1512 1.06667,-1.617 2.35318,-1.8584 2.00436,-0.376 4.24215,0.8072 4.24215,2.2429 0,1.3945 -4.09496,6.9666 -6.96464,9.4769 -4.3838,3.8348 -11.09442,6.1757 -14.15908,4.9391 z m -78.98017,-10.3569 c -2.39841,-3.8404 -2.86345,-10.5865 -1.11634,-16.1939 1.23001,-3.9479 3.41775,-9.0371 3.88483,-9.0371 0.17993,0 1.18795,0.2579 2.24004,0.5731 1.67792,0.5027 1.98033,0.841 2.46199,2.7538 0.94315,3.7456 0.6313,6.4729 -1.46892,12.8461 -1.10992,3.3681 -1.99368,6.2868 -1.96391,6.486 0.20223,1.3531 -0.26034,2.2075 -1.55847,2.8788 -1.85075,0.9571 -1.67645,0.9787 -2.47922,-0.3068 z m 117.490747,-0.1646 c -0.6766,-0.4739 -1.1608,-1.5255 -1.35511,-2.9431 -0.16628,-1.2132 -1.15226,-4.771 -2.19107,-7.9062 -1.82616,-5.5116 -1.86988,-5.8105 -1.31962,-9.0229 0.65002,-3.7948 1.25592,-4.6065 3.73941,-5.0095 l 1.77062,-0.2874 1.61985,3.859 c 3.38119,8.055 3.88165,14.1 1.60537,19.3914 -1.21063,2.8142 -2.01882,3.215 -3.86945,1.9187 z m -67.729617,-1.8035 c -7.04483,-1.4141 -10.15905,-3.9214 -12.69278,-10.2192 -0.81072,-2.0151 -2.30579,-4.7712 -3.32239,-6.1246 -1.6073,-2.1399 -1.79075,-2.6617 -1.4067,-4.0008 0.2429,-0.8469 0.82004,-1.958 1.28255,-2.4691 0.80996,-0.895 0.88965,-0.8958 2.16565,-0.022 0.72859,0.4989 2.28053,1.1817 3.44872,1.5173 1.66925,0.4796 2.59243,1.2304 4.31198,3.507 2.04386,2.7061 4.60962,4.6954 10.72604,8.3165 1.27454,0.7545 2.31735,1.612 2.31735,1.9055 0,0.2935 -0.79688,0.9136 -1.77085,1.378 -0.97397,0.4645 -1.77086,1.0321 -1.77086,1.2614 0,0.2293 1.13841,1.1174 2.5298,1.9736 1.39138,0.8561 2.52979,1.7567 2.52979,2.0013 0,1.3674 -4.0419,1.8396 -8.3483,0.9752 z m 13.53436,-0.086 c -0.62613,-0.3098 -1.13841,-0.7367 -1.13841,-0.9486 0,-0.2118 1.13841,-1.0857 2.52979,-1.9418 1.39138,-0.8561 2.52979,-1.7639 2.52979,-2.0173 0,-0.2533 -0.79689,-0.9308 -1.77086,-1.5054 -0.97397,-0.5747 -1.76909,-1.2233 -1.76695,-1.4414 0.004,-0.4093 2.78625,-2.1412 6.31124,-3.9287 2.04497,-1.0369 6.15416,-4.8942 8.23748,-7.7325 0.6909,-0.9413 1.79418,-1.6948 2.78277,-1.9004 0.90091,-0.1875 2.39099,-0.7742 3.3113,-1.3037 0.92031,-0.5296 1.77746,-0.9629 1.90478,-0.9629 0.47622,0 2.23674,3.3248 2.23856,4.2276 10e-4,0.5164 -0.60308,1.6548 -1.34251,2.5298 -0.73941,0.875 -2.41776,3.8677 -3.72964,6.6504 -1.31187,2.7828 -3.06512,5.6973 -3.89612,6.4767 -2.92305,2.7414 -13.3817,5.1934 -16.20122,3.7982 z m -38.0733,-5.5123 c -0.97397,-0.2455 -2.28314,-0.3317 -2.90926,-0.1915 -1.65994,0.3716 -1.45349,-0.8925 0.50596,-3.0979 0.9044,-1.0179 2.57183,-3.3596 3.70542,-5.2037 2.52559,-4.1086 3.52426,-4.4108 5.73616,-1.7359 2.7907,3.3748 3.21388,7.2373 0.79295,7.2373 -0.35538,0 -1.83031,0.7969 -3.27761,1.7708 -1.44732,0.974 -2.66552,1.7476 -2.70712,1.7191 -0.0416,-0.029 -0.87254,-0.2527 -1.8465,-0.4982 z m 64.76256,-1.7189 c -4.77634,-2.9482 -4.64535,-2.7846 -3.96438,-4.9526 0.69832,-2.2233 4.1071,-6.136 5.07312,-5.823 0.36415,0.118 1.57406,1.7215 2.68867,3.5634 1.11463,1.8419 2.62365,3.9887 3.3534,4.7706 0.72975,0.782 1.59032,1.9341 1.9124,2.5602 0.52813,1.0267 0.46667,1.1384 -0.62649,1.1384 -0.66665,0 -2.2115,0.1037 -3.43303,0.2303 -1.86992,0.1939 -2.66074,-0.041 -5.00369,-1.4873 z m -33.05586,-5.3358 c -4.64787,-1.4381 -9.7802,-4.7507 -10.96819,-7.0793 l -1.01408,-1.9878 1.43295,-1.6037 1.43294,-1.6038 11.09347,-0.123 c 6.10139,-0.068 11.49074,-0.2862 11.97632,-0.4857 0.62881,-0.2582 1.39318,0.1478 2.65627,1.4108 0.97538,0.9754 1.77256,2.0808 1.77152,2.4565 -0.008,2.9678 -6.8289,7.6728 -13.69089,9.4441 -1.35019,0.3485 -2.52765,0.2411 -4.69031,-0.4281 z m -29.46094,-9.9651 c -0.74412,-1.3285 -2.20008,-3.688 -3.23546,-5.2434 l -1.88252,-2.8278 1.3731,-1.5367 c 0.75521,-0.8453 1.48533,-1.8496 1.6225,-2.2318 0.40656,-1.1329 3.26694,1.9303 5.19769,5.5663 l 1.7128,3.2255 -1.24013,1.825 c -0.68207,1.0038 -1.24012,2.1003 -1.24012,2.4367 0,1.5508 -1.0765,0.9847 -2.30786,-1.2138 z m 63.27486,0.8705 c -0.17711,-0.5581 -0.86723,-1.6626 -1.53357,-2.4545 l -1.21155,-1.4399 1.72114,-3.2375 c 1.6581,-3.119 5.32549,-7.3453 5.32549,-6.1372 0,0.3232 0.69551,1.3798 1.5456,2.348 l 1.54559,1.7603 -1.67208,2.501 c -0.91965,1.3756 -2.29815,3.665 -3.06333,5.0877 -1.49769,2.7847 -2.14995,3.1705 -2.65729,1.5721 z m -52.37736,-3.1595 c -1.79674,-1.0745 -3.59663,-2.7841 -5.19363,-4.9331 -1.34418,-1.8088 -3.34122,-4.2081 -4.43787,-5.3317 -1.09664,-1.1237 -1.99389,-2.2036 -1.99389,-2.3999 0,-0.9177 4.40383,-5.9256 5.21231,-5.9273 0.50143,-10e-4 1.8139,0.5103 2.91663,1.1364 1.55861,0.885 2.12265,1.589 2.53365,3.1623 0.29079,1.1131 0.64924,2.4377 0.79656,2.9435 0.14732,0.5059 2.06905,2.7307 4.27052,4.944 2.20147,2.2134 4.00267,4.1963 4.00267,4.4066 0,0.9514 -3.07968,3.6435 -4.16801,3.6435 -0.65412,0 -2.42665,-0.7399 -3.93894,-1.6443 z m 37.326,0.2616 c -0.76527,-0.8005 -1.39139,-1.8308 -1.39139,-2.2896 0,-0.4588 1.80021,-2.6417 4.00046,-4.8508 3.56119,-3.5756 4.06235,-4.3148 4.56414,-6.7319 0.5224,-2.5164 0.74445,-2.8169 3.03103,-4.1023 1.35703,-0.7628 2.69703,-1.3869 2.97775,-1.3869 0.42033,0 3.24021,3.4774 4.78201,5.8971 0.23427,0.3677 -0.42713,1.3693 -1.71052,2.5905 -1.15087,1.095 -3.25805,3.5519 -4.68262,5.4598 -2.65095,3.5502 -5.92127,6.0311 -8.66161,6.5707 -1.23083,0.2424 -1.78099,0.024 -2.90925,-1.1566 z m -70.58107,0.01 c -1.18268,-0.4087 -2.15032,-1.0467 -2.15032,-1.4179 0,-1.476 2.72243,-3.2521 6.5728,-4.288 1.2497,-0.3362 2.93442,-1.0829 3.74383,-1.6592 l 1.47164,-1.0479 0.93629,1.1562 c 0.51496,0.636 0.93629,1.4481 0.93629,1.8047 0,0.3566 -1.37906,1.9251 -3.06458,3.4856 -3.3807,3.13 -4.39576,3.3663 -8.44595,1.9666 z m 102.90203,-1.1497 c -1.34478,-1.1113 -2.88783,-2.5834 -3.42899,-3.2714 -0.92775,-1.1794 -0.93595,-1.324 -0.14376,-2.5331 1.00456,-1.5331 1.41631,-1.5763 3.17548,-0.3333 0.73866,0.522 2.13989,1.119 3.113847,1.3267 3.61633,0.7712 7.85404,3.8331 6.69926,4.8405 -0.49195,0.4291 -5.43221,1.9911 -6.29764,1.9911 -0.37023,0 -1.773417,-0.9092 -3.118197,-2.0205 z m -53.95453,-1.4874 c -4.80755,-0.363 -6.88871,-1.5627 -11.31657,-6.5234 -3.68808,-4.1319 -4.09931,-4.9536 -3.39991,-6.7931 l 0.48414,-1.2734 4.46183,0.9147 c 7.96115,1.6319 10.18973,1.7196 13.36408,0.5255 2.69571,-1.0141 2.92502,-1.0252 4.8066,-0.2324 2.62378,1.1055 6.9553,0.9946 13.09348,-0.3353 4.07166,-0.8822 5.0371,-0.9538 5.38843,-0.3995 0.59806,0.9435 0.54573,2.3182 -0.1377,3.6177 -0.94689,1.8005 -6.50732,7.5933 -8.44368,8.7966 -2.42835,1.509 -10.68772,2.2774 -18.3007,1.7026 z m -37.73729,-5.8155 -2.07116,-2.0658 1.42183,-2.2743 c 0.782,-1.2508 1.56027,-2.9572 1.72947,-3.7921 0.50566,-2.4948 0.7868,-3.2887 1.16472,-3.2887 0.4387,0 5.64483,6.8987 5.64483,7.4801 0,0.8682 -3.00933,4.4438 -4.38353,5.2083 -1.41296,0.786 -1.46678,0.7666 -3.50616,-1.2675 z m 83.71932,0.5881 c -1.00916,-0.9003 -2.32189,-2.36 -2.91719,-3.244 l -1.08233,-1.6071 2.61317,-3.4524 c 1.43723,-1.8989 2.85832,-3.4525 3.15797,-3.4525 0.29964,0 0.73817,0.683 0.97451,1.5179 0.23634,0.8348 1.1064,2.8579 1.93347,4.4957 l 1.50375,2.9779 -1.79479,1.644 c -0.98714,0.9042 -1.79479,1.8979 -1.79479,2.2082 0,0.9189 -0.65005,0.6463 -2.59377,-1.0877 z m -76.18043,-8.5937 c -0.56824,-0.6262 -1.43078,-1.7642 -1.91677,-2.5291 -0.48599,-0.7649 -1.98016,-2.1956 -3.32041,-3.1794 -1.71739,-1.2607 -2.6894,-2.4503 -3.29246,-4.0293 -1.06794,-2.7964 -0.72901,-3.7966 1.28654,-3.7966 1.22438,0 2.38468,0.7851 5.58957,3.7823 2.37666,2.2227 4.71884,3.9571 5.67989,4.2061 2.26238,0.5863 2.29665,1.7832 0.12687,4.4311 -2.09653,2.5586 -2.69679,2.7197 -4.15323,1.1149 z m 68.2343,-1.6821 c -1.89109,-2.5872 -1.83539,-3.463 0.2534,-3.9841 1.74638,-0.4357 6.36244,-3.9206 7.50694,-5.6673 0.92178,-1.4068 4.01985,-2.9216 5.11543,-2.5012 1.02885,0.3948 0.85274,3.347 -0.3044,5.1025 -0.54868,0.8324 -1.85238,2.1508 -2.8971,2.9298 -1.04473,0.779 -2.70806,2.4885 -3.69628,3.7991 -2.46642,3.2708 -3.77076,3.3409 -5.97799,0.3212 z m -40.56181,0.4616 c -9.41066,-1.6235 -14.97568,-3.0246 -18.9734,-4.7771 -6.73459,-2.9523 -8.95759,-4.1939 -9.9942,-5.5824 -1.11935,-1.4992 -1.20058,-2.6379 -0.35601,-4.9902 0.34971,-0.9739 0.84888,-2.3774 1.1093,-3.1188 0.58926,-1.6777 2.13433,-2.2805 6.92301,-2.7011 2.06447,-0.1813 4.91048,-0.7647 6.32447,-1.2964 3.5756,-1.3446 7.7748,-4.8021 10.14457,-8.3527 2.82883,-4.2384 4.83501,-6.2871 6.15655,-6.2871 0.62468,0 1.26172,-0.2038 1.41565,-0.4529 0.16412,-0.2655 1.14519,-0.2584 2.37208,0.017 1.29746,0.2916 3.40769,0.2878 5.55527,-0.01 5.82899,-0.8077 6.78765,-0.2505 11.86615,6.897 2.70648,3.8091 7.38003,7.3794 10.98763,8.3938 1.45469,0.409 4.39008,0.8966 6.52307,1.0836 4.47283,0.3921 5.3072,1.0078 6.40432,4.726 1.16745,3.9566 0.9663,5.1628 -1.16867,7.0084 -1.04416,0.9026 -3.06655,2.0268 -4.49422,2.4982 -1.42768,0.4715 -3.88201,1.5082 -5.45408,2.304 -3.23987,1.6399 -15.88095,4.4666 -19.90979,4.452 -1.39138,-0.01 -3.44051,-0.4259 -4.55361,-0.9353 -1.93119,-0.8837 -2.10488,-0.8859 -3.79468,-0.047 -1.97027,0.9777 -5.15343,1.5039 -7.08341,1.171 z m -36.68191,-14.9271 c -8.99461,-4.9655 -12.05876,-9.2017 -13.4277,-18.5639 -0.48347,-3.3064 -0.48069,-5.0156 0.0132,-8.0784 0.61049,-3.7863 2.40181,-9.475 3.91733,-12.4401 l 0.75236,-1.4721 2.05403,3.2429 c 1.12971,1.7836 2.41427,3.5052 2.85456,3.8258 1.29865,0.9456 4.6259,8.127 4.65529,10.0478 0.008,0.5535 -0.23611,1.9993 -0.54352,3.213 -0.90678,3.5802 0.0308,7.3082 2.51595,10.0043 2.35033,2.5498 3.02707,4.0438 3.02707,6.6828 0,2.6146 -1.17678,4.1311 -3.19092,4.1119 -0.88863,-0.01 -2.07104,-0.2668 -2.6276,-0.574 z m 86.65498,0.2602 c -0.48163,-0.136 -1.14379,-1.1421 -1.47148,-2.2359 -0.81624,-2.7243 0.0757,-5.5158 2.65739,-8.3166 2.88454,-3.1293 3.70576,-6.9707 2.45388,-11.4781 -0.41401,-1.4906 -0.33158,-2.4115 0.40758,-4.5536 1.23617,-3.5825 2.48934,-5.8763 3.95,-7.23 0.66294,-0.6143 1.508997,-1.6645 1.880167,-2.3337 1.60396,-2.892 2.6566,-4.4993 2.94847,-4.5023 0.54581,-0.01 2.94536,6.0068 3.99178,10.0019 2.22353,8.4892 0.45264,18.6548 -4.21601,24.2014 -1.61385,1.9173 -8.421917,6.2129 -10.274587,6.4828 -0.79834,0.1163 -1.84558,0.1002 -2.32719,-0.036 z m -75.09702,-8.8128 c -2.50161,-0.4781 -5.66581,-2.0197 -6.82757,-3.3263 -0.78783,-0.8861 -1.93862,-4.2189 -1.9448,-5.6324 -0.002,-0.5053 0.29915,-0.4894 1.38856,0.073 2.42261,1.2517 5.63771,1.8931 9.48943,1.8931 4.27938,0 5.92304,-0.6631 8.27047,-3.3367 2.6768,-3.0487 2.06503,-6.7925 -1.72195,-10.5375 l -1.43798,-1.422 2.75592,0.3427 c 5.53809,0.6888 9.67677,3.3799 10.6274,6.9102 0.65341,2.4266 -0.45678,5.1478 -3.49296,8.5618 -4.56815,5.1365 -11.12347,7.6173 -17.10652,6.4737 z m 59.22362,-0.6576 c -5.50275,-1.7882 -12.3435,-8.888 -12.3435,-12.8109 0,-2.2905 1.12949,-4.3632 3.26538,-5.9923 1.99746,-1.5235 5.7002,-2.7663 8.24208,-2.7663 h 1.73344 l -2.00342,2.2761 c -3.96153,4.5005 -3.05519,9.3611 2.22184,11.9157 2.00618,0.9711 2.88118,1.0876 6.44743,0.8578 2.33006,-0.15 5.3089,-0.7193 6.84309,-1.3076 l 2.71684,-1.0418 -0.32763,2.1247 c -0.44315,2.874 -1.64912,4.4159 -4.6264,5.9152 -2.98443,1.5029 -8.86358,1.9035 -12.16915,0.8294 z m -62.43329,-9.0209 c -2.99429,-0.6549 -4.34792,-1.9927 -5.07257,-5.0134 -0.32705,-1.3633 -0.79943,-2.6053 -1.04975,-2.76 -1.03064,-0.637 -0.30932,-1.1224 2.15309,-1.4491 2.021,-0.2681 2.98925,-0.727 4.30064,-2.0384 0.93083,-0.9308 1.69243,-2.0592 1.69243,-2.5076 0,-0.6497 0.7959,-0.414 3.92117,1.1611 5.60076,2.8229 7.92013,6.3284 6.34242,9.586 -1.50729,3.1122 -6.38657,4.312 -12.28743,3.0214 z m 66.53341,0.1473 c -7.49055,-1.8614 -6.97578,-8.4836 0.97996,-12.6064 1.96551,-1.0186 3.73478,-1.9265 3.9317,-2.0176 0.19693,-0.091 0.70102,0.6551 1.1202,1.6584 0.88519,2.1185 3.17104,3.3055 6.36565,3.3055 1.92703,0 2.02209,0.067 1.49505,1.0517 -0.30956,0.5784 -0.881,2.123 -1.26988,3.4325 -1.22392,4.1214 -1.92588,4.5241 -9.33395,5.3546 -0.97397,0.1092 -2.4539,0.029 -3.28873,-0.1787 z m -33.00012,-7.0454 c -1.29393,-0.2681 -1.53066,-0.4946 -1.14615,-1.0968 1.38206,-2.1645 -0.0606,-5.5656 -2.3608,-5.5656 -1.6359,0 -3.37074,2.2212 -3.11195,3.9844 l 0.2218,1.5112 -1.5516,-0.7951 c -2.60506,-1.3349 -5.71422,-3.611 -6.0195,-4.4066 -0.21005,-0.5473 0.73886,-1.2475 3.47292,-2.5625 4.13421,-1.9885 5.70417,-3.749 7.1055,-7.968 0.89968,-2.7087 1.37492,-3.0677 5.10415,-3.8552 2.07725,-0.4386 3.12724,-0.3993 5.11805,0.1919 2.41013,0.7158 2.54558,0.8561 3.58888,3.7174 0.59631,1.6355 1.56107,3.5798 2.14389,4.3207 1.19194,1.5153 5.81602,4.3319 7.12369,4.3392 1.08484,0.01 1.51481,0.6901 1.10502,1.758 -0.30926,0.8059 -6.03777,4.8242 -6.87742,4.8242 -0.22826,0 -0.28395,-0.5221 -0.12378,-1.1603 0.74414,-2.9649 -3.82446,-5.2466 -5.5558,-2.7748 -0.97444,1.3912 -0.98656,2.2769 -0.0556,4.0616 0.70916,1.3595 0.6933,1.3914 -0.69143,1.3914 -0.7795,0 -2.41668,0.095 -3.63819,0.2114 -1.22151,0.1163 -2.95478,0.059 -3.8517,-0.1265 z m -42.28823,-6.7889 c -0.93646,-1.4609 -2.08187,-2.9687 -2.54534,-3.3506 -1.13987,-0.9393 -1.06087,-1.5824 0.19435,-1.5824 1.40486,0 3.861,-1.3191 4.46468,-2.3978 0.4318,-0.7716 0.8948,-0.5069 3.76053,2.1503 1.79745,1.6666 3.29478,3.4462 3.32739,3.9546 0.0326,0.5084 -0.60623,1.5898 -1.41966,2.4033 -1.20088,1.2008 -1.91143,1.4789 -3.77914,1.4789 -2.22129,0 -2.35855,-0.091 -4.00281,-2.6563 z m 84.85078,1.9462 c -1.56195,-0.6923 -2.22604,-1.6585 -2.22604,-3.2388 0,-0.4568 1.38265,-2.2255 3.07256,-3.9306 l 3.07255,-3.1001 1.40493,1.405 c 0.77271,0.7727 2.23915,1.5614 3.25876,1.7527 l 1.85382,0.3477 -1.6512,1.917 c -0.90817,1.0544 -2.10958,2.6792 -2.66982,3.6106 -0.80733,1.3424 -1.38452,1.7183 -2.78277,1.8127 -0.97028,0.065 -2.47004,-0.1938 -3.33279,-0.5762 z m -72.13391,-3.8537 c -1.81269,-1.0856 -4.79184,-3.5596 -6.62029,-5.4979 -3.14666,-3.3356 -7.46078,-9.1333 -7.46078,-10.0264 0,-0.3809 4.84179,-3.6962 7.46684,-5.1128 2.69869,-1.4563 9.58188,-3.6331 12.93521,-4.0907 4.29397,-0.586 10.64532,0.012 13.2477,1.2466 5.27934,2.5052 6.92719,9.6707 3.66461,15.9352 -2.38327,4.5762 -4.11472,5.7533 -11.01546,7.4887 -9.10377,2.2894 -8.49566,2.2865 -12.21783,0.057 z m 57.76489,0.7239 c -7.2153,-1.5415 -9.61164,-2.3861 -11.60129,-4.0892 -5.57337,-4.7706 -6.49636,-13.7451 -1.92772,-18.7436 1.81459,-1.9853 5.58138,-2.8816 12.01114,-2.8579 5.39962,0.02 6.16455,0.1508 10.6251,1.8188 5.74947,2.15 9.32172,3.9705 11.80049,6.0137 l 1.83318,1.5111 -2.01396,2.9504 c -3.60228,5.2774 -10.22827,12.1113 -11.79289,12.163 -0.23438,0.01 -1.00505,0.4694 -1.71258,1.026 -1.47144,1.1574 -2.62123,1.1905 -7.22147,0.2077 z m -75.58932,-6.9934 c -0.42292,-1.0121 -2.04202,-3.1134 -3.59803,-4.6694 -1.556,-1.556 -2.76062,-2.8716 -2.67694,-2.9235 2.42884,-1.5081 3.04908,-2.099 3.58694,-3.4171 l 0.64297,-1.5758 1.67686,1.6769 c 2.39128,2.3913 6.64134,8.5775 6.64134,9.6669 0,1.1039 -1.73484,2.3284 -3.91696,2.7649 -1.46019,0.292 -1.64881,0.1701 -2.35618,-1.5229 z m 98.48652,1.1607 c -0.90295,-0.2607 -2.01391,-1.0421 -2.46879,-1.7364 -0.803,-1.2255 -0.76287,-1.3538 1.37977,-4.4133 4.439847,-6.3396 7.031387,-8.7818 7.031387,-6.626 0,0.4541 0.82998,1.6084 1.84439,2.5651 l 1.84439,1.7395 -2.57201,2.4532 c -1.4146,1.3492 -3.04607,3.3824 -3.62551,4.5182 -0.57944,1.1358 -1.219647,2.0445 -1.422707,2.0195 -0.20306,-0.025 -1.10796,-0.259 -2.01092,-0.5198 z m -52.74869,-10.7189 c 0,-4.443 -4.02569,-9.7676 -8.28687,-10.9606 -1.53732,-0.4305 -2.18401,-0.815 -1.75417,-1.0432 0.72621,-0.3854 11.47904,-1.1406 16.11253,-1.1315 9.36834,0.018 13.117,0.2473 13.94375,0.8519 0.80871,0.5913 0.7207,0.6885 -0.89833,0.9923 -3.85647,0.7235 -7.87873,5.3054 -8.74057,9.9568 l -0.33373,1.8011 -3.62992,-0.03 c -1.99646,-0.017 -4.25605,0.1448 -5.02131,0.3588 -1.23244,0.3447 -1.39138,0.2538 -1.39138,-0.7953 z m -57.04169,-3.718 c -2.69031,-2.7568 -3.4617,-3.8311 -2.90458,-4.0448 0.41722,-0.1601 1.30901,-1.2142 1.98176,-2.3423 l 1.22317,-2.0512 3.57876,3.455 c 3.85557,3.7222 4.42023,5.2394 2.69332,7.2366 -1.77082,2.048 -2.67877,1.7367 -6.57243,-2.2533 z m 118.127387,2.4798 c -0.43886,-0.4869 -0.95711,-1.5232 -1.15167,-2.3027 -0.31653,-1.2681 0.0161,-1.7871 3.16207,-4.933 3.41902,-3.4191 4.7022,-4.2007 4.7022,-2.8643 0,0.3584 0.63997,1.4181 1.42215,2.3551 l 1.42216,1.7035 -3.46343,3.4634 c -3.59294,3.593 -4.74107,4.0787 -6.09348,2.578 z m -127.679607,-9.8048 c -5.74029,-3.982 -6.8994,-5.8285 -4.83275,-7.6988 1.5099,-1.3664 2.9016,-0.9909 7.38516,1.9929 4.17419,2.7779 4.24333,2.8574 3.73984,4.3017 -0.28213,0.8093 -1.14387,1.9207 -1.91499,2.4698 l -1.40202,0.9983 z m 138.400947,0.1041 c -0.81343,-0.8134 -1.47127,-1.8949 -1.46185,-2.4033 0.0108,-0.5805 1.48963,-1.9124 3.97569,-3.5806 4.5804,-3.0735 6.60877,-3.4288 7.94373,-1.3914 0.76751,1.1714 0.76757,1.3584 5e-4,2.5287 -0.95516,1.4578 -7.30877,6.2819 -8.30795,6.308 -0.36925,0.01 -1.33689,-0.648 -2.15032,-1.4614 z"
         id="path3393"
         inkscape:connector-curvature="0" />
    </g>
  </g>
</svg>
