<?xml version="1.0" encoding="UTF-8" standalone="no"?>
<svg
   xmlns:sketch="http://www.bohemiancoding.com/sketch/ns"
   xmlns:dc="http://purl.org/dc/elements/1.1/"
   xmlns:cc="http://creativecommons.org/ns#"
   xmlns:rdf="http://www.w3.org/1999/02/22-rdf-syntax-ns#"
   xmlns:svg="http://www.w3.org/2000/svg"
   xmlns="http://www.w3.org/2000/svg"
   xmlns:sodipodi="http://sodipodi.sourceforge.net/DTD/sodipodi-0.dtd"
   xmlns:inkscape="http://www.inkscape.org/namespaces/inkscape"
   inkscape:export-ydpi="90"
   inkscape:export-xdpi="90"
   inkscape:export-filename="C:\Users\funvill\Documents\git\stencils\bugs in top hats\Blowfly.png"
   sodipodi:docname="Blowfly.svg"
   inkscape:version="1.0 (4035a4fb49, 2020-05-01)"
   version="1.1"
   id="svg2"
   viewBox="0 0 354.33071 354.33072"
   height="100mm"
   width="100mm">
  <defs
     id="defs4" />
  <sodipodi:namedview
     inkscape:document-rotation="0"
     units="mm"
     inkscape:window-maximized="1"
     inkscape:window-y="-7"
     inkscape:window-x="-8"
     inkscape:window-height="1017"
     inkscape:window-width="1920"
     showgrid="false"
     inkscape:current-layer="layer1"
     inkscape:document-units="px"
     inkscape:cy="131.56956"
     inkscape:cx="157.90755"
     inkscape:zoom="3.959798"
     inkscape:pageshadow="2"
     inkscape:pageopacity="0.0"
     borderopacity="1.0"
     bordercolor="#666666"
     pagecolor="#ffffff"
     id="base" />
  <metadata
     id="metadata7">
    <rdf:RDF>
      <cc:Work
         rdf:about="">
        <dc:format>image/svg+xml</dc:format>
        <dc:type
           rdf:resource="http://purl.org/dc/dcmitype/StillImage" />
        <dc:title />
      </cc:Work>
    </rdf:RDF>
  </metadata>
  <g
     transform="translate(0,-602.36215)"
     id="layer1"
     inkscape:groupmode="layer"
     inkscape:label="Layer 1">
    <g
       transform="matrix(1.4917882,0,0,1.4917882,238.36163,127.39454)"
       id="g3367">
      <g
         transform="matrix(0.60627712,0,0,0.60627712,-81.521627,335.57715)"
         style="fill:none;fill-rule:evenodd;stroke:none;stroke-width:1"
         sketch:type="MSPage"
         id="g3353">
        <path
           style="fill:#000000"
           inkscape:connector-curvature="0"
           d="M 71,0 C 41.147946,-3e-6 15,7.59375 15,7.59375 L 22.636364,70.875 c 0,0 19.499822,10.124997 48.363636,10.125 28.863814,5e-6 48.36364,-10.125 48.36364,-10.125 L 127,7.59375 C 127,7.59375 100.85205,3e-6 71,0 Z m 0,130 C 13.235735,130 4e-6,119.16658 0,109.09995 -6e-6,99.033315 22.821429,94 22.821429,94 22.821429,94 42.246634,104.06663 71,104.06663 99.753366,104.06664 119.17857,94 119.17857,94 119.17857,94 142,99.033315 142,109.09995 142,119.16658 128.76426,130 71,130 Z M 71,84.89698 C 42.582648,84.896979 23,76 23,76 l 1.263158,15.251965 c 0,0 27.113487,8.748035 46.736842,8.748035 19.623355,0 46.73684,-8.748035 46.73684,-8.748035 L 119,76 c 0,0 -19.582648,8.89698 -48,8.89698 z"
           sketch:type="MSShapeGroup"
           id="path3355" />
      </g>
    </g>
    <flowRoot
       transform="translate(0,332.36215)"
       style="font-style:normal;font-weight:normal;line-height:0.01%;font-family:sans-serif;letter-spacing:0px;word-spacing:0px;fill:#000000;fill-opacity:1;stroke:none;stroke-width:1px;stroke-linecap:butt;stroke-linejoin:miter;stroke-opacity:1"
       id="flowRoot3351"
       xml:space="preserve"><flowRegion
         id="flowRegion3353"><rect
           y="22.994741"
           x="-269.71072"
           height="353.55341"
           width="270.72089"
           id="rect3355" /></flowRegion><flowPara
         style="font-size:60px;line-height:1.25"
         id="flowPara3357"> </flowPara></flowRoot>
    <path
       inkscape:connector-curvature="0"
       id="path3372"
       d="m 164.68599,915.67571 c -2.45365,-1.21043 -5.42579,-4.14871 -7.38684,-7.30274 -0.88577,-1.42461 -2.26767,-3.48459 -3.07089,-4.57772 -2.72214,-3.70469 -1.56898,-9.30826 2.72908,-13.26156 2.97291,-2.73444 5.1048,-3.87511 7.36201,-3.9391 2.79741,-0.0792 3.98153,1.53888 4.49332,6.14035 0.60331,5.42455 2.22074,7.56467 6.59023,8.71995 2.81863,0.74524 3.04669,1.29993 2.36652,5.75588 -0.65145,4.26791 -2.01361,6.96324 -4.18971,8.29022 -2.19785,1.34023 -6.36512,1.42209 -8.89372,0.17472 z m 20.05164,-0.82503 c -2.4212,-2.12584 -4.08867,-6.68409 -3.78324,-10.34206 0.17086,-2.0464 0.37053,-2.2534 3.10725,-3.22146 3.58819,-1.26924 5.42117,-3.42792 5.85967,-6.90088 0.7381,-5.84609 0.93629,-6.46231 2.3832,-7.41036 1.87227,-1.22676 4.92119,-0.41782 8.17689,2.16949 6.33964,5.03811 7.40885,10.81727 3.01092,16.27438 -1.03552,1.28493 -2.55795,3.47156 -3.38316,4.85918 -2.19497,3.69091 -5.71741,5.90879 -9.86027,6.20847 -3.12322,0.22591 -3.52606,0.10626 -5.51126,-1.63676 z m -48.3582,-14.47834 c -1.51444,-1.9253 -1.32838,-3.95152 0.78719,-8.57252 2.079,-4.54115 5.18504,-7.63728 10.78873,-10.75431 5.18279,-2.88289 6.80001,-4.13111 8.49181,-6.55415 0.96728,-1.38537 1.10035,-1.41452 2.60395,-0.57058 0.87152,0.48918 1.98221,1.59785 2.46821,2.46373 0.85535,1.52389 0.80897,1.65193 -1.44795,3.99747 -1.28239,1.33273 -4.37867,3.86916 -6.88065,5.6365 -5.30342,3.74622 -6.88077,5.63265 -8.63437,10.32632 -0.70492,1.88678 -1.7779,3.92672 -2.38439,4.53321 -1.64873,1.64872 -4.27847,1.41915 -5.79253,-0.50567 z m 79.90537,-0.19129 c -0.83288,-0.98982 -1.51433,-2.13226 -1.51433,-2.53876 0,-0.4065 -0.79594,-2.33191 -1.76876,-4.2787 -1.50431,-3.01041 -2.4428,-4.00557 -6.27706,-6.65619 -6.57549,-4.54564 -10.13047,-8.12385 -9.70135,-9.76475 0.34949,-1.33651 2.79703,-3.62352 3.87785,-3.62352 0.32789,0 1.44304,0.98707 2.4781,2.19349 1.03507,1.20642 4.17849,3.46959 6.98537,5.02928 5.92913,3.29459 9.01767,6.24256 11.1882,10.67897 2.15823,4.41128 2.45771,7.74093 0.84938,9.44375 -1.81136,1.9178 -4.25963,1.72426 -6.1174,-0.48357 z m -42.27588,-1.09587 c -2.40251,-1.46492 -2.94208,-2.54243 -3.39744,-6.78476 -0.51447,-4.79294 -1.18111,-6.67665 -3.53407,-9.98615 -2.59284,-3.64688 -2.69642,-5.83029 -0.30156,-6.35629 0.94846,-0.20831 2.67659,-1.13541 3.84028,-2.06019 4.48194,-3.56181 12.00253,-3.66536 17.32153,-0.23853 1.70703,1.09978 3.42278,1.99959 3.8128,1.99959 0.39,0 1.13167,0.42256 1.64813,0.93904 1.16195,1.16194 0.78892,2.4746 -1.71352,6.02976 -2.42419,3.44399 -2.67057,4.14619 -3.27756,9.34153 -0.53127,4.54727 -1.32885,5.97043 -4.16922,7.43924 -2.36865,1.22488 -7.98127,1.04752 -10.22937,-0.32324 z m 59.8599,-14.06744 c -0.15567,-0.48257 -0.44412,-2.0237 -0.64099,-3.42475 -0.1969,-1.40105 -0.75374,-3.31268 -1.23745,-4.24808 -0.85224,-1.64806 -0.83067,-1.71927 0.69691,-2.30005 2.28532,-0.86887 2.85074,0.048 2.83242,4.59301 -0.0156,3.88714 -1.0476,7.25002 -1.65089,5.37987 z m -106.64747,-1.85736 c 2.08324,-4.89552 2.99441,-6.35699 3.77627,-6.05696 0.44463,0.17062 1.05011,0.31023 1.34552,0.31023 0.29539,0 0.53708,0.20223 0.53708,0.44942 0,0.63535 -4.62778,6.17838 -5.6435,6.75964 -0.73219,0.41901 -0.73422,0.22692 -0.0154,-1.46233 z m -12.47397,-0.36002 c 0,-0.99211 5.39648,-9.56864 6.21942,-9.88443 0.48975,-0.18793 1.24837,0.0234 1.68579,0.46945 0.67357,0.68697 0.12931,1.50341 -3.55494,5.3327 -2.39264,2.48684 -4.35027,4.32386 -4.35027,4.08228 z m 24.27461,-6.84257 c -0.3217,-0.14467 -3.28533,-0.65936 -6.58582,-1.14378 -6.75478,-0.99138 -11.3459,-2.86328 -14.90165,-6.07569 -3.217,-2.90636 -5.49691,-7.62841 -4.1,-8.49174 0.24306,-0.15022 1.86764,-0.0139 3.61018,0.30272 6.52617,1.18617 15.47654,-1.90472 19.82685,-6.84693 2.99391,-3.40128 6.2336,-9.67453 7.0876,-13.72426 0.37313,-1.76942 0.83545,-5.84932 1.02738,-9.06643 0.491,-8.23031 0.27896,-7.94733 4.85667,-6.48167 l 3.80205,1.21729 0.37959,3.11008 c 0.20876,1.71054 1.64115,6.74804 3.18308,11.19446 2.64167,7.6177 2.76203,8.2228 2.08499,10.48255 -0.42917,1.43246 -1.90251,3.6376 -3.65876,5.47606 -3.81571,3.99432 -4.54548,5.45546 -4.95307,9.91683 -0.40077,4.38648 -1.99102,8.29856 -3.7577,9.24406 -1.33655,0.71529 -6.89516,1.33891 -7.90139,0.88645 z m 74.83887,-0.30635 c -3.4138,-1.05427 -5.52462,-4.77951 -5.52462,-9.75 0,-3.59971 -1.1598,-5.98361 -4.87978,-10.03 -5.05907,-5.50302 -5.15474,-6.73192 -1.33605,-17.16254 1.1389,-3.1109 2.36965,-7.37261 2.73497,-9.47047 l 0.66424,-3.8143 3.6018,-1.10775 c 1.98098,-0.60929 3.7649,-1.02537 3.96425,-0.92465 0.19936,0.10069 0.54161,2.88678 0.76056,6.19126 0.57737,8.71355 1.36397,12.54887 3.44497,16.79713 4.8561,9.91348 14.43061,15.43902 24.38608,14.07347 3.72235,-0.51058 4.09528,-0.38777 4.09232,1.34769 -0.005,3.10259 -4.46288,7.86756 -9.7021,10.37113 -5.00374,2.39105 -18.7541,4.54526 -22.20664,3.47903 z m 30.44221,-0.49824 c -4.82478,-1.38219 -5.45524,-1.82329 -3.84084,-2.68729 1.07752,-0.57666 1.80519,-0.42296 4.54844,0.96077 1.79613,0.90597 3.88665,1.64724 4.64559,1.64724 0.75894,0 1.3799,0.26322 1.3799,0.58493 0,0.8506 -2.70902,0.64714 -6.73309,-0.50565 z M 101.9757,873.39132 c -0.50308,-0.31888 0.44415,-0.63338 2.66408,-0.88455 1.89458,-0.21435 5.05897,-1.15315 7.03198,-2.08623 2.97833,-1.40853 3.69984,-1.56092 4.25025,-0.89772 0.52297,0.63015 0.28993,0.9917 -1.10367,1.71236 -3.97515,2.05563 -11.11119,3.25369 -12.84264,2.15614 z m 60.40583,-0.5239 c -0.66415,-0.55584 -1.67059,-1.75477 -2.23654,-2.6643 -0.56596,-0.90953 -1.93267,-2.18686 -3.03715,-2.83852 -4.27098,-2.51994 -3.30147,-5.54835 4.21938,-13.18006 6.1579,-6.24864 7.07491,-6.62133 13.36964,-5.43359 3.09014,0.58306 4.93175,0.5795 9.2834,-0.0179 6.51591,-0.89461 7.96371,-0.60081 10.45662,2.12192 1.04956,1.14631 3.31598,3.44244 5.03651,5.1025 3.57958,3.4538 4.76835,5.43985 4.76835,7.96645 0,1.42235 -0.44522,2.05755 -2.2332,3.18625 -1.22825,0.77537 -2.70886,2.16056 -3.29024,3.07823 -1.55723,2.45795 -3.31926,3.68844 -5.29778,3.69964 -1.65257,0.01 -2.62019,-0.46603 -6.37855,-3.13361 -4.0524,-2.8763 -12.20511,-2.34509 -16.60374,1.08185 -3.00711,2.34282 -6.02759,2.72941 -8.0567,1.0312 z m -47.7101,-15.83459 c -5.41896,-1.79617 -10.41357,-5.23258 -16.302085,-11.21621 -9.4718,-9.62477 -11.42109,-14.34243 -11.35481,-27.48094 0.0345,-6.83814 0.25286,-8.60217 1.62912,-13.16094 2.82092,-9.34401 5.7824,-14.54925 11.481315,-20.1801 5.5895,-5.52274 10.60566,-8.75116 18.44558,-11.87168 9.08573,-3.61636 14.30863,-4.73583 22.2507,-4.76917 6.85474,-0.0287 7.14879,0.0225 9.94382,1.73484 3.81701,2.33841 5.12875,5.01153 5.4207,11.04658 0.2809,5.80617 -0.0401,6.83989 -5.80568,18.69517 l -4.72176,9.70902 -2.44077,-1.2241 c -1.34243,-0.67326 -4.39088,-2.68008 -6.77434,-4.4596 -4.06648,-3.03608 -4.38192,-3.16936 -5.11814,-2.16252 -2.06788,2.82799 0.25032,8.10659 6.45623,14.70108 l 4.50331,4.78526 -0.64543,7.79073 c -1.3559,16.36644 -4.1336,22.72966 -11.67719,26.75035 -4.62405,2.46459 -10.33525,2.95473 -15.29057,1.31223 z m 118.97713,0.462 c -2.85188,-0.56296 -6.9329,-2.81544 -9.25509,-5.1083 -3.88735,-3.83823 -6.22265,-11.71932 -7.22146,-24.37065 l -0.55186,-6.99031 4.70045,-4.9657 c 5.87056,-6.20185 7.93668,-10.72862 6.54823,-14.34687 -0.53658,-1.39832 -1.11215,-1.17817 -5.28824,2.02263 -2.11534,1.62132 -5.13685,3.60194 -6.71448,4.40139 l -2.86841,1.45353 -0.60869,-1.60094 c -0.33478,-0.88054 -2.63388,-5.82237 -5.10914,-10.98187 l -4.50046,-9.38091 V 782.07 c 0,-6.80845 1.11125,-9.40738 5.0753,-11.86981 10.13737,-6.29721 37.54262,1.42423 50.83278,14.32215 4.31095,4.18373 7.42511,9.06782 9.79141,15.3564 2.69228,7.15484 3.59444,11.86071 3.59444,18.7494 0,12.17516 -2.41472,17.89517 -11.38582,26.97075 -9.98416,10.10042 -18.0834,13.66373 -27.03896,11.89594 z m -70.07278,-14.27354 c -2.67223,-2.8334 -3.78876,-6.55443 -3.78876,-12.62681 v -5.0807 l 2.68171,-1.02416 c 4.60337,-1.75804 6.36855,-6.51575 3.48665,-9.39765 -0.78966,-0.78965 -1.84253,-1.43574 -2.33973,-1.43574 -1.0756,0 -1.18803,-1.23676 -0.20206,-2.22273 1.2959,-1.2959 4.79185,-0.80456 7.62424,1.07154 5.01879,3.3243 5.68138,5.66307 3.90168,13.77198 -0.70067,3.19249 -1.3262,7.64706 -1.39008,9.89903 -0.15454,5.44823 -0.0956,5.21352 -1.82333,7.26675 -1.23116,1.46315 -1.95653,1.79967 -3.87922,1.79967 -1.93919,0 -2.70802,-0.36383 -4.2711,-2.02118 z m 24.72658,1.3894 c -1.81265,-1.05578 -2.93095,-4.06389 -2.84954,-7.66498 0.0422,-1.86431 -0.45106,-5.75857 -1.09598,-8.65393 -2.12398,-9.53537 -1.4528,-12.53966 3.55241,-15.90119 3.1324,-2.10375 6.48452,-2.26255 7.81013,-0.36998 0.86313,1.2323 0.82041,1.31598 -0.97072,1.90103 -2.3102,0.7546 -3.70075,3.03811 -3.1606,5.19025 0.59998,2.39052 3.34605,5.11066 5.64292,5.58965 l 2.03884,0.42517 -0.0665,5.52467 c -0.0767,6.37006 -1.54059,10.69994 -4.44313,13.14226 -1.81506,1.52727 -4.62746,1.8831 -6.45776,0.81705 z m -32.29128,-22.38289 -2.89856,-0.675 -0.026,-3.06936 -0.026,-3.06936 2.04726,0.41441 c 1.12599,0.22792 3.82419,0.37967 5.996,0.33723 3.72178,-0.0727 3.96925,0.005 4.30524,1.34311 0.64658,2.57623 -2.43809,5.62536 -5.51365,5.45014 -0.54204,-0.0309 -2.28989,-0.35991 -3.8841,-0.73117 z m 40.04162,-0.23721 c -1.64459,-0.82158 -2.0844,-1.41126 -2.23609,-2.99813 -0.10384,-1.08647 0.0632,-2.22754 0.37146,-2.53571 0.30818,-0.30818 3.05149,-0.60828 6.09626,-0.66688 l 5.53594,-0.10663 -0.058,2.89083 -0.058,2.89084 -3.21711,0.75029 c -4.15292,0.96855 -4.03762,0.97257 -6.43424,-0.22466 z m -49.10078,-3.12018 c -4.48284,-2.00703 -6.62369,-3.53727 -5.92549,-4.23547 0.34527,-0.34527 0.62775,-1.086 0.62775,-1.64609 0,-1.71529 0.84159,-1.70215 5.03247,0.0785 3.95982,1.68251 4.03266,1.75279 3.96359,3.82473 -0.0995,2.98476 -0.71499,3.31398 -3.69832,1.97831 z m 61.73331,0.27905 c -0.19194,-0.5002 -0.34574,-1.7434 -0.34178,-2.76264 0.007,-1.74602 0.24567,-1.94974 4.13101,-3.52274 2.2681,-0.91825 4.17848,-1.57629 4.24531,-1.46232 0.0668,0.11401 0.42307,1.06457 0.79167,2.11244 0.65555,1.86367 0.61703,1.93633 -1.76657,3.33262 -1.34019,0.78508 -3.39836,1.82897 -4.57368,2.31976 -1.92426,0.80353 -2.1717,0.80182 -2.48596,-0.0171 z m -35.57053,-6.87792 c -1.19513,-1.05651 -3.6299,-2.41615 -5.4106,-3.02144 -2.88382,-0.98024 -3.23763,-1.27773 -3.23763,-2.72232 0,-3.71148 5.06539,-12.53264 7.95184,-13.84779 2.17033,-0.98887 2.94872,-0.82915 4.29397,0.88104 1.13524,1.44323 1.19315,2.04276 0.86161,8.92019 -0.35197,7.30111 -1.0661,11.78263 -1.87006,11.7356 -0.22888,-0.0135 -1.39399,-0.88878 -2.58913,-1.94528 z m 9.59244,0.96517 c -0.88867,-1.72001 -1.23813,-4.77214 -1.37254,-11.98751 -0.11087,-5.94937 0.0143,-7.00704 0.95167,-8.04279 0.59361,-0.65594 1.73728,-1.1926 2.54151,-1.1926 3.18516,0 9.46862,9.33159 9.46967,14.06343 4.4e-4,1.9903 -0.1273,2.11579 -3.22612,3.16911 -1.77462,0.60321 -4.26132,1.98244 -5.52599,3.06496 -2.09006,1.78901 -2.34846,1.87327 -2.8382,0.9254 z m -46.69954,-2.94505 c -4.23834,-6.38141 -4.13657,-7.53736 0.32214,-3.65929 3.03826,2.64261 3.40056,3.18329 3.03898,4.53526 -0.62679,2.34369 -1.34747,2.15586 -3.36112,-0.87597 z m 16.1805,1.70946 c -1.44487,-0.55361 -2.70769,-1.42544 -2.80628,-1.93739 -0.16696,-0.86694 2.31147,-5.95804 6.91662,-14.20792 3.40811,-6.10545 4.37732,-13.50543 2.56719,-19.60081 -1.22674,-4.13088 -5.27827,-8.24778 -9.49526,-9.64843 -1.67021,-0.55475 -3.03674,-1.09719 -3.03674,-1.20541 0,-0.24021 6.85743,-2.33861 10.68201,-3.26874 4.00851,-0.97486 13.04273,-0.45815 14.31989,0.81902 0.93327,0.93326 0.93215,1.22754 -0.0187,4.93735 -1.24349,4.85209 -1.26159,6.8674 -0.0912,10.15938 1.12257,3.15759 1.21646,6.32073 0.24265,8.17446 -0.40572,0.77231 -2.51146,3.28124 -4.67942,5.57538 -4.18348,4.42697 -8.4952,12.03981 -10.2628,18.12014 -0.50416,1.73423 -1.09538,3.13884 -1.31384,3.12134 -0.21846,-0.0175 -1.57935,-0.48476 -3.0242,-1.03837 z m 50.88377,0.18213 c 0,-1.50099 -3.80333,-10.56355 -5.90648,-14.07393 -1.09455,-1.8269 -3.7917,-5.26066 -5.99367,-7.63058 -4.61062,-4.96227 -5.25872,-7.02483 -3.6713,-11.68367 1.19554,-3.50872 1.20078,-6.75833 0.0183,-11.37395 -1.16825,-4.56015 -0.70983,-5.14946 4.50735,-5.79423 4.65389,-0.57516 9.06606,0.007 15.86751,2.09329 l 5.29094,1.62302 -3.17707,1.05901 c -4.26964,1.42323 -7.11486,3.90084 -9.071,7.89906 -1.40288,2.86738 -1.62066,4.00441 -1.59425,8.32332 0.0401,6.55673 0.81888,9.16242 4.69575,15.71161 2.71952,4.5941 6.05308,11.24547 6.05308,12.07756 0,0.22272 -6.18305,2.65754 -6.74864,2.65754 -0.14879,0 -0.27052,-0.39961 -0.27052,-0.88805 z m 16.7331,-0.0372 c -0.76512,-1.99386 -0.227,-3.02173 3.12798,-5.97492 l 3.48303,-3.06588 -0.64801,1.91213 c -0.76183,2.24797 -4.46897,8.05391 -5.14248,8.05391 -0.25601,0 -0.62525,-0.41635 -0.82052,-0.92524 z m -14.37012,-51.1068 c -0.73456,-0.46462 -0.70939,-0.7002 0.17976,-1.68271 1.34119,-1.48199 8.859,-5.19269 11.49559,-5.67407 1.89752,-0.34644 1.82906,-0.26255 -0.93607,1.14708 -1.64082,0.83648 -4.18081,2.70146 -5.64441,4.14438 -2.71069,2.6724 -3.57877,3.0243 -5.09487,2.06532 z m -52.63206,-2.01747 c -0.67668,-1.09491 -2.32225,-2.97722 -3.65681,-4.18291 -2.33563,-2.11011 -2.36374,-2.17643 -0.75078,-1.7716 3.60353,0.90443 5.54284,2.1065 7.2904,4.51893 1.65612,2.28622 1.72538,2.5505 0.76742,2.92855 -1.88013,0.74194 -2.40051,0.52911 -3.65023,-1.49297 z m 9.92422,-0.49524 c 0.008,-0.72384 0.51357,-2.36896 1.12252,-3.6558 l 1.10717,-2.33973 0.0554,2.33973 c 0.0304,1.28684 0.21405,2.93196 0.40803,3.6558 0.29998,1.11939 0.12394,1.3161 -1.17785,1.3161 -1.20182,0 -1.52726,-0.28266 -1.51521,-1.3161 z m 34.64298,0.24973 c -0.98875,-0.62785 1.53575,-5.69652 4.00081,-8.03279 l 1.81699,-1.72205 -1.00235,2.33972 c -0.5513,1.28685 -1.41728,3.59002 -1.9244,5.11813 -0.91261,2.74997 -1.47457,3.19646 -2.89105,2.29699 z"
       style="fill:#000000" />
  </g>
</svg>
