<?xml version="1.0" encoding="UTF-8" standalone="no"?>
<!-- Created with Inkscape (http://www.inkscape.org/) -->

<svg
   xmlns:sketch="http://www.bohemiancoding.com/sketch/ns"
   xmlns:dc="http://purl.org/dc/elements/1.1/"
   xmlns:cc="http://creativecommons.org/ns#"
   xmlns:rdf="http://www.w3.org/1999/02/22-rdf-syntax-ns#"
   xmlns:svg="http://www.w3.org/2000/svg"
   xmlns="http://www.w3.org/2000/svg"
   xmlns:sodipodi="http://sodipodi.sourceforge.net/DTD/sodipodi-0.dtd"
   xmlns:inkscape="http://www.inkscape.org/namespaces/inkscape"
   width="150mm"
   height="150mm"
   viewBox="0 0 150 150"
   version="1.1"
   id="svg8"
   inkscape:version="0.92.4 (5da689c313, 2019-01-14)"
   sodipodi:docname="frog.svg">
  <defs
     id="defs2" />
  <sodipodi:namedview
     id="base"
     pagecolor="#ffffff"
     bordercolor="#666666"
     borderopacity="1.0"
     inkscape:pageopacity="0.0"
     inkscape:pageshadow="2"
     inkscape:zoom="0.7"
     inkscape:cx="11.493233"
     inkscape:cy="447.73233"
     inkscape:document-units="mm"
     inkscape:current-layer="layer1-5"
     showgrid="false"
     inkscape:window-width="1920"
     inkscape:window-height="1017"
     inkscape:window-x="-8"
     inkscape:window-y="-7"
     inkscape:window-maximized="1" />
  <metadata
     id="metadata5">
    <rdf:RDF>
      <cc:Work
         rdf:about="">
        <dc:format>image/svg+xml</dc:format>
        <dc:type
           rdf:resource="http://purl.org/dc/dcmitype/StillImage" />
        <dc:title></dc:title>
      </cc:Work>
    </rdf:RDF>
  </metadata>
  <g
     inkscape:label="Layer 1"
     inkscape:groupmode="layer"
     id="layer1"
     transform="translate(0,-147)">
    <path
       style="fill:#000000;stroke:#000000;stroke-width:0.58386749"
       d="m 54.06859,271.30481 c 0.561729,-0.10681 1.713808,0.35036 2.560178,1.01611 0.846367,0.66575 1.897529,1.21047 2.335912,1.21047 1.126887,0 1.016029,-3.15723 -0.200902,-5.72173 -1.08948,-2.2959 -5.43976,-7.12337 -6.419245,-7.12337 -0.336032,0 -0.756748,0.72891 -0.934923,1.61977 -0.178172,0.89088 -1.130609,2.63483 -2.11652,3.87544 -0.985911,1.24061 -1.792564,2.62666 -1.792564,3.08015 0,1.41399 1.65705,4.11037 3.345573,5.44397 l 1.6173,1.27735 0.291934,-2.24192 c 0.198431,-1.52389 0.619031,-2.30415 1.313257,-2.43624 z"
       id="path53"
       inkscape:connector-curvature="0" />
    <path
       style="fill:#000000;stroke:#000000;stroke-width:0.58386749"
       d="m 39.66183,271.63381 c -0.12852,-1.68591 -0.256567,-3.23665 -0.284557,-3.44607 -0.08951,-0.66975 -3.5109,-1.62114 -3.850987,-1.07087 -0.833421,1.3485 2.309191,7.58224 3.822432,7.58224 0.300728,0 0.441629,-1.37937 0.313112,-3.0653 z"
       id="path51"
       inkscape:connector-curvature="0" />
    <path
       style="fill:#000000;stroke:#000000;stroke-width:0.58386749"
       d="m 45.149012,272.0295 c -0.347922,-0.91509 -0.481637,-2.26522 -0.297147,-3.00031 0.283882,-1.13107 0.106564,-1.33649 -1.153679,-1.33649 -0.819015,0 -1.637026,0.38545 -1.817802,0.85655 -0.537104,1.39967 0.646792,4.05471 2.143491,4.80705 1.764256,0.88685 1.904075,0.72198 1.125137,-1.3268 z"
       id="path49"
       inkscape:connector-curvature="0" />
    <path
       style="fill:#000000;stroke:#000000;stroke-width:0.58386749"
       d="m 88.838613,273.03187 c 0.57527,-0.36489 0.32761,-0.94378 -1.02177,-2.38827 -3.16678,-3.39007 -1.7501,-5.2357 3.16542,-4.12385 1.27548,0.28851 2.3894,0.45423 2.47535,0.3683 0.0858,-0.0858 -0.58472,-0.86619 -1.49039,-1.73386 -1.12555,-1.07834 -2.64798,-1.74176 -4.81081,-2.09634 -4.01985,-0.65904 -9.320292,-2.6401 -11.363207,-4.24705 -2.150625,-1.69169 -3.741952,-5.42497 -3.757421,-8.81503 -0.01103,-2.57232 0.229766,-3.06484 2.873731,-5.86045 2.990093,-3.16158 4.119857,-5.27789 4.119857,-7.71753 0,-1.10188 -0.307775,-1.42165 -1.368269,-1.42165 -0.752544,0 -2.8956,-0.5255 -4.76235,-1.16775 -1.958264,-0.67374 -4.914682,-1.16774 -6.988579,-1.16774 -3.232016,0 -3.763779,0.17676 -5.273267,1.75227 -1.994708,2.08204 -2.984812,6.6989 -3.578073,16.68463 -0.519452,8.74334 -0.158797,10.28585 3.187246,13.63189 3.925147,3.92516 8.474293,5.98771 14.322559,6.49374 2.613954,0.22619 5.672257,0.82779 6.796195,1.33687 2.202748,0.99775 6.242588,1.25276 7.473778,0.47182 z"
       id="path47"
       inkscape:connector-curvature="0" />
    <path
       style="fill:#000000;stroke:#000000;stroke-width:0.58386749"
       d="m 45.877581,264.98123 c 1.938971,-0.98127 2.790679,-2.4674 2.790679,-4.86942 0,-2.37556 -1.183106,-4.58511 -4.386251,-8.19168 -1.436115,-1.61699 -3.156298,-3.91877 -3.822631,-5.11509 -0.666333,-1.1963 -1.932665,-3.42337 -2.814076,-4.94904 l -1.602561,-2.77395 -1.575953,1.64495 c -3.776904,3.94224 -5.161625,13.88918 -2.584718,18.56692 2.244646,4.0746 3.583369,5.49307 5.99317,6.35021 2.504892,0.89098 5.406911,0.65057 8.002341,-0.6629 z"
       id="path45"
       inkscape:connector-curvature="0" />
    <path
       style="fill:#000000;stroke:#000000;stroke-width:0.58386749"
       d="m 109.61995,264.71818 c 1.79704,-1.41355 3.44179,-4.40644 4.42194,-8.04644 1.05193,-3.9066 -0.0616,-7.58178 -3.57656,-11.80559 -1.57798,-1.89612 -3.11294,-3.44749 -3.41107,-3.44749 -1.03424,0 -1.94613,2.64002 -2.08972,6.04986 -0.12005,2.85278 -0.49868,3.94219 -2.2573,6.49561 -2.15623,3.13073 -3.573267,6.72216 -2.65235,6.72216 0.27977,0 0.67105,-0.26274 0.8695,-0.58386 0.80149,-1.29682 1.34671,-0.47416 0.84503,1.27503 -0.6272,2.18691 -0.46516,2.46427 1.14163,1.95429 0.75158,-0.23854 1.46265,-1.26093 1.90586,-2.74026 0.6417,-2.14174 0.77774,-2.26302 1.47256,-1.31282 0.42104,0.57583 0.76554,2.31044 0.76554,3.8547 0,3.14086 0.32863,3.3439 2.56494,1.58481 z"
       id="path43"
       inkscape:connector-curvature="0" />
    <path
       style="fill:#000000;stroke:#000000;stroke-width:0.58386749"
       d="m 88.663173,260.65312 c 1.70705,-0.0479 1.6922,-0.0708 -0.58386,-0.90715 -1.2845,-0.47193 -3.38642,-0.78185 -4.67095,-0.6887 l -2.335458,0.16948 1.751598,1.0138 c 0.96338,0.55758 2.27708,0.8896 2.91935,0.7378 0.64225,-0.15182 1.95595,-0.29811 2.91932,-0.32512 z"
       id="path41"
       inkscape:connector-curvature="0" />
    <path
       style="fill:#000000;stroke:#000000;stroke-width:0.58386749"
       d="m 95.799363,256.27876 c 4.413967,-2.19959 6.128297,-4.77469 6.555807,-9.84757 0.32923,-3.90646 0.51848,-4.34633 3.40004,-7.90261 3.17131,-3.91388 3.23597,-4.08135 3.05314,-7.9063 -0.18294,-3.82642 -0.84401,-4.54719 -3.69495,-4.02825 -1.34057,0.24402 -3.72098,0.37971 -5.289797,0.30155 -2.73279,-0.13616 -2.96538,-0.0221 -5.54674,2.73532 -3.18197,3.39821 -3.97487,3.84975 -8.33504,4.74658 -3.46497,0.71271 -3.81116,1.07973 -5.697086,6.04009 -0.336418,0.88484 -1.692793,3.04076 -3.014191,4.79093 -2.300088,3.04643 -2.385136,3.30879 -1.994211,6.15117 0.615593,4.47589 2.02515,5.44394 8.755918,6.01339 6.82841,0.57773 8.82269,0.39289 11.80711,-1.0943 z"
       id="path39"
       inkscape:connector-curvature="0" />
    <path
       style="fill:#000000;stroke:#000000;stroke-width:0.58386749"
       d="m 54.016851,251.83306 c -0.47477,-8.40229 2.693895,-17.94555 6.912627,-20.81919 1.848284,-1.25897 2.494865,-1.36509 6.767232,-1.11074 2.598043,0.15469 5.29113,0.58487 5.984643,0.95605 2.159166,1.15554 1.393073,-0.15161 -1.912364,-3.26305 -4.074,-3.83483 -4.553018,-5.81481 -2.423511,-10.0172 0.830353,-1.63864 1.509743,-3.15811 1.509743,-3.3766 0,-0.70877 -13.61841,0.28385 -17.224087,1.25543 -1.926762,0.51921 -4.589434,1.57399 -5.917048,2.34396 -2.886486,1.6741 -7.228911,6.36555 -8.733254,9.4352 -1.379341,2.81457 -1.391517,9.05171 -0.02284,11.69843 1.415968,2.73819 10.135112,14.24625 11.943225,15.7634 2.822261,2.36813 3.382266,1.85305 3.115634,-2.86569 z"
       id="path37"
       inkscape:connector-curvature="0" />
    <path
       style="fill:#000000;stroke:#000000;stroke-width:0.58386749"
       d="m 89.247053,230.77274 c 0.96338,-0.68782 2.08474,-1.71221 2.49192,-2.27643 1.69553,-2.3495 4.30627,-3.59331 7.93497,-3.7804 1.972247,-0.10173 4.713777,-0.51492 6.092257,-0.91827 3.29094,-0.96298 4.52222,-0.2425 5.66738,3.31627 0.36957,1.14846 0.38941,1.14919 1.20244,0.0446 1.32587,-1.80147 1.70561,-5.0413 0.78158,-6.66849 -1.40177,-2.4685 -3.50261,-3.56841 -7.53033,-3.94259 -2.11195,-0.19618 -4.44253,-0.80012 -5.25481,-1.36171 -0.802807,-0.55504 -2.067257,-1.16512 -2.809847,-1.35576 -1.23595,-0.31728 -1.31844,-0.20213 -0.97505,1.36132 0.82539,3.758 -3.97306,7.78755 -10.1438,8.51838 -4.26036,0.50457 -5.696839,-0.0768 -9.708809,-3.92928 -3.555923,-3.41458 -3.635565,-3.45437 -4.655875,-2.32692 -0.57095,0.63088 -1.166506,2.28632 -1.32345,3.67873 -0.285111,2.52952 -0.281205,2.53559 4.562861,7.09253 l 4.848237,4.56085 3.534366,-0.3811 c 2.17624,-0.23467 4.20742,-0.86167 5.28596,-1.63166 z"
       id="path35"
       inkscape:connector-curvature="0" />
    <path
       style="fill:#000000;stroke:#000000;stroke-width:0.58386749"
       d="m 89.830913,221.06302 c 5.21396,-2.37178 4.45886,-4.34885 -1.1473,-3.00395 -1.70067,0.40799 -3.84607,0.59454 -4.76756,0.41458 -3.810429,-0.74413 -4.007381,-0.72215 -4.177234,0.46611 -0.404915,2.83271 5.706134,4.1184 10.092094,2.12326 z"
       id="path33"
       inkscape:connector-curvature="0" />
    <path
       style="fill:#000000;stroke:#000000;stroke-width:0.58386749"
       d="m 86.819593,217.66941 c 0.21693,-0.21693 -0.5931,-0.73853 -1.80026,-1.15894 -3.03498,-1.05699 -3.600631,-0.94146 -1.98417,0.4052 1.38619,1.15481 3.05164,1.48653 3.78443,0.75374 z"
       id="path31"
       inkscape:connector-curvature="0" />
    <path
       style="fill:#000000;stroke:#000000;stroke-width:0.58386749"
       d="m 88.038583,214.16625 c -1.3054,-0.95519 -4.43245,-0.80997 -4.77087,0.22158 -0.32528,0.99146 3.35555,1.90046 4.77087,1.17822 1.11341,-0.56819 1.11341,-0.58507 0,-1.3998 z"
       id="path29"
       inkscape:connector-curvature="0" />
    <path
       style="fill:#000000;stroke:#000000;stroke-width:0.58386749"
       d="m 94.209913,215.21972 c 0,-0.60096 -0.98527,-2.19648 -2.18949,-3.54559 -2.38302,-2.66976 -5.08389,-3.47004 -9.14174,-2.70878 -2.255931,0.42321 -5.600912,2.90068 -5.600912,4.1483 0,1.42359 2.255423,1.59181 4.310784,0.32152 2.631738,-1.62648 5.680178,-1.56504 7.759658,0.15646 1.80534,1.49448 3.73776,2.67524 4.42381,2.70304 0.24085,0.009 0.43789,-0.47392 0.43789,-1.07488 z"
       id="path27"
       inkscape:connector-curvature="0" />
    <path
       style="fill:#000000;stroke:#000000;stroke-width:0.58386749"
       d="m 109.97433,214.24229 c 0,-1.66922 -2.72325,-3.76859 -4.88858,-3.76859 -2.73872,0 -3.86943,0.50921 -3.86943,1.74258 0,1.89864 1.22885,2.36583 7.44431,2.83021 0.83801,0.0627 1.3137,-0.22859 1.3137,-0.8042 z"
       id="path25"
       inkscape:connector-curvature="0" />
    <g
       inkscape:label="Layer 1"
       id="layer1-5"
       transform="matrix(0.28222222,0,0,0.28222222,-16.172319,-17.111162)">
      <g
         id="g3367"
         transform="matrix(1.8899519,-0.31594815,0.31594815,1.8899519,296.06309,-1.343048)"
         style="fill:#000000;stroke:#000000">
        <g
           id="g3353"
           sketch:type="MSPage"
           style="fill:#000000;fill-rule:evenodd;stroke:#000000;stroke-width:1"
           transform="matrix(0.60627712,0,0,0.60627712,-81.521627,335.57715)">
          <path
             id="path3355"
             sketch:type="MSShapeGroup"
             d="M 71,0 C 41.147946,-3e-6 15,7.59375 15,7.59375 L 22.636364,70.875 c 0,0 19.499822,10.124997 48.363636,10.125 28.863814,5e-6 48.36364,-10.125 48.36364,-10.125 L 127,7.59375 C 127,7.59375 100.85205,3e-6 71,0 Z m 0,130 C 13.235735,130 4e-6,119.16658 0,109.09995 -6e-6,99.033315 22.821429,94 22.821429,94 22.821429,94 42.246634,104.06663 71,104.06663 99.753366,104.06664 119.17857,94 119.17857,94 119.17857,94 142,99.033315 142,109.09995 142,119.16658 128.76426,130 71,130 Z M 71,84.89698 C 42.582648,84.896979 23,76 23,76 l 1.263158,15.251965 c 0,0 27.113487,8.748035 46.736842,8.748035 19.623355,0 46.73684,-8.748035 46.73684,-8.748035 L 119,76 c 0,0 -19.582648,8.89698 -48,8.89698 z"
             inkscape:connector-curvature="0"
             style="fill:#000000;stroke:#000000" />
        </g>
      </g>
      <flowRoot
         xml:space="preserve"
         id="flowRoot3351"
         style="font-style:normal;font-weight:normal;line-height:0.01%;font-family:sans-serif;letter-spacing:0px;word-spacing:0px;fill:#000000;fill-opacity:1;stroke:none;stroke-width:1px;stroke-linecap:butt;stroke-linejoin:miter;stroke-opacity:1"
         transform="translate(0,332.36215)"><flowRegion
           id="flowRegion3353"><rect
             id="rect3355"
             width="270.72089"
             height="353.55341"
             x="-269.71072"
             y="22.994741" /></flowRegion><flowPara
           id="flowPara3357"
           style="font-size:60px;line-height:1.25"> </flowPara></flowRoot>    </g>
  </g>
</svg>
