<?xml version="1.0" encoding="UTF-8" standalone="no"?>
<svg
   xmlns:sketch="http://www.bohemiancoding.com/sketch/ns"
   xmlns:dc="http://purl.org/dc/elements/1.1/"
   xmlns:cc="http://creativecommons.org/ns#"
   xmlns:rdf="http://www.w3.org/1999/02/22-rdf-syntax-ns#"
   xmlns:svg="http://www.w3.org/2000/svg"
   xmlns="http://www.w3.org/2000/svg"
   xmlns:sodipodi="http://sodipodi.sourceforge.net/DTD/sodipodi-0.dtd"
   xmlns:inkscape="http://www.inkscape.org/namespaces/inkscape"
   inkscape:export-ydpi="90"
   inkscape:export-xdpi="90"
   inkscape:export-filename="C:\Users\steve\Documents\GitHub\BurnignMan2015\stencils\JumpingSpider.png"
   sodipodi:docname="JumpingSpider.svg"
   inkscape:version="1.0 (4035a4fb49, 2020-05-01)"
   version="1.1"
   id="svg2"
   viewBox="0 0 450 450.00001"
   height="5in"
   width="5in">
  <defs
     id="defs4" />
  <sodipodi:namedview
     inkscape:document-rotation="0"
     units="in"
     inkscape:window-maximized="1"
     inkscape:window-y="-7"
     inkscape:window-x="-8"
     inkscape:window-height="1017"
     inkscape:window-width="1920"
     showgrid="false"
     inkscape:current-layer="layer1"
     inkscape:document-units="px"
     inkscape:cy="353.52015"
     inkscape:cx="15.717594"
     inkscape:zoom="0.98994949"
     inkscape:pageshadow="2"
     inkscape:pageopacity="0.0"
     borderopacity="1.0"
     bordercolor="#666666"
     pagecolor="#ffffff"
     id="base" />
  <metadata
     id="metadata7">
    <rdf:RDF>
      <cc:Work
         rdf:about="">
        <dc:format>image/svg+xml</dc:format>
        <dc:type
           rdf:resource="http://purl.org/dc/dcmitype/StillImage" />
        <dc:title />
      </cc:Work>
    </rdf:RDF>
  </metadata>
  <g
     transform="translate(0,-602.36215)"
     id="layer1"
     inkscape:groupmode="layer"
     inkscape:label="Layer 1">
    <path
       inkscape:connector-curvature="0"
       id="path3347"
       d="m 232.04007,975.29249 c -0.48129,-0.1901 0.73488,-0.83138 2.74972,-1.44991 6.17124,-1.89446 9.80409,-5.85288 11.91894,-12.9871 0.49746,-1.67814 1.48244,-4.12951 2.18885,-5.44752 0.7064,-1.318 1.28437,-2.85559 1.28437,-3.41687 0,-2.34871 7.08362,-5.04707 10.65827,-4.06006 2.50016,0.69033 3.90107,3.22324 3.87906,7.01354 -0.0455,7.83845 -10.41081,17.00758 -22.42813,19.83992 -3.91718,0.9232 -8.61082,1.1558 -10.25108,0.508 z m -74.72508,-7.52844 c -7.39954,-2.58087 -11.76738,-8.90083 -14.77393,-21.37679 -1.95183,-8.09933 -2.11499,-13.78883 -0.45903,-16.00681 2.33163,-3.12296 4.03353,-3.91229 8.60312,-3.99008 l 4.283,-0.0729 5.21499,5.15336 c 8.70539,8.6025 11.66901,16.33373 10.891,28.4114 -0.22258,3.45526 -0.54268,6.64188 -0.71134,7.08139 -0.86432,2.25238 -7.68532,2.67082 -13.04781,0.80045 z m 124.09022,0.6358 c -2.49951,-1.44948 -2.72824,-2.33499 -2.72824,-10.56183 0,-12.8006 2.12689,-17.92206 11.19183,-26.94931 l 5.69244,-5.66876 3.93796,-0.0575 c 6.8333,-0.0998 9.09779,2.68494 9.0633,11.14562 -0.0378,9.26626 -4.52054,22.29998 -9.36788,27.23729 -1.11441,1.13509 -3.52674,2.73848 -5.36073,3.56308 -3.8058,1.71118 -10.50457,2.40723 -12.42868,1.29143 z m -78.3609,-2.66858 c -6.65156,-1.86045 -13.30228,-6.36283 -15.29206,-10.35236 -1.59045,-3.18888 -1.55102,-4.6 0.1738,-6.22039 3.0881,-2.90112 8.20662,-1.00466 14.36001,5.3205 3.38091,3.47529 4.52403,4.23897 8.0459,5.37509 2.25781,0.72835 5.41398,1.32428 7.01372,1.32428 3.3902,0 8.59123,-1.40393 11.61657,-3.13569 l 2.12197,-1.21465 -2.37564,2.45686 c -1.3066,1.35128 -4.30767,3.47805 -6.66905,4.72616 -3.96745,2.09702 -4.73067,2.28225 -10.05304,2.43983 -3.71242,0.10992 -6.89083,-0.14587 -8.94218,-0.71963 z m -0.75968,-15.77048 c -2.36836,-2.44353 -7.43385,-4.54561 -10.95377,-4.54561 -3.17018,0 -6.31344,1.3551 -8.45096,3.64333 l -1.72244,1.84387 -1.85421,-3.80458 c -3.20293,-6.57199 -3.99468,-10.66901 -3.95722,-20.47721 0.0261,-6.84931 0.33661,-10.13013 1.40559,-14.85379 0.75462,-3.33452 2.05973,-9.47308 2.90024,-13.64123 1.82371,-9.04388 3.13,-11.70996 6.37328,-13.00766 5.30867,-2.12411 12.57414,-0.84435 20.9521,3.69058 3.20748,1.73619 6.09919,2.83425 8.08251,3.06914 4.07242,0.48232 4.40452,1.39149 3.20146,8.7645 -1.02344,6.2722 -0.86268,9.04962 1.0953,18.92405 1.10249,5.56 1.20437,7.1338 0.65358,10.09552 -1.0246,5.5095 -3.57943,10.01986 -8.2078,14.49019 -2.27295,2.19534 -4.68414,4.87822 -5.35819,5.96194 -0.67405,1.08372 -1.4226,1.9704 -1.66345,1.9704 -0.24084,0 -1.36405,-0.95555 -2.49602,-2.12344 z m 41.52862,0.90208 c -0.21321,-0.67174 -2.56322,-3.33178 -5.22225,-5.9112 -5.36123,-5.2007 -7.87169,-9.53962 -8.95631,-15.4795 -0.55002,-3.01222 -0.42735,-4.59167 0.85862,-11.05461 1.74367,-8.76323 1.84898,-12.51701 0.55817,-19.89645 -0.51605,-2.95024 -0.84884,-5.6324 -0.73952,-5.96035 0.10931,-0.32794 1.65995,-0.67497 3.44586,-0.77118 2.56315,-0.13808 4.69098,-0.91811 10.10188,-3.70317 6.55992,-3.3765 7.08589,-3.53931 12.22826,-3.78516 4.56072,-0.21806 5.8427,-0.055 8.47581,1.07768 l 3.10234,1.33459 0.92482,4.3419 c 0.50865,2.38804 1.23512,5.97885 1.61437,7.97956 0.37927,2.00072 1.33798,6.50232 2.1305,10.00357 3.6778,16.24825 2.76208,30.09959 -2.60376,39.38463 -1.50926,2.61163 -1.58448,2.65701 -2.18256,1.31665 -0.88391,-1.98091 -5.83726,-4.32465 -9.13989,-4.32465 -3.79707,0 -8.81606,2.02657 -11.2576,4.54561 -2.3805,2.45605 -2.8088,2.57178 -3.33874,0.90208 z M 137.25461,931.39343 c -3.74024,-2.09315 -4.63987,-12.8676 -2.02466,-24.24858 1.79814,-7.82518 3.84349,-12.08458 6.62992,-13.8067 3.55505,-2.19714 7.72115,-1.26668 8.46299,1.89013 0.17856,0.75988 1.57574,4.92831 3.10482,9.2632 2.88363,8.17491 3.55387,13.34915 2.19287,16.92885 -0.56194,1.47802 -0.74628,1.53137 -4.09237,1.18458 -6.57488,-0.68143 -10.96981,1.75407 -12.49666,6.92519 -0.61137,2.07061 -0.88806,2.36075 -1.77691,1.86333 z m 173.86965,-0.22576 c -2.10257,-6.74129 -5.64047,-9.18115 -12.48142,-8.60763 l -4.166,0.34927 -0.62123,-2.23673 c -0.89269,-3.2141 -0.77192,-7.2809 0.32871,-11.06928 2.21372,-7.61962 5.28698,-15.49098 6.43421,-16.47952 3.21452,-2.76989 8.3231,-0.47921 11.08458,4.9703 1.60178,3.16096 4.56304,16.23775 4.56304,20.15019 0,5.12993 -1.2826,10.25475 -3.06336,12.24019 -1.58406,1.76612 -1.7262,1.81284 -2.07853,0.68321 z M 158.64428,909.97473 c -0.33373,-0.87776 -0.79135,-2.33417 -1.01695,-3.23645 -0.22559,-0.90229 -1.31907,-3.95766 -2.42994,-6.78971 -1.11088,-2.83206 -2.01978,-5.17977 -2.01978,-5.21715 0,-0.0374 2.1363,0.63524 4.74733,1.49471 4.25437,1.40042 4.94544,1.85005 6.65531,4.33016 2.59041,3.75732 5.39423,6.54269 7.8588,7.80708 1.89804,0.97376 1.9743,1.1198 1.00544,1.92542 -0.72951,0.60658 -3.04751,0.93411 -7.62091,1.0768 l -6.57253,0.20507 -0.60677,-1.59593 z m 118.33511,0.15512 c -1.44219,-1.44219 -0.72737,-2.87297 2.45542,-4.91472 1.75063,-1.12302 4.20534,-3.17759 5.45492,-4.56571 1.68565,-1.87254 2.73155,-2.52385 4.0529,-2.52385 0.97951,0 2.5186,-0.28046 3.42019,-0.62324 0.90158,-0.34279 1.72357,-0.53891 1.82664,-0.43585 0.10307,0.10308 -0.71501,3.04358 -1.81796,6.53445 l -2.00535,6.34704 -2.96477,0.40159 c -4.87072,0.65977 -9.64312,0.55916 -10.42199,-0.21971 z m -105.9166,-7.06312 c -2.72686,-1.67476 -5.40198,-4.64488 -7.35085,-8.16143 -1.63376,-2.94798 -1.74081,-3.56471 -1.70357,-9.81469 0.0372,-6.24879 0.17697,-6.9938 2.21727,-11.82241 1.19764,-2.83434 2.75616,-7.06312 3.46338,-9.39729 1.82408,-6.02033 2.11273,-6.37016 3.64688,-4.41982 1.65909,2.10919 5.70812,3.56428 9.12418,3.27893 3.74829,-0.3131 7.11574,0.59238 7.57412,2.03661 0.61803,1.94725 6.19139,6.50781 9.21002,7.53636 6.33366,2.1581 14.26347,0.68582 20.03516,-3.71982 1.55435,-1.18646 4.01126,-2.68146 5.45979,-3.32221 3.26852,-1.44582 5.66346,-0.83185 8.60879,2.20696 4.5783,4.7236 13.56442,6.88948 20.37259,4.91029 3.14861,-0.91532 4.17043,-1.65249 8.60295,-6.20641 4.07548,-4.18707 5.28745,-5.10504 6.38679,-4.83746 0.74626,0.18162 2.35766,0.58829 3.58089,0.90369 2.77776,0.71622 6.3517,-0.7127 8.22929,-3.29021 0.69862,-0.95906 1.42824,-1.58572 1.62138,-1.39258 0.19313,0.19313 0.86963,2.37523 1.50333,4.8491 0.6337,2.47387 2.20307,6.95338 3.48749,9.95445 2.27809,5.32278 2.33531,5.63535 2.33531,12.7554 0,7.26302 -0.0104,7.31633 -2.12197,10.83958 -2.09856,3.50162 -7.88927,8.67608 -8.9652,8.01113 -0.29221,-0.1806 -0.88336,-2.3186 -1.31365,-4.75112 -1.11298,-6.2919 -2.74001,-10.25527 -5.49466,-13.38471 -3.15925,-3.5891 -6.34719,-4.8573 -12.11522,-4.81955 -5.72153,0.0375 -10.95474,1.67146 -16.94811,5.29185 -5.08739,3.07313 -6.07497,3.22718 -9.81345,1.5308 -3.41452,-1.54938 -5.94946,-1.53241 -9.66196,0.0647 -4.19275,1.80367 -7.33156,1.33775 -12.65451,-1.87842 -5.64715,-3.41207 -10.6868,-4.9198 -16.48716,-4.93254 -9.82466,-0.0216 -14.71348,5.03005 -17.2239,17.79754 -0.5737,2.91771 -1.21037,5.30391 -1.41483,5.30266 -0.20446,-10e-4 -1.19022,-0.50495 -2.19057,-1.11934 z m 26.0655,-33.61134 c -3.36358,-1.60827 -6.62592,-4.95783 -8.05332,-8.26863 -1.35825,-3.15044 -1.22281,-9.44079 0.27508,-12.77592 l 1.22532,-2.72824 0.44342,1.95401 c 0.49186,2.16744 3.45866,5.01817 5.22249,5.01817 3.28355,0 5.4385,-2.50712 5.4385,-6.32727 0,-2.61989 -1.61083,-4.56502 -4.25853,-5.14231 l -2.10738,-0.45948 3.293,-1.00765 c 13.51049,-4.13421 25.41912,5.33112 23.42634,18.61997 -0.54059,3.6049 -4.58083,8.18037 -9.23352,10.45672 -4.89477,2.39479 -11.46526,2.67176 -15.6714,0.66063 z m 42.66824,0.47551 c -3.94408,-1.26578 -8.35709,-4.39423 -10.47796,-7.42799 -1.55427,-2.22327 -1.80875,-3.14661 -1.83803,-6.66905 -0.0213,-2.56249 0.37393,-5.14554 1.05891,-6.92055 1.3795,-3.57478 2.5085,-4.64216 2.63714,-2.49324 0.2835,4.73586 6.32294,7.02245 9.85548,3.73139 3.04096,-2.83308 1.72023,-8.07237 -2.37022,-9.40261 l -2.12113,-0.68981 2.72824,-0.74151 c 4.20072,-1.14169 10.60769,-0.49995 14.42831,1.4452 5.01734,2.55443 8.00883,8.03024 7.98724,14.6203 -0.0179,5.47966 -3.60967,11.12257 -8.77431,13.7852 -3.13209,1.61475 -9.33461,1.97548 -13.11367,0.76267 z m -64.21976,-10.28549 c -0.85184,-0.46334 -2.04989,-1.77292 -2.66234,-2.91017 -3.07049,-5.70156 4.0712,-13.61831 10.39293,-11.52082 1.57307,0.52192 1.71425,0.83161 1.8937,4.15373 0.25202,4.66571 -0.68077,7.67351 -2.97962,9.60786 -2.05025,1.72519 -4.28899,1.95072 -6.64467,0.6694 z m 92.71637,-0.12982 c -2.40904,-1.4951 -3.49717,-3.84492 -3.92824,-8.48299 -0.4604,-4.9538 0.33336,-6.25942 3.80546,-6.25942 4.83246,0 8.68542,3.57957 9.15909,8.50921 0.25099,2.61202 0.10014,3.00447 -1.93862,5.04321 -2.46455,2.46455 -4.49538,2.80504 -7.09769,1.18999 z m -50.44876,-19.52184 -6.5708,-3.40531 -6.46416,0 c -5.53538,0 -6.82934,0.1952 -9.00577,1.35855 -1.39788,0.74721 -2.93459,1.20775 -3.41491,1.02344 -1.08797,-0.4175 -3.175,-6.83627 -2.45173,-7.54046 1.06805,-1.03987 10.85607,-3.10152 17.71365,-3.73101 8.1973,-0.75247 37.7265,-0.29965 42.06334,0.64503 3.82146,0.83241 9.08706,2.39372 9.97219,2.95686 0.83244,0.52963 -0.99087,6.64441 -2.20501,7.39478 -0.39538,0.24436 -2.38433,-0.22842 -4.4199,-1.05063 -3.22631,-1.30316 -4.41316,-1.46377 -9.25304,-1.25209 -5.30813,0.23217 -5.84033,0.38826 -12.116,3.5537 -3.61019,1.82098 -6.72443,3.34273 -6.92053,3.38166 -0.1961,0.0389 -3.31339,-1.46161 -6.92733,-3.33452 z m -40.87039,1.98059 c -1.04008,-0.45783 -0.9523,-3.5544 0.16183,-5.70888 1.22367,-2.36632 3.99862,-3.72861 7.12827,-3.49945 2.01131,0.14728 2.7092,0.51742 3.43956,1.82424 0.84385,1.50989 0.81832,1.77347 -0.32296,3.33453 -2.00561,2.74332 -8.03984,5.09142 -10.4067,4.04956 z m 89.81297,-0.88146 c -3.63064,-1.39651 -5.23732,-2.95762 -5.23732,-5.08877 0,-2.4524 1.1914,-3.35647 4.42322,-3.35647 3.14105,0 6.24666,1.91878 6.91207,4.27056 0.18455,0.65226 0.48121,1.70283 0.65926,2.3346 0.37532,1.33177 -1.1571,3.10973 -2.64056,3.06368 -0.55973,-0.0174 -2.41223,-0.56799 -4.11667,-1.2236 z"
       style="fill:#000000" />
    <g
       transform="matrix(1.4917882,0,0,1.4917882,282.39797,205.05002)"
       id="g3367">
      <g
         transform="matrix(0.60627712,0,0,0.60627712,-81.521627,335.57715)"
         style="fill:none;fill-rule:evenodd;stroke:none;stroke-width:1"
         sketch:type="MSPage"
         id="g3353">
        <path
           style="fill:#000000"
           inkscape:connector-curvature="0"
           d="M 71,0 C 41.147946,-3e-6 15,7.59375 15,7.59375 L 22.636364,70.875 c 0,0 19.499822,10.124997 48.363636,10.125 28.863814,5e-6 48.36364,-10.125 48.36364,-10.125 L 127,7.59375 C 127,7.59375 100.85205,3e-6 71,0 l 0,0 z m 0,130 C 13.235735,130 4e-6,119.16658 0,109.09995 -6e-6,99.033315 22.821429,94 22.821429,94 22.821429,94 42.246634,104.06663 71,104.06663 99.753366,104.06664 119.17857,94 119.17857,94 119.17857,94 142,99.033315 142,109.09995 142,119.16658 128.76426,130 71,130 l 0,0 z M 71,84.89698 C 42.582648,84.896979 23,76 23,76 l 1.263158,15.251965 c 0,0 27.113487,8.748035 46.736842,8.748035 19.623355,0 46.73684,-8.748035 46.73684,-8.748035 L 119,76 c 0,0 -19.582648,8.89698 -48,8.89698 l 0,0 z"
           sketch:type="MSShapeGroup"
           id="path3355" />
      </g>
    </g>
    <flowRoot
       transform="translate(0,332.36215)"
       style="font-style:normal;font-weight:normal;line-height:0.01%;font-family:sans-serif;letter-spacing:0px;word-spacing:0px;fill:#000000;fill-opacity:1;stroke:none;stroke-width:1px;stroke-linecap:butt;stroke-linejoin:miter;stroke-opacity:1"
       id="flowRoot3351"
       xml:space="preserve"><flowRegion
         id="flowRegion3353"><rect
           y="22.994741"
           x="-269.71072"
           height="353.55341"
           width="270.72089"
           id="rect3355" /></flowRegion><flowPara
         style="font-size:60px;line-height:1.25"
         id="flowPara3357"> </flowPara></flowRoot>
  </g>
</svg>
