<svg xmlns="http://www.w3.org/2000/svg" xmlns:xlink="http://www.w3.org/1999/xlink" version="1.1" x="0px" y="0px" viewBox="0 0 100 125" enable-background="new 0 0 100 100" xml:space="preserve"><g><path fill="#000000" d="M55.4,87.1c0,0,0.3,4.4-2,5c0,0,5.2,1.9,4.7-7.7L55.4,87.1z"/><path fill="#000000" d="M48.6,87.4l-2.7-2.7c-0.5,9.6,4.7,7.7,4.7,7.7C48.3,91.8,48.6,87.4,48.6,87.4z"/><path fill="#000000" d="M37.5,43.2c-0.6-1.6-6-9.9-7.9-12.6c-1.9-2.7-4.9-2.4-4.9-2.4C17,30.8,14,34.6,14,41.5   c0,5.4,9,19.7,18.4,17C38,56.9,38.1,44.8,37.5,43.2z M25,37.2c-1,0-1.9-0.6-1.9-1.4s0.8-1.4,1.9-1.4c1,0,1.9,0.6,1.9,1.4   S26.1,37.2,25,37.2z"/><path fill="#000000" d="M77.6,28.3c0,0-3-0.3-4.9,2.4c-1.9,2.7-7.2,11-7.9,12.6c-0.6,1.6-0.5,13.7,5,15.3   c9.4,2.7,18.4-11.6,18.4-17C88.3,34.6,85.3,30.8,77.6,28.3z M77.3,37.2c-1,0-1.9-0.6-1.9-1.4s0.8-1.4,1.9-1.4c1,0,1.9,0.6,1.9,1.4   S78.3,37.2,77.3,37.2z"/><path fill="#000000" d="M93.5,9.4c-9.2,1.9-20.8,9.5-27,14.2c-3.9-1.2-8.6-2.2-14.2-2.3c-6.6-0.1-12.9,1.2-18.1,2.8   C28.2,19.5,16,11.4,6.5,9.4c0,0-3.4,0.4,0,2.1c3.1,1.5,13.1,4.3,26.1,13.2c-1.9,0.6-3.6,1.3-5,1.9c1.2,0.4,2.5,1.2,3.6,2.8   c1.6,2.3,7.3,11.1,8.1,13c0,0,0,0.1,0.1,0.2c2.7,0,7.2-0.5,10-4.1h5.4c0,0,2.5,3.5,7.9,4.1c0,0,0-0.1,0-0.1c0.8-2,6.5-10.7,8.1-13   c1-1.4,2.1-2.1,3.2-2.6c-1.5-0.8-3.5-1.7-5.9-2.6C80.8,15.7,90.5,13,93.5,11.5C96.9,9.9,93.5,9.4,93.5,9.4z"/><path fill="#000000" d="M72.1,61c-1,0-2-0.1-2.9-0.4c-2-0.6-3.6-2.1-4.8-4.5c-1.9-3.8-2.3-9.4-1.9-12.3c-4.6-0.5-7.3-2.9-8.3-4H50   c-3.1,3.5-7.7,4.1-10.3,4.1c0.3,2.9-0.1,8.5-1.9,12.2c-1.2,2.4-2.8,3.9-4.8,4.5c-0.6,0.2-1.1,0.3-1.7,0.3c1.5,1.7,3.3,3.6,4.6,4.3   c0,0,2.9,8.1,7.8,13.1c3.4,6,8.4,10.3,8.4,10.3s5-4.3,8.4-10.3c4.9-5,7.8-13.1,7.8-13.1c1.2-0.7,3-2.5,4.5-4.2   C72.5,60.9,72.3,61,72.1,61C72.1,61,72.1,61,72.1,61z M42.9,59.5c-0.5,0.3-1.3-0.2-1.9-1.2c-0.6-0.9-0.6-1.9-0.1-2.2   c0.5-0.3,1.3,0.2,1.9,1.2C43.4,58.2,43.4,59.2,42.9,59.5z M52,86.4l-2.9-4.5c0.9,0.3,1.9,0.4,2.9,0.3c1,0.1,2,0,2.9-0.3L52,86.4z    M62,58.4c-0.6,0.9-1.4,1.5-1.9,1.2c-0.5-0.3-0.4-1.3,0.1-2.2s1.4-1.5,1.9-1.2C62.6,56.4,62.6,57.4,62,58.4z"/></g><text x="0" y="115" fill="#000000" font-size="5px" font-weight="bold" font-family="'Helvetica Neue', Helvetica, Arial-Unicode, Arial, Sans-serif">Created by parkjisun</text><text x="0" y="120" fill="#000000" font-size="5px" font-weight="bold" font-family="'Helvetica Neue', Helvetica, Arial-Unicode, Arial, Sans-serif">from the Noun Project</text></svg>