<?xml version="1.0" encoding="UTF-8" standalone="no"?>
<svg
   xmlns:sketch="http://www.bohemiancoding.com/sketch/ns"
   xmlns:dc="http://purl.org/dc/elements/1.1/"
   xmlns:cc="http://creativecommons.org/ns#"
   xmlns:rdf="http://www.w3.org/1999/02/22-rdf-syntax-ns#"
   xmlns:svg="http://www.w3.org/2000/svg"
   xmlns="http://www.w3.org/2000/svg"
   xmlns:sodipodi="http://sodipodi.sourceforge.net/DTD/sodipodi-0.dtd"
   xmlns:inkscape="http://www.inkscape.org/namespaces/inkscape"
   inkscape:export-ydpi="90"
   inkscape:export-xdpi="90"
   inkscape:export-filename="C:\Users\steve\Documents\GitHub\BurnignMan2015\stencils\PreyingMantis.png"
   sodipodi:docname="PreyingMantis.svg"
   inkscape:version="1.0 (4035a4fb49, 2020-05-01)"
   version="1.1"
   id="svg2"
   viewBox="0 0 450 450.00001"
   height="5in"
   width="5in">
  <defs
     id="defs4" />
  <sodipodi:namedview
     inkscape:document-rotation="0"
     units="in"
     inkscape:window-maximized="1"
     inkscape:window-y="-7"
     inkscape:window-x="-8"
     inkscape:window-height="1017"
     inkscape:window-width="1920"
     showgrid="false"
     inkscape:current-layer="layer1"
     inkscape:document-units="px"
     inkscape:cy="353.52015"
     inkscape:cx="3.0906943"
     inkscape:zoom="0.98994949"
     inkscape:pageshadow="2"
     inkscape:pageopacity="0.0"
     borderopacity="1.0"
     bordercolor="#666666"
     pagecolor="#ffffff"
     id="base" />
  <metadata
     id="metadata7">
    <rdf:RDF>
      <cc:Work
         rdf:about="">
        <dc:format>image/svg+xml</dc:format>
        <dc:type
           rdf:resource="http://purl.org/dc/dcmitype/StillImage" />
        <dc:title />
      </cc:Work>
    </rdf:RDF>
  </metadata>
  <g
     transform="translate(0,-602.36215)"
     id="layer1"
     inkscape:groupmode="layer"
     inkscape:label="Layer 1">
    <g
       transform="matrix(1.4917882,0,0,1.4917882,282.39797,185.05002)"
       id="g3367">
      <g
         transform="matrix(0.60627712,0,0,0.60627712,-81.521627,335.57715)"
         style="fill:none;fill-rule:evenodd;stroke:none;stroke-width:1"
         sketch:type="MSPage"
         id="g3353">
        <path
           style="fill:#000000"
           inkscape:connector-curvature="0"
           d="M 71,0 C 41.147946,-3e-6 15,7.59375 15,7.59375 L 22.636364,70.875 c 0,0 19.499822,10.124997 48.363636,10.125 28.863814,5e-6 48.36364,-10.125 48.36364,-10.125 L 127,7.59375 C 127,7.59375 100.85205,3e-6 71,0 l 0,0 z m 0,130 C 13.235735,130 4e-6,119.16658 0,109.09995 -6e-6,99.033315 22.821429,94 22.821429,94 22.821429,94 42.246634,104.06663 71,104.06663 99.753366,104.06664 119.17857,94 119.17857,94 119.17857,94 142,99.033315 142,109.09995 142,119.16658 128.76426,130 71,130 l 0,0 z M 71,84.89698 C 42.582648,84.896979 23,76 23,76 l 1.263158,15.251965 c 0,0 27.113487,8.748035 46.736842,8.748035 19.623355,0 46.73684,-8.748035 46.73684,-8.748035 L 119,76 c 0,0 -19.582648,8.89698 -48,8.89698 l 0,0 z"
           sketch:type="MSShapeGroup"
           id="path3355" />
      </g>
    </g>
    <flowRoot
       transform="translate(0,332.36215)"
       style="font-style:normal;font-weight:normal;line-height:0.01%;font-family:sans-serif;letter-spacing:0px;word-spacing:0px;fill:#000000;fill-opacity:1;stroke:none;stroke-width:1px;stroke-linecap:butt;stroke-linejoin:miter;stroke-opacity:1"
       id="flowRoot3351"
       xml:space="preserve"><flowRegion
         id="flowRegion3353"><rect
           y="22.994741"
           x="-269.71072"
           height="353.55341"
           width="270.72089"
           id="rect3355" /></flowRegion><flowPara
         style="font-size:60px;line-height:1.25"
         id="flowPara3357"> </flowPara></flowRoot>
    <path
       inkscape:connector-curvature="0"
       id="path3418"
       d="m 201.41351,986.87495 c -6.23762,-2.1966 -25.74384,-12.17866 -25.75475,-13.17971 -0.003,-0.23824 1.03476,-0.73126 2.30523,-1.09563 1.94169,-0.55687 3.82853,-0.12718 11.83541,2.69534 10.85539,3.82666 12.56577,4.775 14.15538,7.849 1.72792,3.3415 0.68802,4.8682 -2.54127,3.731 z m 43.24512,-0.4419 c -0.56789,-1.4799 1.47892,-5.2414 3.61296,-6.63969 0.96207,-0.63037 6.31864,-2.75509 11.90348,-4.7216 8.38226,-2.95152 10.44689,-3.44214 11.83116,-2.81142 0.92231,0.42022 1.66791,1.01245 1.65689,1.31605 -0.0476,1.31217 -21.69839,12.25846 -26.6272,13.46226 -1.41527,0.3457 -2.07691,0.1772 -2.37729,-0.6056 z m -77.02344,-18.87166 c -2.69406,-4.63074 -3.58453,-6.74092 -5.11885,-12.13027 -1.03896,-3.64937 -1.03478,-3.6756 0.71342,-4.47213 2.55106,-1.16234 4.53731,-0.98378 5.01624,0.45097 1.10379,3.30659 4.68424,10.49749 6.64806,13.3518 1.20508,1.75153 2.19106,3.45029 2.19106,3.77501 0,0.32474 -1.04648,0.94362 -2.32551,1.3753 -1.27903,0.43168 -2.85992,1.01676 -3.51309,1.30016 -0.91951,0.39897 -1.7347,-0.42514 -3.61133,-3.65084 z m 108.91012,2.98929 c -0.98387,-0.56243 -2.35234,-1.03402 -3.04105,-1.04795 -1.77292,-0.0359 -1.56575,-1.10064 0.91604,-4.70778 2.40856,-3.50075 6.41681,-11.63705 6.41769,-13.02722 6.9e-4,-1.08307 3.14148,-1.17854 5.05639,-0.15371 1.73056,0.92616 1.72536,1.56096 -0.0573,6.99128 -1.46559,4.46441 -6.08566,13.0395 -7.00051,12.99333 -0.27633,-0.014 -1.30738,-0.48552 -2.29125,-1.04795 z m -71.55409,-2.97646 c -6.95171,-1.07712 -15.80275,-4.80844 -19.86348,-8.37381 -3.06918,-2.69478 -5.14343,-6.99422 -5.16474,-10.70534 -0.0142,-2.46677 2.74317,-12.02759 4.24029,-14.70278 0.47089,-0.84146 1.56538,-0.0936 5.18237,3.54129 4.39282,4.41449 4.57333,4.73467 4.29786,7.62325 -0.19844,2.08089 0.18182,3.98479 1.22716,6.14416 2.02819,4.1897 8.49222,11.22726 12.9249,14.0717 1.97752,1.26898 3.59551,2.43467 3.59551,2.59042 0,0.32802 -3.82855,0.21573 -6.43987,-0.18889 z m 34.31846,-0.75769 c 5.43089,-3.9302 8.91997,-7.06872 11.56946,-10.40708 3.52994,-4.44772 4.91548,-7.48202 4.91548,-10.76477 0,-1.95175 0.78867,-3.25419 4.13011,-6.82062 2.27156,-2.42451 4.48285,-4.4082 4.91398,-4.4082 1.04943,0 4.55119,10.73416 4.55119,13.95105 0,5.25086 -3.30751,10.26799 -8.9221,13.53389 -4.68286,2.72391 -12.57187,5.24815 -17.92567,5.73566 -4.92353,0.44832 -4.96901,0.43679 -3.23245,-0.81993 z m -19.48287,-8.16679 c -1.48233,-0.33198 -3.57528,-1.15986 -4.65101,-1.83972 -6.59506,-4.16815 -15.90891,-12.52501 -15.90891,-14.27429 0,-0.54942 1.04648,-2.55997 2.32551,-4.46786 1.27903,-1.90789 2.8873,-4.49921 3.57393,-5.75848 l 1.24842,-2.2896 2.13569,1.52075 c 1.17463,0.83641 4.09839,3.92269 6.49724,6.85839 2.39885,2.9357 5.28742,5.81643 6.41904,6.40161 4.13032,2.13587 5.35576,1.56762 13.99465,-6.48948 l 8.09888,-7.55346 1.56941,3.08133 c 0.86318,1.69473 2.32794,4.0777 3.25503,5.29549 0.92708,1.21779 1.68561,2.67776 1.68561,3.24437 0,2.04043 -11.48657,12.08831 -16.98601,14.85851 -3.39101,1.70814 -9.18216,2.32512 -13.25748,1.41244 z m -58.48359,-12.08641 c 0,-0.38328 1.25698,-3.51474 2.79328,-6.95882 1.5363,-3.44407 3.3673,-8.19392 4.06887,-10.55521 1.56338,-5.26182 1.90891,-5.70107 3.72153,-4.73099 1.24144,0.6644 1.35064,1.1324 0.80851,3.46512 -0.34473,1.48332 -1.47448,6.35014 -2.51054,10.81515 -1.85379,7.989 -1.91325,8.11256 -3.73652,7.76402 -1.01902,-0.1948 -2.59355,-0.0725 -3.49895,0.2717 -1.01943,0.38759 -1.64618,0.36057 -1.64618,-0.071 z m 124.86189,-7e-5 c -0.78709,-0.29719 -2.28057,-0.38194 -3.31883,-0.18833 -2.06594,0.38524 -1.47987,2.11771 -6.27012,-18.53483 -0.5223,-2.25183 -0.38277,-2.856 0.9484,-4.10657 l 1.5608,-1.46629 1.62232,5.53765 c 0.89227,3.04572 2.90304,8.3896 4.46838,11.8753 1.56533,3.4857 2.75023,6.58194 2.63309,6.88053 -0.11712,0.29859 -0.85694,0.29974 -1.64404,0.003 z m -71.80916,-14.37512 c -4.97583,-5.16073 -9.14533,-9.79981 -9.26555,-10.30908 -0.40219,-1.70365 12.92484,-5.35911 19.53819,-5.35911 5.96454,0 19.67738,3.55288 19.67738,5.09824 0,1.69791 -17.93921,19.95308 -19.60774,19.95308 -0.72427,0 -5.28368,-4.13656 -10.34228,-9.38313 z m -25.09417,2.14911 c -3.70984,-3.55039 -7.65426,-6.92537 -8.76538,-7.49994 -1.11111,-0.57458 -2.0202,-1.45598 -2.0202,-1.95865 0,-1.64714 7.91504,-13.64152 11.28125,-17.0955 3.91208,-4.01408 4.48291,-3.7877 6.24007,2.47477 0.68508,2.44162 2.65594,7.19459 4.37969,10.56215 3.68263,7.19446 3.60729,8.11884 -1.26079,15.4698 -1.66301,2.51122 -3.04297,4.55162 -3.06657,4.53424 -0.0236,-0.0174 -3.07823,-2.93648 -6.78807,-6.48687 z m 62.80243,3.8352 c -1.8149,-2.16427 -3.42027,-5.02123 -4.82716,-8.59051 -1.3159,-3.33848 -1.3182,-3.54025 -0.0716,-6.28418 2.9159,-6.41852 4.87741,-11.63091 5.69838,-15.14259 0.90287,-3.862 2.06458,-5.498 3.29874,-4.64553 0.65094,0.44963 5.55572,7.47533 11.54885,16.54282 l 2.29695,3.47524 -2.70976,1.87786 c -1.49038,1.03283 -5.0238,4.60965 -7.85207,7.94848 -2.82827,3.33884 -5.41004,6.07061 -5.73727,6.07061 -0.32723,0 -1.0675,-0.56349 -1.64502,-1.2522 z M 174.5438,921.47637 c -0.26353,-0.42641 -2.4078,-2.19508 -4.76505,-3.93038 -2.55564,-1.88137 -3.89581,-3.2818 -3.31965,-3.46896 0.53142,-0.17264 2.76193,-0.8117 4.9567,-1.42015 4.0083,-1.11122 8.73044,-4.1758 13.71916,-8.90346 2.53957,-2.40669 2.68328,-2.45476 2.68328,-0.89749 0,0.90496 -1.20748,3.01755 -2.68328,4.69465 -1.47581,1.6771 -4.13225,5.66576 -5.90322,8.86369 -3.24681,5.86296 -3.81428,6.47571 -4.68794,5.0621 z m 92.09664,-9.46749 c -3.67671,-5.58257 -6.73565,-10.47212 -6.79764,-10.86567 -0.062,-0.39355 0.54974,-0.81031 1.35939,-0.92613 0.9887,-0.14143 1.80639,0.41408 2.49016,1.6917 1.21197,2.26459 7.28387,7.8522 10.13486,9.3265 1.11242,0.57525 4.00775,1.44771 6.43406,1.93879 l 4.41148,0.89287 -3.56834,2.2898 c -1.96258,1.25939 -4.33038,3.10095 -5.26176,4.09236 -0.93138,0.99141 -1.87879,1.78172 -2.10534,1.75624 -0.22657,-0.0255 -3.42015,-4.61389 -7.09687,-10.19646 z m -25.81043,4.48529 c -1.737,-0.78806 -5.43682,-1.59897 -8.22183,-1.80202 -2.785,-0.20306 -5.32405,-0.62961 -5.64234,-0.9479 -0.31828,-0.31829 -0.87799,-5.21569 -1.24378,-10.88312 -0.36579,-5.66743 -0.71077,-10.7874 -0.76662,-11.37772 -0.17433,-1.84272 -1.97917,14.47137 -2.0287,18.33756 -0.0258,2.01794 -0.44949,3.99493 -0.94143,4.39332 -0.49193,0.3984 -2.98738,0.7245 -5.54544,0.72467 -2.70799,1.8e-4 -5.89949,0.50516 -7.63948,1.20878 -6.29368,2.54498 -8.04202,0.51955 -10.11714,-11.72058 -1.48268,-8.74562 -1.25851,-11.20561 1.29912,-14.25619 1.10903,-1.32278 1.83658,-1.57439 3.49756,-1.20957 1.41852,0.31156 3.91285,-0.17141 7.70748,-1.49237 5.02176,-1.74813 6.54927,-1.94525 14.56262,-1.87924 7.43066,0.0613 9.55584,0.33242 12.50257,1.59554 1.95261,0.83698 4.91351,1.601 6.57979,1.69781 3.63469,0.21117 5.51213,1.74375 7.01806,5.72894 1.00662,2.66385 1.00832,3.33928 0.0173,6.8889 -0.60428,2.16451 -1.73743,6.31565 -2.51812,9.22475 -2.10897,7.85872 -2.83251,8.34862 -8.51966,5.76844 z m -86.08374,-5.6772 c -13.80046,-2.47088 -25.2095,-14.75 -28.82117,-31.01919 -1.81547,-8.17795 -0.83795,-23.90914 1.15151,-18.53115 0.30757,0.83144 1.41507,2.07248 2.4611,2.75787 1.71783,1.12557 2.18673,1.14691 4.84506,0.2206 5.88552,-2.05084 8.36776,-10.0235 4.36652,-14.02474 -1.53947,-1.53948 -2.30451,-1.78138 -4.64215,-1.46784 l -2.79891,0.37541 2.58652,-3.15651 c 2.95796,-3.6098 8.01649,-7.50436 11.77599,-9.06635 3.88826,-1.61548 12.28998,-3.37612 16.54161,-3.4664 9.49932,-0.20173 17.56924,4.94029 22.69884,14.46333 3.01935,5.60539 4.31934,11.6862 4.80442,22.47295 0.52865,11.75598 -0.87153,20.77231 -4.1938,27.00551 -4.9926,9.36708 -19.10099,15.52676 -30.77554,13.43651 z m 126.60569,-1.51057 c -4.23219,-0.99656 -6.28846,-2.32703 -10.62672,-6.87576 -6.33193,-6.63912 -9.11683,-13.25005 -10.64015,-25.25805 -0.61341,-4.83532 -0.5595,-7.28027 0.26297,-11.92703 0.99774,-5.63698 2.52998,-9.97811 2.58021,-7.31019 0.012,0.63564 0.68912,2.00411 1.50478,3.04105 1.1308,1.43758 2.10796,1.87995 4.11436,1.86259 4.19646,-0.0363 7.28236,-3.42465 7.28236,-7.99612 0,-3.55905 -3.08453,-7.16395 -6.23114,-7.28234 -2.16288,-0.0814 -2.18491,-0.11881 -1.19686,-2.03294 2.93097,-5.67819 12.98918,-11.99216 20.03426,-12.5764 18.25455,-1.51381 36.05052,17.09838 36.05052,37.70399 0,6.6218 -2.02307,15.15196 -4.81426,20.29903 -2.60671,4.80688 -11.70064,13.70307 -16.25818,15.90466 -5.85296,2.82736 -15.77465,3.92804 -22.06215,2.44751 z m -89.28738,-15.04846 c -0.63655,-1.1894 -0.63177,-2.76264 0.0202,-6.6388 2.84329,-16.90496 1.57673,-28.92387 -4.2682,-40.5026 -4.16476,-8.25034 -12.55968,-14.98423 -20.20432,-16.20666 -1.53824,-0.24597 -2.63643,-0.79053 -2.49613,-1.23775 0.26617,-0.84841 7.77959,-3.58603 11.96902,-4.36108 2.50218,-0.4629 2.50992,-0.45597 8.7783,7.85661 7.7481,10.27484 10.70083,15.83784 10.07291,18.97747 -0.47933,2.39663 0.45453,7.57961 2.67495,14.84603 0.75413,2.46793 1.37115,5.50402 1.37115,6.74687 0,2.38801 -2.15723,10.11727 -4.39062,15.7314 -0.73354,1.84392 -1.33371,3.83737 -1.33371,4.4299 0,1.80022 -1.30759,2.01399 -2.19352,0.35861 z m 62.68702,-1.83531 c -0.26544,-1.05761 -1.65065,-4.35804 -3.07822,-7.33429 -2.14008,-4.46169 -2.60127,-6.2276 -2.62794,-10.06238 -0.0198,-2.83929 0.45229,-5.84124 1.2118,-7.70654 0.68428,-1.68054 1.24414,-4.28752 1.24414,-5.79328 0,-1.50576 0.52542,-3.79098 1.1676,-5.07826 0.90355,-1.81123 1.00728,-2.86285 0.45869,-4.65032 -0.872,-2.84125 -0.0567,-4.6088 5.12818,-11.11756 2.03774,-2.55806 4.71364,-6.13054 5.94645,-7.93885 1.2328,-1.8083 3.37809,-4.28579 4.7673,-5.50554 l 2.52584,-2.21772 5.13661,1.42342 c 2.82513,0.78289 5.8062,1.78179 6.6246,2.21978 1.46853,0.78593 1.46479,0.80553 -0.28616,1.49719 -12.63338,4.99041 -17.57464,9.14992 -22.12501,18.62463 -5.14142,10.70536 -6.44117,23.50711 -3.67395,36.18607 1.04769,4.80032 1.25176,7.0448 0.72929,8.02103 -1.04234,1.94765 -2.58788,1.66919 -3.14922,-0.56738 z m -54.76917,-6.63706 c 0,-0.37898 0.64399,-2.32286 1.43108,-4.31974 1.72321,-4.37182 1.8029,-7.69298 0.3096,-12.90268 -2.35267,-8.20784 -2.61945,-7.60341 3.53011,-7.99807 4.78544,-0.30711 6.00174,-0.70289 10.621,-3.45607 7.2135,-4.29942 10.37525,-4.29942 17.58874,0 4.61927,2.75318 5.83557,3.14896 10.62101,3.45607 6.14955,0.39466 5.88278,-0.20977 3.5301,7.99807 -1.50039,5.23442 -1.41292,8.53261 0.34452,12.99127 1.17041,2.96936 1.27862,3.83813 0.53666,4.30878 -1.60799,1.01999 -4.03286,0.6716 -8.63563,-1.24069 -4.06605,-1.6893 -5.36994,-1.85716 -14.83326,-1.90953 -9.79469,-0.0542 -10.60674,0.0494 -14.5101,1.85211 -4.10892,1.89759 -10.53383,2.642 -10.53383,1.22048 z m 1.66193,-27.75334 c -1.84978,-0.31482 -2.74321,-1.32673 -3.32234,-3.7629 -0.65828,-2.76909 0.409,-3.9188 2.00288,-2.15758 1.45215,1.6046 4.62498,1.91865 5.95429,0.58934 1.29451,-1.29451 1.03426,-3.51321 -0.61845,-5.27244 l -1.4771,-1.5723 3.3955,0.63435 c 10.58833,1.97811 9.28596,9.9543 -1.87238,11.46715 -1.37742,0.18675 -3.2055,0.22022 -4.0624,0.0744 z m 41.98607,0.0229 c -8.87931,-1.39935 -11.45703,-6.51479 -4.80465,-9.53476 3.75174,-1.70318 5.35021,-1.84673 4.12502,-0.37047 -0.47018,0.56653 -0.7511,1.935 -0.62427,3.04105 0.19528,1.70309 0.59865,2.04623 2.63439,2.24107 1.72571,0.16516 2.88633,-0.22326 4.11436,-1.37693 l 1.71056,-1.60698 0,2.89928 c 0,1.5946 -0.4025,3.21629 -0.89443,3.60377 -1.19869,0.94414 -4.06652,1.44981 -6.26098,1.10397 z m -43.47492,-7.13908 c -0.77652,-1.10404 -1.90328,-2.97332 -2.50392,-4.15396 -1.0329,-2.0303 -1.00538,-2.21173 0.50782,-3.34807 1.56581,-1.17585 1.67153,-1.11624 4.96191,2.79723 3.81369,4.5359 3.98726,6.17232 0.68876,6.49365 -1.77966,0.17338 -2.53423,-0.19597 -3.65457,-1.78885 z m 17.43622,1.4104 c -0.23997,-0.23998 -0.43632,-1.00193 -0.43632,-1.69324 0,-0.69131 -0.81552,-2.22612 -1.81227,-3.41068 -1.80458,-2.14463 -4.12806,-3.17835 -8.95132,-3.98248 -2.1097,-0.35171 -2.91595,-1.05192 -4.8069,-4.1746 -1.24962,-2.06361 -3.54869,-6.89145 -5.10905,-10.72854 l -2.83701,-6.97652 2.32483,0 c 1.27866,0 4.23543,-0.3256 6.5706,-0.72355 9.28498,-1.58231 8.34825,-1.67494 7.11812,0.70386 -2.07949,4.0213 -0.72001,7.18876 3.87447,9.0271 2.13038,0.85241 3.02529,1.82309 4.31816,4.68379 1.76199,3.89869 4.82984,6.33677 7.97925,6.34127 2.45041,0.004 5.56486,-2.50023 6.80644,-5.47177 0.63578,-1.52164 1.99861,-2.88599 3.80148,-3.80575 1.54572,-0.78857 3.31467,-2.15371 3.931,-3.03364 1.55619,-2.22177 1.39923,-5.743 -0.35542,-7.97368 l -1.47601,-1.87645 2.01267,0.34086 c 1.10696,0.18747 3.92327,0.66646 6.25844,1.06441 2.33518,0.39795 5.44059,0.72355 6.90091,0.72355 l 2.65513,0 -4.32352,9.60196 c -5.62094,12.48339 -6.23035,13.22217 -11.49562,13.93591 -4.68888,0.6356 -7.70625,2.92423 -7.89128,5.98542 l -0.10897,1.80259 -1.89931,-1.35212 c -2.45453,-1.74739 -6.7168,-1.73112 -10.01805,0.0382 -1.42677,0.7647 -2.79047,1.19403 -3.03045,0.95406 z m 25.80019,0.0407 c -0.99915,-0.99915 -0.37068,-2.35632 2.88344,-6.22667 3.1706,-3.77102 3.43396,-3.93034 4.66113,-2.81977 1.49667,1.35447 1.21489,2.79558 -1.33748,6.84019 -1.30395,2.06631 -2.15738,2.68328 -3.71168,2.68328 -1.11011,0 -2.23305,-0.21467 -2.49541,-0.47703 z m -49.10352,-12.705 c -1.45185,-2.65775 -1.57866,-3.34523 -0.79187,-4.29325 0.51524,-0.62082 1.14075,-1.12877 1.39003,-1.12877 0.77655,0 3.76582,7.1286 3.30317,7.87718 -0.89765,1.45242 -2.22201,0.61898 -3.90133,-2.45516 z m 56.73559,2.03746 c -0.23786,-0.61985 0.31078,-2.7139 1.21921,-4.65343 1.62441,-3.46817 1.67329,-3.50324 2.95933,-2.12285 1.68163,1.80502 1.65824,2.04633 -0.50701,5.2328 -1.95956,2.88375 -2.99086,3.3173 -3.67153,1.54348 z m -29.8695,-4.65222 c -2.12857,-2.52966 -2.2569,-3.5273 -0.81289,-6.31971 2.23068,-4.31366 8.36043,-4.58026 10.09081,-0.43887 2.78238,6.65916 -4.74661,12.14373 -9.27792,6.75858 z m -32.92685,-6.01091 -2.67592,-3.2656 2.0923,-1.9545 2.09231,-1.9545 2.32833,3.92892 c 1.68031,2.83544 2.13884,4.22987 1.64753,5.01024 -1.26436,2.00823 -2.79714,1.51508 -5.48455,-1.76456 z m 67.58695,2.1544 c -0.99003,-1.19291 -1.05284,-0.97008 1.63989,-5.81732 l 2.01762,-3.63197 2.15668,2.01464 2.15668,2.01465 -2.65053,3.23463 c -2.80967,3.42883 -3.91243,3.88179 -5.32034,2.18537 z m -43.66796,-4.67508 c -2.68094,-2.68093 -1.08785,-7.56766 3.11767,-9.56332 3.08079,-1.46192 4.71397,-1.47548 6.74068,-0.0559 3.16529,2.21705 0.9233,8.05952 -3.85964,10.05796 -3.19331,1.33425 -4.3072,1.25278 -5.99871,-0.43873 z m 18.49258,-0.16235 c -5.16913,-4.42427 -4.51584,-10.14144 1.15885,-10.14144 5.02241,0 9.28211,5.45132 7.37821,9.44218 -1.28181,2.68686 -5.78398,3.05563 -8.53706,0.69926 z M 96.833054,826.08749 c -3.479683,-1.24298 -8.69989,-4.33788 -9.963121,-5.90684 -0.764376,-0.94937 -0.334336,-0.84602 1.735044,0.41694 3.284254,2.00442 10.115756,2.66929 16.568283,1.6125 2.36129,-0.38673 4.38751,-0.61501 4.50273,-0.5073 0.11522,0.1077 0.39884,1.3627 0.63028,2.78888 l 0.4208,2.59305 -5.63907,-0.0314 c -3.10148,-0.0172 -6.816207,-0.4519 -8.254946,-0.96583 z M 339.0163,824.58175 c 0.23947,-1.47572 0.52968,-2.77126 0.6449,-2.87896 0.11522,-0.10771 2.14144,0.12057 4.50273,0.5073 6.27933,1.02843 13.26654,0.38516 16.56829,-1.52533 l 2.75131,-1.59199 -2.119,1.81796 c -4.94371,4.24137 -8.90967,5.73691 -16.05665,6.05488 l -6.72699,0.29928 0.43541,-2.68314 z m -226.43719,-0.001 c -0.059,-0.98387 -0.13953,-2.167 -0.17888,-2.62918 -0.0394,-0.46219 1.69941,-1.23943 3.86392,-1.7272 4.37905,-0.98681 5.72433,-0.46906 5.72433,2.20308 0,1.34752 -0.67183,1.79545 -4.1613,2.77455 -5.27364,1.47971 -5.12092,1.49779 -5.24807,-0.62125 z m 218.34731,0.45142 c -3.18187,-1.01066 -3.89045,-1.5161 -3.70031,-2.63957 0.46139,-2.72636 1.59914,-3.15063 5.84693,-2.18033 2.16451,0.49443 3.90328,1.27711 3.86392,1.7393 -0.0394,0.46218 -0.11985,1.64531 -0.17888,2.62918 -0.12514,2.08566 -0.57648,2.1206 -5.83166,0.45142 z m -150.79063,-2.91616 c -3.23492,-2.89739 -3.59759,-3.48134 -2.71714,-4.37495 0.55884,-0.56719 1.49901,-1.97048 2.08927,-3.11841 l 1.07319,-2.08715 2.28585,2.44492 c 6.1714,6.60085 6.75309,8.47445 3.03359,9.77107 -1.84608,0.64355 -2.37239,0.40293 -5.76476,-2.63548 z m 83.88755,2.96058 c -1.79477,-0.36629 -3.21993,-1.4968 -3.21993,-2.55421 0,-1.0338 7.10982,-9.74805 7.95327,-9.74805 0.34827,0 0.63322,0.45828 0.63322,1.0184 0,0.56014 0.75802,1.92861 1.6845,3.04105 l 1.6845,2.02264 -3.65224,3.25612 c -2.42133,2.15872 -4.13455,3.15769 -5.08332,2.96405 z M 124.1351,821.95338 c 0,-0.46094 -0.52641,-1.41975 -1.1698,-2.13069 -1.10403,-1.21995 -0.98004,-1.37395 2.20595,-2.73962 4.33256,-1.85715 4.40873,-1.84704 5.29782,0.70339 0.71561,2.0528 0.62265,2.21517 -2.04813,3.57771 -3.20102,1.63304 -4.28584,1.78218 -4.28584,0.58921 z m 196.63149,-0.62292 c -2.50802,-1.32455 -2.60742,-1.51028 -1.89774,-3.54608 0.88831,-2.54818 0.96488,-2.55832 5.2971,-0.70131 3.18598,1.36567 3.30997,1.51967 2.20594,2.73962 -0.64339,0.71094 -1.1698,1.66975 -1.1698,2.13069 0,1.18624 -1.3757,0.99303 -4.4355,-0.62292 z m -188.045,-3.67032 c 0,-0.46094 -0.50178,-1.39254 -1.11506,-2.07022 -1.03103,-1.13926 -0.82221,-1.39969 2.77037,-3.45516 2.137,-1.22267 4.21725,-2.22303 4.62277,-2.22303 0.57649,0 2.30841,3.56058 2.30841,4.74574 0,0.39217 -7.04591,3.84075 -7.84717,3.84075 -0.40662,0 -0.73932,-0.37714 -0.73932,-0.83808 z m 178.70634,-0.9978 c -1.86935,-0.97309 -3.39882,-1.87603 -3.39882,-2.00653 0,-1.18384 1.73237,-4.74408 2.30841,-4.74408 0.40553,0 2.48577,1.00036 4.62277,2.22303 3.59259,2.05547 3.8014,2.3159 2.77037,3.45516 -0.61328,0.67768 -1.11506,1.60928 -1.11506,2.07022 0,1.2442 -1.39679,0.97553 -5.18767,-0.9978 z m -141.63351,-1.24995 c -3.79206,-1.91814 -4.02476,-2.18012 -3.39881,-3.82647 0.36956,-0.97204 0.67194,-2.71237 0.67194,-3.86739 0,-1.15503 0.16806,-2.10004 0.37348,-2.10004 0.74755,0 9.32039,4.15164 10.53847,5.10356 1.18815,0.92853 1.18096,1.09505 -0.1406,3.25838 -2.17071,3.55332 -3.41336,3.77452 -8.04448,1.43196 z m 101.98948,-0.93078 c -1.93534,-2.53735 -1.94602,-2.60557 -0.57307,-3.66181 1.22423,-0.94183 9.87977,-5.20131 10.56938,-5.20131 0.14165,0 0.30003,1.13004 0.35196,2.5112 0.052,1.38115 0.42504,3.12899 0.82914,3.88408 0.64818,1.21113 0.26115,1.58972 -3.28486,3.21313 -2.21079,1.01213 -4.44731,1.84024 -4.97004,1.84024 -0.52274,0 -1.83787,-1.16349 -2.92251,-2.58553 z m -129.72158,-2.58785 c -0.55075,-1.28689 -1.12015,-2.54097 -1.26534,-2.78685 -0.3263,-0.55262 4.58078,-2.55467 8.32178,-3.39522 2.53418,-0.56939 2.84583,-0.4727 3.56522,1.10618 1.53039,3.35886 1.05167,4.12557 -3.32607,5.32703 -2.26289,0.62104 -4.60482,1.34505 -5.20429,1.60891 -0.77535,0.34128 -1.37894,-0.19557 -2.0913,-1.86005 z m 162.38909,1.6024 c -0.59033,-0.3778 -2.76378,-1.06809 -4.82991,-1.53399 -3.99955,-0.90187 -4.42894,-1.61994 -3.08401,-5.15738 0.6262,-1.647 0.87211,-1.7242 3.56523,-1.11909 3.83881,0.86252 8.76812,2.86125 8.43749,3.42121 -0.14519,0.24588 -0.71217,1.49353 -1.25995,2.77256 -1.08769,2.53963 -1.24566,2.62991 -2.82885,1.61669 z m -145.4337,-1.5998 c -2.38353,-0.49676 -3.40013,-1.05929 -3.40322,-1.88315 -0.002,-0.64613 -0.45107,-2.03088 -0.997,-3.07721 -0.96841,-1.85609 -0.93404,-1.91341 1.41121,-2.35337 1.32208,-0.24803 4.02468,-0.23594 6.00578,0.0269 3.20209,0.42478 3.60199,0.67013 3.60199,2.21002 0,1.91127 -1.88344,6.00334 -2.70166,5.86979 -0.28505,-0.0465 -2.04775,-0.40335 -3.9171,-0.79295 z m 126.15079,-0.15155 c -0.48449,-0.58378 -1.04913,-2.31573 -1.25476,-3.84878 l -0.37386,-2.78738 3.68241,-0.48849 c 2.02533,-0.26867 4.76411,-0.28556 6.0862,-0.0376 2.34525,0.43997 2.37961,0.49729 1.4112,2.35338 -0.54592,1.04634 -0.99456,2.43008 -0.99699,3.07499 -0.003,0.79209 -0.87507,1.32687 -2.68769,1.64811 -1.4758,0.26156 -3.20131,0.62666 -3.83445,0.81133 -0.63315,0.18468 -1.54757,-0.14186 -2.03206,-0.72563 z"
       style="fill:#000000" />
  </g>
</svg>
