<?xml version="1.0" encoding="UTF-8" standalone="no"?>
<svg
   xmlns:sketch="http://www.bohemiancoding.com/sketch/ns"
   xmlns:dc="http://purl.org/dc/elements/1.1/"
   xmlns:cc="http://creativecommons.org/ns#"
   xmlns:rdf="http://www.w3.org/1999/02/22-rdf-syntax-ns#"
   xmlns:svg="http://www.w3.org/2000/svg"
   xmlns="http://www.w3.org/2000/svg"
   xmlns:sodipodi="http://sodipodi.sourceforge.net/DTD/sodipodi-0.dtd"
   xmlns:inkscape="http://www.inkscape.org/namespaces/inkscape"
   inkscape:export-ydpi="90"
   inkscape:export-xdpi="90"
   inkscape:export-filename="C:\Users\steve\Documents\GitHub\BurnignMan2015\stencils\YellowJacket.png"
   sodipodi:docname="YellowJacket.svg"
   inkscape:version="1.0 (4035a4fb49, 2020-05-01)"
   version="1.1"
   id="svg2"
   viewBox="0 0 450 450.00001"
   height="5in"
   width="5in">
  <defs
     id="defs4" />
  <sodipodi:namedview
     inkscape:document-rotation="0"
     units="in"
     inkscape:window-maximized="1"
     inkscape:window-y="-7"
     inkscape:window-x="-8"
     inkscape:window-height="1017"
     inkscape:window-width="1920"
     showgrid="false"
     inkscape:current-layer="layer1"
     inkscape:document-units="px"
     inkscape:cy="353.52015"
     inkscape:cx="3.0906943"
     inkscape:zoom="0.98994949"
     inkscape:pageshadow="2"
     inkscape:pageopacity="0.0"
     borderopacity="1.0"
     bordercolor="#666666"
     pagecolor="#ffffff"
     id="base" />
  <metadata
     id="metadata7">
    <rdf:RDF>
      <cc:Work
         rdf:about="">
        <dc:format>image/svg+xml</dc:format>
        <dc:type
           rdf:resource="http://purl.org/dc/dcmitype/StillImage" />
        <dc:title />
      </cc:Work>
    </rdf:RDF>
  </metadata>
  <g
     transform="translate(0,-602.36215)"
     id="layer1"
     inkscape:groupmode="layer"
     inkscape:label="Layer 1">
    <g
       transform="matrix(1.4917882,0,0,1.4917882,282.39797,185.05002)"
       id="g3367">
      <g
         transform="matrix(0.60627712,0,0,0.60627712,-81.521627,335.57715)"
         style="fill:none;fill-rule:evenodd;stroke:none;stroke-width:1"
         sketch:type="MSPage"
         id="g3353">
        <path
           style="fill:#000000"
           inkscape:connector-curvature="0"
           d="M 71,0 C 41.147946,-3e-6 15,7.59375 15,7.59375 L 22.636364,70.875 c 0,0 19.499822,10.124997 48.363636,10.125 28.863814,5e-6 48.36364,-10.125 48.36364,-10.125 L 127,7.59375 C 127,7.59375 100.85205,3e-6 71,0 l 0,0 z m 0,130 C 13.235735,130 4e-6,119.16658 0,109.09995 -6e-6,99.033315 22.821429,94 22.821429,94 22.821429,94 42.246634,104.06663 71,104.06663 99.753366,104.06664 119.17857,94 119.17857,94 119.17857,94 142,99.033315 142,109.09995 142,119.16658 128.76426,130 71,130 l 0,0 z M 71,84.89698 C 42.582648,84.896979 23,76 23,76 l 1.263158,15.251965 c 0,0 27.113487,8.748035 46.736842,8.748035 19.623355,0 46.73684,-8.748035 46.73684,-8.748035 L 119,76 c 0,0 -19.582648,8.89698 -48,8.89698 l 0,0 z"
           sketch:type="MSShapeGroup"
           id="path3355" />
      </g>
    </g>
    <flowRoot
       transform="translate(0,332.36215)"
       style="font-style:normal;font-weight:normal;line-height:0.01%;font-family:sans-serif;letter-spacing:0px;word-spacing:0px;fill:#000000;fill-opacity:1;stroke:none;stroke-width:1px;stroke-linecap:butt;stroke-linejoin:miter;stroke-opacity:1"
       id="flowRoot3351"
       xml:space="preserve"><flowRegion
         id="flowRegion3353"><rect
           y="22.994741"
           x="-269.71072"
           height="353.55341"
           width="270.72089"
           id="rect3355" /></flowRegion><flowPara
         style="font-size:60px;line-height:1.25"
         id="flowPara3357"> </flowPara></flowRoot>
    <path
       inkscape:connector-curvature="0"
       id="path3447"
       d="m 178.41463,984.97672 c -1.55506,-0.57838 -1.80693,-1.03578 -1.80693,-3.28158 l 0,-2.60956 3.1086,0.20033 c 2.73467,0.1762 3.18611,0.42182 3.75292,2.0419 1.18446,3.38556 -1.17788,5.09092 -5.05459,3.64891 z m 89.1491,0.25763 c -1.24237,-0.86634 -1.58111,-2.75946 -0.80039,-4.473 0.67427,-1.47975 1.09442,-1.64412 3.7605,-1.47054 2.82283,0.1837 3.01319,0.31595 3.19927,2.22249 0.10879,1.11497 -0.1869,2.33747 -0.65709,2.71673 -1.19454,0.96347 -4.65513,1.5951 -5.50229,1.00432 z m -94.07711,-9.44013 c -1.73888,-0.50211 -2.1338,-0.94871 -2.12651,-2.4047 0.0193,-3.8609 0.58075,-4.60732 3.64863,-4.85129 2.82685,-0.22482 2.9097,-0.17325 4.54376,2.82902 0.91541,1.68198 1.48274,3.53151 1.2607,4.11008 -0.45583,1.18794 -3.80802,1.33287 -7.32658,0.31689 z m 95.77852,-0.64966 c 0.005,-0.86466 0.67964,-2.75298 1.4971,-4.1963 1.39069,-2.45558 1.65415,-2.6106 4.09586,-2.41015 3.12276,0.2564 3.39379,0.48341 3.80595,3.18868 0.47662,3.1284 -0.63217,4.08303 -5.30304,4.56551 -4.01338,0.41468 -4.10644,0.38857 -4.09587,-1.14774 z M 204.8152,971.025 c -7.10337,-1.90007 -12.6463,-6.68462 -18.08626,-15.61169 -1.84176,-3.02237 -4.6042,-7.56498 -6.13876,-10.09469 -1.53456,-2.52972 -4.08135,-6.63881 -5.65952,-9.13134 -3.12626,-4.93751 -4.56063,-10.05484 -3.6994,-13.19805 0.80813,-2.94935 3.94706,-4.45449 10.02333,-4.80625 7.27898,-0.42137 10.80641,0.95415 16.6999,6.51216 5.45813,5.1474 6.48687,5.71367 15.32044,8.43306 6.19851,1.90819 8.30622,3.24621 7.06647,4.48597 -0.24873,0.24871 -1.61582,0.42171 -3.03799,0.38442 -1.42216,-0.0373 -2.58575,0.0945 -2.58575,0.29292 0,0.1984 0.91818,1.12724 2.04038,2.06411 1.78338,1.48882 2.09773,2.25752 2.49572,6.10269 0.25044,2.41963 0.6778,4.63144 0.9497,4.91516 0.27187,0.2837 1.86141,1.25504 3.53231,2.1585 1.67089,0.90348 3.15368,1.9964 3.29508,2.42872 0.1414,0.43233 -0.9705,1.41232 -2.47088,2.17776 -2.41333,1.23119 -3.11144,1.30947 -6.05249,0.67873 -1.8285,-0.39214 -3.42089,-0.61661 -3.53867,-0.49884 -0.69637,0.69638 4.70575,7.12546 7.23054,8.60509 3.6886,2.16168 4.08261,2.7781 2.36376,3.69798 -2.01094,1.07627 -16.15276,1.36527 -19.74791,0.40359 z m 29.04907,-1.78661 c -5.10215,-1.54593 -10.9385,-6.50746 -7.65482,-6.50746 1.84657,0 9.57067,-3.43953 10.13333,-4.51236 0.30942,-0.58999 0.76353,-2.28659 1.00913,-3.77024 l 0.44654,-2.6975 -2.99445,-0.41044 c -4.14895,-0.56868 -9.71944,-3.4617 -9.443,-4.90424 0.15988,-0.83426 1.15591,-1.21898 3.92945,-1.51777 3.85873,-0.41569 7.44783,-2.07481 8.66053,-4.00345 1.04332,-1.6593 0.20817,-2.04849 -4.11733,-1.91869 -2.14669,0.0644 -4.08428,-0.17609 -4.30575,-0.53444 -0.6606,-1.06888 1.99947,-3.19816 5.02842,-4.02503 10.11238,-2.76056 11.09307,-3.26373 16.57336,-8.50347 2.9215,-2.79327 6.3467,-5.61172 7.61156,-6.26324 3.34395,-1.72247 11.69352,-2.10031 15.37165,-0.69562 4.43819,1.69495 5.2459,2.94844 4.83313,7.50056 -0.37816,4.17032 -1.31422,6.3829 -5.05324,11.9444 -1.33628,1.98763 -4.00593,6.63691 -5.93253,10.33175 -3.38603,6.49371 -8.63486,13.52621 -11.6807,15.65005 -2.47445,1.72543 -12.13253,4.78206 -16.28737,5.15465 -2.1559,0.19339 -4.91344,0.0507 -6.12791,-0.31746 z m -64.06762,-4.2785 c -1.6588,-0.9131 -1.839,-1.30798 -1.51313,-3.31601 0.20345,-1.2537 0.90298,-3.37001 1.5545,-4.70288 1.00615,-2.05836 1.55043,-2.45383 3.61317,-2.62524 2.353,-0.19554 2.4533,-0.11376 3.22354,2.62827 0.43723,1.55656 0.82276,4.16066 0.85676,5.7869 l 0.0618,2.9568 -2.9568,0.15435 c -1.73368,0.0905 -3.73576,-0.27444 -4.83985,-0.88219 z m 102.99609,0.11105 c -0.52054,-1.35653 0.0563,-6.6104 0.99637,-9.07496 0.57428,-1.50554 1.08091,-1.80694 3.03737,-1.80694 2.12562,0 2.46824,0.26463 3.6157,2.79254 1.53366,3.37871 1.65418,6.60568 0.28904,7.73866 -0.55406,0.45984 -2.47102,0.9767 -4.25989,1.14858 -2.63352,0.25304 -3.33358,0.10124 -3.67859,-0.79788 z M 170.57741,950.87771 c -1.27936,-0.74642 -0.94919,-2.40638 1.45552,-7.31792 1.50292,-3.06964 1.50572,-3.07141 2.62231,-1.64266 0.61479,0.78666 2.08834,3.01216 3.27456,4.94557 1.75087,2.85372 1.98399,3.6247 1.23867,4.09662 -1.23174,0.77991 -7.21178,0.72311 -8.59106,-0.0816 z m 100.50682,0.14354 c -0.98191,-0.38964 -0.74263,-1.06009 1.85949,-5.21037 1.64253,-2.61976 3.21807,-4.7632 3.5012,-4.7632 0.63138,0 3.97957,7.33484 3.97957,8.71802 0,0.54858 -0.4677,1.17689 -1.03934,1.39623 -1.36263,0.52289 -6.86358,0.42966 -8.30092,-0.14068 z m -155.25537,-3.96833 c -1.08416,-0.66968 -2.48745,-1.79935 -3.11842,-2.51037 -2.52567,-2.84608 -5.87923,-22.37262 -4.47616,-26.06299 1.42959,-3.7601 9.15266,-6.02052 15.14096,-4.43153 4.97227,1.31938 4.91241,1.11979 4.09491,13.65606 -0.80548,12.35196 -1.83977,16.38573 -4.85117,18.91964 -2.33419,1.96409 -4.12224,2.07711 -6.79012,0.42919 z m 212.46228,0.22363 c -3.81763,-2.07373 -5.81428,-10.41554 -5.81428,-24.29145 l 0,-7.4544 2.9689,-1.13383 c 2.23122,-0.85211 4.02251,-1.03545 7.20923,-0.73787 4.95306,0.46253 7.58531,1.64947 8.83458,3.98374 1.67526,3.13026 -0.36237,19.78397 -3.1038,25.36747 -1.25964,2.56557 -4.87029,5.27893 -6.97138,5.23891 -0.75968,-0.0144 -2.16515,-0.45213 -3.12325,-0.97257 z m -46.95328,-16.24961 c 1.83681,-7.79256 0.80856,-11.60262 -3.68118,-13.64035 -1.5495,-0.70326 -3.77823,-1.28515 -4.95274,-1.29308 -1.17451,-0.007 -2.13548,-0.30251 -2.13548,-0.65462 0,-1.50801 4.3497,-2.89547 9.19897,-2.93426 6.50881,-0.0521 9.62551,-1.6187 16.89772,-8.49375 l 5.65283,-5.34411 -0.38875,2.92386 c -0.2138,1.60811 -1.45995,5.03431 -2.76922,7.61377 -2.70735,5.33391 -11.36891,17.07871 -15.48829,21.00165 -2.69393,2.56548 -2.7497,2.58509 -2.33386,0.82089 z m -117.58528,-3.77285 c -5.63498,-6.76476 -10.97771,-14.43129 -12.9289,-18.55229 -1.7198,-3.63224 -3.41533,-8.98011 -2.98392,-9.41152 0.12621,-0.12621 2.85747,2.16083 6.06949,5.08228 7.4888,6.81131 11.45927,8.72912 17.02692,8.22426 3.31015,-0.30015 4.40783,-0.13007 6.1636,0.95506 2.67314,1.65208 2.72121,2.5272 0.13881,2.5272 -2.63266,0 -6.90737,2.22551 -8.2704,4.30576 -0.86752,1.32399 -1.01293,2.65415 -0.71735,6.56224 0.20388,2.6959 0.13632,4.90164 -0.15013,4.90164 -0.28647,0 -2.24312,-2.06759 -4.34812,-4.59463 z m 45.21113,1.6595 c -1.89981,-0.88448 -5.67375,-3.70897 -8.38655,-6.27662 -5.26458,-4.98295 -8.26794,-6.63717 -14.25443,-7.85116 -2.82908,-0.5737 -4.16562,-1.24959 -5.42081,-2.74131 -1.9144,-2.27512 -2.00706,-3.17704 -0.6993,-6.80705 0.52079,-1.44555 0.95985,-4.63395 0.97571,-7.08532 0.0216,-3.33936 0.41969,-5.23425 1.58743,-7.55629 0.85721,-1.70458 2.04076,-4.77381 2.63009,-6.8205 1.40322,-4.87327 3.62651,-6.7768 8.5976,-7.36104 2.04603,-0.24048 5.91488,-1.35853 8.59745,-2.48458 l 4.87739,-2.04735 6.20569,2.05777 c 8.20223,2.71982 14.95443,2.82872 21.74133,0.35068 2.52972,-0.92364 5.09684,-1.83368 5.70473,-2.0223 0.60788,-0.18862 3.46742,0.568 6.35451,1.68139 2.8871,1.11337 6.91296,2.21986 8.94635,2.45884 4.85213,0.57027 7.01315,2.5524 8.52348,7.81787 0.61954,2.15988 1.66702,4.85772 2.32776,5.9952 0.7629,1.31335 1.35022,4.07112 1.60924,7.55628 0.22434,3.01848 0.91156,6.91936 1.52717,8.66861 l 1.11929,3.18046 -2.63736,2.4601 c -1.98561,1.85215 -3.4037,2.56514 -5.73834,2.88514 -4.49892,0.61665 -8.03827,2.66367 -13.60986,7.87143 -4.83218,4.51661 -10.12592,7.67159 -12.89357,7.68432 -0.76719,0.004 -2.83695,-0.63297 -4.59948,-1.41445 -2.02033,-0.89578 -4.54012,-1.42087 -6.81848,-1.42087 -2.27836,0 -4.79814,0.52509 -6.81847,1.42087 -4.06091,1.80054 -5.20324,1.77636 -9.44857,-0.20012 z M 108.45548,911.71006 c 0.20551,-1.03023 0.57821,-3.68492 0.82821,-5.89936 0.5125,-4.53943 0.62892,-4.78404 2.9907,-6.28421 4.50918,-2.86416 11.14235,-2.76443 14.34106,0.21562 1.18179,1.101 1.36919,2.04627 1.36919,6.90631 l 0,5.63071 -1.80694,-0.49237 c -5.81349,-1.58413 -12.11952,-1.29406 -16.04956,0.73825 l -2.0463,1.05818 0.37364,-1.87313 z m 230.77663,0.56888 c -2.89692,-1.51732 -11.24248,-1.85563 -14.29658,-0.57956 l -2.45867,1.02731 0,-6.43737 0,-6.43737 2.77359,-1.24966 c 3.67788,-1.6571 8.02776,-1.52567 11.79625,0.35641 l 3.03611,1.5163 0.7621,5.33804 c 0.41914,2.93591 0.86534,5.85547 0.99153,6.4879 0.26968,1.35152 0.0139,1.34935 -2.60433,-0.0219 z m -175.62036,-5.5013 c -2.892,-1.54029 -6.64555,-4.70035 -12.55382,-10.5689 -8.40347,-8.34695 -10.87946,-11.77691 -14.27598,-19.77622 -1.34913,-3.17743 -1.3565,-3.36816 -0.26828,-6.94318 1.37456,-4.51578 3.41355,-8.57383 5.03522,-10.02127 1.80166,-1.60812 6.126,-2.56013 10.15389,-2.23542 1.9526,0.15742 6.29612,0.48456 9.65226,0.72698 l 6.10207,0.44078 2.5116,3.70646 c 5.77358,8.52034 6.3676,10.64357 7.2662,25.97276 0.74438,12.69829 0.4587,15.17374 -2.12023,18.37244 -2.4102,2.98938 -6.29495,3.09934 -11.50293,0.32557 z m 112.1661,0.25175 c -2.69069,-2.40412 -3.88018,-6.98161 -3.19755,-12.30503 0.27806,-2.16832 0.53049,-6.47531 0.56099,-9.57108 0.0305,-3.09577 0.37712,-7.38314 0.77029,-9.52749 0.77698,-4.23771 4.13672,-11.21795 7.11951,-14.79149 l 1.87695,-2.2487 11.19059,-0.0977 c 10.6842,-0.0931 11.24738,-0.0338 12.44576,1.31414 1.62826,1.8314 3.72764,5.53585 6.09038,10.74673 l 1.89451,4.17827 -3.04233,6.05622 c -2.75739,5.48899 -3.91898,6.92527 -12.40246,15.33551 -9.95416,9.86821 -14.17855,12.73249 -18.77865,12.73249 -1.79181,0 -3.05999,-0.51028 -4.52799,-1.82194 z M 125.15198,894.86864 c -3.49212,-1.81341 -7.62918,-2.15184 -11.24482,-0.91986 l -3.01179,1.02621 0.40383,-1.76799 c 0.2221,-0.97238 1.18941,-4.13343 2.14957,-7.02453 l 1.74574,-5.25654 3.0109,-0.58447 c 3.82886,-0.74324 7.34982,-0.0856 9.44328,1.76362 l 1.64045,1.44912 -0.81653,6.30739 -0.81651,6.30739 -2.50412,-1.30034 z m 197.00735,-1.66487 c -0.21199,-1.69338 -0.63526,-4.51889 -0.94062,-6.2789 -0.47493,-2.73746 -0.37284,-3.38235 0.70626,-4.46145 2.33552,-2.33552 6.15775,-3.07744 10.93351,-2.1223 1.7738,0.35476 2.19799,0.92418 3.69292,4.95728 0.92891,2.50607 1.87231,5.70321 2.09643,7.10478 l 0.40748,2.54827 -2.86841,-0.99804 c -3.51409,-1.22273 -8.36523,-0.7842 -11.44834,1.03487 l -2.19383,1.29439 -0.3854,-3.0789 z M 128.05173,878.175 c -2.06969,-1.40909 -4.88542,-1.88727 -9.10179,-1.54573 -0.81312,0.0658 -1.4784,-0.0535 -1.4784,-0.26511 0,-0.21167 1.94465,-4.38184 4.32146,-9.26705 3.95234,-8.12352 4.83628,-9.414 10.34882,-15.10832 4.72263,-4.87835 6.41524,-6.22502 7.81917,-6.22107 2.44192,0.006 4.12182,2.69147 4.12182,6.58694 0,2.66055 -0.29028,3.28069 -2.40451,5.13702 -2.44242,2.14446 -7.89134,12.19974 -10.22905,18.87637 l -1.16488,3.32695 -2.23264,-1.52 z m 191.58957,1.26634 c -0.15247,-0.26764 -0.64888,-1.66934 -1.10317,-3.11489 -1.73661,-5.52613 -7.28638,-15.84638 -10.22879,-19.02128 -2.74374,-2.96055 -2.97436,-3.46054 -2.57607,-5.58508 0.61175,-3.26316 2.34058,-5.94732 3.8306,-5.94732 2.20046,0 5.35146,2.45813 10.30971,8.04271 3.88016,4.37032 5.61448,7.09061 8.90601,13.96907 l 4.08751,8.5419 -4.48607,0.32853 c -3.24904,0.23794 -5.03433,0.73451 -6.4743,1.80076 -1.09352,0.80973 -2.11296,1.25325 -2.26543,0.9856 z m -139.63866,-2.62209 c -0.32653,-0.63243 -0.80424,-2.33259 -1.06158,-3.77814 -0.25733,-1.44555 -1.47897,-4.54053 -2.71475,-6.87773 -2.11137,-3.99313 -2.72676,-5.93511 -1.88078,-5.93511 0.20135,0 1.71301,0.33915 3.35923,0.75368 2.45612,0.61846 3.15671,1.14517 3.90483,2.9357 0.50145,1.20012 0.91171,2.9644 0.91171,3.92061 0,0.95622 0.63637,2.87084 1.41416,4.25472 1.34265,2.3889 1.35849,2.60113 0.31339,4.19615 -1.26991,1.93812 -3.38302,2.20194 -4.24621,0.53012 z m 86.10655,-0.34356 c -1.77006,-1.88415 -1.77725,-2.04838 -0.18754,-4.28252 0.69675,-0.97919 1.60642,-3.48852 2.02148,-5.57628 0.85473,-4.29913 1.96288,-5.33977 6.45713,-6.06377 l 2.84621,-0.45849 -2.66599,4.85758 c -1.4663,2.67166 -3.06477,6.6195 -3.55217,8.77298 -1.01881,4.50144 -2.49747,5.32822 -4.91912,2.7505 z m -77.81653,-4.25592 c -1.66021,-1.9033 -2.48602,-3.90789 -2.48602,-6.03469 0,-1.79429 0.21261,-2.0144 1.94562,-2.0144 3.03306,0 5.93921,-3.71834 5.93921,-7.59906 0,-2.0684 0.45607,-2.01902 4.18887,0.45347 2.07179,1.37231 3.63473,3.10857 4.71211,5.23471 1.96363,3.87502 2.00954,5.17083 0.26188,7.39262 -2.52794,3.21375 -12.46899,4.96644 -14.56167,2.56735 z m 30.69595,0.4607 c -1.44557,-0.35257 -4.22382,-1.28065 -6.1739,-2.06242 -3.38163,-1.35565 -3.64758,-1.64203 -5.74936,-6.19106 -1.21204,-2.62332 -2.20371,-5.33457 -2.20371,-6.02502 0,-1.68314 -1.25965,-2.62573 -8.11835,-6.07494 -3.84755,-1.93491 -6.47403,-3.7537 -7.75347,-5.36911 -1.77243,-2.2379 -1.87795,-2.65429 -1.257,-4.96035 0.98317,-3.65122 4.45684,-9.78023 6.41678,-11.32192 1.04452,-0.82162 2.67524,-1.32959 4.26835,-1.32959 2.21878,0 2.95307,0.41207 5.26899,2.95681 3.13972,3.44992 4.16797,3.59483 9.32502,1.31413 4.49081,-1.98604 6.54878,-2.06328 8.75416,-0.32853 2.12548,1.67192 4.44517,1.67192 6.57068,0 2.19403,-1.72583 4.00205,-1.65773 8.72117,0.32853 2.14656,0.90348 4.52037,1.64268 5.27515,1.64268 0.78977,0 2.51466,-1.25519 4.06327,-2.95681 2.98185,-3.27649 5.47234,-3.82621 9.02085,-1.9912 2.09888,1.08538 6.36457,8.27059 7.14768,12.0397 0.44241,2.12933 0.25033,2.61923 -1.96953,5.02332 -1.42741,1.54586 -4.87477,3.90593 -8.21396,5.62326 -5.98031,3.07566 -6.41089,3.55277 -8.41793,9.32765 -1.89966,5.46592 -3.56045,7.27206 -8.24413,8.96567 -4.78624,1.7307 -12.65259,2.38387 -16.73076,1.3892 z m 32.38993,-0.35354 c -5.17146,-1.59099 -6.49732,-5.38474 -3.63239,-10.39352 1.58349,-2.76844 5.16529,-5.90727 7.54547,-6.61232 1.31062,-0.38822 1.47841,-0.20549 1.47841,1.61019 0,4.13064 2.66197,7.2394 6.19895,7.2394 0.99238,0 1.68587,0.37163 1.68587,0.90347 0,2.41881 -0.96618,5.15178 -2.34863,6.64349 -1.24215,1.3403 -2.12585,1.64337 -4.68348,1.60623 -1.73385,-0.0252 -4.54374,-0.47379 -6.2442,-0.99694 z m -67.5431,-12.20698 c -6.02594,-2.70978 -17.31624,-4.63912 -27.4326,-4.68784 l -9.36322,-0.045 -0.0145,-2.34313 c -0.0151,-2.45665 -1.96065,-7.44694 -3.20249,-8.21444 -1.09657,-0.67773 -0.87003,-2.22097 0.42439,-2.89098 2.82794,-1.4638 29.03748,4.20661 37.2656,8.06237 4.38672,2.05565 8.25812,5.33448 9.07737,7.68799 0.4862,1.39675 -1.25591,3.86678 -2.68519,3.80717 -0.61194,-0.0255 -2.44318,-0.64476 -4.06943,-1.37606 z m 76.61839,0.18559 c -1.71115,-1.89079 -0.70736,-4.319 3.00844,-7.27757 1.79515,-1.42932 4.94155,-3.23173 6.99199,-4.00534 6.05851,-2.28583 25.55344,-7.06848 27.18575,-6.6694 0.25315,0.0619 2.00218,-0.1799 3.88672,-0.53729 2.85594,-0.54163 3.6211,-0.47364 4.59568,0.40833 1.11631,1.01027 1.09683,1.1676 -0.43042,3.47541 -1.60213,2.42098 -3.13868,8.39824 -2.44672,9.51786 0.21703,0.35116 -2.03158,0.42123 -5.47695,0.17066 -9.06376,-0.65918 -24.47376,1.67725 -31.46786,4.77108 -3.83399,1.69595 -4.43066,1.71088 -5.84663,0.14626 z m 6.17223,-15.52794 c 0,-1.24441 -0.63789,-4.20572 -1.41754,-6.58067 -1.41564,-4.31238 -1.4158,-4.32045 -0.11755,-6.09169 0.71497,-0.97547 2.26995,-2.26841 3.45549,-2.87319 2.04681,-1.04416 2.25986,-1.03537 4.22423,0.17417 1.1378,0.70058 4.87769,2.14813 8.31087,3.21677 7.31107,2.27571 9.19896,3.42873 9.19896,5.61823 0,1.19753 -0.44849,1.69745 -1.80694,2.01416 -6.33259,1.47638 -16.07604,4.31032 -18.72645,5.44666 l -3.12107,1.33816 0,-2.2626 z m -86.73302,0.58463 c -1.26485,-0.55889 -6.11597,-2.01286 -10.78021,-3.23104 -4.66426,-1.2182 -8.75726,-2.49169 -9.09556,-2.82999 -0.93604,-0.93604 0.56465,-3.21826 2.91558,-4.43398 1.1307,-0.5847 4.15267,-1.64101 6.71547,-2.34734 2.5628,-0.70632 5.67574,-1.87979 6.91764,-2.6077 4.33585,-2.54133 9.78542,0.49068 9.00727,5.01143 -0.63269,3.67564 -2.71097,11.5064 -3.04693,11.48051 -0.18343,-0.0141 -1.36841,-0.483 -2.63326,-1.04189 z m 135.15517,-0.63096 c -1.01397,-0.87273 -2.5312,-1.58678 -3.37162,-1.58678 -0.97354,0 -2.16318,-0.8327 -3.27826,-2.29463 -2.08487,-2.73342 -3.52018,-3.16281 -8.07183,-2.41482 l -3.42391,0.56267 -3.52391,-3.41318 c -3.49254,-3.38279 -5.77168,-4.52736 -12.95419,-6.50555 -1.98763,-0.54744 -4.83043,-1.78625 -6.31735,-2.75294 -3.02348,-1.96564 -6.16695,-6.33193 -6.16695,-8.56593 0,-1.849 1.46192,-2.33075 7.18144,-2.36656 13.62094,-0.0853 30.09987,9.08164 37.36568,20.78581 2.67953,4.31632 5.10465,9.4415 4.67155,9.87274 -0.14689,0.14627 -1.09669,-0.44811 -2.11065,-1.32083 z m -181.80703,0.31624 c 0,-0.39888 1.09128,-2.83825 2.42504,-5.42081 1.70881,-3.30874 4.08611,-6.35385 8.04909,-10.31024 4.69967,-4.69184 6.65003,-6.11156 11.8662,-8.63766 3.43319,-1.66263 7.95034,-3.5079 10.03813,-4.10061 3.93448,-1.11696 11.96537,-1.46997 15.1661,-0.66664 1.58509,0.39783 1.77874,0.69625 1.41724,2.18391 -0.67172,2.76425 -3.43856,6.51091 -6.09369,8.25168 -1.35213,0.88647 -4.63672,2.21032 -7.2991,2.94188 -4.92104,1.35218 -10.19455,4.72246 -13.45819,8.60107 -1.28617,1.52851 -2.12582,1.82216 -6.05272,2.11674 -3.29943,0.24751 -5.78995,0.93516 -9.01237,2.4884 -2.44914,1.18051 -4.61028,2.40088 -4.80253,2.71195 -0.50608,0.81887 -2.2432,0.69522 -2.2432,-0.15967 z m 71.87175,-14.95848 c -2.31427,-3.25761 -4.56423,-4.28596 -8.27293,-3.78119 -9.42739,1.28312 -8.95535,1.30445 -11.33724,-0.5123 l -2.24701,-1.71388 1.34159,-3.03289 c 0.82338,-1.8614 1.20079,-3.7368 0.97708,-4.85533 -0.29683,-1.48419 -0.0957,-1.89454 1.08374,-2.21077 2.53279,-0.67911 7.13797,-0.43744 10.58945,0.55571 1.83869,0.52908 4.14963,1.12442 5.13542,1.32299 1.17354,0.23639 2.72902,1.60167 4.50548,3.95457 2.62247,3.47343 5.14058,4.91548 8.60355,4.92698 1.44977,0.004 3.16801,1.76431 3.16801,3.24405 0,0.84913 -1.13983,1.57756 -4.10668,2.62451 -7.09099,2.50229 -7.29983,2.49073 -9.44046,-0.52245 z m 32.60211,1.26016 c -1.62624,-0.68164 -3.76992,-1.41683 -4.76374,-1.63376 -3.57005,-0.77925 -1.25915,-4.46821 3.25081,-5.18938 3.29618,-0.52707 5.63305,-2.34135 7.81799,-6.06968 1.51458,-2.58443 1.97239,-2.91196 4.10621,-2.93759 1.32087,-0.0158 3.58429,-0.45492 5.02984,-0.9757 2.64795,-0.95397 8.05599,-1.25578 10.54066,-0.58827 1.07608,0.28909 1.2922,0.78423 1.09174,2.50132 -0.13746,1.17748 0.23642,3.30277 0.83083,4.72286 l 1.08076,2.58199 -2.08576,1.86693 c -1.78586,1.5985 -2.47616,1.81654 -4.80079,1.51645 -11.53226,-1.48874 -11.80713,-1.43137 -14.90019,3.10959 -1.84492,2.70856 -2.94867,2.87651 -7.19836,1.09524 z m -16.08129,-3.28464 c -1.35018,-2.61093 -1.26224,-4.12465 0.35935,-6.18617 2.72887,-3.4692 7.18007,-1.48742 7.18007,3.19674 0,3.05277 -1.63297,4.928 -4.29134,4.928 -1.82216,0 -2.43465,-0.36555 -3.24808,-1.93857 z m -8.59601,-5.96709 c -5.04429,-1.86599 -2.92197,-7.30644 3.24036,-8.30645 4.7257,-0.76687 7.41443,3.19896 4.18891,6.17858 -1.82458,1.68546 -5.65752,2.78329 -7.42927,2.12787 z m 18.32049,-0.28083 c -1.14723,-0.49902 -2.57624,-1.6557 -3.17557,-2.57038 -3.34523,-5.10546 5.71814,-7.84515 9.82131,-2.9688 2.34391,2.78557 2.15983,4.21692 -0.73853,5.74249 -1.84698,0.97217 -3.32148,0.92142 -5.90721,-0.20331 z"
       style="fill:#000000" />
    <flowRoot
       style="font-style:normal;font-weight:normal;line-height:0.01%;font-family:sans-serif;letter-spacing:0px;word-spacing:0px;fill:#000000;fill-opacity:1;stroke:none;stroke-width:1px;stroke-linecap:butt;stroke-linejoin:miter;stroke-opacity:1"
       id="flowRoot3449"
       xml:space="preserve"><flowRegion
         id="flowRegion3451"><rect
           y="-223.77174"
           x="-280.82242"
           height="137.38075"
           width="389.91888"
           id="rect3453" /></flowRegion><flowPara
         style="font-size:60px;line-height:1.25"
         id="flowPara3455"> </flowPara></flowRoot>
  </g>
</svg>
